<svg width="346" height="349" xmlns="http://www.w3.org/2000/svg"><g fill="none" fill-rule="evenodd"><rect stroke="#E0E5EE" fill="#FFF" y="18" width="346" height="45" rx="4"/><rect stroke="#E0E5EE" fill="#FFF" y="67" width="346" height="282" rx="4"/><circle fill="#D3DCE7" cx="84" cy="276" r="20"/><rect stroke="#E0E5EE" fill="#FFF" x="243" y="92" width="79" height="30" rx="4"/><rect fill="#5876A3" x="306" y="32" width="16" height="16" rx="2"/><rect fill="#A8B8D0" x="301" y="188" width="16" height="16" rx="2"/><rect fill="#A8B8D0" x="256" y="188" width="16" height="16" rx="2"/><rect fill="#A8B8D0" x="211" y="188" width="16" height="16" rx="2"/><rect fill="#A8B8D0" x="166" y="188" width="16" height="16" rx="2"/><rect fill="#A8B8D0" x="121" y="188" width="16" height="16" rx="2"/><rect fill="#A8B8D0" x="76" y="188" width="16" height="16" rx="2"/><rect fill="#A8B8D0" x="31" y="188" width="16" height="16" rx="2"/><rect fill="#A8B8D0" x="301" y="228" width="16" height="16" rx="2"/><rect fill="#A8B8D0" x="256" y="228" width="16" height="16" rx="2"/><rect fill="#A8B8D0" x="211" y="228" width="16" height="16" rx="2"/><rect fill="#A8B8D0" x="166" y="228" width="16" height="16" rx="2"/><rect fill="#A8B8D0" x="121" y="228" width="16" height="16" rx="2"/><rect fill="#A8B8D0" x="76" y="228" width="16" height="16" rx="2"/><rect fill="#A8B8D0" x="31" y="228" width="16" height="16" rx="2"/><rect fill="#A8B8D0" x="301" y="268" width="16" height="16" rx="2"/><rect fill="#A8B8D0" x="256" y="268" width="16" height="16" rx="2"/><rect fill="#A8B8D0" x="211" y="268" width="16" height="16" rx="2"/><rect fill="#A8B8D0" x="166" y="268" width="16" height="16" rx="2"/><rect fill="#A8B8D0" x="121" y="268" width="16" height="16" rx="2"/><rect fill="#A8B8D0" x="76" y="268" width="16" height="16" rx="2"/><rect fill="#A8B8D0" x="31" y="268" width="16" height="16" rx="2"/><rect fill="#A8B8D0" x="301" y="308" width="16" height="16" rx="2"/><rect fill="#A8B8D0" x="256" y="308" width="16" height="16" rx="2"/><rect fill="#A8B8D0" x="211" y="308" width="16" height="16" rx="2"/><rect fill="#A8B8D0" x="166" y="308" width="16" height="16" rx="2"/><rect fill="#A8B8D0" x="121" y="308" width="16" height="16" rx="2"/><rect fill="#A8B8D0" x="76" y="308" width="16" height="16" rx="2"/><rect fill="#A8B8D0" x="31" y="308" width="16" height="16" rx="2"/><rect fill="#D3DDE7" x=".144" width="48.028" height="6" rx="4"/><rect fill="#A8B8D0" x="56.144" y="104" width="129.856" height="6" rx="4"/><rect fill="#D3DDE7" x="256" y="104" width="39" height="6" rx="4"/><rect fill="#D3DDE7" x="24" y="152" width="30" height="6" rx="4"/><rect fill="#D3DDE7" x="68" y="152" width="30" height="6" rx="4"/><rect fill="#D3DDE7" x="112" y="152" width="30" height="6" rx="4"/><rect fill="#D3DDE7" x="156" y="152" width="30" height="6" rx="4"/><rect fill="#D3DDE7" x="200" y="152" width="30" height="6" rx="4"/><rect fill="#D3DDE7" x="244" y="152" width="30" height="6" rx="4"/><rect fill="#D3DDE7" x="292" y="152" width="30" height="6" rx="4"/><rect fill="#5876A3" x="303" y="104" width="6" height="6" rx="40"/><rect fill="#5876A3" x="213" y="104" width="6" height="6" rx="40"/><rect fill="#5876A3" x="24" y="104" width="6" height="6" rx="40"/></g></svg>