<svg width="288" height="126" viewBox="0 0 288 126" xmlns="http://www.w3.org/2000/svg"><g fill="none" fill-rule="evenodd"><g transform="translate(8)"><rect fill="#E0E5EE" width="100" height="8" rx="5"/><rect fill="#9FAAB5" y="20" width="200" height="8" rx="5"/><path d="M279.708 19.35l-1.058-1.058c-.39-.39-1.02-.39-1.41 0l-.82.82c-.098.098-.098.257 0 .354l2.113 2.114c.098.098.256.098.354 0l.82-.82c.39-.39.39-1.02 0-1.41zm-3.994.82c-.097-.096-.256-.096-.353 0l-6.52 6.523-.013-.013-.812 2.843c-.08.282.18.542.462.462l2.843-.812-.013-.013 6.52-6.52c.1-.098.1-.257 0-.354l-2.113-2.115z" fill="#E0E5EE"/></g><g transform="translate(0 88)"><rect stroke="#D8DDE6" fill="#FFF" y="10" width="260" height="28" rx="4"/><rect fill="#E0E5EE" x="8" width="100" height="8" rx="5"/><rect fill="#9FAAB5" x="8" y="20" width="200" height="8" rx="5"/></g></g></svg>