<svg width="346" height="349" xmlns="http://www.w3.org/2000/svg"><g fill="none" fill-rule="evenodd"><rect stroke="#E0E5EE" fill="#FFF" y="18" width="346" height="45" rx="4"/><rect stroke="#E0E5EE" fill="#FFF" y="67" width="346" height="282" rx="4"/><rect fill="#5876A3" x="306" y="32" width="16" height="16" rx="2"/><rect fill="#D3DCE7" x="31" y="92" width="32" height="32" rx="2"/><rect fill="#D3DDE7" x=".144" width="48.028" height="6" rx="4"/><rect fill="#A8B8D0" x="81.144" y="104" width="197.856" height="6" rx="4"/><rect fill="#D3DCE7" x="31" y="142" width="32" height="32" rx="2"/><rect fill="#A8B8D0" x="81.144" y="154" width="146.856" height="6" rx="4"/><rect fill="#D3DCE7" x="31" y="192" width="32" height="32" rx="2"/><rect fill="#A8B8D0" x="81.144" y="204" width="172.856" height="6" rx="4"/><rect fill="#D3DCE7" x="31" y="242" width="32" height="32" rx="2"/><rect fill="#A8B8D0" x="81.144" y="254" width="106.856" height="6" rx="4"/><rect fill="#5876A3" x="31" y="292" width="32" height="32" rx="2"/><rect fill="#A8B8D0" x="81.144" y="304" width="106.856" height="6" rx="4"/></g></svg>