<svg width="346" height="72" xmlns="http://www.w3.org/2000/svg"><g fill="none" fill-rule="evenodd"><rect stroke="#E0E5EE" fill="#FFF" y="27" width="346" height="45" rx="4"/><rect fill="#A8B8D0" x="30.144" y="46" width="128.074" height="6" rx="4"/><path d="M7.5 0C3.358 0 0 3.358 0 7.5 0 11.642 3.358 15 7.5 15c4.142 0 7.5-3.358 7.5-7.5C15 3.358 11.642 0 7.5 0zm0 3.78c.518 0 .938.42.938.94 0 .517-.42.936-.938.936s-.938-.42-.938-.937c0-.52.42-.94.938-.94zm1.563 6.567c0 .17-.14.278-.31.278H6.247c-.17 0-.31-.107-.31-.278v-.63c0-.172.14-.342.31-.342h.006c.17 0 .31-.107.31-.278V7.84c0-.17-.14-.34-.31-.34h-.006c-.17 0-.31-.107-.31-.278v-.63c0-.172.14-.342.31-.342h1.88c.17 0 .31.17.31.34v2.507c0 .17.14.278.31.278h.006c.17 0 .31.17.31.34v.632z" fill="#4F6A92"/><rect fill="#D3DDE7" x="25.144" y="4" width="48.028" height="6" rx="4"/></g></svg>