<?xml version="1.0" encoding="UTF-8" standalone="no"?>
<svg width="346px" height="349px" viewBox="0 0 346 349" version="1.1" xmlns="http://www.w3.org/2000/svg" xmlns:xlink="http://www.w3.org/1999/xlink" xmlns:sketch="http://www.bohemiancoding.com/sketch/ns">
    <!-- Generator: Sketch 3.3.3 (12081) - http://www.bohemiancoding.com/sketch -->
    <title>Rectangle 398 + Rectangle 232 Copy 177 + Rectangle 232 Copy 175 Copy Copy Copy</title>
    <desc>Created with Sketch.</desc>
    <defs></defs>
    <g id="Page-1" stroke="none" stroke-width="1" fill="none" fill-rule="evenodd" sketch:type="MSPage">
        <g id="data-entry" sketch:type="MSArtboardGroup" transform="translate(-298.000000, -2005.000000)">
            <g id="Rectangle-398-+-Rectangle-232-Copy-177-+-Rectangle-232-Copy-175-Copy-Copy-Copy" sketch:type="MSLayerGroup" transform="translate(298.000000, 2005.000000)">
                <rect id="Rectangle-398" stroke="#E0E5EE" fill="#FFFFFF" sketch:type="MSShapeGroup" x="0" y="18" width="346" height="45" rx="4"></rect>
                <rect id="Rectangle-398-Copy-2" stroke="#E0E5EE" fill="#FFFFFF" sketch:type="MSShapeGroup" x="0" y="67" width="346" height="282" rx="4"></rect>
                <circle id="Oval-74" fill="#D3DCE7" sketch:type="MSShapeGroup" cx="84" cy="276" r="20"></circle>
                <rect id="Rectangle-398-Copy-3" stroke="#E0E5EE" fill="#FFFFFF" sketch:type="MSShapeGroup" x="243" y="92" width="79" height="30" rx="4"></rect>
                <rect id="Rectangle-909" fill="#5876A3" sketch:type="MSShapeGroup" x="306" y="32" width="16" height="16" rx="2"></rect>
                <rect id="Rectangle-909-Copy" fill="#A8B8D0" sketch:type="MSShapeGroup" x="301" y="188" width="16" height="16" rx="2"></rect>
                <rect id="Rectangle-909-Copy-2" fill="#A8B8D0" sketch:type="MSShapeGroup" x="256" y="188" width="16" height="16" rx="2"></rect>
                <rect id="Rectangle-909-Copy-3" fill="#A8B8D0" sketch:type="MSShapeGroup" x="211" y="188" width="16" height="16" rx="2"></rect>
                <rect id="Rectangle-909-Copy-4" fill="#A8B8D0" sketch:type="MSShapeGroup" x="166" y="188" width="16" height="16" rx="2"></rect>
                <rect id="Rectangle-909-Copy-5" fill="#A8B8D0" sketch:type="MSShapeGroup" x="121" y="188" width="16" height="16" rx="2"></rect>
                <rect id="Rectangle-909-Copy-6" fill="#A8B8D0" sketch:type="MSShapeGroup" x="76" y="188" width="16" height="16" rx="2"></rect>
                <rect id="Rectangle-909-Copy-7" fill="#A8B8D0" sketch:type="MSShapeGroup" x="31" y="188" width="16" height="16" rx="2"></rect>
                <rect id="Rectangle-909-Copy-14" fill="#A8B8D0" sketch:type="MSShapeGroup" x="301" y="228" width="16" height="16" rx="2"></rect>
                <rect id="Rectangle-909-Copy-8" fill="#A8B8D0" sketch:type="MSShapeGroup" x="256" y="228" width="16" height="16" rx="2"></rect>
                <rect id="Rectangle-909-Copy-9" fill="#A8B8D0" sketch:type="MSShapeGroup" x="211" y="228" width="16" height="16" rx="2"></rect>
                <rect id="Rectangle-909-Copy-10" fill="#A8B8D0" sketch:type="MSShapeGroup" x="166" y="228" width="16" height="16" rx="2"></rect>
                <rect id="Rectangle-909-Copy-11" fill="#A8B8D0" sketch:type="MSShapeGroup" x="121" y="228" width="16" height="16" rx="2"></rect>
                <rect id="Rectangle-909-Copy-12" fill="#A8B8D0" sketch:type="MSShapeGroup" x="76" y="228" width="16" height="16" rx="2"></rect>
                <rect id="Rectangle-909-Copy-13" fill="#A8B8D0" sketch:type="MSShapeGroup" x="31" y="228" width="16" height="16" rx="2"></rect>
                <rect id="Rectangle-909-Copy-21" fill="#A8B8D0" sketch:type="MSShapeGroup" x="301" y="268" width="16" height="16" rx="2"></rect>
                <rect id="Rectangle-909-Copy-15" fill="#A8B8D0" sketch:type="MSShapeGroup" x="256" y="268" width="16" height="16" rx="2"></rect>
                <rect id="Rectangle-909-Copy-16" fill="#A8B8D0" sketch:type="MSShapeGroup" x="211" y="268" width="16" height="16" rx="2"></rect>
                <rect id="Rectangle-909-Copy-17" fill="#A8B8D0" sketch:type="MSShapeGroup" x="166" y="268" width="16" height="16" rx="2"></rect>
                <rect id="Rectangle-909-Copy-18" fill="#A8B8D0" sketch:type="MSShapeGroup" x="121" y="268" width="16" height="16" rx="2"></rect>
                <rect id="Rectangle-909-Copy-19" fill="#A8B8D0" sketch:type="MSShapeGroup" x="76" y="268" width="16" height="16" rx="2"></rect>
                <rect id="Rectangle-909-Copy-20" fill="#A8B8D0" sketch:type="MSShapeGroup" x="31" y="268" width="16" height="16" rx="2"></rect>
                <rect id="Rectangle-909-Copy-28" fill="#A8B8D0" sketch:type="MSShapeGroup" x="301" y="308" width="16" height="16" rx="2"></rect>
                <rect id="Rectangle-909-Copy-22" fill="#A8B8D0" sketch:type="MSShapeGroup" x="256" y="308" width="16" height="16" rx="2"></rect>
                <rect id="Rectangle-909-Copy-23" fill="#A8B8D0" sketch:type="MSShapeGroup" x="211" y="308" width="16" height="16" rx="2"></rect>
                <rect id="Rectangle-909-Copy-24" fill="#A8B8D0" sketch:type="MSShapeGroup" x="166" y="308" width="16" height="16" rx="2"></rect>
                <rect id="Rectangle-909-Copy-25" fill="#A8B8D0" sketch:type="MSShapeGroup" x="121" y="308" width="16" height="16" rx="2"></rect>
                <rect id="Rectangle-909-Copy-26" fill="#A8B8D0" sketch:type="MSShapeGroup" x="76" y="308" width="16" height="16" rx="2"></rect>
                <rect id="Rectangle-909-Copy-27" fill="#A8B8D0" sketch:type="MSShapeGroup" x="31" y="308" width="16" height="16" rx="2"></rect>
                <rect id="Rectangle-232-Copy-175" fill="#D3DDE7" sketch:type="MSShapeGroup" x="0.143513575" y="0" width="48.0275702" height="6" rx="4"></rect>
                <rect id="Rectangle-232-Copy-179" fill="#A8B8D0" sketch:type="MSShapeGroup" x="56.1435136" y="104" width="129.856486" height="6" rx="4"></rect>
                <rect id="Rectangle-232-Copy-180" fill="#D3DDE7" sketch:type="MSShapeGroup" x="256" y="104" width="39" height="6" rx="4"></rect>
                <rect id="Rectangle-232-Copy-181" fill="#D3DDE7" sketch:type="MSShapeGroup" x="24" y="152" width="30" height="6" rx="4"></rect>
                <rect id="Rectangle-232-Copy-182" fill="#D3DDE7" sketch:type="MSShapeGroup" x="68" y="152" width="30" height="6" rx="4"></rect>
                <rect id="Rectangle-232-Copy-183" fill="#D3DDE7" sketch:type="MSShapeGroup" x="112" y="152" width="30" height="6" rx="4"></rect>
                <rect id="Rectangle-232-Copy-184" fill="#D3DDE7" sketch:type="MSShapeGroup" x="156" y="152" width="30" height="6" rx="4"></rect>
                <rect id="Rectangle-232-Copy-185" fill="#D3DDE7" sketch:type="MSShapeGroup" x="200" y="152" width="30" height="6" rx="4"></rect>
                <rect id="Rectangle-232-Copy-186" fill="#D3DDE7" sketch:type="MSShapeGroup" x="244" y="152" width="30" height="6" rx="4"></rect>
                <rect id="Rectangle-232-Copy-187" fill="#D3DDE7" sketch:type="MSShapeGroup" x="292" y="152" width="30" height="6" rx="4"></rect>
                <rect id="Rectangle-914" fill="#5876A3" sketch:type="MSShapeGroup" x="303" y="104" width="6" height="6" rx="40"></rect>
                <rect id="Rectangle-914-Copy" fill="#5876A3" sketch:type="MSShapeGroup" x="213" y="104" width="6" height="6" rx="40"></rect>
                <rect id="Rectangle-914-Copy-2" fill="#5876A3" sketch:type="MSShapeGroup" x="24" y="104" width="6" height="6" rx="40"></rect>
            </g>
        </g>
    </g>
</svg>