<svg width="342" height="215" xmlns="http://www.w3.org/2000/svg"><g fill="none" fill-rule="evenodd"><rect stroke="#E0E5EE" fill="#FFF" x="1" y="18" width="340" height="45" rx="4"/><text font-family="Salesforce Sans" font-size="12" fill="#16325C"><tspan x="153" y="94">100%</tspan></text><path d="M2.4 75.5h338.137M1.5 69.5v12m339-12v12.042" stroke="#16325C" stroke-linecap="square"/><text font-family="Salesforce Sans" font-size="12" fill="#16325C"><tspan x="183" y="214">67%</tspan></text><text font-family="Salesforce Sans" font-size="12" fill="#16325C"><tspan x="12" y="214">33%</tspan></text><path d="M63.493 195.5h277.044m-339.044 0h48.1m13.907-6v12m-14-12v12m-48-12v12m339-12v12.042" stroke="#16325C" stroke-linecap="square"/><rect fill="#A8B8D0" x="31.144" y="37" width="128.074" height="6" rx="4"/><rect fill="#D3DDE7" x="2.144" width="48.028" height="6" rx="4"/><rect stroke="#E0E5EE" fill="#FFF" x="63" y="135" width="278" height="45" rx="4"/><rect fill="#A8B8D0" x="93.144" y="154" width="128.074" height="6" rx="4"/><rect fill="#D3DDE7" x="2.144" y="153" width="48.028" height="6" rx="4"/></g></svg>