<svg width="248" height="82" xmlns="http://www.w3.org/2000/svg"><g fill="none" fill-rule="evenodd"><rect stroke="#E0E5EE" width="32" height="32" rx="2"/><rect fill="#A8B8D0" x="50.144" y="12" width="197.856" height="6" rx="4"/><rect stroke="#E0E5EE" y="50" width="32" height="32" rx="2"/><rect fill="#A8B8D0" x="50.144" y="62" width="197.856" height="6" rx="4"/><path d="M13.656 71.837L8.153 65.97c-.204-.218-.204-.57 0-.79l.74-.787c.203-.218.534-.218.738 0l4.15 4.42c.137.145.358.145.494 0l8.097-8.65c.204-.217.535-.217.74 0l.74.79c.202.217.202.57 0 .788L14.395 71.84c-.204.218-.535.218-.74 0" fill="#0070D2"/></g></svg>