<svg width="346" height="287" xmlns="http://www.w3.org/2000/svg"><g fill="none" fill-rule="evenodd"><rect stroke="#E0E5EE" fill="#FFF" width="346" height="45" rx="4"/><rect stroke="#E0E5EE" fill="#FFF" y="49" width="346" height="238" rx="4"/><rect fill="#5876A3" x="306" y="14" width="16" height="16" rx="2"/><path fill="#F7F9FB" d="M1 166h344v47H1z"/><rect fill="#A8B8D0" x="31.144" y="20" width="113.856" height="6" rx="4"/><rect fill="#A8B8D0" x="71.144" y="86" width="140" height="6" rx="4"/><rect fill="#A8B8D0" x="71.144" y="136" width="140" height="6" rx="4"/><rect fill="#A8B8D0" x="71.144" y="186" width="140" height="6" rx="4"/><path d="M33.656 194.837l-5.503-5.867c-.204-.218-.204-.57 0-.79l.74-.787c.203-.218.534-.218.738 0l4.15 4.42c.138.145.36.145.495 0l8.097-8.65c.204-.217.535-.217.74 0l.74.79c.202.217.202.57 0 .788l-9.454 10.1c-.204.217-.535.217-.74 0" fill="#0070D2"/><rect fill="#A8B8D0" x="71.144" y="236" width="140" height="6" rx="4"/></g></svg>