<svg width="287" height="315" xmlns="http://www.w3.org/2000/svg" xmlns:xlink="http://www.w3.org/1999/xlink"><defs><circle id="a" cx="16" cy="16" r="16"/><circle id="c" cx="16" cy="87" r="16"/><circle id="e" cx="16" cy="162" r="16"/></defs><g transform="translate(0 .973)" fill="none" fill-rule="evenodd"><rect stroke="#E1E6EF" fill="#F7F9FB" width="287" height="314" rx="4"/><rect stroke="#E0E5EE" fill="#FFF" x="241" y="13" width="32" height="32" rx="2"/><rect fill="#E0E5EE" x="123" y="65" width="73" height="21" rx="15"/><text font-family="Salesforce Sans" font-size="10" fill="#5876A3"><tspan x="137.755" y="79">PRIMARY</tspan></text><g transform="translate(17 64)"><mask id="b" fill="#fff"><use xlink:href="#a"/></mask><use fill="#D3DCE7" xlink:href="#a"/><g mask="url(#b)"><path d="M7.498 24.778c-.308.186-.49.416-.486.7.003-.285.184-.514.486-.7m5.446-.775c-.444 0-.98.008-1.546.034.478-.02.93-.026 1.31-.026.135 0 .26.005.376.006.464.005.757.018.757.018l.29.002v-.01h-.006s-.473-.02-1.176-.02" fill="#F2F2F2"/><path d="M19.16 24.055s6.863-.332 6.83 1.443c-.017.866-.013 4.815-.004 8.633.01 4.346-3.68 7.87-8.236 7.87h-2.5c-4.555 0-8.246-3.524-8.236-7.866.01-3.817.014-7.766-.002-8.632-.027-1.41 4.29-1.504 6.072-1.484.464.005.757.018.757.018l5.32.025" fill="#4F6A92"/><path d="M16.5 26.402c-1.31 0-2.374-1.057-2.374-2.36V21.48c0-1.305 1.063-2.36 2.374-2.36 1.31 0 2.374 1.055 2.374 2.36v2.56c0 1.304-1.063 2.36-2.374 2.36" fill="#FFF"/><path fill="#E5E5E5" d="M18.874 21.278h-.008v.01l.008-.01"/><path d="M18.866 21.28l-4.74.2s1.207.953 2.565.953c.74 0 1.52-.28 2.18-1.145v-.01" fill="#CFD7E5"/><path d="M24.815 12.53c0-.832-.497-1.528-1.284-1.696-.085-3.747-3.145-6.784-6.933-6.784s-6.87 3.037-6.96 6.784c-.787.168-1.553.864-1.553 1.696s.45 1.526 1.198 1.697v.76c0 3.822 3.146 6.95 6.99 6.95 3.843 0 6.99-3.128 6.99-6.95v-.76c.996-.17 1.56-.865 1.56-1.697" fill="#FFF"/><path d="M14.333 35.83c-.417 0-.788-.144-1.046-.407-.262-.268-.404-.655-.41-1.12v-.026l.025.006c.384.09.805.138 1.217.138.225 0 .453-.01.675-.04h.006l.01.005h.002c.374.31.74.55 1.09.72l.026.012-.02.02c-.436.436-1.025.697-1.58.697m1.68-.807l-.01-.01c-.32-.15-.655-.36-.998-.632l-.036-.03.046-.007c.234-.04.46-.095.67-.165.34-.113.645-.27.936-.48l.044-.03-.01.052c-.107.492-.324.937-.628 1.287l-.01.015m1.08.264c-.295 0-.613-.07-.94-.203l-.028-.01.02-.022c.312-.375.532-.847.633-1.365l.02-.117v-.004l.003-.01h.002c.21-.173.412-.376.62-.622l.016-.018.01-.013.013.034c.27.79.626 1.26 1.154 1.53l.023.014-.016.02c-.527.646-1.123.782-1.53.782m-2.975-.985c-.418 0-.84-.05-1.225-.14l-.017-.003v-.016c.012-.232.056-.485.13-.75.06-.217.125-.43.193-.63l.012-.04.024.03c.285.374.63.758 1.024 1.14.128.124.258.243.384.353l.036.032-.047.004c-.17.016-.344.024-.518.024m-1.358-.177l-.025-.007c-.846-.24-1.438-.68-1.624-1.217-.114-.328-.158-.853.28-1.492.183-.262.47-.474.833-.612l.02-.007.006.023c.127.563.42 1.163.868 1.782l.007.008v.002l-.003.01c-.08.235-.16.485-.23.74-.07.262-.116.513-.13.746l-.002.027m5.953.262l-.015-.01c-.534-.26-.89-.748-1.155-1.574l-.004-.01.007-.01c.188-.236.36-.48.53-.717.35-.496.683-.964 1.105-1.287l.023-.018.01.027c.155.485.23 1.056.207 1.606-.022.535-.246 1.352-.698 1.975l-.01.014m-3.873-.137l-.007-.006c-.16-.135-.326-.284-.49-.444-.42-.408-.784-.816-1.08-1.212l-.005-.01.004-.01c.253-.723.56-1.352.905-1.868l.01-.012.014.003c.883.18 1.582.567 2.02 1.12.38.486.55 1.08.475 1.677v.01l-.008.005c-.32.254-.66.44-1.038.564-.247.08-.514.143-.793.182h-.01m-1.65-1.778l-.023-.033c-.408-.58-.673-1.14-.79-1.665l-.003-.02.018-.005c.29-.088.626-.135.97-.135.222 0 .448.018.673.055l.032.005-.018.026c-.32.488-.607 1.072-.85 1.734l-.01.038m6.57 2.136h-.07c-.31-.01-.588-.063-.828-.157l-.025-.01.015-.02c.454-.64.68-1.47.7-2.01.026-.598-.054-1.18-.23-1.7l-.004-.014.01-.008c.266-.177.548-.28.86-.32.065-.01.13-.014.19-.014.915 0 1.326.914 1.326 1.82 0 .61-.18 1.212-.492 1.655-.25.353-.705.774-1.457.774M16.82 33.39l.004-.05c.043-.682-.2-1.306-.704-1.804-.453-.447-1.104-.782-1.835-.94l-.03-.008.017-.026c.517-.723 1.116-1.203 1.78-1.427l.012-.004.01.01c.458.518.786 1.2.948 1.97l.053.255v.004c.103.496.2.965.332 1.395l.003.01-.007.01c-.184.224-.362.413-.544.576l-.04.033m.68-.73l-.015-.04c-.114-.395-.203-.824-.297-1.277l-.053-.257c-.16-.767-.48-1.448-.928-1.97l-.02-.024.03-.008c.205-.055.417-.086.63-.09.027-.002.05-.002.078-.002.565 0 1.054.166 1.45.494.334.275.595.662.78 1.15l.003.012-.01.01c-.456.335-.803.825-1.17 1.344v.002c-.147.204-.297.416-.457.62l-.024.033m-5.16-2.023l-.005-.023c-.16-.97.233-1.792 1.047-2.204.26-.13.537-.196.83-.196.6 0 1.236.292 1.742.802l.02.023-.03.01c-.677.245-1.286.752-1.81 1.503l-.003.004-.004.006-.01-.002h-.003c-.256-.044-.512-.067-.763-.067-.355 0-.688.046-.988.136l-.023.006m1.872-2.54c-.313 0-.61.07-.884.207-.875.44-1.288 1.32-1.11 2.353l.004.017-.016.006c-.398.144-.714.375-.913.665-.466.68-.42 1.242-.295 1.595.202.58.837 1.056 1.74 1.3l.016.007v.016c0 .514.153.943.445 1.242.28.286.683.443 1.13.443.606 0 1.24-.287 1.7-.77l.01-.01.016.004c.36.156.71.235 1.04.235.63 0 1.2-.298 1.646-.86l.01-.01.016.005c.263.11.57.17.908.18.024.002.048.002.072.002.635 0 1.172-.286 1.554-.826.325-.46.512-1.09.512-1.72 0-.52-.126-.996-.356-1.34-.26-.39-.636-.6-1.088-.6-.067 0-.136.005-.205.014-.32.04-.608.144-.88.318l-.02.013-.01-.022c-.42-1.083-1.248-1.68-2.327-1.68h-.08c-.25.007-.5.046-.737.116l-.012.004-.008-.01c-.538-.566-1.223-.89-1.88-.89" fill="#EEF1F6"/><path fill="#FFF" d="M19.64 24.037h-.313v.012c.08-.007.185-.01.312-.01v-.006"/><path d="M13.705 24.037h-.312c0 1.715 1.398 3.105 3.123 3.106 1.724 0 3.122-1.39 3.123-3.104-.13 0-.237.003-.316.01-.003.763-.317 1.46-.823 1.96-.51.507-1.21.82-1.987.82-.777 0-1.478-.31-1.988-.818s-.823-1.204-.823-1.977" fill="#EEF1F6"/></g><mask id="d" fill="#fff"><use xlink:href="#c"/></mask><use fill="#D3DCE7" xlink:href="#c"/><g mask="url(#d)"><path d="M12.193 86.784s2.08 6.762 1.768 6.833c-.31.07-6.44.04-6.03-1.585.146-.557.415-.672.82-1.01.41-.337.62-.862.768-1.352.512-1.703.528-3.516.38-5.287-.05-.617-.12-1.242-.014-1.853.08-.455.256-.888.454-1.305.686-1.44 1.71-2.47 2.683-3.697l-.824 9.256m7.715 0s-2.315 6.74-2.005 6.81c.31.07 6.68.064 6.268-1.562-.14-.557-.41-.672-.818-1.01-.407-.337-.618-.862-.765-1.352-.515-1.703-.53-3.516-.384-5.287.05-.617.12-1.242.015-1.853-.08-.455-.253-.888-.452-1.305-.686-1.44-1.71-2.47-2.683-3.697l.824 9.256" fill="#4F6A92"/><path d="M18.517 95.043s6.505-.312 6.472 1.358c-.02.82-.015 4.537-.006 8.13.01 4.088-3.488 7.405-7.806 7.405H14.81c-4.32 0-7.817-3.317-7.807-7.405.01-3.594.014-7.31-.002-8.127-.03-1.67 6.473-1.38 6.473-1.38l5.04.023" fill="#16325C"/><path d="M15.997 97.252c-1.243 0-2.25-.995-2.25-2.222v-2.412c0-1.227 1.007-2.22 2.25-2.22 1.242 0 2.25.993 2.25 2.22v2.412c0 1.227-1.008 2.222-2.25 2.222" fill="#FFF"/><path fill="#594631" d="M13.49 92.5s.094.076.257.187v-.07c0-.036 0-.074.003-.11l-.26-.006m4.756.08"/><path d="M13.75 92.506c-.002.037-.003.075-.003.112v.07c.458.31 1.47.907 2.524.907.69 0 1.4-.256 1.98-1.016l-.198-.007c-.64.22-1.327.34-2.04.34-.787 0-1.54-.146-2.236-.41h-.023" fill="#CFD7E5"/><path d="M16.008 92.915c-3.448 0-6.268-2.786-6.268-6.19v-4.127c0-3.405 2.82-6.19 6.268-6.19s6.268 2.785 6.268 6.19v4.127c0 3.404-2.82 6.19-6.268 6.19" fill="#FFF"/><path d="M13.967 99.14c-.278 0-.542.063-.787.186-.77.387-1.142 1.162-.992 2.074l.004.022.02-.007c.286-.085.6-.128.94-.128.237 0 .48.022.722.065h.004l.008.003.005-.008.007-.004c.496-.707 1.073-1.183 1.716-1.415l.03-.01-.022-.022c-.48-.48-1.08-.755-1.65-.755zm-.816 2.258c-.324 0-.64.044-.92.128l-.014.005.004.02c.11.496.36 1.02.747 1.57l.02.03.014-.035c.23-.624.5-1.173.8-1.633l.02-.025-.03-.005c-.214-.036-.43-.053-.637-.053zm3.39-1.522h-.07c-.2.006-.402.035-.6.086l-.03.008.02.024c.427.49.73 1.13.88 1.852l.05.242c.09.427.176.83.285 1.203l.01.04.024-.03c.15-.193.293-.392.43-.585v-.002c.35-.487.678-.95 1.11-1.264l.01-.01-.003-.013c-.173-.457-.42-.82-.738-1.082-.376-.307-.838-.464-1.377-.464zm-.83.134c-.63.21-1.193.662-1.684 1.343l-.017.025.03.006c.69.15 1.31.465 1.74.886.475.47.706 1.056.665 1.7l-.003.046.036-.03c.173-.155.34-.333.516-.545l.01-.003-.004-.01c-.125-.405-.217-.847-.314-1.314v-.003l-.05-.238c-.153-.73-.464-1.37-.9-1.854l-.008-.01-.012.004zm-3.622 1.565c-.343.13-.616.33-.788.578-.417.6-.376 1.096-.267 1.405.177.503.738.92 1.54 1.144l.023.006v-.024c.015-.22.057-.455.126-.7.068-.242.14-.477.22-.7l.002-.008v-.002l-.005-.008c-.428-.582-.705-1.146-.825-1.677l-.005-.026-.022.008zm1.845-.088c-.327.486-.617 1.078-.86 1.76l-.003.01.006.007c.278.373.622.757 1.02 1.142.157.15.313.29.465.417l.008.005h.008c.265-.038.517-.096.752-.173.358-.118.68-.292.984-.53l.006-.006v-.01c.072-.56-.088-1.12-.45-1.58-.414-.52-1.076-.886-1.915-1.054l-.012-.004-.006.01zm-.92 1.93c-.063.192-.125.392-.182.595-.07.25-.11.49-.122.71v.015l.015.004c.363.09.764.137 1.16.137.163 0 .327-.007.488-.023l.046-.003-.034-.03c-.12-.103-.243-.215-.364-.332-.374-.36-.7-.72-.97-1.073l-.024-.03-.01.036zm5.668-1.854c-.4.304-.713.745-1.045 1.21-.158.224-.322.454-.5.676l-.008.004.004.01c.25.778.59 1.235 1.094 1.48l.015.008.01-.013c.427-.586.64-1.355.66-1.858.022-.518-.05-1.055-.197-1.512l-.01-.024-.02.017zm1.126-.406c-.058 0-.118.004-.18.01-.296.04-.563.138-.815.303l-.012.01.005.013c.165.485.24 1.037.217 1.596-.02.504-.235 1.29-.665 1.89l-.014.02.02.01c.23.085.496.134.79.144h.062c.715 0 1.147-.396 1.383-.73.296-.416.466-.984.466-1.557 0-.853-.39-1.714-1.256-1.714zm-3.555 3.152c-.274.194-.564.342-.885.45-.2.063-.414.12-.635.153l-.045.007.036.028c.326.254.644.455.946.595l.014.006.01-.01c.287-.33.493-.75.593-1.214l.01-.05-.04.03zm.768-.726c-.197.232-.39.424-.588.586h-.003l-.004.008v.004l-.02.11c-.095.488-.303.932-.6 1.284l-.018.02.026.01c.314.126.614.19.895.19.385 0 .95-.127 1.45-.736l.016-.02-.02-.01c-.5-.254-.84-.698-1.094-1.44l-.01-.034-.01.01-.015.017zm-4.313 1.288c.007.437.142.8.39 1.053.244.248.596.385.992.385.524 0 1.082-.245 1.493-.655l.02-.02-.026-.01c-.33-.16-.678-.387-1.033-.677l-.01-.006h-.004c-.21.027-.426.04-.643.04-.39 0-.79-.045-1.154-.13l-.025-.005v.024zm1.382 1.548c-.426 0-.807-.147-1.072-.417-.277-.28-.423-.685-.42-1.168v-.015l-.016-.003c-.857-.23-1.46-.677-1.65-1.224-.117-.333-.163-.864.28-1.503.19-.272.49-.49.864-.627l.016-.006-.004-.015c-.17-.973.222-1.8 1.048-2.215.26-.13.54-.197.838-.197.622 0 1.272.306 1.782.84l.007.01.01-.004c.23-.067.464-.104.7-.11h.076c1.025 0 1.81.562 2.208 1.583l.008.02.02-.01c.26-.168.53-.266.835-.3.064-.01.13-.017.192-.017.427 0 .784.195 1.03.563.22.324.337.772.337 1.26 0 .596-.177 1.187-.486 1.622-.36.507-.87.776-1.473.776l-.065-.002c-.32-.01-.61-.068-.86-.17l-.014-.005-.01.01c-.422.53-.962.81-1.56.81-.31 0-.643-.076-.985-.22l-.012-.008-.01.01c-.434.454-1.037.726-1.61.726z" fill="#EEF1F6"/><path d="M18.976 96.563c0 .198-.162.358-.363.358-.2 0-.362-.16-.362-.354 0-.198.166-.36.366-.36.2 0 .363.162.363.36m.235-1.17c0 .2-.162.36-.363.36-.2 0-.362-.16-.362-.36 0-.197.162-.36.363-.36.2 0 .364.163.364.36M18.03 97.73c0 .2-.162.36-.363.36-.2 0-.363-.16-.363-.36 0-.197.163-.358.363-.358.2 0 .363.16.363.36m-1.656.466c0 .198-.162.358-.362.358-.2 0-.363-.16-.363-.358 0-.198.16-.36.36-.36.2 0 .36.162.36.36m-1.652-.468c0 .2-.165.36-.365.36-.2 0-.363-.16-.363-.36 0-.197.162-.358.363-.358.2 0 .363.16.363.36m-.948-.936c0 .198-.162.358-.362.358-.2 0-.363-.16-.363-.358 0-.197.162-.358.363-.358.2 0 .362.16.362.358m-.472-1.4c0 .197-.163.357-.363.357-.2 0-.363-.16-.363-.358 0-.198.162-.36.363-.36.2 0 .362.162.362.36" fill="#FFF"/><path d="M18.247 83.828c1.092 1.062 1.79 1.392 2.237 1.392.733 0 .786-.888.786-.888l-3.023-.504" fill="#4F6A92"/><path d="M22.276 88.595c.985-2.42 3-5.815 1.616-8.376-.59-1.09-1.528-1.95-2.45-2.78-.97-.88-1.98-1.785-3.233-2.18-1.487-.47-3.096-.17-4.62.15-1.058.222-2.147.465-3.03 1.083-1.54 1.08-2.63 3.634-2.63 5.48 0 1.364.765 2.652 1.142 3.94l1.003 3.433s1.515-9.865 4.877-9.28c0 0 4.773 6.83 6.315 4.262l1.005 4.262" fill="#4F6A92"/><path d="M22.524 87.92c0 .198-.162.358-.362.358-.2 0-.363-.16-.363-.358 0-.198.16-.358.36-.358.2 0 .36.16.36.358m-12.062.233c0 .198-.16.36-.363.36-.2 0-.363-.162-.363-.36 0-.197.163-.358.363-.358.2 0 .363.16.363.358" fill="#FFF"/></g><mask id="f" fill="#fff"><use xlink:href="#e"/></mask><use fill="#D3DCE7" xlink:href="#e"/><g mask="url(#f)"><path d="M18.277 171.09s6.63-.35 6.598 1.517c-.016.91-.01 5.06-.002 9.074.01 4.568-3.556 8.27-7.958 8.27H14.5c-4.402 0-7.968-3.702-7.957-8.27.01-4.01.013-8.16-.003-9.07-.032-1.866 6.598-1.542 6.598-1.542l5.14.025" fill="#A7B7CF"/><path d="M19.56 171.054c-.716 0-1.208.025-1.208.025h-.155v.01h.08s.492-.03 1.207-.03c1.91 0 5.415.186 5.39 1.544-.015.91-.01 5.06 0 9.074.008 4.17-2.968 7.623-6.84 8.19 3.908-.534 6.923-4.004 6.913-8.2-.01-4.013-.014-8.165.002-9.075.02-1.358-3.48-1.542-5.39-1.542" fill="#FFF"/><path d="M19.852 177.48v.01c.003.192.06.35.167.46.102.11.253.168.423.168.226 0 .467-.107.643-.286l.008-.008-.01-.005c-.143-.07-.293-.17-.446-.3h-.008c-.09.01-.184.017-.277.017-.17 0-.34-.02-.497-.057h-.01m1.542-.25l-.017.013c-.12.087-.244.15-.382.197-.086.03-.178.05-.274.07h-.02l.016.013c.14.11.276.2.406.26l.006.003.004-.005c.124-.14.213-.324.256-.53l.004-.02m.323-.312l-.005.005-.006.008c-.087.1-.17.185-.256.256l-.002.003-.01.048c-.04.214-.13.408-.258.56l-.007.01.01.004c.135.057.264.085.385.085.166 0 .41-.056.624-.322l.006-.008-.01-.005c-.215-.11-.36-.305-.47-.63l-.005-.014m-1.73-.077l-.004.014c-.028.083-.054.17-.08.26-.03.11-.047.213-.052.31v.006h.008c.157.04.33.06.5.06.07 0 .14-.004.21-.01l.02-.002-.016-.015c-.05-.045-.104-.094-.156-.145-.16-.156-.303-.314-.42-.467l-.01-.01m-.393-.793l-.01.003c-.147.06-.264.145-.338.253-.18.263-.16.478-.116.613.076.22.317.402.662.5l.01.003v-.014c.007-.096.025-.2.055-.306.03-.104.06-.207.095-.304v-.008c-.184-.256-.304-.5-.356-.734l-.003-.01m2.838-.01l-.01.008c-.17.133-.306.326-.45.53-.067.096-.14.197-.215.294l-.004.002.003.005c.108.34.253.54.47.646l.007.002.005-.006c.183-.255.275-.59.284-.81.01-.227-.02-.46-.087-.66l-.005-.012m-2.05-.03l-.004.005c-.14.212-.265.47-.37.767v.004l.002.005c.12.163.268.33.44.498.067.066.134.127.2.182l.002.003h.004c.114-.018.223-.04.323-.077.156-.05.294-.126.425-.23h.003v-.004c.03-.245-.037-.49-.193-.69-.178-.227-.463-.386-.824-.46h-.006m-.338-.034c-.14 0-.28.02-.397.055h-.008v.008c.048.215.156.445.323.684l.01.012.004-.015c.1-.273.215-.513.346-.713l.007-.012-.013-.002c-.092-.014-.184-.02-.274-.02m2.863-.106c-.026 0-.052.002-.078.005-.128.015-.243.06-.352.13l-.005.004.003.005c.073.212.105.453.095.697-.008.22-.1.563-.285.825l-.007.01.01.003c.097.038.21.06.337.064h.027c.306 0 .492-.174.594-.32.128-.18.2-.43.2-.68 0-.37-.167-.747-.54-.747m-1.756-.502l-.006.003c-.27.092-.515.29-.726.586l-.006.01.012.002c.3.066.564.204.75.387.204.204.303.46.286.74l-.002.02.017-.013c.075-.066.147-.144.223-.236v-.007c-.054-.177-.093-.37-.135-.574l-.023-.106c-.066-.32-.2-.6-.387-.81l-.004-.004m.352-.055h-.03c-.088.002-.175.015-.26.037l-.012.005.01.01c.18.215.312.495.378.81l.022.104c.04.188.075.364.12.527l.006.016.01-.012c.066-.083.127-.17.186-.255.15-.214.292-.415.478-.553l.005-.004v-.005c-.075-.2-.18-.36-.32-.472-.16-.133-.36-.202-.59-.202m-1.11-.32c-.12 0-.233.026-.34.08-.33.168-.49.507-.424.904v.01l.01-.004c.123-.036.258-.055.404-.055.103 0 .208.01.31.03h.007l.002-.003c.213-.31.462-.517.74-.618l.01-.006-.01-.01c-.204-.208-.463-.328-.71-.328m-4.412-1.15v.096l.01-.092-.012-.003m4.463 4.326c-.183 0-.347-.065-.46-.183-.12-.122-.183-.3-.18-.51v-.006l-.008-.002c-.37-.1-.628-.294-.71-.533-.05-.146-.07-.378.12-.657.08-.12.21-.213.372-.273l.007-.002v-.007c-.072-.424.096-.785.45-.966.11-.056.235-.085.36-.085.27 0 .55.133.77.366l.002.004h.006c.097-.03.2-.046.3-.048h.032c.44 0 .777.244.95.69l.002.01.01-.006c.11-.07.227-.114.358-.13.028-.004.056-.006.083-.006.183 0 .337.085.443.246.093.14.145.337.145.55 0 .26-.074.518-.21.708-.153.222-.372.34-.632.34l-.028-.002c-.14-.004-.265-.03-.37-.074l-.008-.002-.005.005c-.183.233-.415.354-.673.354-.134 0-.276-.032-.423-.096h-.005l-.004.004c-.187.2-.446.318-.693.318m-.962-7.103c-.715 0-1.207.026-1.207.026h-.08c0 .07-.003.138-.01.206l1.278 1.868c.35.623-.122 1.348-.777 1.348-.076 0-.155-.008-.234-.03l-.232-.06.163.043-2.402-.36v15.845l1.006-.006c.356 0 .704-.026 1.047-.07 3.87-.567 6.847-4.02 6.838-8.19-.01-4.013-.014-8.164.002-9.074.024-1.357-3.48-1.542-5.39-1.542" fill="#B0BED4"/><path d="M18.058 171.106l1.407 2.058c.39.693-.242 1.517-1.01 1.317l-2.524-.65c-.15-.04-.305-.04-.46 0l-2.44.655c-.755.203-1.393-.592-1.03-1.288l1.388-2.152 4.673.063" fill="#4F6A91"/><path d="M15.705 173.57c-1.377 0-2.493-1.116-2.493-2.495v-2.708c0-1.378 1.116-2.495 2.493-2.495 1.376 0 2.492 1.117 2.492 2.495v2.708c0 1.38-1.116 2.496-2.492 2.496" fill="#FFF"/><path d="M13.218 168.198c.02.018 1.392 1.257 2.883 1.257.72 0 1.465-.286 2.1-1.132h-.047c-.72.245-1.494.378-2.297.378-.928 0-1.817-.174-2.634-.5" fill="#CFD7E5"/><path d="M15.46 173.686h.523v16.248h-.524v-16.248z" fill="#4F6A91"/><path d="M15.852 168.7c-3.95 0-7.18-3.234-7.18-7.188v-2.734c0-3.954 3.23-7.19 7.18-7.19 3.95 0 7.18 3.236 7.18 7.19v2.734c0 3.954-3.23 7.19-7.18 7.19" fill="#FFF"/><path fill="#71AEDF" d="M.022 154.492l.022.022v.044l-.022.022-.022-.022v-.044l.022-.022"/><path fill="#96A4BA" d="M15.316 173.91h.136v16.024h-.136V173.91z"/><path d="M15.995 173.843l-.012.093v.168l2.402.36-.163-.043-2.227-.574" fill="#9EABBE"/><path d="M15.995 173.843l2.227.578-2.227-.574m-.012.092l-.022.165.026.005v-.168" fill="#475F82"/><path d="M22.206 156.984l.016.738c.385-.174.654-.216 1.09-.242l.162-.477s.458-1.508.262-2.23c-.197-.72.524-1.836 0-2.557-.524-.722-1.507-.394-1.507-.754s-1.05-1.214-1.838-1.214-1.18 0-1.44-.72c-.263-.722-1.508.196-1.835.26-.33.067-1.05-.196-2.687-.655-1.637-.46-1.506 1.378-3.012 1.378s-1.506 1.97-2.49 2.23c-.898.24-.535 2.24-.467 2.578.01.035.01.068.01.103v5.315c0 .294.24.533.535.533h.245c.295 0 .533-.24.533-.533v-3.593c0-.29.237-.53.53-.53l11.18-.06c.285-.003.696.153.713.436" fill="#16325C"/><path d="M17.05 175.347c0 .203-.165.367-.368.367-.203 0-.367-.164-.367-.367 0-.203.164-.367.367-.367.203 0 .367.164.367.367m0 1.573c0 .204-.167.368-.37.368-.203 0-.367-.164-.367-.367 0-.2.164-.363.367-.363.204 0 .368.164.368.367m0 1.835c0 .202-.165.367-.368.367-.203 0-.367-.165-.367-.368 0-.204.164-.368.367-.368.203 0 .367.165.367.368m0 1.573c0 .205-.165.37-.368.37-.205 0-.37-.165-.37-.37 0-.2.165-.365.368-.365.202 0 .366.164.366.367" fill="#4F6A91"/><path fill="#CFD7E5" d="M21.035 162.734c-.072 0-.13.058-.13.13 0 .073.058.13.13.13.072 0 .13-.057.13-.13 0-.072-.058-.13-.13-.13m-.262.524c-.072 0-.13.06-.13.13 0 .074.058.132.13.132.072 0 .13-.058.13-.13 0-.073-.058-.132-.13-.132m.524 0c-.072 0-.13.06-.13.13 0 .074.058.132.13.132.073 0 .13-.058.13-.13 0-.073-.057-.132-.13-.132m-9.957-.524c-.072 0-.13.058-.13.13 0 .073.058.13.13.13.072 0 .13-.057.13-.13 0-.072-.058-.13-.13-.13m-.262.524c-.072 0-.13.06-.13.13 0 .074.058.132.13.132.073 0 .13-.058.13-.13 0-.073-.057-.132-.13-.132m.524 0c-.072 0-.13.06-.13.13 0 .074.058.132.13.132.073 0 .13-.058.13-.13 0-.073-.057-.132-.13-.132"/><path d="M21.494 156.547c.294 0 .728.39.728.683v3.593c0 .295.238.533.533.533H23c.294 0 .532-.238.532-.533v-5.314" fill="#16325C"/><path d="M20.446 178.118c-.17 0-.32-.06-.427-.167-.11-.11-.168-.265-.17-.46v-.01l.01.006c.156.036.33.056.496.056.092 0 .185-.006.276-.017h.005v.002c.152.126.302.225.444.295l.01.003-.007.008c-.177.18-.418.288-.644.288m.685-.33l-.006-.003c-.13-.06-.268-.15-.408-.26l-.016-.012.02-.002c.094-.018.186-.04.272-.07.137-.045.262-.11.38-.196l.017-.013-.004.023c-.042.202-.13.385-.255.53l-.004.004m.44.11c-.12 0-.25-.03-.382-.085l-.012-.002.008-.01c.128-.152.218-.346.26-.56l.007-.047.004-.004c.086-.07.17-.155.254-.256l.005-.01.004-.004.004.015c.11.326.256.52.47.63l.01.005-.006.008c-.215.266-.458.322-.624.322m-1.214-.404c-.17 0-.344-.02-.5-.057h-.008v-.007c.005-.096.023-.2.053-.31.026-.088.05-.176.08-.26l.005-.014.01.013c.115.153.256.31.417.468.052.054.105.1.156.148l.015.012h-.02c-.07.007-.14.01-.21.01m-.556-.07l-.01-.005c-.345-.097-.586-.28-.662-.5-.046-.134-.065-.35.115-.612.074-.108.19-.195.34-.252h.008l.002.01c.052.23.172.477.355.73l.002.005v.004c-.034.097-.066.2-.095.305-.03.107-.05.21-.055.306v.01m2.428.108l-.007-.004c-.217-.107-.362-.307-.47-.646l-.002-.005.004-.003c.077-.098.148-.2.216-.296.143-.203.28-.396.45-.53l.01-.006.004.012c.064.2.094.433.085.66-.01.22-.1.555-.286.81l-.005.006m-1.58-.055h-.003c-.064-.055-.13-.116-.198-.182-.173-.167-.32-.335-.44-.498l-.004-.005v-.004c.104-.295.23-.553.37-.765l.003-.005h.005c.36.073.645.232.823.46.157.2.226.444.195.69v.002l-.003.003c-.13.105-.27.18-.425.232-.1.033-.208.06-.322.074h-.004m-.68-.732l-.01-.013c-.165-.24-.273-.47-.32-.685l-.002-.007.008-.003c.118-.037.255-.056.396-.056.09 0 .183.007.275.022l.013.002-.007.01c-.13.2-.246.44-.344.714l-.005.015m2.68.877h-.028c-.126-.005-.24-.027-.338-.065l-.01-.005.004-.01c.186-.26.278-.603.287-.824.01-.243-.02-.484-.09-.696l-.003-.006.005-.005c.11-.072.225-.115.353-.132.027-.002.053-.004.078-.004.372 0 .54.376.54.748 0 .25-.073.498-.2.68-.103.145-.29.32-.596.32m-1.193-.5l.003-.02c.017-.28-.082-.537-.288-.742-.185-.183-.45-.32-.75-.387l-.01-.002.005-.01c.213-.298.458-.495.728-.587l.005-.002.003.004c.19.21.32.49.388.81l.022.102c.042.206.08.398.135.575v.008c-.077.092-.15.17-.223.236l-.017.015m.278-.3l-.004-.016c-.047-.165-.083-.34-.12-.528l-.023-.105c-.065-.315-.196-.595-.378-.81l-.01-.01.013-.003c.084-.022.17-.035.258-.037h.03c.234 0 .433.068.594.202.137.113.244.272.32.472v.005L22.4 176c-.187.14-.328.34-.478.553-.06.085-.12.173-.188.257l-.01.015m-2.105-.832v-.01c-.067-.397.092-.736.424-.905.105-.054.22-.08.34-.08.244 0 .503.12.71.328l.01.01-.014.004c-.276.1-.525.31-.74.617l-.002.004h-.004c-.105-.02-.21-.03-.312-.03-.146 0-.28.02-.404.06l-.01.004m.765-1.044c-.127 0-.25.03-.36.085-.356.18-.524.542-.45.967V176l-.007.002c-.162.06-.29.155-.372.274-.19.28-.17.51-.12.656.083.24.34.433.71.534l.007.002v.006c0 .21.063.388.18.51.116.118.28.183.463.183.246 0 .505-.12.693-.317l.004-.005.006.002c.147.064.29.096.423.096.257 0 .49-.12.67-.35l.004-.005.006.002c.107.045.232.07.37.074h.03c.26 0 .478-.115.634-.337.132-.19.208-.448.208-.708 0-.215-.052-.41-.145-.55-.106-.16-.26-.248-.444-.248-.028 0-.056 0-.084.004-.13.017-.25.06-.36.13l-.01.007-.004-.01c-.17-.445-.508-.69-.95-.69h-.032c-.1.003-.2.02-.3.048h-.004l-.003-.002c-.22-.234-.5-.368-.767-.368" fill="#E7ECF2"/></g></g><path d="M72.196 100.74c0 1.384-.386 2.44-1.158 3.168-.772.728-1.846 1.092-3.222 1.092H65.08v-8.496h2.712c1.408 0 2.494.35 3.258 1.05.764.7 1.146 1.762 1.146 3.186zm-6.06-3.36v6.732h1.572c1.104 0 1.946-.276 2.526-.828.58-.552.87-1.4.87-2.544 0-2.24-1.128-3.36-3.384-3.36h-1.584zm12.816 4.932h-4.536c.04.624.228 1.12.564 1.488.336.368.816.552 1.44.552.368 0 .698-.05.99-.15.292-.1.586-.25.882-.45l.456.66c-.344.248-.71.436-1.098.564-.388.128-.818.192-1.29.192-.936 0-1.666-.296-2.19-.888-.524-.592-.786-1.38-.786-2.364 0-.632.112-1.188.336-1.668.224-.48.55-.854.978-1.122.428-.268.942-.402 1.542-.402.888 0 1.566.288 2.034.864.468.576.702 1.34.702 2.292 0 .192-.008.336-.024.432zm-.972-.792c-.016-.608-.172-1.096-.468-1.464-.296-.368-.724-.552-1.284-.552-.568 0-1.008.19-1.32.57-.312.38-.48.862-.504 1.446h3.576zm5.208-2.796c.384 0 .75.058 1.098.174.348.116.658.278.93.486l-.408.708c-.464-.344-1.004-.516-1.62-.516-.656 0-1.152.214-1.488.642-.336.428-.504 1.002-.504 1.722 0 .704.168 1.274.504 1.71.336.436.828.654 1.476.654.552 0 1.1-.172 1.644-.516l.372.72c-.608.44-1.304.66-2.088.66-.688 0-1.252-.154-1.692-.462-.44-.308-.758-.706-.954-1.194-.196-.488-.294-1.012-.294-1.572 0-.976.268-1.756.804-2.34.536-.584 1.276-.876 2.22-.876zM87.664 105h-1.02v-6.108h1.02V105zm-1.176-8.196c0-.432.224-.648.672-.648.44 0 .66.216.66.648 0 .184-.052.334-.156.45-.104.116-.272.174-.504.174-.24 0-.412-.058-.516-.174-.104-.116-.156-.266-.156-.45zm6.936 2.568l-.456.636c-.472-.328-.984-.492-1.536-.492-.384 0-.684.074-.9.222-.216.148-.324.358-.324.63 0 .2.044.364.132.492.088.128.236.236.444.324.208.088.512.18.912.276.624.152 1.086.374 1.386.666.3.292.45.674.45 1.146 0 .6-.224 1.066-.672 1.398-.448.332-1 .498-1.656.498-.88 0-1.616-.236-2.208-.708l.468-.636c.272.184.54.32.804.408.264.088.564.132.9.132.408 0 .73-.088.966-.264.236-.176.354-.428.354-.756 0-.216-.044-.39-.132-.522-.088-.132-.234-.242-.438-.33-.204-.088-.51-.184-.918-.288-.632-.16-1.092-.376-1.38-.648-.288-.272-.432-.648-.432-1.128 0-.52.202-.934.606-1.242.404-.308.938-.462 1.602-.462.784 0 1.46.216 2.028.648zm2.64 5.628h-1.02v-6.108h1.02V105zm-1.176-8.196c0-.432.224-.648.672-.648.44 0 .66.216.66.648 0 .184-.052.334-.156.45-.104.116-.272.174-.504.174-.24 0-.412-.058-.516-.174-.104-.116-.156-.266-.156-.45zm8.94 5.124c0 .632-.122 1.194-.366 1.686s-.596.874-1.056 1.146c-.46.272-1.01.408-1.65.408-.632 0-1.18-.138-1.644-.414-.464-.276-.816-.658-1.056-1.146-.24-.488-.36-1.048-.36-1.68 0-.976.268-1.754.804-2.334.536-.58 1.288-.87 2.256-.87.648 0 1.202.134 1.662.402.46.268.81.642 1.05 1.122.24.48.36 1.04.36 1.68zm-5.076 0c0 .728.166 1.314.498 1.758.332.444.834.666 1.506.666.68 0 1.188-.222 1.524-.666.336-.444.504-1.03.504-1.758s-.168-1.308-.504-1.74c-.336-.432-.844-.648-1.524-.648s-1.184.216-1.512.648c-.328.432-.492 1.012-.492 1.74zm6.708-1.668c0-.448-.028-.904-.084-1.368h.972c.04.216.068.504.084.864h.024c.2-.312.48-.562.84-.75.36-.188.788-.282 1.284-.282.768 0 1.338.222 1.71.666.372.444.558.998.558 1.662V105h-1.02v-3.744c0-.488-.12-.89-.36-1.206-.24-.316-.628-.474-1.164-.474-.552 0-.994.182-1.326.546-.332.364-.498.822-.498 1.374V105h-1.02v-4.74zM124.9 105h-1.044l.024-7.26h-.024l-3.048 7.26h-.804l-3.036-7.26h-.024l.024 7.26h-.996v-8.496h1.572l2.868 7.068h.024l2.88-7.068h1.584V105zm1.572-1.668c0-.792.286-1.342.858-1.65.572-.308 1.434-.462 2.586-.462.28 0 .492.004.636.012v-.348c0-.456-.124-.796-.372-1.02-.248-.224-.628-.336-1.14-.336-.648 0-1.26.172-1.836.516l-.36-.684c.688-.424 1.44-.636 2.256-.636.856 0 1.482.2 1.878.6.396.4.594 1.008.594 1.824v2.496c0 .44.028.892.084 1.356h-.936c-.056-.352-.084-.628-.084-.828h-.036c-.224.328-.506.576-.846.744-.34.168-.778.252-1.314.252-.592 0-1.068-.158-1.428-.474-.36-.316-.54-.77-.54-1.362zm4.08-.588v-.792l-.54-.012c-.6 0-1.078.04-1.434.12-.356.08-.62.216-.792.408-.172.192-.258.46-.258.804 0 .352.104.622.312.81.208.188.496.282.864.282.384 0 .716-.082.996-.246.28-.164.492-.37.636-.618.144-.248.216-.5.216-.756zm4.62-.672l-.588.552V105h-1.02v-8.496h1.02v4.968l2.772-2.58h1.224l-2.7 2.52 2.964 3.588h-1.272l-2.4-2.928zm9.624.24h-4.536c.04.624.228 1.12.564 1.488.336.368.816.552 1.44.552.368 0 .698-.05.99-.15.292-.1.586-.25.882-.45l.456.66c-.344.248-.71.436-1.098.564-.388.128-.818.192-1.29.192-.936 0-1.666-.296-2.19-.888-.524-.592-.786-1.38-.786-2.364 0-.632.112-1.188.336-1.668.224-.48.55-.854.978-1.122.428-.268.942-.402 1.542-.402.888 0 1.566.288 2.034.864.468.576.702 1.34.702 2.292 0 .192-.008.336-.024.432zm-.972-.792c-.016-.608-.172-1.096-.468-1.464-.296-.368-.724-.552-1.284-.552-.568 0-1.008.19-1.32.57-.312.38-.48.862-.504 1.446h3.576zm2.616-1.26c0-.448-.028-.904-.084-1.368h.972c.04.272.068.596.084.972h.024c.352-.76.992-1.14 1.92-1.14.064 0 .18.012.348.036l-.06.876c-.08-.016-.204-.024-.372-.024-.584 0-1.032.196-1.344.588-.312.392-.468.9-.468 1.524V105h-1.02v-4.74z" fill="#5876A3"/><path d="M66.148 79.1h3.888v.9H65.08v-8.496h1.068V79.1zm9.972-1.788h-4.536c.04.624.228 1.12.564 1.488.336.368.816.552 1.44.552.368 0 .698-.05.99-.15.292-.1.586-.25.882-.45l.456.66c-.344.248-.71.436-1.098.564-.388.128-.818.192-1.29.192-.936 0-1.666-.296-2.19-.888-.524-.592-.786-1.38-.786-2.364 0-.632.112-1.188.336-1.668.224-.48.55-.854.978-1.122.428-.268.942-.402 1.542-.402.888 0 1.566.288 2.034.864.468.576.702 1.34.702 2.292 0 .192-.008.336-.024.432zm-.972-.792c-.016-.608-.172-1.096-.468-1.464-.296-.368-.724-.552-1.284-.552-.568 0-1.008.19-1.32.57-.312.38-.48.862-.504 1.446h3.576zM78.796 80h-1.02v-6.108h1.02V80zm-1.176-8.196c0-.432.224-.648.672-.648.44 0 .66.216.66.648 0 .184-.052.334-.156.45-.104.116-.272.174-.504.174-.24 0-.412-.058-.516-.174-.104-.116-.156-.266-.156-.45zm12.984.528l-.624.684c-.296-.264-.634-.466-1.014-.606-.38-.14-.782-.21-1.206-.21-1.04 0-1.824.324-2.352.972-.528.648-.792 1.504-.792 2.568 0 1.056.264 1.908.792 2.556.528.648 1.304.972 2.328.972.456 0 .888-.086 1.296-.258.408-.172.764-.406 1.068-.702l.648.708c-.368.368-.814.658-1.338.87-.524.212-1.094.318-1.71.318-.888 0-1.646-.188-2.274-.564-.628-.376-1.104-.9-1.428-1.572-.324-.672-.486-1.448-.486-2.328 0-.88.162-1.656.486-2.328.324-.672.802-1.194 1.434-1.566.632-.372 1.396-.558 2.292-.558.568 0 1.1.09 1.596.27.496.18.924.438 1.284.774zm1.452-.828h1.02v3.24h.024c.2-.304.472-.55.816-.738.344-.188.768-.282 1.272-.282.768 0 1.336.222 1.704.666.368.444.552.998.552 1.662V80h-1.02v-3.744c0-.488-.12-.89-.36-1.206-.24-.316-.628-.474-1.164-.474-.552 0-.994.182-1.326.546-.332.364-.498.822-.498 1.374V80h-1.02v-8.496zm6.72 6.828c0-.792.286-1.342.858-1.65.572-.308 1.434-.462 2.586-.462.28 0 .492.004.636.012v-.348c0-.456-.124-.796-.372-1.02-.248-.224-.628-.336-1.14-.336-.648 0-1.26.172-1.836.516l-.36-.684c.688-.424 1.44-.636 2.256-.636.856 0 1.482.2 1.878.6.396.4.594 1.008.594 1.824v2.496c0 .44.028.892.084 1.356h-.936c-.056-.352-.084-.628-.084-.828h-.036c-.224.328-.506.576-.846.744-.34.168-.778.252-1.314.252-.592 0-1.068-.158-1.428-.474-.36-.316-.54-.77-.54-1.362zm4.08-.588v-.792l-.54-.012c-.6 0-1.078.04-1.434.12-.356.08-.62.216-.792.408-.172.192-.258.46-.258.804 0 .352.104.622.312.81.208.188.496.282.864.282.384 0 .716-.082.996-.246.28-.164.492-.37.636-.618.144-.248.216-.5.216-.756zm3-2.484c0-.448-.028-.904-.084-1.368h.972c.04.216.068.504.084.864h.024c.2-.312.48-.562.84-.75.36-.188.788-.282 1.284-.282.768 0 1.338.222 1.71.666.372.444.558.998.558 1.662V80h-1.02v-3.744c0-.488-.12-.89-.36-1.206-.24-.316-.628-.474-1.164-.474-.552 0-.994.182-1.326.546-.332.364-.498.822-.498 1.374V80h-1.02v-4.74zm-41.268 75.48c0-.88.168-1.654.504-2.322.336-.668.826-1.188 1.47-1.56.644-.372 1.41-.558 2.298-.558.56 0 1.09.092 1.59.276.5.184.926.44 1.278.768l-.6.684c-.304-.256-.648-.456-1.032-.6-.384-.144-.784-.216-1.2-.216-1.048 0-1.846.324-2.394.972-.548.648-.822 1.5-.822 2.556 0 1.104.262 1.976.786 2.616.524.64 1.318.96 2.382.96.416 0 .79-.042 1.122-.126.332-.084.67-.202 1.014-.354v-2.316h-1.968v-.828h2.952v3.72c-.464.248-.946.442-1.446.582-.5.14-1.062.21-1.686.21-.912 0-1.688-.186-2.328-.558-.64-.372-1.12-.894-1.44-1.566-.32-.672-.48-1.452-.48-2.34zM80.296 155h-1.14l-1.584-5.016h-.024L75.988 155H74.86l-1.716-6.108h1.068l1.248 5.004h.024l1.548-5.004h1.104l1.56 5.004h.024l1.26-5.004h1.032L80.296 155zm8.076-2.688h-4.536c.04.624.228 1.12.564 1.488.336.368.816.552 1.44.552.368 0 .698-.05.99-.15.292-.1.586-.25.882-.45l.456.66c-.344.248-.71.436-1.098.564-.388.128-.818.192-1.29.192-.936 0-1.666-.296-2.19-.888-.524-.592-.786-1.38-.786-2.364 0-.632.112-1.188.336-1.668.224-.48.55-.854.978-1.122.428-.268.942-.402 1.542-.402.888 0 1.566.288 2.034.864.468.576.702 1.34.702 2.292 0 .192-.008.336-.024.432zm-.972-.792c-.016-.608-.172-1.096-.468-1.464-.296-.368-.724-.552-1.284-.552-.568 0-1.008.19-1.32.57-.312.38-.48.862-.504 1.446H87.4zm2.616-1.26c0-.448-.028-.904-.084-1.368h.972c.04.216.068.504.084.864h.024c.2-.312.48-.562.84-.75.36-.188.788-.282 1.284-.282.768 0 1.338.222 1.71.666.372.444.558.998.558 1.662V155h-1.02v-3.744c0-.488-.12-.89-.36-1.206-.24-.316-.628-.474-1.164-.474-.552 0-.994.182-1.326.546-.332.364-.498.822-.498 1.374V155h-1.02v-4.74zm9.504 4.536l.396-.78c.144.08.31.144.498.192.188.048.378.072.57.072.504 0 .87-.152 1.098-.456.228-.304.342-.716.342-1.236v-6.084h1.068v6.072c0 .768-.202 1.398-.606 1.89-.404.492-1.018.738-1.842.738-.568 0-1.076-.136-1.524-.408zm11.676-2.868c0 .632-.122 1.194-.366 1.686s-.596.874-1.056 1.146c-.46.272-1.01.408-1.65.408-.632 0-1.18-.138-1.644-.414-.464-.276-.816-.658-1.056-1.146-.24-.488-.36-1.048-.36-1.68 0-.976.268-1.754.804-2.334.536-.58 1.288-.87 2.256-.87.648 0 1.202.134 1.662.402.46.268.81.642 1.05 1.122.24.48.36 1.04.36 1.68zm-5.076 0c0 .728.166 1.314.498 1.758.332.444.834.666 1.506.666.68 0 1.188-.222 1.524-.666.336-.444.504-1.03.504-1.758s-.168-1.308-.504-1.74c-.336-.432-.844-.648-1.524-.648s-1.184.216-1.512.648c-.328.432-.492 1.012-.492 1.74zm6.708-1.668c0-.448-.028-.904-.084-1.368h.972c.04.216.068.504.084.864h.024c.2-.312.48-.562.84-.75.36-.188.788-.282 1.284-.282.768 0 1.338.222 1.71.666.372.444.558.998.558 1.662V155h-1.02v-3.744c0-.488-.12-.89-.36-1.206-.24-.316-.628-.474-1.164-.474-.552 0-.994.182-1.326.546-.332.364-.498.822-.498 1.374V155h-1.02v-4.74zm12.504 2.052h-4.536c.04.624.228 1.12.564 1.488.336.368.816.552 1.44.552.368 0 .698-.05.99-.15.292-.1.586-.25.882-.45l.456.66c-.344.248-.71.436-1.098.564-.388.128-.818.192-1.29.192-.936 0-1.666-.296-2.19-.888-.524-.592-.786-1.38-.786-2.364 0-.632.112-1.188.336-1.668.224-.48.55-.854.978-1.122.428-.268.942-.402 1.542-.402.888 0 1.566.288 2.034.864.468.576.702 1.34.702 2.292 0 .192-.008.336-.024.432zm-.972-.792c-.016-.608-.172-1.096-.468-1.464-.296-.368-.724-.552-1.284-.552-.568 0-1.008.19-1.32.57-.312.38-.48.862-.504 1.446h3.576zm6.312-2.148l-.456.636c-.472-.328-.984-.492-1.536-.492-.384 0-.684.074-.9.222-.216.148-.324.358-.324.63 0 .2.044.364.132.492.088.128.236.236.444.324.208.088.512.18.912.276.624.152 1.086.374 1.386.666.3.292.45.674.45 1.146 0 .6-.224 1.066-.672 1.398-.448.332-1 .498-1.656.498-.88 0-1.616-.236-2.208-.708l.468-.636c.272.184.54.32.804.408.264.088.564.132.9.132.408 0 .73-.088.966-.264.236-.176.354-.428.354-.756 0-.216-.044-.39-.132-.522-.088-.132-.234-.242-.438-.33-.204-.088-.51-.184-.918-.288-.632-.16-1.092-.376-1.38-.648-.288-.272-.432-.648-.432-1.128 0-.52.202-.934.606-1.242.404-.308.938-.462 1.602-.462.784 0 1.46.216 2.028.648zm-59.688 73.892c0 .608-.14 1.122-.42 1.542-.28.42-.65.734-1.11.942-.46.208-.954.312-1.482.312h-1.824V229H65.08v-8.496h2.868c.888 0 1.616.224 2.184.672.568.448.852 1.144.852 2.088zm-4.848-1.908v3.84h1.74c.568 0 1.046-.164 1.434-.492.388-.328.582-.804.582-1.428 0-.672-.194-1.16-.582-1.464-.388-.304-.874-.456-1.458-.456h-1.716zm11.004 4.956h-4.536c.04.624.228 1.12.564 1.488.336.368.816.552 1.44.552.368 0 .698-.05.99-.15.292-.1.586-.25.882-.45l.456.66c-.344.248-.71.436-1.098.564-.388.128-.818.192-1.29.192-.936 0-1.666-.296-2.19-.888-.524-.592-.786-1.38-.786-2.364 0-.632.112-1.188.336-1.668.224-.48.55-.854.978-1.122.428-.268.942-.402 1.542-.402.888 0 1.566.288 2.034.864.468.576.702 1.34.702 2.292 0 .192-.008.336-.024.432zm-.972-.792c-.016-.608-.172-1.096-.468-1.464-.296-.368-.724-.552-1.284-.552-.568 0-1.008.19-1.32.57-.312.38-.48.862-.504 1.446h3.576zm3.792-2.628h1.62v.78h-1.62v3.684c0 .656.3.984.9.984.216 0 .416-.028.6-.084l.156.756c-.272.104-.588.156-.948.156-.536 0-.958-.15-1.266-.45-.308-.3-.462-.726-.462-1.278v-3.768h-1.08v-.66l1.068-.12v-1.5l1.032-.36v1.86zm8.016 3.42H83.44c.04.624.228 1.12.564 1.488.336.368.816.552 1.44.552.368 0 .698-.05.99-.15.292-.1.586-.25.882-.45l.456.66c-.344.248-.71.436-1.098.564-.388.128-.818.192-1.29.192-.936 0-1.666-.296-2.19-.888-.524-.592-.786-1.38-.786-2.364 0-.632.112-1.188.336-1.668.224-.48.55-.854.978-1.122.428-.268.942-.402 1.542-.402.888 0 1.566.288 2.034.864.468.576.702 1.34.702 2.292 0 .192-.008.336-.024.432zm-.972-.792c-.016-.608-.172-1.096-.468-1.464-.296-.368-.724-.552-1.284-.552-.568 0-1.008.19-1.32.57-.312.38-.48.862-.504 1.446h3.576zm5.04 2.688l.54-.672c.344.272.7.468 1.068.588.368.12.784.18 1.248.18.576 0 1.042-.134 1.398-.402.356-.268.534-.658.534-1.17 0-.36-.084-.652-.252-.876-.168-.224-.4-.404-.696-.54-.296-.136-.688-.268-1.176-.396-.792-.208-1.384-.49-1.776-.846-.392-.356-.588-.854-.588-1.494 0-.712.266-1.268.798-1.668.532-.4 1.21-.6 2.034-.6.52 0 .99.068 1.41.204.42.136.81.336 1.17.6l-.48.696c-.336-.216-.67-.376-1.002-.48-.332-.104-.698-.156-1.098-.156-.536 0-.968.114-1.296.342-.328.228-.492.558-.492.99 0 .432.15.758.45.978.3.22.79.418 1.47.594.856.224 1.504.528 1.944.912.44.384.66.952.66 1.704 0 .544-.134 1.004-.402 1.38-.268.376-.63.658-1.086.846-.456.188-.968.282-1.536.282-1.104 0-2.052-.332-2.844-.996zm9.972-5.484c.384 0 .75.058 1.098.174.348.116.658.278.93.486l-.408.708c-.464-.344-1.004-.516-1.62-.516-.656 0-1.152.214-1.488.642-.336.428-.504 1.002-.504 1.722 0 .704.168 1.274.504 1.71.336.436.828.654 1.476.654.552 0 1.1-.172 1.644-.516l.372.72c-.608.44-1.304.66-2.088.66-.688 0-1.252-.154-1.692-.462-.44-.308-.758-.706-.954-1.194-.196-.488-.294-1.012-.294-1.572 0-.976.268-1.756.804-2.34.536-.584 1.276-.876 2.22-.876zm3.456-2.22h1.02v3.24h.024c.2-.304.472-.55.816-.738.344-.188.768-.282 1.272-.282.768 0 1.336.222 1.704.666.368.444.552.998.552 1.662V229h-1.02v-3.744c0-.488-.12-.89-.36-1.206-.24-.316-.628-.474-1.164-.474-.552 0-.994.182-1.326.546-.332.364-.498.822-.498 1.374V229h-1.02v-8.496zm6.72 6.828c0-.792.286-1.342.858-1.65.572-.308 1.434-.462 2.586-.462.28 0 .492.004.636.012v-.348c0-.456-.124-.796-.372-1.02-.248-.224-.628-.336-1.14-.336-.648 0-1.26.172-1.836.516l-.36-.684c.688-.424 1.44-.636 2.256-.636.856 0 1.482.2 1.878.6.396.4.594 1.008.594 1.824v2.496c0 .44.028.892.084 1.356h-.936c-.056-.352-.084-.628-.084-.828h-.036c-.224.328-.506.576-.846.744-.34.168-.778.252-1.314.252-.592 0-1.068-.158-1.428-.474-.36-.316-.54-.77-.54-1.362zm4.08-.588v-.792l-.54-.012c-.6 0-1.078.04-1.434.12-.356.08-.62.216-.792.408-.172.192-.258.46-.258.804 0 .352.104.622.312.81.208.188.496.282.864.282.384 0 .716-.082.996-.246.28-.164.492-.37.636-.618.144-.248.216-.5.216-.756zm8.028-4.356v.504h1.536v.78H124.3V229h-1.02v-5.328h-2.844V229h-1.02v-5.328h-1.068v-.648l1.068-.132v-.528c0-.64.194-1.138.582-1.494.388-.356.974-.534 1.758-.534.72 0 1.408.168 2.064.504.36-.336.864-.504 1.512-.504.392 0 .748.052 1.068.156l-.228.732c-.256-.056-.504-.08-.744-.072-.752.008-1.128.42-1.128 1.236zm-1.02.504v-.528c0-.32.04-.6.12-.84-.552-.248-1.096-.372-1.632-.372-.472 0-.812.104-1.02.312-.208.208-.312.516-.312.924v.504h2.844zm8.88 3.42h-4.536c.04.624.228 1.12.564 1.488.336.368.816.552 1.44.552.368 0 .698-.05.99-.15.292-.1.586-.25.882-.45l.456.66c-.344.248-.71.436-1.098.564-.388.128-.818.192-1.29.192-.936 0-1.666-.296-2.19-.888-.524-.592-.786-1.38-.786-2.364 0-.632.112-1.188.336-1.668.224-.48.55-.854.978-1.122.428-.268.942-.402 1.542-.402.888 0 1.566.288 2.034.864.468.576.702 1.34.702 2.292 0 .192-.008.336-.024.432zm-.972-.792c-.016-.608-.172-1.096-.468-1.464-.296-.368-.724-.552-1.284-.552-.568 0-1.008.19-1.32.57-.312.38-.48.862-.504 1.446h3.576zm2.616-1.26c0-.448-.028-.904-.084-1.368h.972c.04.272.068.596.084.972h.024c.352-.76.992-1.14 1.92-1.14.064 0 .18.012.348.036l-.06.876c-.08-.016-.204-.024-.372-.024-.584 0-1.032.196-1.344.588-.312.392-.468.9-.468 1.524V229h-1.02v-4.74z" fill="#16325C"/><path d="M69.344 124H68.24l-3.216-8.496h1.14l2.64 7.308h.036l2.604-7.308h1.128L69.344 124zm10.248-5.736c0 .608-.14 1.122-.42 1.542-.28.42-.65.734-1.11.942-.46.208-.954.312-1.482.312h-1.824V124h-1.068v-8.496h2.868c.888 0 1.616.224 2.184.672.568.448.852 1.144.852 2.088zm-4.848-1.908v3.84h1.74c.568 0 1.046-.164 1.434-.492.388-.328.582-.804.582-1.428 0-.672-.194-1.16-.582-1.464-.388-.304-.874-.456-1.458-.456h-1.716zm4.44 9.768l-.396-.36c.32-.344.546-.65.678-.918s.206-.55.222-.846c-.208-.032-.358-.098-.45-.198-.092-.1-.138-.238-.138-.414s.058-.324.174-.444c.116-.12.278-.18.486-.18.232 0 .408.072.528.216.12.144.18.352.18.624 0 .44-.09.852-.27 1.236-.18.384-.518.812-1.014 1.284zM94.52 124h-1.044l.024-7.26h-.024L90.428 124h-.804l-3.036-7.26h-.024l.024 7.26h-.996v-8.496h1.572l2.868 7.068h.024l2.88-7.068h1.584V124zm1.572-1.668c0-.792.286-1.342.858-1.65.572-.308 1.434-.462 2.586-.462.28 0 .492.004.636.012v-.348c0-.456-.124-.796-.372-1.02-.248-.224-.628-.336-1.14-.336-.648 0-1.26.172-1.836.516l-.36-.684c.688-.424 1.44-.636 2.256-.636.856 0 1.482.2 1.878.6.396.4.594 1.008.594 1.824v2.496c0 .44.028.892.084 1.356h-.936c-.056-.352-.084-.628-.084-.828h-.036c-.224.328-.506.576-.846.744-.34.168-.778.252-1.314.252-.592 0-1.068-.158-1.428-.474-.36-.316-.54-.77-.54-1.362zm4.08-.588v-.792l-.54-.012c-.6 0-1.078.04-1.434.12-.356.08-.62.216-.792.408-.172.192-.258.46-.258.804 0 .352.104.622.312.81.208.188.496.282.864.282.384 0 .716-.082.996-.246.28-.164.492-.37.636-.618.144-.248.216-.5.216-.756zm3-2.484c0-.448-.028-.904-.084-1.368h.972c.04.272.068.596.084.972h.024c.352-.76.992-1.14 1.92-1.14.064 0 .18.012.348.036l-.06.876c-.08-.016-.204-.024-.372-.024-.584 0-1.032.196-1.344.588-.312.392-.468.9-.468 1.524V124h-1.02v-4.74zm5.988 1.812l-.588.552V124h-1.02v-8.496h1.02v4.968l2.772-2.58h1.224l-2.7 2.52 2.964 3.588h-1.272l-2.4-2.928zm9.624.24h-4.536c.04.624.228 1.12.564 1.488.336.368.816.552 1.44.552.368 0 .698-.05.99-.15.292-.1.586-.25.882-.45l.456.66c-.344.248-.71.436-1.098.564-.388.128-.818.192-1.29.192-.936 0-1.666-.296-2.19-.888-.524-.592-.786-1.38-.786-2.364 0-.632.112-1.188.336-1.668.224-.48.55-.854.978-1.122.428-.268.942-.402 1.542-.402.888 0 1.566.288 2.034.864.468.576.702 1.34.702 2.292 0 .192-.008.336-.024.432zm-.972-.792c-.016-.608-.172-1.096-.468-1.464-.296-.368-.724-.552-1.284-.552-.568 0-1.008.19-1.32.57-.312.38-.48.862-.504 1.446h3.576zm3.792-2.628h1.62v.78h-1.62v3.684c0 .656.3.984.9.984.216 0 .416-.028.6-.084l.156.756c-.272.104-.588.156-.948.156-.536 0-.958-.15-1.266-.45-.308-.3-.462-.726-.462-1.278v-3.768h-1.08v-.66l1.068-.12v-1.5l1.032-.36v1.86zm4.068 6.108h-1.02v-6.108h1.02V124zm-1.176-8.196c0-.432.224-.648.672-.648.44 0 .66.216.66.648 0 .184-.052.334-.156.45-.104.116-.272.174-.504.174-.24 0-.412-.058-.516-.174-.104-.116-.156-.266-.156-.45zm3.24 3.456c0-.448-.028-.904-.084-1.368h.972c.04.216.068.504.084.864h.024c.2-.312.48-.562.84-.75.36-.188.788-.282 1.284-.282.768 0 1.338.222 1.71.666.372.444.558.998.558 1.662V124h-1.02v-3.744c0-.488-.12-.89-.36-1.206-.24-.316-.628-.474-1.164-.474-.552 0-.994.182-1.326.546-.332.364-.498.822-.498 1.374V124h-1.02v-4.74zm6.576 5.988c0-.344.098-.654.294-.93.196-.276.518-.526.966-.75-.392-.176-.588-.444-.588-.804 0-.216.078-.408.234-.576.156-.168.374-.292.654-.372-.376-.152-.67-.384-.882-.696-.212-.312-.318-.708-.318-1.188 0-.68.224-1.216.672-1.608.448-.392 1.072-.588 1.872-.588.216 0 .398.012.546.036.148.024.326.064.534.12h2.124v.816l-1.356-.144c.192.136.348.328.468.576.12.248.18.544.18.888 0 .648-.22 1.154-.66 1.518-.44.364-1.056.546-1.848.546-.4 0-.714.052-.942.156-.228.104-.342.248-.342.432 0 .328.388.496 1.164.504 1.128.016 1.946.166 2.454.45.508.284.762.714.762 1.29 0 .688-.286 1.22-.858 1.596-.572.376-1.374.564-2.406.564-.896 0-1.574-.16-2.034-.48-.46-.32-.69-.772-.69-1.356zm4.452-5.304c0-.44-.132-.792-.396-1.056s-.656-.396-1.176-.396c-.48 0-.862.128-1.146.384-.284.256-.426.6-.426 1.032 0 .456.13.812.39 1.068s.654.384 1.182.384c1.048 0 1.572-.472 1.572-1.416zm.528 5.064c0-.24-.09-.436-.27-.588-.18-.152-.486-.268-.918-.348-.432-.08-1.024-.12-1.776-.12-.36.16-.62.342-.78.546-.16.204-.24.438-.24.702 0 .744.588 1.116 1.764 1.116.728 0 1.28-.112 1.656-.336.376-.224.564-.548.564-.972zM71.68 171.332l-.624.684c-.296-.264-.634-.466-1.014-.606-.38-.14-.782-.21-1.206-.21-1.04 0-1.824.324-2.352.972-.528.648-.792 1.504-.792 2.568 0 1.056.264 1.908.792 2.556.528.648 1.304.972 2.328.972.456 0 .888-.086 1.296-.258.408-.172.764-.406 1.068-.702l.648.708c-.368.368-.814.658-1.338.87-.524.212-1.094.318-1.71.318-.888 0-1.646-.188-2.274-.564-.628-.376-1.104-.9-1.428-1.572-.324-.672-.486-1.448-.486-2.328 0-.88.162-1.656.486-2.328.324-.672.802-1.194 1.434-1.566.632-.372 1.396-.558 2.292-.558.568 0 1.1.09 1.596.27.496.18.924.438 1.284.774zm6.828 4.596c0 .632-.122 1.194-.366 1.686s-.596.874-1.056 1.146c-.46.272-1.01.408-1.65.408-.632 0-1.18-.138-1.644-.414-.464-.276-.816-.658-1.056-1.146-.24-.488-.36-1.048-.36-1.68 0-.976.268-1.754.804-2.334.536-.58 1.288-.87 2.256-.87.648 0 1.202.134 1.662.402.46.268.81.642 1.05 1.122.24.48.36 1.04.36 1.68zm-5.076 0c0 .728.166 1.314.498 1.758.332.444.834.666 1.506.666.68 0 1.188-.222 1.524-.666.336-.444.504-1.03.504-1.758s-.168-1.308-.504-1.74c-.336-.432-.844-.648-1.524-.648s-1.184.216-1.512.648c-.328.432-.492 1.012-.492 1.74zm6.708-1.668c0-.448-.028-.904-.084-1.368h.972c.04.216.068.504.084.864h.024c.2-.312.48-.562.84-.75.36-.188.788-.282 1.284-.282.768 0 1.338.222 1.71.666.372.444.558.998.558 1.662V179h-1.02v-3.744c0-.488-.12-.89-.36-1.206-.24-.316-.628-.474-1.164-.474-.552 0-.994.182-1.326.546-.332.364-.498.822-.498 1.374V179h-1.02v-4.74zm8.544-1.368h1.62v.78h-1.62v3.684c0 .656.3.984.9.984.216 0 .416-.028.6-.084l.156.756c-.272.104-.588.156-.948.156-.536 0-.958-.15-1.266-.45-.308-.3-.462-.726-.462-1.278v-3.768h-1.08v-.66l1.068-.12v-1.5l1.032-.36v1.86zm2.508 4.44c0-.792.286-1.342.858-1.65.572-.308 1.434-.462 2.586-.462.28 0 .492.004.636.012v-.348c0-.456-.124-.796-.372-1.02-.248-.224-.628-.336-1.14-.336-.648 0-1.26.172-1.836.516l-.36-.684c.688-.424 1.44-.636 2.256-.636.856 0 1.482.2 1.878.6.396.4.594 1.008.594 1.824v2.496c0 .44.028.892.084 1.356h-.936c-.056-.352-.084-.628-.084-.828h-.036c-.224.328-.506.576-.846.744-.34.168-.778.252-1.314.252-.592 0-1.068-.158-1.428-.474-.36-.316-.54-.77-.54-1.362zm4.08-.588v-.792l-.54-.012c-.6 0-1.078.04-1.434.12-.356.08-.62.216-.792.408-.172.192-.258.46-.258.804 0 .352.104.622.312.81.208.188.496.282.864.282.384 0 .716-.082.996-.246.28-.164.492-.37.636-.618.144-.248.216-.5.216-.756zm5.592-4.02c.384 0 .75.058 1.098.174.348.116.658.278.93.486l-.408.708c-.464-.344-1.004-.516-1.62-.516-.656 0-1.152.214-1.488.642-.336.428-.504 1.002-.504 1.722 0 .704.168 1.274.504 1.71.336.436.828.654 1.476.654.552 0 1.1-.172 1.644-.516l.372.72c-.608.44-1.304.66-2.088.66-.688 0-1.252-.154-1.692-.462-.44-.308-.758-.706-.954-1.194-.196-.488-.294-1.012-.294-1.572 0-.976.268-1.756.804-2.34.536-.584 1.276-.876 2.22-.876zm4.932.168h1.62v.78h-1.62v3.684c0 .656.3.984.9.984.216 0 .416-.028.6-.084l.156.756c-.272.104-.588.156-.948.156-.536 0-.958-.15-1.266-.45-.308-.3-.462-.726-.462-1.278v-3.768h-1.08v-.66l1.068-.12v-1.5l1.032-.36v1.86zM116.752 179l-1.932-3.108h-1.776V179h-1.068v-8.496h2.796c.552 0 1.054.102 1.506.306.452.204.81.512 1.074.924.264.412.396.914.396 1.506 0 .672-.174 1.212-.522 1.62-.348.408-.81.696-1.386.864l2.136 3.276h-1.224zm-2.016-3.924c.552 0 1.01-.156 1.374-.468.364-.312.546-.768.546-1.368 0-.624-.188-1.094-.564-1.41-.376-.316-.84-.474-1.392-.474h-1.668v3.72h1.704zm10.2.852c0 .632-.122 1.194-.366 1.686s-.596.874-1.056 1.146c-.46.272-1.01.408-1.65.408-.632 0-1.18-.138-1.644-.414-.464-.276-.816-.658-1.056-1.146-.24-.488-.36-1.048-.36-1.68 0-.976.268-1.754.804-2.334.536-.58 1.288-.87 2.256-.87.648 0 1.202.134 1.662.402.46.268.81.642 1.05 1.122.24.48.36 1.04.36 1.68zm-5.076 0c0 .728.166 1.314.498 1.758.332.444.834.666 1.506.666.68 0 1.188-.222 1.524-.666.336-.444.504-1.03.504-1.758s-.168-1.308-.504-1.74c-.336-.432-.844-.648-1.524-.648s-1.184.216-1.512.648c-.328.432-.492 1.012-.492 1.74zm7.74-5.424V179h-1.02v-8.496h1.02zm7.2 5.808h-4.536c.04.624.228 1.12.564 1.488.336.368.816.552 1.44.552.368 0 .698-.05.99-.15.292-.1.586-.25.882-.45l.456.66c-.344.248-.71.436-1.098.564-.388.128-.818.192-1.29.192-.936 0-1.666-.296-2.19-.888-.524-.592-.786-1.38-.786-2.364 0-.632.112-1.188.336-1.668.224-.48.55-.854.978-1.122.428-.268.942-.402 1.542-.402.888 0 1.566.288 2.034.864.468.576.702 1.34.702 2.292 0 .192-.008.336-.024.432zm-.972-.792c-.016-.608-.172-1.096-.468-1.464-.296-.368-.724-.552-1.284-.552-.568 0-1.008.19-1.32.57-.312.38-.48.862-.504 1.446h3.576zm14.004-4.164h-4.092v2.856h3.564v.816h-3.564v3.096h4.296V179h-5.352v-8.496h5.148v.852zm3.912 1.368c.384 0 .75.058 1.098.174.348.116.658.278.93.486l-.408.708c-.464-.344-1.004-.516-1.62-.516-.656 0-1.152.214-1.488.642-.336.428-.504 1.002-.504 1.722 0 .704.168 1.274.504 1.71.336.436.828.654 1.476.654.552 0 1.1-.172 1.644-.516l.372.72c-.608.44-1.304.66-2.088.66-.688 0-1.252-.154-1.692-.462-.44-.308-.758-.706-.954-1.194-.196-.488-.294-1.012-.294-1.572 0-.976.268-1.756.804-2.34.536-.584 1.276-.876 2.22-.876zm8.952 3.204c0 .632-.122 1.194-.366 1.686s-.596.874-1.056 1.146c-.46.272-1.01.408-1.65.408-.632 0-1.18-.138-1.644-.414-.464-.276-.816-.658-1.056-1.146-.24-.488-.36-1.048-.36-1.68 0-.976.268-1.754.804-2.334.536-.58 1.288-.87 2.256-.87.648 0 1.202.134 1.662.402.46.268.81.642 1.05 1.122.24.48.36 1.04.36 1.68zm-5.076 0c0 .728.166 1.314.498 1.758.332.444.834.666 1.506.666.68 0 1.188-.222 1.524-.666.336-.444.504-1.03.504-1.758s-.168-1.308-.504-1.74c-.336-.432-.844-.648-1.524-.648s-1.184.216-1.512.648c-.328.432-.492 1.012-.492 1.74zm6.708-1.668c0-.448-.028-.904-.084-1.368h.972c.04.216.068.504.084.864h.024c.2-.312.48-.562.84-.75.36-.188.788-.282 1.284-.282.768 0 1.338.222 1.71.666.372.444.558.998.558 1.662V179h-1.02v-3.744c0-.488-.12-.89-.36-1.206-.24-.316-.628-.474-1.164-.474-.552 0-.994.182-1.326.546-.332.364-.498.822-.498 1.374V179h-1.02v-4.74zm13.068 1.668c0 .632-.122 1.194-.366 1.686s-.596.874-1.056 1.146c-.46.272-1.01.408-1.65.408-.632 0-1.18-.138-1.644-.414-.464-.276-.816-.658-1.056-1.146-.24-.488-.36-1.048-.36-1.68 0-.976.268-1.754.804-2.334.536-.58 1.288-.87 2.256-.87.648 0 1.202.134 1.662.402.46.268.81.642 1.05 1.122.24.48.36 1.04.36 1.68zm-5.076 0c0 .728.166 1.314.498 1.758.332.444.834.666 1.506.666.68 0 1.188-.222 1.524-.666.336-.444.504-1.03.504-1.758s-.168-1.308-.504-1.74c-.336-.432-.844-.648-1.524-.648s-1.184.216-1.512.648c-.328.432-.492 1.012-.492 1.74zm6.708-1.668c0-.448-.028-.904-.084-1.368h.972c.04.216.068.504.084.864h.024c.192-.304.462-.552.81-.744.348-.192.75-.288 1.206-.288.52 0 .944.11 1.272.33.328.22.568.522.72.906h.024c.208-.384.492-.686.852-.906.36-.22.792-.33 1.296-.33s.924.11 1.26.33c.336.22.584.508.744.864.16.356.24.746.24 1.17V179h-1.02v-3.768c0-.472-.114-.868-.342-1.188-.228-.32-.594-.48-1.098-.48-.368 0-.684.096-.948.288-.264.192-.464.448-.6.768-.136.32-.204.664-.204 1.032V179h-1.02v-3.792c0-.464-.116-.854-.348-1.17-.232-.316-.596-.474-1.092-.474-.528 0-.948.186-1.26.558-.312.372-.468.83-.468 1.374V179h-1.02v-4.74zM189.46 179h-1.02v-6.108h1.02V179zm-1.176-8.196c0-.432.224-.648.672-.648.44 0 .66.216.66.648 0 .184-.052.334-.156.45-.104.116-.272.174-.504.174-.24 0-.412-.058-.516-.174-.104-.116-.156-.266-.156-.45zm5.832 1.92c.384 0 .75.058 1.098.174.348.116.658.278.93.486l-.408.708c-.464-.344-1.004-.516-1.62-.516-.656 0-1.152.214-1.488.642-.336.428-.504 1.002-.504 1.722 0 .704.168 1.274.504 1.71.336.436.828.654 1.476.654.552 0 1.1-.172 1.644-.516l.372.72c-.608.44-1.304.66-2.088.66-.688 0-1.252-.154-1.692-.462-.44-.308-.758-.706-.954-1.194-.196-.488-.294-1.012-.294-1.572 0-.976.268-1.756.804-2.34.536-.584 1.276-.876 2.22-.876zm12.132-.144c0 .504-.144.924-.432 1.26-.288.336-.656.556-1.104.66v.024c.584.072 1.048.29 1.392.654.344.364.516.854.516 1.47 0 .808-.266 1.402-.798 1.782-.532.38-1.222.57-2.07.57h-3.048v-8.496h2.988c.768 0 1.386.164 1.854.492.468.328.702.856.702 1.584zm-4.512-1.26v2.868h1.704c.528 0 .95-.126 1.266-.378.316-.252.474-.622.474-1.11 0-.92-.576-1.38-1.728-1.38h-1.716zm0 3.636v3.216h1.8c.6 0 1.082-.13 1.446-.39.364-.26.546-.674.546-1.242 0-.52-.168-.914-.504-1.182-.336-.268-.812-.402-1.428-.402h-1.86zm6.288 1.68v-3.744h1.032v3.6c0 .56.122 1.01.366 1.35.244.34.622.51 1.134.51.56 0 1.008-.21 1.344-.63.336-.42.504-.942.504-1.566v-3.264h1.02v4.752c0 .44.028.892.084 1.356h-.972c-.04-.256-.068-.58-.084-.972h-.024c-.44.76-1.144 1.14-2.112 1.14-.76 0-1.332-.234-1.716-.702-.384-.468-.576-1.078-.576-1.83zm9.372 3.852c-.2.552-.448.956-.744 1.212s-.688.384-1.176.384c-.312 0-.596-.048-.852-.144l.204-.756c.176.048.348.072.516.072.296 0 .526-.084.69-.252.164-.168.306-.42.426-.756l.42-1.212-2.376-6.144h1.104l1.776 5.028h.024l1.632-5.028h1.044l-2.688 7.596zm8.832-4.176h-4.536c.04.624.228 1.12.564 1.488.336.368.816.552 1.44.552.368 0 .698-.05.99-.15.292-.1.586-.25.882-.45l.456.66c-.344.248-.71.436-1.098.564-.388.128-.818.192-1.29.192-.936 0-1.666-.296-2.19-.888-.524-.592-.786-1.38-.786-2.364 0-.632.112-1.188.336-1.668.224-.48.55-.854.978-1.122.428-.268.942-.402 1.542-.402.888 0 1.566.288 2.034.864.468.576.702 1.34.702 2.292 0 .192-.008.336-.024.432zm-.972-.792c-.016-.608-.172-1.096-.468-1.464-.296-.368-.724-.552-1.284-.552-.568 0-1.008.19-1.32.57-.312.38-.48.862-.504 1.446h3.576zm2.616-1.26c0-.448-.028-.904-.084-1.368h.972c.04.272.068.596.084.972h.024c.352-.76.992-1.14 1.92-1.14.064 0 .18.012.348.036l-.06.876c-.08-.016-.204-.024-.372-.024-.584 0-1.032.196-1.344.588-.312.392-.468.9-.468 1.524V179h-1.02v-4.74zM71.48 190.404h-2.676V198h-1.068v-7.596h-2.688v-.9h6.432v.9zM73.484 198h-1.02v-6.108h1.02V198zm-1.176-8.196c0-.432.224-.648.672-.648.44 0 .66.216.66.648 0 .184-.052.334-.156.45-.104.116-.272.174-.504.174-.24 0-.412-.058-.516-.174-.104-.116-.156-.266-.156-.45zm4.488 2.088h1.62v.78h-1.62v3.684c0 .656.3.984.9.984.216 0 .416-.028.6-.084l.156.756c-.272.104-.588.156-.948.156-.536 0-.958-.15-1.266-.45-.308-.3-.462-.726-.462-1.278v-3.768h-1.08v-.66l1.068-.12v-1.5l1.032-.36v1.86zm4.068-2.388V198h-1.02v-8.496h1.02zm7.2 5.808h-4.536c.04.624.228 1.12.564 1.488.336.368.816.552 1.44.552.368 0 .698-.05.99-.15.292-.1.586-.25.882-.45l.456.66c-.344.248-.71.436-1.098.564-.388.128-.818.192-1.29.192-.936 0-1.666-.296-2.19-.888-.524-.592-.786-1.38-.786-2.364 0-.632.112-1.188.336-1.668.224-.48.55-.854.978-1.122.428-.268.942-.402 1.542-.402.888 0 1.566.288 2.034.864.468.576.702 1.34.702 2.292 0 .192-.008.336-.024.432zm-.972-.792c-.016-.608-.172-1.096-.468-1.464-.296-.368-.724-.552-1.284-.552-.568 0-1.008.19-1.32.57-.312.38-.48.862-.504 1.446h3.576zm14.76-2.256c0 .608-.14 1.122-.42 1.542-.28.42-.65.734-1.11.942-.46.208-.954.312-1.482.312h-1.824V198h-1.068v-8.496h2.868c.888 0 1.616.224 2.184.672.568.448.852 1.144.852 2.088zm-4.848-1.908v3.84h1.74c.568 0 1.046-.164 1.434-.492.388-.328.582-.804.582-1.428 0-.672-.194-1.16-.582-1.464-.388-.304-.874-.456-1.458-.456h-1.716zm5.988 2.904c0-.448-.028-.904-.084-1.368h.972c.04.272.068.596.084.972h.024c.352-.76.992-1.14 1.92-1.14.064 0 .18.012.348.036l-.06.876c-.08-.016-.204-.024-.372-.024-.584 0-1.032.196-1.344.588-.312.392-.468.9-.468 1.524V198h-1.02v-4.74zm9.276 2.052h-4.536c.04.624.228 1.12.564 1.488.336.368.816.552 1.44.552.368 0 .698-.05.99-.15.292-.1.586-.25.882-.45l.456.66c-.344.248-.71.436-1.098.564-.388.128-.818.192-1.29.192-.936 0-1.666-.296-2.19-.888-.524-.592-.786-1.38-.786-2.364 0-.632.112-1.188.336-1.668.224-.48.55-.854.978-1.122.428-.268.942-.402 1.542-.402.888 0 1.566.288 2.034.864.468.576.702 1.34.702 2.292 0 .192-.008.336-.024.432zm-.972-.792c-.016-.608-.172-1.096-.468-1.464-.296-.368-.724-.552-1.284-.552-.568 0-1.008.19-1.32.57-.312.38-.48.862-.504 1.446h3.576zm6.312-2.148l-.456.636c-.472-.328-.984-.492-1.536-.492-.384 0-.684.074-.9.222-.216.148-.324.358-.324.63 0 .2.044.364.132.492.088.128.236.236.444.324.208.088.512.18.912.276.624.152 1.086.374 1.386.666.3.292.45.674.45 1.146 0 .6-.224 1.066-.672 1.398-.448.332-1 .498-1.656.498-.88 0-1.616-.236-2.208-.708l.468-.636c.272.184.54.32.804.408.264.088.564.132.9.132.408 0 .73-.088.966-.264.236-.176.354-.428.354-.756 0-.216-.044-.39-.132-.522-.088-.132-.234-.242-.438-.33-.204-.088-.51-.184-.918-.288-.632-.16-1.092-.376-1.38-.648-.288-.272-.432-.648-.432-1.128 0-.52.202-.934.606-1.242.404-.308.938-.462 1.602-.462.784 0 1.46.216 2.028.648zm2.64 5.628h-1.02v-6.108h1.02V198zm-1.176-8.196c0-.432.224-.648.672-.648.44 0 .66.216.66.648 0 .184-.052.334-.156.45-.104.116-.272.174-.504.174-.24 0-.412-.058-.516-.174-.104-.116-.156-.266-.156-.45zm8.724 8.196h-.948c-.056-.352-.084-.656-.084-.912h-.024c-.456.72-1.184 1.08-2.184 1.08-.864 0-1.526-.296-1.986-.888-.46-.592-.69-1.364-.69-2.316 0-.608.114-1.158.342-1.65.228-.492.554-.88.978-1.164.424-.284.924-.426 1.5-.426.816 0 1.48.264 1.992.792v-3.012h1.02v7.14c0 .44.028.892.084 1.356zm-1.104-2.628v-1.92c-.24-.304-.51-.53-.81-.678-.3-.148-.646-.222-1.038-.222-.592 0-1.058.224-1.398.672-.34.448-.51 1.028-.51 1.74 0 .736.164 1.318.492 1.746.328.428.78.642 1.356.642.576 0 1.038-.186 1.386-.558.348-.372.522-.846.522-1.422zm8.208-.06h-4.536c.04.624.228 1.12.564 1.488.336.368.816.552 1.44.552.368 0 .698-.05.99-.15.292-.1.586-.25.882-.45l.456.66c-.344.248-.71.436-1.098.564-.388.128-.818.192-1.29.192-.936 0-1.666-.296-2.19-.888-.524-.592-.786-1.38-.786-2.364 0-.632.112-1.188.336-1.668.224-.48.55-.854.978-1.122.428-.268.942-.402 1.542-.402.888 0 1.566.288 2.034.864.468.576.702 1.34.702 2.292 0 .192-.008.336-.024.432zm-.972-.792c-.016-.608-.172-1.096-.468-1.464-.296-.368-.724-.552-1.284-.552-.568 0-1.008.19-1.32.57-.312.38-.48.862-.504 1.446h3.576zm2.616-1.26c0-.448-.028-.904-.084-1.368h.972c.04.216.068.504.084.864h.024c.2-.312.48-.562.84-.75.36-.188.788-.282 1.284-.282.768 0 1.338.222 1.71.666.372.444.558.998.558 1.662V198h-1.02v-3.744c0-.488-.12-.89-.36-1.206-.24-.316-.628-.474-1.164-.474-.552 0-.994.182-1.326.546-.332.364-.498.822-.498 1.374V198h-1.02v-4.74zm8.544-1.368h1.62v.78h-1.62v3.684c0 .656.3.984.9.984.216 0 .416-.028.6-.084l.156.756c-.272.104-.588.156-.948.156-.536 0-.958-.15-1.266-.45-.308-.3-.462-.726-.462-1.278v-3.768h-1.08v-.66l1.068-.12v-1.5l1.032-.36v1.86zm3.048 8.232l-.396-.36c.32-.344.546-.65.678-.918s.206-.55.222-.846c-.208-.032-.358-.098-.45-.198-.092-.1-.138-.238-.138-.414s.058-.324.174-.444c.116-.12.278-.18.486-.18.232 0 .408.072.528.216.12.144.18.352.18.624 0 .44-.09.852-.27 1.236-.18.384-.518.812-1.014 1.284zm5.916-6.372c0-.88.168-1.656.504-2.328.336-.672.824-1.194 1.464-1.566.64-.372 1.404-.558 2.292-.558.888 0 1.652.186 2.292.558.64.372 1.128.894 1.464 1.566.336.672.504 1.448.504 2.328 0 .88-.168 1.656-.504 2.328-.336.672-.824 1.194-1.464 1.566-.64.372-1.404.558-2.292.558-.888 0-1.652-.186-2.292-.558-.64-.372-1.128-.894-1.464-1.566-.336-.672-.504-1.448-.504-2.328zm7.44 0c0-1.072-.272-1.928-.816-2.568-.544-.64-1.328-.96-2.352-.96-1.032 0-1.82.32-2.364.96-.544.64-.816 1.496-.816 2.568s.272 1.928.816 2.568c.544.64 1.332.96 2.364.96 1.024 0 1.808-.32 2.352-.96.544-.64.816-1.496.816-2.568zm8.556 1.188c0 .608-.112 1.156-.336 1.644-.224.488-.55.874-.978 1.158-.428.284-.93.426-1.506.426-.776 0-1.444-.252-2.004-.756v3.516h-1.02v-7.668c0-.448-.028-.904-.084-1.368h.972c.04.264.068.576.084.936h.024c.2-.336.48-.604.84-.804.36-.2.8-.3 1.32-.3.584 0 1.076.142 1.476.426.4.284.702.668.906 1.152.204.484.306 1.03.306 1.638zm-1.056 0c0-.736-.162-1.32-.486-1.752-.324-.432-.774-.648-1.35-.648-.376 0-.712.088-1.008.264-.296.176-.524.416-.684.72-.16.304-.24.636-.24.996v2.028c.28.28.558.484.834.612.276.128.594.192.954.192.64 0 1.13-.222 1.47-.666.34-.444.51-1.026.51-1.746zm7.812.372h-4.536c.04.624.228 1.12.564 1.488.336.368.816.552 1.44.552.368 0 .698-.05.99-.15.292-.1.586-.25.882-.45l.456.66c-.344.248-.71.436-1.098.564-.388.128-.818.192-1.29.192-.936 0-1.666-.296-2.19-.888-.524-.592-.786-1.38-.786-2.364 0-.632.112-1.188.336-1.668.224-.48.55-.854.978-1.122.428-.268.942-.402 1.542-.402.888 0 1.566.288 2.034.864.468.576.702 1.34.702 2.292 0 .192-.008.336-.024.432zm-.972-.792c-.016-.608-.172-1.096-.468-1.464-.296-.368-.724-.552-1.284-.552-.568 0-1.008.19-1.32.57-.312.38-.48.862-.504 1.446h3.576zm2.616-1.26c0-.448-.028-.904-.084-1.368h.972c.04.272.068.596.084.972h.024c.352-.76.992-1.14 1.92-1.14.064 0 .18.012.348.036l-.06.876c-.08-.016-.204-.024-.372-.024-.584 0-1.032.196-1.344.588-.312.392-.468.9-.468 1.524V198h-1.02v-4.74zm3.6 3.072c0-.792.286-1.342.858-1.65.572-.308 1.434-.462 2.586-.462.28 0 .492.004.636.012v-.348c0-.456-.124-.796-.372-1.02-.248-.224-.628-.336-1.14-.336-.648 0-1.26.172-1.836.516l-.36-.684c.688-.424 1.44-.636 2.256-.636.856 0 1.482.2 1.878.6.396.4.594 1.008.594 1.824v2.496c0 .44.028.892.084 1.356h-.936c-.056-.352-.084-.628-.084-.828h-.036c-.224.328-.506.576-.846.744-.34.168-.778.252-1.314.252-.592 0-1.068-.158-1.428-.474-.36-.316-.54-.77-.54-1.362zm4.08-.588v-.792l-.54-.012c-.6 0-1.078.04-1.434.12-.356.08-.62.216-.792.408-.172.192-.258.46-.258.804 0 .352.104.622.312.81.208.188.496.282.864.282.384 0 .716-.082.996-.246.28-.164.492-.37.636-.618.144-.248.216-.5.216-.756zm4.176-3.852h1.62v.78h-1.62v3.684c0 .656.3.984.9.984.216 0 .416-.028.6-.084l.156.756c-.272.104-.588.156-.948.156-.536 0-.958-.15-1.266-.45-.308-.3-.462-.726-.462-1.278v-3.768h-1.08v-.66l1.068-.12v-1.5l1.032-.36v1.86zm4.068 6.108h-1.02v-6.108h1.02V198zm-1.176-8.196c0-.432.224-.648.672-.648.44 0 .66.216.66.648 0 .184-.052.334-.156.45-.104.116-.272.174-.504.174-.24 0-.412-.058-.516-.174-.104-.116-.156-.266-.156-.45zm8.94 5.124c0 .632-.122 1.194-.366 1.686s-.596.874-1.056 1.146c-.46.272-1.01.408-1.65.408-.632 0-1.18-.138-1.644-.414-.464-.276-.816-.658-1.056-1.146-.24-.488-.36-1.048-.36-1.68 0-.976.268-1.754.804-2.334.536-.58 1.288-.87 2.256-.87.648 0 1.202.134 1.662.402.46.268.81.642 1.05 1.122.24.48.36 1.04.36 1.68zm-5.076 0c0 .728.166 1.314.498 1.758.332.444.834.666 1.506.666.68 0 1.188-.222 1.524-.666.336-.444.504-1.03.504-1.758s-.168-1.308-.504-1.74c-.336-.432-.844-.648-1.524-.648s-1.184.216-1.512.648c-.328.432-.492 1.012-.492 1.74zm6.708-1.668c0-.448-.028-.904-.084-1.368h.972c.04.216.068.504.084.864h.024c.2-.312.48-.562.84-.75.36-.188.788-.282 1.284-.282.768 0 1.338.222 1.71.666.372.444.558.998.558 1.662V198h-1.02v-3.744c0-.488-.12-.89-.36-1.206-.24-.316-.628-.474-1.164-.474-.552 0-.994.182-1.326.546-.332.364-.498.822-.498 1.374V198h-1.02v-4.74zm11.064-.888l-.456.636c-.472-.328-.984-.492-1.536-.492-.384 0-.684.074-.9.222-.216.148-.324.358-.324.63 0 .2.044.364.132.492.088.128.236.236.444.324.208.088.512.18.912.276.624.152 1.086.374 1.386.666.3.292.45.674.45 1.146 0 .6-.224 1.066-.672 1.398-.448.332-1 .498-1.656.498-.88 0-1.616-.236-2.208-.708l.468-.636c.272.184.54.32.804.408.264.088.564.132.9.132.408 0 .73-.088.966-.264.236-.176.354-.428.354-.756 0-.216-.044-.39-.132-.522-.088-.132-.234-.242-.438-.33-.204-.088-.51-.184-.918-.288-.632-.16-1.092-.376-1.38-.648-.288-.272-.432-.648-.432-1.128 0-.52.202-.934.606-1.242.404-.308.938-.462 1.602-.462.784 0 1.46.216 2.028.648zM71.68 246.332l-.624.684c-.296-.264-.634-.466-1.014-.606-.38-.14-.782-.21-1.206-.21-1.04 0-1.824.324-2.352.972-.528.648-.792 1.504-.792 2.568 0 1.056.264 1.908.792 2.556.528.648 1.304.972 2.328.972.456 0 .888-.086 1.296-.258.408-.172.764-.406 1.068-.702l.648.708c-.368.368-.814.658-1.338.87-.524.212-1.094.318-1.71.318-.888 0-1.646-.188-2.274-.564-.628-.376-1.104-.9-1.428-1.572-.324-.672-.486-1.448-.486-2.328 0-.88.162-1.656.486-2.328.324-.672.802-1.194 1.434-1.566.632-.372 1.396-.558 2.292-.558.568 0 1.1.09 1.596.27.496.18.924.438 1.284.774zm6.828 4.596c0 .632-.122 1.194-.366 1.686s-.596.874-1.056 1.146c-.46.272-1.01.408-1.65.408-.632 0-1.18-.138-1.644-.414-.464-.276-.816-.658-1.056-1.146-.24-.488-.36-1.048-.36-1.68 0-.976.268-1.754.804-2.334.536-.58 1.288-.87 2.256-.87.648 0 1.202.134 1.662.402.46.268.81.642 1.05 1.122.24.48.36 1.04.36 1.68zm-5.076 0c0 .728.166 1.314.498 1.758.332.444.834.666 1.506.666.68 0 1.188-.222 1.524-.666.336-.444.504-1.03.504-1.758s-.168-1.308-.504-1.74c-.336-.432-.844-.648-1.524-.648s-1.184.216-1.512.648c-.328.432-.492 1.012-.492 1.74zm6.708-1.668c0-.448-.028-.904-.084-1.368h.972c.04.216.068.504.084.864h.024c.2-.312.48-.562.84-.75.36-.188.788-.282 1.284-.282.768 0 1.338.222 1.71.666.372.444.558.998.558 1.662V254h-1.02v-3.744c0-.488-.12-.89-.36-1.206-.24-.316-.628-.474-1.164-.474-.552 0-.994.182-1.326.546-.332.364-.498.822-.498 1.374V254h-1.02v-4.74zm8.544-1.368h1.62v.78h-1.62v3.684c0 .656.3.984.9.984.216 0 .416-.028.6-.084l.156.756c-.272.104-.588.156-.948.156-.536 0-.958-.15-1.266-.45-.308-.3-.462-.726-.462-1.278v-3.768h-1.08v-.66l1.068-.12v-1.5l1.032-.36v1.86zm2.508 4.44c0-.792.286-1.342.858-1.65.572-.308 1.434-.462 2.586-.462.28 0 .492.004.636.012v-.348c0-.456-.124-.796-.372-1.02-.248-.224-.628-.336-1.14-.336-.648 0-1.26.172-1.836.516l-.36-.684c.688-.424 1.44-.636 2.256-.636.856 0 1.482.2 1.878.6.396.4.594 1.008.594 1.824v2.496c0 .44.028.892.084 1.356h-.936c-.056-.352-.084-.628-.084-.828h-.036c-.224.328-.506.576-.846.744-.34.168-.778.252-1.314.252-.592 0-1.068-.158-1.428-.474-.36-.316-.54-.77-.54-1.362zm4.08-.588v-.792l-.54-.012c-.6 0-1.078.04-1.434.12-.356.08-.62.216-.792.408-.172.192-.258.46-.258.804 0 .352.104.622.312.81.208.188.496.282.864.282.384 0 .716-.082.996-.246.28-.164.492-.37.636-.618.144-.248.216-.5.216-.756zm5.592-4.02c.384 0 .75.058 1.098.174.348.116.658.278.93.486l-.408.708c-.464-.344-1.004-.516-1.62-.516-.656 0-1.152.214-1.488.642-.336.428-.504 1.002-.504 1.722 0 .704.168 1.274.504 1.71.336.436.828.654 1.476.654.552 0 1.1-.172 1.644-.516l.372.72c-.608.44-1.304.66-2.088.66-.688 0-1.252-.154-1.692-.462-.44-.308-.758-.706-.954-1.194-.196-.488-.294-1.012-.294-1.572 0-.976.268-1.756.804-2.34.536-.584 1.276-.876 2.22-.876zm4.932.168h1.62v.78h-1.62v3.684c0 .656.3.984.9.984.216 0 .416-.028.6-.084l.156.756c-.272.104-.588.156-.948.156-.536 0-.958-.15-1.266-.45-.308-.3-.462-.726-.462-1.278v-3.768h-1.08v-.66l1.068-.12v-1.5l1.032-.36v1.86zM116.752 254l-1.932-3.108h-1.776V254h-1.068v-8.496h2.796c.552 0 1.054.102 1.506.306.452.204.81.512 1.074.924.264.412.396.914.396 1.506 0 .672-.174 1.212-.522 1.62-.348.408-.81.696-1.386.864l2.136 3.276h-1.224zm-2.016-3.924c.552 0 1.01-.156 1.374-.468.364-.312.546-.768.546-1.368 0-.624-.188-1.094-.564-1.41-.376-.316-.84-.474-1.392-.474h-1.668v3.72h1.704zm10.2.852c0 .632-.122 1.194-.366 1.686s-.596.874-1.056 1.146c-.46.272-1.01.408-1.65.408-.632 0-1.18-.138-1.644-.414-.464-.276-.816-.658-1.056-1.146-.24-.488-.36-1.048-.36-1.68 0-.976.268-1.754.804-2.334.536-.58 1.288-.87 2.256-.87.648 0 1.202.134 1.662.402.46.268.81.642 1.05 1.122.24.48.36 1.04.36 1.68zm-5.076 0c0 .728.166 1.314.498 1.758.332.444.834.666 1.506.666.68 0 1.188-.222 1.524-.666.336-.444.504-1.03.504-1.758s-.168-1.308-.504-1.74c-.336-.432-.844-.648-1.524-.648s-1.184.216-1.512.648c-.328.432-.492 1.012-.492 1.74zm7.74-5.424V254h-1.02v-8.496h1.02zm7.2 5.808h-4.536c.04.624.228 1.12.564 1.488.336.368.816.552 1.44.552.368 0 .698-.05.99-.15.292-.1.586-.25.882-.45l.456.66c-.344.248-.71.436-1.098.564-.388.128-.818.192-1.29.192-.936 0-1.666-.296-2.19-.888-.524-.592-.786-1.38-.786-2.364 0-.632.112-1.188.336-1.668.224-.48.55-.854.978-1.122.428-.268.942-.402 1.542-.402.888 0 1.566.288 2.034.864.468.576.702 1.34.702 2.292 0 .192-.008.336-.024.432zm-.972-.792c-.016-.608-.172-1.096-.468-1.464-.296-.368-.724-.552-1.284-.552-.568 0-1.008.19-1.32.57-.312.38-.48.862-.504 1.446h3.576zm10.488 2.664h1.008V254h-3.072v-.816h1.008v-6.888h-1.008v-.792h3.072v.792h-1.008v6.888zm2.688-3.924c0-.448-.028-.904-.084-1.368h.972c.04.216.068.504.084.864H148c.2-.312.48-.562.84-.75.36-.188.788-.282 1.284-.282.768 0 1.338.222 1.71.666.372.444.558.998.558 1.662V254h-1.02v-3.744c0-.488-.12-.89-.36-1.206-.24-.316-.628-.474-1.164-.474-.552 0-.994.182-1.326.546-.332.364-.498.822-.498 1.374V254h-1.02v-4.74zm12.288-3.348V254h-1.02v-7.68c-.432-.12-.884-.176-1.356-.168-.496 0-.85.102-1.062.306-.212.204-.318.514-.318.93v.504h1.536v.78h-1.536V254h-1.02v-5.328h-1.068v-.648l1.068-.132v-.528c0-.64.2-1.138.6-1.494.4-.356 1.02-.534 1.86-.534.8 0 1.572.192 2.316.576zm1.98 5.724v-3.744h1.032v3.6c0 .56.122 1.01.366 1.35.244.34.622.51 1.134.51.56 0 1.008-.21 1.344-.63.336-.42.504-.942.504-1.566v-3.264h1.02v4.752c0 .44.028.892.084 1.356h-.972c-.04-.256-.068-.58-.084-.972h-.024c-.44.76-1.144 1.14-2.112 1.14-.76 0-1.332-.234-1.716-.702-.384-.468-.576-1.078-.576-1.83zm12.6-.324h-4.536c.04.624.228 1.12.564 1.488.336.368.816.552 1.44.552.368 0 .698-.05.99-.15.292-.1.586-.25.882-.45l.456.66c-.344.248-.71.436-1.098.564-.388.128-.818.192-1.29.192-.936 0-1.666-.296-2.19-.888-.524-.592-.786-1.38-.786-2.364 0-.632.112-1.188.336-1.668.224-.48.55-.854.978-1.122.428-.268.942-.402 1.542-.402.888 0 1.566.288 2.034.864.468.576.702 1.34.702 2.292 0 .192-.008.336-.024.432zm-.972-.792c-.016-.608-.172-1.096-.468-1.464-.296-.368-.724-.552-1.284-.552-.568 0-1.008.19-1.32.57-.312.38-.48.862-.504 1.446h3.576zm2.616-1.26c0-.448-.028-.904-.084-1.368h.972c.04.216.068.504.084.864h.024c.2-.312.48-.562.84-.75.36-.188.788-.282 1.284-.282.768 0 1.338.222 1.71.666.372.444.558.998.558 1.662V254h-1.02v-3.744c0-.488-.12-.89-.36-1.206-.24-.316-.628-.474-1.164-.474-.552 0-.994.182-1.326.546-.332.364-.498.822-.498 1.374V254h-1.02v-4.74zm9.96-1.536c.384 0 .75.058 1.098.174.348.116.658.278.93.486l-.408.708c-.464-.344-1.004-.516-1.62-.516-.656 0-1.152.214-1.488.642-.336.428-.504 1.002-.504 1.722 0 .704.168 1.274.504 1.71.336.436.828.654 1.476.654.552 0 1.1-.172 1.644-.516l.372.72c-.608.44-1.304.66-2.088.66-.688 0-1.252-.154-1.692-.462-.44-.308-.758-.706-.954-1.194-.196-.488-.294-1.012-.294-1.572 0-.976.268-1.756.804-2.34.536-.584 1.276-.876 2.22-.876zm8.388 3.588h-4.536c.04.624.228 1.12.564 1.488.336.368.816.552 1.44.552.368 0 .698-.05.99-.15.292-.1.586-.25.882-.45l.456.66c-.344.248-.71.436-1.098.564-.388.128-.818.192-1.29.192-.936 0-1.666-.296-2.19-.888-.524-.592-.786-1.38-.786-2.364 0-.632.112-1.188.336-1.668.224-.48.55-.854.978-1.122.428-.268.942-.402 1.542-.402.888 0 1.566.288 2.034.864.468.576.702 1.34.702 2.292 0 .192-.008.336-.024.432zm-.972-.792c-.016-.608-.172-1.096-.468-1.464-.296-.368-.724-.552-1.284-.552-.568 0-1.008.19-1.32.57-.312.38-.48.862-.504 1.446h3.576zm2.616-1.26c0-.448-.028-.904-.084-1.368h.972c.04.272.068.596.084.972h.024c.352-.76.992-1.14 1.92-1.14.064 0 .18.012.348.036l-.06.876c-.08-.016-.204-.024-.372-.024-.584 0-1.032.196-1.344.588-.312.392-.468.9-.468 1.524V254h-1.02v-4.74zM71.48 265.404h-2.676V273h-1.068v-7.596h-2.688v-.9h6.432v.9zM73.484 273h-1.02v-6.108h1.02V273zm-1.176-8.196c0-.432.224-.648.672-.648.44 0 .66.216.66.648 0 .184-.052.334-.156.45-.104.116-.272.174-.504.174-.24 0-.412-.058-.516-.174-.104-.116-.156-.266-.156-.45zm4.488 2.088h1.62v.78h-1.62v3.684c0 .656.3.984.9.984.216 0 .416-.028.6-.084l.156.756c-.272.104-.588.156-.948.156-.536 0-.958-.15-1.266-.45-.308-.3-.462-.726-.462-1.278v-3.768h-1.08v-.66l1.068-.12v-1.5l1.032-.36v1.86zm4.068-2.388V273h-1.02v-8.496h1.02zm7.2 5.808h-4.536c.04.624.228 1.12.564 1.488.336.368.816.552 1.44.552.368 0 .698-.05.99-.15.292-.1.586-.25.882-.45l.456.66c-.344.248-.71.436-1.098.564-.388.128-.818.192-1.29.192-.936 0-1.666-.296-2.19-.888-.524-.592-.786-1.38-.786-2.364 0-.632.112-1.188.336-1.668.224-.48.55-.854.978-1.122.428-.268.942-.402 1.542-.402.888 0 1.566.288 2.034.864.468.576.702 1.34.702 2.292 0 .192-.008.336-.024.432zm-.972-.792c-.016-.608-.172-1.096-.468-1.464-.296-.368-.724-.552-1.284-.552-.568 0-1.008.19-1.32.57-.312.38-.48.862-.504 1.446h3.576zm15.972-.78c0 1.384-.386 2.44-1.158 3.168-.772.728-1.846 1.092-3.222 1.092h-2.736v-8.496h2.712c1.408 0 2.494.35 3.258 1.05.764.7 1.146 1.762 1.146 3.186zm-6.06-3.36v6.732h1.572c1.104 0 1.946-.276 2.526-.828.58-.552.87-1.4.87-2.544 0-2.24-1.128-3.36-3.384-3.36h-1.584zm8.712 7.62h-1.02v-6.108h1.02V273zm-1.176-8.196c0-.432.224-.648.672-.648.44 0 .66.216.66.648 0 .184-.052.334-.156.45-.104.116-.272.174-.504.174-.24 0-.412-.058-.516-.174-.104-.116-.156-.266-.156-.45zm3.24 3.456c0-.448-.028-.904-.084-1.368h.972c.04.272.068.596.084.972h.024c.352-.76.992-1.14 1.92-1.14.064 0 .18.012.348.036l-.06.876c-.08-.016-.204-.024-.372-.024-.584 0-1.032.196-1.344.588-.312.392-.468.9-.468 1.524V273h-1.02v-4.74zm9.276 2.052h-4.536c.04.624.228 1.12.564 1.488.336.368.816.552 1.44.552.368 0 .698-.05.99-.15.292-.1.586-.25.882-.45l.456.66c-.344.248-.71.436-1.098.564-.388.128-.818.192-1.29.192-.936 0-1.666-.296-2.19-.888-.524-.592-.786-1.38-.786-2.364 0-.632.112-1.188.336-1.668.224-.48.55-.854.978-1.122.428-.268.942-.402 1.542-.402.888 0 1.566.288 2.034.864.468.576.702 1.34.702 2.292 0 .192-.008.336-.024.432zm-.972-.792c-.016-.608-.172-1.096-.468-1.464-.296-.368-.724-.552-1.284-.552-.568 0-1.008.19-1.32.57-.312.38-.48.862-.504 1.446h3.576zm5.208-2.796c.384 0 .75.058 1.098.174.348.116.658.278.93.486l-.408.708c-.464-.344-1.004-.516-1.62-.516-.656 0-1.152.214-1.488.642-.336.428-.504 1.002-.504 1.722 0 .704.168 1.274.504 1.71.336.436.828.654 1.476.654.552 0 1.1-.172 1.644-.516l.372.72c-.608.44-1.304.66-2.088.66-.688 0-1.252-.154-1.692-.462-.44-.308-.758-.706-.954-1.194-.196-.488-.294-1.012-.294-1.572 0-.976.268-1.756.804-2.34.536-.584 1.276-.876 2.22-.876zm4.932.168h1.62v.78h-1.62v3.684c0 .656.3.984.9.984.216 0 .416-.028.6-.084l.156.756c-.272.104-.588.156-.948.156-.536 0-.958-.15-1.266-.45-.308-.3-.462-.726-.462-1.278v-3.768h-1.08v-.66l1.068-.12v-1.5l1.032-.36v1.86zm8.58 3.036c0 .632-.122 1.194-.366 1.686s-.596.874-1.056 1.146c-.46.272-1.01.408-1.65.408-.632 0-1.18-.138-1.644-.414-.464-.276-.816-.658-1.056-1.146-.24-.488-.36-1.048-.36-1.68 0-.976.268-1.754.804-2.334.536-.58 1.288-.87 2.256-.87.648 0 1.202.134 1.662.402.46.268.81.642 1.05 1.122.24.48.36 1.04.36 1.68zm-5.076 0c0 .728.166 1.314.498 1.758.332.444.834.666 1.506.666.68 0 1.188-.222 1.524-.666.336-.444.504-1.03.504-1.758s-.168-1.308-.504-1.74c-.336-.432-.844-.648-1.524-.648s-1.184.216-1.512.648c-.328.432-.492 1.012-.492 1.74zm6.708-1.668c0-.448-.028-.904-.084-1.368h.972c.04.272.068.596.084.972h.024c.352-.76.992-1.14 1.92-1.14.064 0 .18.012.348.036l-.06.876c-.08-.016-.204-.024-.372-.024-.584 0-1.032.196-1.344.588-.312.392-.468.9-.468 1.524V273h-1.02v-4.74zm3.42 6.864l-.396-.36c.32-.344.546-.65.678-.918s.206-.55.222-.846c-.208-.032-.358-.098-.45-.198-.092-.1-.138-.238-.138-.414s.058-.324.174-.444c.116-.12.278-.18.486-.18.232 0 .408.072.528.216.12.144.18.352.18.624 0 .44-.09.852-.27 1.236-.18.384-.518.812-1.014 1.284zM155.192 273h-1.044l.024-7.26h-.024L151.1 273h-.804l-3.036-7.26h-.024l.024 7.26h-.996v-8.496h1.572l2.868 7.068h.024l2.88-7.068h1.584V273zm1.572-1.668c0-.792.286-1.342.858-1.65.572-.308 1.434-.462 2.586-.462.28 0 .492.004.636.012v-.348c0-.456-.124-.796-.372-1.02-.248-.224-.628-.336-1.14-.336-.648 0-1.26.172-1.836.516l-.36-.684c.688-.424 1.44-.636 2.256-.636.856 0 1.482.2 1.878.6.396.4.594 1.008.594 1.824v2.496c0 .44.028.892.084 1.356h-.936c-.056-.352-.084-.628-.084-.828h-.036c-.224.328-.506.576-.846.744-.34.168-.778.252-1.314.252-.592 0-1.068-.158-1.428-.474-.36-.316-.54-.77-.54-1.362zm4.08-.588v-.792l-.54-.012c-.6 0-1.078.04-1.434.12-.356.08-.62.216-.792.408-.172.192-.258.46-.258.804 0 .352.104.622.312.81.208.188.496.282.864.282.384 0 .716-.082.996-.246.28-.164.492-.37.636-.618.144-.248.216-.5.216-.756zm3-2.484c0-.448-.028-.904-.084-1.368h.972c.04.272.068.596.084.972h.024c.352-.76.992-1.14 1.92-1.14.064 0 .18.012.348.036l-.06.876c-.08-.016-.204-.024-.372-.024-.584 0-1.032.196-1.344.588-.312.392-.468.9-.468 1.524V273h-1.02v-4.74zm5.988 1.812l-.588.552V273h-1.02v-8.496h1.02v4.968l2.772-2.58h1.224l-2.7 2.52 2.964 3.588h-1.272l-2.4-2.928zm9.624.24h-4.536c.04.624.228 1.12.564 1.488.336.368.816.552 1.44.552.368 0 .698-.05.99-.15.292-.1.586-.25.882-.45l.456.66c-.344.248-.71.436-1.098.564-.388.128-.818.192-1.29.192-.936 0-1.666-.296-2.19-.888-.524-.592-.786-1.38-.786-2.364 0-.632.112-1.188.336-1.668.224-.48.55-.854.978-1.122.428-.268.942-.402 1.542-.402.888 0 1.566.288 2.034.864.468.576.702 1.34.702 2.292 0 .192-.008.336-.024.432zm-.972-.792c-.016-.608-.172-1.096-.468-1.464-.296-.368-.724-.552-1.284-.552-.568 0-1.008.19-1.32.57-.312.38-.48.862-.504 1.446h3.576zm3.792-2.628h1.62v.78h-1.62v3.684c0 .656.3.984.9.984.216 0 .416-.028.6-.084l.156.756c-.272.104-.588.156-.948.156-.536 0-.958-.15-1.266-.45-.308-.3-.462-.726-.462-1.278v-3.768h-1.08v-.66l1.068-.12v-1.5l1.032-.36v1.86zm4.068 6.108h-1.02v-6.108h1.02V273zm-1.176-8.196c0-.432.224-.648.672-.648.44 0 .66.216.66.648 0 .184-.052.334-.156.45-.104.116-.272.174-.504.174-.24 0-.412-.058-.516-.174-.104-.116-.156-.266-.156-.45zm3.24 3.456c0-.448-.028-.904-.084-1.368h.972c.04.216.068.504.084.864h.024c.2-.312.48-.562.84-.75.36-.188.788-.282 1.284-.282.768 0 1.338.222 1.71.666.372.444.558.998.558 1.662V273h-1.02v-3.744c0-.488-.12-.89-.36-1.206-.24-.316-.628-.474-1.164-.474-.552 0-.994.182-1.326.546-.332.364-.498.822-.498 1.374V273h-1.02v-4.74zm6.576 5.988c0-.344.098-.654.294-.93.196-.276.518-.526.966-.75-.392-.176-.588-.444-.588-.804 0-.216.078-.408.234-.576.156-.168.374-.292.654-.372-.376-.152-.67-.384-.882-.696-.212-.312-.318-.708-.318-1.188 0-.68.224-1.216.672-1.608.448-.392 1.072-.588 1.872-.588.216 0 .398.012.546.036.148.024.326.064.534.12h2.124v.816l-1.356-.144c.192.136.348.328.468.576.12.248.18.544.18.888 0 .648-.22 1.154-.66 1.518-.44.364-1.056.546-1.848.546-.4 0-.714.052-.942.156-.228.104-.342.248-.342.432 0 .328.388.496 1.164.504 1.128.016 1.946.166 2.454.45.508.284.762.714.762 1.29 0 .688-.286 1.22-.858 1.596-.572.376-1.374.564-2.406.564-.896 0-1.574-.16-2.034-.48-.46-.32-.69-.772-.69-1.356zm4.452-5.304c0-.44-.132-.792-.396-1.056s-.656-.396-1.176-.396c-.48 0-.862.128-1.146.384-.284.256-.426.6-.426 1.032 0 .456.13.812.39 1.068s.654.384 1.182.384c1.048 0 1.572-.472 1.572-1.416zm.528 5.064c0-.24-.09-.436-.27-.588-.18-.152-.486-.268-.918-.348-.432-.08-1.024-.12-1.776-.12-.36.16-.62.342-.78.546-.16.204-.24.438-.24.702 0 .744.588 1.116 1.764 1.116.728 0 1.28-.112 1.656-.336.376-.224.564-.548.564-.972z" fill="#5876A3"/><path d="M261.954 26.21c.046-.057.058-.138.023-.22-.035-.07-.104-.115-.185-.115h-9.584c-.08 0-.15.046-.185.116-.035.085-.023.166.023.22l4.792 5.837c.035.058.104.08.162.08.058 0 .116-.022.162-.08l4.792-5.833z" fill="#54698E"/><path d="M27.24 24.776l-.832.912c-.395-.352-.845-.62-1.352-.808-.507-.187-1.043-.28-1.608-.28-1.387 0-2.432.432-3.136 1.296-.704.864-1.056 2.005-1.056 3.424 0 1.408.352 2.544 1.056 3.408.704.864 1.74 1.296 3.104 1.296.608 0 1.184-.115 1.728-.344.544-.23 1.02-.54 1.424-.936l.864.944c-.49.49-1.085.877-1.784 1.16-.7.283-1.46.424-2.28.424-1.184 0-2.195-.25-3.032-.752-.837-.5-1.472-1.2-1.904-2.096-.432-.896-.648-1.93-.648-3.104 0-1.173.216-2.208.648-3.104.432-.896 1.07-1.592 1.912-2.088.843-.496 1.86-.744 3.056-.744.757 0 1.467.12 2.128.36.66.24 1.232.584 1.712 1.032zm9.104 6.128c0 .843-.163 1.592-.488 2.248-.325.656-.795 1.165-1.408 1.528-.613.363-1.347.544-2.2.544-.843 0-1.573-.184-2.192-.552-.62-.368-1.088-.877-1.408-1.528-.32-.65-.48-1.397-.48-2.24 0-1.3.357-2.34 1.072-3.112.715-.773 1.717-1.16 3.008-1.16.864 0 1.603.18 2.216.536.613.357 1.08.856 1.4 1.496.32.64.48 1.387.48 2.24zm-6.768 0c0 .97.22 1.752.664 2.344.443.592 1.112.888 2.008.888.907 0 1.584-.296 2.032-.888.448-.592.672-1.373.672-2.344 0-.97-.224-1.744-.672-2.32-.448-.576-1.125-.864-2.032-.864s-1.58.288-2.016.864c-.437.576-.656 1.35-.656 2.32zm8.944-2.224c0-.597-.037-1.205-.112-1.824h1.296c.053.288.09.672.112 1.152h.032c.267-.416.64-.75 1.12-1 .48-.25 1.05-.376 1.712-.376 1.024 0 1.784.296 2.28.888.496.592.744 1.33.744 2.216V35h-1.36v-4.992c0-.65-.16-1.187-.48-1.608-.32-.42-.837-.632-1.552-.632-.736 0-1.325.243-1.768.728-.443.485-.664 1.096-.664 1.832V35h-1.36v-6.32zm11.392-1.824h2.16v1.04h-2.16v4.912c0 .875.4 1.312 1.2 1.312.288 0 .555-.037.8-.112l.208 1.008c-.363.14-.784.208-1.264.208-.715 0-1.277-.2-1.688-.6-.41-.4-.616-.968-.616-1.704v-5.024h-1.44v-.88l1.424-.16v-2l1.376-.48v2.48zm3.344 5.92c0-1.056.38-1.79 1.144-2.2.763-.41 1.912-.616 3.448-.616.373 0 .656.005.848.016v-.464c0-.608-.165-1.06-.496-1.36-.33-.3-.837-.448-1.52-.448-.864 0-1.68.23-2.448.688l-.48-.912c.917-.565 1.92-.848 3.008-.848 1.14 0 1.976.267 2.504.8s.792 1.344.792 2.432v3.328c0 .587.037 1.19.112 1.808H58.92c-.075-.47-.112-.837-.112-1.104h-.048c-.3.437-.675.768-1.128.992-.453.224-1.037.336-1.752.336-.79 0-1.424-.21-1.904-.632-.48-.42-.72-1.027-.72-1.816zm5.44-.784v-1.056l-.72-.016c-.8 0-1.437.053-1.912.16-.475.107-.827.288-1.056.544-.23.256-.344.613-.344 1.072 0 .47.14.83.416 1.08.277.25.66.376 1.152.376.512 0 .955-.11 1.328-.328.373-.22.656-.493.848-.824.192-.33.288-.667.288-1.008zm7.456-5.36c.512 0 1 .077 1.464.232.464.155.877.37 1.24.648l-.544.944c-.62-.46-1.34-.688-2.16-.688-.875 0-1.536.285-1.984.856-.448.57-.672 1.336-.672 2.296 0 .94.224 1.7.672 2.28.448.58 1.104.872 1.968.872.736 0 1.467-.23 2.192-.688l.496.96c-.81.587-1.74.88-2.784.88-.917 0-1.67-.205-2.256-.616-.587-.41-1.01-.94-1.272-1.592-.26-.65-.392-1.35-.392-2.096 0-1.3.357-2.34 1.072-3.12.715-.78 1.7-1.168 2.96-1.168zm6.576.224h2.16v1.04h-2.16v4.912c0 .875.4 1.312 1.2 1.312.288 0 .555-.037.8-.112l.208 1.008c-.363.14-.784.208-1.264.208-.715 0-1.277-.2-1.688-.6-.41-.4-.616-.968-.616-1.704v-5.024h-1.44v-.88l1.424-.16v-2l1.376-.48v2.48zm7.824 2.48c0-1.472.264-2.813.792-4.024.528-1.21 1.245-2.413 2.152-3.608l.88.56c-.747 1.13-1.328 2.253-1.744 3.368-.416 1.115-.624 2.35-.624 3.704 0 1.355.208 2.59.624 3.704.416 1.115.997 2.237 1.744 3.368l-.88.56c-.917-1.216-1.637-2.424-2.16-3.624-.523-1.2-.784-2.536-.784-4.008zm14.112-4.544c-1.46 1.536-2.592 3.15-3.392 4.84-.8 1.69-1.28 3.48-1.44 5.368H88.2c.288-1.93.82-3.73 1.592-5.4.773-1.67 1.827-3.245 3.16-4.728h-6.96v-1.2h8.672v1.12zm5.376 4.544c0 1.472-.26 2.808-.784 4.008-.523 1.2-1.243 2.408-2.16 3.624l-.88-.56c.747-1.13 1.328-2.253 1.744-3.368.416-1.115.624-2.35.624-3.704 0-1.355-.208-2.59-.624-3.704-.416-1.115-.997-2.237-1.744-3.368l.88-.56c.907 1.195 1.624 2.397 2.152 3.608.528 1.21.792 2.552.792 4.024z" fill="#A8B8D0"/><path d="M21.344 298H20.24l-3.216-8.496h1.14l2.64 7.308h.036l2.604-7.308h1.128L21.344 298zm5.208 0h-1.02v-6.108h1.02V298zm-1.176-8.196c0-.432.224-.648.672-.648.44 0 .66.216.66.648 0 .184-.052.334-.156.45-.104.116-.272.174-.504.174-.24 0-.412-.058-.516-.174-.104-.116-.156-.266-.156-.45zm8.376 5.508h-4.536c.04.624.228 1.12.564 1.488.336.368.816.552 1.44.552.368 0 .698-.05.99-.15.292-.1.586-.25.882-.45l.456.66c-.344.248-.71.436-1.098.564-.388.128-.818.192-1.29.192-.936 0-1.666-.296-2.19-.888-.524-.592-.786-1.38-.786-2.364 0-.632.112-1.188.336-1.668.224-.48.55-.854.978-1.122.428-.268.942-.402 1.542-.402.888 0 1.566.288 2.034.864.468.576.702 1.34.702 2.292 0 .192-.008.336-.024.432zm-.972-.792c-.016-.608-.172-1.096-.468-1.464-.296-.368-.724-.552-1.284-.552-.568 0-1.008.19-1.32.57-.312.38-.48.862-.504 1.446h3.576zm8.916 3.48h-1.14l-1.584-5.016h-.024L37.388 298H36.26l-1.716-6.108h1.068l1.248 5.004h.024l1.548-5.004h1.104l1.56 5.004h.024l1.26-5.004h1.032L41.696 298zm10.968-2.064H48.68L47.888 298h-1.116l3.36-8.496h1.116L54.584 298h-1.152l-.768-2.064zm-3.684-.828h3.384l-1.692-4.596-1.692 4.596zm7.728-5.604V298h-1.02v-8.496h1.02zm3.096 0V298h-1.02v-8.496h1.02z" fill="#16325C"/></g></svg>