<svg width="287" height="275" xmlns="http://www.w3.org/2000/svg"><g fill="none" fill-rule="evenodd"><path stroke="#E1E6EF" fill="#FFF" d="M0 11.65h286.748v262.82H0z"/><path stroke="#E0E5EE" fill="#F7F9FB" d="M12.277 12.277h274.47v31.57H12.277z"/><path stroke="#E1E6EF" fill="#FFF" d="M0 0h286.748v13.22H0z"/><path d="M20.733 3.88c.356-.372.852-.603 1.4-.603.73 0 1.367.407 1.705 1.01.295-.13.62-.204.964-.204 1.316 0 2.382 1.076 2.382 2.403S26.118 8.89 24.802 8.89c-.16 0-.318-.017-.47-.047-.298.532-.866.892-1.52.892-.272 0-.53-.063-.76-.176-.303.71-1.008 1.21-1.83 1.21-.855 0-1.584-.54-1.864-1.3-.123.022-.25.04-.38.04-1.018 0-1.843-.838-1.843-1.868 0-.69.37-1.292.922-1.614-.114-.26-.177-.55-.177-.85 0-1.186.96-2.146 2.146-2.146.696 0 1.315.33 1.707.844" fill="#1AA2DD"/><path d="M12.715 60.945H285.84M12.715 78.483H285.84M12.715 96.02H285.84M12.715 113.56H285.84M12.715 131.097H285.84M12.715 148.635H285.84M12.715 166.173H285.84m-273.125 17.54H285.84M12.715 201.25H285.84M12.715 218.788H285.84M12.715 236.712H285.84M12.715 254.25H285.84" stroke="#E1E6EF" stroke-linecap="square"/><path d="M0 .224h12.77v274.15H0z" fill="#16325C"/><g transform="translate(23 51)" fill="#E1E6EF"><rect width="59.566" height="1.875" rx="4"/><rect x="70" width="59.566" height="1.875" rx="4"/><rect x="191" width="59.566" height="1.875" rx="4"/><rect x="141" width="39" height="1.875" rx="4"/><rect y="18" width="59.566" height="1.875" rx="4"/><rect x="70" y="18" width="59.566" height="1.875" rx="4"/><rect x="191" y="18" width="59.566" height="1.875" rx="4"/><rect x="141" y="18" width="39" height="1.875" rx="4"/><rect y="35" width="59.566" height="1.875" rx="4"/><rect x="70" y="35" width="59.566" height="1.875" rx="4"/><rect x="191" y="35" width="59.566" height="1.875" rx="4"/><rect x="141" y="35" width="39" height="1.875" rx="4"/><rect y="53" width="59.566" height="1.875" rx="4"/><rect x="70" y="53" width="59.566" height="1.875" rx="4"/><rect x="191" y="53" width="59.566" height="1.875" rx="4"/><rect x="141" y="53" width="39" height="1.875" rx="4"/><rect y="71" width="59.566" height="1.875" rx="4"/><rect x="70" y="71" width="59.566" height="1.875" rx="4"/><rect x="191" y="71" width="59.566" height="1.875" rx="4"/><rect x="141" y="71" width="39" height="1.875" rx="4"/><rect y="89" width="59.566" height="1.875" rx="4"/><rect x="70" y="89" width="59.566" height="1.875" rx="4"/><rect x="191" y="89" width="59.566" height="1.875" rx="4"/><rect x="141" y="89" width="39" height="1.875" rx="4"/><rect y="106" width="59.566" height="1.875" rx="4"/><rect x="70" y="106" width="59.566" height="1.875" rx="4"/><rect x="191" y="106" width="59.566" height="1.875" rx="4"/><rect x="141" y="106" width="39" height="1.875" rx="4"/><rect y="124" width="59.566" height="1.875" rx="4"/><rect x="70" y="124" width="59.566" height="1.875" rx="4"/><rect x="191" y="124" width="59.566" height="1.875" rx="4"/><rect x="141" y="124" width="39" height="1.875" rx="4"/><rect y="141" width="59.566" height="1.875" rx="4"/><rect x="70" y="141" width="59.566" height="1.875" rx="4"/><rect x="191" y="141" width="59.566" height="1.875" rx="4"/><rect x="141" y="141" width="39" height="1.875" rx="4"/><rect y="158" width="59.566" height="1.875" rx="4"/><rect x="70" y="158" width="59.566" height="1.875" rx="4"/><rect x="191" y="158" width="59.566" height="1.875" rx="4"/><rect x="141" y="158" width="39" height="1.875" rx="4"/><rect y="176" width="59.566" height="1.875" rx="4"/><rect x="70" y="176" width="59.566" height="1.875" rx="4"/><rect x="191" y="176" width="59.566" height="1.875" rx="4"/><rect x="141" y="176" width="39" height="1.875" rx="4"/><rect y="193" width="59.566" height="1.875" rx="4"/><rect x="70" y="193" width="59.566" height="1.875" rx="4"/><rect x="191" y="193" width="59.566" height="1.875" rx="4"/><rect x="141" y="193" width="39" height="1.875" rx="4"/><rect y="212" width="59.566" height="1.875" rx="4"/><rect x="70" y="212" width="59.566" height="1.875" rx="4"/><rect x="191" y="212" width="59.566" height="1.875" rx="4"/><rect x="141" y="212" width="39" height="1.875" rx="4"/></g></g></svg>