<?xml version="1.0" encoding="UTF-8" standalone="no"?>
<svg width="288px" height="276px" viewBox="0 0 288 276" version="1.1" xmlns="http://www.w3.org/2000/svg" xmlns:xlink="http://www.w3.org/1999/xlink" xmlns:sketch="http://www.bohemiancoding.com/sketch/ns">
    <!-- Generator: Sketch 3.3.3 (12081) - http://www.bohemiancoding.com/sketch -->
    <title>record copy 4</title>
    <desc>Created with Sketch.</desc>
    <defs>
        <path id="path-1" d="M253.527317,6.77281287 C255.310579,6.77281287 256.756198,5.30597295 256.756198,3.49564535 L256.756198,3.49564535 C256.756198,1.68571571 255.312243,0.218477835 253.527317,0.218477835 L3.22888142,0.218477835 C1.44561945,0.218477835 0,1.68531776 0,3.49564535 L0,3.49564535 C0,5.305575 1.44395525,6.77281287 3.22888142,6.77281287 L253.527317,6.77281287 L253.527317,6.77281287 Z"></path>
    </defs>
    <g id="Page-1" stroke="none" stroke-width="1" fill="none" fill-rule="evenodd" sketch:type="MSPage">
        <g id="displaying-data" sketch:type="MSArtboardGroup" transform="translate(-886.000000, -1661.000000)">
            <g id="record-copy-4" sketch:type="MSLayerGroup" transform="translate(886.000000, 1661.000000)">
                <rect id="bkgd" stroke="#E1E6EF" fill="#FFFFFF" sketch:type="MSShapeGroup" x="0" y="11.6777868" width="287.805785" height="263.443232"></rect>
                <rect id="Rectangle-553" stroke="#E0E5EE" fill="#F7F9FB" sketch:type="MSShapeGroup" x="12.3219602" y="12.3057325" width="275.483825" height="30.7072545"></rect>
                <g id="Stages" transform="translate(21.495868, 50.352826)">
                    <g id="Stage-Bar">
                        <mask id="mask-2" sketch:name="Rectangle 45" fill="white">
                            <use xlink:href="#path-1"></use>
                        </mask>
                        <use id="Rectangle-45" fill="#D3DCE7" sketch:type="MSShapeGroup" xlink:href="#path-1"></use>
                        <path d="M51.3378521,-0.17893651 C51.1173332,-0.0617636977 51.2397531,0.0290525403 51.4720059,0.282516805 C51.9270788,0.779151095 53.999722,3.12729332 54.1114905,3.28630769 C54.2152376,3.43390985 54.2378188,3.42883704 54.1114904,3.59152385 C53.9851621,3.75421066 51.3621883,6.62221571 51.3621883,6.62221571 C51.3621883,6.62221571 51.1061067,6.83841223 51.3102856,6.93475418 C51.5144645,7.03109613 51.5525069,7.0210136 51.7895673,6.77231787 C52.7308689,5.78481538 54.7197732,3.6485274 54.7211342,3.55717365 C54.7217946,3.51284126 54.8043798,3.42062948 54.7055713,3.27741076 C54.3235193,2.72364232 52.5822915,0.841026402 51.8747771,0.0973449849 C51.6511355,-0.13772876 51.5583711,-0.296109322 51.3378521,-0.17893651 Z" id="Rectangle-9" fill="#FFFFFF" sketch:type="MSShapeGroup" mask="url(#mask-2)"></path>
                        <path d="M102.55996,-0.17893651 C102.339441,-0.0617636977 102.461861,0.0290525403 102.694114,0.282516805 C103.149187,0.779151095 105.22183,3.12729332 105.333599,3.28630769 C105.437346,3.43390985 105.459927,3.42883704 105.333599,3.59152385 C105.20727,3.75421066 102.584297,6.62221571 102.584297,6.62221571 C102.584297,6.62221571 102.328215,6.83841223 102.532394,6.93475418 C102.736573,7.03109613 102.774615,7.0210136 103.011676,6.77231787 C103.952977,5.78481538 105.941881,3.6485274 105.943242,3.55717365 C105.943903,3.51284126 106.026488,3.42062948 105.92768,3.27741076 C105.545628,2.72364232 103.8044,0.841026402 103.096885,0.0973449849 C102.873244,-0.13772876 102.780479,-0.296109322 102.55996,-0.17893651 Z" id="Rectangle-10" fill="#FFFFFF" sketch:type="MSShapeGroup" mask="url(#mask-2)"></path>
                        <path d="M153.782069,0.0395413248 C153.56155,0.156714137 153.68397,0.247530375 153.916223,0.50099464 C154.371295,0.99762893 156.443939,3.34577115 156.555707,3.50478553 C156.659454,3.65238769 156.682035,3.64731487 156.555707,3.81000168 C156.429379,3.9726885 153.806405,6.84069355 153.806405,6.84069355 C153.806405,6.84069355 153.550323,7.05689007 153.754502,7.15323202 C153.958681,7.24957397 153.996724,7.23949144 154.233784,6.9907957 C155.175086,6.00329321 157.16399,3.86700524 157.165351,3.77565149 C157.166011,3.73131909 157.248596,3.63910732 157.149788,3.49588859 C156.767736,2.94212015 155.026508,1.05950424 154.318994,0.31582282 C154.095352,0.0807490744 154.002588,-0.0776314875 153.782069,0.0395413248 Z" id="Rectangle-11" fill="#FFFFFF" sketch:type="MSShapeGroup" mask="url(#mask-2)"></path>
                        <path d="M205.004177,-0.17893651 C204.783658,-0.0617636977 204.906078,0.0290525403 205.138331,0.282516805 C205.593404,0.779151095 207.666047,3.12729332 207.777815,3.28630769 C207.881562,3.43390985 207.904144,3.42883704 207.777815,3.59152385 C207.651487,3.75421066 205.028513,6.62221571 205.028513,6.62221571 C205.028513,6.62221571 204.772432,6.83841223 204.97661,6.93475418 C205.180789,7.03109613 205.218832,7.0210136 205.455892,6.77231787 C206.397194,5.78481538 208.386098,3.6485274 208.387459,3.55717365 C208.38812,3.51284126 208.470705,3.42062948 208.371896,3.27741076 C207.989844,2.72364232 206.248616,0.841026402 205.541102,0.0973449849 C205.31746,-0.13772876 205.224696,-0.296109322 205.004177,-0.17893651 Z" id="Rectangle-12" fill="#FFFFFF" sketch:type="MSShapeGroup" mask="url(#mask-2)"></path>
                    </g>
                </g>
                <g id="Component---Top-Bar-Copy-12" sketch:type="MSShapeGroup">
                    <rect id="Background" stroke="#E1E6EF" fill="#FFFFFF" x="0" y="0" width="287.805785" height="13.2497966"></rect>
                    <path d="M20.8091493,3.88797186 C21.166846,3.51581781 21.6647758,3.28490399 22.2155373,3.28490399 C22.9475611,3.28490399 23.5863465,3.69259313 23.926404,4.29791141 C24.2221062,4.1659729 24.5492455,4.09254513 24.893466,4.09254513 C26.2138685,4.09254513 27.2843405,5.17105029 27.2843405,6.50149456 C27.2843405,7.83196026 26.2138685,8.91044399 24.893466,8.91044399 C24.7322461,8.91044399 24.57476,8.89428388 24.4224669,8.86359253 C24.1230095,9.39713335 23.5520983,9.75764954 22.8970256,9.75764954 C22.6228252,9.75764954 22.3633883,9.69444508 22.1323844,9.58188155 C21.8288069,10.295284 21.121246,10.7954758 20.2968636,10.7954758 C19.4381899,10.7954758 18.7063377,10.2528905 18.4255709,9.49186502 C18.3027622,9.51777692 18.175533,9.53142943 18.045085,9.53142943 C17.0227666,9.53142943 16.1940494,8.69509016 16.1940494,7.6633936 C16.1940494,6.97195951 16.5663166,6.36829153 17.119653,6.04528223 C17.0057068,5.78341986 16.9424678,5.49455254 16.9424678,5.19087536 C16.9424678,4.00428607 17.906826,3.04237375 19.0964586,3.04237375 C19.7948994,3.04237375 20.4155736,3.37402035 20.8091493,3.88797186" id="Fill-1-Copy" fill="#1AA2DD"></path>
                </g>
                <g id="Component---Left-Bar---Expanded-Copy-16" transform="translate(0.000000, 0.224573)" fill="#16325C" sketch:type="MSShapeGroup">
                    <rect id="BG" x="0" y="0" width="12.8163514" height="274.798724"></rect>
                </g>
                <g id="Wide---With-Pic-Copy" transform="translate(20.938412, 64.536828)" stroke="#E0E5EE" fill="#FFFFFF" sketch:type="MSShapeGroup">
                    <path d="M3.99056174,3.07108355e-15 C1.78663535,3.07108355e-15 0,1.79376999 0,4.00226691 L0,24.6730578 C0,26.8834487 1.78540344,28.6753247 3.99056174,28.6753247 L43.7780333,28.6753247 C45.9819597,28.6753247 47.768595,26.8815547 47.768595,24.6730578 L47.768595,4.00226691 C47.768595,1.79187593 45.9831916,3.07108355e-15 43.7780333,3.07108355e-15 L3.99056174,3.07108355e-15 Z" id="Rectangle-19"></path>
                    <path d="M56.5360163,3.07108355e-15 C54.3320899,3.07108355e-15 52.5454545,1.79376999 52.5454545,4.00226691 L52.5454545,24.6730578 C52.5454545,26.8834487 54.330858,28.6753247 56.5360163,28.6753247 L96.3234878,28.6753247 C98.5274142,28.6753247 100.31405,26.8815547 100.31405,24.6730578 L100.31405,4.00226691 C100.31405,1.79187593 98.5286461,3.07108355e-15 96.3234878,3.07108355e-15 L56.5360163,3.07108355e-15 Z" id="Rectangle-19-Copy"></path>
                    <path d="M109.081471,3.07108355e-15 C106.877544,3.07108355e-15 105.090909,1.79376999 105.090909,4.00226691 L105.090909,24.6730578 C105.090909,26.8834487 106.876313,28.6753247 109.081471,28.6753247 L148.868942,28.6753247 C151.072869,28.6753247 152.859504,26.8815547 152.859504,24.6730578 L152.859504,4.00226691 C152.859504,1.79187593 151.074101,3.07108355e-15 148.868942,3.07108355e-15 L109.081471,3.07108355e-15 Z" id="Rectangle-19-Copy-4"></path>
                    <path d="M161.626925,3.07108355e-15 C159.422999,3.07108355e-15 157.636364,1.79376999 157.636364,4.00226691 L157.636364,24.6730578 C157.636364,26.8834487 159.421767,28.6753247 161.626925,28.6753247 L201.414397,28.6753247 C203.618323,28.6753247 205.404959,26.8815547 205.404959,24.6730578 L205.404959,4.00226691 C205.404959,1.79187593 203.619555,3.07108355e-15 201.414397,3.07108355e-15 L161.626925,3.07108355e-15 Z" id="Rectangle-19-Copy-5"></path>
                    <path d="M214.17238,3.07108355e-15 C211.968454,3.07108355e-15 210.181818,1.79376999 210.181818,4.00226691 L210.181818,24.6730578 C210.181818,26.8834487 211.967222,28.6753247 214.17238,28.6753247 L253.959851,28.6753247 C256.163778,28.6753247 257.950413,26.8815547 257.950413,24.6730578 L257.950413,4.00226691 C257.950413,1.79187593 256.16501,3.07108355e-15 253.959851,3.07108355e-15 L214.17238,3.07108355e-15 Z" id="Rectangle-19-Copy-6"></path>
                    <path d="M3.99056174,33.4545455 C1.78663535,33.4545455 0,35.2483154 0,37.4568124 L0,58.1276032 C0,60.3379942 1.78540344,62.1298701 3.99056174,62.1298701 L43.7780333,62.1298701 C45.9819597,62.1298701 47.768595,60.3361001 47.768595,58.1276032 L47.768595,37.4568124 C47.768595,35.2464214 45.9831916,33.4545455 43.7780333,33.4545455 L3.99056174,33.4545455 Z" id="Rectangle-19-Copy-11"></path>
                    <path d="M56.5360163,33.4545455 C54.3320899,33.4545455 52.5454545,35.2483154 52.5454545,37.4568124 L52.5454545,58.1276032 C52.5454545,60.3379942 54.330858,62.1298701 56.5360163,62.1298701 L96.3234878,62.1298701 C98.5274142,62.1298701 100.31405,60.3361001 100.31405,58.1276032 L100.31405,37.4568124 C100.31405,35.2464214 98.5286461,33.4545455 96.3234878,33.4545455 L56.5360163,33.4545455 Z" id="Rectangle-19-Copy-7"></path>
                    <path d="M109.081471,33.4545455 C106.877544,33.4545455 105.090909,35.2483154 105.090909,37.4568124 L105.090909,58.1276032 C105.090909,60.3379942 106.876313,62.1298701 109.081471,62.1298701 L148.868942,62.1298701 C151.072869,62.1298701 152.859504,60.3361001 152.859504,58.1276032 L152.859504,37.4568124 C152.859504,35.2464214 151.074101,33.4545455 148.868942,33.4545455 L109.081471,33.4545455 Z" id="Rectangle-19-Copy-8"></path>
                    <path d="M161.626925,33.4545455 C159.422999,33.4545455 157.636364,35.2483154 157.636364,37.4568124 L157.636364,58.1276032 C157.636364,60.3379942 159.421767,62.1298701 161.626925,62.1298701 L201.414397,62.1298701 C203.618323,62.1298701 205.404959,60.3361001 205.404959,58.1276032 L205.404959,37.4568124 C205.404959,35.2464214 203.619555,33.4545455 201.414397,33.4545455 L161.626925,33.4545455 Z" id="Rectangle-19-Copy-9"></path>
                    <path d="M214.17238,33.4545455 C211.968454,33.4545455 210.181818,35.2483154 210.181818,37.4568124 L210.181818,58.1276032 C210.181818,60.3379942 211.967222,62.1298701 214.17238,62.1298701 L253.959851,62.1298701 C256.163778,62.1298701 257.950413,60.3361001 257.950413,58.1276032 L257.950413,37.4568124 C257.950413,35.2464214 256.16501,33.4545455 253.959851,33.4545455 L214.17238,33.4545455 Z" id="Rectangle-19-Copy-10"></path>
                    <path d="M3.99056174,66.9090909 C1.78663535,66.9090909 0,68.7028609 0,70.9113578 L0,91.5821487 C0,93.7925397 1.78540344,95.5844156 3.99056174,95.5844156 L43.7780333,95.5844156 C45.9819597,95.5844156 47.768595,93.7906456 47.768595,91.5821487 L47.768595,70.9113578 C47.768595,68.7009668 45.9831916,66.9090909 43.7780333,66.9090909 L3.99056174,66.9090909 Z" id="Rectangle-19-Copy-16"></path>
                    <path d="M56.5360163,66.9090909 C54.3320899,66.9090909 52.5454545,68.7028609 52.5454545,70.9113578 L52.5454545,91.5821487 C52.5454545,93.7925397 54.330858,95.5844156 56.5360163,95.5844156 L96.3234878,95.5844156 C98.5274142,95.5844156 100.31405,93.7906456 100.31405,91.5821487 L100.31405,70.9113578 C100.31405,68.7009668 98.5286461,66.9090909 96.3234878,66.9090909 L56.5360163,66.9090909 Z" id="Rectangle-19-Copy-12"></path>
                    <path d="M109.081471,66.9090909 C106.877544,66.9090909 105.090909,68.7028609 105.090909,70.9113578 L105.090909,91.5821487 C105.090909,93.7925397 106.876313,95.5844156 109.081471,95.5844156 L148.868942,95.5844156 C151.072869,95.5844156 152.859504,93.7906456 152.859504,91.5821487 L152.859504,70.9113578 C152.859504,68.7009668 151.074101,66.9090909 148.868942,66.9090909 L109.081471,66.9090909 Z" id="Rectangle-19-Copy-13"></path>
                    <path d="M214.17238,66.9090909 C211.968454,66.9090909 210.181818,68.7028609 210.181818,70.9113578 L210.181818,91.5821487 C210.181818,93.7925397 211.967222,95.5844156 214.17238,95.5844156 L253.959851,95.5844156 C256.163778,95.5844156 257.950413,93.7906456 257.950413,91.5821487 L257.950413,70.9113578 C257.950413,68.7009668 256.16501,66.9090909 253.959851,66.9090909 L214.17238,66.9090909 Z" id="Rectangle-19-Copy-15"></path>
                    <path d="M3.99056174,100.363636 C1.78663535,100.363636 0,102.157406 0,104.365903 L0,125.036694 C0,127.247085 1.78540344,129.038961 3.99056174,129.038961 L43.7780333,129.038961 C45.9819597,129.038961 47.768595,127.245191 47.768595,125.036694 L47.768595,104.365903 C47.768595,102.155512 45.9831916,100.363636 43.7780333,100.363636 L3.99056174,100.363636 Z" id="Rectangle-19-Copy-21"></path>
                    <path d="M109.081471,100.363636 C106.877544,100.363636 105.090909,102.157406 105.090909,104.365903 L105.090909,125.036694 C105.090909,127.247085 106.876313,129.038961 109.081471,129.038961 L148.868942,129.038961 C151.072869,129.038961 152.859504,127.245191 152.859504,125.036694 L152.859504,104.365903 C152.859504,102.155512 151.074101,100.363636 148.868942,100.363636 L109.081471,100.363636 Z" id="Rectangle-19-Copy-18"></path>
                    <path d="M214.17238,100.363636 C211.968454,100.363636 210.181818,102.157406 210.181818,104.365903 L210.181818,125.036694 C210.181818,127.247085 211.967222,129.038961 214.17238,129.038961 L253.959851,129.038961 C256.163778,129.038961 257.950413,127.245191 257.950413,125.036694 L257.950413,104.365903 C257.950413,102.155512 256.16501,100.363636 253.959851,100.363636 L214.17238,100.363636 Z" id="Rectangle-19-Copy-20"></path>
                    <path d="M3.99056174,133.818182 C1.78663535,133.818182 0,135.611952 0,137.820449 L0,158.49124 C0,160.701631 1.78540344,162.493506 3.99056174,162.493506 L43.7780333,162.493506 C45.9819597,162.493506 47.768595,160.699737 47.768595,158.49124 L47.768595,137.820449 C47.768595,135.610058 45.9831916,133.818182 43.7780333,133.818182 L3.99056174,133.818182 Z" id="Rectangle-19-Copy-26"></path>
                    <path d="M214.17238,133.818182 C211.968454,133.818182 210.181818,135.611952 210.181818,137.820449 L210.181818,158.49124 C210.181818,160.701631 211.967222,162.493506 214.17238,162.493506 L253.959851,162.493506 C256.163778,162.493506 257.950413,160.699737 257.950413,158.49124 L257.950413,137.820449 C257.950413,135.610058 256.16501,133.818182 253.959851,133.818182 L214.17238,133.818182 Z" id="Rectangle-19-Copy-25"></path>
                </g>
            </g>
        </g>
    </g>
</svg>