<svg width="288" height="276" xmlns="http://www.w3.org/2000/svg" xmlns:xlink="http://www.w3.org/1999/xlink"><defs><path id="a" d="M253.527 6.773c1.784 0 3.23-1.467 3.23-3.277S255.31.218 253.527.218H3.23C1.445.218 0 1.685 0 3.496c0 1.81 1.444 3.277 3.23 3.277h250.297z"/></defs><g fill="none" fill-rule="evenodd"><path stroke="#E1E6EF" fill="#FFF" d="M0 11.678h287.806V275.12H0z"/><path stroke="#E0E5EE" fill="#F7F9FB" d="M12.322 12.306h275.484v30.707H12.322z"/><g transform="translate(21.496 50.353)"><mask id="b" fill="#fff"><use xlink:href="#a"/></mask><use fill="#D3DCE7" xlink:href="#a"/><path d="M51.338-.18c-.22.118-.098.21.134.463.455.496 2.528 2.844 2.64 3.003.103.148.126.143 0 .306-.127.162-2.75 3.03-2.75 3.03s-.256.216-.052.313c.204.096.243.086.48-.163.94-.987 2.93-3.123 2.93-3.215.002-.044.084-.136-.014-.28-.382-.553-2.124-2.436-2.83-3.18-.225-.235-.318-.393-.538-.276zm51.222 0c-.22.118-.098.21.134.463.455.496 2.528 2.844 2.64 3.003.103.148.126.143 0 .306-.127.162-2.75 3.03-2.75 3.03s-.256.216-.052.313c.205.096.243.086.48-.163.94-.987 2.93-3.123 2.93-3.215.002-.044.084-.136-.014-.28-.382-.553-2.124-2.436-2.83-3.18-.225-.235-.318-.393-.538-.276zm51.222.22c-.22.117-.098.208.134.46.455.498 2.528 2.846 2.64 3.005.103.147.126.142 0 .305-.127.163-2.75 3.03-2.75 3.03s-.256.217-.05.313c.203.097.24.086.478-.162.94-.984 2.93-3.12 2.93-3.21.002-.046.085-.138-.014-.28-.382-.555-2.123-2.437-2.83-3.18-.225-.236-.317-.395-.538-.277zm51.222-.22c-.22.118-.098.21.134.463.455.496 2.528 2.844 2.64 3.003.104.148.126.143 0 .306-.127.162-2.75 3.03-2.75 3.03s-.256.216-.05.313c.203.096.24.086.478-.163.94-.987 2.93-3.123 2.93-3.215.002-.044.085-.136-.014-.28-.382-.553-2.123-2.436-2.83-3.18-.225-.235-.317-.393-.538-.276z" fill="#FFF" mask="url(#b)"/></g><path stroke="#E1E6EF" fill="#FFF" d="M0 0h287.806v13.25H0z"/><path d="M20.81 3.888c.357-.372.855-.603 1.406-.603.732 0 1.37.408 1.71 1.013.296-.132.623-.205.967-.205 1.32 0 2.39 1.078 2.39 2.408 0 1.335-1.07 2.41-2.39 2.41-.16 0-.318-.013-.47-.043-.3.533-.87.894-1.526.894-.274 0-.534-.064-.765-.176-.303.713-1.01 1.213-1.835 1.213-.86 0-1.59-.542-1.87-1.303-.124.026-.25.04-.382.04-1.022 0-1.85-.837-1.85-1.87 0-.69.37-1.294.925-1.617-.114-.262-.178-.55-.178-.854 0-1.186.965-2.148 2.154-2.148.7 0 1.32.332 1.713.846" fill="#1AA2DD"/><path d="M0 .225h12.816v274.8H0z" fill="#16325C"/><path d="M24.93 64.537c-2.205 0-3.992 1.794-3.992 4.002v20.67c0 2.21 1.786 4 3.99 4h39.788c2.204 0 3.99-1.795 3.99-4V68.54c0-2.21-1.784-4.003-3.99-4.003H24.93zm52.544 0c-2.203 0-3.99 1.794-3.99 4.002v20.67c0 2.21 1.785 4 3.99 4h39.788c2.204 0 3.99-1.795 3.99-4V68.54c0-2.21-1.785-4.003-3.99-4.003H77.474zm52.546 0c-2.204 0-3.99 1.794-3.99 4.002v20.67c0 2.21 1.785 4 3.99 4h39.787c2.204 0 3.99-1.795 3.99-4V68.54c0-2.21-1.784-4.003-3.99-4.003H130.02zm52.545 0c-2.204 0-3.99 1.794-3.99 4.002v20.67c0 2.21 1.785 4 3.99 4h39.788c2.204 0 3.99-1.795 3.99-4V68.54c0-2.21-1.785-4.003-3.99-4.003h-39.788zm52.545 0c-2.203 0-3.99 1.794-3.99 4.002v20.67c0 2.21 1.786 4 3.99 4h39.79c2.204 0 3.99-1.795 3.99-4V68.54c0-2.21-1.785-4.003-3.99-4.003h-39.79zM24.93 97.99c-2.205 0-3.992 1.795-3.992 4.004v20.67c0 2.21 1.786 4.003 3.99 4.003h39.788c2.204 0 3.99-1.794 3.99-4.003v-20.67c0-2.21-1.784-4.003-3.99-4.003H24.93zm52.544 0c-2.203 0-3.99 1.795-3.99 4.004v20.67c0 2.21 1.785 4.003 3.99 4.003h39.788c2.204 0 3.99-1.794 3.99-4.003v-20.67c0-2.21-1.785-4.003-3.99-4.003H77.474zm52.546 0c-2.204 0-3.99 1.795-3.99 4.004v20.67c0 2.21 1.785 4.003 3.99 4.003h39.787c2.204 0 3.99-1.794 3.99-4.003v-20.67c0-2.21-1.784-4.003-3.99-4.003H130.02zm52.545 0c-2.204 0-3.99 1.795-3.99 4.004v20.67c0 2.21 1.785 4.003 3.99 4.003h39.788c2.204 0 3.99-1.794 3.99-4.003v-20.67c0-2.21-1.785-4.003-3.99-4.003h-39.788zm52.545 0c-2.203 0-3.99 1.795-3.99 4.004v20.67c0 2.21 1.786 4.003 3.99 4.003h39.79c2.204 0 3.99-1.794 3.99-4.003v-20.67c0-2.21-1.785-4.003-3.99-4.003h-39.79zM24.93 131.446c-2.205 0-3.992 1.794-3.992 4.002v20.67c0 2.21 1.786 4.003 3.99 4.003h39.788c2.204 0 3.99-1.79 3.99-4v-20.67c0-2.21-1.784-4-3.99-4H24.93zm52.544 0c-2.203 0-3.99 1.794-3.99 4.002v20.67c0 2.21 1.785 4.003 3.99 4.003h39.788c2.204 0 3.99-1.79 3.99-4v-20.67c0-2.21-1.785-4-3.99-4H77.474zm52.546 0c-2.204 0-3.99 1.794-3.99 4.002v20.67c0 2.21 1.785 4.003 3.99 4.003h39.787c2.204 0 3.99-1.79 3.99-4v-20.67c0-2.21-1.784-4-3.99-4H130.02zm105.09 0c-2.203 0-3.99 1.794-3.99 4.002v20.67c0 2.21 1.786 4.003 3.99 4.003h39.79c2.204 0 3.99-1.79 3.99-4v-20.67c0-2.21-1.785-4-3.99-4h-39.79zM24.93 164.9c-2.205 0-3.992 1.794-3.992 4.003v20.67c0 2.21 1.786 4.003 3.99 4.003h39.788c2.204 0 3.99-1.794 3.99-4.002v-20.67c0-2.212-1.784-4.004-3.99-4.004H24.93zm105.09 0c-2.204 0-3.99 1.794-3.99 4.003v20.67c0 2.21 1.785 4.003 3.99 4.003h39.787c2.204 0 3.99-1.794 3.99-4.002v-20.67c0-2.212-1.784-4.004-3.99-4.004H130.02zm105.09 0c-2.203 0-3.99 1.794-3.99 4.003v20.67c0 2.21 1.786 4.003 3.99 4.003h39.79c2.204 0 3.99-1.794 3.99-4.002v-20.67c0-2.212-1.785-4.004-3.99-4.004h-39.79zM24.93 198.355c-2.205 0-3.992 1.794-3.992 4.002v20.67c0 2.21 1.786 4.003 3.99 4.003h39.788c2.204 0 3.99-1.793 3.99-4.002v-20.67c0-2.21-1.784-4.003-3.99-4.003H24.93zm210.18 0c-2.203 0-3.99 1.794-3.99 4.002v20.67c0 2.21 1.786 4.003 3.99 4.003h39.79c2.204 0 3.99-1.793 3.99-4.002v-20.67c0-2.21-1.785-4.003-3.99-4.003h-39.79z" stroke="#E0E5EE" fill="#FFF"/></g></svg>