<?xml version="1.0" encoding="UTF-8" standalone="no"?>
<svg width="287px" height="275px" viewBox="0 0 287 275" version="1.1" xmlns="http://www.w3.org/2000/svg" xmlns:xlink="http://www.w3.org/1999/xlink" xmlns:sketch="http://www.bohemiancoding.com/sketch/ns">
    <!-- Generator: Sketch 3.3.3 (12081) - http://www.bohemiancoding.com/sketch -->
    <title>list copy + Loading ... Copy + Imported Layers Copy 3</title>
    <desc>Created with Sketch.</desc>
    <defs></defs>
    <g id="Page-1" stroke="none" stroke-width="1" fill="none" fill-rule="evenodd" sketch:type="MSPage">
        <g id="Loading" sketch:type="MSArtboardGroup" transform="translate(-625.000000, -1186.000000)">
            <g id="list-copy-+-Loading-...-Copy-+-Imported-Layers-Copy-3" sketch:type="MSLayerGroup" transform="translate(625.000000, 1186.000000)">
                <g id="list-copy" sketch:type="MSShapeGroup">
                    <rect id="bkgd" stroke="#E1E6EF" fill="#FFFFFF" x="0" y="11.6502034" width="286.747837" height="262.820968"></rect>
                    <rect id="Rectangle-553" stroke="#E0E5EE" fill="#F7F9FB" x="12.2766658" y="12.2766658" width="274.471171" height="31.5685692"></rect>
                    <g id="Component---Top-Bar-Copy-12">
                        <rect id="Background" stroke="#E1E6EF" fill="#FFFFFF" x="0" y="0" width="286.747837" height="13.2185"></rect>
                        <path d="M20.7326568,3.8787883 C21.0890386,3.5075133 21.5851381,3.2771449 22.1338749,3.2771449 C22.8632079,3.2771449 23.4996452,3.68387106 23.8384527,4.28775955 C24.1330679,4.15613269 24.4590047,4.08287836 24.8019599,4.08287836 C26.1175087,4.08287836 27.1840457,5.15883604 27.1840457,6.48613775 C27.1840457,7.81346083 26.1175087,8.88939713 24.8019599,8.88939713 C24.6413326,8.88939713 24.4844254,8.87327519 24.3326922,8.84265634 C24.0343355,9.37493691 23.4655229,9.73460154 22.8128582,9.73460154 C22.5396657,9.73460154 22.2811826,9.67154637 22.0510278,9.55924873 C21.7485661,10.2709661 21.0436063,10.7699764 20.2222541,10.7699764 C19.3667369,10.7699764 18.6375749,10.2286727 18.3578401,9.46944482 C18.2354829,9.49529552 18.1087214,9.50891578 17.9787529,9.50891578 C16.9601924,9.50891578 16.1345215,8.67455198 16.1345215,7.64529233 C16.1345215,6.95549144 16.5054203,6.35324935 17.0567227,6.03100301 C16.9431954,5.76975917 16.8801888,5.48157417 16.8801888,5.17861428 C16.8801888,3.99482777 17.8410021,3.03518753 19.0262618,3.03518753 C19.7221352,3.03518753 20.3405278,3.36605077 20.7326568,3.8787883" id="Fill-1-Copy" fill="#1AA2DD"></path>
                    </g>
                    <path d="M12.7151182,60.9448767 L285.839622,60.9448767" id="Line" stroke="#E1E6EF" stroke-linecap="square"></path>
                    <path d="M12.7151182,78.4829707 L285.839622,78.4829707" id="Line-Copy-4" stroke="#E1E6EF" stroke-linecap="square"></path>
                    <path d="M12.7151182,96.0210647 L285.839622,96.0210647" id="Line-Copy-5" stroke="#E1E6EF" stroke-linecap="square"></path>
                    <path d="M12.7151182,113.559159 L285.839622,113.559159" id="Line-Copy-7" stroke="#E1E6EF" stroke-linecap="square"></path>
                    <path d="M12.7151182,131.097253 L285.839622,131.097253" id="Line-Copy-8" stroke="#E1E6EF" stroke-linecap="square"></path>
                    <path d="M12.7151182,148.635347 L285.839622,148.635347" id="Line-Copy-9" stroke="#E1E6EF" stroke-linecap="square"></path>
                    <path d="M12.7151182,166.173441 L285.839622,166.173441" id="Line-Copy-10" stroke="#E1E6EF" stroke-linecap="square"></path>
                    <path d="M12.7151182,183.711535 L285.839622,183.711535" id="Line-Copy-11" stroke="#E1E6EF" stroke-linecap="square"></path>
                    <path d="M12.7151182,201.249629 L285.839622,201.249629" id="Line-Copy-12" stroke="#E1E6EF" stroke-linecap="square"></path>
                    <path d="M12.7151182,218.787723 L285.839622,218.787723" id="Line-Copy-13" stroke="#E1E6EF" stroke-linecap="square"></path>
                    <g id="Component---Left-Bar---Expanded-Copy-16" transform="translate(0.000000, 0.224042)" fill="#16325C">
                        <rect id="BG" x="0" y="0" width="12.7692396" height="274.149638"></rect>
                    </g>
                </g>
                <text id="Loading-...-Copy" sketch:type="MSTextLayer" font-family="Salesforce Sans" font-size="8" font-weight="normal" fill="#16325C">
                    <tspan x="138" y="213">Loading ...</tspan>
                </text>
                <g id="Imported-Layers-Copy-3" transform="translate(125.000000, 206.000000)" fill="#0070D2" sketch:type="MSShapeGroup">
                    <path d="M4.66385455,8.5968871 C4.45192727,8.96124194 3.98356364,9.0855 3.61847273,8.874 C3.25367273,8.66264516 3.12872727,8.19537097 3.34065455,7.83058065 C3.55287273,7.46637097 4.02094545,7.34240323 4.38603636,7.55390323 C4.75156364,7.7651129 4.87578182,8.23296774 4.66385455,8.5968871" id="Fill-1"></path>
                    <path d="M4.67476364,1.20948387 C4.46283636,1.57441935 3.99461818,1.6983871 3.62894545,1.48659677 C3.26443636,1.27567742 3.13978182,0.807677419 3.35170909,0.443322581 C3.56378182,0.0791129032 4.032,-0.045 4.39723636,0.166354839 C4.76203636,0.377709677 4.8864,0.844983871 4.67476364,1.20948387" id="Fill-2"></path>
                    <path d="M1.45527273,3.06841935 C1.24290909,3.43248387 0.774690909,3.55717742 0.409163636,3.34567742 C0.0443636364,3.1338871 -0.0801454545,2.6666129 0.131927273,2.30240323 C0.343563636,1.93790323 0.811781818,1.81379032 1.17701818,2.025 C1.54210909,2.2365 1.66661818,2.70420968 1.45527273,3.06841935" id="Fill-3"></path>
                    <path d="M1.48232727,6.76335484 C1.27098182,7.128 0.802181818,7.25225806 0.436945455,7.0406129 C0.072,6.82940323 -0.0522181818,6.36154839 0.159709091,5.99733871 C0.371345455,5.63298387 0.839418182,5.50872581 1.20465455,5.72008065 C1.57018182,5.93158065 1.69454545,6.39914516 1.48232727,6.76335484" id="Fill-4"></path>
                    <path d="M7.87534545,3.06841935 C7.66341818,3.43248387 7.1952,3.55717742 6.82952727,3.34567742 C6.46472727,3.1338871 6.34036364,2.6666129 6.55229091,2.30240323 C6.76392727,1.93790323 7.23214545,1.81379032 7.59709091,2.025 C7.96261818,2.2365 8.08698182,2.70420968 7.87534545,3.06841935" id="Fill-5"></path>
                    <path d="M7.87505455,6.76335484 C7.66341818,7.12770968 7.19461818,7.25196774 6.82952727,7.04032258 C6.46472727,6.8291129 6.34036364,6.36154839 6.55229091,5.99704839 C6.76392727,5.63298387 7.23214545,5.50872581 7.59709091,5.72008065 C7.96261818,5.93158065 8.08698182,6.39885484 7.87505455,6.76335484" id="Fill-6"></path>
                </g>
            </g>
        </g>
    </g>
</svg>