<svg width="287" height="275" xmlns="http://www.w3.org/2000/svg"><g fill="none" fill-rule="evenodd"><path stroke="#E1E6EF" fill-opacity=".2" fill="#E1E6EF" d="M0 11.635h286.81v262.49H0z"/><path stroke="#E1E6EF" fill="#FFF" d="M0 0h286.81v13.202H0z"/><path d="M20.737 3.874c.357-.37.853-.6 1.402-.6.725 0 1.362.405 1.7 1.008.295-.13.62-.204.964-.204 1.316 0 2.383 1.074 2.383 2.4 0 1.326-1.068 2.4-2.384 2.4-.16 0-.317-.016-.47-.047-.297.536-.866.895-1.52.895-.272 0-.53-.063-.76-.175-.304.71-1.01 1.21-1.83 1.21-.856 0-1.585-.54-1.865-1.3-.123.025-.25.04-.38.04-1.018 0-1.844-.834-1.844-1.86 0-.69.37-1.293.922-1.615-.114-.26-.177-.548-.177-.85 0-1.183.96-2.142 2.146-2.142.695 0 1.314.332 1.706.844" fill="#1AA2DD"/><path d="M0 .224h12.772v273.803H0z" fill="#16325C"/><path d="M77.943 65.017c-2.206 0-3.994 1.79-3.994 3.993v112.015c0 2.205 1.794 3.992 3.99 3.992h145.01c2.207 0 3.996-1.79 3.996-3.992V69.01c0-2.205-1.8-3.993-3.996-3.993H77.945z" stroke="#E0E5EE" fill="#FFF"/><path d="M151.91 133.15c-.45.768-1.445 1.03-2.22.584-.776-.446-1.04-1.433-.59-2.203.45-.765 1.445-1.03 2.22-.58.777.446 1.04 1.434.59 2.2m.024-15.595c-.45.77-1.445 1.032-2.222.585-.775-.446-1.04-1.434-.59-2.203.45-.77 1.446-1.03 2.222-.585.775.448 1.04 1.435.59 2.204m-6.842 3.924c-.45.768-1.446 1.032-2.223.585-.78-.447-1.04-1.433-.59-2.202.45-.77 1.442-1.03 2.22-.584.774.444 1.04 1.432.59 2.2m.06 7.8c-.45.77-1.447 1.03-2.22.585-.78-.446-1.04-1.434-.59-2.203.45-.767 1.442-1.03 2.22-.583.775.445 1.04 1.432.59 2.2m13.583-7.8c-.45.767-1.445 1.03-2.222.584-.774-.447-1.04-1.433-.59-2.202.45-.77 1.446-1.03 2.22-.584.78.445 1.043 1.433.593 2.202m0 7.798c-.45.77-1.446 1.032-2.22.585-.777-.446-1.04-1.433-.59-2.203.45-.768 1.443-1.03 2.22-.584.776.446 1.04 1.433.59 2.202" fill="#0070D2"/></g></svg>