<svg width="287" height="275" xmlns="http://www.w3.org/2000/svg"><g fill="none" fill-rule="evenodd"><path stroke="#E1E6EF" fill="#FFF" d="M0 11.65h286.748v262.82H0z"/><path stroke="#E0E5EE" fill="#F7F9FB" d="M12.277 12.277h274.47v31.57H12.278z"/><path stroke="#E1E6EF" fill="#FFF" d="M0 0h286.748v13.22H0z"/><path d="M20.733 3.88c.356-.372.852-.603 1.4-.603.73 0 1.367.407 1.705 1.01.295-.13.62-.204.964-.204 1.316 0 2.382 1.076 2.382 2.403S26.118 8.89 24.802 8.89c-.16 0-.318-.017-.47-.047-.298.532-.866.892-1.52.892-.272 0-.53-.063-.76-.176-.303.71-1.008 1.21-1.83 1.21-.855 0-1.584-.54-1.864-1.3-.123.025-.25.04-.38.04-1.018 0-1.843-.835-1.843-1.865 0-.69.37-1.292.922-1.614-.114-.26-.177-.548-.177-.85 0-1.185.96-2.145 2.146-2.145.696 0 1.315.33 1.707.844" fill="#1AA2DD"/><path d="M12.715 60.945H285.84M12.715 78.483H285.84M12.715 96.02H285.84M12.715 113.56H285.84M12.715 131.097H285.84M12.715 148.635H285.84M12.715 166.173H285.84M12.715 183.712H285.84M12.715 201.25H285.84M12.715 218.788H285.84" stroke="#E1E6EF" stroke-linecap="square"/><g fill="#16325C"><path d="M0 .224h12.77v274.15H0z"/></g><text font-family="Salesforce Sans" font-size="8" fill="#16325C"><tspan x="138" y="213">Loading ...</tspan></text><g fill="#0070D2"><path d="M129.664 214.597c-.212.364-.68.488-1.046.277-.364-.21-.49-.68-.277-1.043.213-.364.68-.488 1.046-.276.366.21.49.68.278 1.043M129.675 207.21c-.212.364-.68.488-1.046.277-.366-.21-.49-.68-.278-1.044.212-.364.68-.488 1.045-.277.365.212.49.68.278 1.043M126.455 209.068c-.212.364-.68.49-1.046.278-.366-.212-.49-.68-.278-1.044.212-.364.68-.488 1.045-.277.365.21.49.68.278 1.043M126.482 212.763c-.21.365-.68.49-1.045.278-.365-.21-.49-.678-.277-1.043.21-.364.68-.488 1.045-.277.365.212.49.68.277 1.043M132.875 209.068c-.212.364-.68.49-1.045.278-.365-.212-.49-.68-.278-1.044.212-.364.68-.488 1.045-.277.366.21.49.68.278 1.043M132.875 212.763c-.212.365-.68.49-1.045.277-.365-.21-.49-.678-.278-1.043.212-.364.68-.488 1.045-.277.366.212.49.68.278 1.043"/></g></g></svg>