<svg width="287" height="275" xmlns="http://www.w3.org/2000/svg"><g fill="none" fill-rule="evenodd"><path stroke="#E1E6EF" fill="#FFF" d="M0 11.65h286.748v262.82H0z"/><path stroke="#E0E5EE" fill="#F7F9FB" d="M12.277 12.277h274.47v31.57H12.277z"/><path stroke="#E1E6EF" fill="#FFF" d="M0 0h286.748v13.22H0z"/><path d="M20.733 3.88c.356-.372.852-.603 1.4-.603.73 0 1.367.407 1.705 1.01.295-.13.62-.204.964-.204 1.316 0 2.382 1.076 2.382 2.403S26.118 8.89 24.802 8.89c-.16 0-.318-.017-.47-.047-.298.532-.866.892-1.52.892-.272 0-.53-.063-.76-.176-.303.71-1.008 1.21-1.83 1.21-.855 0-1.584-.54-1.864-1.3-.123.022-.25.04-.38.04-1.018 0-1.843-.838-1.843-1.868 0-.69.37-1.292.922-1.614-.114-.26-.177-.55-.177-.85 0-1.186.96-2.146 2.146-2.146.696 0 1.315.33 1.707.844" fill="#1AA2DD"/><path d="M12.715 60.945H285.84M12.715 78.483H285.84M12.715 96.02H285.84M12.715 113.56H285.84M12.715 131.097H285.84M12.715 148.635H285.84M12.715 166.173H285.84m-273.125 17.54H285.84M12.715 201.25H285.84M12.715 218.788H285.84" stroke="#E1E6EF" stroke-linecap="square"/><path d="M0 .224h12.77v274.15H0z" fill="#16325C"/><text font-family="Salesforce Sans" font-size="8" fill="#16325C"><tspan x="138" y="213">Loading ...</tspan></text><path d="M129.664 214.597c-.212.364-.68.488-1.046.277-.364-.21-.49-.68-.277-1.043.216-.36.68-.485 1.05-.273.365.21.49.68.277 1.043m.01-7.39c-.212.365-.68.49-1.046.278-.366-.21-.49-.68-.28-1.044.214-.364.68-.488 1.047-.277.365.212.49.68.278 1.043m-3.22 1.858c-.21.364-.68.49-1.045.278-.368-.212-.49-.68-.28-1.044.212-.364.68-.488 1.045-.277.365.21.49.68.278 1.043m.028 3.695c-.21.365-.68.49-1.043.278-.365-.21-.49-.675-.277-1.04.21-.364.68-.49 1.044-.277.365.213.49.68.277 1.044m6.395-3.696c-.212.365-.68.49-1.045.28-.366-.213-.49-.68-.28-1.045.213-.364.68-.488 1.046-.277.366.21.49.68.278 1.043m0 3.696c-.212.365-.68.49-1.045.277-.367-.21-.49-.678-.28-1.043.212-.365.68-.49 1.045-.278.366.212.49.68.278 1.043" fill="#0070D2"/></g></svg>