<svg width="287" height="275" xmlns="http://www.w3.org/2000/svg"><g fill="none" fill-rule="evenodd"><path stroke="#E1E6EF" fill="#FFF" d="M0 11.65h286.748v262.82H0z"/><path stroke="#E0E5EE" fill="#F7F9FB" d="M12.277 12.277h274.47V68.4H12.277z"/><path stroke="#E1E6EF" fill="#FFF" d="M0 0h286.748v13.22H0z"/><path d="M20.733 3.88c.356-.372.852-.603 1.4-.603.73 0 1.367.407 1.705 1.01.295-.13.62-.204.964-.204 1.316 0 2.382 1.076 2.382 2.403S26.118 8.89 24.802 8.89c-.16 0-.318-.017-.47-.047-.298.532-.866.892-1.52.892-.272 0-.53-.063-.76-.176-.303.71-1.008 1.21-1.83 1.21-.855 0-1.584-.54-1.864-1.3-.123.022-.25.04-.38.04-1.018 0-1.843-.838-1.843-1.868 0-.69.37-1.292.922-1.614-.114-.26-.177-.55-.177-.85 0-1.186.96-2.146 2.146-2.146.696 0 1.315.33 1.707.844" fill="#1AA2DD"/><path d="M0 .224h12.77v274.15H0z" fill="#16325C"/><g transform="translate(200.5 90.683)"><rect stroke="#E1E6EF" fill="#FFF" width="80.648" height="71" rx="2"/><path d="M41.91 44.15c-.45.768-1.445 1.03-2.22.584-.776-.446-1.04-1.433-.59-2.203.45-.765 1.445-1.03 2.22-.58.777.446 1.04 1.434.59 2.2m.024-15.595c-.45.77-1.445 1.032-2.222.585-.775-.446-1.04-1.434-.59-2.203.45-.77 1.446-1.03 2.222-.585.775.448 1.04 1.435.59 2.204m-6.842 3.924c-.45.768-1.446 1.032-2.223.585-.78-.447-1.04-1.433-.59-2.202.45-.77 1.442-1.03 2.22-.584.774.445 1.04 1.432.59 2.2m.06 7.8c-.45.77-1.447 1.03-2.22.585-.78-.446-1.04-1.434-.59-2.203.45-.767 1.442-1.03 2.22-.583.775.445 1.04 1.432.59 2.2m13.583-7.8c-.45.767-1.445 1.03-2.222.584-.774-.447-1.04-1.433-.59-2.202.45-.77 1.446-1.03 2.22-.584.78.446 1.043 1.433.593 2.202m0 7.798c-.45.77-1.446 1.032-2.22.585-.777-.446-1.04-1.433-.59-2.203.45-.768 1.443-1.03 2.22-.584.776.446 1.04 1.433.59 2.202" fill="#0070D2"/><rect stroke="#E1E6EF" fill="#FFF" y="77" width="80.648" height="71" rx="2"/><rect stroke="#E1E6EF" fill="#FFF" y="155" width="80.648" height="29" rx="2"/></g><path d="M195.11 67.943v206.09" stroke="#E1E6EF" stroke-linecap="square"/><path d="M22.48 90.608c-2.208 0-3.998 1.79-3.998 3.99v26.22c0 2.203 1.797 3.99 4 3.99H184.74c2.207 0 3.997-1.79 3.997-3.99v-26.22c0-2.204-1.797-3.99-4-3.99H22.482zm0 40.338c-2.208 0-3.998 1.798-3.998 3.996v39.36c0 2.207 1.797 3.996 4 3.996H184.74c2.207 0 3.997-1.798 3.997-3.996v-39.36c0-2.207-1.797-3.996-4-3.996H22.482zm0 53.49c-2.208 0-3.998 1.783-3.998 4v61.28c0 2.206 1.797 3.996 4 3.996H184.74c2.207 0 3.997-1.782 3.997-3.998v-61.28c0-2.207-1.797-3.997-4-3.997H22.482z" stroke="#E0E5EE" fill="#FFF"/></g></svg>