<?xml version="1.0" encoding="UTF-8" standalone="no"?>
<svg width="287px" height="275px" viewBox="0 0 287 275" version="1.1" xmlns="http://www.w3.org/2000/svg" xmlns:xlink="http://www.w3.org/1999/xlink" xmlns:sketch="http://www.bohemiancoding.com/sketch/ns">
    <!-- Generator: Sketch 3.3.3 (12081) - http://www.bohemiancoding.com/sketch -->
    <title>record copy 7</title>
    <desc>Created with Sketch.</desc>
    <defs></defs>
    <g id="Page-1" stroke="none" stroke-width="1" fill="none" fill-rule="evenodd" sketch:type="MSPage">
        <g id="Loading" sketch:type="MSArtboardGroup" transform="translate(-627.000000, -1536.000000)">
            <g id="record-copy-7" sketch:type="MSLayerGroup" transform="translate(627.000000, 1536.000000)">
                <rect id="bkgd" stroke="#E1E6EF" fill-opacity="0.2" fill="#E1E6EF" sketch:type="MSShapeGroup" x="0" y="11.635476" width="286.809917" height="262.488728"></rect>
                <text id="Loading-...-Copy-2" sketch:type="MSTextLayer" font-family="Salesforce Sans" font-size="8" font-weight="normal" fill="#16325C">
                    <tspan x="136" y="133">Loading ...</tspan>
                </text>
                <g id="Imported-Layers-Copy-6" transform="translate(123.000000, 126.000000)" fill="#0070D2" sketch:type="MSShapeGroup">
                    <path d="M4.66385455,8.5968871 C4.45192727,8.96124194 3.98356364,9.0855 3.61847273,8.874 C3.25367273,8.66264516 3.12872727,8.19537097 3.34065455,7.83058065 C3.55287273,7.46637097 4.02094545,7.34240323 4.38603636,7.55390323 C4.75156364,7.7651129 4.87578182,8.23296774 4.66385455,8.5968871" id="Fill-1"></path>
                    <path d="M4.67476364,1.20948387 C4.46283636,1.57441935 3.99461818,1.6983871 3.62894545,1.48659677 C3.26443636,1.27567742 3.13978182,0.807677419 3.35170909,0.443322581 C3.56378182,0.0791129032 4.032,-0.045 4.39723636,0.166354839 C4.76203636,0.377709677 4.8864,0.844983871 4.67476364,1.20948387" id="Fill-2"></path>
                    <path d="M1.45527273,3.06841935 C1.24290909,3.43248387 0.774690909,3.55717742 0.409163636,3.34567742 C0.0443636364,3.1338871 -0.0801454545,2.6666129 0.131927273,2.30240323 C0.343563636,1.93790323 0.811781818,1.81379032 1.17701818,2.025 C1.54210909,2.2365 1.66661818,2.70420968 1.45527273,3.06841935" id="Fill-3"></path>
                    <path d="M1.48232727,6.76335484 C1.27098182,7.128 0.802181818,7.25225806 0.436945455,7.0406129 C0.072,6.82940323 -0.0522181818,6.36154839 0.159709091,5.99733871 C0.371345455,5.63298387 0.839418182,5.50872581 1.20465455,5.72008065 C1.57018182,5.93158065 1.69454545,6.39914516 1.48232727,6.76335484" id="Fill-4"></path>
                    <path d="M7.87534545,3.06841935 C7.66341818,3.43248387 7.1952,3.55717742 6.82952727,3.34567742 C6.46472727,3.1338871 6.34036364,2.6666129 6.55229091,2.30240323 C6.76392727,1.93790323 7.23214545,1.81379032 7.59709091,2.025 C7.96261818,2.2365 8.08698182,2.70420968 7.87534545,3.06841935" id="Fill-5"></path>
                    <path d="M7.87505455,6.76335484 C7.66341818,7.12770968 7.19461818,7.25196774 6.82952727,7.04032258 C6.46472727,6.8291129 6.34036364,6.36154839 6.55229091,5.99704839 C6.76392727,5.63298387 7.23214545,5.50872581 7.59709091,5.72008065 C7.96261818,5.93158065 8.08698182,6.39885484 7.87505455,6.76335484" id="Fill-6"></path>
                </g>
                <g id="Component---Top-Bar-Copy-12" sketch:type="MSShapeGroup">
                    <rect id="Background" stroke="#E1E6EF" fill="#FFFFFF" x="0" y="0" width="286.809917" height="13.2017901"></rect>
                    <path d="M20.7371454,3.873885 C21.0936043,3.50307934 21.5898112,3.27300216 22.1386669,3.27300216 C22.8681578,3.27300216 23.5047328,3.67921417 23.8436137,4.28233926 C24.1382927,4.15087879 24.4643,4.07771707 24.8073295,4.07771707 C26.1231631,4.07771707 27.189931,5.1523146 27.189931,6.47793842 C27.189931,7.8035836 26.1231631,8.87815977 24.8073295,8.87815977 C24.6466674,8.87815977 24.4897262,8.86205821 24.3379601,8.83147806 C24.0395389,9.36308576 23.4706031,9.72229573 22.8177972,9.72229573 C22.5445455,9.72229573 22.2860064,9.65932027 22.0558018,9.54716459 C21.7532747,10.2579822 21.0481622,10.7563618 20.2266322,10.7563618 C19.3709297,10.7563618 18.6416099,10.2157423 18.3618146,9.45747421 C18.2394308,9.48329223 18.1126419,9.49689527 17.9826452,9.49689527 C16.9638643,9.49689527 16.1380146,8.66358621 16.1380146,7.63562768 C16.1380146,6.94669879 16.5089937,6.34521801 17.0604155,6.02337903 C16.9468636,5.76246544 16.8838433,5.47464474 16.8838433,5.17206784 C16.8838433,3.98977779 17.8448646,3.03135065 19.0303809,3.03135065 C19.726405,3.03135065 20.3449315,3.36179564 20.7371454,3.873885" id="Fill-1-Copy" fill="#1AA2DD"></path>
                </g>
                <g id="Component---Left-Bar---Expanded-Copy-16" transform="translate(0.000000, 0.223759)" fill="#16325C" sketch:type="MSShapeGroup">
                    <rect id="BG" x="0" y="0" width="12.7720041" height="273.803077"></rect>
                </g>
            </g>
        </g>
    </g>
</svg>