<svg width="287" height="275" xmlns="http://www.w3.org/2000/svg"><defs><linearGradient x1="50%" y1="0%" x2="50%" y2="100%" id="a"><stop stop-color="#FFF" stop-opacity="0" offset="0%"/><stop stop-color="#FFF" offset="100%"/></linearGradient></defs><g fill="none" fill-rule="evenodd"><path stroke="#E1E6EF" fill="#FFF" d="M0 11.65h286.748v262.82H0z"/><path stroke="#E0E5EE" fill="#F7F9FB" d="M12.277 12.277h274.47V68.4H12.277z"/><path stroke="#E1E6EF" fill="#FFF" d="M0 0h286.748v13.22H0z"/><path d="M20.733 3.88c.356-.372.852-.603 1.4-.603.73 0 1.367.407 1.705 1.01.295-.13.62-.204.964-.204 1.316 0 2.382 1.076 2.382 2.403S26.118 8.89 24.802 8.89c-.16 0-.318-.017-.47-.047-.298.532-.866.892-1.52.892-.272 0-.53-.063-.76-.176-.303.71-1.008 1.21-1.83 1.21-.855 0-1.584-.54-1.864-1.3-.123.022-.25.04-.38.04-1.018 0-1.843-.838-1.843-1.868 0-.69.37-1.292.922-1.614-.114-.26-.177-.55-.177-.85 0-1.186.96-2.146 2.146-2.146.696 0 1.315.33 1.707.844" fill="#1AA2DD"/><path d="M0 .224h12.77v274.15H0z" fill="#16325C"/><g transform="translate(200.5 90.683)" stroke="#E1E6EF" fill="#FFF"><rect width="80.648" height="26.213" rx="2"/><rect y="32" width="80.648" height="26.213" rx="2"/><rect y="64" width="80.648" height="26.213" rx="2"/></g><path d="M195.11 67.943v206.09" stroke="#E1E6EF" stroke-linecap="square"/><g transform="translate(18.482 90.608)"><path d="M4 0C1.79 0 0 1.79 0 3.99v26.22c0 2.203 1.797 3.99 4 3.99h162.257c2.21 0 4-1.79 4-3.99V3.99c0-2.204-1.797-3.99-4-3.99H4z" stroke="#E0E5EE" fill="#FFF"/><rect fill="#E0E5EE" x="13" y="51" width="59.566" height="1.875" rx="4"/><rect fill="#E0E5EE" x="13.083" y="61" width="138.95" height="1.875" rx="4"/><rect fill="#E0E5EE" y="48" width="9.164" height="9.157" rx="2"/><g transform="translate(0 74)" fill="#E0E5EE"><rect x="12.938" y="3.565" width="59.566" height="1.875" rx="4"/><rect x="12.938" y="13.565" width="138.95" height="1.875" rx="4"/><rect width="9.164" height="9.157" rx="2"/></g><g transform="translate(0 101)" fill="#E0E5EE"><rect x="12.938" y="3.565" width="59.566" height="1.875" rx="4"/><rect x="12.938" y="13.565" width="138.95" height="1.875" rx="4"/><rect width="9.164" height="9.157" rx="2"/></g><g transform="translate(0 128)" fill="#E0E5EE"><rect x="12.938" y="3.565" width="59.566" height="1.875" rx="4"/><rect x="12.938" y="13.565" width="138.95" height="1.875" rx="4"/><rect width="9.164" height="9.157" rx="2"/></g><g transform="translate(0 154)" fill="#E0E5EE"><rect x="12.938" y="3.565" width="59.566" height="1.875" rx="4"/><rect x="12.938" y="13.565" width="138.95" height="1.875" rx="4"/><rect width="9.164" height="9.157" rx="2"/></g></g><path fill="url(#a)" d="M13 44h181v229H13z"/></g></svg>