<svg width="345" height="331" xmlns="http://www.w3.org/2000/svg" xmlns:xlink="http://www.w3.org/1999/xlink"><defs><path id="a" d="M0 0h56.81v31.51H0z"/><path id="c" d="M10.64 95.977l18.535-8.887 12.385-2.155 8.773-.808 21.933-2.693 12.386-.808 6.193-1.616 14.19-1.885 7.742-2.694 12.386-9.153"/></defs><g fill="none" fill-rule="evenodd"><path stroke="#E1E6EF" fill="#FFF" d="M13 14.005h332V330.46H13z"/><path stroke="#E1E6EF" d="M0 0h345v15H0z"/><path d="M28.137 4.1c.398-.414.952-.67 1.565-.67.815 0 1.526.453 1.904 1.127.33-.147.693-.23 1.076-.23 1.47 0 2.662 1.202 2.662 2.684 0 1.485-1.192 2.686-2.662 2.686-.18 0-.354-.018-.524-.052-.333.595-.968.997-1.698.997-.305 0-.594-.07-.85-.196-.338.795-1.126 1.352-2.044 1.352-.955 0-1.77-.604-2.082-1.45-.137.027-.28.043-.424.043-1.138 0-2.06-.933-2.06-2.08 0-.77.414-1.444 1.03-1.803-.127-.292-.197-.614-.197-.952 0-1.32 1.073-2.39 2.397-2.39.778 0 1.47.368 1.907.94" fill="#1AA2DD"/><path d="M0 .27h15.363v330H0z" fill="#16325C"/><g transform="translate(241.904 33.53)"><rect stroke="#E1E6EF" fill="#FFF" width="97.031" height="31.511" rx="2"/><rect fill="#D3DCE7" x="14.555" y="15.082" width="46.09" height="2.424" rx="4"/><rect fill="#D3DDE7" x="14.555" y="5.656" width="62.531" height="1.616" rx="4"/><rect fill="#D3DDE7" x="14.555" y="20.738" width="51.48" height="1.616" rx="4"/><rect fill="#E1E6EF" x=".27" y=".269" width="2.965" height="30.972" rx="1"/><rect width="6.469" height="6.464" rx="2" transform="translate(2.156 12.928)" stroke="#FFF" stroke-width="2" fill="#D3DCE7"/></g><g transform="translate(241.904 138.298)"><rect stroke="#E1E6EF" fill="#FFF" width="97.031" height="31.511" rx="2"/><rect fill="#D3DCE7" x="14.555" y="15.082" width="46.09" height="2.424" rx="4"/><rect fill="#D3DDE7" x="14.555" y="5.656" width="62.531" height="1.616" rx="4"/><rect fill="#D3DDE7" x="14.555" y="20.738" width="51.48" height="1.616" rx="4"/><rect fill="#E1E6EF" x=".27" y=".269" width="2.965" height="30.972" rx="1"/><rect width="6.469" height="6.464" rx="2" transform="translate(2.156 12.928)" stroke="#FFF" stroke-width="2" fill="#D3DCE7"/></g><g transform="translate(241.904 68.543)"><rect stroke="#E1E6EF" fill="#FFF" width="97.031" height="31.511" rx="2"/><rect fill="#D3DCE7" x="14.555" y="15.082" width="46.09" height="2.424" rx="4"/><rect fill="#D3DCE7" x="14.555" y="5.656" width="62.531" height="1.616" rx="4"/><rect fill="#D3DDE7" x="14.555" y="20.738" width="51.48" height="1.616" rx="4"/><rect fill="#E1E6EF" x=".27" y=".269" width="2.965" height="30.972" rx="1"/><rect width="6.469" height="6.464" rx="2" transform="translate(2.156 12.928)" stroke="#FFF" stroke-width="2" fill="#D3DCE7"/></g><g transform="translate(241.904 173.31)"><rect stroke="#E1E6EF" fill="#FFF" width="97.031" height="31.511" rx="2"/><rect fill="#D3DCE7" x="14.555" y="15.082" width="46.09" height="2.424" rx="4"/><rect fill="#D3DDE7" x="14.555" y="5.656" width="62.531" height="1.616" rx="4"/><rect fill="#D3DDE7" x="14.555" y="20.738" width="51.48" height="1.616" rx="4"/><rect fill="#E1E6EF" x=".27" y=".269" width="2.965" height="30.972" rx="1"/><rect width="6.469" height="6.464" rx="2" transform="translate(2.156 12.928)" stroke="#FFF" stroke-width="2" fill="#D3DCE7"/></g><g transform="translate(241.23 242.93)"><rect stroke="#E1E6EF" fill="#FFF" width="97.031" height="31.511" rx="2"/><rect fill="#D3DCE7" x="14.555" y="15.082" width="46.09" height="2.424" rx="4"/><rect fill="#D3DDE7" x="14.555" y="5.656" width="62.531" height="1.616" rx="4"/><rect fill="#D3DDE7" x="14.555" y="20.738" width="51.48" height="1.616" rx="4"/><rect fill="#E1E6EF" x=".27" y=".269" width="2.965" height="30.972" rx="1"/><rect width="6.469" height="6.464" rx="2" transform="translate(2.156 12.928)" stroke="#FFF" stroke-width="2" fill="#D3DCE7"/></g><g transform="translate(241.904 103.286)"><rect stroke="#E1E6EF" fill="#FFF" width="97.031" height="31.511" rx="2"/><rect fill="#D3DCE7" x="14.555" y="15.082" width="46.09" height="2.424" rx="4"/><rect fill="#D3DDE7" x="14.555" y="5.656" width="62.531" height="1.616" rx="4"/><rect fill="#D3DDE7" x="14.555" y="20.738" width="51.48" height="1.616" rx="4"/><rect fill="#E1E6EF" x=".27" y=".269" width="2.965" height="30.972" rx="1"/><rect width="6.469" height="6.464" rx="2" transform="translate(2.156 12.928)" stroke="#FFF" stroke-width="2" fill="#D3DCE7"/></g><g transform="translate(241.904 208.053)"><rect stroke="#E1E6EF" fill="#FFF" width="97.031" height="31.511" rx="2"/><rect fill="#D3DCE7" x="14.555" y="15.082" width="46.09" height="2.424" rx="4"/><rect fill="#D3DDE7" x="14.555" y="5.656" width="62.531" height="1.616" rx="4"/><rect fill="#D3DDE7" x="14.555" y="20.738" width="51.48" height="1.616" rx="4"/><rect fill="#E1E6EF" x=".27" y=".269" width="2.965" height="30.972" rx="1"/><rect width="6.469" height="6.464" rx="2" transform="translate(2.156 12.928)" stroke="#FFF" stroke-width="2" fill="#D3DCE7"/></g><g transform="translate(241.23 277.674)"><rect stroke="#E1E6EF" fill="#FFF" width="97.031" height="31.511" rx="2"/><rect fill="#D3DCE7" x="14.555" y="15.082" width="46.09" height="2.424" rx="4"/><rect fill="#D3DDE7" x="14.555" y="5.656" width="62.531" height="1.616" rx="4"/><rect fill="#D3DDE7" x="14.555" y="20.738" width="51.48" height="1.616" rx="4"/><rect fill="#E1E6EF" x=".27" y=".269" width="2.965" height="30.972" rx="1"/><rect width="6.469" height="6.464" rx="2" transform="translate(2.156 12.928)" stroke="#FFF" stroke-width="2" fill="#D3DCE7"/></g><rect width="21.563" height="2.424" rx="4" transform="translate(242.174 24.643)" fill="#B9C4D2"/><g transform="translate(128.7 221.52)"><rect stroke="#E1E6EF" fill="#FFF" width="98.379" height="101.535" rx="3"/><g transform="translate(7.547 18.853)" fill="#D3DCE7"><rect x="11.32" y=".063" width="59.566" height="1.875" rx="4"/><rect width="6.738" height="6.733" rx="5"/><rect x="11.32" y="6.179" width="53.775" height="1.875" rx="4"/></g><g transform="translate(7.547 35.012)" fill="#D3DCE7"><rect x="11.32" y=".063" width="41.238" height="1.875" rx="4"/><rect width="6.738" height="6.733" rx="5"/><rect x="11.32" y="6.179" width="46.898" height="1.875" rx="4"/></g><g transform="translate(7.547 51.172)" fill="#D3DCE7"><rect x="11.32" y=".063" width="64.957" height="1.875" rx="4"/><rect width="6.738" height="6.733" rx="5"/><rect x="11.32" y="6.179" width="49.594" height="1.875" rx="4"/></g><g transform="translate(7.547 68.947)" fill="#D3DCE7"><rect x="11.32" y=".063" width="51.75" height="1.875" rx="4"/><rect width="6.738" height="6.733" rx="5"/><rect x="11.32" y="6.179" width="36.926" height="1.875" rx="4"/></g><g transform="translate(7.547 85.107)" fill="#D3DCE7"><rect x="11.32" y=".063" width="64.688" height="1.875" rx="4"/><rect width="6.738" height="6.733" rx="5"/><rect x="11.32" y="6.179" width="46.09" height="1.875" rx="4"/></g><rect width="59.437" height="2.424" rx="28" transform="translate(7.277 8.618)" fill="#D3DCE7"/></g><g transform="translate(22.775 221.52)"><rect stroke="#E1E6EF" fill="#FFF" width="98.379" height="101.535" rx="3"/><g transform="translate(6.437 18.883)" fill="#D3DCE7"><rect x="12.938" y="3.565" width="59.566" height="1.875" rx="4"/><rect width="9.164" height="9.157" rx="2"/></g><g transform="translate(6.437 34.773)" fill="#D3DCE7"><rect x="12.938" y="3.565" width="59.566" height="1.875" rx="4"/><rect width="9.164" height="9.157" rx="2"/></g><g transform="translate(6.437 52.548)" fill="#D3DCE7"><rect x="12.938" y="3.565" width="59.566" height="1.875" rx="4"/><rect width="9.164" height="9.157" rx="2"/></g><g transform="translate(6.437 68.977)" fill="#D3DCE7"><rect x="12.938" y="3.565" width="59.566" height="1.875" rx="4"/><rect width="9.164" height="9.157" rx="2"/></g><g transform="translate(6.437 85.136)" fill="#D3DCE7"><rect x="12.938" y="3.565" width="59.566" height="1.875" rx="4"/><rect width="9.164" height="9.157" rx="2"/></g><rect width="41.687" height="2.424" rx="28" transform="translate(6.738 7.81)" fill="#D3DCE7"/></g><path d="M234.5 14.5v315" stroke="#E1E6EF" stroke-linecap="square"/><g transform="translate(22.236 144.762)"><path d="M4 0C1.79 0 0 1.794 0 4v61.754c0 2.21 1.786 4 4 4h196.844c2.21 0 4-1.793 4-4V4c0-2.21-1.787-4-4-4H4z" stroke="#E0E5EE" fill="#FFF"/><rect fill="#D3DCE7" x="4.852" y="7.002" width="31.805" height="2.424" rx="4"/><rect fill="#D3DCE7" x="4.852" y="62.214" width="14.285" height="2.424" rx="4"/><path d="M8.376 16.43c-2.212 0-4.006 1.788-4.006 3.993v32.14c0 2.207 1.786 3.995 4.006 3.995h188.092c2.212 0 4.006-1.79 4.006-3.994v-32.14c0-2.207-1.786-3.995-4.006-3.995H8.376z" fill="#F7F9FB"/><g transform="translate(8.74 20.738)"><mask id="b" fill="#fff"><use xlink:href="#a"/></mask><use fill="#D3DCE7" xlink:href="#a"/><g mask="url(#b)" font-family="Salesforce Sans"><text fill="#16325C" transform="translate(61.18 12.928)" font-size="3.228"><tspan x="0" y="3">YAHOO FINANCE</tspan></text><text fill="#7E8C99" transform="translate(61.18 16.967)" font-size="2.69"><tspan x="0" y="3">8 hours ago - Automotive Industry News</tspan></text></g></g><g transform="translate(72.773 23.162)" fill="#D3DCE7"><rect width="59.437" height="2.424" rx="28"/><rect y="7.874" width="74.636" height="1.875" rx="4"/><rect y="12.373" width="67.38" height="1.875" rx="4"/><rect y="17.247" width="78.782" height="1.875" rx="4"/></g></g><g transform="translate(22.216 22.825)"><g transform="translate(.263 .105)"><rect stroke="#E1E6EF" fill="#FFF" x=".185" width="204.536" height="112.308" rx="3"/><path d="M10.447 20.162v81.875" stroke="#E0E5EE" stroke-linecap="square"/><rect width="8.355" height="8.08" rx="4" transform="translate(191.737 4.693)" stroke="#E0E5EE" fill="#FFF"/><path d="M10.583 100.556v-4.31l5.223-3.23 12.448-5.926 12.177-2.155 8.93-.54 21.11-2.96 13.38-.738 119.753-.07v19.93H10.583zm73.955-19.93H203.6v-44.17l-8.39 2.694-8.658 2.424-3.788 1.616-5.142 2.424-7.306 4.848-5.682 2.423-4.06 1.616-7.035 2.16-8.39 2.423-6.767 1.617-5.412 1.884-4.33 1.078-4.6 1.616-11.905 8.888-8.118 2.963-14.34 1.883-5.143 1.616z" fill="#F7F9FB"/><path d="M9.336 42.688H11.5M9.365 71.334h2.165" stroke="#E0E5EE" stroke-linecap="square"/><path d="M125.045 65.274l9.278-2.79 5.418-1.886 12.906-3.232 9.29-2.962 8.514-3.502 8.716-5.558 7.847-3.5 7.307-2.155 10.01-2.967" stroke="#D3DCE7"/><use stroke="#D3DCE7" stroke-linecap="round" stroke-linejoin="round" xlink:href="#c"/><use xlink:href="#c"/><path d="M10.447 53.73h192.575M10.447 80.663h192.575" stroke="#D3DCE7" stroke-linecap="square"/></g><rect fill="#D3DCE7" x="4.313" y="5.386" width="46.09" height="2.424" rx="4"/><rect fill="#D3DDE7" x="4.313" y="13.544" width="51.48" height="1.616" rx="4"/><rect fill="#D3DDE7" x="64.418" y="13.544" width="51.48" height="1.616" rx="4"/><rect fill="#D3DDE7" x="124.523" y="13.544" width="51.48" height="1.616" rx="4"/><path d="M9.492 100.66h193.792" stroke="#E0E5EE" stroke-linecap="square"/><rect fill="#D3DDE7" x="12.129" y="102.882" width="7.008" height="1.616" rx="4"/><rect fill="#D3DDE7" x="75.738" y="102.882" width="7.008" height="1.616" rx="4"/><rect fill="#D3DDE7" x="138.809" y="102.882" width="7.008" height="1.616" rx="4"/></g><path d="M22.882 43.092L226.5 42.5" stroke="#E1E6EF" stroke-linecap="square"/></g></svg>