<svg width="287" height="275" xmlns="http://www.w3.org/2000/svg"><g fill="none" fill-rule="evenodd"><path stroke="#E1E6EF" fill-opacity=".2" fill="#E1E6EF" d="M0 11.635h286.81v262.49H0z"/><text font-family="Salesforce Sans" font-size="8" fill="#16325C"><tspan x="136" y="133">Loading ...</tspan></text><path d="M127.664 134.597c-.212.364-.68.488-1.046.277-.364-.21-.49-.68-.277-1.043.214-.363.68-.487 1.047-.275.366.21.49.68.278 1.043m.01-7.388c-.212.364-.68.488-1.046.277-.367-.21-.49-.68-.28-1.044.213-.364.68-.488 1.046-.277.365.212.49.68.278 1.043m-3.22 1.858c-.21.364-.68.49-1.045.278-.367-.212-.49-.68-.28-1.044.213-.364.68-.488 1.046-.277.365.21.49.68.278 1.043m.028 3.695c-.21.365-.68.49-1.045.278-.365-.21-.49-.677-.277-1.042.21-.364.68-.488 1.045-.277.365.213.49.68.277 1.044m6.393-3.696c-.212.364-.68.49-1.045.278-.365-.212-.49-.68-.278-1.044.212-.364.68-.488 1.045-.277.366.21.49.68.278 1.043m0 3.695c-.212.365-.68.49-1.045.277-.365-.21-.49-.678-.278-1.043.212-.364.68-.488 1.045-.277.366.212.49.68.278 1.043" fill="#0070D2"/><path stroke="#E1E6EF" fill="#FFF" d="M0 0h286.81v13.202H0z"/><path d="M20.737 3.874c.357-.37.853-.6 1.402-.6.727 0 1.364.405 1.703 1.008.294-.13.62-.204.963-.204 1.316 0 2.383 1.074 2.383 2.4 0 1.326-1.068 2.4-2.384 2.4-.16 0-.317-.016-.47-.047-.297.534-.866.893-1.52.893-.272 0-.53-.063-.76-.175-.304.71-1.01 1.21-1.83 1.21-.856 0-1.585-.54-1.865-1.3-.122.026-.25.04-.38.04-1.017 0-1.843-.833-1.843-1.86 0-.69.37-1.292.922-1.614-.114-.26-.177-.548-.177-.85 0-1.183.96-2.142 2.146-2.142.695 0 1.314.332 1.706.844" fill="#1AA2DD"/><path d="M0 .224h12.772v273.803H0z" fill="#16325C"/></g></svg>