<svg width="287" height="275" xmlns="http://www.w3.org/2000/svg"><g fill="none" fill-rule="evenodd"><path stroke="#E1E6EF" fill-opacity=".2" fill="#E1E6EF" d="M0 11.635h286.81v262.49H0z"/><text font-family="Salesforce Sans" font-size="8" fill="#16325C"><tspan x="136" y="133">Loading ...</tspan></text><g fill="#0070D2"><path d="M127.664 134.597c-.212.364-.68.488-1.046.277-.364-.21-.49-.68-.277-1.043.213-.364.68-.488 1.046-.276.366.21.49.68.278 1.043M127.675 127.21c-.212.364-.68.488-1.046.277-.366-.21-.49-.68-.278-1.044.212-.364.68-.488 1.045-.277.365.212.49.68.278 1.043M124.455 129.068c-.212.364-.68.49-1.046.278-.366-.212-.49-.68-.278-1.044.212-.364.68-.488 1.045-.277.365.21.49.68.278 1.043M124.482 132.763c-.21.365-.68.49-1.045.278-.365-.21-.49-.678-.277-1.043.21-.364.68-.488 1.045-.277.365.212.49.68.277 1.043M130.875 129.068c-.212.364-.68.49-1.045.278-.365-.212-.49-.68-.278-1.044.212-.364.68-.488 1.045-.277.366.21.49.68.278 1.043M130.875 132.763c-.212.365-.68.49-1.045.277-.365-.21-.49-.678-.278-1.043.212-.364.68-.488 1.045-.277.366.212.49.68.278 1.043"/></g><path stroke="#E1E6EF" fill="#FFF" d="M0 0h286.81v13.202H0z"/><path d="M20.737 3.874c.357-.37.853-.6 1.402-.6.728 0 1.365.405 1.704 1.008.294-.13.62-.204.963-.204 1.316 0 2.383 1.074 2.383 2.4 0 1.326-1.067 2.4-2.383 2.4-.16 0-.317-.016-.47-.047-.297.533-.866.892-1.52.892-.272 0-.53-.063-.76-.175-.304.71-1.01 1.21-1.83 1.21-.856 0-1.585-.54-1.865-1.3-.123.026-.25.04-.38.04-1.018 0-1.844-.833-1.844-1.86 0-.69.37-1.292.922-1.614-.113-.26-.176-.548-.176-.85 0-1.183.96-2.142 2.146-2.142.696 0 1.315.332 1.707.844" fill="#1AA2DD"/><g fill="#16325C"><path d="M0 .224h12.772v273.803H0z"/></g></g></svg>