<svg width="287" height="275" xmlns="http://www.w3.org/2000/svg"><g fill="none" fill-rule="evenodd"><path stroke="#E1E6EF" fill="#FFF" d="M0 11.635h286.81v262.49H0z"/><path stroke="#E0E5EE" fill="#F7F9FB" d="M12.28 12.26h274.53v29.763H12.28z"/><path stroke="#E1E6EF" fill="#FFF" d="M0 0h286.81v13.202H0z"/><path d="M20.737 3.874c.357-.37.853-.6 1.402-.6.728 0 1.365.405 1.704 1.008.294-.13.62-.204.963-.204 1.316 0 2.383 1.074 2.383 2.4 0 1.326-1.067 2.4-2.383 2.4-.16 0-.317-.016-.47-.047-.297.533-.866.892-1.52.892-.272 0-.53-.063-.76-.175-.304.71-1.01 1.21-1.83 1.21-.856 0-1.585-.54-1.865-1.3-.123.026-.25.04-.38.04-1.018 0-1.844-.833-1.844-1.86 0-.69.37-1.292.922-1.614-.113-.26-.176-.548-.176-.85 0-1.183.96-2.142 2.146-2.142.696 0 1.315.332 1.707.844" fill="#1AA2DD"/><path d="M0 .224h12.772v273.803H0z" fill="#16325C"/><path d="M195.154 41.667v231.548M13.686 57.738H194.77M13.686 74.405H194.77M13.686 91.07H194.77M13.686 107.738H194.77M13.686 124.405H194.77M13.686 141.07H194.77M13.686 157.738H194.77M13.686 174.405H194.77M13.686 191.07H194.77M13.686 207.738H194.77M13.686 224.405H194.77M13.686 241.07H194.77M13.686 257.738H194.77" stroke="#E1E6EF" stroke-linecap="square"/><g stroke="#E0E5EE" fill="#FFF"><path d="M206.94 50.017c-2.204 0-3.99 1.79-3.99 4.002V80.17c0 2.21 1.79 4 3.99 4h68.255c2.205 0 3.992-1.787 3.992-4V54.02c0-2.21-1.79-4.003-3.992-4.003H206.94zM206.94 90.304c-2.204 0-3.99 1.796-3.99 3.99v39.31c0 2.206 1.79 3.993 3.99 3.993h68.255c2.205 0 3.992-1.796 3.992-3.992v-39.31c0-2.204-1.79-3.99-3.992-3.99H206.94zM206.94 143.727c-2.204 0-3.99 1.787-3.99 4.005v37.566c0 2.212 1.79 4.005 3.99 4.005h68.255c2.205 0 3.992-1.787 3.992-4.005v-37.566c0-2.212-1.79-4.005-3.992-4.005H206.94zM206.94 196.108c-2.204 0-3.99 1.787-3.99 4.005v37.566c0 2.21 1.79 4.004 3.99 4.004h68.255c2.205 0 3.992-1.787 3.992-4.005v-37.567c0-2.212-1.79-4.005-3.992-4.005H206.94zM206.94 248.49c-2.204 0-3.99 1.78-3.99 4v21.337h76.237V252.49c0-2.21-1.79-4-3.992-4H206.94z"/></g><path opacity=".742" fill="#FFF" d="M13 42h182v227H13z"/><g fill="#0070D2"><path d="M105.91 152.15c-.45.768-1.445 1.03-2.22.584-.776-.446-1.04-1.433-.59-2.203.45-.768 1.445-1.03 2.22-.583.777.446 1.04 1.434.59 2.202M105.934 136.553c-.45.77-1.445 1.032-2.222.585-.775-.445-1.04-1.433-.59-2.202.45-.77 1.446-1.03 2.222-.585.775.447 1.04 1.434.59 2.203M99.092 140.478c-.45.768-1.446 1.032-2.223.585-.776-.447-1.04-1.433-.59-2.202.45-.77 1.445-1.03 2.22-.585.777.446 1.042 1.434.592 2.203M99.15 148.278c-.45.77-1.445 1.032-2.22.586-.777-.446-1.04-1.434-.59-2.203.45-.768 1.444-1.03 2.22-.584.777.446 1.04 1.433.59 2.202M112.735 140.478c-.45.768-1.445 1.032-2.222.585-.775-.447-1.04-1.433-.59-2.202.45-.77 1.445-1.03 2.22-.585.778.446 1.042 1.434.592 2.203M112.734 148.278c-.45.77-1.445 1.032-2.22.585-.776-.446-1.04-1.433-.59-2.203.45-.768 1.444-1.03 2.22-.584.777.446 1.04 1.433.59 2.202"/></g></g></svg>