<?xml version="1.0" encoding="UTF-8" standalone="no"?>
<svg width="287px" height="275px" viewBox="0 0 287 275" version="1.1" xmlns="http://www.w3.org/2000/svg" xmlns:xlink="http://www.w3.org/1999/xlink" xmlns:sketch="http://www.bohemiancoding.com/sketch/ns">
    <!-- Generator: Sketch 3.3.3 (12081) - http://www.bohemiancoding.com/sketch -->
    <title>record</title>
    <desc>Created with Sketch.</desc>
    <defs></defs>
    <g id="Page-1" stroke="none" stroke-width="1" fill="none" fill-rule="evenodd" sketch:type="MSPage">
        <g id="Loading" sketch:type="MSArtboardGroup" transform="translate(-297.000000, -1186.000000)">
            <g id="record" sketch:type="MSLayerGroup" transform="translate(297.000000, 1186.000000)">
                <rect id="bkgd" stroke="#E1E6EF" fill="#FFFFFF" sketch:type="MSShapeGroup" x="0" y="11.6502034" width="286.747837" height="262.820968"></rect>
                <rect id="Rectangle-553" stroke="#E0E5EE" fill="#F7F9FB" sketch:type="MSShapeGroup" x="12.2766658" y="12.2766658" width="274.471171" height="56.1219008"></rect>
                <g id="Component---Top-Bar-Copy-12" sketch:type="MSShapeGroup">
                    <rect id="Background" stroke="#E1E6EF" fill="#FFFFFF" x="0" y="0" width="286.747837" height="13.2185"></rect>
                    <path d="M20.7326568,3.8787883 C21.0890386,3.5075133 21.5851381,3.2771449 22.1338749,3.2771449 C22.8632079,3.2771449 23.4996452,3.68387106 23.8384527,4.28775955 C24.1330679,4.15613269 24.4590047,4.08287836 24.8019599,4.08287836 C26.1175087,4.08287836 27.1840457,5.15883604 27.1840457,6.48613775 C27.1840457,7.81346083 26.1175087,8.88939713 24.8019599,8.88939713 C24.6413326,8.88939713 24.4844254,8.87327519 24.3326922,8.84265634 C24.0343355,9.37493691 23.4655229,9.73460154 22.8128582,9.73460154 C22.5396657,9.73460154 22.2811826,9.67154637 22.0510278,9.55924873 C21.7485661,10.2709661 21.0436063,10.7699764 20.2222541,10.7699764 C19.3667369,10.7699764 18.6375749,10.2286727 18.3578401,9.46944482 C18.2354829,9.49529552 18.1087214,9.50891578 17.9787529,9.50891578 C16.9601924,9.50891578 16.1345215,8.67455198 16.1345215,7.64529233 C16.1345215,6.95549144 16.5054203,6.35324935 17.0567227,6.03100301 C16.9431954,5.76975917 16.8801888,5.48157417 16.8801888,5.17861428 C16.8801888,3.99482777 17.8410021,3.03518753 19.0262618,3.03518753 C19.7221352,3.03518753 20.3405278,3.36605077 20.7326568,3.8787883" id="Fill-1-Copy" fill="#1AA2DD"></path>
                </g>
                <g id="Component---Left-Bar---Expanded-Copy-16" transform="translate(0.000000, 0.224042)" fill="#16325C" sketch:type="MSShapeGroup">
                    <rect id="BG" x="0" y="0" width="12.7692396" height="274.149638"></rect>
                </g>
                <g id="Group-19-Copy-7" transform="translate(200.499464, 90.682934)" sketch:type="MSShapeGroup">
                    <rect id="Rectangle-827" stroke="#E1E6EF" fill="#FFFFFF" x="0" y="0" width="80.6478292" height="71" rx="2"></rect>
                    <g id="Imported-Layers-Copy-2" transform="translate(32.000000, 26.000000)" fill="#0070D2">
                        <path d="M9.91069091,18.1489839 C9.46034545,18.9181774 8.46507273,19.1805 7.68925455,18.734 C6.91405455,18.2878065 6.64854545,17.3013387 7.09889091,16.5312258 C7.54985455,15.7623387 8.54450909,15.500629 9.32032727,15.947129 C10.0970727,16.3930161 10.3610364,17.3807097 9.91069091,18.1489839" id="Fill-1"></path>
                        <path d="M9.93387273,2.55335484 C9.48352727,3.32377419 8.48856364,3.58548387 7.71150909,3.13837097 C6.93692727,2.69309677 6.67203636,1.70509677 7.12238182,0.935903226 C7.57303636,0.167016129 8.568,-0.095 9.34412727,0.351193548 C10.1193273,0.797387097 10.3836,1.78385484 9.93387273,2.55335484" id="Fill-2"></path>
                        <path d="M3.09245455,6.47777419 C2.64118182,7.24635484 1.64621818,7.50959677 0.869472727,7.06309677 C0.0942727273,6.61598387 -0.170309091,5.62951613 0.280345455,4.86062903 C0.730072727,4.09112903 1.72503636,3.8291129 2.50116364,4.275 C3.27698182,4.7215 3.54156364,5.7088871 3.09245455,6.47777419" id="Fill-3"></path>
                        <path d="M3.14994545,14.2781935 C2.70083636,15.048 1.70463636,15.3103226 0.928509091,14.8635161 C0.153,14.417629 -0.110963636,13.4299355 0.339381818,12.6610484 C0.789109091,11.8918548 1.78376364,11.6295323 2.55989091,12.0757258 C3.33663636,12.5222258 3.60090909,13.5093065 3.14994545,14.2781935" id="Fill-4"></path>
                        <path d="M16.7351091,6.47777419 C16.2847636,7.24635484 15.2898,7.50959677 14.5127455,7.06309677 C13.7375455,6.61598387 13.4732727,5.62951613 13.9236182,4.86062903 C14.3733455,4.09112903 15.3683091,3.8291129 16.1438182,4.275 C16.9205636,4.7215 17.1848364,5.7088871 16.7351091,6.47777419" id="Fill-5"></path>
                        <path d="M16.7344909,14.2781935 C16.2847636,15.0473871 15.2885636,15.3097097 14.5127455,14.8629032 C13.7375455,14.4170161 13.4732727,13.4299355 13.9236182,12.6604355 C14.3733455,11.8918548 15.3683091,11.6295323 16.1438182,12.0757258 C16.9205636,12.5222258 17.1848364,13.5086935 16.7344909,14.2781935" id="Fill-6"></path>
                    </g>
                    <rect id="Rectangle-827-Copy" stroke="#E1E6EF" fill="#FFFFFF" x="0" y="77" width="80.6478292" height="71" rx="2"></rect>
                    <rect id="Rectangle-827-Copy-2" stroke="#E1E6EF" fill="#FFFFFF" x="0" y="155" width="80.6478292" height="29" rx="2"></rect>
                </g>
                <path d="M195.111296,67.9433232 L195.111296,274.032726" id="Line-Copy-2" stroke="#E1E6EF" stroke-linecap="square" sketch:type="MSShapeGroup"></path>
                <g id="Wide---With-Pic-Copy" transform="translate(18.481794, 90.608015)" stroke="#E0E5EE" fill="#FFFFFF" sketch:type="MSShapeGroup">
                    <path d="M3.99919833,2.97830326e-15 C1.79050208,2.97830326e-15 0,1.79055058 0,3.99002419 L0,30.2092591 C0,32.4128886 1.79686215,34.1992833 3.99919833,34.1992833 L166.25733,34.1992833 C168.466026,34.1992833 170.256528,32.4087327 170.256528,30.2092591 L170.256528,3.99002419 C170.256528,1.78639468 168.459666,2.97830326e-15 166.25733,2.97830326e-15 L3.99919833,2.97830326e-15 Z" id="Rectangle-19"></path>
                    <path d="M3.99919833,40.3376162 C1.79050208,40.3376162 0,42.1360814 0,44.3340835 L0,83.6940028 C0,85.9011907 1.79686215,87.69047 3.99919833,87.69047 L166.25733,87.69047 C168.466026,87.69047 170.256528,85.8920049 170.256528,83.6940028 L170.256528,44.3340835 C170.256528,42.1268956 168.459666,40.3376162 166.25733,40.3376162 L3.99919833,40.3376162 Z" id="Rectangle-19-Copy-2"></path>
                    <path d="M3.99919833,93.8288029 C1.79050208,93.8288029 0,95.6108561 0,97.827439 L0,159.105638 C0,161.314024 1.79686215,163.104274 3.99919833,163.104274 L166.25733,163.104274 C168.466026,163.104274 170.256528,161.322221 170.256528,159.105638 L170.256528,97.827439 C170.256528,95.6190533 168.459666,93.8288029 166.25733,93.8288029 L3.99919833,93.8288029 Z" id="Rectangle-19-Copy-3"></path>
                </g>
            </g>
        </g>
    </g>
</svg>