<?xml version="1.0" encoding="UTF-8" standalone="no"?>
<svg width="287px" height="275px" viewBox="0 0 287 275" version="1.1" xmlns="http://www.w3.org/2000/svg" xmlns:xlink="http://www.w3.org/1999/xlink" xmlns:sketch="http://www.bohemiancoding.com/sketch/ns">
    <!-- Generator: Sketch 3.3.3 (12081) - http://www.bohemiancoding.com/sketch -->
    <title>record copy 5</title>
    <desc>Created with Sketch.</desc>
    <defs></defs>
    <g id="Page-1" stroke="none" stroke-width="1" fill="none" fill-rule="evenodd" sketch:type="MSPage">
        <g id="Loading" sketch:type="MSArtboardGroup" transform="translate(-945.000000, -1186.000000)">
            <g id="record-copy-5" sketch:type="MSLayerGroup" transform="translate(945.000000, 1186.000000)">
                <rect id="bkgd" stroke="#E1E6EF" fill="#FFFFFF" sketch:type="MSShapeGroup" x="0" y="11.635476" width="286.809917" height="262.488728"></rect>
                <rect id="Rectangle-553" stroke="#E0E5EE" fill="#F7F9FB" sketch:type="MSShapeGroup" x="12.2793237" y="12.2611465" width="274.530594" height="29.7619048"></rect>
                <g id="Component---Top-Bar-Copy-12" sketch:type="MSShapeGroup">
                    <rect id="Background" stroke="#E1E6EF" fill="#FFFFFF" x="0" y="0" width="286.809917" height="13.2017901"></rect>
                    <path d="M20.7371454,3.873885 C21.0936043,3.50307934 21.5898112,3.27300216 22.1386669,3.27300216 C22.8681578,3.27300216 23.5047328,3.67921417 23.8436137,4.28233926 C24.1382927,4.15087879 24.4643,4.07771707 24.8073295,4.07771707 C26.1231631,4.07771707 27.189931,5.1523146 27.189931,6.47793842 C27.189931,7.8035836 26.1231631,8.87815977 24.8073295,8.87815977 C24.6466674,8.87815977 24.4897262,8.86205821 24.3379601,8.83147806 C24.0395389,9.36308576 23.4706031,9.72229573 22.8177972,9.72229573 C22.5445455,9.72229573 22.2860064,9.65932027 22.0558018,9.54716459 C21.7532747,10.2579822 21.0481622,10.7563618 20.2266322,10.7563618 C19.3709297,10.7563618 18.6416099,10.2157423 18.3618146,9.45747421 C18.2394308,9.48329223 18.1126419,9.49689527 17.9826452,9.49689527 C16.9638643,9.49689527 16.1380146,8.66358621 16.1380146,7.63562768 C16.1380146,6.94669879 16.5089937,6.34521801 17.0604155,6.02337903 C16.9468636,5.76246544 16.8838433,5.47464474 16.8838433,5.17206784 C16.8838433,3.98977779 17.8448646,3.03135065 19.0303809,3.03135065 C19.726405,3.03135065 20.3449315,3.36179564 20.7371454,3.873885" id="Fill-1-Copy" fill="#1AA2DD"></path>
                </g>
                <g id="Component---Left-Bar---Expanded-Copy-16" transform="translate(0.000000, 0.223759)" fill="#16325C" sketch:type="MSShapeGroup">
                    <rect id="BG" x="0" y="0" width="12.7720041" height="273.803077"></rect>
                </g>
                <path d="M195.153537,41.6669577 L195.153537,273.215006" id="Line-Copy-2" stroke="#E1E6EF" stroke-linecap="square" sketch:type="MSShapeGroup"></path>
                <path d="M13.6859504,57.7380952 L194.770237,57.7380952" id="Line" stroke="#E1E6EF" stroke-linecap="square" sketch:type="MSShapeGroup"></path>
                <path d="M13.6859504,74.4047619 L194.770237,74.4047619" id="Line-Copy-19" stroke="#E1E6EF" stroke-linecap="square" sketch:type="MSShapeGroup"></path>
                <path d="M13.6859504,91.0714286 L194.770237,91.0714286" id="Line-Copy-20" stroke="#E1E6EF" stroke-linecap="square" sketch:type="MSShapeGroup"></path>
                <path d="M13.6859504,107.738095 L194.770237,107.738095" id="Line-Copy-21" stroke="#E1E6EF" stroke-linecap="square" sketch:type="MSShapeGroup"></path>
                <path d="M13.6859504,124.404762 L194.770237,124.404762" id="Line-Copy-22" stroke="#E1E6EF" stroke-linecap="square" sketch:type="MSShapeGroup"></path>
                <path d="M13.6859504,141.071429 L194.770237,141.071429" id="Line-Copy-23" stroke="#E1E6EF" stroke-linecap="square" sketch:type="MSShapeGroup"></path>
                <path d="M13.6859504,157.738095 L194.770237,157.738095" id="Line-Copy-24" stroke="#E1E6EF" stroke-linecap="square" sketch:type="MSShapeGroup"></path>
                <path d="M13.6859504,174.404762 L194.770237,174.404762" id="Line-Copy-25" stroke="#E1E6EF" stroke-linecap="square" sketch:type="MSShapeGroup"></path>
                <path d="M13.6859504,191.071429 L194.770237,191.071429" id="Line-Copy-26" stroke="#E1E6EF" stroke-linecap="square" sketch:type="MSShapeGroup"></path>
                <path d="M13.6859504,207.738095 L194.770237,207.738095" id="Line-Copy-27" stroke="#E1E6EF" stroke-linecap="square" sketch:type="MSShapeGroup"></path>
                <path d="M13.6859504,224.404762 L194.770237,224.404762" id="Line-Copy-28" stroke="#E1E6EF" stroke-linecap="square" sketch:type="MSShapeGroup"></path>
                <path d="M13.6859504,241.071429 L194.770237,241.071429" id="Line-Copy-29" stroke="#E1E6EF" stroke-linecap="square" sketch:type="MSShapeGroup"></path>
                <path d="M13.6859504,257.738095 L194.770237,257.738095" id="Line-Copy-30" stroke="#E1E6EF" stroke-linecap="square" sketch:type="MSShapeGroup"></path>
                <g id="Wide---With-Pic-Copy" transform="translate(202.948605, 50.017285)" stroke="#E0E5EE" fill="#FFFFFF" sketch:type="MSShapeGroup">
                    <path d="M3.9915445,2.97902939e-15 C1.78707534,2.97902939e-15 0,1.78828709 0,4.00176227 L0,30.1542887 C0,32.364401 1.79077308,34.156051 3.9915445,34.156051 L72.2464366,34.156051 C74.4509058,34.156051 76.2379811,32.3677639 76.2379811,30.1542887 L76.2379811,4.00176227 C76.2379811,1.79165 74.447208,2.97902939e-15 72.2464366,2.97902939e-15 L3.9915445,2.97902939e-15 Z" id="Rectangle-19"></path>
                    <path d="M3.9915445,40.2866242 C1.78707534,40.2866242 0,42.0828159 0,44.2780394 L0,83.5882026 C0,85.7926004 1.79077308,87.5796178 3.9915445,87.5796178 L72.2464366,87.5796178 C74.4509058,87.5796178 76.2379811,85.7834262 76.2379811,83.5882026 L76.2379811,44.2780394 C76.2379811,42.0736417 74.447208,40.2866242 72.2464366,40.2866242 L3.9915445,40.2866242 Z" id="Rectangle-19-Copy-2"></path>
                    <path d="M3.9915445,93.7101911 C1.78707534,93.7101911 0,95.4968056 0,97.7147709 L0,135.281134 C0,137.492803 1.79077308,139.285714 3.9915445,139.285714 L72.2464366,139.285714 C74.4509058,139.285714 76.2379811,137.4991 76.2379811,135.281134 L76.2379811,97.7147709 C76.2379811,95.5031025 74.447208,93.7101911 72.2464366,93.7101911 L3.9915445,93.7101911 Z" id="Rectangle-19-Copy-3"></path>
                    <path d="M3.9915445,146.091143 C1.78707534,146.091143 0,147.877758 0,150.095723 L0,187.662087 C0,189.873755 1.79077308,191.666667 3.9915445,191.666667 L72.2464366,191.666667 C74.4509058,191.666667 76.2379811,189.880052 76.2379811,187.662087 L76.2379811,150.095723 C76.2379811,147.884055 74.447208,146.091143 72.2464366,146.091143 L3.9915445,146.091143 Z" id="Rectangle-19-Copy-14"></path>
                    <path d="M3.9915445,198.472096 C1.78707534,198.472096 0,200.253775 0,202.472905 L0,223.809524 L76.2379811,223.809524 L76.2379811,202.472905 C76.2379811,200.263319 74.447208,198.472096 72.2464366,198.472096 L3.9915445,198.472096 Z" id="Rectangle-19-Copy-17"></path>
                </g>
                <rect id="Rectangle-652" opacity="0.74166278" fill="#FFFFFF" sketch:type="MSShapeGroup" x="13" y="42" width="182" height="227"></rect>
                <g id="Imported-Layers-Copy-4" transform="translate(96.000000, 134.000000)" fill="#0070D2" sketch:type="MSShapeGroup">
                    <path d="M9.91069091,18.1489839 C9.46034545,18.9181774 8.46507273,19.1805 7.68925455,18.734 C6.91405455,18.2878065 6.64854545,17.3013387 7.09889091,16.5312258 C7.54985455,15.7623387 8.54450909,15.500629 9.32032727,15.947129 C10.0970727,16.3930161 10.3610364,17.3807097 9.91069091,18.1489839" id="Fill-1"></path>
                    <path d="M9.93387273,2.55335484 C9.48352727,3.32377419 8.48856364,3.58548387 7.71150909,3.13837097 C6.93692727,2.69309677 6.67203636,1.70509677 7.12238182,0.935903226 C7.57303636,0.167016129 8.568,-0.095 9.34412727,0.351193548 C10.1193273,0.797387097 10.3836,1.78385484 9.93387273,2.55335484" id="Fill-2"></path>
                    <path d="M3.09245455,6.47777419 C2.64118182,7.24635484 1.64621818,7.50959677 0.869472727,7.06309677 C0.0942727273,6.61598387 -0.170309091,5.62951613 0.280345455,4.86062903 C0.730072727,4.09112903 1.72503636,3.8291129 2.50116364,4.275 C3.27698182,4.7215 3.54156364,5.7088871 3.09245455,6.47777419" id="Fill-3"></path>
                    <path d="M3.14994545,14.2781935 C2.70083636,15.048 1.70463636,15.3103226 0.928509091,14.8635161 C0.153,14.417629 -0.110963636,13.4299355 0.339381818,12.6610484 C0.789109091,11.8918548 1.78376364,11.6295323 2.55989091,12.0757258 C3.33663636,12.5222258 3.60090909,13.5093065 3.14994545,14.2781935" id="Fill-4"></path>
                    <path d="M16.7351091,6.47777419 C16.2847636,7.24635484 15.2898,7.50959677 14.5127455,7.06309677 C13.7375455,6.61598387 13.4732727,5.62951613 13.9236182,4.86062903 C14.3733455,4.09112903 15.3683091,3.8291129 16.1438182,4.275 C16.9205636,4.7215 17.1848364,5.7088871 16.7351091,6.47777419" id="Fill-5"></path>
                    <path d="M16.7344909,14.2781935 C16.2847636,15.0473871 15.2885636,15.3097097 14.5127455,14.8629032 C13.7375455,14.4170161 13.4732727,13.4299355 13.9236182,12.6604355 C14.3733455,11.8918548 15.3683091,11.6295323 16.1438182,12.0757258 C16.9205636,12.5222258 17.1848364,13.5086935 16.7344909,14.2781935" id="Fill-6"></path>
                </g>
            </g>
        </g>
    </g>
</svg>