<svg width="345" height="338" xmlns="http://www.w3.org/2000/svg"><g fill="none" fill-rule="evenodd"><g><path d="M3.994 0C1.788 0 0 1.793 0 4.005v328.99C0 335.207 1.794 337 3.994 337h337.012c2.206 0 3.994-1.793 3.994-4.005V4.005C345 1.793 343.206 0 341.006 0H3.994z" stroke="#E0E5EE" fill="#F4F6F9"/><rect opacity=".497" fill="#D3DCE7" x="24" y="17" width="24" height="24" rx="2"/><g transform="translate(303 12)"><rect stroke="#E0E5EE" fill="#FFF" transform="matrix(-1 0 0 1 30 0)" width="30" height="30" rx="4"/><path d="M11.472 12.81c1.43 2.697 3.678 5.037 3.774 5.126.217.205.553.205.77 0 .096-.09 2.343-2.43 3.773-5.126.096-.18.096-.396 0-.575-.097-.18-.265-.294-.457-.307-.024-.013-1.827-.128-3.702-.128-1.874 0-3.677.115-3.7.128-.193.013-.374.128-.458.307-.096.18-.096.396 0 .575z" fill="#54698D"/></g><rect opacity=".503" fill="#B8C4D2" x="60" y="26" width="104" height="7" rx="4"/></g><g fill="#0070D2"><path d="M177.064 195.223c-1.457 2.51-4.677 3.366-7.187 1.91-2.508-1.457-3.367-4.676-1.91-7.19 1.46-2.508 4.677-3.362 7.187-1.905 2.513 1.455 3.367 4.678 1.91 7.185M177.14 144.332c-1.458 2.514-4.677 3.368-7.19 1.91-2.507-1.454-3.364-4.678-1.907-7.188 1.458-2.51 4.677-3.364 7.188-1.908 2.51 1.456 3.364 4.675 1.91 7.186M155.005 157.138c-1.46 2.508-4.68 3.367-7.192 1.91-2.508-1.46-3.364-4.678-1.906-7.187 1.455-2.51 4.674-3.365 7.185-1.91 2.51 1.457 3.366 4.68 1.913 7.188M155.19 182.592c-1.452 2.512-4.675 3.368-7.186 1.91-2.51-1.455-3.363-4.678-1.906-7.187 1.455-2.51 4.673-3.366 7.184-1.91 2.513 1.457 3.368 4.678 1.91 7.187M199.143 157.138c-1.457 2.508-4.676 3.367-7.19 1.91-2.508-1.46-3.363-4.678-1.906-7.187 1.455-2.51 4.674-3.365 7.183-1.91 2.513 1.457 3.368 4.68 1.913 7.188M199.14 182.592c-1.454 2.51-4.677 3.366-7.187 1.908-2.508-1.455-3.363-4.676-1.906-7.187 1.455-2.508 4.674-3.364 7.183-1.908 2.513 1.457 3.368 4.676 1.91 7.187"/></g><path d="M.5 169.5h144.003M200.5 169.5h144.003M172.5.5v135.237M172.5 198.5v138.09" stroke="#E97293" stroke-linecap="square"/></g></svg>