<?xml version="1.0"?><svg width="100" height="100" viewBox="0 0 100 100" xmlns="http://www.w3.org/2000/svg"><path d="m76.1 26.3h-52.2c-1.9 0-3.5 1.7-3.5 3.6v2.6c0 0.3 0.1 0.5 0.3 0.7l26.3 21.5c1.6 1.6 4.3 1.6 5.9 0l26.3-21.5c0.2-0.2 0.3-0.5 0.3-0.7v-2.5c0-2-1.5-3.6-3.4-3.7z m-55.7 11.6c0-0.3 0.2-0.6 0.5-0.8 0.3-0.1 0.7-0.1 1 0.2l12.7 11.3c0.2 0.1 0.3 0.4 0.3 0.6 0 0.3-0.1 0.5-0.2 0.7l-12.8 12c-0.2 0.3-0.6 0.4-0.9 0.2-0.4-0.1-0.6-0.4-0.6-0.8v-23.4h0z m0 29.2c0-0.2 0.1-0.5 0.3-0.6l16.1-15c0.3-0.3 0.8-0.3 1.1 0l6.8 6c3 2.8 7.6 2.8 10.6 0l6.7-6c0.4-0.3 0.9-0.3 1.2 0l16.1 14.9c0.1 0.2 0.2 0.5 0.2 0.7v2.9c0.1 1-0.3 1.9-1 2.6-0.6 0.7-1.6 1.1-2.5 1.1h-52.1c-1.9 0-3.5-1.7-3.5-3.7v-2.9l0 0z m59.2-5.8c0 0.3-0.2 0.7-0.6 0.8-0.3 0.2-0.7 0.1-0.9-0.2l-12.8-12c-0.1-0.2-0.2-0.5-0.2-0.7 0-0.3 0.1-0.5 0.3-0.7l12.8-11.3c0.2-0.2 0.6-0.3 0.9-0.1 0.3 0.2 0.5 0.5 0.5 0.8v23.4l0 0z" fill="#fff"></path></svg>