<?xml version="1.0"?><svg width="100" height="100" viewBox="0 0 100 100" xmlns="http://www.w3.org/2000/svg"><g fill="#fff"><path d="m47.9 60.4l0.4-2.9 4-2.7-0.9-3.7h-0.5l-4.2-0.3-1.6-2.3 0.9-4.8-3.1-2-0.4 0.4-3.2 2.7-2.7-0.4-2.6-4.1-3.6 0.9v0.6l-0.3 4.3-2.2 1.7-4.7-1-1.9 3.3 0.4 0.4 2.7 3.3-0.4 2.8-4 2.7 0.9 3.7 0.5 0 4.2 0.4 1.6 2.2-1 4.8 3.2 2 0.4-0.4 3.2-2.8 2.7 0.4 2.6 4.1 3.6-0.9v-0.6l0.2-4.2 2.3-1.7 4.6 1 1.9-3.3-0.4-0.4-2.6-3.2v0z m-5.5 0.6c-1 1.7-2.6 3-4.5 3.4-1.9 0.5-3.9 0.2-5.6-0.8-3.4-2.3-4.5-6.9-2.5-10.5 1-1.7 2.6-2.9 4.5-3.4 1.9-0.5 4-0.2 5.6 0.8 3.5 2.3 4.6 6.9 2.5 10.5z"></path><path d="m75.7 46.3l0.4-2.8 3.9-2.7-0.9-3.7h-0.5l-4.1-0.4-1.7-2.3 0.9-4.8-3.1-2-0.4 0.4-3.2 2.8-2.7-0.4-2.6-4.1-3.6 0.9 0 0.6-0.3 4.2-2.2 1.7-4.6-1-2 3.3 0.4 0.4 2.7 3.3-0.4 2.8-3.9 2.7 0.8 3.7h0.6l4.1 0.4 1.6 2.3-0.9 4.8 3.1 2 0.4-0.4 3.2-2.8 2.7 0.4 2.6 4.1 3.6-0.9 0-0.5 0.3-4.3 2.2-1.7 4.7 0.9 1.9-3.2-0.4-0.4-2.7-3.3z m-5.6 0.6c-0.9 1.7-2.6 3-4.5 3.5-1.9 0.4-3.9 0.1-5.5-0.9-3.5-2.3-4.6-6.9-2.5-10.4 1-1.8 2.6-3 4.5-3.5 1.9-0.5 3.9-0.2 5.6 0.9 3.5 2.2 4.5 6.9 2.4 10.4z"></path></g></svg>