<?xml version="1.0"?><svg width="100" height="100" viewBox="0 0 100 100" xmlns="http://www.w3.org/2000/svg"><path d="m31.2 60.7h-8.8c-0.3 0-0.6 0.1-0.8 0.3-0.2 0.2-0.3 0.5-0.3 0.8v17.8c0 0.3 0.1 0.6 0.3 0.8 0.2 0.2 0.5 0.3 0.8 0.3h8.8c0.3 0 0.6-0.1 0.8-0.3 0.2-0.2 0.4-0.5 0.4-0.8v-17.8c0-0.3-0.2-0.6-0.4-0.8-0.2-0.2-0.5-0.3-0.8-0.3v0z m16.1-5.5h-8.7c-0.7 0-1.2 0.5-1.2 1.2v23.2c0 0.3 0.2 0.6 0.4 0.8 0.2 0.3 0.5 0.4 0.8 0.4h8.7c0.3 0 0.6-0.1 0.8-0.4 0.3-0.2 0.4-0.5 0.4-0.8v-23.2c0-0.3-0.1-0.6-0.4-0.8-0.2-0.3-0.5-0.4-0.8-0.4v0z m16.1-20h-8.7c-0.3 0-0.6 0.1-0.8 0.3-0.3 0.2-0.4 0.5-0.4 0.8v43.3c0 0.3 0.1 0.6 0.4 0.8 0.2 0.3 0.5 0.4 0.8 0.4h8.7c0.3 0 0.6-0.1 0.9-0.4 0.2-0.2 0.3-0.5 0.3-0.8v-43.3c0-0.3-0.1-0.6-0.3-0.8-0.3-0.2-0.6-0.4-0.9-0.3z m16.2-14h-8.8c-0.3 0-0.6 0.1-0.8 0.4-0.2 0.2-0.4 0.5-0.4 0.8v57.2c0 0.3 0.2 0.6 0.4 0.8 0.2 0.3 0.5 0.4 0.8 0.4h8.8c0.3 0 0.6-0.1 0.8-0.4 0.2-0.2 0.3-0.5 0.4-0.8v-57.2c-0.1-0.3-0.2-0.6-0.4-0.8-0.2-0.3-0.5-0.4-0.8-0.4z" fill="#fff"></path></svg>