<?xml version="1.0"?><svg width="100" height="100" viewBox="0 0 100 100" xmlns="http://www.w3.org/2000/svg"><path d="m44.9 38.7c4.1 0 7.4 3.3 7.4 7.4 0 4.2-3.3 7.5-7.5 7.5-4.1 0-7.4-3.4-7.4-7.5 0-2 0.8-3.9 2.2-5.3 1.4-1.4 3.3-2.2 5.3-2.1z m0.5 31.4c0.5-0.2 1.2-0.6 1.9-1 1.9-1.1 3.9-2 5.9-2.8-0.6-1.2-1.1-2.5-1.6-3.8 0-0.1-0.1-0.2-0.1-0.3-2.1 0.9-4.3 1.4-6.6 1.4-9.5 0-17.2-7.6-17.5-17-0.2-9.5 7.2-17.4 16.6-17.9 9.5-0.4 17.6 6.7 18.2 16.2 4 0.4 6.2 2.3 7.3 4.5 0.2-1.1 0.3-2.2 0.3-3.3 0-13.6-10.9-24.7-24.5-24.9-13.6-0.2-24.9 10.5-25.3 24.1-0.4 13.6 10.2 25 23.8 25.6 0.5-0.2 1-0.5 1.6-0.8v0z m29.9 2.3c-2.4-1.1-5.8-3.7-10.9-4.6 1.3-1.4 2.3-3.6 3.3-6.2 0.6-1.5 0.5-2.8 0.5-4.6 0-1.3 0.2-3.5-0.1-4.7-1.1-4-4-5.1-7.3-5.1-3.3 0-6.2 1.1-7.3 5.1-0.3 1.2-0.1 3.4-0.1 4.7 0 1.9-0.1 3.1 0.5 4.6 1 2.6 2 4.8 3.3 6.2-5.1 0.9-8.5 3.6-10.9 4.6-4.7 2.1-4.8 4.5-4.8 4.5v3.9h38.5v-3.9c0 0 0-2.4-4.8-4.5l0.1 0z" fill="#fff"></path></svg>