<svg id="Layer_1" xmlns="http://www.w3.org/2000/svg" xmlns:xlink="http://www.w3.org/1999/xlink" width="1665.3" height="491"><style>.st0{clip-path:url(#SVGID_2_);fill:none;stroke:#D8DDE6;stroke-width:2;stroke-miterlimit:10;} .st1{clip-path:url(#SVGID_4_);} .st2{clip-path:url(#SVGID_6_);fill-rule:evenodd;clip-rule:evenodd;fill:#FFFFFF;} .st3{clip-path:url(#SVGID_8_);fill:none;stroke:#D8DDE6;stroke-width:2;stroke-miterlimit:10;} .st4{clip-path:url(#SVGID_10_);fill:none;stroke:#D8DDE6;stroke-width:2;stroke-miterlimit:10;} .st5{clip-path:url(#SVGID_12_);fill:#00A1E0;} .st6{clip-path:url(#SVGID_14_);fill:#FFFFFE;} .st7{clip-path:url(#SVGID_16_);fill:#FFFFFE;} .st8{clip-path:url(#SVGID_18_);fill:#FFFFFE;} .st9{clip-path:url(#SVGID_20_);fill:#FFFFFE;} .st10{clip-path:url(#SVGID_22_);fill:#FFFFFE;} .st11{clip-path:url(#SVGID_24_);fill:#FFFFFE;} .st12{clip-path:url(#SVGID_26_);fill:#FFFFFE;} .st13{clip-path:url(#SVGID_28_);fill:#FFFFFE;} .st14{clip-path:url(#SVGID_30_);fill:#FFFFFE;} .st15{clip-path:url(#SVGID_32_);fill:#FFFFFE;} .st16{clip-path:url(#SVGID_34_);} .st17{clip-path:url(#SVGID_36_);fill-rule:evenodd;clip-rule:evenodd;fill:#F4F6F9;} .st18{clip-path:url(#SVGID_38_);fill:none;stroke:#CCCFD7;stroke-width:2;stroke-miterlimit:10;} .st19{clip-path:url(#SVGID_40_);} .st20{clip-path:url(#SVGID_42_);fill-rule:evenodd;clip-rule:evenodd;fill:#E9ECF1;} .st21{clip-path:url(#SVGID_44_);fill:none;stroke:#C5C7CB;stroke-width:2;stroke-miterlimit:10;} .st22{clip-path:url(#SVGID_46_);} .st23{clip-path:url(#SVGID_48_);fill-rule:evenodd;clip-rule:evenodd;fill:#E9ECF1;} .st24{clip-path:url(#SVGID_50_);fill:none;stroke:#C5C7CB;stroke-width:2;stroke-miterlimit:10;} .st25{clip-path:url(#SVGID_52_);fill:#FFFFFF;} .st26{clip-path:url(#SVGID_54_);fill:#FFFFFF;} .st27{clip-path:url(#SVGID_56_);fill:#18315C;} .st28{clip-path:url(#SVGID_58_);fill:#18315C;} .st29{fill:none;stroke:#0058A6;stroke-width:4;stroke-linecap:square;stroke-miterlimit:10;} .st30{clip-path:url(#SVGID_60_);fill:#18315C;} .st31{clip-path:url(#SVGID_62_);fill:#18315C;} .st32{clip-path:url(#SVGID_64_);fill:#18315C;} .st33{clip-path:url(#SVGID_66_);fill:#18315C;} .st34{fill:none;stroke:#0058A6;stroke-width:2;stroke-linecap:square;stroke-miterlimit:10;} .st35{clip-path:url(#SVGID_68_);fill:#18315C;} .st36{clip-path:url(#SVGID_70_);fill:#18315C;} .st37{clip-path:url(#SVGID_72_);fill:#18315C;} .st38{clip-path:url(#SVGID_74_);fill:#18315C;}</style><defs><path id="SVGID_1_" d="M55.7 28.5c0-4.4 3.6-8 8-8h1424c4.4 0 8 3.6 8 8v368c0 4.4-3.6 8-8 8H63.7c-4.4 0-8-3.6-8-8v-368z"/></defs><clipPath id="SVGID_2_"><use xlink:href="#SVGID_1_" overflow="visible"/></clipPath><path class="st0" d="M55.7 28.5c0-4.4 3.6-8 8-8h1424c4.4 0 8 3.6 8 8v368c0 4.4-3.6 8-8 8H63.7c-4.4 0-8-3.6-8-8v-368z"/><defs><path id="SVGID_3_" d="M55.2 28.5V106h1441V28.5c0-4.7-3.8-8.5-8.5-8.5H63.7c-4.7 0-8.5 3.8-8.5 8.5zm1 0c0-4.1 3.4-7.5 7.5-7.5h1424c4.1 0 7.5 3.4 7.5 7.5v77l.5-.5H55.7l.5.5v-77zM35.2 0h1481v126H35.2V0z"/></defs><clipPath id="SVGID_4_"><use xlink:href="#SVGID_3_" overflow="visible"/></clipPath><g class="st1"><defs><path id="SVGID_5_" d="M55.7 28.5c0-4.4 3.6-8 8-8h1424c4.4 0 8 3.6 8 8v77H55.7v-77z"/></defs><clipPath id="SVGID_6_"><use xlink:href="#SVGID_5_" overflow="visible"/></clipPath><path class="st2" d="M55.7 28.5c0-4.4 3.6-8 8-8h1424c4.4 0 8 3.6 8 8v77H55.7v-77z"/></g><defs><path id="SVGID_7_" d="M55.7 28.5c0-4.4 3.6-8 8-8h1424c4.4 0 8 3.6 8 8v77H55.7v-77z"/></defs><clipPath id="SVGID_8_"><use xlink:href="#SVGID_7_" overflow="visible"/></clipPath><path class="st3" d="M55.7 28.5c0-4.4 3.6-8 8-8h1424c4.4 0 8 3.6 8 8v77H55.7v-77z"/><defs><path id="SVGID_9_" d="M514.7 47.5c0-2.2 1.8-4 4-4h520c2.2 0 4 1.8 4 4v29c0 2.2-1.8 4-4 4h-520c-2.2 0-4-1.8-4-4v-29z"/></defs><clipPath id="SVGID_10_"><use xlink:href="#SVGID_9_" overflow="visible"/></clipPath><path class="st4" d="M514.7 47.5c0-2.2 1.8-4 4-4h520c2.2 0 4 1.8 4 4v29c0 2.2-1.8 4-4 4h-520c-2.2 0-4-1.8-4-4v-29z"/><defs><path id="SVGID_11_" d="M121 33.4c5.7 0 10.8 3.2 13.4 7.8 2.3-1 4.9-1.6 7.6-1.6 10.4 0 18.8 8.3 18.8 18.6s-8.4 18.6-18.8 18.6c-1.3 0-2.5-.1-3.7-.4-2.3 4.1-6.8 6.9-12 6.9-2.2 0-4.2-.5-6-1.4-2.4 5.5-7.9 9.4-14.4 9.4-6.7 0-12.5-4.2-14.7-10.1-1 .2-2 .3-3 .3-8 0-14.5-6.5-14.5-14.5 0-5.4 2.9-10 7.3-12.5-.9-2-1.4-4.3-1.4-6.6 0-9.2 7.6-16.6 16.9-16.6 5.5 0 10.3 2.6 13.4 6.5 2.8-2.6 6.7-4.4 11.1-4.4z"/></defs><clipPath id="SVGID_12_"><use xlink:href="#SVGID_11_" overflow="visible"/></clipPath><path class="st5" d="M68.7 26.5h97v70h-97z"/><defs><path id="SVGID_13_" d="M86.3 62.6c-.1.1 0 .2 0 .2.2.1.3.2.5.3.9.5 1.7.6 2.6.6 1.8 0 2.9-.9 2.9-2.4 0-1.4-1.3-1.9-2.4-2.3h-.2c-.9-.3-1.6-.5-1.6-1.1 0-.5.4-.9 1.1-.9.8 0 1.7.3 2.3.6 0 0 .2.1.2-.1 0-.1.3-.9.4-1 0-.1 0-.2-.1-.2-.7-.4-1.6-.7-2.6-.7h-.2c-1.6 0-2.8 1-2.8 2.4 0 1.5 1.3 1.9 2.4 2.3l.2.1c.9.3 1.6.5 1.6 1.1 0 .5-.5.9-1.3.9-.3 0-1.3 0-2.3-.7-.1-.1-.2-.1-.3-.2-.1 0-.2-.1-.2.1l-.2 1"/></defs><clipPath id="SVGID_14_"><use xlink:href="#SVGID_13_" overflow="visible"/></clipPath><path class="st6" d="M81.3 50.6h16v18.1h-16z"/><defs><path id="SVGID_15_" d="M112.4 62.6c-.1.1 0 .2 0 .2.2.1.3.2.5.3.9.5 1.7.6 2.6.6 1.8 0 2.9-.9 2.9-2.4 0-1.4-1.3-1.9-2.4-2.3h-.2c-.9-.3-1.6-.5-1.6-1.1 0-.5.4-.9 1.1-.9.8 0 1.7.3 2.3.6 0 0 .2.1.2-.1 0-.1.3-.9.4-1 0-.1 0-.2-.1-.2-.7-.4-1.6-.7-2.6-.7h-.2c-1.6 0-2.8 1-2.8 2.4 0 1.5 1.3 1.9 2.4 2.3l.2.1c.9.3 1.6.5 1.6 1.1 0 .5-.5.9-1.3.9-.3 0-1.3 0-2.3-.7-.1-.1-.2-.1-.3-.2 0 0-.2-.1-.2.1l-.2 1"/></defs><clipPath id="SVGID_16_"><use xlink:href="#SVGID_15_" overflow="visible"/></clipPath><path class="st7" d="M107.4 50.6h16v18.1h-16z"/><defs><path id="SVGID_17_" d="M130.3 59.7c0 .9-.2 1.5-.5 2s-.8.7-1.5.7-1.1-.2-1.4-.7c-.3-.5-.5-1.1-.5-2 0-.9.2-1.5.5-2s.8-.7 1.4-.7c.7 0 1.1.2 1.5.7.3.4.5 1.1.5 2m1.5-1.6c-.1-.5-.4-.9-.7-1.3-.3-.4-.7-.6-1.1-.9-.5-.2-1-.3-1.6-.3s-1.1.1-1.6.3c-.5.2-.8.5-1.1.9-.3.4-.5.8-.7 1.3-.1.5-.2 1-.2 1.6 0 .6.1 1.1.2 1.6s.4.9.7 1.3c.3.4.7.6 1.1.9.5.2 1 .3 1.6.3.6 0 1.1-.1 1.6-.3.5-.2.8-.5 1.1-.9.3-.4.5-.8.7-1.3.1-.5.2-1 .2-1.6s-.1-1.1-.2-1.6"/></defs><clipPath id="SVGID_18_"><use xlink:href="#SVGID_17_" overflow="visible"/></clipPath><path class="st8" d="M119.7 50.6H137v18h-17.3z"/><defs><path id="SVGID_19_" d="M144 62.1c0-.1-.2-.1-.2-.1-.2.1-.4.2-.7.2-.2 0-.5.1-.8.1-.7 0-1.3-.2-1.7-.6-.4-.4-.6-1.1-.6-2 0-.8.2-1.5.6-1.9.4-.5.9-.7 1.7-.7.6 0 1.1.1 1.6.2 0 0 .1.1.2-.1.1-.4.2-.6.4-1 0-.1-.1-.2-.1-.2-.2-.1-.6-.2-1-.2-.3 0-.7-.1-1.1-.1-.6 0-1.2.1-1.7.3-.5.2-.9.5-1.2.9-.3.4-.6.8-.7 1.3-.2.5-.2 1-.2 1.6 0 1.2.3 2.2 1 2.9.7.7 1.6 1.1 2.9 1.1.8 0 1.5-.2 2.1-.4 0 0 .1-.1.1-.2l-.6-1.1"/></defs><clipPath id="SVGID_20_"><use xlink:href="#SVGID_19_" overflow="visible"/></clipPath><path class="st9" d="M133.3 50.6h16.1v18h-16.1z"/><defs><path id="SVGID_21_" d="M146.6 58.9c.1-.5.2-.9.4-1.2.3-.5.8-.7 1.4-.7.7 0 1.1.3 1.4.7.2.3.3.7.3 1.2h-3.5zm5-1.1c-.1-.5-.4-.9-.6-1.2-.3-.3-.6-.6-1-.7-.4-.2-.9-.3-1.4-.3-.6 0-1.2.1-1.7.3-.5.2-.9.5-1.2.9-.3.4-.5.8-.7 1.3-.1.5-.2 1-.2 1.6 0 .6.1 1.1.2 1.6.2.5.4.9.7 1.3.3.4.8.6 1.3.8.5.2 1.1.3 1.8.3 1.5 0 2.2-.3 2.5-.5.1 0 .1-.1 0-.2l-.3-.9c-.1-.1-.2-.1-.2-.1-.4.1-.9.4-2.1.4-.8 0-1.4-.2-1.7-.6-.4-.4-.6-.9-.6-1.7h5s.1 0 .1-.1c.3-.1.5-1.1.1-2.2z"/></defs><clipPath id="SVGID_22_"><use xlink:href="#SVGID_21_" overflow="visible"/></clipPath><path class="st10" d="M139.8 50.6h17v18h-17z"/><defs><path id="SVGID_23_" d="M106.2 58.9c.1-.5.2-.9.4-1.2.3-.5.8-.7 1.4-.7.7 0 1.1.3 1.4.7.2.3.3.7.3 1.2h-3.5zm5-1.1c-.1-.5-.4-.9-.6-1.2-.3-.3-.6-.6-1-.7-.4-.2-.9-.3-1.4-.3-.6 0-1.2.1-1.7.3-.5.2-.9.5-1.2.9-.3.4-.5.8-.7 1.3-.1.5-.2 1-.2 1.6 0 .6.1 1.1.2 1.6.2.5.4.9.7 1.3.3.4.8.6 1.3.8.5.2 1.1.3 1.8.3 1.5 0 2.2-.3 2.5-.5.1 0 .1-.1 0-.2l-.3-.9c-.1-.1-.2-.1-.2-.1-.4.1-.9.4-2.1.4-.8 0-1.4-.2-1.7-.6-.4-.4-.6-.9-.6-1.7h5s.1 0 .1-.1c.3-.1.5-1.1.1-2.2z"/></defs><clipPath id="SVGID_24_"><use xlink:href="#SVGID_23_" overflow="visible"/></clipPath><path class="st11" d="M99.5 50.6h17v18h-17z"/><defs><path id="SVGID_25_" d="M95.3 62.1l-.3-.3c-.1-.2-.2-.4-.2-.6 0-.4.1-.8.4-1 0 0 .4-.4 1.5-.4.7 0 1.4.1 1.4.1v2.3s-.6.1-1.4.2c-.9.1-1.4-.3-1.4-.3zm2-3.5h-.8c-.4 0-.8.1-1.2.2-.4.1-.7.3-1.1.5-.3.2-.6.5-.7.8-.2.3-.3.7-.3 1.1 0 .4.1.8.2 1.1.2.3.4.6.7.8.3.2.6.3 1 .4.4.1.8.1 1.3.1s1 0 1.5-.1 1.1-.2 1.3-.2c.2 0 .4-.1.4-.1.1 0 .1-.2.1-.2v-4.5c0-1-.3-1.7-.8-2.2-.5-.5-1.3-.7-2.3-.7-.4 0-1 .1-1.4.1 0 0-1.1.2-1.6.6 0 0-.1.1 0 .2l.4.9c0 .1.2.1.2.1h.1c1-.5 2.2-.5 2.2-.5.5 0 1 .1 1.2.3.3.2.4.5.4 1.2v.2c-.4-.1-.8-.1-.8-.1z"/></defs><clipPath id="SVGID_26_"><use xlink:href="#SVGID_25_" overflow="visible"/></clipPath><path class="st12" d="M88.2 50.6h16.5v18H88.2z"/><defs><path id="SVGID_27_" d="M138 56.1c0-.1 0-.2-.1-.2s-.5-.1-.8-.1c-.6 0-1 .1-1.3.2-.3.1-.7.4-.9.6V56c0-.1-.1-.2-.1-.2h-1.3c-.1 0-.1.1-.1.2v7.4c0 .1.1.2.2.2h1.3c.1 0 .2-.1.2-.2v-3.7c0-.5.1-1 .2-1.3.1-.3.3-.6.4-.7.2-.2.4-.3.6-.4.2-.1.5-.1.7-.1.3 0 .6.1.6.1.1 0 .2 0 .2-.1-.1-.3.2-1 .2-1.1"/></defs><clipPath id="SVGID_28_"><use xlink:href="#SVGID_27_" overflow="visible"/></clipPath><path class="st13" d="M128.3 50.7H143v17.8h-14.7z"/><defs><path id="SVGID_29_" d="M125.6 52.6c-.2 0-.3-.1-.5-.1s-.4-.1-.7-.1c-.9 0-1.6.3-2.1.8s-.8 1.3-1 2.3l-.1.3H120s-.1 0-.2.1l-.2 1c0 .1 0 .2.2.2h1.1l-1.1 6.2c-.1.5-.2.9-.3 1.2-.1.3-.2.5-.4.7-.1.2-.3.3-.5.4-.2.1-.4.1-.6.1h-.4c-.1 0-.2 0-.3-.1 0 0-.1 0-.2.1 0 .1-.3.9-.4 1 0 .1 0 .2.1.2.1.1.3.1.5.1.3.1.5.1.7.1.5 0 .9-.1 1.2-.2.4-.1.7-.3.9-.6.3-.3.5-.7.7-1.1.2-.5.3-1 .4-1.7l1.1-6.3h1.7s.1 0 .2-.1l.2-1c0-.1 0-.2-.2-.2h-1.6s.1-.6.3-1.1c.1-.2.2-.4.4-.5.1-.1.3-.2.4-.3.2-.1.3-.1.5-.1h.4c.2 0 .2 0 .3.1.2 0 .2 0 .2-.1l.4-1c.2-.2.1-.3.1-.3"/></defs><clipPath id="SVGID_30_"><use xlink:href="#SVGID_29_" overflow="visible"/></clipPath><path class="st14" d="M111.9 47.4h18.8V72h-18.8z"/><defs><path id="SVGID_31_" d="M103 63.4c0 .1-.1.2-.1.2h-1.3c-.1 0-.1-.1-.1-.2V52.8c0-.1.1-.2.1-.2h1.3c.1 0 .1.1.1.2v10.6"/></defs><clipPath id="SVGID_32_"><use xlink:href="#SVGID_31_" overflow="visible"/></clipPath><path class="st15" d="M96.4 47.6H108v20.9H96.4z"/><g><defs><path id="SVGID_33_" d="M68.2 123.5v261.1c0 2.5 2 4.5 4.5 4.5h1404c2.5 0 4.5-2 4.5-4.5V123.5c0-2.5-2-4.5-4.5-4.5H72.7c-2.5 0-4.5 2-4.5 4.5zm1 0c0-1.9 1.6-3.5 3.5-3.5h1404c1.9 0 3.5 1.6 3.5 3.5v261.1c0 1.9-1.6 3.5-3.5 3.5H72.7c-1.9 0-3.5-1.6-3.5-3.5V123.5zM48.2 99h1453v310.1H48.2V99z"/></defs><clipPath id="SVGID_34_"><use xlink:href="#SVGID_33_" overflow="visible"/></clipPath><g class="st16"><defs><path id="SVGID_35_" d="M68.7 123.5c0-2.2 1.8-4 4-4h1404c2.2 0 4 1.8 4 4v261.1c0 2.2-1.8 4-4 4H72.7c-2.2 0-4-1.8-4-4V123.5z"/></defs><clipPath id="SVGID_36_"><use xlink:href="#SVGID_35_" overflow="visible"/></clipPath><path class="st17" d="M68.7 123.5c0-2.2 1.8-4 4-4h1404c2.2 0 4 1.8 4 4v261.1c0 2.2-1.8 4-4 4H72.7c-2.2 0-4-1.8-4-4V123.5z"/></g></g><g><defs><path id="SVGID_37_" d="M68.7 123.5c0-2.2 1.8-4 4-4h1404c2.2 0 4 1.8 4 4v261.1c0 2.2-1.8 4-4 4H72.7c-2.2 0-4-1.8-4-4V123.5z"/></defs><clipPath id="SVGID_38_"><use xlink:href="#SVGID_37_" overflow="visible"/></clipPath><path class="st18" d="M68.7 123.5c0-2.2 1.8-4 4-4h1404c2.2 0 4 1.8 4 4v261.1c0 2.2-1.8 4-4 4H72.7c-2.2 0-4-1.8-4-4V123.5z"/></g><g><defs><path id="SVGID_39_" d="M89.2 144.4v220.2c0 2.5 2 4.5 4.5 4.5h642c2.5 0 4.5-2 4.5-4.5V144.4c0-2.5-2-4.5-4.5-4.5h-642c-2.5 0-4.5 2-4.5 4.5zm1 0c0-1.9 1.6-3.5 3.5-3.5h642c1.9 0 3.5 1.6 3.5 3.5v220.2c0 1.9-1.6 3.5-3.5 3.5h-642c-1.9 0-3.5-1.6-3.5-3.5V144.4zm-21-24.5h691v269.2h-691V119.9z"/></defs><clipPath id="SVGID_40_"><use xlink:href="#SVGID_39_" overflow="visible"/></clipPath><g class="st19"><defs><path id="SVGID_41_" d="M89.7 144.4c0-2.2 1.8-4 4-4h642c2.2 0 4 1.8 4 4v220.2c0 2.2-1.8 4-4 4h-642c-2.2 0-4-1.8-4-4V144.4z"/></defs><clipPath id="SVGID_42_"><use xlink:href="#SVGID_41_" overflow="visible"/></clipPath><path class="st20" d="M89.7 144.4c0-2.2 1.8-4 4-4h642c2.2 0 4 1.8 4 4v220.2c0 2.2-1.8 4-4 4h-642c-2.2 0-4-1.8-4-4V144.4z"/></g></g><g><defs><path id="SVGID_43_" d="M89.7 144.4c0-2.2 1.8-4 4-4h642c2.2 0 4 1.8 4 4v220.2c0 2.2-1.8 4-4 4h-642c-2.2 0-4-1.8-4-4V144.4z"/></defs><clipPath id="SVGID_44_"><use xlink:href="#SVGID_43_" overflow="visible"/></clipPath><path class="st21" d="M89.7 144.4c0-2.2 1.8-4 4-4h642c2.2 0 4 1.8 4 4v220.2c0 2.2-1.8 4-4 4h-642c-2.2 0-4-1.8-4-4V144.4z"/></g><g><defs><path id="SVGID_45_" d="M816.7 144.1v220.2c0 2.5 2 4.5 4.5 4.5h632c2.5 0 4.5-2 4.5-4.5V144.1c0-2.5-2-4.5-4.5-4.5h-632c-2.5 0-4.5 2-4.5 4.5zm1 0c0-1.9 1.6-3.5 3.5-3.5h632c1.9 0 3.5 1.6 3.5 3.5v220.2c0 1.9-1.6 3.5-3.5 3.5h-632c-1.9 0-3.5-1.6-3.5-3.5V144.1zm-21-24.5h681v269.2h-681V119.6z"/></defs><clipPath id="SVGID_46_"><use xlink:href="#SVGID_45_" overflow="visible"/></clipPath><g class="st22"><defs><path id="SVGID_47_" d="M817.2 144.1c0-2.2 1.8-4 4-4h632c2.2 0 4 1.8 4 4v220.2c0 2.2-1.8 4-4 4h-632c-2.2 0-4-1.8-4-4V144.1z"/></defs><clipPath id="SVGID_48_"><use xlink:href="#SVGID_47_" overflow="visible"/></clipPath><path class="st23" d="M817.2 144.1c0-2.2 1.8-4 4-4h632c2.2 0 4 1.8 4 4v220.2c0 2.2-1.8 4-4 4h-632c-2.2 0-4-1.8-4-4V144.1z"/></g></g><g><defs><path id="SVGID_49_" d="M817.2 144.1c0-2.2 1.8-4 4-4h632c2.2 0 4 1.8 4 4v220.2c0 2.2-1.8 4-4 4h-632c-2.2 0-4-1.8-4-4V144.1z"/></defs><clipPath id="SVGID_50_"><use xlink:href="#SVGID_49_" overflow="visible"/></clipPath><path class="st24" d="M817.2 144.1c0-2.2 1.8-4 4-4h632c2.2 0 4 1.8 4 4v220.2c0 2.2-1.8 4-4 4h-632c-2.2 0-4-1.8-4-4V144.1z"/></g><g><defs><path id="SVGID_51_" d="M357.7 123.5c0-2.8 2.2-5 5-5h104c2.8 0 5 2.2 5 5s-2.2 5-5 5h-104c-2.7 0-5-2.2-5-5z"/></defs><clipPath id="SVGID_52_"><use xlink:href="#SVGID_51_" overflow="visible"/></clipPath><path class="st25" d="M352.7 113.5h124v20h-124z"/></g><g><defs><path id="SVGID_53_" d="M1079.7 123.5c0-2.8 2.2-5 5-5h104c2.8 0 5 2.2 5 5s-2.2 5-5 5h-104c-2.7 0-5-2.2-5-5z"/></defs><clipPath id="SVGID_54_"><use xlink:href="#SVGID_53_" overflow="visible"/></clipPath><path class="st26" d="M1074.7 113.5h124v20h-124z"/></g><g><defs><path id="SVGID_55_" d="M465.8 119.1c0-.4 0-1-.1-1.9h1.9c.1.4.1.8.1 1.2.5-.9 1.3-1.4 2.5-1.4.2 0 .4 0 .5.1l-.1 1.7h-.6c-.7 0-1.3.2-1.6.7-.4.5-.6 1-.6 1.7v4.4h-2v-6.5zm-3.9 1.5c0-.6-.2-1.1-.5-1.5-.3-.4-.8-.6-1.4-.6-.6 0-1.1.2-1.4.6s-.5.9-.6 1.5h3.9zm1.9 1.5H458c.1.7.3 1.2.7 1.5.4.4.9.5 1.6.5.5 0 .9-.1 1.2-.2.4-.1.7-.3 1.1-.6l.9 1.3c-.5.4-1 .6-1.5.8-.5.2-1.2.3-1.8.3-.9 0-1.6-.2-2.3-.5s-1.1-.9-1.4-1.5c-.3-.7-.5-1.4-.5-2.3 0-1.3.3-2.4 1-3.2.7-.8 1.7-1.2 3-1.2s2.2.4 2.9 1.2c.7.8 1 1.9 1 3.2 0 .2 0 .4-.1.7zm-17.4-3c0-.4 0-1-.1-1.9h1.9c.1.3.1.7.1 1 .3-.4.6-.6 1.1-.9s1-.3 1.6-.3c.7 0 1.3.1 1.7.4.5.3.8.7 1 1.1.2.5.3 1 .3 1.5v5.5h-2v-5.1c0-.5-.1-1-.4-1.3s-.7-.5-1.3-.5c-.6 0-1.1.2-1.5.6-.4.4-.5 1-.5 1.6v4.6h-2v-6.3zm-4.7-4.5c0-.8.4-1.2 1.2-1.2.4 0 .8.1.9.3.2.2.3.5.3.8 0 .3-.1.6-.3.8-.2.2-.5.3-.9.3s-.8-.1-.9-.3c-.2-.1-.3-.4-.3-.7zm2.2 10.9h-2v-8.3h2v8.3zm-6.4-3.2v-.7h-.6c-.9 0-1.6.1-2 .3-.4.2-.6.6-.6 1.1 0 .4.1.6.3.8.2.2.5.3.9.3s.7-.1 1.1-.3.6-.4.7-.7c.1-.2.2-.5.2-.8zm-5.3.9c0-1.1.4-1.8 1.2-2.3.8-.4 1.9-.6 3.3-.6h.8v-.4c0-.9-.6-1.3-1.7-1.3-.8 0-1.6.2-2.4.6l-.7-1.3c.4-.3 1-.5 1.5-.6.6-.2 1.1-.2 1.7-.2 1.3 0 2.2.3 2.8.9.6.6.8 1.4.8 2.6v3.2c0 .4 0 1 .1 1.9h-1.8c-.1-.4-.1-.8-.1-.9-.3.4-.7.7-1.1.9-.4.2-1 .3-1.6.3-.8 0-1.4-.2-1.9-.7s-.9-1.3-.9-2.1zm-3.2-5.9h2.1v1.5H429v4.1c0 .8.4 1.2 1.1 1.2.3 0 .5 0 .7-.1l.3 1.5c-.4.2-.9.2-1.5.2-.8 0-1.5-.2-1.9-.7s-.7-1.1-.7-1.9v-4.3h-1.4v-1.3l1.4-.2v-2l2-.7v2.7zm-12.4 1.8c0-.4 0-1-.1-1.9h1.9c.1.3.1.7.1 1 .3-.4.6-.6 1.1-.9s1-.3 1.6-.3c.7 0 1.3.1 1.7.4.5.3.8.7 1 1.1.2.5.3 1 .3 1.5v5.5h-2v-5.1c0-.5-.1-1-.4-1.3s-.7-.5-1.3-.5c-.6 0-1.1.2-1.5.6-.4.4-.5 1-.5 1.6v4.6h-2v-6.3zm-8.5 2.2c0 .9.2 1.5.5 2.1.4.5.9.8 1.7.8s1.4-.3 1.7-.8c.4-.5.5-1.2.5-2.1 0-.8-.2-1.5-.5-2s-.9-.7-1.7-.7c-.8 0-1.4.2-1.7.7s-.5 1.2-.5 2zm6.5 0c0 .9-.2 1.6-.5 2.3-.3.7-.8 1.2-1.5 1.6s-1.4.6-2.3.6c-.9 0-1.7-.2-2.3-.6s-1.1-.9-1.5-1.6c-.3-.7-.5-1.4-.5-2.3 0-.9.2-1.6.5-2.3s.8-1.2 1.5-1.5 1.4-.5 2.3-.5c.9 0 1.7.2 2.3.5s1.1.9 1.5 1.5c.4.7.5 1.4.5 2.3zm-9.4-6l-1.2 1.3c-.4-.3-.8-.5-1.2-.7-.5-.2-1-.3-1.5-.3-1.2 0-2.1.4-2.7 1.1-.6.8-.9 1.8-.9 3s.3 2.2.9 3c.6.8 1.5 1.1 2.7 1.1.6 0 1.1-.1 1.6-.3.5-.2.9-.5 1.3-.8l1.3 1.4c-.5.5-1.1.9-1.8 1.2-.7.3-1.5.4-2.4.4-1.2 0-2.2-.3-3.1-.8-.9-.5-1.5-1.2-1.9-2.1-.4-.9-.7-1.9-.7-3.1 0-1.2.2-2.2.7-3.1.4-.9 1.1-1.6 2-2.1s1.9-.7 3.1-.7c.8 0 1.5.1 2.2.4.6.3 1.2.6 1.6 1.1zm-17.9 6.6v-2.4c-.5-.6-1.2-.9-2-.9-.7 0-1.2.3-1.5.8s-.5 1.2-.5 2.1c0 .9.2 1.6.5 2s.8.7 1.4.7c.6 0 1.1-.2 1.5-.6.4-.5.6-1.1.6-1.7zm2.1 3.6h-1.9c-.1-.4-.1-.8-.1-1-.3.4-.7.7-1.1 1-.4.2-1 .3-1.7.3-1.2 0-2.1-.4-2.6-1.2-.6-.8-.9-1.8-.9-3.1 0-.8.2-1.6.5-2.2s.8-1.2 1.3-1.6c.6-.4 1.3-.6 2.1-.6.9 0 1.7.3 2.4.8v-3.6h2v9.4c-.1.4-.1 1 0 1.8zm-12.5-10.9c0-.8.4-1.2 1.2-1.2.4 0 .8.1.9.3.2.2.3.5.3.8 0 .3-.1.6-.3.8-.2.2-.5.3-.9.3s-.8-.1-.9-.3c-.2-.1-.3-.4-.3-.7zm2.2 10.9h-2v-8.3h2v8.3zm-8.3-6.4c0-.4 0-1-.1-1.9h1.9c.1.4.1.8.1 1.2.5-.9 1.3-1.4 2.5-1.4.2 0 .4 0 .5.1l-.1 1.7h-.6c-.7 0-1.3.2-1.6.7-.4.5-.6 1-.6 1.7v4.4h-2v-6.5zm-12.4.7c0-1.2.2-2.2.7-3.1.5-.9 1.1-1.6 2-2.1.9-.5 1.9-.7 3.1-.7.8 0 1.5.1 2.2.4.7.3 1.3.6 1.7 1.1l-1.2 1.3c-.4-.3-.8-.6-1.3-.7-.5-.2-1-.3-1.5-.3-1.2 0-2.2.4-2.8 1.1-.6.8-.9 1.8-.9 3 0 2.8 1.2 4.2 3.7 4.2.8 0 1.5-.2 2.3-.5V121h-2.3v-1.6h4.3v5.3c-1.3.7-2.7 1.1-4.2 1.1-1.2 0-2.3-.3-3.2-.8-.9-.5-1.5-1.2-2-2.1-.4-.8-.6-1.9-.6-3.1z"/></defs><clipPath id="SVGID_56_"><use xlink:href="#SVGID_55_" overflow="visible"/></clipPath><path class="st27" d="M353.4 108.4h122.3v22.4H353.4z"/></g><g><defs><path id="SVGID_57_" d="M1188.8 119.1c0-.4 0-1-.1-1.9h1.9c.1.4.1.8.1 1.2.5-.9 1.3-1.4 2.5-1.4.2 0 .4 0 .5.1l-.1 1.7h-.6c-.7 0-1.3.2-1.6.7-.4.5-.6 1-.6 1.7v4.4h-2v-6.5zm-3.9 1.5c0-.6-.2-1.1-.5-1.5-.3-.4-.8-.6-1.4-.6-.6 0-1.1.2-1.4.6-.3.4-.5.9-.6 1.5h3.9zm1.9 1.5h-5.8c.1.7.3 1.2.7 1.5s.9.5 1.6.5c.5 0 .9-.1 1.2-.2.4-.1.7-.3 1.1-.6l.9 1.3c-.5.4-1 .6-1.5.8s-1.2.3-1.8.3c-.9 0-1.6-.2-2.3-.5s-1.1-.9-1.4-1.5c-.3-.7-.5-1.4-.5-2.3 0-1.3.3-2.4 1-3.2.7-.8 1.7-1.2 3-1.2s2.2.4 2.9 1.2c.7.8 1 1.9 1 3.2 0 .2 0 .4-.1.7zm-17.4-3c0-.4 0-1-.1-1.9h1.9c.1.3.1.7.1 1 .3-.4.6-.6 1.1-.9s1-.3 1.6-.3c.7 0 1.3.1 1.7.4s.8.7 1 1.1c.2.5.3 1 .3 1.5v5.5h-2v-5.1c0-.5-.1-1-.4-1.3s-.7-.5-1.3-.5c-.6 0-1.1.2-1.5.6-.4.4-.5 1-.5 1.6v4.6h-2v-6.3zm-4.7-4.5c0-.8.4-1.2 1.2-1.2.4 0 .8.1.9.3.2.2.3.5.3.8 0 .3-.1.6-.3.8-.2.2-.5.3-.9.3s-.8-.1-.9-.3c-.2-.1-.3-.4-.3-.7zm2.2 10.9h-2v-8.3h2v8.3zm-6.4-3.2v-.7h-.6c-.9 0-1.6.1-2 .3-.4.2-.6.6-.6 1.1 0 .4.1.6.3.8.2.2.5.3.9.3s.7-.1 1.1-.3c.3-.2.6-.4.7-.7.1-.2.2-.5.2-.8zm-5.3.9c0-1.1.4-1.8 1.2-2.3.8-.4 1.9-.6 3.3-.6h.8v-.4c0-.9-.6-1.3-1.7-1.3-.8 0-1.6.2-2.4.6l-.7-1.3c.4-.3 1-.5 1.5-.6.6-.2 1.1-.2 1.7-.2 1.3 0 2.2.3 2.8.9.6.6.8 1.4.8 2.6v3.2c0 .4 0 1 .1 1.9h-1.8c-.1-.4-.1-.8-.1-.9-.3.4-.7.7-1.1.9-.4.2-1 .3-1.6.3-.8 0-1.4-.2-1.9-.7-.7-.7-.9-1.3-.9-2.1zm-3.2-5.9h2.1v1.5h-2.1v4.1c0 .8.4 1.2 1.1 1.2.3 0 .5 0 .7-.1l.3 1.5c-.4.2-.9.2-1.5.2-.8 0-1.5-.2-1.9-.7-.5-.5-.7-1.1-.7-1.9v-4.3h-1.4v-1.3l1.4-.2v-2l2-.7v2.7zm-12.4 1.8c0-.4 0-1-.1-1.9h1.9c.1.3.1.7.1 1 .3-.4.6-.6 1.1-.9s1-.3 1.6-.3c.7 0 1.3.1 1.7.4s.8.7 1 1.1.3 1 .3 1.5v5.5h-2v-5.1c0-.5-.1-1-.4-1.3-.3-.3-.7-.5-1.3-.5-.6 0-1.1.2-1.5.6-.4.4-.5 1-.5 1.6v4.6h-2v-6.3zm-8.5 2.2c0 .9.2 1.5.5 2.1.4.5.9.8 1.7.8.8 0 1.4-.3 1.7-.8.4-.5.5-1.2.5-2.1 0-.8-.2-1.5-.5-2-.4-.5-.9-.7-1.7-.7-.8 0-1.4.2-1.7.7s-.5 1.2-.5 2zm6.5 0c0 .9-.2 1.6-.5 2.3-.3.7-.8 1.2-1.5 1.6s-1.4.6-2.3.6-1.7-.2-2.3-.6-1.1-.9-1.5-1.6c-.3-.7-.5-1.4-.5-2.3 0-.9.2-1.6.5-2.3.3-.7.8-1.2 1.5-1.5s1.4-.5 2.3-.5 1.7.2 2.3.5 1.1.9 1.5 1.5c.4.7.5 1.4.5 2.3zm-9.4-6l-1.2 1.3c-.4-.3-.8-.5-1.2-.7-.5-.2-1-.3-1.5-.3-1.2 0-2.1.4-2.7 1.1-.6.8-.9 1.8-.9 3s.3 2.2.9 3c.6.8 1.5 1.1 2.7 1.1.6 0 1.1-.1 1.6-.3.5-.2.9-.5 1.3-.8l1.3 1.4c-.5.5-1.1.9-1.8 1.2-.7.3-1.5.4-2.4.4-1.2 0-2.2-.3-3.1-.8-.9-.5-1.5-1.2-1.9-2.1s-.7-1.9-.7-3.1c0-1.2.2-2.2.7-3.1s1.1-1.6 2-2.1c.9-.5 1.9-.7 3.1-.7.8 0 1.5.1 2.2.4.6.3 1.2.6 1.6 1.1zm-17.9 6.6v-2.4c-.5-.6-1.2-.9-2-.9-.7 0-1.2.3-1.5.8s-.5 1.2-.5 2.1c0 .9.2 1.6.5 2 .4.5.8.7 1.4.7.6 0 1.1-.2 1.5-.6s.6-1.1.6-1.7zm2.1 3.6h-1.9c-.1-.4-.1-.8-.1-1-.3.4-.7.7-1.1 1-.4.2-1 .3-1.7.3-1.2 0-2.1-.4-2.6-1.2-.6-.8-.9-1.8-.9-3.1 0-.8.2-1.6.5-2.2.3-.7.8-1.2 1.3-1.6.6-.4 1.3-.6 2.1-.6.9 0 1.7.3 2.4.8v-3.6h2v9.4c-.1.4-.1 1 0 1.8zm-12.5-10.9c0-.8.4-1.2 1.2-1.2.4 0 .8.1.9.3.2.2.3.5.3.8 0 .3-.1.6-.3.8-.2.2-.5.3-.9.3s-.8-.1-.9-.3c-.2-.1-.3-.4-.3-.7zm2.2 10.9h-2v-8.3h2v8.3zm-8.3-6.4c0-.4 0-1-.1-1.9h1.9c.1.4.1.8.1 1.2.5-.9 1.3-1.4 2.5-1.4.2 0 .4 0 .5.1l-.1 1.7h-.6c-.7 0-1.3.2-1.6.7s-.6 1-.6 1.7v4.4h-2v-6.5zm-12.4.7c0-1.2.2-2.2.7-3.1.5-.9 1.1-1.6 2-2.1s1.9-.7 3.1-.7c.8 0 1.5.1 2.2.4.7.3 1.3.6 1.7 1.1l-1.2 1.3c-.4-.3-.8-.6-1.3-.7-.5-.2-1-.3-1.5-.3-1.2 0-2.2.4-2.8 1.1-.6.8-.9 1.8-.9 3 0 2.8 1.2 4.2 3.7 4.2.8 0 1.5-.2 2.3-.5V121h-2.3v-1.6h4.3v5.3c-1.3.7-2.7 1.1-4.2 1.1-1.2 0-2.3-.3-3.2-.8s-1.5-1.2-2-2.1-.6-1.9-.6-3.1z"/></defs><clipPath id="SVGID_58_"><use xlink:href="#SVGID_57_" overflow="visible"/></clipPath><path class="st28" d="M1076.4 108.4h122.3v22.4h-122.3z"/></g><path class="st29" d="M58.2 250.5h1480M1538.2 250.5l-10.8-3v6l10.8-3zm-1480 0h1480M778.7 109v337.1M778.7 446.1l3-10.8h-6l3 10.8zm0-337.1v337.1"/><g><defs><path id="SVGID_59_" d="M435.2 313.1c0-.4 0-1-.1-1.9h1.9c.1.3.1.7.1.9.3-.4.6-.6 1.1-.8.4-.2 1-.3 1.5-.3 1.2 0 2.1.5 2.6 1.4.6-.9 1.6-1.4 2.8-1.4.7 0 1.3.2 1.7.5.5.3.8.7 1 1.2.2.5.3 1 .3 1.6v5.3h-2v-5c0-.6-.1-1-.4-1.4-.2-.3-.7-.5-1.2-.5-.6 0-1.1.2-1.4.7-.3.5-.5 1-.5 1.7v4.5h-2v-5.2c0-.5-.1-.9-.4-1.2-.3-.3-.7-.5-1.2-.5-.6 0-1.1.2-1.4.6-.3.4-.5 1-.5 1.6v4.6h-2v-6.4zm-3.9 1.5c0-.6-.2-1.1-.5-1.5s-.8-.6-1.4-.6c-.6 0-1.1.2-1.4.6-.3.4-.5.9-.6 1.5h3.9zm1.9 1.5h-5.8c.1.7.3 1.2.7 1.5s.9.5 1.6.5c.5 0 .9-.1 1.2-.2.4-.1.7-.3 1.1-.6l.9 1.3c-.5.4-1 .6-1.5.8-.5.2-1.2.3-1.8.3-.9 0-1.6-.2-2.3-.5-.6-.4-1.1-.9-1.4-1.5-.3-.7-.5-1.4-.5-2.3 0-1.3.3-2.4 1-3.2s1.7-1.2 3-1.2 2.2.4 2.9 1.2 1 1.9 1 3.2c-.1.2-.1.4-.1.7zm-10.8-4.8h2.1v1.5h-2.1v4.1c0 .8.4 1.2 1.1 1.2.3 0 .5 0 .7-.1l.3 1.5c-.4.2-.9.2-1.5.2-.8 0-1.5-.2-1.9-.7-.5-.5-.7-1.1-.7-1.9v-4.3H419v-1.3l1.4-.2v-2l2-.7v2.7zm-5.4 6.6h1.3v1.6h-4.7v-1.6h1.3v-8.2h-1.3v-1.5h4.7v1.5H417v8.2zm-11.7-2v-2.4c-.5-.6-1.2-.9-2-.9-.7 0-1.2.3-1.5.8s-.5 1.2-.5 2.1c0 .9.2 1.6.5 2 .4.5.8.7 1.4.7.6 0 1.1-.2 1.5-.6.4-.5.6-1.1.6-1.7zm2.1 3.6h-1.9c-.1-.4-.1-.8-.1-1-.3.4-.7.7-1.1 1s-1 .3-1.7.3c-1.2 0-2.1-.4-2.6-1.2-.6-.8-.9-1.8-.9-3.1 0-.8.2-1.6.5-2.2s.8-1.2 1.3-1.6 1.3-.6 2.1-.6c.9 0 1.7.3 2.4.8v-3.6h2v9.4c-.1.4-.1 1 0 1.8zm-12.5-10.9c0-.8.4-1.2 1.2-1.2.4 0 .8.1.9.3.2.2.3.5.3.8 0 .3-.1.6-.3.8-.2.2-.5.3-.9.3s-.8-.1-.9-.3c-.2-.1-.3-.4-.3-.7zm2.2 10.9h-2v-8.3h2v8.3zm-8.3-6.4c0-.4 0-1-.1-1.9h1.9c.1.4.1.8.1 1.2.5-.9 1.3-1.4 2.5-1.4.2 0 .4 0 .5.1l-.1 1.7h-.6c-.7 0-1.3.2-1.6.7-.4.5-.6 1-.6 1.7v4.4h-2v-6.5zm-12.4.7c0-1.2.2-2.2.7-3.1s1.1-1.6 2-2.1c.9-.5 1.9-.7 3.1-.7.8 0 1.5.1 2.2.4.7.3 1.3.6 1.7 1.1l-1.2 1.3c-.4-.3-.8-.6-1.3-.7-.5-.2-1-.3-1.5-.3-1.2 0-2.2.4-2.8 1.1s-.9 1.8-.9 3c0 2.8 1.2 4.2 3.7 4.2.8 0 1.5-.2 2.3-.5V315h-2.3v-1.6h4.3v5.3c-1.3.7-2.7 1.1-4.2 1.1-1.2 0-2.3-.3-3.2-.8-.9-.5-1.5-1.2-2-2.1-.4-.8-.6-1.9-.6-3.1z"/></defs><clipPath id="SVGID_60_"><use xlink:href="#SVGID_59_" overflow="visible"/></clipPath><path class="st30" d="M371.4 302.4h81.8v22.4h-81.8z"/></g><g><defs><path id="SVGID_61_" d="M1160.2 313.1c0-.4 0-1-.1-1.9h1.9c.1.3.1.7.1.9.3-.4.6-.6 1.1-.8s1-.3 1.5-.3c1.2 0 2.1.5 2.6 1.4.6-.9 1.6-1.4 2.8-1.4.7 0 1.3.2 1.7.5.5.3.8.7 1 1.2.2.5.3 1 .3 1.6v5.3h-2v-5c0-.6-.1-1-.4-1.4-.2-.3-.7-.5-1.2-.5-.6 0-1.1.2-1.4.7-.3.5-.5 1-.5 1.7v4.5h-2v-5.2c0-.5-.1-.9-.4-1.2-.3-.3-.7-.5-1.2-.5-.6 0-1.1.2-1.4.6-.3.4-.5 1-.5 1.6v4.6h-2v-6.4zm-3.9 1.5c0-.6-.2-1.1-.5-1.5-.3-.4-.8-.6-1.4-.6-.6 0-1.1.2-1.4.6-.3.4-.5.9-.6 1.5h3.9zm1.9 1.5h-5.8c.1.7.3 1.2.7 1.5.4.4.9.5 1.6.5.5 0 .9-.1 1.2-.2.4-.1.7-.3 1.1-.6l.9 1.3c-.5.4-1 .6-1.5.8-.5.2-1.2.3-1.8.3-.9 0-1.6-.2-2.3-.5-.6-.4-1.1-.9-1.4-1.5-.3-.7-.5-1.4-.5-2.3 0-1.3.3-2.4 1-3.2.7-.8 1.7-1.2 3-1.2s2.2.4 2.9 1.2 1 1.9 1 3.2c-.1.2-.1.4-.1.7zm-10.8-4.8h2.1v1.5h-2.1v4.1c0 .8.4 1.2 1.1 1.2.3 0 .5 0 .7-.1l.3 1.5c-.4.2-.9.2-1.5.2-.8 0-1.5-.2-1.9-.7-.5-.5-.7-1.1-.7-1.9v-4.3h-1.4v-1.3l1.4-.2v-2l2-.7v2.7zm-5.4 6.6h1.3v1.6h-4.7v-1.6h1.3v-8.2h-1.3v-1.5h4.7v1.5h-1.3v8.2zm-11.7-2v-2.4c-.5-.6-1.2-.9-2-.9-.7 0-1.2.3-1.5.8s-.5 1.2-.5 2.1c0 .9.2 1.6.5 2 .4.5.8.7 1.4.7.6 0 1.1-.2 1.5-.6.4-.5.6-1.1.6-1.7zm2.1 3.6h-1.9c-.1-.4-.1-.8-.1-1-.3.4-.7.7-1.1 1s-1 .3-1.7.3c-1.2 0-2.1-.4-2.6-1.2-.6-.8-.9-1.8-.9-3.1 0-.8.2-1.6.5-2.2.3-.7.8-1.2 1.3-1.6.6-.4 1.3-.6 2.1-.6.9 0 1.7.3 2.4.8v-3.6h2v9.4c-.1.4-.1 1 0 1.8zm-12.5-10.9c0-.8.4-1.2 1.2-1.2.4 0 .8.1.9.3.2.2.3.5.3.8 0 .3-.1.6-.3.8-.2.2-.5.3-.9.3s-.8-.1-.9-.3c-.2-.1-.3-.4-.3-.7zm2.2 10.9h-2v-8.3h2v8.3zm-8.3-6.4c0-.4 0-1-.1-1.9h1.9c.1.4.1.8.1 1.2.5-.9 1.3-1.4 2.5-1.4.2 0 .4 0 .5.1l-.1 1.7h-.6c-.7 0-1.3.2-1.6.7s-.6 1-.6 1.7v4.4h-2v-6.5zm-12.4.7c0-1.2.2-2.2.7-3.1s1.1-1.6 2-2.1 1.9-.7 3.1-.7c.8 0 1.5.1 2.2.4.7.3 1.3.6 1.7 1.1l-1.2 1.3c-.4-.3-.8-.6-1.3-.7-.5-.2-1-.3-1.5-.3-1.2 0-2.2.4-2.8 1.1s-.9 1.8-.9 3c0 2.8 1.2 4.2 3.7 4.2.8 0 1.5-.2 2.3-.5V315h-2.3v-1.6h4.3v5.3c-1.3.7-2.7 1.1-4.2 1.1-1.2 0-2.3-.3-3.2-.8s-1.5-1.2-2-2.1-.6-1.9-.6-3.1z"/></defs><clipPath id="SVGID_62_"><use xlink:href="#SVGID_61_" overflow="visible"/></clipPath><path class="st31" d="M1096.4 302.4h81.8v22.4h-81.8z"/></g><g><defs><path id="SVGID_63_" d="M836.5 479l-1.2 1.9c-1-.6-2-.9-3-.9-.6 0-1.1.1-1.5.3-.4.2-.5.5-.5.9 0 .3.1.6.2.8.2.2.4.4.8.5.4.1.9.3 1.7.5 1.2.3 2.1.8 2.7 1.4.6.6.9 1.4.9 2.4 0 1.3-.5 2.3-1.5 3-1 .7-2.2 1.1-3.6 1.1-1.8 0-3.4-.5-4.6-1.4l1.3-1.9c.5.3 1 .6 1.5.7.5.2 1.1.2 1.6.2.7 0 1.2-.1 1.6-.4.4-.3.6-.6.6-1.2 0-.3-.1-.6-.2-.8-.2-.2-.4-.4-.8-.5-.4-.1-.9-.3-1.6-.5-1.2-.3-2.1-.8-2.7-1.3-.6-.6-.9-1.4-.9-2.4 0-1.2.4-2.1 1.3-2.7s2.1-1 3.6-1c1.7 0 3.1.4 4.3 1.3zm-15.3-4.9c0-1.2.6-1.7 1.8-1.7.7 0 1.1.2 1.4.5.3.3.4.7.4 1.2s-.1.9-.4 1.2c-.3.3-.8.5-1.4.5-.7 0-1.1-.2-1.4-.5-.3-.3-.4-.7-.4-1.2zm3.3 16.4h-3V478h3v12.5zm-5 0h-3.6l-3.2-4.7-3.1 4.7H806l4.8-6.5-4.3-6h3.5l2.8 4.2 2.7-4.2h3.3l-4.2 6 4.9 6.5zm-24.3-6.1h5.3l-2.6-7.7-2.7 7.7zm6.1 2.4h-6.9l-1.4 3.7h-3.3l6.5-17h3.2l6.5 17h-3.4l-1.2-3.7zm-18.9-7.8l-1.2 1.9c-1-.6-2-.9-3-.9-.6 0-1.1.1-1.5.3s-.5.5-.5.9c0 .3.1.6.2.8.2.2.4.4.8.5s.9.3 1.7.5c1.2.3 2.1.8 2.7 1.4.6.6.9 1.4.9 2.4 0 1.3-.5 2.3-1.5 3s-2.2 1.1-3.6 1.1c-1.8 0-3.4-.5-4.6-1.4l1.3-1.9c.5.3 1 .6 1.5.7.5.2 1.1.2 1.6.2.7 0 1.2-.1 1.6-.4.4-.3.6-.6.6-1.2 0-.3-.1-.6-.2-.8-.2-.2-.4-.4-.8-.5-.4-.1-.9-.3-1.6-.5-1.2-.3-2.1-.8-2.7-1.3-.6-.6-.9-1.4-.9-2.4 0-1.2.4-2.1 1.3-2.7s2.1-1 3.6-1c1.6 0 3.1.4 4.3 1.3zm-11.1 0l-1.2 1.9c-1-.6-2-.9-3-.9-.6 0-1.1.1-1.5.3-.4.2-.5.5-.5.9 0 .3.1.6.2.8.2.2.4.4.8.5.4.1.9.3 1.7.5 1.2.3 2.1.8 2.7 1.4s.9 1.4.9 2.4c0 1.3-.5 2.3-1.5 3-1 .7-2.2 1.1-3.6 1.1-1.8 0-3.4-.5-4.6-1.4l1.3-1.9c.5.3 1 .6 1.5.7s1.1.2 1.6.2c.7 0 1.2-.1 1.6-.4.4-.3.6-.6.6-1.2 0-.3-.1-.6-.2-.8-.2-.2-.4-.4-.8-.5-.4-.1-.9-.3-1.6-.5-1.2-.3-2.1-.8-2.7-1.3-.6-.6-.9-1.4-.9-2.4 0-1.2.4-2.1 1.3-2.7s2.1-1 3.6-1c1.7 0 3.1.4 4.3 1.3zm-21.1 5.2c0 1.3.3 2.3.8 3.1.5.8 1.4 1.2 2.6 1.2s2-.4 2.6-1.2c.5-.8.8-1.8.8-3.1s-.3-2.3-.8-3c-.5-.7-1.4-1.1-2.6-1.1-1.2 0-2 .4-2.6 1.1-.5.7-.8 1.7-.8 3zm9.9 0c0 1.3-.3 2.4-.8 3.4s-1.3 1.8-2.3 2.3c-1 .6-2.1.8-3.5.8s-2.5-.3-3.5-.9c-1-.6-1.7-1.4-2.2-2.4-.5-1-.8-2.1-.8-3.4 0-1.3.3-2.5.8-3.4.5-1 1.3-1.7 2.2-2.3s2.1-.8 3.5-.8 2.5.3 3.5.8 1.7 1.3 2.2 2.3c.6 1.2.9 2.3.9 3.6zm-21.2-3.3c0-.6-.1-1.6-.2-2.9h2.9c.1.7.2 1.2.2 1.7.7-1.4 2-2.1 3.7-2.1.3 0 .5 0 .8.1l-.1 2.6c-.2 0-.5-.1-.9-.1-1.1 0-1.9.3-2.5 1-.6.7-.9 1.6-.9 2.6v6.6h-3v-9.5zm-2.6-5.7l-1.8 2c-.5-.5-1.2-.8-1.9-1.1-.7-.3-1.4-.4-2.2-.4-1.9 0-3.2.6-4.1 1.7-.9 1.1-1.3 2.6-1.3 4.5s.4 3.4 1.3 4.5 2.2 1.7 4 1.7c.8 0 1.6-.2 2.4-.5.7-.3 1.4-.7 1.9-1.2l1.9 2.1c-.7.7-1.6 1.3-2.7 1.8-1.1.4-2.3.7-3.5.7-1.8 0-3.4-.4-4.6-1.1-1.3-.8-2.2-1.8-2.9-3.2-.7-1.4-1-2.9-1-4.7 0-1.8.3-3.4 1-4.7.7-1.3 1.6-2.4 2.9-3.1 1.3-.7 2.8-1.1 4.6-1.1 1.2 0 2.3.2 3.4.6 1.1.3 1.9.8 2.6 1.5z"/></defs><clipPath id="SVGID_64_"><use xlink:href="#SVGID_63_" overflow="visible"/></clipPath><path class="st32" d="M716.8 467.4h124.9V496H716.8z"/></g><g><defs><path id="SVGID_65_" d="M1665.1 247l-1.2 1.9c-1-.6-2-.9-3-.9-.6 0-1.1.1-1.5.3-.4.2-.5.5-.5.9 0 .3.1.6.2.8.2.2.4.4.8.5s.9.3 1.7.5c1.2.3 2.1.8 2.7 1.4.6.6.9 1.4.9 2.4 0 1.3-.5 2.3-1.5 3-1 .7-2.2 1.1-3.6 1.1-1.8 0-3.4-.5-4.6-1.4l1.3-1.9c.5.3 1 .6 1.5.7.5.2 1.1.2 1.6.2.7 0 1.2-.1 1.6-.4.4-.3.6-.6.6-1.2 0-.3-.1-.6-.2-.8-.2-.2-.4-.4-.8-.5-.4-.1-.9-.3-1.6-.5-1.2-.3-2.1-.8-2.7-1.3-.6-.6-.9-1.4-.9-2.4 0-1.2.4-2.1 1.3-2.7.9-.7 2.1-1 3.6-1 1.6 0 3.1.4 4.3 1.3zm-15.4-4.9c0-1.2.6-1.7 1.8-1.7.7 0 1.1.2 1.4.5.3.3.4.7.4 1.2s-.1.9-.4 1.2c-.3.3-.8.5-1.4.5-.7 0-1.1-.2-1.4-.5-.2-.3-.4-.7-.4-1.2zm3.4 16.4h-3V246h3v12.5zm-5.1 0h-3.6l-3.2-4.7-3.1 4.7h-3.6l4.8-6.5-4.3-6h3.5l2.8 4.2 2.7-4.2h3.3l-4.2 6 4.9 6.5zm-24.3-6.1h5.3l-2.6-7.7-2.7 7.7zm6.1 2.4h-6.9l-1.4 3.7h-3.3l6.5-17h3.2l6.5 17h-3.4l-1.2-3.7zm-31.3-5.9c0-.6-.1-1.6-.2-2.9h2.9c.1.5.2 1 .2 1.4.4-.5 1-1 1.7-1.3.7-.3 1.5-.5 2.5-.5s1.9.2 2.6.6c.7.4 1.2 1 1.5 1.7.3.7.5 1.4.5 2.2v8.3h-3v-7.6c0-.8-.2-1.5-.6-2s-1-.8-2-.8c-.9 0-1.7.3-2.2.9-.5.6-.8 1.4-.8 2.4v6.9h-3v-9.3zm-7.1-6.8c0-1.2.6-1.7 1.8-1.7.7 0 1.1.2 1.4.5.3.3.4.7.4 1.2s-.1.9-.4 1.2c-.3.3-.8.5-1.4.5-.7 0-1.1-.2-1.4-.5-.2-.3-.4-.7-.4-1.2zm3.4 16.4h-3V246h3v12.5zm-9.7-4.8v-1h-.9c-1.4 0-2.4.2-3 .5-.6.3-.9.9-.9 1.6 0 .5.2 1 .5 1.3.3.3.8.4 1.3.4.6 0 1.1-.1 1.6-.4.5-.3.8-.6 1.1-1 .2-.5.3-.9.3-1.4zm-8 1.3c0-1.6.6-2.8 1.7-3.4 1.2-.6 2.8-1 5-1h1.2v-.6c0-1.3-.9-2-2.6-2-1.2 0-2.4.3-3.6 1l-1-2c.7-.4 1.4-.7 2.3-.9.8-.2 1.7-.3 2.5-.3 1.9 0 3.3.4 4.1 1.3.8.9 1.3 2.2 1.3 3.9v4.8c0 .6.1 1.6.2 2.9h-2.8c-.1-.7-.2-1.1-.2-1.4h-.1c-.4.6-1 1-1.6 1.3-.6.3-1.4.4-2.5.4-1.2 0-2.1-.3-2.9-1-.6-.8-1-1.8-1-3zm-2.8 3.5h-3.1l.1-13.4-5.2 13.4h-2.4l-5.2-13.4.1 13.4h-2.9v-17h4.6l4.6 12.7 4.8-12.7h4.6v17z"/></defs><clipPath id="SVGID_66_"><use xlink:href="#SVGID_65_" overflow="visible"/></clipPath><path class="st33" d="M1550.6 235.4h119.6v28.4h-119.6z"/></g><path class="st34" d="M56.7 400.4v43.1M44.2 443.5h25.5"/><g><defs><path id="SVGID_67_" d="M112.2 457.3h2.1v1.5h-2.1v4.1c0 .8.4 1.2 1.1 1.2.3 0 .5 0 .7-.1l.3 1.5c-.4.2-.9.2-1.5.2-.8 0-1.5-.2-1.9-.7-.5-.5-.7-1.1-.7-1.9v-4.3h-1.4v-1.3l1.4-.2v-2l2-.7v2.7zm-8.6 1.8c0-.4 0-1-.1-1.9h1.9c.1.4.1.8.1 1.2.5-.9 1.3-1.4 2.5-1.4.2 0 .4 0 .5.1l-.1 1.7h-.6c-.7 0-1.3.2-1.6.7-.4.5-.6 1-.6 1.7v4.4h-2v-6.5zm-4.4 3.2v-.7h-.6c-.9 0-1.6.1-2 .3-.4.2-.6.6-.6 1.1 0 .4.1.6.3.8.2.2.5.3.9.3s.7-.1 1.1-.3c.3-.2.6-.4.7-.7.1-.2.2-.5.2-.8zm-5.3.9c0-1.1.4-1.8 1.2-2.3.8-.4 1.9-.6 3.3-.6h.8v-.4c0-.9-.6-1.3-1.7-1.3-.8 0-1.6.2-2.4.6l-.7-1.3c.4-.3 1-.5 1.5-.6.6-.2 1.1-.2 1.7-.2 1.3 0 2.2.3 2.8.9.6.6.8 1.4.8 2.6v3.2c0 .4 0 1 .1 1.9h-1.8c-.1-.4-.1-.8-.1-.9-.3.4-.7.7-1.1.9-.4.2-1 .3-1.6.3-.8 0-1.4-.2-1.9-.7-.7-.7-.9-1.3-.9-2.1zm-3.2-5.9h2.1v1.5h-2.1v4.1c0 .8.4 1.2 1.1 1.2.3 0 .5 0 .7-.1l.3 1.5c-.4.2-.9.2-1.5.2-.8 0-1.5-.2-1.9-.7s-.7-1.1-.7-1.9v-4.3h-1.4v-1.3l1.4-.2v-2l2-.7v2.7zm-12.4 7.2l1-1.3c.4.3.9.5 1.4.7s1 .2 1.5.2c.7 0 1.2-.1 1.6-.4.4-.3.6-.7.6-1.2 0-.4-.1-.7-.3-1-.2-.2-.5-.4-.8-.6-.4-.1-.9-.3-1.5-.5-1-.3-1.8-.7-2.3-1.2s-.8-1.2-.8-2.1c0-.7.2-1.2.5-1.7.4-.5.8-.8 1.4-1.1s1.3-.4 2-.4c1.4 0 2.6.4 3.7 1.1l-.9 1.4c-.4-.3-.9-.5-1.3-.6-.4-.1-.9-.2-1.4-.2-.6 0-1.1.1-1.4.3-.4.2-.5.6-.5 1 0 .5.2.8.5 1.1.4.2 1 .5 1.8.7 1.1.3 2 .7 2.5 1.2s.9 1.3.9 2.3c0 .8-.2 1.4-.6 1.9-.4.5-.9.9-1.6 1.2-.7.3-1.4.4-2.2.4-.8 0-1.5-.1-2.1-.3-.6-.2-1.2-.5-1.7-.9zm-5.4-6.7l-.8 1.3c-.7-.4-1.3-.6-2-.6-.4 0-.8.1-1 .2-.2.1-.4.3-.4.6 0 .2.1.4.2.5.1.1.3.2.5.3.2.1.6.2 1.1.3.8.2 1.4.5 1.8.9s.6.9.6 1.6c0 .9-.3 1.5-1 2s-1.5.7-2.4.7c-1.2 0-2.3-.3-3.1-.9l.9-1.2c.3.2.7.4 1 .5.3.1.7.2 1.1.2.5 0 .8-.1 1.1-.3.3-.2.4-.4.4-.8 0-.2-.1-.4-.2-.5-.1-.1-.3-.2-.5-.3-.2-.1-.6-.2-1.1-.3-.8-.2-1.4-.5-1.8-.9-.4-.4-.6-.9-.6-1.6 0-.8.3-1.4.9-1.8.6-.4 1.4-.7 2.4-.7 1.2 0 2.2.2 2.9.8zm-10.2-3.2c0-.8.4-1.2 1.2-1.2.4 0 .8.1.9.3.2.2.3.5.3.8 0 .3-.1.6-.3.8-.2.2-.5.3-.9.3s-.8-.1-.9-.3c-.2-.1-.3-.4-.3-.7zm2.2 10.9h-2v-8.3h2v8.3zm-3.3 0h-2.4l-2.1-3.1-2.1 3.1h-2.4l3.2-4.4-2.8-4h2.3l1.9 2.8 1.8-2.8h2.2l-2.8 4 3.2 4.4zm-16.2-4h3.5l-1.7-5.1-1.8 5.1zm4 1.6h-4.6l-.9 2.4h-2.2l4.4-11.3h2.2l4.3 11.3h-2.3l-.9-2.4zm-20.8-4c0-.4 0-1-.1-1.9h1.9c.1.3.1.7.1 1 .3-.4.6-.6 1.1-.9.5-.2 1-.3 1.6-.3.7 0 1.3.1 1.7.4.5.3.8.7 1 1.1s.3 1 .3 1.5v5.5h-2v-5.1c0-.5-.1-1-.4-1.3s-.7-.5-1.3-.5c-.6 0-1.1.2-1.5.6-.4.4-.5 1-.5 1.6v4.6h-2v-6.3zm-4.7-4.5c0-.8.4-1.2 1.2-1.2.4 0 .8.1.9.3.2.2.3.5.3.8 0 .3-.1.6-.3.8-.2.2-.5.3-.9.3s-.8-.1-.9-.3c-.2-.1-.3-.4-.3-.7zm2.2 10.9h-2v-8.3h2v8.3zm-6.5-3.2v-.7H19c-.9 0-1.6.1-2 .3-.4.2-.6.6-.6 1.1 0 .4.1.6.3.8.2.2.5.3.9.3s.7-.1 1.1-.3.6-.4.7-.7c.2-.2.2-.5.2-.8zm-5.3.9c0-1.1.4-1.8 1.2-2.3.8-.4 1.9-.6 3.3-.6h.8v-.4c0-.9-.6-1.3-1.7-1.3-.8 0-1.6.2-2.4.6l-.7-1.3c.4-.3 1-.5 1.5-.6.6-.2 1.1-.2 1.7-.2 1.3 0 2.2.3 2.8.9.6.6.8 1.4.8 2.6v3.2c0 .4 0 1 .1 1.9h-1.8c-.1-.4-.1-.8-.1-.9-.3.4-.7.7-1.1.9-.4.2-1 .3-1.6.3-.8 0-1.4-.2-1.9-.7-.6-.7-.9-1.3-.9-2.1zm-1.9 2.3h-2v-8.9l-3.5 8.9H5.4L2 456.6l.1 8.9H0v-11.3h3.1l3.1 8.4 3.2-8.4h3.1v11.3z"/></defs><clipPath id="SVGID_68_"><use xlink:href="#SVGID_67_" overflow="visible"/></clipPath><path class="st35" d="M-5 448.4h124.3v22.4H-5z"/></g><path class="st34" d="M1495.7 404.5v39M1482.7 443.5h25.5"/><g><defs><path id="SVGID_69_" d="M1543 461.9v-2.4c-.5-.6-1.2-.9-2-.9-.7 0-1.2.3-1.5.8-.4.5-.5 1.2-.5 2.1 0 .9.2 1.6.5 2 .4.5.8.7 1.4.7.6 0 1.1-.2 1.5-.6.4-.5.6-1.1.6-1.7zm2.1 3.6h-1.9c-.1-.4-.1-.8-.1-1-.3.4-.7.7-1.1 1-.4.2-1 .3-1.7.3-1.2 0-2.1-.4-2.6-1.2-.6-.8-.9-1.8-.9-3.1 0-.8.2-1.6.5-2.2s.8-1.2 1.3-1.6c.6-.4 1.3-.6 2.1-.6.9 0 1.7.3 2.4.8v-3.6h2v9.4c-.1.4 0 1 0 1.8zm-17.9-6.4c0-.4 0-1-.1-1.9h1.9c.1.3.1.7.1 1 .3-.4.6-.6 1.1-.9.5-.2 1-.3 1.6-.3.7 0 1.3.1 1.7.4s.8.7 1 1.1.3 1 .3 1.5v5.5h-2v-5.1c0-.5-.1-1-.4-1.3s-.7-.5-1.3-.5c-.6 0-1.1.2-1.5.6-.4.4-.5 1-.5 1.6v4.6h-2v-6.3zm-1.9-3.2h-5.1v3h4.3v1.6h-4.3v3.3h5.3v1.7h-7.4v-11.3h7.2v1.7zm-13.4 1.9l-.8 1.3c-.7-.4-1.3-.6-2-.6-.4 0-.8.1-1 .2-.2.1-.4.3-.4.6 0 .2.1.4.2.5.1.1.3.2.5.3.2.1.6.2 1.1.3.8.2 1.4.5 1.8.9s.6.9.6 1.6c0 .9-.3 1.5-1 2s-1.5.7-2.4.7c-1.2 0-2.3-.3-3.1-.9l.9-1.2c.3.2.7.4 1 .5.3.1.7.2 1.1.2.5 0 .8-.1 1.1-.3.3-.2.4-.4.4-.8 0-.2-.1-.4-.2-.5-.1-.1-.3-.2-.5-.3s-.6-.2-1.1-.3c-.8-.2-1.4-.5-1.8-.9-.4-.4-.6-.9-.6-1.6 0-.8.3-1.4.9-1.8.6-.4 1.4-.7 2.4-.7 1.2 0 2.2.2 2.9.8zm-10.2-3.2c0-.8.4-1.2 1.2-1.2.4 0 .8.1.9.3.2.2.3.5.3.8 0 .3-.1.6-.3.8-.2.2-.5.3-.9.3s-.8-.1-.9-.3c-.2-.1-.3-.4-.3-.7zm2.2 10.9h-2v-8.3h2v8.3zm-3.3 0h-2.4l-2.1-3.1-2.1 3.1h-2.4l3.2-4.4-2.8-4h2.3l1.9 2.8 1.8-2.8h2.2l-2.8 4 3.2 4.4zm-16.2-4h3.5l-1.7-5.1-1.8 5.1zm4 1.6h-4.6l-.9 2.4h-2.2l4.4-11.3h2.2l4.3 11.3h-2.3l-.9-2.4zm-20.8-4c0-.4 0-1-.1-1.9h1.9c.1.3.1.7.1 1 .3-.4.6-.6 1.1-.9.5-.2 1-.3 1.6-.3.7 0 1.3.1 1.7.4s.8.7 1 1.1.3 1 .3 1.5v5.5h-2v-5.1c0-.5-.1-1-.4-1.3s-.7-.5-1.3-.5c-.6 0-1.1.2-1.5.6-.4.4-.5 1-.5 1.6v4.6h-2v-6.3zm-4.7-4.5c0-.8.4-1.2 1.2-1.2.4 0 .8.1.9.3.2.2.3.5.3.8 0 .3-.1.6-.3.8-.2.2-.5.3-.9.3s-.8-.1-.9-.3c-.2-.1-.3-.4-.3-.7zm2.2 10.9h-2v-8.3h2v8.3zm-6.5-3.2v-.7h-.6c-.9 0-1.6.1-2 .3-.4.2-.6.6-.6 1.1 0 .4.1.6.3.8.2.2.5.3.9.3s.7-.1 1.1-.3c.3-.2.6-.4.7-.7.2-.2.2-.5.2-.8zm-5.3.9c0-1.1.4-1.8 1.2-2.3s1.9-.6 3.3-.6h.8v-.4c0-.9-.6-1.3-1.7-1.3-.8 0-1.6.2-2.4.6l-.7-1.3c.4-.3 1-.5 1.5-.6.6-.2 1.1-.2 1.7-.2 1.3 0 2.2.3 2.8.9.6.6.8 1.4.8 2.6v3.2c0 .4 0 1 .1 1.9h-1.8c-.1-.4-.1-.8-.1-.9-.3.4-.7.7-1.1.9-.4.2-1 .3-1.6.3-.8 0-1.4-.2-1.9-.7-.6-.7-.9-1.3-.9-2.1zm-1.9 2.3h-2v-8.9l-3.5 8.9h-1.6l-3.4-8.9.1 8.9h-2v-11.3h3.1l3.1 8.4 3.2-8.4h3.1v11.3z"/></defs><clipPath id="SVGID_70_"><use xlink:href="#SVGID_69_" overflow="visible"/></clipPath><path class="st36" d="M1434 448.4h116.1v22.3H1434z"/></g><path class="st34" d="M1495.7 403.5h41M1537 416.8v-25.6"/><g><defs><path id="SVGID_71_" d="M1656 404.9v-2.4c-.5-.6-1.2-.9-2-.9-.7 0-1.2.3-1.5.8s-.5 1.2-.5 2.1c0 .9.2 1.6.5 2 .4.5.8.7 1.4.7.6 0 1.1-.2 1.5-.6s.6-1.1.6-1.7zm2.1 3.6h-1.9c-.1-.4-.1-.8-.1-1-.3.4-.7.7-1.1 1-.4.2-1 .3-1.7.3-1.2 0-2.1-.4-2.6-1.2-.6-.8-.9-1.8-.9-3.1 0-.8.2-1.6.5-2.2.3-.7.8-1.2 1.3-1.6.6-.4 1.3-.6 2.1-.6.9 0 1.7.3 2.4.8v-3.6h2v9.4c-.1.4-.1 1 0 1.8zm-17.9-6.4c0-.4 0-1-.1-1.9h1.9c.1.3.1.7.1 1 .3-.4.6-.6 1.1-.9.5-.2 1-.3 1.6-.3.7 0 1.3.1 1.7.4.5.3.8.7 1 1.1.2.5.3 1 .3 1.5v5.5h-2v-5.1c0-.5-.1-1-.4-1.3s-.7-.5-1.3-.5c-.6 0-1.1.2-1.5.6-.4.4-.5 1-.5 1.6v4.6h-2v-6.3zm-1.9-3.2h-5.1v3h4.3v1.6h-4.3v3.3h5.3v1.7h-7.4v-11.3h7.2v1.7zm-13.4 1.9l-.8 1.3c-.7-.4-1.3-.6-2-.6-.4 0-.8.1-1 .2-.2.1-.4.3-.4.6 0 .2.1.4.2.5.1.1.3.2.5.3.2.1.6.2 1.1.3.8.2 1.4.5 1.8.9s.6.9.6 1.6c0 .9-.3 1.5-1 2s-1.5.7-2.4.7c-1.2 0-2.3-.3-3.1-.9l.9-1.2c.3.2.7.4 1 .5.3.1.7.2 1.1.2.5 0 .8-.1 1.1-.3.3-.2.4-.4.4-.8 0-.2-.1-.4-.2-.5-.1-.1-.3-.2-.5-.3-.2-.1-.6-.2-1.1-.3-.8-.2-1.4-.5-1.8-.9-.4-.4-.6-.9-.6-1.6 0-.8.3-1.4.9-1.8.6-.4 1.4-.7 2.4-.7 1.2 0 2.1.2 2.9.8zm-10.2-3.2c0-.8.4-1.2 1.2-1.2.4 0 .8.1.9.3.2.2.3.5.3.8 0 .3-.1.6-.3.8-.2.2-.5.3-.9.3s-.8-.1-.9-.3c-.2-.1-.3-.4-.3-.7zm2.2 10.9h-2v-8.3h2v8.3zm-3.3 0h-2.4l-2.1-3.1-2.1 3.1h-2.4l3.2-4.4-2.8-4h2.3l1.9 2.8 1.8-2.8h2.2l-2.8 4 3.2 4.4zm-16.2-4h3.5l-1.7-5.1-1.8 5.1zm4 1.6h-4.6l-.9 2.4h-2.2l4.4-11.3h2.2l4.3 11.3h-2.3l-.9-2.4zm-12.6-5.3l-.8 1.3c-.7-.4-1.3-.6-2-.6-.4 0-.8.1-1 .2-.2.1-.4.3-.4.6 0 .2.1.4.2.5.1.1.3.2.5.3.2.1.6.2 1.1.3.8.2 1.4.5 1.8.9s.6.9.6 1.6c0 .9-.3 1.5-1 2s-1.5.7-2.4.7c-1.2 0-2.3-.3-3.1-.9l.9-1.2c.3.2.7.4 1 .5.3.1.7.2 1.1.2.5 0 .8-.1 1.1-.3.3-.2.4-.4.4-.8 0-.2-.1-.4-.2-.5-.1-.1-.3-.2-.5-.3s-.6-.2-1.1-.3c-.8-.2-1.4-.5-1.8-.9-.4-.4-.6-.9-.6-1.6 0-.8.3-1.4.9-1.8.6-.4 1.4-.7 2.4-.7 1.2 0 2.1.2 2.9.8zm-7.4 0l-.8 1.3c-.7-.4-1.3-.6-2-.6-.4 0-.8.1-1 .2-.2.1-.4.3-.4.6 0 .2.1.4.2.5.1.1.3.2.5.3.2.1.6.2 1.1.3.8.2 1.4.5 1.8.9s.6.9.6 1.6c0 .9-.3 1.5-1 2s-1.5.7-2.4.7c-1.2 0-2.3-.3-3.1-.9l.9-1.2c.3.2.7.4 1 .5s.7.2 1.1.2c.5 0 .8-.1 1.1-.3.3-.2.4-.4.4-.8 0-.2-.1-.4-.2-.5-.1-.1-.3-.2-.5-.3s-.6-.2-1.1-.3c-.8-.2-1.4-.5-1.8-.9-.4-.4-.6-.9-.6-1.6 0-.8.3-1.4.9-1.8.6-.4 1.4-.7 2.4-.7 1.2 0 2.1.2 2.9.8zm-14 3.5c0 .9.2 1.5.5 2.1.4.5.9.8 1.7.8.8 0 1.4-.3 1.7-.8.4-.5.5-1.2.5-2.1 0-.8-.2-1.5-.5-2-.4-.5-.9-.7-1.7-.7-.8 0-1.4.2-1.7.7-.3.5-.5 1.2-.5 2zm6.6 0c0 .9-.2 1.6-.5 2.3-.3.7-.8 1.2-1.5 1.6-.7.4-1.4.6-2.3.6s-1.7-.2-2.3-.6-1.1-.9-1.5-1.6c-.3-.7-.5-1.4-.5-2.3 0-.9.2-1.6.5-2.3.3-.7.8-1.2 1.5-1.5s1.4-.5 2.3-.5c.9 0 1.7.2 2.3.5s1.1.9 1.5 1.5c.3.7.5 1.4.5 2.3zm-14.2-2.2c0-.4 0-1-.1-1.9h1.9c.1.4.1.8.1 1.2.5-.9 1.3-1.4 2.5-1.4.2 0 .4 0 .5.1l-.1 1.7h-.6c-.7 0-1.3.2-1.6.7-.4.5-.6 1-.6 1.7v4.4h-2v-6.5zm-1.7-3.8l-1.2 1.3c-.4-.3-.8-.5-1.2-.7-.5-.2-1-.3-1.5-.3-1.2 0-2.1.4-2.7 1.1-.6.8-.9 1.8-.9 3s.3 2.2.9 3c.6.8 1.5 1.1 2.7 1.1.6 0 1.1-.1 1.6-.3.5-.2.9-.5 1.3-.8l1.3 1.4c-.5.5-1.1.9-1.8 1.2-.7.3-1.5.4-2.4.4-1.2 0-2.2-.3-3.1-.8-.9-.5-1.5-1.2-1.9-2.1s-.7-1.9-.7-3.1c0-1.2.2-2.2.7-3.1.4-.9 1.1-1.6 2-2.1.9-.5 1.9-.7 3.1-.7.8 0 1.5.1 2.2.4.6.3 1.2.6 1.6 1.1z"/></defs><clipPath id="SVGID_72_"><use xlink:href="#SVGID_71_" overflow="visible"/></clipPath><path class="st37" d="M1543.4 391.4h119.7v22.4h-119.7z"/></g><path class="st34" d="M1495.7 105h40.5M1536.7 117.5V92"/><g><defs><path id="SVGID_73_" d="M1663.2 101.8h2.1v1.5h-2.1v4.1c0 .8.4 1.2 1.1 1.2.3 0 .5 0 .7-.1l.3 1.5c-.4.2-.9.2-1.5.2-.8 0-1.5-.2-1.9-.7s-.7-1.1-.7-1.9v-4.3h-1.4V102l1.4-.2v-2l2-.7v2.7zm-8.6 1.8c0-.4 0-1-.1-1.9h1.9c.1.4.1.8.1 1.2.5-.9 1.3-1.4 2.5-1.4.2 0 .4 0 .5.1l-.1 1.7h-.6c-.7 0-1.3.2-1.6.7-.4.5-.6 1-.6 1.7v4.4h-2v-6.5zm-4.5 3.2v-.7h-.6c-.9 0-1.6.1-2 .3-.4.2-.6.6-.6 1.1 0 .4.1.6.3.8.2.2.5.3.9.3s.7-.1 1.1-.3.6-.4.7-.7c.2-.2.2-.5.2-.8zm-5.3.9c0-1.1.4-1.8 1.2-2.3.8-.4 1.9-.6 3.3-.6h.8v-.4c0-.9-.6-1.3-1.7-1.3-.8 0-1.6.2-2.4.6l-.7-1.3c.4-.3 1-.5 1.5-.6.6-.2 1.1-.2 1.7-.2 1.3 0 2.2.3 2.8.9.6.6.8 1.4.8 2.6v3.2c0 .4 0 1 .1 1.9h-1.8c-.1-.4-.1-.8-.1-.9-.3.4-.7.7-1.1.9-.4.2-1 .3-1.6.3-.8 0-1.4-.2-1.9-.7s-.9-1.3-.9-2.1zm-3.1-5.9h2.1v1.5h-2.1v4.1c0 .8.4 1.2 1.1 1.2.3 0 .5 0 .7-.1l.3 1.5c-.4.2-.9.2-1.5.2-.8 0-1.5-.2-1.9-.7s-.7-1.1-.7-1.9v-4.3h-1.4V102l1.4-.2v-2l2-.7v2.7zm-12.4 7.2l1-1.3c.4.3.9.5 1.4.7s1 .2 1.5.2c.7 0 1.2-.1 1.6-.4.4-.3.6-.7.6-1.2 0-.4-.1-.7-.3-1-.2-.2-.5-.4-.8-.6-.4-.1-.9-.3-1.5-.5-1-.3-1.8-.7-2.3-1.2-.5-.5-.8-1.2-.8-2.1 0-.7.2-1.2.5-1.7.4-.5.8-.8 1.4-1.1.6-.2 1.3-.4 2-.4 1.4 0 2.6.4 3.7 1.1l-.9 1.4c-.4-.3-.9-.5-1.3-.6-.4-.1-.9-.2-1.4-.2-.6 0-1.1.1-1.4.3-.4.2-.5.6-.5 1 0 .5.2.8.5 1.1.4.2 1 .5 1.8.7 1.1.3 2 .7 2.5 1.2.6.5.9 1.3.9 2.3 0 .8-.2 1.4-.6 1.9-.4.5-.9.9-1.6 1.2-.7.3-1.4.4-2.2.4-.8 0-1.5-.1-2.1-.3-.6-.2-1.2-.5-1.7-.9zm-5.4-6.7l-.8 1.3c-.7-.4-1.3-.6-2-.6-.4 0-.8.1-1 .2-.2.1-.4.3-.4.6 0 .2.1.4.2.5.1.1.3.2.5.3.2.1.6.2 1.1.3.8.2 1.4.5 1.8.9s.6.9.6 1.6c0 .9-.3 1.5-1 2s-1.5.7-2.4.7c-1.2 0-2.3-.3-3.1-.9l.9-1.2c.3.2.7.4 1 .5.3.1.7.2 1.1.2.5 0 .8-.1 1.1-.3.3-.2.4-.4.4-.8 0-.2-.1-.4-.2-.5-.1-.1-.3-.2-.5-.3-.2-.1-.6-.2-1.1-.3-.8-.2-1.4-.5-1.8-.9-.4-.4-.6-.9-.6-1.6 0-.8.3-1.4.9-1.8.6-.4 1.4-.7 2.4-.7 1.2 0 2.1.2 2.9.8zm-10.2-3.2c0-.8.4-1.2 1.2-1.2.4 0 .8.1.9.3.2.2.3.5.3.8 0 .3-.1.6-.3.8-.2.2-.5.3-.9.3s-.8-.1-.9-.3c-.2-.1-.3-.4-.3-.7zm2.2 10.9h-2v-8.3h2v8.3zm-3.3 0h-2.4l-2.1-3.1-2.1 3.1h-2.4l3.2-4.4-2.8-4h2.3l1.9 2.8 1.8-2.8h2.2l-2.8 4 3.2 4.4zm-16.2-4h3.5l-1.7-5.1-1.8 5.1zm4 1.6h-4.6l-.9 2.4h-2.2l4.4-11.3h2.2l4.3 11.3h-2.3l-.9-2.4zm-12.6-5.3l-.8 1.3c-.7-.4-1.3-.6-2-.6-.4 0-.8.1-1 .2-.2.1-.4.3-.4.6 0 .2.1.4.2.5.1.1.3.2.5.3.2.1.6.2 1.1.3.8.2 1.4.5 1.8.9s.6.9.6 1.6c0 .9-.3 1.5-1 2s-1.5.7-2.4.7c-1.2 0-2.3-.3-3.1-.9l.9-1.2c.3.2.7.4 1 .5.3.1.7.2 1.1.2.5 0 .8-.1 1.1-.3.3-.2.4-.4.4-.8 0-.2-.1-.4-.2-.5-.1-.1-.3-.2-.5-.3s-.6-.2-1.1-.3c-.8-.2-1.4-.5-1.8-.9-.4-.4-.6-.9-.6-1.6 0-.8.3-1.4.9-1.8.6-.4 1.4-.7 2.4-.7 1.2 0 2.1.2 2.9.8zm-7.4 0l-.8 1.3c-.7-.4-1.3-.6-2-.6-.4 0-.8.1-1 .2-.2.1-.4.3-.4.6 0 .2.1.4.2.5.1.1.3.2.5.3.2.1.6.2 1.1.3.8.2 1.4.5 1.8.9s.6.9.6 1.6c0 .9-.3 1.5-1 2s-1.5.7-2.4.7c-1.2 0-2.3-.3-3.1-.9l.9-1.2c.3.2.7.4 1 .5.3.1.7.2 1.1.2.5 0 .8-.1 1.1-.3.3-.2.4-.4.4-.8 0-.2-.1-.4-.2-.5-.1-.1-.3-.2-.5-.3s-.6-.2-1.1-.3c-.8-.2-1.4-.5-1.8-.9-.4-.4-.6-.9-.6-1.6 0-.8.3-1.4.9-1.8.6-.4 1.4-.7 2.4-.7 1.2 0 2.1.2 2.9.8zm-14 3.5c0 .9.2 1.5.5 2.1.4.5.9.8 1.7.8.8 0 1.4-.3 1.7-.8.4-.5.5-1.2.5-2.1 0-.8-.2-1.5-.5-2-.4-.5-.9-.7-1.7-.7-.8 0-1.4.2-1.7.7s-.5 1.2-.5 2zm6.6 0c0 .9-.2 1.6-.5 2.3-.3.7-.8 1.2-1.5 1.6-.7.4-1.4.6-2.3.6s-1.7-.2-2.3-.6-1.1-.9-1.5-1.6c-.3-.7-.5-1.4-.5-2.3 0-.9.2-1.6.5-2.3.3-.7.8-1.2 1.5-1.5s1.4-.5 2.3-.5c.9 0 1.7.2 2.3.5s1.1.9 1.5 1.5c.3.7.5 1.4.5 2.3zm-14.2-2.2c0-.4 0-1-.1-1.9h1.9c.1.4.1.8.1 1.2.5-.9 1.3-1.4 2.5-1.4.2 0 .4 0 .5.1l-.1 1.7h-.6c-.7 0-1.3.2-1.6.7-.4.5-.6 1-.6 1.7v4.4h-2v-6.5zm-1.7-3.8l-1.2 1.3c-.4-.3-.8-.5-1.2-.7-.5-.2-1-.3-1.5-.3-1.2 0-2.1.4-2.7 1.1-.6.8-.9 1.8-.9 3s.3 2.2.9 3c.6.8 1.5 1.1 2.7 1.1.6 0 1.1-.1 1.6-.3.5-.2.9-.5 1.3-.8l1.3 1.4c-.5.5-1.1.9-1.8 1.2-.7.3-1.5.4-2.4.4-1.2 0-2.2-.3-3.1-.8-.9-.5-1.5-1.2-1.9-2.1s-.7-1.9-.7-3.1c0-1.2.2-2.2.7-3.1s1.1-1.6 2-2.1c.9-.5 1.9-.7 3.1-.7.8 0 1.5.1 2.2.4.6.3 1.2.6 1.6 1.1z"/></defs><clipPath id="SVGID_74_"><use xlink:href="#SVGID_73_" overflow="visible"/></clipPath><path class="st38" d="M1542.4 92.9h127.9v22.4h-127.9z"/></g></svg>