<?xml version="1.0" encoding="utf-8"?>
<!-- Generator: Adobe Illustrator 19.0.0, SVG Export Plug-In . SVG Version: 6.00 Build 0)  -->
<!DOCTYPE svg PUBLIC "-//W3C//DTD SVG 1.0//EN" "http://www.w3.org/TR/2001/REC-SVG-20010904/DTD/svg10.dtd">
<svg version="1.0" id="Layer_2" xmlns="http://www.w3.org/2000/svg" xmlns:xlink="http://www.w3.org/1999/xlink" x="0px" y="0px"
   width="100px" height="100px" viewBox="0 0 100 100" enable-background="new 0 0 100 100" xml:space="preserve">
<ellipse id="Oval-12" fill="#FFFFFF" cx="79.2" cy="36.8" rx="8.5" ry="8.5"></ellipse>
<ellipse id="Oval-13" fill="#FFFFFF" cx="70.7" cy="49.1" rx="2.7" ry="2.6"></ellipse>
<ellipse id="Oval-13-Copy" fill="#FFFFFF" cx="65.2" cy="56.3" rx="2.7" ry="2.6"></ellipse>
<ellipse id="Oval-13-Copy-3" fill="#FFFFFF" cx="51.4" cy="68.2" rx="2.7" ry="2.6"></ellipse>
<ellipse id="Oval-13-Copy-10" fill="#FFFFFF" cx="59.1" cy="62.3" rx="2.7" ry="2.6"></ellipse>
<ellipse id="Oval-13-Copy-4" fill="#FFFFFF" cx="48" cy="54.4" rx="2.7" ry="2.6"></ellipse>
<ellipse id="Oval-13-Copy-8" fill="#FFFFFF" cx="42.5" cy="45.1" rx="2.7" ry="2.6"></ellipse>
<ellipse id="Oval-13-Copy-5" fill="#FFFFFF" cx="33.7" cy="38.5" rx="2.7" ry="2.6"></ellipse>
<ellipse id="Oval-13-Copy-9" fill="#FFFFFF" cx="22.8" cy="45.1" rx="2.7" ry="2.6"></ellipse>
<path id="Oval-13-Copy-6" fill="#FFFFFF" d="M17.3,58.3c1.5,0,2.7-1.2,2.7-2.6S18.8,53,17.3,53
s-2.7,1.2-2.7,2.6S15.8,58.3,17.3,58.3z"/>
<ellipse id="Oval-13-Copy-7" fill="#FFFFFF" cx="14.6" cy="65.6" rx="2.7" ry="2.6"></ellipse>
</svg>
