<svg width="100" height="100" viewBox="0 0 100 100" xmlns="http://www.w3.org/2000/svg"><g transform="translate(.6 1)" fill="none" fill-rule="evenodd"><circle stroke="#3DA5FF" cx="49" cy="49" r="35"/><circle stroke="#BFE1FF" cx="49" cy="49" r="42"/><circle stroke="#DFF0FF" cx="49" cy="49" r="49"/><path d="M48.792 19.135c-16.353 0-29.657 13.304-29.657 29.657S32.44 78.45 48.792 78.45 78.45 65.145 78.45 48.792 65.145 19.135 48.792 19.135" fill="#0070D2"/><path d="M48.792 72.518c-13.082 0-23.725-10.642-23.725-23.726 0-13.083 10.643-23.726 23.725-23.726 13.083 0 23.726 10.643 23.726 23.726 0 13.084-10.643 23.726-23.726 23.726" fill="#FFF"/><path d="M48.792 30.998c-9.81 0-17.794 7.982-17.794 17.794 0 9.813 7.983 17.795 17.794 17.795 9.812 0 17.795-7.982 17.795-17.795 0-9.812-7.983-17.794-17.795-17.794" fill="#0070D2"/><path d="M48.792 60.655c-6.54 0-11.862-5.32-11.862-11.863 0-6.54 5.32-11.862 11.862-11.862s11.863 5.32 11.863 11.862-5.32 11.863-11.863 11.863" fill="#FFF"/><path d="M48.792 42.86c-3.27 0-5.93 2.662-5.93 5.932 0 3.27 2.66 5.932 5.93 5.932 3.27 0 5.932-2.66 5.932-5.932 0-3.27-2.66-5.93-5.932-5.93" fill="#0070D2"/></g></svg>
