<svg width="453" height="260" xmlns="http://www.w3.org/2000/svg"><g fill="none" fill-rule="evenodd"><path d="M.428 202.66l173.36 51.413 279.056-101.54-173.12-51.502L.43 202.66z" stroke="#EBEBEB" stroke-width=".25"/><path d="M312.338 10.64v121.28L160.61 187.13V65.85l151.728-55.21zm3.17-7.22L159.69 60.14c-2.717 1.047-4.705 3.725-4.705 6.81l-.003.202v123c0 2.003 1.626 3.683 3.63 3.683.396 0 .823-.106 1.178-.22L316.64 136.5c.773-.208 1.386-.94 1.386-1.78V5.376l.002-.252c0-1.002-.815-1.815-1.816-1.815-.168 0-.33.02-.485.062l-.22.046z" fill="#000"/><path d="M312.338 10.64v121.28L160.61 187.13V65.85l151.728-55.21" fill="#E8F2FB"/><path d="M180.357 83.264v54.02m17.16-71.916l43.743-15.972m-46.067 26.786l47.524 14.164M168.99 68.454l-47.526-14.166" stroke="#000" stroke-width=".25"/><path d="M240.973 52.464v-5.67l3.612 1.452-3.612 4.218m-3.43 38.556l5.58-2.03 4.29 2.667-9.87-.636m-112.17-37.79l-5.58 2.03-4.29-2.665 9.87.636m52.93 84.708l2.054 3.55 3.073-5.416-5.127 1.87" fill="#000"/><path d="M220.4 214.577c-.2.057-.41.073-.627.073-.292 0-.573-.045-.837-.132l-11.57-3.454c-1.05-.37-1.808-1.374-1.808-2.554 0-1.165.74-2.16 1.78-2.54l6.2-2.32c.258-.08.533-.123.816-.123.21 0 .414.023.61.067l11.906 3.56c.996.4 1.7 1.373 1.7 2.51 0 .948-.487 1.782-1.226 2.265 0 0-1.58 1.115-6.943 2.644" fill="#F2F2F2"/><path d="M244.46 194.916c0 .962-.78 1.74-1.744 1.74-.963 0-1.743-.778-1.743-1.74 0-.96.78-1.742 1.743-1.742.963 0 1.744.78 1.744 1.742" fill="#CCC"/><path d="M262.93 199.086l45.78-16.66-20.315-6.024-45.678 16.62 20.212 6.064" fill="#F2F2F2"/><path d="M243.054 196.657l5.266-1.918-5.027-1.468s1.138.422 1.167 1.64c.03 1.22-1.406 1.742-1.406 1.742" fill="#B7B7B7"/><path d="M235.147 76.546V78l3.874 1.15-3.87 2.13v1.458l5.826 1.728v-1.46L236.91 81.8l4.066-2.094v-1.454l-5.826-1.706m-4.18 5.02l1.32.38V80.1l1.897.563v-1.096l-1.895-.563.016-1.9-1.335-.386v1.907l-1.875-.563v1.097l1.876.56v1.844m-91.61-33.392v1.455l3.874 1.146-3.874 2.13v1.46l5.826 1.725v-1.46l-4.066-1.204 4.066-2.095v-1.45l-5.826-1.707m-.962 4.116v-1.097l-5.092-1.506v1.097l5.092 1.506M185.77 75l-.405-.37c.23-.232.402-.443.512-.632.11-.19.174-.393.192-.607-.188-.03-.318-.093-.398-.19-.08-.09-.12-.22-.12-.38s.055-.3.16-.413c.108-.113.263-.17.46-.17.22 0 .388.068.504.203.115.134.173.322.173.564 0 .358-.076.687-.228.987-.15.3-.436.638-.855 1.01m-1.206-3.62c-.214 2.25-1.704 3.945-3.324 3.79-1.62-.155-2.76-2.102-2.546-4.35.218-2.247 1.706-3.943 3.328-3.79 1.62.156 2.76 2.103 2.546 4.35zm-2.83-3.303c-.82-.02-1.515 1.304-1.557 2.955-.042 1.654.587 3.01 1.404 3.03.82.02 1.515-1.302 1.56-2.953.038-1.655-.59-3.01-1.406-3.03zm11.02.28c-.217 2.25-1.705 3.944-3.326 3.79-1.62-.154-2.76-2.1-2.546-4.35.212-2.248 1.7-3.943 3.322-3.79 1.62.156 2.76 2.104 2.546 4.35zm-2.83-3.303c-.82-.02-1.517 1.303-1.56 2.956-.04 1.65.59 3.007 1.405 3.03.82.017 1.514-1.305 1.558-2.957.04-1.653-.588-3.01-1.405-3.03z" fill="#000"/><path d="M158.027 193.775l-6.14-1.808c-1.48-.458-2.553-1.835-2.553-3.464l.015-1.53-.04-123.844v-.18c0-3.203 2.08-5.922 4.962-6.883l.163-.08L305.152 1.145l1.43-.488c.124-.028.254-.04.386-.04.196 0 .384.03.56.087l9.265 2.683c-.215-.05-.58-.088-.58-.088-.17 0-.332.022-.486.064l-.22.047-155.815 56.72c-2.717 1.05-4.705 3.727-4.705 6.813l-.003.2v123c0 1.84 1.26 3.107 3.045 3.632" fill="#EBEBEB"/><path d="M217.366 172.697v5.256c0 1.64 1.087 3.025 2.583 3.475l14.043 4.247c.666.2 1.374.31 2.106.31.866 0 1.697-.152 2.467-.43l27.042-9.928c.285-.098.49-.37.49-.687 0-.334-.225-.615-.53-.7l-16.844-4.937v-8.126l-31.364 11.52" fill="#F2F2F2"/><path d="M236.328 187.13s-1.258-.083-1.848-.237l-15.546-4.73c-1.45-.475-2.498-1.84-2.498-3.448v-5.727l.934-.29v5.255c0 1.64 1.088 3.025 2.583 3.475L234 185.675c1.405.34 2.328.306 2.328.306" fill="#CCC"/><path d="M266.1 174.94c0 .32-.208.59-.492.687l-27.043 9.928c-.77.278-1.552.43-2.237.426l-.008 1.15c.968 0 1.894-.19 2.738-.53l26.543-9.738c.29-.095.5-.37.5-.69v-1.23" fill="#EBEBEB"/><path d="M206.072 210.06l2.09.57 10.735 3.203c.245.078.505.12.777.12l.195.804c-.296 0-.577-.045-.84-.132l-11.57-3.454c-.544-.19-1.008-.55-1.33-1.01l-.06-.097m-32.258 49.075v-5.062L.517 202.66v5.182l173.296 51.293" fill="#CCC"/><path d="M452.844 152.533v5.07l-279.03 101.532v-5.062l279.03-101.54" fill="#EBEBEB"/><path d="M155.45 64.406c-.378.86-.465 2.537-.465 2.537l-.003.2v123c0 1.84 1.26 3.107 3.045 3.632l-6.14-1.808c-1.48-.458-2.553-1.835-2.553-3.464l.015-1.53-.04-123.844.007-.49 6.13 1.763" fill="#CCC"/></g></svg>