<svg width="55" height="62" xmlns="http://www.w3.org/2000/svg"><path d="M32.064 59.223c-1.457 2.51-4.677 3.366-7.187 1.91-2.508-1.457-3.367-4.676-1.91-7.19 1.46-2.508 4.677-3.362 7.187-1.905 2.513 1.455 3.367 4.678 1.91 7.185m.076-50.89c-1.458 2.513-4.677 3.367-7.19 1.91-2.507-1.455-3.364-4.68-1.907-7.19C24.5.543 27.72-.31 30.23 1.147c2.51 1.456 3.364 4.675 1.91 7.186M10.005 21.138c-1.46 2.508-4.68 3.367-7.192 1.91C.305 21.588-.55 18.37.907 15.86c1.455-2.51 4.674-3.365 7.185-1.91 2.51 1.457 3.366 4.68 1.913 7.188m.185 25.454c-1.452 2.512-4.675 3.368-7.186 1.91-2.51-1.455-3.363-4.678-1.906-7.187 1.455-2.51 4.673-3.366 7.184-1.91 2.513 1.457 3.368 4.678 1.91 7.187m43.95-25.454c-1.456 2.508-4.675 3.367-7.19 1.91-2.507-1.46-3.362-4.678-1.905-7.187 1.455-2.51 4.674-3.362 7.183-1.91 2.513 1.46 3.368 4.68 1.913 7.19m-.003 25.45c-1.454 2.51-4.677 3.367-7.187 1.91-2.508-1.456-3.363-4.677-1.906-7.188 1.455-2.507 4.674-3.363 7.183-1.907 2.513 1.457 3.368 4.676 1.91 7.187" fill="#0070D2" fill-rule="evenodd"/></svg>