<?xml version="1.0" encoding="UTF-8" standalone="no"?>
<svg width="73px" height="60px" viewBox="0 0 73 60" version="1.1" xmlns="http://www.w3.org/2000/svg" xmlns:xlink="http://www.w3.org/1999/xlink" xmlns:sketch="http://www.bohemiancoding.com/sketch/ns">
    <!-- Generator: Sketch 3.3.3 (12081) - http://www.bohemiancoding.com/sketch -->
    <title>Imported Layers</title>
    <desc>Created with Sketch.</desc>
    <defs></defs>
    <g id="Page-1" stroke="none" stroke-width="1" fill="none" fill-rule="evenodd" sketch:type="MSPage">
        <g id="motion" sketch:type="MSArtboardGroup" transform="translate(-608.000000, -355.000000)">
            <g id="elevation" sketch:type="MSLayerGroup" transform="translate(535.000000, 293.000000)">
                <g id="Imported-Layers" transform="translate(73.000000, 62.000000)" sketch:type="MSShapeGroup">
                    <path d="M73,39.9814287 C73,50.9810208 56.8377922,59.898 36.9007266,59.898 C16.9636609,59.898 0.801453125,50.9810208 0.801453125,39.9814287 C0.801453125,28.9818366 16.9636609,20.0638815 36.9007266,20.0638815 C56.8377922,20.0638815 73,28.9818366 73,39.9814287" id="Fill-1" fill="#DFF0FF"></path>
                    <path d="M73,20.0638815 C73,31.0634736 56.8377922,39.9814287 36.9007266,39.9814287 C16.9636609,39.9814287 0.801453125,31.0634736 0.801453125,20.0638815 C0.801453125,9.06526533 16.9636609,0.147310186 36.9007266,0.147310186 C56.8377922,0.147310186 73,9.06526533 73,20.0638815" id="Fill-2" fill="#0070D2"></path>
                </g>
            </g>
        </g>
    </g>
</svg>