<?xml version="1.0" encoding="UTF-8" standalone="no"?>
<svg width="100px" height="100px" viewBox="0 0 100 100" version="1.1" xmlns="http://www.w3.org/2000/svg" xmlns:xlink="http://www.w3.org/1999/xlink" xmlns:sketch="http://www.bohemiancoding.com/sketch/ns">
    <!-- Generator: Sketch 3.3.3 (12081) - http://www.bohemiancoding.com/sketch -->
    <title>Group</title>
    <desc>Created with Sketch.</desc>
    <defs></defs>
    <g id="Page-1" stroke="none" stroke-width="1" fill="none" fill-rule="evenodd" sketch:type="MSPage">
        <g id="motion" sketch:type="MSArtboardGroup" transform="translate(-834.000000, -335.000000)">
            <g id="effects" sketch:type="MSLayerGroup" transform="translate(773.600000, 293.000000)">
                <g id="Group" transform="translate(61.000000, 43.000000)" sketch:type="MSShapeGroup">
                    <circle id="Oval-58" stroke="#3DA5FF" cx="49" cy="49" r="35"></circle>
                    <circle id="Oval-59" stroke="#BFE1FF" cx="49" cy="49" r="42"></circle>
                    <circle id="Oval-60" stroke="#DFF0FF" cx="49" cy="49" r="49"></circle>
                    <g id="Imported-Layers" transform="translate(19.000000, 19.000000)">
                        <path d="M29.7924476,0.135088467 C13.4393119,0.135088467 0.135088467,13.4393119 0.135088467,29.7921822 C0.135088467,46.1453178 13.4393119,59.4495413 29.7924476,59.4495413 C46.1453178,59.4495413 59.4495413,46.1453178 59.4495413,29.7921822 C59.4495413,13.4393119 46.1453178,0.135088467 29.7924476,0.135088467" id="Fill-1" fill="#0070D2"></path>
                        <path d="M29.7924476,53.5178571 C16.7100983,53.5178571 6.06650721,42.8755931 6.06650721,29.7921822 C6.06650721,16.7090367 16.7100983,6.06624181 29.7924476,6.06624181 C42.8745315,6.06624181 53.5181225,16.7090367 53.5181225,29.7921822 C53.5181225,42.8755931 42.8745315,53.5178571 29.7924476,53.5178571" id="Fill-2" fill="#FFFFFF"></path>
                        <path d="M29.7924476,11.997926 C19.9808847,11.997926 11.997926,19.9798231 11.997926,29.7921822 C11.997926,39.6048067 19.9808847,47.5867038 29.7924476,47.5867038 C39.6037451,47.5867038 47.5867038,39.6048067 47.5867038,29.7921822 C47.5867038,19.9798231 39.6037451,11.997926 29.7924476,11.997926" id="Fill-3" fill="#0070D2"></path>
                        <path d="M29.7924476,41.6552851 C23.2508748,41.6552851 17.9296101,36.3337549 17.9296101,29.7921822 C17.9296101,23.2506094 23.2508748,17.9296101 29.7924476,17.9296101 C36.3337549,17.9296101 41.6552851,23.2506094 41.6552851,29.7921822 C41.6552851,36.3337549 36.3337549,41.6552851 29.7924476,41.6552851" id="Fill-4" fill="#FFFFFF"></path>
                        <path d="M29.7924476,23.8607634 C26.5216612,23.8607634 23.8607634,26.5216612 23.8607634,29.7921822 C23.8607634,33.0629685 26.5216612,35.7238663 29.7924476,35.7238663 C33.0632339,35.7238663 35.7236009,33.0629685 35.7236009,29.7921822 C35.7236009,26.5216612 33.0632339,23.8607634 29.7924476,23.8607634" id="Fill-5" fill="#0070D2"></path>
                    </g>
                </g>
            </g>
        </g>
    </g>
</svg>