<svg width="55" height="62" xmlns="http://www.w3.org/2000/svg"><g fill="#0070D2" fill-rule="evenodd"><path d="M32.064 59.223c-1.457 2.51-4.677 3.366-7.187 1.91-2.508-1.457-3.367-4.676-1.91-7.19 1.46-2.508 4.677-3.362 7.187-1.905 2.513 1.455 3.367 4.678 1.91 7.185M32.14 8.332c-1.458 2.514-4.677 3.368-7.19 1.91-2.507-1.454-3.364-4.678-1.907-7.188C24.5.544 27.72-.31 30.23 1.146c2.51 1.456 3.364 4.675 1.91 7.186M10.005 21.138c-1.46 2.508-4.68 3.367-7.192 1.91C.305 21.588-.55 18.37.907 15.86c1.455-2.51 4.674-3.365 7.185-1.91 2.51 1.457 3.366 4.68 1.913 7.188M10.19 46.592c-1.452 2.512-4.675 3.368-7.186 1.91-2.51-1.455-3.363-4.678-1.906-7.187 1.455-2.51 4.673-3.366 7.184-1.91 2.513 1.457 3.368 4.678 1.91 7.187M54.143 21.138c-1.457 2.508-4.676 3.367-7.19 1.91-2.508-1.46-3.363-4.678-1.906-7.187 1.455-2.51 4.674-3.365 7.183-1.91 2.513 1.457 3.368 4.68 1.913 7.188M54.14 46.592c-1.454 2.51-4.677 3.366-7.187 1.908-2.508-1.455-3.363-4.676-1.906-7.187 1.455-2.508 4.674-3.364 7.183-1.908 2.513 1.457 3.368 4.676 1.91 7.187"/></g></svg>