<?xml version="1.0" encoding="utf-8"?>
<!-- Generator: Adobe Illustrator 16.0.0, SVG Export Plug-In . SVG Version: 6.00 Build 0)  -->
<!DOCTYPE svg PUBLIC "-//W3C//DTD SVG 1.1//EN" "http://www.w3.org/Graphics/SVG/1.1/DTD/svg11.dtd">
<svg version="1.1" xmlns="http://www.w3.org/2000/svg" xmlns:xlink="http://www.w3.org/1999/xlink" x="0px" y="0px" width="369px"
	 height="221px" viewBox="0 0 369 221" enable-background="new 0 0 369 221" xml:space="preserve">
<g id="Layer_2">
	<polygon fill="none" stroke="#EAEAEA" stroke-width="0.25" stroke-miterlimit="10" points="25.311,161.252 151.149,198.607 
		353.709,124.829 228.046,87.408 	"/>
	<path d="M251.719,21.73v88.122l-110.135,40.115V61.845L251.719,21.73z M254.02,16.486L140.916,57.697
		c-1.973,0.761-3.416,2.707-3.416,4.949l0,0l-0.002,0.146l0,89.37l0,0c0,1.456,1.18,2.677,2.635,2.677l0,0
		c0.287,0,0.597-0.077,0.855-0.161l113.853-41.497c0.562-0.15,1.006-0.683,1.007-1.293v-0.029V17.906l0-0.183l0,0
		c0-0.728-0.59-1.318-1.318-1.318l0,0c-0.122,0-0.24,0.017-0.352,0.048L254.02,16.486z"/>
	<polygon fill="#E8F2FB" points="251.719,21.73 251.719,109.852 141.583,149.967 141.583,61.845 	"/>
	<line fill="none" stroke="#000000" stroke-width="0.25" stroke-miterlimit="10" x1="155.917" y1="74.5" x2="155.917" y2="113.75"/>
	
		<line fill="none" stroke="#000000" stroke-width="0.25" stroke-miterlimit="10" x1="168.374" y1="61.496" x2="200.125" y2="49.891"/>
	
		<line fill="none" stroke="#000000" stroke-width="0.25" stroke-miterlimit="10" x1="166.686" y1="69.354" x2="201.183" y2="79.646"/>
	
		<line fill="none" stroke="#000000" stroke-width="0.25" stroke-miterlimit="10" x1="147.665" y1="63.738" x2="113.167" y2="53.445"/>
	<polygon points="199.917,52.12 199.917,48 202.539,49.055 	"/>
	<polygon points="197.428,80.135 201.478,78.66 204.592,80.597 	"/>
	<polygon points="116.006,52.676 111.956,54.151 108.842,52.214 	"/>
	<polygon points="154.426,114.224 155.917,116.804 158.148,112.868 	"/>
	<path fill="#F2F2F2" d="M184.984,169.91c-0.145,0.041-0.299,0.053-0.456,0.053l0,0c-0.212,0-0.416-0.033-0.607-0.096l-8.397-2.51
		c-0.765-0.27-1.313-0.999-1.313-1.855l0,0c0-0.848,0.538-1.57,1.291-1.847l4.502-1.685c0.187-0.059,0.386-0.09,0.592-0.09l0,0
		c0.151,0,0.299,0.017,0.441,0.049l8.643,2.586c0.724,0.29,1.234,0.998,1.234,1.825l0,0c0,0.688-0.354,1.293-0.889,1.645
		C190.024,167.986,188.878,168.799,184.984,169.91z"/>
	<path fill="#CCCCCC" d="M202.448,155.624c0,0.699-0.566,1.265-1.266,1.265l0,0c-0.699,0-1.265-0.566-1.265-1.265l0,0
		c0-0.698,0.566-1.265,1.265-1.265l0,0C201.881,154.359,202.448,154.926,202.448,155.624L202.448,155.624z"/>
	<polygon fill="#F2F2F2" points="215.854,158.654 249.085,146.55 234.339,142.172 201.183,154.249 	"/>
	<path fill="#B7B7B7" d="M201.427,156.889l3.823-1.393l-3.649-1.064c0,0,0.826,0.307,0.847,1.192S201.427,156.889,201.427,156.889z"
		/>
	<polygon points="195.688,69.618 195.688,70.675 198.5,71.509 195.688,73.057 195.688,74.117 199.917,75.372 199.917,74.311 
		196.965,73.436 199.917,71.914 199.917,70.857 	"/>
	<polygon points="192.656,73.266 193.615,73.542 193.615,72.201 194.99,72.609 194.99,71.812 193.615,71.404 193.625,70.023 
		192.656,69.743 192.656,71.128 191.294,70.719 191.294,71.516 192.656,71.925 	"/>
	<polygon points="126.158,49.003 126.158,50.06 128.97,50.894 126.158,52.441 126.158,53.502 130.387,54.756 130.387,53.696 
		127.436,52.82 130.387,51.298 130.387,50.242 	"/>
	<polygon points="125.46,51.994 125.46,51.197 121.764,50.104 121.764,50.9 	"/>
	<g>
		<path d="M159.846,68.495l-0.294-0.27c0.168-0.168,0.292-0.321,0.372-0.459c0.08-0.138,0.126-0.285,0.138-0.441
			c-0.132-0.024-0.227-0.07-0.285-0.138c-0.058-0.068-0.087-0.16-0.087-0.276c0-0.12,0.039-0.221,0.117-0.303
			c0.078-0.082,0.189-0.123,0.333-0.123c0.16,0,0.282,0.049,0.366,0.147s0.126,0.235,0.126,0.411c0,0.26-0.055,0.499-0.165,0.717
			C160.357,67.978,160.15,68.223,159.846,68.495z"/>
	</g>
	<path d="M158.969,65.863c-0.156,1.633-1.237,2.866-2.414,2.753c-1.176-0.112-2.004-1.527-1.848-3.16
		c0.156-1.633,1.237-2.865,2.414-2.753S159.125,64.23,158.969,65.863z M156.915,63.463c-0.595-0.015-1.1,0.947-1.13,2.147
		c-0.03,1.201,0.426,2.187,1.019,2.201c0.595,0.015,1.1-0.947,1.131-2.147C157.963,64.463,157.508,63.478,156.915,63.463z"/>
	<path d="M164.913,63.667c-0.156,1.633-1.237,2.866-2.414,2.753c-1.176-0.112-2.004-1.527-1.848-3.16
		c0.156-1.633,1.237-2.865,2.414-2.753S165.068,62.034,164.913,63.667z M162.858,61.266c-0.595-0.015-1.1,0.947-1.13,2.147
		c-0.03,1.201,0.426,2.187,1.019,2.201c0.595,0.015,1.1-0.947,1.131-2.147C163.907,62.267,163.451,61.281,162.858,61.266z"/>
	<path fill="#EAEAEA" d="M139.708,154.795l-4.458-1.313c-1.073-0.333-1.852-1.334-1.852-2.517l0,0l0.011-1.112l-0.026-89.984
		l-0.001-0.127l0,0c0-2.328,1.509-4.304,3.603-5.001l0.118-0.059l109.4-39.848l1.037-0.355c0.091-0.02,0.185-0.03,0.281-0.03l0,0
		c0.142,0,0.279,0.022,0.407,0.064l6.726,1.95c-0.156-0.037-0.422-0.064-0.422-0.064l0,0c-0.122,0-0.24,0.017-0.352,0.048
		l-0.159,0.034L140.916,57.691c-1.973,0.761-3.416,2.707-3.416,4.949l0,0l-0.002,0.146l0,89.37l0,0
		C137.498,153.494,138.413,154.414,139.708,154.795z"/>
	<path fill="#F2F2F2" d="M182.781,139.48v3.819l0,0c0,1.191,0.79,2.198,1.875,2.524l10.196,3.086
		c0.484,0.146,0.998,0.225,1.529,0.226l0,0c0.629,0,1.232-0.11,1.791-0.312l19.63-7.214c0.207-0.071,0.356-0.268,0.356-0.499l0,0
		c0-0.243-0.163-0.447-0.386-0.508l-12.226-3.588v-5.904L182.781,139.48z"/>
	<path fill="#CCCCCC" d="M196.545,149.967c0,0-0.913-0.06-1.341-0.172l-11.285-3.437c-1.053-0.346-1.813-1.337-1.813-2.505l0,0
		v-4.161l0.678-0.212v3.819l0,0c0,1.191,0.79,2.198,1.875,2.524l10.196,3.086c1.02,0.247,1.69,0.223,1.69,0.223"/>
	<path fill="#EAEAEA" d="M218.155,141.11L218.155,141.11c0,0.231-0.149,0.428-0.356,0.499l-19.63,7.214
		c-0.559,0.202-1.127,0.312-1.623,0.309l0,0l-0.007,0.834l0,0c0.704,0,1.375-0.138,1.989-0.388l19.267-7.075
		c0.209-0.068,0.361-0.267,0.361-0.5l0,0L218.155,141.11z"/>
	<path fill="#CCCCCC" d="M174.583,166.628l1.518,0.413l7.792,2.328c0.178,0.057,0.367,0.088,0.564,0.088l0,0l0.142,0.584l0,0
		c-0.212,0-0.416-0.033-0.607-0.096l-8.397-2.51c-0.395-0.139-0.731-0.4-0.965-0.738L174.583,166.628z"/>
	<polygon fill="#CCCCCC" points="151.167,202.285 151.167,198.607 25.375,161.25 25.375,165.016 	"/>
	<polygon fill="#EAEAEA" points="353.709,124.829 353.709,128.512 151.167,202.285 151.167,198.607 	"/>
	<path fill="#CCCCCC" d="M137.838,60.797c-0.275,0.625-0.338,1.843-0.338,1.843l-0.002,0.146l0,89.37l0,0
		c0,1.338,0.915,2.258,2.21,2.64l-4.458-1.313c-1.073-0.333-1.852-1.334-1.852-2.517l0,0l0.011-1.112l-0.026-89.984l0.004-0.353
		L137.838,60.797z"/>
</g>
<g id="Layer_3">
	<path fill="#4F6A91" d="M298.542,171.812l-1.042,0.958c0,3.563-1.715,5.359-2.542,7.938c-0.47,1.466,0.666,3.972-0.729,5.23
		c-1.806,1.63-3.927,2.918-6.261,3.762c-0.271,0.098-0.545,0.19-0.821,0.276l-43.564,15.9c-2.064,0.771-4.299,1.191-6.632,1.191l0,0
		c-1.389-0.537-3.189-4.22-4.514-7.365c-1.51-3.585-5.688-6.454-5.688-12.036l2.917-3.792l-6.292-5.333l-5.398-17.375v-15.364l0,0
		c0-8.205,5.207-15.196,12.498-17.843l7.981-2.893l37.15-13.543c1.86-0.609,3.848-0.939,5.911-0.939l0,0
		c10.482,0,18.977,8.497,18.977,18.978l0,0v13.646L298.542,171.812z"/>
	<path fill="#CFD7E5" d="M235.69,170.423L235.69,170.423c-9.784,0-17.713-2.367-17.713-12.149v29.818
		c0,10.479,8.494,18.977,18.975,18.977l0,0v-36.662L235.69,170.423z"/>
	<path fill="#CFD7E5" d="M294.231,185.938v-35.524c4.732-1.71,5.983-4.477,6.262-8.335v29.772l0,0
		C300.493,177.439,298.077,182.466,294.231,185.938"/>
	<path fill="#A8B8D0" d="M272.908,124.973c-4.67,3.156-11.991,5.24-17.063,5.24l0,0c-2.925,0-5.701-0.646-8.174-1.829l-0.006-18.817
		c0.039,0.025,0.079,0.014,0.119,0.039c3.566,2.319,7.822,3.667,12.395,3.667l0,0c4.717,0,9.097-1.434,12.73-3.889L272.908,124.973z
		"/>
	<path fill="#2F4860" d="M247.665,128.381c-0.741-0.355-1.454-0.775-2.139-1.221c-1.43-0.93-2.726-2.046-3.854-3.315l5.991-2.184
		L247.665,128.381z"/>
	<path fill="#395475" d="M272.908,112.465c6.955,4.583,4.978,9.156-0.013,12.518L272.908,112.465z"/>
	<path fill="#CFD7E5" d="M282.953,96.521c0,12.574-10.195,22.771-22.771,22.771l0,0c-4.571,0-8.829-1.348-12.395-3.667
		c-6.245-4.062-10.375-11.102-10.375-19.104l0,0c0-12.575,10.193-22.773,22.77-22.773l0,0
		C272.758,73.748,282.953,83.946,282.953,96.521L282.953,96.521z"/>
</g>
</svg>
