<svg viewBox="0 0 65.3 75.17798" xmlns="http://www.w3.org/2000/svg"><path d="m15.5 70c1.4-.6 2.6-2.3 3.4-5.4a9.36271 9.36271 0 0 0 .4-1.6c.1-1-1.5-2.5-2.1-3.5-2.2-3-3.9-1.5-4.3-1.8-.7-.6-1.4-1.3-2.8-2.5-.9-.8-3-2.3-3.2-.7s2.8 3.9 2.4 4.5l-.1.1c-.4 0-1.1 0-1.3.5l-.2 1a.95919.95919 0 0 0 .2.9.30417.30417 0 0 1 0 .4c-.3.1-.4.4-.4.8v1.1a.89069.89069 0 0 0 .5.8.48093.48093 0 0 1 .2.6 1.26833 1.26833 0 0 0 -.1.6 2.01582 2.01582 0 0 0 .3 1.1 8.94285 8.94285 0 0 0 4.4 3" fill="#fdd5a6"/><path d="m12.9 57.7c-.7-.6-1.4-1.3-2.8-2.5-.9-.8-3-2.3-3.2-.7s2.8 3.9 2.4 4.5l-.1.1h1.2v-.3a7.956 7.956 0 0 1 2.5-1.1zm5.2 12.3a5.70374 5.70374 0 0 0 0-2.6s-2.5-.6-2.8-2.8c-.5-4.3-1.3-3.3-1.9-3.4a6.28235 6.28235 0 0 1 .2 3.6 3.04808 3.04808 0 0 1 -1.2 2.2c-.9.6-2.4.4-3.7.3.4.8 2.2 1.9 3.9 2.7" fill="#fbbf88"/><path d="m21.1 70 2-4.6s3.5-4.9 2.2-4.2c-2.4 2.1-6.1.8-6.1.8s.8 5.3-6.9 8" fill="#815a37"/><path d="m10.6 59c-.3-.6.1 1.5 1.3 2.1a3.63016 3.63016 0 0 0 2.3.1 4.38706 4.38706 0 0 1 -3.6-2.2z" fill="#dcad84"/><path d="m39.1 70.8c.3-5.9.4-12.1.4-12.1l-12.4 2a40.99046 40.99046 0 0 0 -4.8 9.3s6 0 11.2.1z" fill="#163860"/><path d="m22 70 3.2-6.9 1.6-2.3.3.7a64.23 64.23 0 0 0 -3.7 8.5m8.2-3.2-.1.2zm.5-.5-.2.2zm-1.5 1.6-.1.1zm4-4-.2.1zm-1.6 1.4-.1.2zm-.4.5-.2.2zm-3.9.9.1.2zm.4.6.1.2zm-.5-.9.1.2zm.3.6.1.2zm-.7-1.6.1.2zm-.2-.3.1.2zm-.1-.3.1.2zm.4 1 .1.2zm.1.3.1.2z" fill="#0c233b"/><path d="m34.9 61.9-4.3 4.7-1.7-2s-.7-3.5 0-5.2l.4-.8 5.9.7z" fill="#dadad9"/><path d="m38.3 56.2h1.8l-.2 1.7-4.4 7.7-2.9-5.5-.7-.5-4.4 5a13.21107 13.21107 0 0 1 -.6-4.8c.1-1 0-1.8.7-2.2.1 0 6.4 4.2 10.7-1.4z" fill="#fff"/><path d="m31.4 60.3-2.6 3.9a5.94869 5.94869 0 0 0 1.2 3.1s2-2.2 2.8-3.1v-3.9z" fill="#159ad6"/><path d="m31.1 60.8a1.51411 1.51411 0 0 0 1.7.2v-.5l-1.4-.1z" fill="#1580af"/><path d="m21.1 70c1.2-3.5 3.6-8.8 6-11.2l.6.9a64.315 64.315 0 0 0 -4.8 10.3z" fill="#815a37"/><path d="m32.8 60.4.2 3.6-.2.2z" fill="#c1c0bd"/><path d="m40 55.9s7-2 7.3-1.8a67.32894 67.32894 0 0 0 3 16.7h-11.5c.5-6.9 1.2-14.9 1.2-14.9z" fill="#815a37"/><path d="m40 57.5 1.5-.2a12.307 12.307 0 0 0 2.2 6.4s-3.6 1.4-4.4 2.7l3.4-.4a36.10936 36.10936 0 0 1 -1.7 4.6h-2.1z" fill="#472a16"/><path d="m39.3 57.4 1.3-1a13.8959 13.8959 0 0 0 1.8 6.6s-2.7 1.8-3.1 3.4l3.8-.6a47.39288 47.39288 0 0 0 -2.6 5h-1.9z" fill="#693521"/><path d="m28.7 63.5a25.14185 25.14185 0 0 0 1.7-2.3l-1.8 2a.774.774 0 0 1 .1.3z" fill="#c1c0bd"/><path d="m39.2 59.5-3.7 6.1 3.6-6.3z" fill="#0c233b"/><path d="m28.8 64.2.1-.2a8.065 8.065 0 0 0 1.1 3.3 5.13483 5.13483 0 0 1 -1.2-3.1z" fill="#1580af"/><path d="m28.7 63.5c-.3.3-.9.8-1.2 1.1l1.2-1.4z" fill="#0c233b"/><path d="m33.7 59.7c0 .6-.7 1-1.6 1s-1.6-.5-1.6-1c0-.9.7-1 1.6-1s1.6.1 1.6 1z" fill="#159ad6"/><path d="m43.6 75.1c-1 .2-2-1.9-2-1.9l2.7-1.2c.1 0 .3 2.9-.7 3.1z" fill="#5b4026"/><path d="m38.7 66.4c-3.9.3-10 1.6-10.3 4.3-.2 2.7 14.8 2 14.8 2a11.69654 11.69654 0 0 0 .5-2c.1-1.9-.5-4.6-5-4.3z" fill="#fcd7a9"/><path d="m39.2 66.4s2.8.3 3.5 1.7a3.44051 3.44051 0 0 1 .5 2.6c-.6 1.7-3.3 2-5.1 2-3.3 0-8.3-1.1-9.7-2-.2 1.5 5.2 3.6 9.5 3.9 2.8.2 3-1.8 6.8-1.2a8.4226 8.4226 0 0 0 .4-2.7c-.1-2.1-1.1-4.8-5.9-4.3z" fill="#dbac83"/><path d="m44.1 70.8a7.04556 7.04556 0 0 1 -.7 4.3c3.8.6 10.5-2.4 11.9-4.3a.75814.75814 0 0 0 .2-.4c.6-2-.8-6.2-2.7-10.1a15.92968 15.92968 0 0 0 -5.6-6.2l-1.7 10.6c-5 .6-6.2 1.7-6.2 1.7 3.3-.2 4.6 2.1 4.8 4.4z" fill="#815a37"/><path d="m46.7 59.7s-.8 3.8-.9 5c0 0-2.2-.4-6.5 1.7a12.32368 12.32368 0 0 1 6.1-2.3 31.91441 31.91441 0 0 1 1.3-4.4z" fill="#5b4026"/><path d="m38.3 54.2.2 2.4a7.51578 7.51578 0 0 1 -6.7 3.4c-1.8-.1-4.2-.8-4.4-1.8a4.875 4.875 0 0 1 0-2.4z" fill="#fdd5a6"/><path d="m37.6 57.7a19.45912 19.45912 0 0 1 -10.7-.1l.1-1.5 10.8-1.6z" fill="#cdad87"/><ellipse cx="36.6" cy="55" fill="#5b4026" rx="10.5" ry="3.9"/><path d="m19.1 50.1c-2.1-3.3-7.2 1-8.6 2.2s.5-3.4 2.3-4c0 0-4.1-.2-4.7 2.7a5.562 5.562 0 0 1 1.9-5.1s-4.1 3.4-5 4.8a15.74976 15.74976 0 0 1 .4-2l-3.1.5s-.8-7.9 4.6-9.4-.4-.7-.4-.7-1.6-2.9-6.4-1.7c0 0 2.1-16.4 12-17.6 0 0-.9-3.5-4.4-2.8 0 0 .5-1.8 2-1.8l-2.8-1.4s8.5-4.9 15.4 2.6c0 0 2.4-11 2.4-12.4s.1-3-.4-3.8c0 0 3.3.6 3.3 2.1a1.70983 1.70983 0 0 0 -.5-2s5.6 2.3 5.1 5l.4-2.3s1.7.9 1.8 1.9.4-2.4.4-2.4 5.7 2.2 6 10.5c0 0 14.7-5.5 19.6 9.4l-3.7-.7s2.9 1.2 3.3 3.1c0 0 4.5 1.2 4.5 12.4 0 0-1.1-4.6-4.5-5.2 0 0 5 2.1 5.3 12.6a11.25814 11.25814 0 0 0 -3.5-2.1s3.7 2.3 2.3 8.2c0 0-.6-1.5-3.5-1.8l.4 1.1-2.2-1.1s-7.1.6-8.9 2.7c0 0-.3-2.8-2.5-1.4z" fill="#f6f7f7"/><path d="m51.9 45.2c-.5 6.2-4.6 12.6-13.1 12.3-1.8 0-3.5.4-5.4.3-7.5-.6-14.8.4-15.7-10.3 0-.2-.1-.3-.2-.5a11.41408 11.41408 0 0 1 -.6-4.5c.6-7.7 9.3-13.5 19-12.7a23.00769 23.00769 0 0 1 5.1 1c6.9 2.3 11.4 8.1 10.9 14.4z" fill="#fcd4a9"/><path d="m28.3 30.5a21.66745 21.66745 0 0 1 7.6-.8 23.00769 23.00769 0 0 1 5.1 1c7 2.4 11.5 8.2 11 14.4-.2 2.8-2.2 12-12.4 12.4 0 0 13.8-9.3 2-19.5a43.83116 43.83116 0 0 0 -13.3-7.5z" fill="#fbc18d"/><path d="m26.3 43.9s.4-2.9-1.6-2.6a.99227.99227 0 0 1 .5 1.3s-1.1-3.3-5.4 0c0 0 1.4-.5 1.9-.2 0 0-1.9.2-2 1.2 0 0 .8-.2 1.1.1 0 0-1.2 1 .5 2.3 0-.1 2.8-2.6 5-2.1z" fill="#e8e7e6"/><g fill="#232221"><ellipse cx="24.6126" cy="47.88918" rx="2.10002" ry="1.40001" transform="matrix(.07619487 -.99709295 .99709295 .07619487 -25.01271 68.78133)"/><ellipse cx="38.4327" cy="47.70535" rx="2.10001" ry="1.40001" transform="matrix(.07619487 -.99709295 .99709295 .07619487 -12.06234 82.39142)"/></g><path d="m38.1 44.8s3.2 0 4.7 1.6c0 0 2.2-1-.2-2.2a1.67241 1.67241 0 0 1 1.2.1s0-1.5-2.4-1.4a1.80991 1.80991 0 0 1 1.6-.1s-2.2-2.3-3.7-.2a1.72221 1.72221 0 0 1 1-1.2c-.8 0-3.4-.2-3.1 3.2z" fill="#e8e7e6"/><path d="m44.1 70.8a7.04556 7.04556 0 0 1 -.7 4.3c3.8.6 10.5-2.4 11.9-4.3a.75814.75814 0 0 0 .2-.4 31.5457 31.5457 0 0 1 -6.1 1.3 24.50028 24.50028 0 0 1 -5.3-.9z" fill="#744e31"/><path d="m21.7 70a72.95551 72.95551 0 0 1 5.6-9.8.96667.96667 0 0 0 0-1.4s-4.6 3.5-4.7 3.6l-.1 1.5-1.1.9s-.6 2.7-1 5.2" fill="#693521"/><path d="m28.8 51.9c-2-1.6-8.2-2.8-7.5 7.2 0 0 .4-1.6 1.4-1.5 0 0-.4 2.5.9 3 0 0 .6-2.5 1.6-1.9 0 0 1.8 3 3.5 3.2 0 0-.4-2.1.7-2.2l1.7 2.5 1.6-2.8s1.1 1.3.4 1.8a1.85828 1.85828 0 0 0 1.9-1.6s1.9.7 1.5 2.3a3.18885 3.18885 0 0 0 1.4-2.7l1.6 2 .4-3.3s2.6 1 2.6 2.1a5.09012 5.09012 0 0 0 -1.5-4.8l2.6.5s-5.7-6.6-10.4-3.1c-.8.6-1.7 1.4-4.4-.7z" fill="#e8e7e6"/><g fill="#dadbd9"><path d="m35.7 55s6.5.1 6.8 4.9c-.1 0-2.5-4.4-6.8-4.9zm-7 6.9s-.1-4.7 1.8-5.9c0 0-3.9 1.3-1.8 5.9zm7.7.1s1.1-3.2-.7-4.3c0 0 3.3.9.7 4.3zm-5.3.2s1.6-3.5 1.3-5.1a2.21977 2.21977 0 0 1 .5 1.1c.1.9-.1 2.3-1.8 4z"/><path d="m31.9 55.6s1.6 3.2.6 4l.1.5a.96886.96886 0 0 1 .7.8c0 .1 1.1-2.6-1.4-5.3zm-3.2 6.2s-2.8-4.3-.5-6.2c0 0-4 3.3.6 6.4m-5.2-1.4s1-3.4 2.6-3.5c0 0-3.7-.9-2.6 3.5z"/><path d="m21.4 59.1a2.83532 2.83532 0 0 1 2.8-1.7l.8-.4c-.1.1-3.2-1.2-3.6 2.1zm8.8-4.9s-6.4-6-8.3 1.5c0 0 1.4-2.9 3.3-2.6 0 0-1 .4-1 1.3.1 0 1.9-2 6-.2zm2.4-.4s4.7-3 8.2.4c-.1 0-2.6-1.7-8.2-.4z"/></g><path d="m19 50.1s-.2-10.2 2.3-10.2c0 0 1.1 1.8 1.9 1.9.2 0 0-5.2 2.9-6.4 0 0 9.2 5.1 10.6 3-.3-.2-3.6-2-3.2-3.5.2-.8 7.4 0 9.8 7.7.5.4 1.7-1.1 2.2-3.1.8-3.7 2.1 6.9 2.1 7.1s1-.2 1.8-1.1-.4 5.7-.7 6.4c1.8-1.2 3.1-1.2 3.8-6.4.6-4.7-2.9-11-6.8-13.6-3.2-2.1-10.5-3.8-19.6-1.1-10.9 3.2-9.5 12.7-9.4 14.2.2 2.6 2.2 4.3 2.3 5.1z" fill="#f6f7f7"/><g fill="#e8e7e6"><path d="m19 48.4s-2.4-2.6-6.5.7c0 0 5.8-1.1 6.5 1zm-10.5-3.3c4.3-2.6 6.6-1.2 6.6-1.2-4.6-.2-5.3 3.5-5.3 3.5a10.31021 10.31021 0 0 1 9.3-1.4l.1-1.4.2-1.4c-6.9-3.4-10.9 1.9-10.9 1.9zm-1.9-7.9s8.9-4.5 14.6 2.7a18.30144 18.30144 0 0 0 -14.6-2.7zm36.1-22.1s12.3-3.4 17.6 7.1c0 0-6.4-8.7-17.6-7.1zm21.7 22.1s-.3-10.4-5.2-11a6.83987 6.83987 0 0 0 -2.5-4.6s2.7 1.1 3.1 3c.1 0 5.4 1.3 4.6 12.6zm-23.3-21.3s-2.3-10.6-6.3-13.5c0 0 6 2.2 6 10.5zm-31.1-2.3s10.8-3.3 16.6 11.4a23.69 23.69 0 0 0 -16.6-11.4z"/><path d="m10 16.4s3.8-.5 5.1 4.4c-.1 0 .6-6.7-5.1-4.4zm-10 20.8s4.7-14.5 12-17.4c0 0-9.4.1-12 17.4zm25.5-1.9c-3.2-1.2-10.9-5.1-9.3-10 0 0-3.5 5.1 3.5 8 0 0-4.1-1.1-5.7.1 0 0 6.7 1 10.7 3.2a3.49114 3.49114 0 0 1 1.5-1.2c-.1 0-.6 0-.7-.1zm11.2 3.1s-12.6-6.7-4.5-7.4c0 0-14.4-1.9 4.5 7.4zm0 0s-.7 2.3-9.2-2.2c0 0 6.6 2.6 9.2 2.2zm-12.5-38.4s1.3 2.5-2 16.3c0 0 7.9-12.1 2-16.3zm14.5 25.4s4.7-4.6 8.7-2.9a7.03446 7.03446 0 0 0 -7.6-1.1 11.81483 11.81483 0 0 1 2.9-1.6s-2.7-.1-3.6.6c0 0-1.7-4.7-11-2.5 0-.1 10-.9 10.6 7.5zm14.9 7.2a10.68229 10.68229 0 0 0 1.7-4.6c.8-5-4.8-3.5-4.8-3.5s4.3-.4 3.8 3.2-6.7 7-6.7 7c.5-2.2.5-4.7-1.7-5.9 0 0 1.6 4-1.1 10.8-.6-12-8-11.4-8-11.4 6.2 1.5 7.2 11.9 7.2 13.1a8.26486 8.26486 0 0 1 -.7 1.3s1 1.2 2.5-3.7l.7 1.8c4.5-9.8 14.8-6.1 14.8-6.1-1.5-3-6.2-2.4-7.7-2zm-16.2-16.3c-2.2-2.1-4.6-4.7-5-6.7a14.47271 14.47271 0 0 1 -.1-3.6c.3-3-1.3-4.7-5.4-5.9 0 0 3.4 1.7 3.5 8.5a10.76576 10.76576 0 0 0 -2.4-1.8c2.2 1.6 1.5 3.5 2.3 4.7s7.1 4.8 7.1 4.8z"/><path d="m63 35c.7.2 2.1 4.9 2.2 9.4a11.25814 11.25814 0 0 0 -3.5-2.1s3.7 2.3 2.3 8.2c0 0-.6-1.5-3.5-1.8l.4 1.1-2.2-1.1s-8.3 1.3-10.2 3.5c0 0 1.2-6.9.8-6.5-1.2 1.2-1.7 1-1.7 1s-.2-1.7-1-6c-.2-1.6 4.9-9.7 16.4-5.7z" fill="#ebecec"/><path d="m55.4 47.7a5.04345 5.04345 0 0 1 5.5 1c.2.2.1 1.2.1 1.2l-2.2-1.1s-8.1 2-10.3 3.5a15.58575 15.58575 0 0 1 6.9-4.6z"/><path d="m52.8 45.1a4.8026 4.8026 0 0 0 4.5-3.7 15.94978 15.94978 0 0 0 .7-3.8s1.2 5.3.2 6.3a6.96188 6.96188 0 0 1 5.9 6.7s-3.3-5-11.4-4.3a16.65376 16.65376 0 0 0 -3.2.8v-1.3zm12.4-.6s-2-6.9-4.7-6.8c0 0 4-1.7 4.7 6.8z"/></g><path d="m54.7 64.9a15.42715 15.42715 0 0 0 -2.7 5.8 9.85551 9.85551 0 0 0 .1 2.4 8.31526 8.31526 0 0 0 3.3-2.4c.1-.1.1-.3.2-.4.6-1.7-.9-5.4-.9-5.4z" fill="#45413e"/></svg>