<svg xmlns="http://www.w3.org/2000/svg" width="844" height="76" fill="none" viewBox="0 0 844 76"><path fill="#b2d9fd" d="M156.1014 88.1051c1.8726.416 3.5982 1.1319 5.1546 2.0678 8.1993-12.2629 23.3467-18.8885 38.615-15.5057 2.9184.6461 5.6734 1.6305 8.246 2.8893 5.4652-1.7815 11.1002-6.7237 17.1193-5.3895 3.8783.8577 11.2022-28.7961 44.9658-13.8183.098-.7818 18.5254-17.5548 47.7613-5.001 5.2563-11.6939 19.2641-9.6914 22.3716-5.0733.6811-2.0146 7.4287-6.3144 13.2431-4.5254 6.468 1.9902 9.1765 6.4593 10.2853 13.2061 1.5846-.1346 3.2175-.0363 4.8533.3258 7.2207 1.5992 12.203 7.834 12.5446 14.8861 4.8363-10.3812 16.3668-16.3963 28.0093-13.8183 13.4627 2.9835 21.9574 16.314 18.9753 29.7758-1.0172 4.5914-3.2592 8.5841-6.2772 11.7616 7.0676-8.7202 18.688-13.2733 30.3906-10.6798 10.1182 2.2404 17.918 9.2979 21.5407 18.2251 2.522-.6381 5.2217-.7295 7.9358-.129 1.141.252 2.227.6173 3.2563 1.0716l-389.0212.2225c-1.5595-4.301 55.0546-21.5945 60.0305-20.4914z"/><path fill="#c4e0fc" d="M721.7212 58.1051c-1.8726.416-3.5982 1.1319-5.1546 2.0678-8.1993-12.2629-23.3467-18.8885-38.615-15.5057-2.9184.6461-5.6735 1.6305-8.2461 2.8893-5.4651-1.7815-11.462-2.1763-17.4811-.8421-3.8783.8577-7.4453 2.3654-10.6181 4.376-1.9804-8.1506-8.807-13.8881-16.7245-14.8304-2.3394-8.0232-9.5908-13.4384-17.697-13.664-.098-.782-.2236-1.5626-.3967-2.3457C603.7351 6.4679 590.0865-2.2279 576.3053.825c-7.2659 1.6096-13.094 6.1766-16.5567 12.1435-3.4319-4.2574-9.083-6.4636-14.7828-5.2015-3.6105.802-6.6125 2.8573-8.668 5.6039-2.8352-.9282-5.9407-1.1508-9.066-.4585-7.0844 1.5703-12.1638 7.2959-13.2726 14.0427-1.5846-.1346-3.2175-.0363-4.8534.3258-7.2206 1.5992-12.203 7.834-12.5445 14.8861-4.8364-10.3812-16.3668-16.3963-28.0093-13.8183-13.4627 2.9835-21.9574 16.314-18.9754 29.7758 1.0173 4.5914 3.2592 8.5841 6.2773 11.7616-7.0677-8.7202-18.688-13.2733-30.3906-10.6798-10.1182 2.2404-17.918 9.2979-21.5407 18.2251-2.522-.6381-5.2217-.7295-7.9358-.129-1.141.252-2.227.6173-3.2563 1.0716l389.0212.2225c1.5594-4.301-55.0547-21.5945-60.0305-20.4914zm-320.7208 65.1713c-1.038-6.773-6.847-11.997-13.874-11.987-3.477.006-6.652 1.293-9.081 3.415-1.096-2.025-3.237-3.396-5.699-3.393-.772.001-1.51.145-2.196.396-1.861-3.525-5.559-5.927-9.82-5.92-1.124.001-2.205.173-3.226.485.294-1.344.451-2.741.45-4.177-.017-10.712-8.716-19.384-19.428-19.368-2.827.005-5.507.618-7.927 1.708-1.188-3.145-4.221-5.384-7.782-5.379-2.635.004-4.976 1.237-6.497 3.152-4.614-4.237-10.767-6.822-17.525-6.812-7.122.012-13.568 2.902-18.239 7.567.444-1.2.696-2.492.694-3.844-.01-6.123-4.3495-9.9404-9.616-10.7818-7.5677-1.209-10.9001 2.4029-11.5381 2.5179-.5-8.9731-11.5147-12.7305-18.5855-7.7805-9.4887-8.6563-33.2109-10.172-43.6523-4.95s-11.199 7.645-11.4512 7.3757c-2.75-6.276-10.921-10.2263-17.708-8.4033-3.358.904-6.093 2.966-7.893 5.643-1.581-1.673-4.003-2.445-6.38-1.807-.747.201-1.422.53-2.021.949-2.707-2.924-9.8984-4.2491-15.2172-2.734-5.3189 1.5152-9.6416 4.8511-10.791 11.707-7.6275-2.8786-21.0825-2.617-27.312 8.201-.0357.062-9.7095-5.6003-20.3428.572-36.8445 21.3873-73.939 68.158-71.941 67.812 3.344 2.062 7.499 2.797 11.593 1.697 130.618 8.1953 197.34 12.2913 200.166 12.288 122.5394-25.4334 183.486-38.1497 182.84-38.149z"/><g fill="#d7eafc"><path d="M393.005 114.2764c1.038-6.773 6.847-11.997 13.874-11.987 3.477.006 6.652 1.293 9.081 3.415 1.096-2.025 3.237-3.396 5.699-3.393.772.001 1.51.145 2.196.396 1.861-3.525 5.559-5.927 9.82-5.92 1.124.001 2.205.173 3.226.485a19.4613 19.4613 0 0 1-.45-4.177c.017-10.712 8.716-19.384 19.428-19.368 2.827.005 5.507.618 7.927 1.708 1.188-3.145 4.221-5.384 7.782-5.379 2.635.004 4.976 1.237 6.497 3.152 4.614-4.237 10.767-6.822 17.525-6.812 7.122.012 13.568 2.902 18.239 7.567-.444-1.2-.696-2.492-.694-3.844.01-6.123 4.979-11.077 11.102-11.068.672.001 1.326.072 1.964.187 2.448-1.292 5.239-2.024 8.2-2.02.933-6.367 5.902-11.556 12.17-11.95 6.277-13.661 21.66-21.218 36.669-17.185 13.127 3.527 22.062 14.872 23.15 27.674.923-.012 1.863.09 2.799.341 2.75-6.276 9.71-9.824 16.497-8.001 3.358.904 6.093 2.966 7.893 5.643 2.2384-1.1017 10.7467-1.0724 16.4161 3.4212 5.6695 4.4937 12.6324 14.6529 11.5279 25.6294 5.552-2.903-81.459 69.6394-85.698 69.6344-122.5393-25.4334-183.486-38.1497-182.84-38.149z"/><path d="M952.8418 75.28c-3.5431-2.6325-8.1367-3.8205-12.801-2.8715-1.7554.3578-3.3784.9982-4.847 1.8468-7.4566-11.5845-21.493-18.0183-35.8053-15.1084-2.7358.5558-5.3245 1.4301-7.7473 2.5636-5.0742-1.7526-10.6675-2.219-16.3098-1.0713-3.6355.7377-6.9908 2.0875-9.9864 3.9131-1.7164-7.643-7.9975-13.112-15.3753-14.1209-2.0537-7.53-8.7367-12.7049-16.3025-13.0477-.0787-.7317-.1833-1.4627-.3321-2.1968-2.6263-12.9195-15.2294-21.262-28.1478-18.6359-6.811 1.3846-12.3277 5.5543-15.6584 11.0695-3.1351-4.0314-8.376-6.1836-13.719-5.098-3.3846.6901-6.2213 2.5603-8.1855 5.0916-2.6323-.913-5.5285-1.1714-8.4581-.5759-6.641 1.3508-11.4774 6.6145-12.6227 12.8965-1.4775-.1516-3.0039-.0863-4.5373.2251-6.7686 1.3756-11.5227 7.1163-11.9566 13.696-4.3469-9.7727-15.0158-15.5774-25.9294-13.3599-12.6199 2.5665-20.7694 14.876-18.2042 27.4949.875 4.304 2.9035 8.0689 5.67 11.0851-6.4576-8.258-17.2343-12.699-28.2042-10.468-9.4848 1.9272-16.8831 8.3902-20.4115 16.6673-2.3447-.637-4.864-.7663-7.4082-.2498-1.0696.2166-2.0897.54-3.0582.9475l336.6503 6.5485c1.5263-3.9907-8.3906-13.5184-16.3125-17.2415zm-844 0c-3.5431-2.6325-8.1367-3.8205-12.801-2.8715-1.7554.3578-3.3784.9982-4.847 1.8468-7.4566-11.5845-21.493-18.0183-35.8053-15.1084-2.7358.5558-5.3244 1.4301-7.7473 2.5636-5.0742-1.7526-10.6675-2.219-16.3098-1.0713-3.6355.7377-6.9908 2.0875-9.9864 3.9131-1.7164-7.643-7.9975-13.112-15.3753-14.1209-2.0537-7.53-8.7367-12.7049-16.3025-13.0477-.0787-.7317-.1833-1.4627-.3321-2.1968-2.6263-12.9195-15.2294-21.262-28.1478-18.6359-6.811 1.3846-12.3277 5.5543-15.6583 11.0695-3.1352-4.0314-8.3762-6.1836-13.7192-5.098-3.3845.6901-6.2212 2.5603-8.1854 5.0916-2.6323-.913-5.5285-1.1714-8.4581-.5759-6.641 1.3508-11.4774 6.6145-12.6227 12.8965-1.4775-.1516-3.0039-.0863-4.5373.2251-6.7686 1.3756-11.5227 7.1163-11.9566 13.696-4.3469-9.7727-15.0158-15.5774-25.9294-13.3599-12.6199 2.5665-20.7694 14.876-18.2042 27.4949.875 4.304 2.9035 8.0689 5.67 11.0851-6.4576-8.258-17.2343-12.699-28.2043-10.468-9.4847 1.9272-16.883 8.3902-20.4114 16.6673-2.3447-.637-4.864-.7663-7.4082-.2498-1.0696.2166-2.0897.54-3.0582.9475l336.6503 6.5485c1.5263-3.9907-8.3906-13.5184-16.3125-17.2415z"/></g></svg>