<svg preserveAspectRatio="xMinYMid" viewBox="0 0 40 28" xmlns="http://www.w3.org/2000/svg"><path d="m16.655 3.0656c1.2896-1.344 3.0848-2.178 5.0704-2.178 2.6392 0 4.9422 1.4724 6.1682 3.6585 1.0661-.4765 2.2456-.7417 3.4866-.7417 4.7604 0 8.6198 3.895 8.6198 8.6998 0 4.805-3.8594 8.6998-8.6198 8.6998a8.5742 8.5742 0 0 1 -1.6981-.1692c-1.0797 1.9269-3.138 3.2289-5.4997 3.2289-.9886 0-1.924-.2283-2.7568-.6348-1.0944 2.5764-3.6454 4.3829-6.6176 4.3829-3.0957 0-5.7343-1.9596-6.7465-4.708a6.627 6.627 0 0 1 -1.3718.143c-3.6858 0-6.6735-3.0205-6.6735-6.7464 0-2.4971 1.342-4.6772 3.337-5.8438-.4108-.9457-.6388-1.9889-.6388-3.0856 0-4.2853 3.4768-7.7592 7.7658-7.7592 2.5181 0 4.7558 1.1977 6.1748 3.0538" fill="#00a1e0"/></svg>