<?xml version="1.0" encoding="utf-8"?>
<!-- Generator: Adobe Illustrator 19.1.0, SVG Export Plug-In . SVG Version: 6.00 Build 0)  -->
<svg version="1.1" id="Layer_1" xmlns="http://www.w3.org/2000/svg" xmlns:xlink="http://www.w3.org/1999/xlink" x="0px" y="0px"
	 width="385.3px" height="158.8px" viewBox="0 0 385.3 158.8" style="enable-background:new 0 0 385.3 158.8;" xml:space="preserve"
	>
<style type="text/css">
	.st0{clip-path:url(#SVGID_2_);fill:#0C8EFF;}
	.st1{clip-path:url(#SVGID_4_);fill:#0C8EFF;}
	.st2{clip-path:url(#SVGID_6_);fill:#0C8EFF;}
	.st3{clip-path:url(#SVGID_8_);fill:#0C8EFF;}
	.st4{clip-path:url(#SVGID_10_);fill:none;stroke:#5EB4FF;stroke-miterlimit:10;}
	.st5{clip-path:url(#SVGID_12_);fill:#0577DA;}
	.st6{clip-path:url(#SVGID_14_);fill:#0577DA;}
	.st7{clip-path:url(#SVGID_16_);fill:#0577DA;}
	.st8{fill:none;stroke:#0C8EFF;stroke-linecap:square;stroke-miterlimit:10;}
	.st9{fill:#00A2FF;}
	.st10{fill:none;stroke:#0C8EFF;stroke-miterlimit:10;}
</style>
<g>
	<defs>
		<rect id="SVGID_1_" x="137.1" y="20.2" width="0.3" height="137.7"/>
	</defs>
	<clipPath id="SVGID_2_">
		<use xlink:href="#SVGID_1_"  style="overflow:visible;"/>
	</clipPath>
	<rect x="132.1" y="15.2" class="st0" width="10.3" height="147.7"/>
</g>
<g>
	<defs>
		<rect id="SVGID_3_" x="233.5" y="20.2" width="0.3" height="137.7"/>
	</defs>
	<clipPath id="SVGID_4_">
		<use xlink:href="#SVGID_3_"  style="overflow:visible;"/>
	</clipPath>
	<rect x="228.5" y="15.2" class="st1" width="10.3" height="147.7"/>
</g>
<g>
	<defs>
		<rect id="SVGID_5_" x="116.6" y="40.7" width="137.7" height="0.3"/>
	</defs>
	<clipPath id="SVGID_6_">
		<use xlink:href="#SVGID_5_"  style="overflow:visible;"/>
	</clipPath>
	<rect x="111.6" y="35.7" class="st2" width="147.7" height="10.3"/>
</g>
<g>
	<defs>
		<rect id="SVGID_7_" x="116.6" y="137.1" width="137.7" height="0.3"/>
	</defs>
	<clipPath id="SVGID_8_">
		<use xlink:href="#SVGID_7_"  style="overflow:visible;"/>
	</clipPath>
	<rect x="111.6" y="132.1" class="st3" width="147.7" height="10.3"/>
</g>
<g>
	<defs>
		<path id="SVGID_9_" d="M116.7,40.3c0-11,8.9-20,20-20h98c11,0,20,8.9,20,20v98c0,11-8.9,20-20,20h-98c-11,0-20-8.9-20-20V40.3z"/>
	</defs>
	<clipPath id="SVGID_10_">
		<use xlink:href="#SVGID_9_"  style="overflow:visible;"/>
	</clipPath>
	<path class="st4" d="M116.7,40.3c0-11,8.9-20,20-20h98c11,0,20,8.9,20,20v98c0,11-8.9,20-20,20h-98c-11,0-20-8.9-20-20V40.3z"/>
</g>
<g>
	<defs>
		<path id="SVGID_11_" d="M161.6,58.5h47.9c1.4,0,2.2-1.7,1.4-2.8l-5.7-8.8c-1.7-3.5-5.3-5.7-9.2-5.7h-21c-3.9,0-7.4,2.1-9.2,5.6
			l-5.7,9C159.4,56.8,160.3,58.5,161.6,58.5"/>
	</defs>
	<clipPath id="SVGID_12_">
		<use xlink:href="#SVGID_11_"  style="overflow:visible;"/>
	</clipPath>
	<rect x="154.9" y="36.1" class="st5" width="61.4" height="27.4"/>
</g>
<g>
	<defs>
		<path id="SVGID_13_" d="M185.6,88.9c-7.6,0-13.7,6.1-13.7,13.7c0,7.6,6.1,13.7,13.7,13.7c7.6,0,13.7-6.1,13.7-13.7
			C199.3,95,193.1,88.9,185.6,88.9"/>
	</defs>
	<clipPath id="SVGID_14_">
		<use xlink:href="#SVGID_13_"  style="overflow:visible;"/>
	</clipPath>
	<rect x="166.9" y="83.9" class="st6" width="37.4" height="37.4"/>
</g>
<g>
	<defs>
		<path id="SVGID_15_" d="M185.6,126.6c-13.2,0-24-10.8-24-24c0-13.2,10.8-24,24-24c13.2,0,24,10.8,24,24
			C209.6,115.8,198.8,126.6,185.6,126.6 M233.5,78.5c0-5.7-4.6-10.3-10.3-10.3h-75.4c-5.7,0-10.3,4.6-10.3,10.3v48.2
			c0,5.7,4.6,10.3,10.3,10.3h75.4c5.7,0,10.3-4.6,10.3-10.3V78.5"/>
	</defs>
	<clipPath id="SVGID_16_">
		<use xlink:href="#SVGID_15_"  style="overflow:visible;"/>
	</clipPath>
	<rect x="132.5" y="63.3" class="st7" width="106" height="78.8"/>
</g>
<line class="st8" x1="233.2" y1="129.8" x2="295.2" y2="129.8"/>
<g>
	<path class="st9" d="M307.5,130.8c0,0.5-0.1,1-0.3,1.4c-0.2,0.4-0.5,0.7-0.9,0.9c-0.4,0.2-0.9,0.3-1.4,0.3c-0.9,0-1.6-0.3-2-0.9
		s-0.7-1.4-0.7-2.4c0-0.8,0.1-1.5,0.4-2.2c0.2-0.6,0.6-1.1,1.1-1.4s1.1-0.5,1.7-0.5c0.6,0,1.2,0.2,1.7,0.5l-0.5,0.9
		c-0.4-0.2-0.8-0.3-1.2-0.3c-0.5,0-1,0.2-1.3,0.6c-0.3,0.4-0.5,0.9-0.6,1.6c0.3-0.2,0.5-0.4,0.8-0.5c0.3-0.1,0.6-0.2,1-0.2
		c0.4,0,0.8,0.1,1.2,0.3s0.6,0.4,0.8,0.8C307.4,130,307.5,130.4,307.5,130.8z M306.2,130.9c0-0.4-0.1-0.7-0.3-1
		c-0.2-0.2-0.5-0.3-0.9-0.3c-0.6,0-1.1,0.2-1.5,0.7c0,0.7,0.1,1.2,0.4,1.6c0.2,0.3,0.6,0.5,1.1,0.5c0.4,0,0.8-0.1,1-0.4
		S306.2,131.3,306.2,130.9z"/>
	<path class="st9" d="M313.7,130.7c0,0.5-0.1,1-0.3,1.4s-0.5,0.8-0.8,1c-0.4,0.2-0.8,0.4-1.3,0.4c-0.6,0-1.1-0.2-1.5-0.5v2.8h-1.2
		v-6.5c0-0.3,0-0.7-0.1-1.2h1.2c0,0.3,0.1,0.5,0.1,0.6h0c0.4-0.5,1-0.8,1.7-0.8c0.5,0,0.9,0.1,1.2,0.4c0.3,0.2,0.6,0.6,0.7,1
		S313.7,130.1,313.7,130.7z M312.4,130.7c0-0.6-0.1-1-0.3-1.3c-0.2-0.3-0.5-0.4-0.9-0.4s-0.7,0.1-1,0.4c-0.3,0.3-0.4,0.6-0.4,1v1.7
		c0.2,0.1,0.4,0.2,0.6,0.3s0.4,0.1,0.6,0.1c0.5,0,0.8-0.2,1-0.5C312.3,131.6,312.4,131.2,312.4,130.7z"/>
	<path class="st9" d="M319.5,133.3H318l-1.3-1.9l-1.3,1.9h-1.5l2-2.7l-1.8-2.5h1.4l1.2,1.8l1.1-1.8h1.4l-1.8,2.5L319.5,133.3z"/>
	<path class="st9" d="M325.4,127.9c0.7,0,1.2,0.2,1.7,0.6l-0.5,0.9c-0.4-0.3-0.8-0.4-1.3-0.4c-0.5,0-0.8,0.1-1.1,0.5
		c-0.2,0.3-0.3,0.7-0.3,1.2c0,0.5,0.1,0.9,0.3,1.2s0.6,0.5,1,0.5c0.4,0,0.8-0.1,1.3-0.4l0.5,0.9c-0.3,0.2-0.5,0.3-0.9,0.4
		c-0.3,0.1-0.6,0.1-1,0.1c-0.6,0-1.1-0.1-1.5-0.4c-0.4-0.3-0.6-0.6-0.8-1c-0.2-0.4-0.2-0.8-0.2-1.3c0-0.6,0.1-1,0.3-1.4
		s0.5-0.7,0.9-1S324.9,127.9,325.4,127.9z"/>
	<path class="st9" d="M333.1,130.6c0,0.5-0.1,1-0.3,1.4c-0.2,0.4-0.5,0.7-0.9,1s-0.9,0.3-1.4,0.3c-0.6,0-1-0.1-1.4-0.4
		s-0.7-0.6-0.9-1c-0.2-0.4-0.3-0.9-0.3-1.4c0-0.5,0.1-1,0.3-1.4c0.2-0.4,0.5-0.7,0.9-1c0.4-0.2,0.9-0.3,1.5-0.3s1.1,0.1,1.5,0.3
		c0.4,0.2,0.7,0.5,0.9,1C333,129.6,333.1,130.1,333.1,130.6z M329,130.6c0,0.5,0.1,1,0.3,1.3c0.2,0.3,0.6,0.5,1.1,0.5
		c0.5,0,0.9-0.2,1.1-0.5s0.3-0.8,0.3-1.3c0-0.5-0.1-0.9-0.3-1.3s-0.6-0.5-1.1-0.5c-0.5,0-0.8,0.2-1.1,0.5
		C329.1,129.7,329,130.1,329,130.6z"/>
	<path class="st9" d="M334.3,129.3c0-0.3,0-0.7-0.1-1.2h1.2c0,0.3,0.1,0.5,0.1,0.7h0c0.3-0.6,0.8-0.9,1.5-0.9c0.1,0,0.2,0,0.3,0
		l0,1.1c-0.1,0-0.2,0-0.4,0c-0.4,0-0.8,0.1-1,0.4c-0.2,0.3-0.4,0.7-0.4,1.1v2.7h-1.2V129.3z"/>
	<path class="st9" d="M338.3,129.3c0-0.3,0-0.7-0.1-1.2h1.2c0,0.2,0.1,0.4,0.1,0.6h0c0.2-0.2,0.4-0.4,0.7-0.5c0.3-0.1,0.6-0.2,1-0.2
		c0.4,0,0.8,0.1,1.1,0.3c0.3,0.2,0.5,0.4,0.6,0.7c0.1,0.3,0.2,0.6,0.2,0.9v3.4h-1.2v-3.2c0-0.3-0.1-0.6-0.2-0.8
		c-0.2-0.2-0.4-0.3-0.8-0.3c-0.4,0-0.7,0.1-0.9,0.4c-0.2,0.3-0.3,0.6-0.3,1v2.9h-1.2V129.3z"/>
	<path class="st9" d="M349.1,131.1h-3.6c0.1,0.4,0.2,0.7,0.4,1c0.2,0.2,0.6,0.3,1,0.3c0.3,0,0.6,0,0.8-0.1c0.2-0.1,0.5-0.2,0.7-0.4
		l0.5,0.8c-0.3,0.2-0.6,0.4-1,0.5c-0.3,0.1-0.7,0.2-1.1,0.2c-0.5,0-1-0.1-1.4-0.3c-0.4-0.2-0.7-0.5-0.9-1c-0.2-0.4-0.3-0.9-0.3-1.4
		c0-0.8,0.2-1.5,0.7-2c0.4-0.5,1.1-0.8,1.9-0.8c0.8,0,1.4,0.2,1.8,0.7c0.4,0.5,0.6,1.2,0.6,2C349.2,130.8,349.1,131,349.1,131.1z
		 M347.9,130.2c0-0.4-0.1-0.7-0.3-1c-0.2-0.2-0.5-0.4-0.9-0.4c-0.4,0-0.7,0.1-0.9,0.4s-0.3,0.6-0.4,0.9H347.9z"/>
	<path class="st9" d="M350.4,129.3c0-0.3,0-0.7-0.1-1.2h1.2c0,0.3,0.1,0.5,0.1,0.7h0c0.3-0.6,0.8-0.9,1.5-0.9c0.1,0,0.2,0,0.3,0
		l-0.1,1.1c-0.1,0-0.2,0-0.4,0c-0.4,0-0.8,0.1-1,0.4c-0.2,0.3-0.4,0.7-0.4,1.1v2.7h-1.2V129.3z"/>
	<path class="st9" d="M357,129.3c0-0.3,0-0.7-0.1-1.2h1.2c0,0.3,0.1,0.5,0.1,0.7h0c0.3-0.6,0.8-0.9,1.5-0.9c0.1,0,0.2,0,0.3,0
		L360,129c-0.1,0-0.2,0-0.4,0c-0.4,0-0.8,0.1-1,0.4c-0.2,0.3-0.4,0.7-0.4,1.1v2.7H357V129.3z"/>
	<path class="st9" d="M360.3,131.8c0-0.7,0.2-1.2,0.7-1.4c0.5-0.3,1.2-0.4,2.1-0.4c0.2,0,0.4,0,0.5,0v-0.3c0-0.6-0.4-0.8-1.1-0.8
		c-0.5,0-1,0.1-1.5,0.4l-0.4-0.8c0.3-0.2,0.6-0.3,0.9-0.4s0.7-0.1,1.1-0.1c0.8,0,1.4,0.2,1.7,0.5c0.4,0.4,0.5,0.9,0.5,1.6v2
		c0,0.3,0,0.7,0.1,1.2h-1.2c0-0.3-0.1-0.5-0.1-0.6h0c-0.2,0.2-0.4,0.4-0.7,0.5c-0.3,0.1-0.6,0.2-1,0.2c-0.5,0-0.9-0.1-1.2-0.4
		C360.5,132.7,360.3,132.3,360.3,131.8z M363.6,131.3v-0.4l-0.4,0c-0.6,0-1,0.1-1.3,0.2c-0.3,0.1-0.4,0.4-0.4,0.7
		c0,0.2,0.1,0.4,0.2,0.5c0.1,0.1,0.3,0.2,0.5,0.2c0.2,0,0.5-0.1,0.7-0.2s0.3-0.3,0.5-0.4S363.6,131.5,363.6,131.3z"/>
	<path class="st9" d="M371.3,133.3h-1.2c0-0.3-0.1-0.5-0.1-0.7h0c-0.2,0.3-0.4,0.5-0.7,0.6c-0.3,0.1-0.6,0.2-1,0.2
		c-0.7,0-1.3-0.2-1.6-0.8c-0.4-0.5-0.6-1.2-0.6-2c0-0.5,0.1-1,0.3-1.4s0.5-0.8,0.8-1c0.4-0.2,0.8-0.4,1.3-0.4c0.6,0,1.1,0.2,1.5,0.5
		v-2.3h1.2v5.9C371.2,132.4,371.2,132.8,371.3,133.3z M369.9,131v-1.5c-0.3-0.4-0.8-0.5-1.3-0.5c-0.4,0-0.7,0.2-1,0.5
		c-0.2,0.3-0.3,0.7-0.3,1.3c0,0.6,0.1,1,0.3,1.3c0.2,0.3,0.5,0.4,0.9,0.4c0.4,0,0.7-0.1,1-0.4C369.8,131.8,369.9,131.4,369.9,131z"
		/>
	<path class="st9" d="M372.6,126.4c0-0.5,0.3-0.7,0.8-0.7c0.3,0,0.5,0.1,0.6,0.2c0.1,0.1,0.2,0.3,0.2,0.5c0,0.2-0.1,0.4-0.2,0.5
		c-0.1,0.1-0.3,0.2-0.6,0.2c-0.3,0-0.5-0.1-0.6-0.2C372.7,126.8,372.6,126.7,372.6,126.4z M374,133.3h-1.2v-5.2h1.2V133.3z"/>
	<path class="st9" d="M375.5,131.3v-3.2h1.3v3c0,0.4,0.1,0.7,0.2,1s0.4,0.4,0.8,0.4c0.4,0,0.7-0.1,0.9-0.4c0.2-0.3,0.3-0.7,0.3-1.1
		v-2.8h1.2v4c0,0.4,0,0.8,0.1,1.2h-1.2c0-0.2-0.1-0.4-0.1-0.6h0c-0.4,0.5-0.9,0.8-1.7,0.8c-0.6,0-1.1-0.2-1.5-0.6
		S375.5,131.9,375.5,131.3z"/>
	<path class="st9" d="M385.2,128.5l-0.5,0.8c-0.4-0.3-0.8-0.4-1.2-0.4c-0.3,0-0.5,0-0.6,0.1s-0.2,0.2-0.2,0.4c0,0.1,0,0.3,0.1,0.3
		c0.1,0.1,0.2,0.2,0.3,0.2c0.2,0.1,0.4,0.1,0.7,0.2c0.5,0.1,0.9,0.3,1.1,0.6c0.3,0.2,0.4,0.6,0.4,1c0,0.5-0.2,1-0.6,1.3
		c-0.4,0.3-0.9,0.4-1.5,0.4c-0.8,0-1.4-0.2-1.9-0.6l0.5-0.8c0.2,0.1,0.4,0.2,0.6,0.3c0.2,0.1,0.4,0.1,0.7,0.1c0.3,0,0.5-0.1,0.7-0.2
		c0.2-0.1,0.2-0.3,0.2-0.5c0-0.1,0-0.2-0.1-0.3c-0.1-0.1-0.2-0.2-0.3-0.2c-0.1-0.1-0.4-0.1-0.7-0.2c-0.5-0.1-0.9-0.3-1.1-0.6
		c-0.2-0.2-0.4-0.6-0.4-1c0-0.5,0.2-0.9,0.6-1.1c0.4-0.3,0.9-0.4,1.5-0.4C384.1,127.9,384.7,128.1,385.2,128.5z"/>
</g>
<line class="st8" x1="210.2" y1="63.8" x2="265.2" y2="63.8"/>
<g>
	<path class="st9" d="M277.5,64.8c0,0.5-0.1,1-0.3,1.4c-0.2,0.4-0.5,0.7-0.9,0.9c-0.4,0.2-0.9,0.3-1.4,0.3c-0.9,0-1.6-0.3-2-0.9
		s-0.7-1.4-0.7-2.4c0-0.8,0.1-1.5,0.4-2.2c0.2-0.6,0.6-1.1,1.1-1.4s1.1-0.5,1.7-0.5c0.6,0,1.2,0.2,1.7,0.5l-0.5,0.9
		c-0.4-0.2-0.8-0.3-1.2-0.3c-0.5,0-1,0.2-1.3,0.6c-0.3,0.4-0.5,0.9-0.6,1.6c0.3-0.2,0.5-0.4,0.8-0.5c0.3-0.1,0.6-0.2,1-0.2
		c0.4,0,0.8,0.1,1.2,0.3s0.6,0.4,0.8,0.8C277.4,64,277.5,64.4,277.5,64.8z M276.2,64.9c0-0.4-0.1-0.7-0.3-1
		c-0.2-0.2-0.5-0.3-0.9-0.3c-0.6,0-1.1,0.2-1.5,0.7c0,0.7,0.1,1.2,0.4,1.6c0.2,0.3,0.6,0.5,1.1,0.5c0.4,0,0.8-0.1,1-0.4
		S276.2,65.3,276.2,64.9z"/>
	<path class="st9" d="M283.7,64.7c0,0.5-0.1,1-0.3,1.4s-0.5,0.8-0.8,1c-0.4,0.2-0.8,0.4-1.3,0.4c-0.6,0-1.1-0.2-1.5-0.5v2.8h-1.2
		v-6.5c0-0.3,0-0.7-0.1-1.2h1.2c0,0.3,0.1,0.5,0.1,0.6h0c0.4-0.5,1-0.8,1.7-0.8c0.5,0,0.9,0.1,1.2,0.4c0.3,0.2,0.6,0.6,0.7,1
		S283.7,64.1,283.7,64.7z M282.4,64.7c0-0.6-0.1-1-0.3-1.3c-0.2-0.3-0.5-0.4-0.9-0.4s-0.7,0.1-1,0.4c-0.3,0.3-0.4,0.6-0.4,1V66
		c0.2,0.1,0.4,0.2,0.6,0.3s0.4,0.1,0.6,0.1c0.5,0,0.8-0.2,1-0.5C282.3,65.6,282.4,65.2,282.4,64.7z"/>
	<path class="st9" d="M289.5,67.3H288l-1.3-1.9l-1.3,1.9h-1.5l2-2.7l-1.8-2.5h1.4l1.2,1.8l1.1-1.8h1.4l-1.8,2.5L289.5,67.3z"/>
	<path class="st9" d="M293.1,63.3c0-0.3,0-0.7-0.1-1.2h1.2c0,0.2,0.1,0.4,0.1,0.6h0c0.2-0.2,0.4-0.4,0.7-0.5s0.6-0.2,1-0.2
		c0.4,0,0.8,0.1,1.1,0.3c0.3,0.2,0.5,0.4,0.6,0.7c0.1,0.3,0.2,0.6,0.2,0.9v3.4h-1.2v-3.2c0-0.3-0.1-0.6-0.2-0.8
		c-0.2-0.2-0.4-0.3-0.8-0.3c-0.4,0-0.7,0.1-0.9,0.4c-0.2,0.3-0.3,0.6-0.3,1v2.9h-1.2V63.3z"/>
	<path class="st9" d="M303.9,65.1h-3.6c0.1,0.4,0.2,0.7,0.4,1c0.2,0.2,0.6,0.3,1,0.3c0.3,0,0.6,0,0.8-0.1c0.2-0.1,0.5-0.2,0.7-0.4
		l0.5,0.8c-0.3,0.2-0.6,0.4-1,0.5c-0.3,0.1-0.7,0.2-1.1,0.2c-0.5,0-1-0.1-1.4-0.3c-0.4-0.2-0.7-0.5-0.9-1c-0.2-0.4-0.3-0.9-0.3-1.4
		c0-0.8,0.2-1.5,0.7-2c0.4-0.5,1.1-0.8,1.9-0.8c0.8,0,1.4,0.2,1.8,0.7c0.4,0.5,0.6,1.2,0.6,2C304,64.8,304,65,303.9,65.1z
		 M302.7,64.2c0-0.4-0.1-0.7-0.3-1c-0.2-0.2-0.5-0.4-0.9-0.4c-0.4,0-0.7,0.1-0.9,0.4s-0.3,0.6-0.4,0.9H302.7z"/>
	<path class="st9" d="M304.6,68.2c0-0.5,0.3-1,0.9-1.4c-0.1-0.1-0.2-0.2-0.3-0.3s-0.1-0.2-0.1-0.4c0-0.2,0.1-0.4,0.2-0.5
		c0.1-0.1,0.3-0.3,0.5-0.3c-0.6-0.3-0.9-0.8-0.9-1.5c0-0.6,0.2-1,0.6-1.4s1-0.5,1.7-0.5c0.2,0,0.4,0,0.5,0s0.3,0.1,0.5,0.1h1.9v1
		l-1.1-0.2c0.1,0.1,0.2,0.3,0.3,0.4c0.1,0.2,0.1,0.4,0.1,0.6c0,0.5-0.2,1-0.6,1.2s-0.9,0.5-1.6,0.5c-0.3,0-0.6,0-0.7,0.1
		c-0.2,0.1-0.2,0.2-0.2,0.3c0,0.1,0.1,0.2,0.2,0.3c0.2,0.1,0.4,0.1,0.7,0.1c0.9,0,1.6,0.2,2,0.4c0.4,0.2,0.7,0.6,0.7,1.1
		c0,0.6-0.3,1.1-0.8,1.4c-0.5,0.3-1.2,0.5-2.1,0.5c-0.8,0-1.4-0.1-1.8-0.4C304.8,69.1,304.6,68.7,304.6,68.2z M308.6,68.1
		c0-0.2-0.2-0.4-0.5-0.5c-0.3-0.1-0.9-0.2-1.8-0.2c-0.4,0.2-0.5,0.5-0.5,0.8c0,0.5,0.4,0.8,1.2,0.8c0.5,0,0.9-0.1,1.2-0.2
		S308.6,68.3,308.6,68.1z M308.2,63.8c0-0.3-0.1-0.5-0.3-0.7c-0.2-0.2-0.4-0.3-0.8-0.3c-0.3,0-0.6,0.1-0.8,0.3
		c-0.2,0.2-0.3,0.4-0.3,0.7c0,0.3,0.1,0.5,0.3,0.7c0.2,0.2,0.5,0.3,0.8,0.3C307.9,64.8,308.2,64.5,308.2,63.8z"/>
	<path class="st9" d="M310.6,65.8c0-0.7,0.2-1.2,0.7-1.4s1.2-0.4,2.1-0.4c0.2,0,0.4,0,0.5,0v-0.3c0-0.6-0.4-0.8-1.1-0.8
		c-0.5,0-1,0.1-1.5,0.4l-0.4-0.8c0.3-0.2,0.6-0.3,1-0.4s0.7-0.1,1-0.1c0.8,0,1.4,0.2,1.7,0.5s0.5,0.9,0.5,1.6v2c0,0.3,0,0.7,0.1,1.2
		h-1.1c0-0.3-0.1-0.5-0.1-0.6h0c-0.2,0.2-0.4,0.4-0.7,0.5c-0.3,0.1-0.6,0.2-1,0.2c-0.5,0-0.9-0.1-1.2-0.4
		C310.8,66.7,310.6,66.3,310.6,65.8z M313.9,65.3v-0.4l-0.4,0c-0.6,0-1,0.1-1.3,0.2c-0.3,0.1-0.4,0.4-0.4,0.7c0,0.2,0.1,0.4,0.2,0.5
		c0.1,0.1,0.3,0.2,0.5,0.2c0.2,0,0.5-0.1,0.7-0.2s0.3-0.3,0.5-0.4C313.9,65.7,313.9,65.5,313.9,65.3z"/>
	<path class="st9" d="M318.1,62.1h1.3v1h-1.3v2.6c0,0.5,0.2,0.7,0.7,0.7c0.2,0,0.3,0,0.5-0.1l0.2,0.9c-0.3,0.1-0.6,0.1-0.9,0.1
		c-0.5,0-0.9-0.1-1.2-0.4s-0.4-0.7-0.4-1.2v-2.7H316v-0.8l0.9-0.2v-1.2l1.3-0.4V62.1z"/>
	<path class="st9" d="M320.4,60.4c0-0.5,0.3-0.7,0.8-0.7c0.3,0,0.5,0.1,0.6,0.2c0.1,0.1,0.2,0.3,0.2,0.5c0,0.2-0.1,0.4-0.2,0.5
		c-0.1,0.1-0.3,0.2-0.6,0.2c-0.3,0-0.5-0.1-0.6-0.2C320.4,60.8,320.4,60.7,320.4,60.4z M321.7,67.3h-1.2v-5.2h1.2V67.3z"/>
	<path class="st9" d="M325.8,67.3h-1.4l-1.9-5.2h1.4l1.3,3.9h0l1.2-3.9h1.3L325.8,67.3z"/>
	<path class="st9" d="M333,65.1h-3.6c0.1,0.4,0.2,0.7,0.4,1c0.2,0.2,0.6,0.3,1,0.3c0.3,0,0.6,0,0.8-0.1c0.2-0.1,0.5-0.2,0.7-0.4
		l0.5,0.8c-0.3,0.2-0.6,0.4-1,0.5c-0.3,0.1-0.7,0.2-1.1,0.2c-0.5,0-1-0.1-1.4-0.3c-0.4-0.2-0.7-0.5-0.9-1c-0.2-0.4-0.3-0.9-0.3-1.4
		c0-0.8,0.2-1.5,0.7-2c0.4-0.5,1.1-0.8,1.9-0.8c0.8,0,1.4,0.2,1.8,0.7c0.4,0.5,0.6,1.2,0.6,2C333,64.8,333,65,333,65.1z M331.8,64.2
		c0-0.4-0.1-0.7-0.3-1c-0.2-0.2-0.5-0.4-0.9-0.4c-0.4,0-0.7,0.1-0.9,0.4c-0.2,0.2-0.3,0.6-0.4,0.9H331.8z"/>
	<path class="st9" d="M340.3,62.5l-0.5,0.8c-0.4-0.3-0.8-0.4-1.2-0.4c-0.3,0-0.5,0-0.6,0.1s-0.2,0.2-0.2,0.4c0,0.1,0,0.3,0.1,0.3
		c0.1,0.1,0.2,0.2,0.3,0.2c0.2,0.1,0.4,0.1,0.7,0.2c0.5,0.1,0.9,0.3,1.1,0.6c0.3,0.2,0.4,0.6,0.4,1c0,0.5-0.2,1-0.6,1.3
		c-0.4,0.3-0.9,0.4-1.5,0.4c-0.8,0-1.4-0.2-1.9-0.6l0.5-0.8c0.2,0.1,0.4,0.2,0.6,0.3c0.2,0.1,0.4,0.1,0.7,0.1c0.3,0,0.5-0.1,0.7-0.2
		c0.2-0.1,0.2-0.3,0.2-0.5c0-0.1,0-0.2-0.1-0.3c-0.1-0.1-0.2-0.2-0.3-0.2c-0.1-0.1-0.4-0.1-0.7-0.2c-0.5-0.1-0.9-0.3-1.1-0.6
		c-0.2-0.2-0.4-0.6-0.4-1c0-0.5,0.2-0.9,0.6-1.1c0.4-0.3,0.9-0.4,1.5-0.4C339.3,61.9,339.9,62.1,340.3,62.5z"/>
	<path class="st9" d="M346.7,64.7c0,0.5-0.1,1-0.3,1.4c-0.2,0.4-0.5,0.8-0.8,1c-0.4,0.2-0.8,0.4-1.3,0.4c-0.6,0-1.1-0.2-1.5-0.5v2.8
		h-1.2v-6.5c0-0.3,0-0.7-0.1-1.2h1.2c0,0.3,0.1,0.5,0.1,0.6h0c0.4-0.5,1-0.8,1.7-0.8c0.5,0,0.9,0.1,1.2,0.4c0.3,0.2,0.6,0.6,0.7,1
		C346.6,63.7,346.7,64.1,346.7,64.7z M345.4,64.7c0-0.6-0.1-1-0.3-1.3c-0.2-0.3-0.5-0.4-0.9-0.4c-0.4,0-0.7,0.1-1,0.4
		c-0.3,0.3-0.4,0.6-0.4,1V66c0.2,0.1,0.4,0.2,0.6,0.3c0.2,0.1,0.4,0.1,0.6,0.1c0.5,0,0.8-0.2,1-0.5
		C345.3,65.6,345.4,65.2,345.4,64.7z"/>
	<path class="st9" d="M347.5,65.8c0-0.7,0.2-1.2,0.7-1.4c0.5-0.3,1.2-0.4,2.1-0.4c0.2,0,0.4,0,0.5,0v-0.3c0-0.6-0.4-0.8-1.1-0.8
		c-0.5,0-1,0.1-1.5,0.4l-0.4-0.8c0.3-0.2,0.6-0.3,0.9-0.4s0.7-0.1,1.1-0.1c0.8,0,1.4,0.2,1.7,0.5c0.4,0.4,0.5,0.9,0.5,1.6v2
		c0,0.3,0,0.7,0.1,1.2H351c0-0.3-0.1-0.5-0.1-0.6h0c-0.2,0.2-0.4,0.4-0.7,0.5c-0.3,0.1-0.6,0.2-1,0.2c-0.5,0-0.9-0.1-1.2-0.4
		C347.6,66.7,347.5,66.3,347.5,65.8z M350.8,65.3v-0.4l-0.4,0c-0.6,0-1,0.1-1.3,0.2c-0.3,0.1-0.4,0.4-0.4,0.7c0,0.2,0.1,0.4,0.2,0.5
		c0.1,0.1,0.3,0.2,0.5,0.2c0.2,0,0.5-0.1,0.7-0.2s0.3-0.3,0.5-0.4S350.8,65.5,350.8,65.3z"/>
	<path class="st9" d="M355.9,61.9c0.7,0,1.2,0.2,1.7,0.6l-0.5,0.9c-0.4-0.3-0.8-0.4-1.3-0.4c-0.5,0-0.8,0.1-1.1,0.5
		c-0.2,0.3-0.3,0.7-0.3,1.2c0,0.5,0.1,0.9,0.3,1.2c0.2,0.3,0.6,0.5,1,0.5c0.4,0,0.8-0.1,1.3-0.4l0.5,0.9c-0.3,0.2-0.5,0.3-0.9,0.4
		s-0.6,0.1-1,0.1c-0.6,0-1.1-0.1-1.5-0.4c-0.4-0.3-0.6-0.6-0.8-1c-0.2-0.4-0.2-0.8-0.2-1.3c0-0.6,0.1-1,0.3-1.4
		c0.2-0.4,0.5-0.7,0.9-1S355.4,61.9,355.9,61.9z"/>
	<path class="st9" d="M363.1,65.1h-3.6c0.1,0.4,0.2,0.7,0.4,1c0.2,0.2,0.6,0.3,1,0.3c0.3,0,0.6,0,0.8-0.1c0.2-0.1,0.5-0.2,0.7-0.4
		l0.5,0.8c-0.3,0.2-0.6,0.4-1,0.5c-0.3,0.1-0.7,0.2-1.1,0.2c-0.5,0-1-0.1-1.4-0.3c-0.4-0.2-0.7-0.5-0.9-1c-0.2-0.4-0.3-0.9-0.3-1.4
		c0-0.8,0.2-1.5,0.7-2c0.4-0.5,1.1-0.8,1.9-0.8c0.8,0,1.4,0.2,1.8,0.7c0.4,0.5,0.6,1.2,0.6,2C363.1,64.8,363.1,65,363.1,65.1z
		 M361.9,64.2c0-0.4-0.1-0.7-0.3-1c-0.2-0.2-0.5-0.4-0.9-0.4c-0.4,0-0.7,0.1-0.9,0.4s-0.3,0.6-0.4,0.9H361.9z"/>
</g>
<g>
	<path class="st9" d="M176.3,6.2v1.1h-4.7V6.2h1.9V1.5l-1.8,0.9l-0.5-0.9l2.4-1.2h1.2v6H176.3z"/>
	<path class="st9" d="M177.1,3.7c0-1.2,0.2-2.1,0.7-2.8c0.5-0.6,1.1-1,2-1c0.9,0,1.6,0.3,2,1c0.5,0.6,0.7,1.6,0.7,2.8
		c0,1.2-0.2,2.1-0.7,2.8c-0.5,0.6-1.1,1-2,1c-0.9,0-1.5-0.3-2-1C177.4,5.9,177.1,4.9,177.1,3.7z M181.2,3.7c0-0.9-0.1-1.6-0.3-2
		s-0.6-0.6-1.1-0.6c-0.5,0-0.9,0.2-1.1,0.6s-0.3,1.1-0.3,2c0,0.9,0.1,1.6,0.3,2c0.2,0.4,0.6,0.6,1.1,0.6c0.5,0,0.9-0.2,1.1-0.6
		S181.2,4.6,181.2,3.7z"/>
	<path class="st9" d="M183.2,3.7c0-1.2,0.2-2.1,0.7-2.8c0.5-0.6,1.1-1,2-1c0.9,0,1.6,0.3,2,1c0.5,0.6,0.7,1.6,0.7,2.8
		c0,1.2-0.2,2.1-0.7,2.8c-0.5,0.6-1.1,1-2,1c-0.9,0-1.5-0.3-2-1C183.5,5.9,183.2,4.9,183.2,3.7z M187.3,3.7c0-0.9-0.1-1.6-0.3-2
		s-0.6-0.6-1.1-0.6c-0.5,0-0.9,0.2-1.1,0.6s-0.3,1.1-0.3,2c0,0.9,0.1,1.6,0.3,2c0.2,0.4,0.6,0.6,1.1,0.6c0.5,0,0.9-0.2,1.1-0.6
		S187.3,4.6,187.3,3.7z"/>
	<path class="st9" d="M194.9,4.7c0,0.5-0.1,1-0.3,1.4s-0.5,0.8-0.8,1c-0.4,0.2-0.8,0.4-1.3,0.4c-0.6,0-1.1-0.2-1.5-0.5v2.8h-1.2V3.3
		c0-0.3,0-0.7-0.1-1.2h1.2c0,0.3,0.1,0.5,0.1,0.6h0c0.4-0.5,1-0.8,1.7-0.8c0.5,0,0.9,0.1,1.2,0.4c0.3,0.2,0.6,0.6,0.7,1
		C194.8,3.7,194.9,4.1,194.9,4.7z M193.6,4.7c0-0.6-0.1-1-0.3-1.3c-0.2-0.3-0.5-0.4-0.9-0.4s-0.7,0.1-1,0.4c-0.3,0.3-0.4,0.6-0.4,1
		V6c0.2,0.1,0.4,0.2,0.6,0.3c0.2,0.1,0.4,0.1,0.6,0.1c0.5,0,0.8-0.2,1-0.5C193.5,5.6,193.6,5.2,193.6,4.7z"/>
	<path class="st9" d="M200.7,7.3h-1.5l-1.3-1.9l-1.3,1.9h-1.5l2-2.7l-1.8-2.5h1.4l1.2,1.8l1.1-1.8h1.4l-1.8,2.5L200.7,7.3z"/>
</g>
<g>
	<path class="st9" d="M79.3,67.2v1.1h-4.7v-1.1h1.9v-4.7l-1.8,0.9l-0.5-0.9l2.4-1.2h1.2v6H79.3z"/>
	<path class="st9" d="M80.1,64.7c0-1.2,0.2-2.1,0.7-2.8c0.5-0.6,1.1-1,2-1c0.9,0,1.6,0.3,2,1c0.5,0.6,0.7,1.6,0.7,2.8
		c0,1.2-0.2,2.1-0.7,2.8c-0.5,0.6-1.1,1-2,1c-0.9,0-1.5-0.3-2-1C80.4,66.9,80.1,65.9,80.1,64.7z M84.2,64.7c0-0.9-0.1-1.6-0.3-2
		s-0.6-0.6-1.1-0.6c-0.5,0-0.9,0.2-1.1,0.6s-0.3,1.1-0.3,2c0,0.9,0.1,1.6,0.3,2c0.2,0.4,0.6,0.6,1.1,0.6c0.5,0,0.9-0.2,1.1-0.6
		S84.2,65.6,84.2,64.7z"/>
	<path class="st9" d="M86.2,64.7c0-1.2,0.2-2.1,0.7-2.8c0.5-0.6,1.1-1,2-1c0.9,0,1.6,0.3,2,1c0.5,0.6,0.7,1.6,0.7,2.8
		c0,1.2-0.2,2.1-0.7,2.8c-0.5,0.6-1.1,1-2,1c-0.9,0-1.5-0.3-2-1C86.5,66.9,86.2,65.9,86.2,64.7z M90.3,64.7c0-0.9-0.1-1.6-0.3-2
		s-0.6-0.6-1.1-0.6c-0.5,0-0.9,0.2-1.1,0.6s-0.3,1.1-0.3,2c0,0.9,0.1,1.6,0.3,2c0.2,0.4,0.6,0.6,1.1,0.6c0.5,0,0.9-0.2,1.1-0.6
		S90.3,65.6,90.3,64.7z"/>
	<path class="st9" d="M97.9,65.7c0,0.5-0.1,1-0.3,1.4s-0.5,0.8-0.8,1c-0.4,0.2-0.8,0.4-1.3,0.4c-0.6,0-1.1-0.2-1.5-0.5v2.8h-1.2
		v-6.5c0-0.3,0-0.7-0.1-1.2h1.2c0,0.3,0.1,0.5,0.1,0.6h0c0.4-0.5,1-0.8,1.7-0.8c0.5,0,0.9,0.1,1.2,0.4c0.3,0.2,0.6,0.6,0.7,1
		C97.8,64.7,97.9,65.1,97.9,65.7z M96.6,65.7c0-0.6-0.1-1-0.3-1.3c-0.2-0.3-0.5-0.4-0.9-0.4s-0.7,0.1-1,0.4c-0.3,0.3-0.4,0.6-0.4,1
		V67c0.2,0.1,0.4,0.2,0.6,0.3c0.2,0.1,0.4,0.1,0.6,0.1c0.5,0,0.8-0.2,1-0.5C96.5,66.6,96.6,66.2,96.6,65.7z"/>
	<path class="st9" d="M103.7,68.3h-1.5l-1.3-1.9l-1.3,1.9h-1.5l2-2.7l-1.8-2.5h1.4l1.2,1.8l1.1-1.8h1.4l-1.8,2.5L103.7,68.3z"/>
</g>
<line class="st8" x1="95.6" y1="93.8" x2="124.2" y2="93.8"/>
<g>
	<path class="st9" d="M31.2,92.1c0,0.5-0.1,0.9-0.3,1.2c-0.2,0.4-0.5,0.7-0.9,1.1c-0.4,0.4-1.1,1-2,1.7h3.4v1.1h-5.1v-1l0.2-0.2
		c1.1-0.9,1.8-1.6,2.2-1.9c0.4-0.4,0.7-0.7,0.9-1c0.2-0.3,0.3-0.6,0.3-0.9c0-0.4-0.1-0.6-0.4-0.9c-0.2-0.2-0.6-0.3-1-0.3
		c-0.3,0-0.6,0.1-0.9,0.2c-0.3,0.1-0.5,0.3-0.8,0.6L26,91.2c0.4-0.4,0.7-0.7,1.1-0.9S28,90,28.6,90c0.5,0,1,0.1,1.4,0.3
		s0.7,0.5,0.9,0.8C31.1,91.4,31.2,91.8,31.2,92.1z"/>
	<path class="st9" d="M32.1,93.7c0-1.2,0.2-2.1,0.7-2.8c0.5-0.6,1.1-1,2-1c0.9,0,1.6,0.3,2,1c0.5,0.6,0.7,1.6,0.7,2.8
		c0,1.2-0.2,2.1-0.7,2.8c-0.5,0.6-1.1,1-2,1c-0.9,0-1.5-0.3-2-1C32.4,95.9,32.1,94.9,32.1,93.7z M36.2,93.7c0-0.9-0.1-1.6-0.3-2
		s-0.6-0.6-1.1-0.6c-0.5,0-0.9,0.2-1.1,0.6s-0.3,1.1-0.3,2c0,0.9,0.1,1.6,0.3,2c0.2,0.4,0.6,0.6,1.1,0.6c0.5,0,0.9-0.2,1.1-0.6
		S36.2,94.6,36.2,93.7z"/>
	<path class="st9" d="M43.8,94.7c0,0.5-0.1,1-0.3,1.4s-0.5,0.8-0.8,1c-0.4,0.2-0.8,0.4-1.3,0.4c-0.6,0-1.1-0.2-1.5-0.5v2.8h-1.2
		v-6.5c0-0.3,0-0.7-0.1-1.2h1.2c0,0.3,0.1,0.5,0.1,0.6h0c0.4-0.5,1-0.8,1.7-0.8c0.5,0,0.9,0.1,1.2,0.4c0.3,0.2,0.6,0.6,0.7,1
		C43.7,93.7,43.8,94.1,43.8,94.7z M42.5,94.7c0-0.6-0.1-1-0.3-1.3c-0.2-0.3-0.5-0.4-0.9-0.4s-0.7,0.1-1,0.4c-0.3,0.3-0.4,0.6-0.4,1
		V96c0.2,0.1,0.4,0.2,0.6,0.3c0.2,0.1,0.4,0.1,0.6,0.1c0.5,0,0.8-0.2,1-0.5C42.4,95.6,42.5,95.2,42.5,94.7z"/>
	<path class="st9" d="M49.6,97.3h-1.5l-1.3-1.9l-1.3,1.9H44l2-2.7l-1.8-2.5h1.4l1.2,1.8l1.1-1.8h1.4l-1.8,2.5L49.6,97.3z"/>
	<path class="st9" d="M58.3,94.7c0,0.5-0.1,1-0.3,1.4s-0.5,0.8-0.8,1c-0.4,0.2-0.8,0.4-1.3,0.4c-0.6,0-1.1-0.2-1.5-0.5v2.8h-1.2
		v-6.5c0-0.3,0-0.7-0.1-1.2h1.2c0,0.3,0.1,0.5,0.1,0.6h0c0.4-0.5,1-0.8,1.7-0.8c0.5,0,0.9,0.1,1.2,0.4c0.3,0.2,0.6,0.6,0.7,1
		C58.2,93.7,58.3,94.1,58.3,94.7z M57,94.7c0-0.6-0.1-1-0.3-1.3c-0.2-0.3-0.5-0.4-0.9-0.4s-0.7,0.1-1,0.4c-0.3,0.3-0.4,0.6-0.4,1V96
		c0.2,0.1,0.4,0.2,0.6,0.3c0.2,0.1,0.4,0.1,0.6,0.1c0.5,0,0.8-0.2,1-0.5C56.9,95.6,57,95.2,57,94.7z"/>
	<path class="st9" d="M59.1,95.8c0-0.7,0.2-1.2,0.7-1.4S61,94,61.9,94c0.2,0,0.4,0,0.5,0v-0.3c0-0.6-0.4-0.8-1.1-0.8
		c-0.5,0-1,0.1-1.5,0.4l-0.4-0.8c0.3-0.2,0.6-0.3,1-0.4c0.4-0.1,0.7-0.1,1-0.1c0.8,0,1.4,0.2,1.7,0.5c0.4,0.4,0.5,0.9,0.5,1.6v2
		c0,0.3,0,0.7,0.1,1.2h-1.1c0-0.3-0.1-0.5-0.1-0.6h0c-0.2,0.2-0.4,0.4-0.7,0.5c-0.3,0.1-0.6,0.2-1,0.2c-0.5,0-0.9-0.1-1.2-0.4
		C59.3,96.7,59.1,96.3,59.1,95.8z M62.5,95.3v-0.4l-0.4,0c-0.6,0-1,0.1-1.3,0.2c-0.3,0.1-0.4,0.4-0.4,0.7c0,0.2,0.1,0.4,0.2,0.5
		c0.1,0.1,0.3,0.2,0.5,0.2c0.2,0,0.5-0.1,0.7-0.2s0.3-0.3,0.5-0.4C62.4,95.7,62.5,95.5,62.5,95.3z"/>
	<path class="st9" d="M70.1,97.3h-1.2c0-0.3-0.1-0.5-0.1-0.7h0c-0.2,0.3-0.4,0.5-0.7,0.6c-0.3,0.1-0.6,0.2-1,0.2
		c-0.7,0-1.3-0.2-1.6-0.8c-0.4-0.5-0.6-1.2-0.6-2c0-0.5,0.1-1,0.3-1.4s0.5-0.8,0.8-1c0.4-0.2,0.8-0.4,1.3-0.4c0.6,0,1.1,0.2,1.5,0.5
		v-2.3H70v5.9C70,96.4,70,96.8,70.1,97.3z M68.8,95v-1.5c-0.3-0.4-0.8-0.5-1.3-0.5c-0.4,0-0.7,0.2-1,0.5c-0.2,0.3-0.3,0.7-0.3,1.3
		c0,0.6,0.1,1,0.3,1.3c0.2,0.3,0.5,0.4,0.9,0.4c0.4,0,0.7-0.1,1-0.4C68.6,95.8,68.8,95.4,68.8,95z"/>
	<path class="st9" d="M76.4,97.3h-1.2c0-0.3-0.1-0.5-0.1-0.7h0c-0.2,0.3-0.4,0.5-0.7,0.6c-0.3,0.1-0.6,0.2-1,0.2
		c-0.7,0-1.3-0.2-1.6-0.8c-0.4-0.5-0.6-1.2-0.6-2c0-0.5,0.1-1,0.3-1.4s0.5-0.8,0.8-1c0.4-0.2,0.8-0.4,1.3-0.4c0.6,0,1.1,0.2,1.5,0.5
		v-2.3h1.2v5.9C76.4,96.4,76.4,96.8,76.4,97.3z M75.1,95v-1.5c-0.3-0.4-0.8-0.5-1.3-0.5c-0.4,0-0.7,0.2-1,0.5
		c-0.2,0.3-0.3,0.7-0.3,1.3c0,0.6,0.1,1,0.3,1.3c0.2,0.3,0.5,0.4,0.9,0.4c0.4,0,0.7-0.1,1-0.4C75,95.8,75.1,95.4,75.1,95z"/>
	<path class="st9" d="M77.8,90.4c0-0.5,0.3-0.7,0.8-0.7c0.3,0,0.5,0.1,0.6,0.2c0.1,0.1,0.2,0.3,0.2,0.5c0,0.2-0.1,0.4-0.2,0.5
		c-0.1,0.1-0.3,0.2-0.6,0.2c-0.3,0-0.5-0.1-0.6-0.2C77.8,90.8,77.8,90.7,77.8,90.4z M79.2,97.3h-1.2v-5.2h1.2V97.3z"/>
	<path class="st9" d="M80.7,93.3c0-0.3,0-0.7-0.1-1.2h1.2c0,0.2,0.1,0.4,0.1,0.6h0c0.2-0.2,0.4-0.4,0.7-0.5c0.3-0.1,0.6-0.2,1-0.2
		c0.4,0,0.8,0.1,1.1,0.3c0.3,0.2,0.5,0.4,0.6,0.7c0.1,0.3,0.2,0.6,0.2,0.9v3.4h-1.2v-3.2c0-0.3-0.1-0.6-0.2-0.8
		c-0.2-0.2-0.4-0.3-0.8-0.3c-0.4,0-0.7,0.1-0.9,0.4c-0.2,0.3-0.3,0.6-0.3,1v2.9h-1.2V93.3z"/>
	<path class="st9" d="M86.5,98.2c0-0.5,0.3-1,0.9-1.4c-0.1-0.1-0.2-0.2-0.3-0.3c-0.1-0.1-0.1-0.2-0.1-0.4c0-0.2,0.1-0.4,0.2-0.5
		c0.1-0.1,0.3-0.3,0.5-0.3c-0.6-0.3-0.9-0.8-0.9-1.5c0-0.6,0.2-1,0.6-1.4c0.4-0.3,1-0.5,1.7-0.5c0.2,0,0.4,0,0.5,0s0.3,0.1,0.5,0.1
		h1.9v1l-1-0.2c0.1,0.1,0.2,0.3,0.3,0.4c0.1,0.2,0.1,0.4,0.1,0.6c0,0.5-0.2,1-0.6,1.2s-0.9,0.5-1.6,0.5c-0.3,0-0.6,0-0.7,0.1
		c-0.2,0.1-0.2,0.2-0.2,0.3c0,0.1,0.1,0.2,0.2,0.3s0.4,0.1,0.7,0.1c0.9,0,1.6,0.2,2,0.4c0.4,0.2,0.7,0.6,0.7,1.1
		c0,0.6-0.3,1.1-0.8,1.4c-0.5,0.3-1.2,0.5-2.1,0.5c-0.8,0-1.4-0.1-1.8-0.4C86.7,99.1,86.5,98.7,86.5,98.2z M90.5,98.1
		c0-0.2-0.2-0.4-0.5-0.5s-0.9-0.2-1.8-0.2c-0.4,0.2-0.5,0.5-0.5,0.8c0,0.5,0.4,0.8,1.2,0.8c0.5,0,0.9-0.1,1.2-0.2
		S90.5,98.3,90.5,98.1z M90.1,93.8c0-0.3-0.1-0.5-0.3-0.7s-0.4-0.3-0.8-0.3c-0.3,0-0.6,0.1-0.8,0.3c-0.2,0.2-0.3,0.4-0.3,0.7
		c0,0.3,0.1,0.5,0.3,0.7c0.2,0.2,0.5,0.3,0.8,0.3C89.7,94.8,90.1,94.5,90.1,93.8z"/>
</g>
<line class="st8" x1="85.6" y1="137.8" x2="116.2" y2="137.8"/>
<g>
	<path class="st9" d="M5.5,139.4c0,0.4-0.1,0.7-0.3,1c-0.2,0.3-0.5,0.6-1,0.7s-0.9,0.3-1.5,0.3c-0.6,0-1-0.1-1.5-0.3
		c-0.4-0.2-0.7-0.4-0.9-0.7c-0.2-0.3-0.3-0.7-0.3-1c0-0.5,0.1-0.8,0.3-1.1s0.6-0.6,1.1-0.8c-0.4-0.2-0.7-0.4-0.8-0.7
		c-0.2-0.3-0.3-0.6-0.3-1c0-0.4,0.1-0.7,0.3-1c0.2-0.3,0.5-0.5,0.9-0.7s0.8-0.2,1.2-0.2c0.4,0,0.9,0.1,1.2,0.2
		c0.4,0.1,0.7,0.4,0.9,0.6c0.2,0.3,0.3,0.6,0.3,1c0,0.7-0.4,1.3-1.1,1.7c0.5,0.2,0.9,0.5,1.1,0.7C5.4,138.6,5.5,138.9,5.5,139.4z
		 M4.1,139.3c0-0.2,0-0.4-0.1-0.5s-0.2-0.3-0.4-0.4c-0.2-0.1-0.4-0.2-0.8-0.3l-0.5-0.2c-0.4,0.1-0.6,0.3-0.8,0.6
		c-0.2,0.2-0.2,0.5-0.2,0.8c0,0.4,0.1,0.6,0.4,0.8s0.6,0.3,1,0.3s0.8-0.1,1-0.3S4.1,139.7,4.1,139.3z M1.6,135.9
		c0,0.2,0.1,0.5,0.2,0.6c0.2,0.2,0.4,0.3,0.8,0.5l0.4,0.1c0.3-0.2,0.5-0.4,0.6-0.6c0.1-0.2,0.2-0.4,0.2-0.7c0-0.3-0.1-0.5-0.3-0.7
		S3.1,135,2.8,135c-0.3,0-0.6,0.1-0.8,0.3S1.6,135.6,1.6,135.9z"/>
	<path class="st9" d="M11.7,138.7c0,0.5-0.1,1-0.3,1.4s-0.5,0.8-0.8,1c-0.4,0.2-0.8,0.4-1.3,0.4c-0.6,0-1.1-0.2-1.5-0.5v2.8H6.6
		v-6.5c0-0.3,0-0.7-0.1-1.2h1.2c0,0.3,0.1,0.5,0.1,0.6h0c0.4-0.5,1-0.8,1.7-0.8c0.5,0,0.9,0.1,1.2,0.4c0.3,0.2,0.6,0.6,0.7,1
		C11.6,137.7,11.7,138.1,11.7,138.7z M10.4,138.7c0-0.6-0.1-1-0.3-1.3c-0.2-0.3-0.5-0.4-0.9-0.4s-0.7,0.1-1,0.4
		c-0.3,0.3-0.4,0.6-0.4,1v1.7c0.2,0.1,0.4,0.2,0.6,0.3c0.2,0.1,0.4,0.1,0.6,0.1c0.5,0,0.8-0.2,1-0.5
		C10.3,139.6,10.4,139.2,10.4,138.7z"/>
	<path class="st9" d="M17.5,141.3H16l-1.3-1.9l-1.3,1.9h-1.5l2-2.7l-1.8-2.5h1.4l1.2,1.8l1.1-1.8h1.4l-1.8,2.5L17.5,141.3z"/>
	<path class="st9" d="M23.4,135.9c0.7,0,1.2,0.2,1.7,0.6l-0.5,0.9c-0.4-0.3-0.8-0.4-1.3-0.4c-0.5,0-0.8,0.1-1.1,0.5
		c-0.2,0.3-0.3,0.7-0.3,1.2c0,0.5,0.1,0.9,0.3,1.2s0.6,0.5,1,0.5c0.4,0,0.8-0.1,1.3-0.4l0.5,0.9c-0.3,0.2-0.5,0.3-0.9,0.4
		c-0.3,0.1-0.6,0.1-1,0.1c-0.6,0-1.1-0.1-1.5-0.4c-0.4-0.3-0.6-0.6-0.8-1c-0.2-0.4-0.2-0.8-0.2-1.3c0-0.6,0.1-1,0.3-1.4
		s0.5-0.7,0.9-1C22.4,136,22.9,135.9,23.4,135.9z"/>
	<path class="st9" d="M31.1,138.6c0,0.5-0.1,1-0.3,1.4c-0.2,0.4-0.5,0.7-0.9,1s-0.9,0.3-1.4,0.3c-0.6,0-1-0.1-1.4-0.4
		c-0.4-0.2-0.7-0.6-0.9-1c-0.2-0.4-0.3-0.9-0.3-1.4c0-0.5,0.1-1,0.3-1.4c0.2-0.4,0.5-0.7,0.9-1s0.9-0.3,1.5-0.3
		c0.6,0,1.1,0.1,1.5,0.3c0.4,0.2,0.7,0.5,0.9,1C31,137.6,31.1,138.1,31.1,138.6z M27,138.6c0,0.5,0.1,1,0.3,1.3
		c0.2,0.3,0.6,0.5,1.1,0.5s0.9-0.2,1.1-0.5s0.3-0.8,0.3-1.3c0-0.5-0.1-0.9-0.3-1.3s-0.6-0.5-1.1-0.5c-0.5,0-0.9,0.2-1.1,0.5
		C27.1,137.7,27,138.1,27,138.6z"/>
	<path class="st9" d="M32.3,137.3c0-0.3,0-0.7-0.1-1.2h1.2c0,0.3,0.1,0.5,0.1,0.7h0c0.3-0.6,0.8-0.9,1.5-0.9c0.1,0,0.2,0,0.3,0
		l-0.1,1.1c-0.1,0-0.2,0-0.4,0c-0.4,0-0.8,0.1-1,0.4c-0.2,0.3-0.4,0.7-0.4,1.1v2.7h-1.2V137.3z"/>
	<path class="st9" d="M36.3,137.3c0-0.3,0-0.7-0.1-1.2h1.2c0,0.2,0.1,0.4,0.1,0.6h0c0.2-0.2,0.4-0.4,0.7-0.5c0.3-0.1,0.6-0.2,1-0.2
		c0.4,0,0.8,0.1,1.1,0.3c0.3,0.2,0.5,0.4,0.6,0.7c0.1,0.3,0.2,0.6,0.2,0.9v3.4h-1.2v-3.2c0-0.3-0.1-0.6-0.2-0.8
		c-0.2-0.2-0.4-0.3-0.8-0.3c-0.4,0-0.7,0.1-0.9,0.4c-0.2,0.3-0.3,0.6-0.3,1v2.9h-1.2V137.3z"/>
	<path class="st9" d="M47.1,139.1h-3.6c0.1,0.4,0.2,0.7,0.4,1c0.2,0.2,0.6,0.3,1,0.3c0.3,0,0.6,0,0.8-0.1c0.2-0.1,0.5-0.2,0.7-0.4
		l0.5,0.8c-0.3,0.2-0.6,0.4-1,0.5c-0.3,0.1-0.7,0.2-1.1,0.2c-0.5,0-1-0.1-1.4-0.3c-0.4-0.2-0.7-0.5-0.9-1c-0.2-0.4-0.3-0.9-0.3-1.4
		c0-0.8,0.2-1.5,0.7-2c0.4-0.5,1.1-0.8,1.9-0.8c0.8,0,1.4,0.2,1.8,0.7c0.4,0.5,0.6,1.2,0.6,2C47.2,138.8,47.1,139,47.1,139.1z
		 M45.9,138.2c0-0.4-0.1-0.7-0.3-1c-0.2-0.2-0.5-0.4-0.9-0.4c-0.4,0-0.7,0.1-0.9,0.4s-0.3,0.6-0.4,0.9H45.9z"/>
	<path class="st9" d="M48.4,137.3c0-0.3,0-0.7-0.1-1.2h1.2c0,0.3,0.1,0.5,0.1,0.7h0c0.3-0.6,0.8-0.9,1.5-0.9c0.1,0,0.2,0,0.3,0
		l-0.1,1.1c-0.1,0-0.2,0-0.4,0c-0.4,0-0.8,0.1-1,0.4c-0.2,0.3-0.4,0.7-0.4,1.1v2.7h-1.2V137.3z"/>
	<path class="st9" d="M55,137.3c0-0.3,0-0.7-0.1-1.2h1.2c0,0.3,0.1,0.5,0.1,0.7h0c0.3-0.6,0.8-0.9,1.5-0.9c0.1,0,0.2,0,0.3,0L58,137
		c-0.1,0-0.2,0-0.4,0c-0.4,0-0.8,0.1-1,0.4c-0.2,0.3-0.4,0.7-0.4,1.1v2.7H55V137.3z"/>
	<path class="st9" d="M58.3,139.8c0-0.7,0.2-1.2,0.7-1.4s1.2-0.4,2.1-0.4c0.2,0,0.4,0,0.5,0v-0.3c0-0.6-0.4-0.8-1.1-0.8
		c-0.5,0-1,0.1-1.5,0.4l-0.4-0.8c0.3-0.2,0.6-0.3,1-0.4c0.4-0.1,0.7-0.1,1-0.1c0.8,0,1.4,0.2,1.7,0.5c0.4,0.4,0.5,0.9,0.5,1.6v2
		c0,0.3,0,0.7,0.1,1.2h-1.1c0-0.3-0.1-0.5-0.1-0.6h0c-0.2,0.2-0.4,0.4-0.7,0.5c-0.3,0.1-0.6,0.2-1,0.2c-0.5,0-0.9-0.1-1.2-0.4
		C58.5,140.7,58.3,140.3,58.3,139.8z M61.6,139.3v-0.4l-0.4,0c-0.6,0-1,0.1-1.3,0.2c-0.3,0.1-0.4,0.4-0.4,0.7c0,0.2,0.1,0.4,0.2,0.5
		c0.1,0.1,0.3,0.2,0.5,0.2c0.2,0,0.5-0.1,0.7-0.2s0.3-0.3,0.5-0.4C61.6,139.7,61.6,139.5,61.6,139.3z"/>
	<path class="st9" d="M69.3,141.3h-1.2c0-0.3-0.1-0.5-0.1-0.7h0c-0.2,0.3-0.4,0.5-0.7,0.6c-0.3,0.1-0.6,0.2-1,0.2
		c-0.7,0-1.3-0.2-1.6-0.8c-0.4-0.5-0.6-1.2-0.6-2c0-0.5,0.1-1,0.3-1.4s0.5-0.8,0.8-1c0.4-0.2,0.8-0.4,1.3-0.4c0.6,0,1.1,0.2,1.5,0.5
		v-2.3h1.2v5.9C69.2,140.4,69.2,140.8,69.3,141.3z M67.9,139v-1.5c-0.3-0.4-0.8-0.5-1.3-0.5c-0.4,0-0.7,0.2-1,0.5
		c-0.2,0.3-0.3,0.7-0.3,1.3c0,0.6,0.1,1,0.3,1.3c0.2,0.3,0.5,0.4,0.9,0.4c0.4,0,0.7-0.1,1-0.4C67.8,139.8,67.9,139.4,67.9,139z"/>
	<path class="st9" d="M70.6,134.4c0-0.5,0.3-0.7,0.8-0.7c0.3,0,0.5,0.1,0.6,0.2c0.1,0.1,0.2,0.3,0.2,0.5c0,0.2-0.1,0.4-0.2,0.5
		c-0.1,0.1-0.3,0.2-0.6,0.2c-0.3,0-0.5-0.1-0.6-0.2C70.7,134.8,70.6,134.7,70.6,134.4z M72,141.3h-1.2v-5.2H72V141.3z"/>
	<path class="st9" d="M73.5,139.3v-3.2h1.3v3c0,0.4,0.1,0.7,0.2,1s0.4,0.4,0.8,0.4c0.4,0,0.7-0.1,0.9-0.4s0.3-0.7,0.3-1.1v-2.8h1.2
		v4c0,0.4,0,0.8,0.1,1.2h-1.2c0-0.2-0.1-0.4-0.1-0.6h0c-0.4,0.5-0.9,0.8-1.7,0.8c-0.6,0-1.1-0.2-1.5-0.6
		C73.7,140.4,73.5,139.9,73.5,139.3z"/>
	<path class="st9" d="M83.2,136.5l-0.5,0.8c-0.4-0.3-0.8-0.4-1.2-0.4c-0.3,0-0.5,0-0.6,0.1s-0.2,0.2-0.2,0.4c0,0.1,0,0.3,0.1,0.3
		c0.1,0.1,0.2,0.2,0.3,0.2c0.1,0.1,0.4,0.1,0.7,0.2c0.5,0.1,0.9,0.3,1.1,0.6c0.3,0.2,0.4,0.6,0.4,1c0,0.5-0.2,1-0.6,1.3
		c-0.4,0.3-0.9,0.4-1.5,0.4c-0.8,0-1.4-0.2-1.9-0.6l0.5-0.8c0.2,0.1,0.4,0.2,0.6,0.3c0.2,0.1,0.4,0.1,0.7,0.1c0.3,0,0.5-0.1,0.7-0.2
		c0.2-0.1,0.2-0.3,0.2-0.5c0-0.1,0-0.2-0.1-0.3c-0.1-0.1-0.2-0.2-0.3-0.2c-0.1-0.1-0.4-0.1-0.7-0.2c-0.5-0.1-0.9-0.3-1.1-0.6
		c-0.2-0.2-0.4-0.6-0.4-1c0-0.5,0.2-0.9,0.6-1.1c0.4-0.3,0.9-0.4,1.5-0.4C82.1,135.9,82.7,136.1,83.2,136.5z"/>
</g>
<path class="st10" d="M171.9,75.3v54.8 M161.8,75.3v54.8 M213.1,68.5h-55.1 M213.1,58.4h-55.1"/>
<path class="st10" d="M233.5,127c0,5.7-4.6,10.3-10.3,10.3c-5.7,0-10.3-4.6-10.3-10.3c0-5.7,4.6-10.3,10.3-10.3
	C228.8,116.7,233.5,121.3,233.5,127z M158.2,78.8c0,5.7-4.6,10.3-10.3,10.3c-5.7,0-10.3-4.6-10.3-10.3c0-5.7,4.6-10.3,10.3-10.3
	C153.5,68.5,158.2,73.1,158.2,78.8z"/>
<circle class="st10" cx="137.2" cy="137.8" r="20.5"/>
<circle class="st10" cx="234.2" cy="40.8" r="20.5"/>
<line class="st8" x1="116.2" y1="10.8" x2="116.2" y2="16.8"/>
<line class="st8" x1="254.2" y1="10.8" x2="254.2" y2="16.8"/>
<line class="st8" x1="116.2" y1="13.8" x2="254.2" y2="13.8"/>
<line class="st8" x1="107.2" y1="20.8" x2="113.2" y2="20.8"/>
<line class="st8" x1="107.2" y1="157.8" x2="113.2" y2="157.8"/>
<line class="st8" x1="110.2" y1="21.8" x2="110.2" y2="156.8"/>
</svg>
