<?xml version="1.0" encoding="utf-8"?>
<!-- Generator: Adobe Illustrator 19.1.0, SVG Export Plug-In . SVG Version: 6.00 Build 0)  -->
<svg version="1.1" id="Layer_1" xmlns="http://www.w3.org/2000/svg" xmlns:xlink="http://www.w3.org/1999/xlink" x="0px" y="0px"
	 width="220px" height="163px" viewBox="0 0 220 163" style="enable-background:new 0 0 220 163;" xml:space="preserve">
<style type="text/css">
	.st0{clip-path:url(#SVGID_2_);fill:none;stroke:#D3DCE7;stroke-width:2;stroke-miterlimit:10;}
	.st1{clip-path:url(#SVGID_4_);fill:#D3DCE7;}
	.st2{clip-path:url(#SVGID_6_);fill:none;stroke:#D3DCE7;stroke-width:2;stroke-miterlimit:10;}
	.st3{clip-path:url(#SVGID_8_);fill:#D3DCE7;}
	.st4{clip-path:url(#SVGID_10_);fill:#D3DCE7;}
	.st5{clip-path:url(#SVGID_12_);fill:#D3DCE7;}
	.st6{clip-path:url(#SVGID_14_);fill:none;stroke:#D3DCE7;stroke-width:2;stroke-miterlimit:10;}
	.st7{clip-path:url(#SVGID_16_);fill:#D3DCE7;}
	.st8{clip-path:url(#SVGID_18_);fill:#D3DCE7;}
	.st9{clip-path:url(#SVGID_20_);fill:#D3DCE7;}
	.st10{clip-path:url(#SVGID_22_);fill:none;stroke:#D3DCE7;stroke-width:2;stroke-miterlimit:10;}
	.st11{clip-path:url(#SVGID_24_);fill:#D3DCE7;}
	.st12{clip-path:url(#SVGID_26_);fill:#D3DCE7;}
	.st13{clip-path:url(#SVGID_28_);fill:#D3DCE7;}
	.st14{clip-path:url(#SVGID_30_);fill:none;stroke:#D3DCE7;stroke-width:2;stroke-miterlimit:10;}
	.st15{clip-path:url(#SVGID_32_);fill:#D3DCE7;}
	.st16{clip-path:url(#SVGID_34_);fill:#D3DCE7;}
	.st17{clip-path:url(#SVGID_36_);fill:#D3DCE7;}
	.st18{clip-path:url(#SVGID_38_);fill:none;stroke:#D3DCE7;stroke-width:2;stroke-miterlimit:10;}
	.st19{clip-path:url(#SVGID_40_);fill:#D3DCE7;}
	.st20{clip-path:url(#SVGID_42_);fill:#D3DCE7;}
	.st21{clip-path:url(#SVGID_44_);fill:#D3DCE7;}
	.st22{clip-path:url(#SVGID_46_);fill:none;stroke:#D3DCE7;stroke-width:2;stroke-miterlimit:10;}
	.st23{clip-path:url(#SVGID_48_);fill:#D3DCE7;}
	.st24{clip-path:url(#SVGID_50_);fill:#D3DCE7;}
	.st25{clip-path:url(#SVGID_52_);fill:#D3DCE7;}
	.st26{clip-path:url(#SVGID_54_);fill:none;stroke:#D3DCE7;stroke-width:2;stroke-miterlimit:10;}
	.st27{clip-path:url(#SVGID_56_);fill:#D3DCE7;}
	.st28{clip-path:url(#SVGID_58_);fill:#D3DCE7;}
	.st29{clip-path:url(#SVGID_60_);fill:#D3DCE7;}
	.st30{clip-path:url(#SVGID_62_);fill:none;stroke:#D3DCE7;stroke-width:2;stroke-miterlimit:10;}
	.st31{clip-path:url(#SVGID_64_);fill:#D3DCE7;}
	.st32{clip-path:url(#SVGID_66_);fill:#D3DCE7;}
	.st33{clip-path:url(#SVGID_68_);fill:#D3DCE7;}
	.st34{clip-path:url(#SVGID_70_);fill:none;stroke:#D3DCE7;stroke-width:2;stroke-miterlimit:10;}
	.st35{clip-path:url(#SVGID_72_);fill:none;stroke:#EEF1F6;stroke-width:2;stroke-miterlimit:10;}
	.st36{clip-path:url(#SVGID_74_);fill:#16325C;}
	.st37{clip-path:url(#SVGID_76_);}
	.st38{clip-path:url(#SVGID_78_);fill-rule:evenodd;clip-rule:evenodd;fill:#EEF1F6;}
	.st39{clip-path:url(#SVGID_80_);fill:none;stroke:#D3DCE7;stroke-width:2;stroke-miterlimit:10;}
	.st40{fill:none;stroke:#D3DCE7;stroke-linecap:square;stroke-miterlimit:10;}
	.st41{clip-path:url(#SVGID_82_);fill:#D3DCE7;}
	.st42{clip-path:url(#SVGID_84_);fill:#D3DCE7;}
	.st43{clip-path:url(#SVGID_86_);fill:#D3DCE7;}
	.st44{clip-path:url(#SVGID_88_);fill:#D3DCE7;}
	.st45{clip-path:url(#SVGID_90_);fill:#D3DCE7;}
	.st46{clip-path:url(#SVGID_92_);fill:#D3DCE7;}
	.st47{clip-path:url(#SVGID_94_);fill:#D3DCE7;}
	.st48{clip-path:url(#SVGID_96_);fill:#D3DCE7;}
	.st49{clip-path:url(#SVGID_98_);fill:#D3DCE7;}
	.st50{clip-path:url(#SVGID_100_);fill:#D3DCE7;}
	.st51{clip-path:url(#SVGID_102_);fill:#D3DCE7;}
	.st52{clip-path:url(#SVGID_104_);fill:#D3DCE7;}
	.st53{clip-path:url(#SVGID_106_);fill:#D3DCE7;}
	.st54{clip-path:url(#SVGID_108_);fill:#D3DCE7;}
	.st55{fill:none;stroke:#D3DCE7;stroke-miterlimit:10;}
	.st56{clip-path:url(#SVGID_110_);fill:#1AA2DD;}
	.st57{clip-path:url(#SVGID_112_);fill:#D3DCE7;}
	.st58{clip-path:url(#SVGID_114_);fill:#D3DCE7;}
	.st59{clip-path:url(#SVGID_116_);fill:#D3DCE7;}
	.st60{clip-path:url(#SVGID_118_);fill:#D3DCE7;}
	.st61{clip-path:url(#SVGID_120_);fill:#D3DCE7;}
	.st62{clip-path:url(#SVGID_122_);fill:#D3DCE7;}
	.st63{clip-path:url(#SVGID_124_);fill:#D3DCE7;}
	.st64{clip-path:url(#SVGID_126_);fill:#D3DCE7;}
	.st65{clip-path:url(#SVGID_128_);fill:#D3DCE7;}
	.st66{clip-path:url(#SVGID_130_);fill:#D3DCE7;}
	.st67{clip-path:url(#SVGID_132_);fill:#D3DCE7;}
	.st68{clip-path:url(#SVGID_134_);fill:none;stroke:#D3DCE7;stroke-width:2;stroke-miterlimit:10;}
	.st69{clip-path:url(#SVGID_136_);fill:#D3DCE7;}
	.st70{clip-path:url(#SVGID_138_);fill:#D3DCE7;}
	.st71{clip-path:url(#SVGID_140_);fill:#D3DCE7;}
	.st72{clip-path:url(#SVGID_142_);fill:#D3DCE7;}
	.st73{clip-path:url(#SVGID_144_);fill:#D3DCE7;}
	.st74{clip-path:url(#SVGID_146_);fill:#D3DCE7;}
	.st75{clip-path:url(#SVGID_148_);fill:#D3DCE7;}
	.st76{clip-path:url(#SVGID_150_);fill:#D3DCE7;}
	.st77{clip-path:url(#SVGID_152_);fill:#D3DCE7;}
	.st78{clip-path:url(#SVGID_154_);fill:#D3DCE7;}
	.st79{clip-path:url(#SVGID_156_);fill:#D3DCE7;}
	.st80{clip-path:url(#SVGID_158_);fill:none;stroke:#D3DCE7;stroke-width:2;stroke-miterlimit:10;}
	.st81{clip-path:url(#SVGID_160_);enable-background:new    ;}
	.st82{clip-path:url(#SVGID_162_);}
	.st83{clip-path:url(#SVGID_164_);fill:#FFFFFF;}
	.st84{clip-path:url(#SVGID_166_);}
	.st85{clip-path:url(#SVGID_168_);}
	.st86{clip-path:url(#SVGID_170_);fill-rule:evenodd;clip-rule:evenodd;fill:#EEF8FB;}
	.st87{clip-path:url(#SVGID_172_);}
	.st88{clip-path:url(#SVGID_174_);fill:none;stroke:#4DB7DA;stroke-width:2;stroke-miterlimit:10;}
	.st89{clip-path:url(#SVGID_176_);fill:none;stroke:#D3DCE7;stroke-width:0.5;stroke-linecap:square;stroke-miterlimit:10;}
	.st90{clip-path:url(#SVGID_176_);fill:none;stroke:#E5ECF5;stroke-width:0.5;stroke-linecap:square;stroke-miterlimit:10;}
	.st91{clip-path:url(#SVGID_178_);}
	.st92{clip-path:url(#SVGID_180_);fill:#D3DCE7;}
	.st93{clip-path:url(#SVGID_182_);}
	.st94{clip-path:url(#SVGID_184_);fill:#D3DCE7;}
	.st95{clip-path:url(#SVGID_186_);}
	.st96{clip-path:url(#SVGID_188_);fill:#A8B8D0;}
	.st97{clip-path:url(#SVGID_190_);}
	.st98{clip-path:url(#SVGID_192_);fill:#A8B8D0;}
	.st99{clip-path:url(#SVGID_194_);}
	.st100{clip-path:url(#SVGID_196_);fill:#A8B8D0;}
	.st101{clip-path:url(#SVGID_198_);}
	.st102{clip-path:url(#SVGID_200_);fill:#A8B8D0;}
	.st103{clip-path:url(#SVGID_202_);}
	.st104{clip-path:url(#SVGID_204_);fill:#44CB7F;}
	.st105{clip-path:url(#SVGID_206_);}
	.st106{clip-path:url(#SVGID_208_);fill:#4DB7DA;}
	.st107{clip-path:url(#SVGID_210_);}
	.st108{clip-path:url(#SVGID_212_);fill:#A8B8D0;}
	.st109{clip-path:url(#SVGID_214_);}
	.st110{clip-path:url(#SVGID_216_);fill:#D3DCE7;}
	.st111{clip-path:url(#SVGID_218_);}
	.st112{clip-path:url(#SVGID_220_);fill:#A8B8D0;}
	.st113{clip-path:url(#SVGID_222_);}
	.st114{clip-path:url(#SVGID_224_);fill:#A8B8D0;}
	.st115{clip-path:url(#SVGID_226_);}
	.st116{clip-path:url(#SVGID_228_);fill:#A8B8D0;}
	.st117{clip-path:url(#SVGID_230_);fill:none;stroke:#E5ECF5;stroke-width:0.5;stroke-linecap:square;stroke-miterlimit:10;}
	.st118{clip-path:url(#SVGID_230_);fill:none;stroke:#D3DCE7;stroke-linecap:square;stroke-miterlimit:10;}
	.st119{clip-path:url(#SVGID_230_);fill:none;stroke:#D3DCE7;stroke-width:0.5;stroke-linecap:square;stroke-miterlimit:10;}
	.st120{clip-path:url(#SVGID_230_);fill:none;stroke:#44CB7F;stroke-linecap:square;stroke-miterlimit:10;}
	.st121{clip-path:url(#SVGID_230_);fill:none;stroke:#FFB854;stroke-linecap:square;stroke-miterlimit:10;}
	.st122{fill:none;stroke:#0577DA;stroke-width:6;stroke-miterlimit:10;}
	.st123{clip-path:url(#SVGID_232_);enable-background:new    ;}
	.st124{clip-path:url(#SVGID_234_);}
	.st125{clip-path:url(#SVGID_236_);fill:none;stroke:#0577DA;stroke-width:6;stroke-miterlimit:10;}
</style>
<g>
	<defs>
		<path id="SVGID_1_" d="M77,29c0-1.1,0.9-2,2-2h86c1.1,0,2,0.9,2,2v46c0,1.1-0.9,2-2,2H79c-1.1,0-2-0.9-2-2V29z"/>
	</defs>
	<clipPath id="SVGID_2_">
		<use xlink:href="#SVGID_1_"  style="overflow:visible;"/>
	</clipPath>
	<path class="st0" d="M77,29c0-1.1,0.9-2,2-2h86c1.1,0,2,0.9,2,2v46c0,1.1-0.9,2-2,2H79c-1.1,0-2-0.9-2-2V29z"/>
</g>
<g>
	<defs>
		<path id="SVGID_3_" d="M174,27.5c0-0.3,0.2-0.5,0.5-0.5h9c0.3,0,0.5,0.2,0.5,0.5c0,0.3-0.2,0.5-0.5,0.5h-9
			C174.2,28,174,27.8,174,27.5z"/>
	</defs>
	<clipPath id="SVGID_4_">
		<use xlink:href="#SVGID_3_"  style="overflow:visible;"/>
	</clipPath>
	<rect x="169" y="22" class="st1" width="20" height="11"/>
</g>
<g>
	<defs>
		<path id="SVGID_5_" d="M174,34c0-1.1,0.9-2,2-2h39c1.1,0,2,0.9,2,2v9c0,1.1-0.9,2-2,2h-39c-1.1,0-2-0.9-2-2V34z"/>
	</defs>
	<clipPath id="SVGID_6_">
		<use xlink:href="#SVGID_5_"  style="overflow:visible;"/>
	</clipPath>
	<path class="st2" d="M174,34c0-1.1,0.9-2,2-2h39c1.1,0,2,0.9,2,2v9c0,1.1-0.9,2-2,2h-39c-1.1,0-2-0.9-2-2V34z"/>
</g>
<g>
	<defs>
		<path id="SVGID_7_" d="M178,35.5c0-0.3,0.2-0.5,0.5-0.5h22c0.3,0,0.5,0.2,0.5,0.5c0,0.3-0.2,0.5-0.5,0.5h-22
			C178.2,36,178,35.8,178,35.5z"/>
	</defs>
	<clipPath id="SVGID_8_">
		<use xlink:href="#SVGID_7_"  style="overflow:visible;"/>
	</clipPath>
	<rect x="173" y="30" class="st3" width="33" height="11"/>
</g>
<g>
	<defs>
		<path id="SVGID_9_" d="M178,38.5c0-0.3,0.2-0.5,0.5-0.5h14c0.3,0,0.5,0.2,0.5,0.5c0,0.3-0.2,0.5-0.5,0.5h-14
			C178.2,39,178,38.8,178,38.5z"/>
	</defs>
	<clipPath id="SVGID_10_">
		<use xlink:href="#SVGID_9_"  style="overflow:visible;"/>
	</clipPath>
	<rect x="173" y="33" class="st4" width="25" height="11"/>
</g>
<g>
	<defs>
		<path id="SVGID_11_" d="M178,41.5c0-0.3,0.2-0.5,0.5-0.5h17c0.3,0,0.5,0.2,0.5,0.5c0,0.3-0.2,0.5-0.5,0.5h-17
			C178.2,42,178,41.8,178,41.5z"/>
	</defs>
	<clipPath id="SVGID_12_">
		<use xlink:href="#SVGID_11_"  style="overflow:visible;"/>
	</clipPath>
	<rect x="173" y="36" class="st5" width="28" height="11"/>
</g>
<g>
	<defs>
		<path id="SVGID_13_" d="M174,51c0-1.1,0.9-2,2-2h39c1.1,0,2,0.9,2,2v9c0,1.1-0.9,2-2,2h-39c-1.1,0-2-0.9-2-2V51z"/>
	</defs>
	<clipPath id="SVGID_14_">
		<use xlink:href="#SVGID_13_"  style="overflow:visible;"/>
	</clipPath>
	<path class="st6" d="M174,51c0-1.1,0.9-2,2-2h39c1.1,0,2,0.9,2,2v9c0,1.1-0.9,2-2,2h-39c-1.1,0-2-0.9-2-2V51z"/>
</g>
<g>
	<defs>
		<path id="SVGID_15_" d="M178,52.5c0-0.3,0.2-0.5,0.5-0.5h22c0.3,0,0.5,0.2,0.5,0.5c0,0.3-0.2,0.5-0.5,0.5h-22
			C178.2,53,178,52.8,178,52.5z"/>
	</defs>
	<clipPath id="SVGID_16_">
		<use xlink:href="#SVGID_15_"  style="overflow:visible;"/>
	</clipPath>
	<rect x="173" y="47" class="st7" width="33" height="11"/>
</g>
<g>
	<defs>
		<path id="SVGID_17_" d="M178,55.5c0-0.3,0.2-0.5,0.5-0.5h14c0.3,0,0.5,0.2,0.5,0.5c0,0.3-0.2,0.5-0.5,0.5h-14
			C178.2,56,178,55.8,178,55.5z"/>
	</defs>
	<clipPath id="SVGID_18_">
		<use xlink:href="#SVGID_17_"  style="overflow:visible;"/>
	</clipPath>
	<rect x="173" y="50" class="st8" width="25" height="11"/>
</g>
<g>
	<defs>
		<path id="SVGID_19_" d="M178,58.5c0-0.3,0.2-0.5,0.5-0.5h17c0.3,0,0.5,0.2,0.5,0.5c0,0.3-0.2,0.5-0.5,0.5h-17
			C178.2,59,178,58.8,178,58.5z"/>
	</defs>
	<clipPath id="SVGID_20_">
		<use xlink:href="#SVGID_19_"  style="overflow:visible;"/>
	</clipPath>
	<rect x="173" y="53" class="st9" width="28" height="11"/>
</g>
<g>
	<defs>
		<path id="SVGID_21_" d="M174,68c0-1.1,0.9-2,2-2h39c1.1,0,2,0.9,2,2v9c0,1.1-0.9,2-2,2h-39c-1.1,0-2-0.9-2-2V68z"/>
	</defs>
	<clipPath id="SVGID_22_">
		<use xlink:href="#SVGID_21_"  style="overflow:visible;"/>
	</clipPath>
	<path class="st10" d="M174,68c0-1.1,0.9-2,2-2h39c1.1,0,2,0.9,2,2v9c0,1.1-0.9,2-2,2h-39c-1.1,0-2-0.9-2-2V68z"/>
</g>
<g>
	<defs>
		<path id="SVGID_23_" d="M178,69.5c0-0.3,0.2-0.5,0.5-0.5h22c0.3,0,0.5,0.2,0.5,0.5c0,0.3-0.2,0.5-0.5,0.5h-22
			C178.2,70,178,69.8,178,69.5z"/>
	</defs>
	<clipPath id="SVGID_24_">
		<use xlink:href="#SVGID_23_"  style="overflow:visible;"/>
	</clipPath>
	<rect x="173" y="64" class="st11" width="33" height="11"/>
</g>
<g>
	<defs>
		<path id="SVGID_25_" d="M178,72.5c0-0.3,0.2-0.5,0.5-0.5h14c0.3,0,0.5,0.2,0.5,0.5c0,0.3-0.2,0.5-0.5,0.5h-14
			C178.2,73,178,72.8,178,72.5z"/>
	</defs>
	<clipPath id="SVGID_26_">
		<use xlink:href="#SVGID_25_"  style="overflow:visible;"/>
	</clipPath>
	<rect x="173" y="67" class="st12" width="25" height="11"/>
</g>
<g>
	<defs>
		<path id="SVGID_27_" d="M178,75.5c0-0.3,0.2-0.5,0.5-0.5h17c0.3,0,0.5,0.2,0.5,0.5c0,0.3-0.2,0.5-0.5,0.5h-17
			C178.2,76,178,75.8,178,75.5z"/>
	</defs>
	<clipPath id="SVGID_28_">
		<use xlink:href="#SVGID_27_"  style="overflow:visible;"/>
	</clipPath>
	<rect x="173" y="70" class="st13" width="28" height="11"/>
</g>
<g>
	<defs>
		<path id="SVGID_29_" d="M174,85c0-1.1,0.9-2,2-2h39c1.1,0,2,0.9,2,2v9c0,1.1-0.9,2-2,2h-39c-1.1,0-2-0.9-2-2V85z"/>
	</defs>
	<clipPath id="SVGID_30_">
		<use xlink:href="#SVGID_29_"  style="overflow:visible;"/>
	</clipPath>
	<path class="st14" d="M174,85c0-1.1,0.9-2,2-2h39c1.1,0,2,0.9,2,2v9c0,1.1-0.9,2-2,2h-39c-1.1,0-2-0.9-2-2V85z"/>
</g>
<g>
	<defs>
		<path id="SVGID_31_" d="M178,86.5c0-0.3,0.2-0.5,0.5-0.5h22c0.3,0,0.5,0.2,0.5,0.5c0,0.3-0.2,0.5-0.5,0.5h-22
			C178.2,87,178,86.8,178,86.5z"/>
	</defs>
	<clipPath id="SVGID_32_">
		<use xlink:href="#SVGID_31_"  style="overflow:visible;"/>
	</clipPath>
	<rect x="173" y="81" class="st15" width="33" height="11"/>
</g>
<g>
	<defs>
		<path id="SVGID_33_" d="M178,89.5c0-0.3,0.2-0.5,0.5-0.5h14c0.3,0,0.5,0.2,0.5,0.5c0,0.3-0.2,0.5-0.5,0.5h-14
			C178.2,90,178,89.8,178,89.5z"/>
	</defs>
	<clipPath id="SVGID_34_">
		<use xlink:href="#SVGID_33_"  style="overflow:visible;"/>
	</clipPath>
	<rect x="173" y="84" class="st16" width="25" height="11"/>
</g>
<g>
	<defs>
		<path id="SVGID_35_" d="M178,92.5c0-0.3,0.2-0.5,0.5-0.5h17c0.3,0,0.5,0.2,0.5,0.5c0,0.3-0.2,0.5-0.5,0.5h-17
			C178.2,93,178,92.8,178,92.5z"/>
	</defs>
	<clipPath id="SVGID_36_">
		<use xlink:href="#SVGID_35_"  style="overflow:visible;"/>
	</clipPath>
	<rect x="173" y="87" class="st17" width="28" height="11"/>
</g>
<g>
	<defs>
		<path id="SVGID_37_" d="M174,102c0-1.1,0.9-2,2-2h39c1.1,0,2,0.9,2,2v9c0,1.1-0.9,2-2,2h-39c-1.1,0-2-0.9-2-2V102z"/>
	</defs>
	<clipPath id="SVGID_38_">
		<use xlink:href="#SVGID_37_"  style="overflow:visible;"/>
	</clipPath>
	<path class="st18" d="M174,102c0-1.1,0.9-2,2-2h39c1.1,0,2,0.9,2,2v9c0,1.1-0.9,2-2,2h-39c-1.1,0-2-0.9-2-2V102z"/>
</g>
<g>
	<defs>
		<path id="SVGID_39_" d="M178,103.5c0-0.3,0.2-0.5,0.5-0.5h22c0.3,0,0.5,0.2,0.5,0.5c0,0.3-0.2,0.5-0.5,0.5h-22
			C178.2,104,178,103.8,178,103.5z"/>
	</defs>
	<clipPath id="SVGID_40_">
		<use xlink:href="#SVGID_39_"  style="overflow:visible;"/>
	</clipPath>
	<rect x="173" y="98" class="st19" width="33" height="11"/>
</g>
<g>
	<defs>
		<path id="SVGID_41_" d="M178,106.5c0-0.3,0.2-0.5,0.5-0.5h14c0.3,0,0.5,0.2,0.5,0.5c0,0.3-0.2,0.5-0.5,0.5h-14
			C178.2,107,178,106.8,178,106.5z"/>
	</defs>
	<clipPath id="SVGID_42_">
		<use xlink:href="#SVGID_41_"  style="overflow:visible;"/>
	</clipPath>
	<rect x="173" y="101" class="st20" width="25" height="11"/>
</g>
<g>
	<defs>
		<path id="SVGID_43_" d="M178,109.5c0-0.3,0.2-0.5,0.5-0.5h17c0.3,0,0.5,0.2,0.5,0.5c0,0.3-0.2,0.5-0.5,0.5h-17
			C178.2,110,178,109.8,178,109.5z"/>
	</defs>
	<clipPath id="SVGID_44_">
		<use xlink:href="#SVGID_43_"  style="overflow:visible;"/>
	</clipPath>
	<rect x="173" y="104" class="st21" width="28" height="11"/>
</g>
<g>
	<defs>
		<path id="SVGID_45_" d="M174,119c0-1.1,0.9-2,2-2h39c1.1,0,2,0.9,2,2v9c0,1.1-0.9,2-2,2h-39c-1.1,0-2-0.9-2-2V119z"/>
	</defs>
	<clipPath id="SVGID_46_">
		<use xlink:href="#SVGID_45_"  style="overflow:visible;"/>
	</clipPath>
	<path class="st22" d="M174,119c0-1.1,0.9-2,2-2h39c1.1,0,2,0.9,2,2v9c0,1.1-0.9,2-2,2h-39c-1.1,0-2-0.9-2-2V119z"/>
</g>
<g>
	<defs>
		<path id="SVGID_47_" d="M178,120.5c0-0.3,0.2-0.5,0.5-0.5h22c0.3,0,0.5,0.2,0.5,0.5c0,0.3-0.2,0.5-0.5,0.5h-22
			C178.2,121,178,120.8,178,120.5z"/>
	</defs>
	<clipPath id="SVGID_48_">
		<use xlink:href="#SVGID_47_"  style="overflow:visible;"/>
	</clipPath>
	<rect x="173" y="115" class="st23" width="33" height="11"/>
</g>
<g>
	<defs>
		<path id="SVGID_49_" d="M178,123.5c0-0.3,0.2-0.5,0.5-0.5h14c0.3,0,0.5,0.2,0.5,0.5c0,0.3-0.2,0.5-0.5,0.5h-14
			C178.2,124,178,123.8,178,123.5z"/>
	</defs>
	<clipPath id="SVGID_50_">
		<use xlink:href="#SVGID_49_"  style="overflow:visible;"/>
	</clipPath>
	<rect x="173" y="118" class="st24" width="25" height="11"/>
</g>
<g>
	<defs>
		<path id="SVGID_51_" d="M178,126.5c0-0.3,0.2-0.5,0.5-0.5h17c0.3,0,0.5,0.2,0.5,0.5c0,0.3-0.2,0.5-0.5,0.5h-17
			C178.2,127,178,126.8,178,126.5z"/>
	</defs>
	<clipPath id="SVGID_52_">
		<use xlink:href="#SVGID_51_"  style="overflow:visible;"/>
	</clipPath>
	<rect x="173" y="121" class="st25" width="28" height="11"/>
</g>
<g>
	<defs>
		<path id="SVGID_53_" d="M174,136c0-1.1,0.9-2,2-2h39c1.1,0,2,0.9,2,2v9c0,1.1-0.9,2-2,2h-39c-1.1,0-2-0.9-2-2V136z"/>
	</defs>
	<clipPath id="SVGID_54_">
		<use xlink:href="#SVGID_53_"  style="overflow:visible;"/>
	</clipPath>
	<path class="st26" d="M174,136c0-1.1,0.9-2,2-2h39c1.1,0,2,0.9,2,2v9c0,1.1-0.9,2-2,2h-39c-1.1,0-2-0.9-2-2V136z"/>
</g>
<g>
	<defs>
		<path id="SVGID_55_" d="M178,137.5c0-0.3,0.2-0.5,0.5-0.5h22c0.3,0,0.5,0.2,0.5,0.5c0,0.3-0.2,0.5-0.5,0.5h-22
			C178.2,138,178,137.8,178,137.5z"/>
	</defs>
	<clipPath id="SVGID_56_">
		<use xlink:href="#SVGID_55_"  style="overflow:visible;"/>
	</clipPath>
	<rect x="173" y="132" class="st27" width="33" height="11"/>
</g>
<g>
	<defs>
		<path id="SVGID_57_" d="M178,140.5c0-0.3,0.2-0.5,0.5-0.5h14c0.3,0,0.5,0.2,0.5,0.5c0,0.3-0.2,0.5-0.5,0.5h-14
			C178.2,141,178,140.8,178,140.5z"/>
	</defs>
	<clipPath id="SVGID_58_">
		<use xlink:href="#SVGID_57_"  style="overflow:visible;"/>
	</clipPath>
	<rect x="173" y="135" class="st28" width="25" height="11"/>
</g>
<g>
	<defs>
		<path id="SVGID_59_" d="M178,143.5c0-0.3,0.2-0.5,0.5-0.5h17c0.3,0,0.5,0.2,0.5,0.5c0,0.3-0.2,0.5-0.5,0.5h-17
			C178.2,144,178,143.8,178,143.5z"/>
	</defs>
	<clipPath id="SVGID_60_">
		<use xlink:href="#SVGID_59_"  style="overflow:visible;"/>
	</clipPath>
	<rect x="173" y="138" class="st29" width="28" height="11"/>
</g>
<g>
	<defs>
		<path id="SVGID_61_" d="M174,153c0-1.1,0.9-2,2-2h39c1.1,0,2,0.9,2,2v10h-43V153z"/>
	</defs>
	<clipPath id="SVGID_62_">
		<use xlink:href="#SVGID_61_"  style="overflow:visible;"/>
	</clipPath>
	<path class="st30" d="M174,153c0-1.1,0.9-2,2-2h39c1.1,0,2,0.9,2,2v10h-43V153z"/>
</g>
<g>
	<defs>
		<path id="SVGID_63_" d="M178,154.5c0-0.3,0.2-0.5,0.5-0.5h22c0.3,0,0.5,0.2,0.5,0.5c0,0.3-0.2,0.5-0.5,0.5h-22
			C178.2,155,178,154.8,178,154.5z"/>
	</defs>
	<clipPath id="SVGID_64_">
		<use xlink:href="#SVGID_63_"  style="overflow:visible;"/>
	</clipPath>
	<rect x="173" y="149" class="st31" width="33" height="11"/>
</g>
<g>
	<defs>
		<path id="SVGID_65_" d="M178,157.5c0-0.3,0.2-0.5,0.5-0.5h14c0.3,0,0.5,0.2,0.5,0.5c0,0.3-0.2,0.5-0.5,0.5h-14
			C178.2,158,178,157.8,178,157.5z"/>
	</defs>
	<clipPath id="SVGID_66_">
		<use xlink:href="#SVGID_65_"  style="overflow:visible;"/>
	</clipPath>
	<rect x="173" y="152" class="st32" width="25" height="11"/>
</g>
<g>
	<defs>
		<path id="SVGID_67_" d="M178,160.5c0-0.3,0.2-0.5,0.5-0.5h17c0.3,0,0.5,0.2,0.5,0.5c0,0.3-0.2,0.5-0.5,0.5h-17
			C178.2,161,178,160.8,178,160.5z"/>
	</defs>
	<clipPath id="SVGID_68_">
		<use xlink:href="#SVGID_67_"  style="overflow:visible;"/>
	</clipPath>
	<rect x="173" y="155" class="st33" width="28" height="11"/>
</g>
<g>
	<defs>
		<path id="SVGID_69_" d="M77,82c0-1.1,0.9-2,2-2h86c1.1,0,2,0.9,2,2v27c0,1.1-0.9,2-2,2H79c-1.1,0-2-0.9-2-2V82z"/>
	</defs>
	<clipPath id="SVGID_70_">
		<use xlink:href="#SVGID_69_"  style="overflow:visible;"/>
	</clipPath>
	<path class="st34" d="M77,82c0-1.1,0.9-2,2-2h86c1.1,0,2,0.9,2,2v27c0,1.1-0.9,2-2,2H79c-1.1,0-2-0.9-2-2V82z"/>
</g>
<g>
	<defs>
		<rect id="SVGID_71_" x="67" y="16" width="153" height="147"/>
	</defs>
	<clipPath id="SVGID_72_">
		<use xlink:href="#SVGID_71_"  style="overflow:visible;"/>
	</clipPath>
	<rect x="67" y="16" class="st35" width="153" height="147"/>
</g>
<g>
	<defs>
		<rect id="SVGID_73_" x="67" y="16" width="7" height="147"/>
	</defs>
	<clipPath id="SVGID_74_">
		<use xlink:href="#SVGID_73_"  style="overflow:visible;"/>
	</clipPath>
	<rect x="62" y="11" class="st36" width="17" height="157"/>
</g>
<g>
	<defs>
		<path id="SVGID_75_" d="M111,58.9L76.8,70.5l-2.9,1h3h90h0.5V71V42v-0.8l-0.7,0.4l-21.3,10.9l0.1,0L111,58.9L111,58.9z
			 M111.3,59.9l34.5-6.5l0.1,0l21.3-10.9l-0.7-0.4v29l0.5-0.5H77l0.2,1L111.3,59.9L111.3,59.9z M54,21.2h133.5v70.3H54V21.2z"/>
	</defs>
	<clipPath id="SVGID_76_">
		<use xlink:href="#SVGID_75_"  style="overflow:visible;"/>
	</clipPath>
	<g class="st37">
		<defs>
			<polygon id="SVGID_77_" points="111.2,59.4 145.7,52.9 167,42 167,71 77,71 			"/>
		</defs>
		<clipPath id="SVGID_78_">
			<use xlink:href="#SVGID_77_"  style="overflow:visible;"/>
		</clipPath>
		<polygon class="st38" points="111.2,59.4 145.7,52.9 167,42 167,71 77,71 		"/>
	</g>
</g>
<g>
	<defs>
		<polygon id="SVGID_79_" points="111.2,59.4 145.7,52.9 167,42 167,71 77,71 		"/>
	</defs>
	<clipPath id="SVGID_80_">
		<use xlink:href="#SVGID_79_"  style="overflow:visible;"/>
	</clipPath>
	<polygon class="st39" points="111.2,59.4 145.7,52.9 167,42 167,71 77,71 	"/>
</g>
<line class="st40" x1="77.5" y1="35.5" x2="165.5" y2="35.5"/>
<g>
	<defs>
		<path id="SVGID_81_" d="M79,30.5c0-0.3,0.2-0.5,0.5-0.5h19c0.3,0,0.5,0.2,0.5,0.5c0,0.3-0.2,0.5-0.5,0.5h-19
			C79.2,31,79,30.8,79,30.5z"/>
	</defs>
	<clipPath id="SVGID_82_">
		<use xlink:href="#SVGID_81_"  style="overflow:visible;"/>
	</clipPath>
	<rect x="74" y="25" class="st41" width="30" height="11"/>
</g>
<g>
	<defs>
		<path id="SVGID_83_" d="M81,84.5c0-0.3,0.2-0.5,0.5-0.5h19c0.3,0,0.5,0.2,0.5,0.5c0,0.3-0.2,0.5-0.5,0.5h-19
			C81.2,85,81,84.8,81,84.5z"/>
	</defs>
	<clipPath id="SVGID_84_">
		<use xlink:href="#SVGID_83_"  style="overflow:visible;"/>
	</clipPath>
	<rect x="76" y="79" class="st42" width="30" height="11"/>
</g>
<g>
	<defs>
		<path id="SVGID_85_" d="M81,107.5c0-0.3,0.2-0.5,0.5-0.5h8c0.3,0,0.5,0.2,0.5,0.5c0,0.3-0.2,0.5-0.5,0.5h-8
			C81.2,108,81,107.8,81,107.5z"/>
	</defs>
	<clipPath id="SVGID_86_">
		<use xlink:href="#SVGID_85_"  style="overflow:visible;"/>
	</clipPath>
	<rect x="76" y="102" class="st43" width="19" height="11"/>
</g>
<g>
	<defs>
		<path id="SVGID_87_" d="M109,89.5c0-0.3,0.2-0.5,0.5-0.5h19c0.3,0,0.5,0.2,0.5,0.5c0,0.3-0.2,0.5-0.5,0.5h-19
			C109.2,90,109,89.8,109,89.5z"/>
	</defs>
	<clipPath id="SVGID_88_">
		<use xlink:href="#SVGID_87_"  style="overflow:visible;"/>
	</clipPath>
	<rect x="104" y="84" class="st44" width="30" height="11"/>
</g>
<g>
	<defs>
		<path id="SVGID_89_" d="M109,94.5c0-0.3,0.2-0.5,0.5-0.5h32c0.3,0,0.5,0.2,0.5,0.5c0,0.3-0.2,0.5-0.5,0.5h-32
			C109.2,95,109,94.8,109,94.5z"/>
	</defs>
	<clipPath id="SVGID_90_">
		<use xlink:href="#SVGID_89_"  style="overflow:visible;"/>
	</clipPath>
	<rect x="104" y="89" class="st45" width="43" height="11"/>
</g>
<g>
	<defs>
		<path id="SVGID_91_" d="M109,96.5c0-0.3,0.2-0.5,0.5-0.5h29c0.3,0,0.5,0.2,0.5,0.5c0,0.3-0.2,0.5-0.5,0.5h-29
			C109.2,97,109,96.8,109,96.5z"/>
	</defs>
	<clipPath id="SVGID_92_">
		<use xlink:href="#SVGID_91_"  style="overflow:visible;"/>
	</clipPath>
	<rect x="104" y="91" class="st46" width="40" height="11"/>
</g>
<g>
	<defs>
		<path id="SVGID_93_" d="M109,98.5c0-0.3,0.2-0.5,0.5-0.5h34c0.3,0,0.5,0.2,0.5,0.5c0,0.3-0.2,0.5-0.5,0.5h-34
			C109.2,99,109,98.8,109,98.5z"/>
	</defs>
	<clipPath id="SVGID_94_">
		<use xlink:href="#SVGID_93_"  style="overflow:visible;"/>
	</clipPath>
	<rect x="104" y="93" class="st47" width="45" height="11"/>
</g>
<g>
	<defs>
		<path id="SVGID_95_" d="M81,91c0-1.1,0.9-2,2-2h21c1.1,0,2,0.9,2,2v11c0,1.1-0.9,2-2,2H83c-1.1,0-2-0.9-2-2V91z"/>
	</defs>
	<clipPath id="SVGID_96_">
		<use xlink:href="#SVGID_95_"  style="overflow:visible;"/>
	</clipPath>
	<rect x="76" y="84" class="st48" width="35" height="25"/>
</g>
<g>
	<defs>
		<path id="SVGID_97_" d="M79,32.5c0-0.3,0.2-0.5,0.5-0.5h22c0.3,0,0.5,0.2,0.5,0.5c0,0.3-0.2,0.5-0.5,0.5h-22
			C79.2,33,79,32.8,79,32.5z"/>
	</defs>
	<clipPath id="SVGID_98_">
		<use xlink:href="#SVGID_97_"  style="overflow:visible;"/>
	</clipPath>
	<rect x="74" y="27" class="st49" width="33" height="11"/>
</g>
<g>
	<defs>
		<path id="SVGID_99_" d="M82,73.5c0-0.3,0.2-0.5,0.5-0.5h2c0.3,0,0.5,0.2,0.5,0.5c0,0.3-0.2,0.5-0.5,0.5h-2
			C82.2,74,82,73.8,82,73.5z"/>
	</defs>
	<clipPath id="SVGID_100_">
		<use xlink:href="#SVGID_99_"  style="overflow:visible;"/>
	</clipPath>
	<rect x="77" y="68" class="st50" width="13" height="11"/>
</g>
<g>
	<defs>
		<path id="SVGID_101_" d="M110,73.5c0-0.3,0.2-0.5,0.5-0.5h2c0.3,0,0.5,0.2,0.5,0.5c0,0.3-0.2,0.5-0.5,0.5h-2
			C110.2,74,110,73.8,110,73.5z"/>
	</defs>
	<clipPath id="SVGID_102_">
		<use xlink:href="#SVGID_101_"  style="overflow:visible;"/>
	</clipPath>
	<rect x="105" y="68" class="st51" width="13" height="11"/>
</g>
<g>
	<defs>
		<path id="SVGID_103_" d="M138,73.5c0-0.3,0.2-0.5,0.5-0.5h2c0.3,0,0.5,0.2,0.5,0.5c0,0.3-0.2,0.5-0.5,0.5h-2
			C138.2,74,138,73.8,138,73.5z"/>
	</defs>
	<clipPath id="SVGID_104_">
		<use xlink:href="#SVGID_103_"  style="overflow:visible;"/>
	</clipPath>
	<rect x="133" y="68" class="st52" width="13" height="11"/>
</g>
<g>
	<defs>
		<path id="SVGID_105_" d="M105,32.5c0-0.3,0.2-0.5,0.5-0.5h22c0.3,0,0.5,0.2,0.5,0.5c0,0.3-0.2,0.5-0.5,0.5h-22
			C105.2,33,105,32.8,105,32.5z"/>
	</defs>
	<clipPath id="SVGID_106_">
		<use xlink:href="#SVGID_105_"  style="overflow:visible;"/>
	</clipPath>
	<rect x="100" y="27" class="st53" width="33" height="11"/>
</g>
<g>
	<defs>
		<path id="SVGID_107_" d="M131,32.5c0-0.3,0.2-0.5,0.5-0.5h22c0.3,0,0.5,0.2,0.5,0.5c0,0.3-0.2,0.5-0.5,0.5h-22
			C131.2,33,131,32.8,131,32.5z"/>
	</defs>
	<clipPath id="SVGID_108_">
		<use xlink:href="#SVGID_107_"  style="overflow:visible;"/>
	</clipPath>
	<rect x="126" y="27" class="st54" width="33" height="11"/>
</g>
<circle class="st55" cx="162.5" cy="31.5" r="1.5"/>
<line class="st40" x1="77.5" y1="49.5" x2="165.5" y2="49.5"/>
<line class="st40" x1="77.5" y1="62.5" x2="165.5" y2="62.5"/>
<line class="st40" x1="77.5" y1="70.5" x2="165.5" y2="70.5"/>
<g>
	<defs>
		<path id="SVGID_109_" d="M79.4,20.4c0.2-0.2,0.4-0.3,0.7-0.3c0.4,0,0.7,0.2,0.9,0.5c0.2-0.1,0.3-0.1,0.5-0.1
			c0.7,0,1.2,0.6,1.2,1.2c0,0.7-0.5,1.2-1.2,1.2c-0.1,0-0.2,0-0.2,0c-0.2,0.3-0.4,0.5-0.8,0.5c-0.1,0-0.3,0-0.4-0.1
			c-0.2,0.4-0.5,0.6-0.9,0.6c-0.4,0-0.8-0.3-1-0.7c-0.1,0-0.1,0-0.2,0c-0.5,0-0.9-0.4-0.9-1c0-0.4,0.2-0.7,0.5-0.8
			c-0.1-0.1-0.1-0.3-0.1-0.4c0-0.6,0.5-1.1,1.1-1.1C78.8,20,79.2,20.2,79.4,20.4"/>
	</defs>
	<clipPath id="SVGID_110_">
		<use xlink:href="#SVGID_109_"  style="overflow:visible;"/>
	</clipPath>
	<rect x="72" y="15" class="st56" width="15.7" height="14"/>
</g>
<g>
	<defs>
		<path id="SVGID_111_" d="M81,119.5c0-0.3,0.2-0.5,0.5-0.5h19c0.3,0,0.5,0.2,0.5,0.5c0,0.3-0.2,0.5-0.5,0.5h-19
			C81.2,120,81,119.8,81,119.5z"/>
	</defs>
	<clipPath id="SVGID_112_">
		<use xlink:href="#SVGID_111_"  style="overflow:visible;"/>
	</clipPath>
	<rect x="76" y="114" class="st57" width="30" height="11"/>
</g>
<g>
	<defs>
		<path id="SVGID_113_" d="M88,124.5c0-0.3,0.2-0.5,0.5-0.5h23c0.3,0,0.5,0.2,0.5,0.5c0,0.3-0.2,0.5-0.5,0.5h-23
			C88.2,125,88,124.8,88,124.5z"/>
	</defs>
	<clipPath id="SVGID_114_">
		<use xlink:href="#SVGID_113_"  style="overflow:visible;"/>
	</clipPath>
	<rect x="83" y="119" class="st58" width="34" height="11"/>
</g>
<g>
	<defs>
		<circle id="SVGID_115_" cx="83" cy="125" r="2"/>
	</defs>
	<clipPath id="SVGID_116_">
		<use xlink:href="#SVGID_115_"  style="overflow:visible;"/>
	</clipPath>
	<rect x="76" y="118" class="st59" width="14" height="14"/>
</g>
<g>
	<defs>
		<path id="SVGID_117_" d="M88,131.5c0-0.3,0.2-0.5,0.5-0.5h23c0.3,0,0.5,0.2,0.5,0.5c0,0.3-0.2,0.5-0.5,0.5h-23
			C88.2,132,88,131.8,88,131.5z"/>
	</defs>
	<clipPath id="SVGID_118_">
		<use xlink:href="#SVGID_117_"  style="overflow:visible;"/>
	</clipPath>
	<rect x="83" y="126" class="st60" width="34" height="11"/>
</g>
<g>
	<defs>
		<circle id="SVGID_119_" cx="83" cy="132" r="2"/>
	</defs>
	<clipPath id="SVGID_120_">
		<use xlink:href="#SVGID_119_"  style="overflow:visible;"/>
	</clipPath>
	<rect x="76" y="125" class="st61" width="14" height="14"/>
</g>
<g>
	<defs>
		<path id="SVGID_121_" d="M88,138.5c0-0.3,0.2-0.5,0.5-0.5h23c0.3,0,0.5,0.2,0.5,0.5c0,0.3-0.2,0.5-0.5,0.5h-23
			C88.2,139,88,138.8,88,138.5z"/>
	</defs>
	<clipPath id="SVGID_122_">
		<use xlink:href="#SVGID_121_"  style="overflow:visible;"/>
	</clipPath>
	<rect x="83" y="133" class="st62" width="34" height="11"/>
</g>
<g>
	<defs>
		<circle id="SVGID_123_" cx="83" cy="139" r="2"/>
	</defs>
	<clipPath id="SVGID_124_">
		<use xlink:href="#SVGID_123_"  style="overflow:visible;"/>
	</clipPath>
	<rect x="76" y="132" class="st63" width="14" height="14"/>
</g>
<g>
	<defs>
		<path id="SVGID_125_" d="M88,145.5c0-0.3,0.2-0.5,0.5-0.5h23c0.3,0,0.5,0.2,0.5,0.5c0,0.3-0.2,0.5-0.5,0.5h-23
			C88.2,146,88,145.8,88,145.5z"/>
	</defs>
	<clipPath id="SVGID_126_">
		<use xlink:href="#SVGID_125_"  style="overflow:visible;"/>
	</clipPath>
	<rect x="83" y="140" class="st64" width="34" height="11"/>
</g>
<g>
	<defs>
		<circle id="SVGID_127_" cx="83" cy="146" r="2"/>
	</defs>
	<clipPath id="SVGID_128_">
		<use xlink:href="#SVGID_127_"  style="overflow:visible;"/>
	</clipPath>
	<rect x="76" y="139" class="st65" width="14" height="14"/>
</g>
<g>
	<defs>
		<path id="SVGID_129_" d="M88,152.5c0-0.3,0.2-0.5,0.5-0.5h23c0.3,0,0.5,0.2,0.5,0.5c0,0.3-0.2,0.5-0.5,0.5h-23
			C88.2,153,88,152.8,88,152.5z"/>
	</defs>
	<clipPath id="SVGID_130_">
		<use xlink:href="#SVGID_129_"  style="overflow:visible;"/>
	</clipPath>
	<rect x="83" y="147" class="st66" width="34" height="11"/>
</g>
<g>
	<defs>
		<circle id="SVGID_131_" cx="83" cy="153" r="2"/>
	</defs>
	<clipPath id="SVGID_132_">
		<use xlink:href="#SVGID_131_"  style="overflow:visible;"/>
	</clipPath>
	<rect x="76" y="146" class="st67" width="14" height="14"/>
</g>
<g>
	<defs>
		<path id="SVGID_133_" d="M77,117c0-1.1,0.9-2,2-2h39c1.1,0,2,0.9,2,2v40c0,1.1-0.9,2-2,2H79c-1.1,0-2-0.9-2-2V117z"/>
	</defs>
	<clipPath id="SVGID_134_">
		<use xlink:href="#SVGID_133_"  style="overflow:visible;"/>
	</clipPath>
	<path class="st68" d="M77,117c0-1.1,0.9-2,2-2h39c1.1,0,2,0.9,2,2v40c0,1.1-0.9,2-2,2H79c-1.1,0-2-0.9-2-2V117z"/>
</g>
<g>
	<defs>
		<path id="SVGID_135_" d="M128,119.5c0-0.3,0.2-0.5,0.5-0.5h19c0.3,0,0.5,0.2,0.5,0.5c0,0.3-0.2,0.5-0.5,0.5h-19
			C128.2,120,128,119.8,128,119.5z"/>
	</defs>
	<clipPath id="SVGID_136_">
		<use xlink:href="#SVGID_135_"  style="overflow:visible;"/>
	</clipPath>
	<rect x="123" y="114" class="st69" width="30" height="11"/>
</g>
<g>
	<defs>
		<path id="SVGID_137_" d="M135,124.5c0-0.3,0.2-0.5,0.5-0.5h23c0.3,0,0.5,0.2,0.5,0.5c0,0.3-0.2,0.5-0.5,0.5h-23
			C135.2,125,135,124.8,135,124.5z"/>
	</defs>
	<clipPath id="SVGID_138_">
		<use xlink:href="#SVGID_137_"  style="overflow:visible;"/>
	</clipPath>
	<rect x="130" y="119" class="st70" width="34" height="11"/>
</g>
<g>
	<defs>
		<circle id="SVGID_139_" cx="130" cy="125" r="2"/>
	</defs>
	<clipPath id="SVGID_140_">
		<use xlink:href="#SVGID_139_"  style="overflow:visible;"/>
	</clipPath>
	<rect x="123" y="118" class="st71" width="14" height="14"/>
</g>
<g>
	<defs>
		<path id="SVGID_141_" d="M135,131.5c0-0.3,0.2-0.5,0.5-0.5h23c0.3,0,0.5,0.2,0.5,0.5c0,0.3-0.2,0.5-0.5,0.5h-23
			C135.2,132,135,131.8,135,131.5z"/>
	</defs>
	<clipPath id="SVGID_142_">
		<use xlink:href="#SVGID_141_"  style="overflow:visible;"/>
	</clipPath>
	<rect x="130" y="126" class="st72" width="34" height="11"/>
</g>
<g>
	<defs>
		<circle id="SVGID_143_" cx="130" cy="132" r="2"/>
	</defs>
	<clipPath id="SVGID_144_">
		<use xlink:href="#SVGID_143_"  style="overflow:visible;"/>
	</clipPath>
	<rect x="123" y="125" class="st73" width="14" height="14"/>
</g>
<g>
	<defs>
		<path id="SVGID_145_" d="M135,138.5c0-0.3,0.2-0.5,0.5-0.5h23c0.3,0,0.5,0.2,0.5,0.5c0,0.3-0.2,0.5-0.5,0.5h-23
			C135.2,139,135,138.8,135,138.5z"/>
	</defs>
	<clipPath id="SVGID_146_">
		<use xlink:href="#SVGID_145_"  style="overflow:visible;"/>
	</clipPath>
	<rect x="130" y="133" class="st74" width="34" height="11"/>
</g>
<g>
	<defs>
		<circle id="SVGID_147_" cx="130" cy="139" r="2"/>
	</defs>
	<clipPath id="SVGID_148_">
		<use xlink:href="#SVGID_147_"  style="overflow:visible;"/>
	</clipPath>
	<rect x="123" y="132" class="st75" width="14" height="14"/>
</g>
<g>
	<defs>
		<path id="SVGID_149_" d="M135,145.5c0-0.3,0.2-0.5,0.5-0.5h23c0.3,0,0.5,0.2,0.5,0.5c0,0.3-0.2,0.5-0.5,0.5h-23
			C135.2,146,135,145.8,135,145.5z"/>
	</defs>
	<clipPath id="SVGID_150_">
		<use xlink:href="#SVGID_149_"  style="overflow:visible;"/>
	</clipPath>
	<rect x="130" y="140" class="st76" width="34" height="11"/>
</g>
<g>
	<defs>
		<circle id="SVGID_151_" cx="130" cy="146" r="2"/>
	</defs>
	<clipPath id="SVGID_152_">
		<use xlink:href="#SVGID_151_"  style="overflow:visible;"/>
	</clipPath>
	<rect x="123" y="139" class="st77" width="14" height="14"/>
</g>
<g>
	<defs>
		<path id="SVGID_153_" d="M135,152.5c0-0.3,0.2-0.5,0.5-0.5h23c0.3,0,0.5,0.2,0.5,0.5c0,0.3-0.2,0.5-0.5,0.5h-23
			C135.2,153,135,152.8,135,152.5z"/>
	</defs>
	<clipPath id="SVGID_154_">
		<use xlink:href="#SVGID_153_"  style="overflow:visible;"/>
	</clipPath>
	<rect x="130" y="147" class="st78" width="34" height="11"/>
</g>
<g>
	<defs>
		<circle id="SVGID_155_" cx="130" cy="153" r="2"/>
	</defs>
	<clipPath id="SVGID_156_">
		<use xlink:href="#SVGID_155_"  style="overflow:visible;"/>
	</clipPath>
	<rect x="123" y="146" class="st79" width="14" height="14"/>
</g>
<g>
	<defs>
		<path id="SVGID_157_" d="M124,117c0-1.1,0.9-2,2-2h39c1.1,0,2,0.9,2,2v40c0,1.1-0.9,2-2,2h-39c-1.1,0-2-0.9-2-2V117z"/>
	</defs>
	<clipPath id="SVGID_158_">
		<use xlink:href="#SVGID_157_"  style="overflow:visible;"/>
	</clipPath>
	<path class="st80" d="M124,117c0-1.1,0.9-2,2-2h39c1.1,0,2,0.9,2,2v40c0,1.1-0.9,2-2,2h-39c-1.1,0-2-0.9-2-2V117z"/>
</g>
<g>
	<defs>
		<circle id="SVGID_159_" cx="70.5" cy="70.5" r="67.5"/>
	</defs>
	<clipPath id="SVGID_160_">
		<use xlink:href="#SVGID_159_"  style="overflow:visible;"/>
	</clipPath>
	<g class="st81">
		<g>
			<defs>
				<rect id="SVGID_161_" x="3" y="3" width="135" height="135"/>
			</defs>
			<clipPath id="SVGID_162_">
				<use xlink:href="#SVGID_161_"  style="overflow:visible;"/>
			</clipPath>
			<g class="st82">
				<defs>
					<rect id="SVGID_163_" x="3" y="3" width="135" height="135"/>
				</defs>
				<clipPath id="SVGID_164_">
					<use xlink:href="#SVGID_163_"  style="overflow:visible;"/>
				</clipPath>
				<rect x="-2" y="-2" class="st83" width="145" height="145"/>
			</g>
			<g class="st82">
				<defs>
					<path id="SVGID_165_" d="M9.1,101.3l-0.2,0l-0.1,0.2c-0.4,0.5-0.4,0.5-1.6,2.1c-1.2,1.6-1.2,1.6-1.6,2.1L5,106.5h1h131h0.5V106
						V55v-0.6l-0.5,0.1l-26.9,2.7l-0.1,0c-0.1,0-0.1,0-0.6,0.2c-0.4,0.2-1,0.3-1.6,0.6c-1.7,0.6-3.5,1.3-5.5,2
						c-5.7,2.1-11.5,4.2-16.8,6.1c-0.4,0.1-0.4,0.1-0.8,0.3c-2.7,1-5.3,1.9-7.6,2.8l-0.1,0.1L42.4,96.6l0.2-0.1
						c-1,0.1-1,0.1-5.2,0.7c-5.2,0.7-5.2,0.7-11.5,1.6s-6.3,0.9-11.5,1.6C10.1,101.1,10.1,101.1,9.1,101.3z M9.2,102.3
						c1-0.1,1-0.1,5.2-0.7c5.2-0.7,5.2-0.7,11.5-1.6c6.3-0.9,6.3-0.9,11.5-1.6c4.2-0.6,4.2-0.6,5.2-0.7l0.1,0l0.1-0.1L77.6,70
						l-0.1,0.1c2.3-0.9,4.9-1.8,7.6-2.8c0.4-0.1,0.4-0.1,0.8-0.3c5.4-2,11.1-4,16.8-6.1c2-0.7,3.9-1.4,5.5-2
						c0.6-0.2,1.1-0.4,1.6-0.6c0.5-0.2,0.5-0.2,0.5-0.2l-0.1,0l26.9-2.7l-0.5-0.5v51l0.5-0.5H6l0.4,0.8c0.4-0.5,0.4-0.5,1.6-2.1
						c1.2-1.6,1.2-1.6,1.6-2.1L9.2,102.3z M-15,34.4h172.5v92.1H-15V34.4z"/>
				</defs>
				<clipPath id="SVGID_166_">
					<use xlink:href="#SVGID_165_"  style="overflow:visible;"/>
				</clipPath>
				<g class="st84">
					<defs>
						<path id="SVGID_167_" d="M9.2,101.8c0,0,33.6-4.8,33.6-4.8l34.5-27.4c14.3-5.3,32.9-11.9,32.9-11.9L137,55v51H6L9.2,101.8z"/>
					</defs>
					<clipPath id="SVGID_168_">
						<use xlink:href="#SVGID_167_"  style="overflow:visible;"/>
					</clipPath>
					<g class="st85">
						<defs>
							<rect id="SVGID_169_" x="3" y="3" width="135" height="135"/>
						</defs>
						<clipPath id="SVGID_170_">
							<use xlink:href="#SVGID_169_"  style="overflow:visible;"/>
						</clipPath>
						<path class="st86" d="M9.2,101.8c0,0,33.6-4.8,33.6-4.8l34.5-27.4c14.3-5.3,32.9-11.9,32.9-11.9L137,55v51H6L9.2,101.8z"/>
					</g>
				</g>
			</g>
			<g class="st82">
				<defs>
					<path id="SVGID_171_" d="M9.2,101.8c0,0,33.6-4.8,33.6-4.8l34.5-27.4c14.3-5.3,32.9-11.9,32.9-11.9L137,55v51H6L9.2,101.8z"/>
				</defs>
				<clipPath id="SVGID_172_">
					<use xlink:href="#SVGID_171_"  style="overflow:visible;"/>
				</clipPath>
				<g class="st87">
					<defs>
						<rect id="SVGID_173_" x="3" y="3" width="135" height="135"/>
					</defs>
					<clipPath id="SVGID_174_">
						<use xlink:href="#SVGID_173_"  style="overflow:visible;"/>
					</clipPath>
					<path class="st88" d="M9.2,101.8c0,0,33.6-4.8,33.6-4.8l34.5-27.4c14.3-5.3,32.9-11.9,32.9-11.9L137,55v51H6L9.2,101.8z"/>
				</g>
			</g>
			<g class="st82">
				<defs>
					<rect id="SVGID_175_" x="3" y="3" width="135" height="135"/>
				</defs>
				<clipPath id="SVGID_176_">
					<use xlink:href="#SVGID_175_"  style="overflow:visible;"/>
				</clipPath>
				<line class="st89" x1="10.5" y1="45.2" x2="132.5" y2="45.2"/>
				<line class="st89" x1="10.5" y1="41.2" x2="132.5" y2="41.2"/>
				<line class="st89" x1="10.5" y1="23.2" x2="133.5" y2="23.2"/>
				<line class="st89" x1="10.5" y1="15.2" x2="132.5" y2="15.2"/>
				<line class="st90" x1="24.2" y1="45.5" x2="24.2" y2="105.5"/>
				<line class="st90" x1="85.2" y1="45.5" x2="85.2" y2="105.5"/>
			</g>
			<g class="st82">
				<defs>
					<path id="SVGID_177_" d="M27,36c0-0.6,0.5-1,1-1h6c0.6,0,1,0.4,1,1c0,0.6-0.5,1-1,1h-6C27.4,37,27,36.6,27,36z"/>
				</defs>
				<clipPath id="SVGID_178_">
					<use xlink:href="#SVGID_177_"  style="overflow:visible;"/>
				</clipPath>
				<g class="st91">
					<defs>
						<rect id="SVGID_179_" x="3" y="3" width="135" height="135"/>
					</defs>
					<clipPath id="SVGID_180_">
						<use xlink:href="#SVGID_179_"  style="overflow:visible;"/>
					</clipPath>
					<rect x="22" y="30" class="st92" width="18" height="12"/>
				</g>
			</g>
			<g class="st82">
				<defs>
					<path id="SVGID_181_" d="M41,11c0-0.6,0.5-1,1-1h6c0.6,0,1,0.4,1,1c0,0.6-0.5,1-1,1h-6C41.4,12,41,11.6,41,11z"/>
				</defs>
				<clipPath id="SVGID_182_">
					<use xlink:href="#SVGID_181_"  style="overflow:visible;"/>
				</clipPath>
				<g class="st93">
					<defs>
						<rect id="SVGID_183_" x="3" y="3" width="135" height="135"/>
					</defs>
					<clipPath id="SVGID_184_">
						<use xlink:href="#SVGID_183_"  style="overflow:visible;"/>
					</clipPath>
					<rect x="36" y="5" class="st94" width="18" height="12"/>
				</g>
			</g>
			<g class="st82">
				<defs>
					<path id="SVGID_185_" d="M22,108c0-0.6,0.4-1,1-1h3c0.6,0,1,0.4,1,1c0,0.6-0.4,1-1,1h-3C22.4,109,22,108.6,22,108z"/>
				</defs>
				<clipPath id="SVGID_186_">
					<use xlink:href="#SVGID_185_"  style="overflow:visible;"/>
				</clipPath>
				<g class="st95">
					<defs>
						<rect id="SVGID_187_" x="3" y="3" width="135" height="135"/>
					</defs>
					<clipPath id="SVGID_188_">
						<use xlink:href="#SVGID_187_"  style="overflow:visible;"/>
					</clipPath>
					<rect x="17" y="102" class="st96" width="15" height="12"/>
				</g>
			</g>
			<g class="st82">
				<defs>
					<path id="SVGID_189_" d="M20,113c0-0.6,0.4-1,1-1h7c0.6,0,1,0.4,1,1c0,0.6-0.4,1-1,1h-7C20.4,114,20,113.6,20,113z"/>
				</defs>
				<clipPath id="SVGID_190_">
					<use xlink:href="#SVGID_189_"  style="overflow:visible;"/>
				</clipPath>
				<g class="st97">
					<defs>
						<rect id="SVGID_191_" x="3" y="3" width="135" height="135"/>
					</defs>
					<clipPath id="SVGID_192_">
						<use xlink:href="#SVGID_191_"  style="overflow:visible;"/>
					</clipPath>
					<rect x="15" y="107" class="st98" width="19" height="12"/>
				</g>
			</g>
			<g class="st82">
				<defs>
					<path id="SVGID_193_" d="M40,113c0-0.6,0.5-1,1-1h4c0.5,0,1,0.4,1,1c0,0.6-0.5,1-1,1h-4C40.4,114,40,113.6,40,113z"/>
				</defs>
				<clipPath id="SVGID_194_">
					<use xlink:href="#SVGID_193_"  style="overflow:visible;"/>
				</clipPath>
				<g class="st99">
					<defs>
						<rect id="SVGID_195_" x="3" y="3" width="135" height="135"/>
					</defs>
					<clipPath id="SVGID_196_">
						<use xlink:href="#SVGID_195_"  style="overflow:visible;"/>
					</clipPath>
					<rect x="35" y="107" class="st100" width="16" height="12"/>
				</g>
			</g>
			<g class="st82">
				<defs>
					<path id="SVGID_197_" d="M56,113c0-0.6,0.4-1,1-1h28c0.6,0,1,0.4,1,1c0,0.6-0.4,1-1,1H57C56.4,114,56,113.6,56,113z"/>
				</defs>
				<clipPath id="SVGID_198_">
					<use xlink:href="#SVGID_197_"  style="overflow:visible;"/>
				</clipPath>
				<g class="st101">
					<defs>
						<rect id="SVGID_199_" x="3" y="3" width="135" height="135"/>
					</defs>
					<clipPath id="SVGID_200_">
						<use xlink:href="#SVGID_199_"  style="overflow:visible;"/>
					</clipPath>
					<rect x="51" y="107" class="st102" width="40" height="12"/>
				</g>
			</g>
			<g class="st82">
				<defs>
					<rect id="SVGID_201_" x="36" y="112" width="2" height="2"/>
				</defs>
				<clipPath id="SVGID_202_">
					<use xlink:href="#SVGID_201_"  style="overflow:visible;"/>
				</clipPath>
				<g class="st103">
					<defs>
						<rect id="SVGID_203_" x="3" y="3" width="135" height="135"/>
					</defs>
					<clipPath id="SVGID_204_">
						<use xlink:href="#SVGID_203_"  style="overflow:visible;"/>
					</clipPath>
					<rect x="31" y="107" class="st104" width="12" height="12"/>
				</g>
			</g>
			<g class="st82">
				<defs>
					<rect id="SVGID_205_" x="52" y="112" width="2" height="2"/>
				</defs>
				<clipPath id="SVGID_206_">
					<use xlink:href="#SVGID_205_"  style="overflow:visible;"/>
				</clipPath>
				<g class="st105">
					<defs>
						<rect id="SVGID_207_" x="3" y="3" width="135" height="135"/>
					</defs>
					<clipPath id="SVGID_208_">
						<use xlink:href="#SVGID_207_"  style="overflow:visible;"/>
					</clipPath>
					<rect x="47" y="107" class="st106" width="12" height="12"/>
				</g>
			</g>
			<g class="st82">
				<defs>
					<path id="SVGID_209_" d="M83,108c0-0.6,0.4-1,1-1h3c0.6,0,1,0.4,1,1c0,0.6-0.4,1-1,1h-3C83.4,109,83,108.6,83,108z"/>
				</defs>
				<clipPath id="SVGID_210_">
					<use xlink:href="#SVGID_209_"  style="overflow:visible;"/>
				</clipPath>
				<g class="st107">
					<defs>
						<rect id="SVGID_211_" x="3" y="3" width="135" height="135"/>
					</defs>
					<clipPath id="SVGID_212_">
						<use xlink:href="#SVGID_211_"  style="overflow:visible;"/>
					</clipPath>
					<rect x="78" y="102" class="st108" width="15" height="12"/>
				</g>
			</g>
			<g class="st82">
				<defs>
					<path id="SVGID_213_" d="M106,30c0-0.6,0.5-1,1-1h17c0.5,0,1,0.4,1,1c0,0.6-0.5,1-1,1h-17C106.4,31,106,30.6,106,30z"/>
				</defs>
				<clipPath id="SVGID_214_">
					<use xlink:href="#SVGID_213_"  style="overflow:visible;"/>
				</clipPath>
				<g class="st109">
					<defs>
						<rect id="SVGID_215_" x="3" y="3" width="135" height="135"/>
					</defs>
					<clipPath id="SVGID_216_">
						<use xlink:href="#SVGID_215_"  style="overflow:visible;"/>
					</clipPath>
					<rect x="101" y="24" class="st110" width="29" height="12"/>
				</g>
			</g>
			<g class="st82">
				<defs>
					<path id="SVGID_217_" d="M36,35.5c0-0.8,0.7-1.5,1.5-1.5h14c0.8,0,1.5,0.7,1.5,1.5c0,0.8-0.7,1.5-1.5,1.5h-14
						C36.7,37,36,36.3,36,35.5z"/>
				</defs>
				<clipPath id="SVGID_218_">
					<use xlink:href="#SVGID_217_"  style="overflow:visible;"/>
				</clipPath>
				<g class="st111">
					<defs>
						<rect id="SVGID_219_" x="3" y="3" width="135" height="135"/>
					</defs>
					<clipPath id="SVGID_220_">
						<use xlink:href="#SVGID_219_"  style="overflow:visible;"/>
					</clipPath>
					<rect x="31" y="29" class="st112" width="27" height="13"/>
				</g>
			</g>
			<g class="st82">
				<defs>
					<path id="SVGID_221_" d="M52,10.5C52,9.7,52.7,9,53.5,9h23c0.8,0,1.5,0.7,1.5,1.5c0,0.8-0.7,1.5-1.5,1.5h-23
						C52.7,12,52,11.3,52,10.5z"/>
				</defs>
				<clipPath id="SVGID_222_">
					<use xlink:href="#SVGID_221_"  style="overflow:visible;"/>
				</clipPath>
				<g class="st113">
					<defs>
						<rect id="SVGID_223_" x="3" y="3" width="135" height="135"/>
					</defs>
					<clipPath id="SVGID_224_">
						<use xlink:href="#SVGID_223_"  style="overflow:visible;"/>
					</clipPath>
					<rect x="47" y="4" class="st114" width="36" height="13"/>
				</g>
			</g>
			<g class="st82">
				<defs>
					<path id="SVGID_225_" d="M14,35.5c0-0.8,0.7-1.5,1.5-1.5h5c0.8,0,1.5,0.7,1.5,1.5c0,0.8-0.7,1.5-1.5,1.5h-5
						C14.7,37,14,36.3,14,35.5z"/>
				</defs>
				<clipPath id="SVGID_226_">
					<use xlink:href="#SVGID_225_"  style="overflow:visible;"/>
				</clipPath>
				<g class="st115">
					<defs>
						<rect id="SVGID_227_" x="3" y="3" width="135" height="135"/>
					</defs>
					<clipPath id="SVGID_228_">
						<use xlink:href="#SVGID_227_"  style="overflow:visible;"/>
					</clipPath>
					<rect x="9" y="29" class="st116" width="18" height="13"/>
				</g>
			</g>
			<g class="st82">
				<defs>
					<rect id="SVGID_229_" x="3" y="3" width="135" height="135"/>
				</defs>
				<clipPath id="SVGID_230_">
					<use xlink:href="#SVGID_229_"  style="overflow:visible;"/>
				</clipPath>
				<line class="st117" x1="7" y1="53.2" x2="135" y2="53.2"/>
				<line class="st117" x1="4" y1="71.2" x2="136" y2="71.2"/>
				<line class="st117" x1="4" y1="79.2" x2="136" y2="79.2"/>
				<line class="st117" x1="4" y1="88.2" x2="136" y2="88.2"/>
				<line class="st117" x1="4" y1="96.2" x2="136" y2="96.2"/>
				<line class="st118" x1="13" y1="105.4" x2="128" y2="105.4"/>
				<line class="st119" x1="13" y1="117.2" x2="128" y2="117.2"/>
				<line class="st119" x1="13" y1="123.2" x2="128" y2="123.2"/>
				<line class="st120" x1="5.5" y1="62.5" x2="135.5" y2="62.5"/>
				<line class="st121" x1="6.5" y1="83.5" x2="134.5" y2="83.5"/>
			</g>
		</g>
	</g>
</g>
<circle class="st122" cx="70.5" cy="70.5" r="67.5"/>
<g>
	<defs>
		<circle id="SVGID_231_" cx="70.5" cy="70.5" r="67.5"/>
	</defs>
	<clipPath id="SVGID_232_">
		<use xlink:href="#SVGID_231_"  style="overflow:visible;"/>
	</clipPath>
	<g class="st123">
		<g>
			<defs>
				<rect id="SVGID_233_" x="3" y="3" width="135" height="135"/>
			</defs>
			<clipPath id="SVGID_234_">
				<use xlink:href="#SVGID_233_"  style="overflow:visible;"/>
			</clipPath>
			<g class="st124">
				<defs>
					<rect id="SVGID_235_" x="3" y="3" width="135" height="135"/>
				</defs>
				<clipPath id="SVGID_236_">
					<use xlink:href="#SVGID_235_"  style="overflow:visible;"/>
				</clipPath>
				<circle class="st125" cx="70.5" cy="70.5" r="67.5"/>
			</g>
		</g>
	</g>
</g>
</svg>
