<?xml version="1.0" encoding="utf-8"?>
<!-- Generator: Adobe Illustrator 19.1.0, SVG Export Plug-In . SVG Version: 6.00 Build 0)  -->
<svg version="1.1" id="Layer_1" xmlns="http://www.w3.org/2000/svg" xmlns:xlink="http://www.w3.org/1999/xlink" x="0px" y="0px"
	 width="315.3px" height="139.8px" viewBox="0 0 315.3 139.8" style="enable-background:new 0 0 315.3 139.8;" xml:space="preserve"
	>
<style type="text/css">
	.st0{clip-path:url(#SVGID_2_);fill:#EEF1F6;}
	.st1{clip-path:url(#SVGID_4_);fill:#CFD7E5;}
	.st2{clip-path:url(#SVGID_6_);fill:#16325C;}
	.st3{clip-path:url(#SVGID_8_);enable-background:new    ;}
	.st4{clip-path:url(#SVGID_10_);}
	.st5{clip-path:url(#SVGID_12_);fill:#FFFFFF;}
	.st6{clip-path:url(#SVGID_14_);}
	.st7{clip-path:url(#SVGID_16_);fill:#0577DA;}
	.st8{clip-path:url(#SVGID_18_);fill:#FFFFFF;}
	.st9{clip-path:url(#SVGID_20_);fill:#16325C;}
	.st10{fill:none;stroke:#E5EAF1;stroke-width:0.5;stroke-miterlimit:10;}
	.st11{clip-path:url(#SVGID_22_);enable-background:new    ;}
	.st12{clip-path:url(#SVGID_24_);}
	.st13{clip-path:url(#SVGID_26_);fill:#FFFFFF;}
	.st14{clip-path:url(#SVGID_28_);}
	.st15{clip-path:url(#SVGID_30_);fill:#0577DA;}
	.st16{clip-path:url(#SVGID_32_);fill:#FFFFFF;}
	.st17{clip-path:url(#SVGID_34_);fill:#16325C;}
	.st18{clip-path:url(#SVGID_36_);enable-background:new    ;}
	.st19{clip-path:url(#SVGID_38_);}
	.st20{clip-path:url(#SVGID_40_);fill:#FFFFFF;}
	.st21{clip-path:url(#SVGID_42_);}
	.st22{clip-path:url(#SVGID_44_);fill:#0577DA;}
	.st23{clip-path:url(#SVGID_46_);fill:#FFFFFF;}
	.st24{clip-path:url(#SVGID_48_);fill:#CFD7E5;}
	.st25{clip-path:url(#SVGID_50_);fill:#FFFFFF;}
	.st26{clip-path:url(#SVGID_52_);fill:#16325C;}
	.st27{clip-path:url(#SVGID_54_);enable-background:new    ;}
	.st28{clip-path:url(#SVGID_56_);}
	.st29{clip-path:url(#SVGID_58_);fill:#FFFFFF;}
	.st30{clip-path:url(#SVGID_60_);}
	.st31{clip-path:url(#SVGID_62_);fill:#0577DA;}
	.st32{clip-path:url(#SVGID_64_);fill:none;stroke:#F7F9FE;stroke-width:2;stroke-miterlimit:10;}
	.st33{clip-path:url(#SVGID_66_);fill:none;stroke:#FFFFFF;stroke-width:2;stroke-miterlimit:10;}
</style>
<g>
	<defs>
		<polygon id="SVGID_1_" points="122.8,106 118.9,134 163.3,134 159.1,106 		"/>
	</defs>
	<clipPath id="SVGID_2_">
		<use xlink:href="#SVGID_1_"  style="overflow:visible;"/>
	</clipPath>
	<rect x="113.9" y="101" class="st0" width="54.3" height="38"/>
</g>
<g>
	<defs>
		<path id="SVGID_3_" d="M113.4,134c-1.1,0-2,0.9-2,2v0.4c0,1.1,0.9,2,2,2H169c1.1,0,2-0.9,2-2V136c0-1.1-0.9-2-2-2H113.4z"/>
	</defs>
	<clipPath id="SVGID_4_">
		<use xlink:href="#SVGID_3_"  style="overflow:visible;"/>
	</clipPath>
	<rect x="106.4" y="129" class="st1" width="69.6" height="14.4"/>
</g>
<g>
	<defs>
		<path id="SVGID_5_" d="M60.3,0c-3.3,0-6,2.7-6,6v93.9c0,3.3,2.7,6,6,6h160.1c3.3,0,6-2.7,6-6V6c0-3.3-2.7-6-6-6H60.3z"/>
	</defs>
	<clipPath id="SVGID_6_">
		<use xlink:href="#SVGID_5_"  style="overflow:visible;"/>
	</clipPath>
	<rect x="49.3" y="-5" class="st2" width="182.1" height="115.9"/>
</g>
<g>
	<defs>
		<path id="SVGID_7_" d="M63.9,6.4c-1.7,0-3,1.3-3,3v86.8c0,1.7,1.3,3,3,3h152.9c1.7,0,3-1.3,3-3V9.4c0-1.7-1.3-3-3-3H63.9z"/>
	</defs>
	<clipPath id="SVGID_8_">
		<use xlink:href="#SVGID_7_"  style="overflow:visible;"/>
	</clipPath>
	<g class="st3">
		<g>
			<defs>
				<rect id="SVGID_9_" x="60.5" y="5.8" width="160" height="94"/>
			</defs>
			<clipPath id="SVGID_10_">
				<use xlink:href="#SVGID_9_"  style="overflow:visible;"/>
			</clipPath>
			<g class="st4">
				<defs>
					<rect id="SVGID_11_" x="60.5" y="5.8" width="160" height="94"/>
				</defs>
				<clipPath id="SVGID_12_">
					<use xlink:href="#SVGID_11_"  style="overflow:visible;"/>
				</clipPath>
				<rect x="55.9" y="1.4" class="st5" width="168.9" height="102.8"/>
			</g>
			<g class="st4">
				<defs>
					<polygon id="SVGID_13_" points="59.8,5.3 220.7,5.4 220.7,29 59.7,54.8 					"/>
				</defs>
				<clipPath id="SVGID_14_">
					<use xlink:href="#SVGID_13_"  style="overflow:visible;"/>
				</clipPath>
				<g class="st6">
					<defs>
						<rect id="SVGID_15_" x="60.5" y="5.8" width="160" height="94"/>
					</defs>
					<clipPath id="SVGID_16_">
						<use xlink:href="#SVGID_15_"  style="overflow:visible;"/>
					</clipPath>
					<rect x="54.7" y="0.3" class="st7" width="171.1" height="59.6"/>
				</g>
			</g>
		</g>
	</g>
</g>
<g>
	<defs>
		<circle id="SVGID_17_" cx="141" cy="2.9" r="0.5"/>
	</defs>
	<clipPath id="SVGID_18_">
		<use xlink:href="#SVGID_17_"  style="overflow:visible;"/>
	</clipPath>
	<rect x="135.4" y="-2.6" class="st8" width="11" height="11"/>
</g>
<g>
	<defs>
		<path id="SVGID_19_" d="M78,84.8c0-3.3-2.7-6-6-6H6c-3.3,0-6,2.7-6,6v48c0,3.3,2.7,6,6,6h66c3.3,0,6-2.7,6-6V84.8z"/>
	</defs>
	<clipPath id="SVGID_20_">
		<use xlink:href="#SVGID_19_"  style="overflow:visible;"/>
	</clipPath>
	<rect x="-5" y="73.8" class="st9" width="88" height="70"/>
</g>
<path class="st10" d="M2.1,108.9c0,0.6,0.3,1.2,0.8,1.6c0.3,0.3,0.8,0.4,1.2,0.4c1.1,0,2-0.9,2-2s-0.9-2-2-2S2.1,107.8,2.1,108.9z"
	/>
<g>
	<defs>
		<path id="SVGID_21_" d="M70.4,87.4c0-1.7-1.4-3-3-3h-56c-1.7,0-3,1.3-3,3v42c0,1.7,1.4,3,3,3h56c1.7,0,3-1.3,3-3V87.4z"/>
	</defs>
	<clipPath id="SVGID_22_">
		<use xlink:href="#SVGID_21_"  style="overflow:visible;"/>
	</clipPath>
	<g class="st11">
		<g>
			<defs>
				<rect id="SVGID_23_" x="7.5" y="83.8" width="63" height="49"/>
			</defs>
			<clipPath id="SVGID_24_">
				<use xlink:href="#SVGID_23_"  style="overflow:visible;"/>
			</clipPath>
			<g class="st12">
				<defs>
					<rect id="SVGID_25_" x="7.5" y="83.8" width="63" height="49"/>
				</defs>
				<clipPath id="SVGID_26_">
					<use xlink:href="#SVGID_25_"  style="overflow:visible;"/>
				</clipPath>
				<rect x="3.4" y="79.4" class="st13" width="72" height="58"/>
			</g>
			<g class="st12">
				<defs>
					<polygon id="SVGID_27_" points="8,83.8 71,83.8 71,96.9 8,104.9 					"/>
				</defs>
				<clipPath id="SVGID_28_">
					<use xlink:href="#SVGID_27_"  style="overflow:visible;"/>
				</clipPath>
				<g class="st14">
					<defs>
						<rect id="SVGID_29_" x="7.5" y="83.8" width="63" height="49"/>
					</defs>
					<clipPath id="SVGID_30_">
						<use xlink:href="#SVGID_29_"  style="overflow:visible;"/>
					</clipPath>
					<rect x="3" y="78.8" class="st15" width="73" height="31.1"/>
				</g>
			</g>
		</g>
	</g>
</g>
<g>
	<defs>
		<circle id="SVGID_31_" cx="74" cy="109.2" r="0.4"/>
	</defs>
	<clipPath id="SVGID_32_">
		<use xlink:href="#SVGID_31_"  style="overflow:visible;"/>
	</clipPath>
	<rect x="68.6" y="103.8" class="st16" width="10.8" height="10.8"/>
</g>
<g>
	<defs>
		<path id="SVGID_33_" d="M195.3,60.5c-3.3,0-6,2.7-6,6v68h111.9v-68c0-3.3-2.7-6-6-6H195.3z"/>
	</defs>
	<clipPath id="SVGID_34_">
		<use xlink:href="#SVGID_33_"  style="overflow:visible;"/>
	</clipPath>
	<rect x="184.3" y="55.5" class="st17" width="121.9" height="84"/>
</g>
<g>
	<defs>
		<path id="SVGID_35_" d="M196.4,65c-1.7,0-3,1.3-3,3v63h104V68c0-1.7-1.4-3-3-3H196.4z"/>
	</defs>
	<clipPath id="SVGID_36_">
		<use xlink:href="#SVGID_35_"  style="overflow:visible;"/>
	</clipPath>
	<g class="st18">
		<g>
			<defs>
				<rect id="SVGID_37_" x="192.5" y="64.8" width="105" height="67"/>
			</defs>
			<clipPath id="SVGID_38_">
				<use xlink:href="#SVGID_37_"  style="overflow:visible;"/>
			</clipPath>
			<g class="st19">
				<defs>
					<rect id="SVGID_39_" x="192.5" y="64.8" width="105" height="67"/>
				</defs>
				<clipPath id="SVGID_40_">
					<use xlink:href="#SVGID_39_"  style="overflow:visible;"/>
				</clipPath>
				<rect x="188.4" y="60" class="st20" width="114" height="76"/>
			</g>
			<g class="st19">
				<defs>
					<polygon id="SVGID_41_" points="193.3,64.6 298.3,64.7 298.2,80.1 193.3,97 					"/>
				</defs>
				<clipPath id="SVGID_42_">
					<use xlink:href="#SVGID_41_"  style="overflow:visible;"/>
				</clipPath>
				<g class="st21">
					<defs>
						<rect id="SVGID_43_" x="192.5" y="64.8" width="105" height="67"/>
					</defs>
					<clipPath id="SVGID_44_">
						<use xlink:href="#SVGID_43_"  style="overflow:visible;"/>
					</clipPath>
					<rect x="188.3" y="59.6" class="st22" width="115" height="42.4"/>
				</g>
			</g>
		</g>
	</g>
</g>
<g>
	<defs>
		<circle id="SVGID_45_" cx="245" cy="62.8" r="0.5"/>
	</defs>
	<clipPath id="SVGID_46_">
		<use xlink:href="#SVGID_45_"  style="overflow:visible;"/>
	</clipPath>
	<rect x="239.5" y="57.3" class="st23" width="11" height="11"/>
</g>
<g>
	<defs>
		<path id="SVGID_47_" d="M177.8,134c-1.4,0-2.5,1.1-2.5,2.5c0,1.4,1.1,2.5,2.5,2.5h135c1.4,0,2.5-1.1,2.5-2.5
			c0-1.4-1.1-2.5-2.5-2.5H177.8z"/>
	</defs>
	<clipPath id="SVGID_48_">
		<use xlink:href="#SVGID_47_"  style="overflow:visible;"/>
	</clipPath>
	<rect x="170.3" y="129" class="st24" width="150" height="15"/>
</g>
<g>
	<defs>
		<path id="SVGID_49_" d="M234.3,134.1v1.1c0,0.6,0.5,1.1,1.1,1.1h19.7c0.6,0,1.1-0.5,1.1-1.1v-1.1H234.3z"/>
	</defs>
	<clipPath id="SVGID_50_">
		<use xlink:href="#SVGID_49_"  style="overflow:visible;"/>
	</clipPath>
	<rect x="229.3" y="129.1" class="st25" width="31.9" height="12.2"/>
</g>
<g>
	<defs>
		<path id="SVGID_51_" d="M89.6,94c-2.2,0-4,1.8-4,4v37.7c0,2.2,1.8,4,4,4h13c2.2,0,4-1.8,4-4V98c0-2.2-1.8-4-4-4H89.6z"/>
	</defs>
	<clipPath id="SVGID_52_">
		<use xlink:href="#SVGID_51_"  style="overflow:visible;"/>
	</clipPath>
	<rect x="80.6" y="89" class="st26" width="31" height="55.7"/>
</g>
<g>
	<defs>
		<path id="SVGID_53_" d="M88.5,100.5c-0.5,0-1,0.4-1,1v30.7c0,0.5,0.5,1,1,1h15.1c0.5,0,1-0.4,1-1v-30.7c0-0.5-0.5-1-1-1H88.5z"/>
	</defs>
	<clipPath id="SVGID_54_">
		<use xlink:href="#SVGID_53_"  style="overflow:visible;"/>
	</clipPath>
	<g class="st27">
		<g>
			<defs>
				<rect id="SVGID_55_" x="87.5" y="99.8" width="18" height="34"/>
			</defs>
			<clipPath id="SVGID_56_">
				<use xlink:href="#SVGID_55_"  style="overflow:visible;"/>
			</clipPath>
			<g class="st28">
				<defs>
					<rect id="SVGID_57_" x="87.5" y="99.8" width="18" height="34"/>
				</defs>
				<clipPath id="SVGID_58_">
					<use xlink:href="#SVGID_57_"  style="overflow:visible;"/>
				</clipPath>
				<rect x="82.5" y="95.5" class="st29" width="27.1" height="42.7"/>
			</g>
			<g class="st28">
				<defs>
					<polygon id="SVGID_59_" points="87.3,99.6 104.6,99.6 104.6,110.1 87.3,112.9 					"/>
				</defs>
				<clipPath id="SVGID_60_">
					<use xlink:href="#SVGID_59_"  style="overflow:visible;"/>
				</clipPath>
				<g class="st30">
					<defs>
						<rect id="SVGID_61_" x="87.5" y="99.8" width="18" height="34"/>
					</defs>
					<clipPath id="SVGID_62_">
						<use xlink:href="#SVGID_61_"  style="overflow:visible;"/>
					</clipPath>
					<rect x="82.3" y="94.6" class="st31" width="27.4" height="23.3"/>
				</g>
			</g>
		</g>
	</g>
</g>
<g>
	<defs>
		<circle id="SVGID_63_" cx="96.1" cy="96.3" r="0.4"/>
	</defs>
	<clipPath id="SVGID_64_">
		<use xlink:href="#SVGID_63_"  style="overflow:visible;"/>
	</clipPath>
	<circle class="st32" cx="96.1" cy="96.3" r="0.4"/>
</g>
<g>
	<defs>
		<path id="SVGID_65_" d="M94.6,97.5c-0.3,0-0.5,0.2-0.5,0.5c0,0.3,0.2,0.5,0.5,0.5h3.1c0.3,0,0.5-0.2,0.5-0.5
			c0-0.3-0.2-0.5-0.5-0.5H94.6z"/>
	</defs>
	<clipPath id="SVGID_66_">
		<use xlink:href="#SVGID_65_"  style="overflow:visible;"/>
	</clipPath>
	<path class="st33" d="M94.6,97.5c-0.3,0-0.5,0.2-0.5,0.5c0,0.3,0.2,0.5,0.5,0.5h3.1c0.3,0,0.5-0.2,0.5-0.5c0-0.3-0.2-0.5-0.5-0.5
		H94.6z"/>
</g>
<circle class="st10" cx="96.2" cy="136.4" r="2"/>
</svg>
