<svg id="Layer_1" xmlns="http://www.w3.org/2000/svg" xmlns:xlink="http://www.w3.org/1999/xlink" width="315.3" height="139.8"><style>.st0{clip-path:url(#SVGID_2_);fill:#EEF1F6;} .st1{clip-path:url(#SVGID_4_);fill:#CFD7E5;} .st2{clip-path:url(#SVGID_6_);fill:#16325C;} .st3{clip-path:url(#SVGID_8_);enable-background:new ;} .st4{clip-path:url(#SVGID_10_);} .st5{clip-path:url(#SVGID_12_);fill:#FFFFFF;} .st6{clip-path:url(#SVGID_14_);} .st7{clip-path:url(#SVGID_16_);fill:#0577DA;} .st8{clip-path:url(#SVGID_18_);fill:#FFFFFF;} .st9{clip-path:url(#SVGID_20_);fill:#16325C;} .st10{fill:none;stroke:#E5EAF1;stroke-width:0.5;stroke-miterlimit:10;} .st11{clip-path:url(#SVGID_22_);enable-background:new ;} .st12{clip-path:url(#SVGID_24_);} .st13{clip-path:url(#SVGID_26_);fill:#FFFFFF;} .st14{clip-path:url(#SVGID_28_);} .st15{clip-path:url(#SVGID_30_);fill:#0577DA;} .st16{clip-path:url(#SVGID_32_);fill:#FFFFFF;} .st17{clip-path:url(#SVGID_34_);fill:#16325C;} .st18{clip-path:url(#SVGID_36_);enable-background:new ;} .st19{clip-path:url(#SVGID_38_);} .st20{clip-path:url(#SVGID_40_);fill:#FFFFFF;} .st21{clip-path:url(#SVGID_42_);} .st22{clip-path:url(#SVGID_44_);fill:#0577DA;} .st23{clip-path:url(#SVGID_46_);fill:#FFFFFF;} .st24{clip-path:url(#SVGID_48_);fill:#CFD7E5;} .st25{clip-path:url(#SVGID_50_);fill:#FFFFFF;} .st26{clip-path:url(#SVGID_52_);fill:#16325C;} .st27{clip-path:url(#SVGID_54_);enable-background:new ;} .st28{clip-path:url(#SVGID_56_);} .st29{clip-path:url(#SVGID_58_);fill:#FFFFFF;} .st30{clip-path:url(#SVGID_60_);} .st31{clip-path:url(#SVGID_62_);fill:#0577DA;} .st32{clip-path:url(#SVGID_64_);fill:none;stroke:#F7F9FE;stroke-width:2;stroke-miterlimit:10;} .st33{clip-path:url(#SVGID_66_);fill:none;stroke:#FFFFFF;stroke-width:2;stroke-miterlimit:10;}</style><defs><path id="SVGID_1_" d="M122.8 106l-3.9 28h44.4l-4.2-28z"/></defs><clipPath id="SVGID_2_"><use xlink:href="#SVGID_1_" overflow="visible"/></clipPath><path class="st0" d="M113.9 101h54.3v38h-54.3z"/><defs><path id="SVGID_3_" d="M113.4 134c-1.1 0-2 .9-2 2v.4c0 1.1.9 2 2 2H169c1.1 0 2-.9 2-2v-.4c0-1.1-.9-2-2-2h-55.6z"/></defs><clipPath id="SVGID_4_"><use xlink:href="#SVGID_3_" overflow="visible"/></clipPath><path class="st1" d="M106.4 129H176v14.4h-69.6z"/><defs><path id="SVGID_5_" d="M60.3 0c-3.3 0-6 2.7-6 6v93.9c0 3.3 2.7 6 6 6h160.1c3.3 0 6-2.7 6-6V6c0-3.3-2.7-6-6-6H60.3z"/></defs><clipPath id="SVGID_6_"><use xlink:href="#SVGID_5_" overflow="visible"/></clipPath><path class="st2" d="M49.3-5h182.1v115.9H49.3z"/><defs><path id="SVGID_7_" d="M63.9 6.4c-1.7 0-3 1.3-3 3v86.8c0 1.7 1.3 3 3 3h152.9c1.7 0 3-1.3 3-3V9.4c0-1.7-1.3-3-3-3H63.9z"/></defs><clipPath id="SVGID_8_"><use xlink:href="#SVGID_7_" overflow="visible"/></clipPath><g class="st3"><defs><path id="SVGID_9_" d="M60.5 5.8h160v94h-160z"/></defs><clipPath id="SVGID_10_"><use xlink:href="#SVGID_9_" overflow="visible"/></clipPath><g class="st4"><defs><path id="SVGID_11_" d="M60.5 5.8h160v94h-160z"/></defs><clipPath id="SVGID_12_"><use xlink:href="#SVGID_11_" overflow="visible"/></clipPath><path class="st5" d="M55.9 1.4h168.9v102.8H55.9z"/></g><g class="st4"><defs><path id="SVGID_13_" d="M59.8 5.3l160.9.1V29l-161 25.8z"/></defs><clipPath id="SVGID_14_"><use xlink:href="#SVGID_13_" overflow="visible"/></clipPath><g class="st6"><defs><path id="SVGID_15_" d="M60.5 5.8h160v94h-160z"/></defs><clipPath id="SVGID_16_"><use xlink:href="#SVGID_15_" overflow="visible"/></clipPath><path class="st7" d="M54.7.3h171.1v59.6H54.7z"/></g></g></g><defs><circle id="SVGID_17_" cx="141" cy="2.9" r=".5"/></defs><clipPath id="SVGID_18_"><use xlink:href="#SVGID_17_" overflow="visible"/></clipPath><path class="st8" d="M135.4-2.6h11v11h-11z"/><defs><path id="SVGID_19_" d="M78 84.8c0-3.3-2.7-6-6-6H6c-3.3 0-6 2.7-6 6v48c0 3.3 2.7 6 6 6h66c3.3 0 6-2.7 6-6v-48z"/></defs><clipPath id="SVGID_20_"><use xlink:href="#SVGID_19_" overflow="visible"/></clipPath><path class="st9" d="M-5 73.8h88v70H-5z"/><path class="st10" d="M2.1 108.9c0 .6.3 1.2.8 1.6.3.3.8.4 1.2.4 1.1 0 2-.9 2-2s-.9-2-2-2-2 .9-2 2z"/><defs><path id="SVGID_21_" d="M70.4 87.4c0-1.7-1.4-3-3-3h-56c-1.7 0-3 1.3-3 3v42c0 1.7 1.4 3 3 3h56c1.7 0 3-1.3 3-3v-42z"/></defs><clipPath id="SVGID_22_"><use xlink:href="#SVGID_21_" overflow="visible"/></clipPath><g class="st11"><defs><path id="SVGID_23_" d="M7.5 83.8h63v49h-63z"/></defs><clipPath id="SVGID_24_"><use xlink:href="#SVGID_23_" overflow="visible"/></clipPath><g class="st12"><defs><path id="SVGID_25_" d="M7.5 83.8h63v49h-63z"/></defs><clipPath id="SVGID_26_"><use xlink:href="#SVGID_25_" overflow="visible"/></clipPath><path class="st13" d="M3.4 79.4h72v58h-72z"/></g><g class="st12"><defs><path id="SVGID_27_" d="M8 83.8h63v13.1l-63 8z"/></defs><clipPath id="SVGID_28_"><use xlink:href="#SVGID_27_" overflow="visible"/></clipPath><g class="st14"><defs><path id="SVGID_29_" d="M7.5 83.8h63v49h-63z"/></defs><clipPath id="SVGID_30_"><use xlink:href="#SVGID_29_" overflow="visible"/></clipPath><path class="st15" d="M3 78.8h73v31.1H3z"/></g></g></g><defs><circle id="SVGID_31_" cx="74" cy="109.2" r=".4"/></defs><clipPath id="SVGID_32_"><use xlink:href="#SVGID_31_" overflow="visible"/></clipPath><path class="st16" d="M68.6 103.8h10.8v10.8H68.6z"/><defs><path id="SVGID_33_" d="M195.3 60.5c-3.3 0-6 2.7-6 6v68h111.9v-68c0-3.3-2.7-6-6-6h-99.9z"/></defs><clipPath id="SVGID_34_"><use xlink:href="#SVGID_33_" overflow="visible"/></clipPath><path class="st17" d="M184.3 55.5h121.9v84H184.3z"/><defs><path id="SVGID_35_" d="M196.4 65c-1.7 0-3 1.3-3 3v63h104V68c0-1.7-1.4-3-3-3h-98z"/></defs><clipPath id="SVGID_36_"><use xlink:href="#SVGID_35_" overflow="visible"/></clipPath><g class="st18"><defs><path id="SVGID_37_" d="M192.5 64.8h105v67h-105z"/></defs><clipPath id="SVGID_38_"><use xlink:href="#SVGID_37_" overflow="visible"/></clipPath><g class="st19"><defs><path id="SVGID_39_" d="M192.5 64.8h105v67h-105z"/></defs><clipPath id="SVGID_40_"><use xlink:href="#SVGID_39_" overflow="visible"/></clipPath><path class="st20" d="M188.4 60h114v76h-114z"/></g><g class="st19"><defs><path id="SVGID_41_" d="M193.3 64.6l105 .1-.1 15.4L193.3 97z"/></defs><clipPath id="SVGID_42_"><use xlink:href="#SVGID_41_" overflow="visible"/></clipPath><g class="st21"><defs><path id="SVGID_43_" d="M192.5 64.8h105v67h-105z"/></defs><clipPath id="SVGID_44_"><use xlink:href="#SVGID_43_" overflow="visible"/></clipPath><path class="st22" d="M188.3 59.6h115V102h-115z"/></g></g></g><defs><circle id="SVGID_45_" cx="245" cy="62.8" r=".5"/></defs><clipPath id="SVGID_46_"><use xlink:href="#SVGID_45_" overflow="visible"/></clipPath><path class="st23" d="M239.5 57.3h11v11h-11z"/><defs><path id="SVGID_47_" d="M177.8 134c-1.4 0-2.5 1.1-2.5 2.5s1.1 2.5 2.5 2.5h135c1.4 0 2.5-1.1 2.5-2.5s-1.1-2.5-2.5-2.5h-135z"/></defs><clipPath id="SVGID_48_"><use xlink:href="#SVGID_47_" overflow="visible"/></clipPath><path class="st24" d="M170.3 129h150v15h-150z"/><defs><path id="SVGID_49_" d="M234.3 134.1v1.1c0 .6.5 1.1 1.1 1.1h19.7c.6 0 1.1-.5 1.1-1.1v-1.1h-21.9z"/></defs><clipPath id="SVGID_50_"><use xlink:href="#SVGID_49_" overflow="visible"/></clipPath><path class="st25" d="M229.3 129.1h31.9v12.2h-31.9z"/><defs><path id="SVGID_51_" d="M89.6 94c-2.2 0-4 1.8-4 4v37.7c0 2.2 1.8 4 4 4h13c2.2 0 4-1.8 4-4V98c0-2.2-1.8-4-4-4h-13z"/></defs><clipPath id="SVGID_52_"><use xlink:href="#SVGID_51_" overflow="visible"/></clipPath><path class="st26" d="M80.6 89h31v55.7h-31z"/><defs><path id="SVGID_53_" d="M88.5 100.5c-.5 0-1 .4-1 1v30.7c0 .5.5 1 1 1h15.1c.5 0 1-.4 1-1v-30.7c0-.5-.5-1-1-1H88.5z"/></defs><clipPath id="SVGID_54_"><use xlink:href="#SVGID_53_" overflow="visible"/></clipPath><g class="st27"><defs><path id="SVGID_55_" d="M87.5 99.8h18v34h-18z"/></defs><clipPath id="SVGID_56_"><use xlink:href="#SVGID_55_" overflow="visible"/></clipPath><g class="st28"><defs><path id="SVGID_57_" d="M87.5 99.8h18v34h-18z"/></defs><clipPath id="SVGID_58_"><use xlink:href="#SVGID_57_" overflow="visible"/></clipPath><path class="st29" d="M82.5 95.5h27.1v42.7H82.5z"/></g><g class="st28"><defs><path id="SVGID_59_" d="M87.3 99.6h17.3v10.5l-17.3 2.8z"/></defs><clipPath id="SVGID_60_"><use xlink:href="#SVGID_59_" overflow="visible"/></clipPath><g class="st30"><defs><path id="SVGID_61_" d="M87.5 99.8h18v34h-18z"/></defs><clipPath id="SVGID_62_"><use xlink:href="#SVGID_61_" overflow="visible"/></clipPath><path class="st31" d="M82.3 94.6h27.4v23.3H82.3z"/></g></g></g><g><defs><circle id="SVGID_63_" cx="96.1" cy="96.3" r=".4"/></defs><clipPath id="SVGID_64_"><use xlink:href="#SVGID_63_" overflow="visible"/></clipPath><circle class="st32" cx="96.1" cy="96.3" r=".4"/></g><g><defs><path id="SVGID_65_" d="M94.6 97.5c-.3 0-.5.2-.5.5s.2.5.5.5h3.1c.3 0 .5-.2.5-.5s-.2-.5-.5-.5h-3.1z"/></defs><clipPath id="SVGID_66_"><use xlink:href="#SVGID_65_" overflow="visible"/></clipPath><path class="st33" d="M94.6 97.5c-.3 0-.5.2-.5.5s.2.5.5.5h3.1c.3 0 .5-.2.5-.5s-.2-.5-.5-.5h-3.1z"/></g><circle class="st10" cx="96.2" cy="136.4" r="2"/></svg>