<svg xmlns="http://www.w3.org/2000/svg" xmlns:xlink="http://www.w3.org/1999/xlink" version="1.1" x="0px" y="0px" viewBox="0 0 16 16" enable-background="new 0 0 16 16" xml:space="preserve"><style>.style0{fill:	#4F6A91;clip-path:	url(#SVGID_2_);}.style1{fill:	#4F6A91;clip-path:	url(#SVGID_4_);}</style><g><g><defs><path d="M14 8.8c0 0.3-0.2 0.5-0.5 0.5h-11C2.2 9.3 2 9.1 2 8.8V2.5C2 2.2 2.2 2 2.5 2h11C13.8 2 14 2.2 14 2.5 V8.8z M14.7 0H1.3C0.6 0 0 0.6 0 1.3V10c0 0.7 0.6 1.3 1.3 1.3h13.3c0.7 0 1.3-0.6 1.3-1.3V1.3C16 0.6 15.4 0 14.7 0z"/></defs><clipPath><use xlink:href="#SVGID_1_" overflow="visible"/></clipPath><rect x="-5" y="-5" width="26" height="21.3" class="style0"/></g></g><g><g><defs><path d="M10.3 14h-1C9.1 14 9 13.9 9 13.7V13c0-0.2-0.1-0.3-0.3-0.3H7.3C7.1 12.7 7 12.8 7 13v0.7 C7 13.9 6.9 14 6.7 14h-1c-0.7 0-1.3 0.6-1.3 1.3v0.2c0 0.3 0.2 0.5 0.5 0.5h6.3c0.3 0 0.5-0.2 0.5-0.5v-0.2 C11.7 14.6 11.1 14 10.3 14"/></defs><clipPath><use xlink:href="#SVGID_3_" overflow="visible"/></clipPath><rect x="-0.7" y="7.7" width="17.3" height="13.3" class="style1"/></g></g></svg>