<svg xmlns="http://www.w3.org/2000/svg" xmlns:xlink="http://www.w3.org/1999/xlink" version="1.1" x="0px" y="0px" viewBox="0 0 19 16" enable-background="new 0 0 19 16" xml:space="preserve"><style>.style0{fill:	#4F6A91;clip-path:	url(#SVGID_2_);}</style><g><g><defs><path d="M16.6 13c0 0.3-0.3 0.6-0.6 0.6H4.6C4.2 13.6 4 13.3 4 13V3c0-0.3 0.3-0.6 0.6-0.6H16 c0.3 0 0.6 0.3 0.6 0.6V13z M2 9.2C1.3 9.2 0.8 8.7 0.8 8c0-0.7 0.5-1.2 1.2-1.2S3.2 7.3 3.2 8C3.2 8.7 2.6 9.2 2 9.2z M17.4 0 H1.6C0.7 0 0 0.7 0 1.6v12.8C0 15.3 0.7 16 1.6 16h15.8c0.9 0 1.6-0.7 1.6-1.6V1.6C19 0.7 18.3 0 17.4 0z"/></defs><clipPath><use xlink:href="#SVGID_1_" overflow="visible"/></clipPath><rect x="-5" y="-5" width="29" height="26" class="style0"/></g></g></svg>