<svg xmlns="http://www.w3.org/2000/svg" xmlns:xlink="http://www.w3.org/1999/xlink" version="1.1" x="0px" y="0px" viewBox="0 0 11 16" enable-background="new 0 0 11 16" xml:space="preserve"><style>.style0{fill:	#4F6A91;clip-path:	url(#SVGID_2_);}</style><g><g><defs><path d="M9.1 12.5c0 0.3-0.2 0.5-0.5 0.5H2.4c-0.3 0-0.5-0.2-0.5-0.5V2.9c0-0.3 0.2-0.5 0.5-0.5h6.1 c0.3 0 0.5 0.2 0.5 0.5V12.5z M5.5 15.4c-0.5 0-1-0.4-1-0.9c0-0.5 0.4-0.9 1-0.9s1 0.4 1 0.9C6.5 15 6 15.4 5.5 15.4z M9.7 0H1.3 C0.6 0 0 0.6 0 1.2v13.5C0 15.4 0.6 16 1.3 16h8.4c0.7 0 1.3-0.6 1.3-1.2V1.2C11 0.6 10.4 0 9.7 0z"/></defs><clipPath><use xlink:href="#SVGID_1_" overflow="visible"/></clipPath><rect x="-5" y="-5" width="21" height="26" class="style0"/></g></g></svg>