<svg width="60" height="71" xmlns="http://www.w3.org/2000/svg"><g fill="none" fill-rule="evenodd"><path d="M1.183 25.265c.065.178 13.658 31.54 13.658 31.54s.084.287.324.428c.24.14 15.597 12.722 15.69 12.787.09.065.437.43.748.445.31.013 1.09-.114 1.09-.114s.774-4.726 3.894-7.09c2.774-2.1 13.788-6.303 13.788-6.303s.54-.5.642-.94c.045-.2-3.77-6.66-1.968-13.71C51.254 33.68 59.154 24.17 59.154 24.17s.2-1.21-.688-1.853C57.88 21.893 31.61 1.544 31.61 1.544s-1.147-.913-2.397.002c-.578.424-27.48 21.515-27.48 21.515s-.442.35-.597.896c-.066.234-.182.672.047 1.31z" fill="#95F4E2"/><path d="M28.072 45.478L1.07 24.25s-.077.57.1.98c.13.292 13.67 31.59 13.7 31.65 0 0 .128.23.26.33.134.1 15.305 13.047 15.305 13.047s.38.324 1.048.4" fill="#2ECBBE"/><path d="M32.692 70.35l17.682-13.393c.525-.397.595-.756.595-.756.042-.14 8.07-31.583 8.155-31.914.126-.494-.033-.996-.033-.996l-31.02 22.188 3.41 25.18s.647.072 1.21-.307" fill="#2EA298"/></g></svg>