<svg width="61" height="69" xmlns="http://www.w3.org/2000/svg"><g fill="none" fill-rule="evenodd"><path d="M1.388 30.96s-1.085.62-1.04 1.853c0 0 14.774 4.437 22.162 4.656 4.553.132 13.66-3.598 13.66-3.598s11.24-10.67 14.862-16.003C54.98 12.05 58.878.416 58.878.416s-.84-.543-1.965 0L1.388 30.96z" fill="#97ECB9"/><path d="M46.916 18.04L36.17 33.873s2.47 9.846 5.706 14.77c4.312 6.56 16.937 19.684 16.937 19.684s1.207-.53 1.237-1.86l.002-64.217s.05-1.134-1.174-1.833L46.916 18.04z" fill="#56B786"/><path d="M43.076 44.38L36.17 33.874.347 32.814s-.07.92.78 1.685l55.79 33.81s.854.485 1.896.016L43.076 44.38z" fill="#48916C"/></g></svg>