<svg width="60" height="67" xmlns="http://www.w3.org/2000/svg"><g fill="none" fill-rule="evenodd"><path d="M12.874 40.328c-5.63 4.3-11.38 5.69-11.48 5.767l-1.285.033s-.18-.433-.085-.77c.07-.256.223-.925.223-.925.017-.148 5.505-22.32 5.56-22.552.064-.275.282-.6.38-.684.1-.082 22.817-19.19 22.946-19.3 0 0 .364-.317.635-.525.4-.307.9-.37.9-.37l.577 1.636S38.61 9.21 37.014 15.6c-1.484 5.952-11.93 11.746-11.97 11.912l.875.357-1.98 2.09c-.067.053-5.655 6.235-11.07 10.37z" fill="#CCD0FF"/><path d="M41.99 30.715c8.01 5.138 13.13 17.262 13.26 17.35l-.317.81c-.076.06-.33.253-.33.253-.186.133-23.294 16.536-23.575 16.722-.75.494-1.542.264-1.9.018C28.898 65.71.76 47.52.604 47.412.152 47.1 0 46.584 0 46.584l.47-.38 22.964-17.54.408-.325.304-.398s10.905-1.68 17.843 2.77z" fill="#696CB4"/><path d="M30.595 1.504l.134-.502s.33-.013.594.025c.29.042.594.226.594.226s26.81 17.392 27.204 17.662c.72.493.75 1.243.72 1.402l-4.123 26.67s-.03.283-.074.47c-.084.378-.24.616-.24.616l-.735-.528c-.15-.11-29.923-19.205-30.262-19.416l-.41-.27.12-.424c.013-.052 6.43-25.854 6.474-25.936z" fill="#8384E3"/></g></svg>