<svg width="60" height="71" xmlns="http://www.w3.org/2000/svg"><g fill="none" fill-rule="evenodd"><path d="M1.183 25.265c.065.178 13.658 31.54 13.658 31.54s.087.287.327.428c.24.14 15.597 12.722 15.69 12.787.09.065.437.43.748.445.31.013 1.09-.114 1.09-.114s.774-4.723 3.894-7.09c2.773-2.1 13.787-6.3 13.787-6.3s.54-.5.642-.94c.044-.2-3.77-6.66-1.97-13.71 2.204-8.63 10.104-18.14 10.104-18.14s.2-1.21-.688-1.852C57.88 21.893 31.61 1.544 31.61 1.544s-1.147-.913-2.397.002c-.578.424-27.48 21.515-27.48 21.515s-.442.35-.597.9c-.066.233-.182.67.047 1.31z" fill="#95F4E2"/><path d="M28.072 45.478L1.07 24.25s-.077.57.1.98c.13.292 13.67 31.59 13.7 31.65 0 0 .128.23.26.33.134.1 15.305 13.047 15.305 13.047s.38.324 1.048.4" fill="#2ECBBE"/><path d="M32.692 70.35l17.682-13.393c.525-.397.595-.756.595-.756.04-.14 8.07-31.58 8.152-31.91.126-.495-.033-.997-.033-.997L28.07 45.48l3.41 25.18s.648.07 1.21-.308" fill="#2EA298"/></g></svg>