<?xml version="1.0" encoding="UTF-8" standalone="no"?>
<svg width="61px" height="69px" viewBox="0 0 61 69" version="1.1" xmlns="http://www.w3.org/2000/svg" xmlns:xlink="http://www.w3.org/1999/xlink" xmlns:sketch="http://www.bohemiancoding.com/sketch/ns">
    <!-- Generator: Sketch 3.3.3 (12072) - http://www.bohemiancoding.com/sketch -->
    <title>Untitled</title>
    <desc>Created with Sketch.</desc>
    <defs></defs>
    <g id="Page-1" stroke="none" stroke-width="1" fill="none" fill-rule="evenodd" sketch:type="MSPage">
        <g id="Imported-Layers" sketch:type="MSLayerGroup">
            <path d="M1.38773832,30.9608093 C1.38773832,30.9608093 0.302975167,31.5798009 0.346503605,32.8134645 C0.346503605,32.8134645 15.1221163,37.2503242 22.5099227,37.4687541 C27.0631305,37.6033755 36.1695461,33.8726182 36.1695461,33.8726182 C36.1695461,33.8726182 47.4109703,23.204166 51.0316824,17.86994 C54.9804651,12.0523828 58.8780304,0.417268567 58.8780304,0.417268567 C58.8780304,0.417268567 58.0380609,-0.126130871 56.9132171,0.417268567 L1.38773832,30.9608093 Z" id="Fill-1" fill="#97ECB9" sketch:type="MSShapeGroup"></path>
            <path d="M46.9161825,18.0401006 C43.3339703,23.3176065 36.1695461,33.8726182 36.1695461,33.8726182 C36.1695461,33.8726182 38.6404621,43.718713 41.8759201,48.6417604 C46.1882645,55.2033896 58.8129533,68.3266479 58.8129533,68.3266479 C58.8129533,68.3266479 60.0201132,67.7966391 60.0498505,66.4662176 L60.0520053,2.24962184 C60.0520053,2.24962184 60.1032913,1.11573986 58.8780304,0.417268567 L46.9161825,18.0401006 Z" id="Fill-2" fill="#56B786" sketch:type="MSShapeGroup"></path>
            <path d="M43.0758509,44.3811972 C40.7737493,40.8783375 36.1695461,33.8726182 36.1695461,33.8726182 L0.346503605,32.8134645 C0.346503605,32.8134645 0.27625474,33.7330967 1.12699866,34.4985211 L56.9175268,68.3085058 C56.9175268,68.3085058 57.7708566,68.7957511 58.8129533,68.3266479 L43.0758509,44.3811972 Z" id="Fill-3" fill="#48916C" sketch:type="MSShapeGroup"></path>
        </g>
    </g>
</svg>