<svg width="52" height="60" xmlns="http://www.w3.org/2000/svg"><g fill="none" fill-rule="evenodd"><path d="M26.486 54.128s1.487-.534 1.726-.707l23.122-9.33s.14-.18.224-.504c.127-.496-2.478-27.167-2.478-27.515 0-.35-2.89-.52-3.14-.65S26.638.32 26.358.156c-.32-.186-.892-.272-1.407.137C24.47.672.9 14.178.46 14.397c-.44.22-.462.633-.455.718.007.086 0 28.34 0 28.578 0 .238.224.6.546.75.32.148 23.988 9.46 24.215 9.604.228.146 1.49.06 1.726.08" fill="#E97293"/><path d="M.22 43.913L25.794 0s-.482.038-.85.265C24.574.49.607 14.298.402 14.407c-.206.11-.404.352-.403.726V43.07c0 .275.123.72.22.845" fill="#FFBED0"/><path d="M26 0l25.635 43.81s.15-.39.154-.647l-.005-28.045c0-.202-.017-.428-.423-.673-.51-.31-24.506-14.187-24.506-14.187S26.524.03 26 0" fill="#D3547B"/><path d="M.594 44.586l24.08 14.16c1.008.59 1.892.033 1.892.033S50.16 44.89 50.598 44.613c.47-.298.622-.6.622-.6H.01c-.06-.103.136.285.584.57" fill="#BF4C76"/></g></svg>