<svg width="60" height="67" xmlns="http://www.w3.org/2000/svg"><g fill="none" fill-rule="evenodd"><path d="M12.874 40.328c-5.63 4.3-11.38 5.69-11.48 5.767l-1.285.033s-.177-.433-.083-.77c.07-.256.223-.925.223-.925.018-.148 5.506-22.32 5.56-22.552.065-.277.283-.603.38-.686.1-.082 22.818-19.19 22.947-19.3 0 0 .364-.317.635-.525.4-.308.9-.37.9-.37l.577 1.635S38.61 9.21 37.014 15.6c-1.484 5.952-11.93 11.746-11.97 11.912l.875.357-1.977 2.092c-.068.053-5.656 6.235-11.07 10.368z" fill="#CCD0FF"/><path d="M41.99 30.715c8.01 5.138 13.13 17.262 13.26 17.35l-.317.81c-.076.06-.33.253-.33.253-.186.133-23.294 16.536-23.575 16.722-.75.494-1.542.264-1.9.018C28.898 65.71.76 47.52.604 47.412.152 47.1 0 46.584 0 46.584l.47-.38 22.964-17.54.408-.325.304-.396s10.905-1.68 17.843 2.77z" fill="#696CB4"/><path d="M30.595 1.504l.134-.502s.33-.013.596.025c.29.042.594.226.594.226s26.812 17.392 27.205 17.662c.72.493.75 1.243.72 1.402l-4.123 26.67s-.032.283-.074.47c-.084.378-.24.616-.24.616l-.735-.528c-.15-.11-29.924-19.205-30.263-19.416l-.41-.27.12-.422c.014-.052 6.432-25.854 6.475-25.936z" fill="#8384E3"/></g></svg>