<svg width="55" height="92" xmlns="http://www.w3.org/2000/svg"><g fill="none" fill-rule="evenodd"><path d="M24.892 90.174C22.885 88.02.22 46.784.22 46.784s.024-1.545 0-2.07L26.82 39s8.714 15.174 8.716 22.76c.003 9.79-8.7 29.368-8.7 29.368-.602.003-1.27-.23-1.944-.954z" fill="#C97DD4"/><path d="M28.98 89.872s.21-.22.29-.344c.082-.122 24.143-42.74 24.143-42.74.31-.498.725-1.645.727-2.03 0 0-8.62-2.758-12.772-2.758C36.578 42 27 45.434 27 45.434l.05 45.258c1.11-.01 1.93-.82 1.93-.82z" fill="#974EA9"/><path d="M24 45.217L26.59.124c1.786.018 3.273 1.06 3.53 1.52.25.452 23.973 42.592 23.973 42.592s.215.393.21.98h-26.82" fill="#AC55BA"/><path d="M.12 44.41c.072-.197.254-.585.386-.86s23.93-41.88 23.93-41.88.83-1.686 2.474-1.67l-.087 45.217H.003c-.012-.248.014-.527.117-.808z" fill="#E0ADE8"/></g></svg>