<svg width="39" height="76" xmlns="http://www.w3.org/2000/svg"><g fill="none" fill-rule="evenodd"><path d="M23.716 20.524c1.628-.218 3.73-2.136 5.848-2.967 2.332-.915 1.763-.823 3.537-2.83 1.465-1.65 4.996-1.98 4.93-3.727v53.054c.066 1.75-.542 3.54-2.003 5.19-3.386 3.83-8.888 5.34-12.308 5.796-1.203.16-4.17.276-5.828.262 0 0-2.89-18.347-2.89-27.523 0-8.51 2.89-25.135 2.89-25.135 1.655.014 4.625-1.964 5.827-2.124z" fill="#5E789F"/><path d="M8.21 73.315C2.485 71.042.05 66.983 0 64.055V11c.05 2.928 2.485 4.064 8.21 6.337 3.714 1.475 7.387 4.87 10.442 4.893v53.055c-3.056-.024-6.728-.496-10.442-1.97z" fill="#7A90B2"/><path d="M8.21 73.315C2.485 71.042.05 66.983 0 64.055V11c.05 2.928 2.485 6.987 8.21 9.26v53.055" fill="#A8B8D0"/><path d="M21.13.07c3.796.226 9.903 1.822 13.496 4.895 3.593 3.072 4.812 7.647 1.36 11.476-3.454 3.83-9.064 5.34-12.55 5.8-3.488.457-9.225.568-15.064-1.705C2.535 18.26.052 14.2.002 11.275c-.065-3.71 2.427-6.615 7.14-8.87C11.856.15 16.918-.18 21.13.07z" fill="#D2DBEA"/></g></svg>