<svg width="60" height="60" viewBox="0 0 60 60" xmlns="http://www.w3.org/2000/svg"><title>circle</title><g fill="none" fill-rule="evenodd"><path d="M17.987 4.09C3.75 10.73-2.397 27.682 4.26 41.956 10.914 56.23 27.852 62.418 42.09 55.78L17.987 4.09" fill="#FFCA73"/><path d="M17.986 4.09c14.238-6.64 31.176-.45 37.832 13.824 6.655 14.273.51 31.227-13.728 37.866L17.986 4.09" fill="#D67B03"/><path d="M42.106 55.772c-9.46 4.412-22.527-3.583-29.183-17.856C6.267 23.642 8.525 8.502 17.987 4.09l24.12 51.682" fill="#F8B64B"/><path d="M42.074 55.787c9.46-4.412 11.736-19.56 5.08-33.833C40.498 7.68 27.448-.322 17.986 4.09l24.088 51.697" fill="#EB9924"/></g></svg>