<?xml version="1.0" encoding="UTF-8" standalone="no"?>
<svg width="60px" height="71px" viewBox="0 0 60 71" version="1.1" xmlns="http://www.w3.org/2000/svg" xmlns:xlink="http://www.w3.org/1999/xlink" xmlns:sketch="http://www.bohemiancoding.com/sketch/ns">
    <!-- Generator: Sketch 3.3.3 (12072) - http://www.bohemiancoding.com/sketch -->
    <title>Untitled</title>
    <desc>Created with Sketch.</desc>
    <defs></defs>
    <g id="Page-1" stroke="none" stroke-width="1" fill="none" fill-rule="evenodd" sketch:type="MSPage">
        <g id="Fill-1-+-Fill-2-+-Fill-3" sketch:type="MSLayerGroup" transform="translate(0.972281, 0.746466)">
            <path d="M0.211136407,24.5182549 C0.275497691,24.6964646 13.8682869,56.0597892 13.8682869,56.0597892 C13.8682869,56.0597892 13.9518781,56.3450828 14.1920556,56.486149 C14.432233,56.6272152 29.7890709,69.2085821 29.8812959,69.2737808 C29.972736,69.3381892 30.3184817,69.7044871 30.6292996,69.7183172 C30.9401175,69.731752 31.7199094,69.6041207 31.7199094,69.6041207 C31.7199094,69.6041207 32.4939466,64.8776212 35.613933,62.5143715 C38.3879751,60.413159 49.4019948,56.210734 49.4019948,56.210734 C49.4019948,56.210734 49.9427866,55.709297 50.0436454,55.2691072 C50.0888257,55.0707963 46.2733336,48.6105278 48.0761134,41.560474 C50.2821393,32.9334634 58.1822083,23.4233125 58.1822083,23.4233125 C58.1822083,23.4233125 58.3827486,22.2145687 57.493464,21.5700898 C56.9087182,21.1461009 30.6363636,0.797399449 30.6363636,0.797399449 C30.6363636,0.797399449 29.4904188,-0.114986739 28.240868,0.79977031 C27.6624014,1.22336407 0.761346896,22.31454 0.761346896,22.31454 C0.761346896,22.31454 0.318666845,22.6650322 0.164042785,23.209935 C0.0977192665,23.4438599 -0.0184450021,23.8816788 0.211136407,24.5182549 Z" id="Fill-1" fill="#95F4E2" sketch:type="MSShapeGroup"></path>
            <path d="M27.100025,44.7314221 L0.096541926,23.5031314 C0.096541926,23.5031314 0.0207996832,24.0745088 0.198578108,24.4822969 C0.326515782,24.7758884 13.8671096,56.0724338 13.8969355,56.1340762 C13.8969355,56.1340762 14.0252656,56.3640497 14.1583051,56.464021 C14.2913446,56.5635971 29.4625551,69.5100766 29.4625551,69.5100766 C29.4625551,69.5100766 29.8420512,69.8344893 30.5103882,69.9115423" id="Fill-2" fill="#2ECBBE" sketch:type="MSShapeGroup"></path>
            <path d="M31.7199094,69.6041207 C31.7199094,69.6041207 49.0892147,56.4474249 49.4019948,56.210734 C49.9266963,55.81401 49.9965518,55.4544295 49.9965518,55.4544295 C50.0393285,55.3129681 58.0680062,23.8702197 58.1527747,23.5394846 C58.2791426,23.0451602 58.1194168,22.543328 58.1194168,22.543328 L27.100025,44.7314221 L30.5103882,69.9115423 C30.5103882,69.9115423 31.1567481,69.9834584 31.7199094,69.6041207" id="Fill-3" fill="#2EA298" sketch:type="MSShapeGroup"></path>
        </g>
    </g>
</svg>