<svg width="54" height="63" xmlns="http://www.w3.org/2000/svg"><path d="M.517 41.506s2.8-11.9 6.5-16.9c3-4 13.6-10 13.6-10s9.3 8.9 11.3 13.9c2.4 6 2 19.2 2 19.2s-12.2 2-18.1 1c-5.3-1-15.4-7-15.4-7" fill="#A4D8FF"/><path d="M51.317 50.006l-28.9 11.9s-.5.2-.9.2c0 0 2.7-5.1 4.9-7.7 1.9-2.2 7.6-6.5 7.6-6.5s6.5-1.2 9.6-.9c2.8.3 8.4 2.6 8.4 2.6-.3.2-.7.4-.7.4z" fill="#49AAF3"/><path d="M42.517 48.606c-2.8-.3-8.6-.8-8.6-.8s3.8-7.9 6.6-11.8c3.5-5 12.5-14.9 12.5-14.9.1.3.1.7.1.7l-.7 26.6s0 .8-.5 1.2c0-.1-6.2-.7-9.4-1z" fill="#67BEFE"/><path d="M35.117 23.506c-5.1-1-14.5-8.9-14.5-8.9s1.3-4.4 2.9-6.6c1.9-2.6 7.6-7.8 7.6-7.8.6 0 1 .4 1 .4l20.6 19.7s.2.2.3.5c0-.1-12.3 3.8-17.9 2.7z" fill="#80C9FF"/><path d="M20.317 14.806l-11.2 3.5-8.4-5.9s.2-.4.8-.6l28.5-11.5s.4-.2.9-.1l-10.6 14.6z" fill="#D7F2FF"/><path d="M.817 12.306l19.8 2.2-20.1 26.9s-.1-.2-.1-.5v-27.4s0-.7.4-1.2" fill="#BDE6FF"/><path d="M53.017 20.706l-32.4-6.1 13.4 33.1 19.2-26.8c-.2 0-.2-.1-.2-.2m-31.6 41.3c-.5 0-1.1-.5-1.1-.5l-19.3-19.3s-.3-.3-.4-.6l33.3 6-12.5 14.4" fill="#8DCEFF"/></svg>