<svg xmlns="http://www.w3.org/2000/svg" viewBox="0 0 272.2 190.5"><style>.style0{fill: #009DDC;}.style1{fill: #FFFFFF;}.style2{fill-rule: evenodd;clip-rule: evenodd;fill: #FFFFFF;}</style><path d="M113.3 20.8C122 11.6 134.3 6 147.8 6c18 0 33.6 10 42 24.9 7.3-3.2 15.3-5 23.7-5 32.4 0 58.7 26.5 58.7 59.2s-26.3 59.2-58.7 59.2c-4 0-7.8-.4-11.6-1.2-7.3 13.1-21.4 22-37.4 22-6.7 0-13.1-1.6-18.8-4.3-7.5 17.5-24.8 29.8-45 29.8-21.1 0-39-13.3-45.9-32-3 .6-6.1 1-9.3 1C20.3 159.4 0 138.9 0 113.5c0-17 9.1-31.8 22.7-39.8-2.8-6.4-4.3-13.5-4.3-21C18.4 23.6 42 0 71.2 0c17.2 0 32.4 8.1 42.1 20.8z" class="style0"/><path d="M39.4 98.8c-.2.4.1.5.1.6.5.4 1 .6 1.6.9 2.8 1.5 5.4 1.9 8.1 1.9 5.6 0 9.1-3 9.1-7.7v-.1c0-4.4-3.9-6-7.6-7.2l-.5-.2c-2.8-.9-5.2-1.7-5.2-3.5v-.1c0-1.6 1.4-2.7 3.6-2.7 2.4 0 5.3.8 7.1 1.8 0 0 .5.3.7-.2.1-.3 1-2.8 1.1-3.1.1-.3-.1-.5-.3-.6-2.1-1.3-5-2.1-8-2.1h-.6c-5.1 0-8.7 3.1-8.7 7.5v.1c0 4.7 3.9 6.2 7.6 7.2l.6.2c2.7.8 5 1.5 5 3.4v.1c0 1.7-1.5 3-3.9 3-.9 0-3.9 0-7.2-2.1-.4-.2-.6-.4-.9-.6-.2-.1-.6-.3-.7.3l-1 3.2zm81.8 0c-.2.4.1.5.1.6.5.4 1 .6 1.6.9 2.8 1.5 5.4 1.9 8.1 1.9 5.6 0 9.1-3 9.1-7.7v-.1c0-4.4-3.9-6-7.6-7.2l-.5-.2c-2.8-.9-5.2-1.7-5.2-3.5v-.1c0-1.6 1.4-2.7 3.6-2.7 2.4 0 5.3.8 7.1 1.8 0 0 .5.3.7-.2.1-.3 1-2.8 1.1-3.1.1-.3-.1-.5-.3-.6-2.1-1.3-5-2.1-8-2.1h-.6c-5.1 0-8.7 3.1-8.7 7.5v.1c0 4.7 3.9 6.2 7.6 7.2l.6.2c2.7.8 5 1.5 5 3.4v.1c0 1.7-1.5 3-3.9 3-.9 0-3.9 0-7.2-2.1-.4-.2-.6-.4-.9-.6-.1-.1-.6-.2-.7.3l-1 3.2zm60.4-14.4c-.5-1.5-1.2-2.9-2.1-4-1-1.1-2.2-2.1-3.6-2.7-1.4-.7-3.1-1-5-1s-3.6.3-5 1-2.6 1.6-3.6 2.7c-.9 1.1-1.7 2.5-2.1 4-.5 1.5-.7 3.2-.7 5 0 1.8.2 3.5.7 5 .5 1.5 1.2 2.9 2.1 4 1 1.1 2.2 2.1 3.6 2.7 1.4.6 3.1 1 5 1s3.6-.3 5-1c1.4-.6 2.6-1.6 3.6-2.7.9-1.1 1.7-2.5 2.1-4 .5-1.5.7-3.2.7-5 0-1.8-.2-3.4-.7-5m-4.7 5c0 2.7-.5 4.8-1.5 6.3s-2.5 2.2-4.5 2.2c-2.1 0-3.5-.7-4.5-2.2-1-1.5-1.5-3.6-1.5-6.3 0-2.7.5-4.8 1.5-6.3s2.4-2.2 4.5-2.2 3.6.7 4.5 2.2c1 1.5 1.5 3.6 1.5 6.3" class="style1"/><path d="M219.9 97.3c-.2-.5-.6-.3-.6-.3-.7.3-1.4.5-2.2.6-.8.1-1.6.2-2.6.2-2.3 0-4-.7-5.3-2-1.3-1.3-2-3.5-2-6.4 0-2.6.6-4.6 1.8-6.1 1.1-1.5 2.9-2.3 5.2-2.3 1.9 0 3.4.2 4.9.7 0 0 .4.2.5-.3.4-1.1.7-1.9 1.1-3.2.1-.4-.2-.5-.3-.5-.6-.2-2-.6-3.1-.8-1-.2-2.2-.2-3.5-.2-2 0-3.7.3-5.2 1s-2.8 1.6-3.8 2.7-1.8 2.5-2.3 4c-.5 1.5-.8 3.2-.8 5 0 3.9 1 7 3.1 9.3 2.1 2.3 5.2 3.5 9.2 3.5 2.4 0 4.8-.5 6.6-1.2 0 0 .3-.2.2-.6l-.9-3.1zm23.8-13.8c-.4-1.5-1.4-3-2-3.7-1-1.1-2-1.9-3-2.3-1.3-.6-2.8-.9-4.5-.9-2 0-3.8.3-5.2 1-1.5.7-2.7 1.6-3.6 2.8-1 1.2-1.7 2.5-2.1 4.1-.5 1.6-.7 3.2-.7 5 0 1.8.2 3.5.7 5 .5 1.5 1.2 2.9 2.3 4 1 1.1 2.4 2 4 2.6 1.6.6 3.5.9 5.7.9 4.6 0 7-1 7.9-1.6.2-.1.3-.3.1-.8l-1-2.9c-.2-.4-.6-.3-.6-.3-1.1.4-2.7 1.2-6.5 1.2-2.4 0-4.3-.7-5.4-1.9-1.2-1.2-1.7-2.9-1.8-5.2h15.8s.4 0 .5-.4c-.1.1.4-3-.6-6.6zM228 86.8c.2-1.5.6-2.7 1.3-3.7 1-1.5 2.4-2.3 4.5-2.3s3.4.8 4.4 2.3c.7 1 .9 2.3 1 3.7H228zm-110.6-3.3c-.4-1.5-1.4-3-2-3.7-1-1.1-2-1.9-3-2.3-1.3-.6-2.8-.9-4.5-.9-2 0-3.8.3-5.2 1-1.5.7-2.7 1.6-3.6 2.8-1 1.2-1.7 2.5-2.1 4.1-.5 1.6-.7 3.2-.7 5 0 1.8.2 3.5.7 5 .5 1.5 1.2 2.9 2.3 4 1 1.1 2.4 2 4 2.6 1.6.6 3.5.9 5.7.9 4.6 0 7-1 7.9-1.6.2-.1.3-.3.1-.8l-1-2.9c-.2-.4-.6-.3-.6-.3-1.1.4-2.7 1.2-6.5 1.2-2.4 0-4.3-.7-5.4-1.9-1.2-1.2-1.7-2.9-1.8-5.2h15.8s.4 0 .5-.4c-.1.1.4-3-.6-6.6zm-15.7 3.3c.2-1.5.6-2.7 1.3-3.7 1-1.5 2.4-2.3 4.5-2.3s3.4.8 4.4 2.3c.6 1 .9 2.3 1 3.7h-11.2z" class="style2"/><path d="M73.9 86.1c-.6 0-1.5-.1-2.5-.1-1.4 0-2.7.2-3.9.5-1.2.3-2.3.8-3.3 1.5s-1.7 1.6-2.3 2.6c-.6 1-.8 2.3-.8 3.6 0 1.4.2 2.6.7 3.6.5 1 1.2 1.8 2.1 2.5.9.6 2 1.1 3.2 1.4 1.2.3 2.6.4 4.2.4s3.2-.1 4.8-.4c1.5-.3 3.4-.6 4-.8.5-.1 1.1-.3 1.1-.3.4-.1.4-.5.4-.5V85.7c0-3.2-.8-5.5-2.5-7-1.7-1.4-4.1-2.2-7.2-2.2-1.2 0-3.1.2-4.2.4 0 0-3.4.7-4.9 1.8 0 0-.3.2-.1.6l1.1 3c.1.4.5.3.5.3s.1 0 .3-.1c3-1.6 6.9-1.6 6.9-1.6 1.7 0 3 .3 3.9 1 .9.7 1.3 1.7 1.3 3.8v.7c-1.6-.2-2.8-.3-2.8-.3zm-6.3 11.1c-.6-.5-.7-.6-.9-.9-.3-.5-.5-1.2-.5-2.1 0-1.4.5-2.4 1.4-3.1 0 0 1.4-1.2 4.6-1.1 2.3 0 4.3.4 4.3.4v7.2s-2 .4-4.3.6c-3.2.1-4.6-1-4.6-1z" class="style1"/><path d="M201.1 78c.1-.4-.1-.5-.2-.6-.3-.1-1.6-.4-2.6-.4-2-.1-3.1.2-4.1.7-1 .4-2.1 1.2-2.7 2v-1.9c0-.3-.2-.5-.5-.5h-4c-.3 0-.5.2-.5.5v23.5c0 .3.2.5.5.5h4.1c.3 0 .5-.2.5-.5V89.4c0-1.6.2-3.2.5-4.1.3-1 .8-1.8 1.4-2.3.6-.6 1.2-1 1.9-1.2.7-.2 1.5-.3 2.1-.3.8 0 1.7.2 1.7.2.3 0 .5-.2.6-.4.4-.8 1.2-2.9 1.3-3.3zm-38.9-11c-.5-.2-1-.3-1.6-.4-.6-.1-1.3-.2-2.1-.2-2.9 0-5.1.8-6.7 2.4-1.6 1.6-2.6 4-3.2 7.2l-.2 1.1h-3.6s-.4 0-.5.5l-.6 3.3c0 .3.1.5.5.5h3.5l-3.5 19.7c-.3 1.6-.6 2.9-.9 3.9-.3 1-.7 1.7-1.1 2.2-.4.5-.8.9-1.4 1.1-.5.2-1.2.3-1.9.3-.4 0-.9-.1-1.3-.1-.4-.1-.6-.2-.9-.3 0 0-.4-.2-.6.3-.1.3-1.1 2.9-1.2 3.2-.1.3 0 .6.2.6.5.2.8.3 1.4.4.9.2 1.6.2 2.3.2 1.5 0 2.8-.2 3.9-.6 1.1-.4 2.1-1.1 2.9-2 .9-1 1.5-2.1 2-3.5s1-3.2 1.4-5.3l3.6-20.1h5.2s.4 0 .5-.5l.6-3.3c0-.3-.1-.5-.5-.5h-5c0-.1.3-1.9.8-3.6.2-.7.7-1.3 1.1-1.7.4-.4.8-.7 1.3-.8.5-.2 1.1-.2 1.7-.2.5 0 .9.1 1.3.1.5.1.7.2.8.2.5.2.6 0 .7-.2l1.2-3.3c.3-.4 0-.5-.1-.6zm-70.5 34.2c0 .3-.2.5-.5.5H87c-.3 0-.5-.2-.5-.5V67.5c0-.3.2-.5.5-.5h4.2c.3 0 .5.2.5.5v33.7z" class="style2"/></svg>