<svg xmlns="http://www.w3.org/2000/svg" xmlns:xlink="http://www.w3.org/1999/xlink" version="1.1" x="0px" y="0px" viewBox="0 0 272.2 190.5" enable-background="new 0 0 272.2 190.5" xml:space="preserve"><style>.style0{fill:	#009DDC;}.style1{fill:	#FFFFFF;}.style2{fill-rule:	evenodd;clip-rule:	evenodd;fill:	#FFFFFF;}</style><g><g><path d="M113.3 20.8C122 11.6 134.3 6 147.8 6c18 0 33.6 10 42 24.9c7.3-3.2 15.3-5 23.7-5 c32.4 0 58.7 26.5 58.7 59.2c0 32.7-26.3 59.2-58.7 59.2c-4 0-7.8-0.4-11.6-1.2c-7.3 13.1-21.4 22-37.4 22 c-6.7 0-13.1-1.6-18.8-4.3c-7.5 17.5-24.8 29.8-45 29.8c-21.1 0-39-13.3-45.9-32c-3 0.6-6.1 1-9.3 1C20.3 159.4 0 138.9 0 113.5 c0-17 9.1-31.8 22.7-39.8c-2.8-6.4-4.3-13.5-4.3-21C18.4 23.6 42 0 71.2 0C88.4 0 103.6 8.1 113.3 20.8z" class="style0"/></g><g><g><path d="M39.4 98.8c-0.2 0.4 0.1 0.5 0.1 0.6c0.5 0.4 1 0.6 1.6 0.9c2.8 1.5 5.4 1.9 8.1 1.9c5.6 0 9.1-3 9.1-7.7 v-0.1c0-4.4-3.9-6-7.6-7.2l-0.5-0.2c-2.8-0.9-5.2-1.7-5.2-3.5v-0.1c0-1.6 1.4-2.7 3.6-2.7c2.4 0 5.3 0.8 7.1 1.8 c0 0 0.5 0.3 0.7-0.2c0.1-0.3 1-2.8 1.1-3.1c0.1-0.3-0.1-0.5-0.3-0.6c-2.1-1.3-5-2.1-8-2.1l-0.6 0c-5.1 0-8.7 3.1-8.7 7.5v0.1 c0 4.7 3.9 6.2 7.6 7.2l0.6 0.2c2.7 0.8 5 1.5 5 3.4v0.1c0 1.7-1.5 3-3.9 3c-0.9 0-3.9 0-7.2-2.1c-0.4-0.2-0.6-0.4-0.9-0.6 c-0.2-0.1-0.6-0.3-0.7 0.3L39.4 98.8z" class="style1"/><path d="M121.2 98.8c-0.2 0.4 0.1 0.5 0.1 0.6c0.5 0.4 1 0.6 1.6 0.9c2.8 1.5 5.4 1.9 8.1 1.9 c5.6 0 9.1-3 9.1-7.7v-0.1c0-4.4-3.9-6-7.6-7.2l-0.5-0.2c-2.8-0.9-5.2-1.7-5.2-3.5v-0.1c0-1.6 1.4-2.7 3.6-2.7 c2.4 0 5.3 0.8 7.1 1.8c0 0 0.5 0.3 0.7-0.2c0.1-0.3 1-2.8 1.1-3.1c0.1-0.3-0.1-0.5-0.3-0.6c-2.1-1.3-5-2.1-8-2.1l-0.6 0 c-5.1 0-8.7 3.1-8.7 7.5v0.1c0 4.7 3.9 6.2 7.6 7.2l0.6 0.2c2.7 0.8 5 1.5 5 3.4v0.1c0 1.7-1.5 3-3.9 3c-0.9 0-3.9 0-7.2-2.1 c-0.4-0.2-0.6-0.4-0.9-0.6c-0.1-0.1-0.6-0.2-0.7 0.3L121.2 98.8z" class="style1"/><path d="M181.6 84.4c-0.5-1.5-1.2-2.9-2.1-4c-1-1.1-2.2-2.1-3.6-2.7c-1.4-0.7-3.1-1-5-1c-1.9 0-3.6 0.3-5 1 c-1.4 0.7-2.6 1.6-3.6 2.7c-0.9 1.1-1.7 2.5-2.1 4c-0.5 1.5-0.7 3.2-0.7 5c0 1.8 0.2 3.5 0.7 5c0.5 1.5 1.2 2.9 2.1 4 c1 1.1 2.2 2.1 3.6 2.7c1.4 0.6 3.1 1 5 1s3.6-0.3 5-1c1.4-0.6 2.6-1.6 3.6-2.7c0.9-1.1 1.7-2.5 2.1-4c0.5-1.5 0.7-3.2 0.7-5 C182.3 87.6 182.1 86 181.6 84.4 M176.9 89.4c0 2.7-0.5 4.8-1.5 6.3c-1 1.5-2.5 2.2-4.5 2.2c-2.1 0-3.5-0.7-4.5-2.2 c-1-1.5-1.5-3.6-1.5-6.3c0-2.7 0.5-4.8 1.5-6.3c1-1.5 2.4-2.2 4.5-2.2c2.1 0 3.6 0.7 4.5 2.2C176.4 84.6 176.9 86.7 176.9 89.4" class="style1"/><path d="M219.9 97.3c-0.2-0.5-0.6-0.3-0.6-0.3c-0.7 0.3-1.4 0.5-2.2 0.6 c-0.8 0.1-1.6 0.2-2.6 0.2c-2.3 0-4-0.7-5.3-2c-1.3-1.3-2-3.5-2-6.4c0-2.6 0.6-4.6 1.8-6.1c1.1-1.5 2.9-2.3 5.2-2.3 c1.9 0 3.4 0.2 4.9 0.7c0 0 0.4 0.2 0.5-0.3c0.4-1.1 0.7-1.9 1.1-3.2c0.1-0.4-0.2-0.5-0.3-0.5c-0.6-0.2-2-0.6-3.1-0.8 c-1-0.2-2.2-0.2-3.5-0.2c-2 0-3.7 0.3-5.2 1c-1.5 0.7-2.8 1.6-3.8 2.7c-1 1.1-1.8 2.5-2.3 4c-0.5 1.5-0.8 3.2-0.8 5 c0 3.9 1 7 3.1 9.3c2.1 2.3 5.2 3.5 9.2 3.5c2.4 0 4.8-0.5 6.6-1.2c0 0 0.3-0.2 0.2-0.6L219.9 97.3z" class="style2"/><path d="M243.7 83.5c-0.4-1.5-1.4-3-2-3.7c-1-1.1-2-1.9-3-2.3 c-1.3-0.6-2.8-0.9-4.5-0.9c-2 0-3.8 0.3-5.2 1c-1.5 0.7-2.7 1.6-3.6 2.8c-1 1.2-1.7 2.5-2.1 4.1c-0.5 1.6-0.7 3.2-0.7 5 c0 1.8 0.2 3.5 0.7 5c0.5 1.5 1.2 2.9 2.3 4c1 1.1 2.4 2 4 2.6c1.6 0.6 3.5 0.9 5.7 0.9c4.6 0 7-1 7.9-1.6 c0.2-0.1 0.3-0.3 0.1-0.8l-1-2.9c-0.2-0.4-0.6-0.3-0.6-0.3c-1.1 0.4-2.7 1.2-6.5 1.2c-2.4 0-4.3-0.7-5.4-1.9 c-1.2-1.2-1.7-2.9-1.8-5.2l15.8 0c0 0 0.4 0 0.5-0.4C244.2 90.2 244.7 87.1 243.7 83.5z M228 86.8c0.2-1.5 0.6-2.7 1.3-3.7 c1-1.5 2.4-2.3 4.5-2.3c2.1 0 3.4 0.8 4.4 2.3c0.7 1 0.9 2.3 1 3.7L228 86.8z" class="style2"/><path d="M117.4 83.5c-0.4-1.5-1.4-3-2-3.7c-1-1.1-2-1.9-3-2.3 c-1.3-0.6-2.8-0.9-4.5-0.9c-2 0-3.8 0.3-5.2 1c-1.5 0.7-2.7 1.6-3.6 2.8c-1 1.2-1.7 2.5-2.1 4.1c-0.5 1.6-0.7 3.2-0.7 5 c0 1.8 0.2 3.5 0.7 5c0.5 1.5 1.2 2.9 2.3 4c1 1.1 2.4 2 4 2.6c1.6 0.6 3.5 0.9 5.7 0.9c4.6 0 7-1 7.9-1.6 c0.2-0.1 0.3-0.3 0.1-0.8l-1-2.9c-0.2-0.4-0.6-0.3-0.6-0.3c-1.1 0.4-2.7 1.2-6.5 1.2c-2.4 0-4.3-0.7-5.4-1.9 c-1.2-1.2-1.7-2.9-1.8-5.2l15.8 0c0 0 0.4 0 0.5-0.4C117.9 90.2 118.4 87.1 117.4 83.5z M101.7 86.8c0.2-1.5 0.6-2.7 1.3-3.7 c1-1.5 2.4-2.3 4.5-2.3c2.1 0 3.4 0.8 4.4 2.3c0.6 1 0.9 2.3 1 3.7L101.7 86.8z" class="style2"/><path d="M73.9 86.1c-0.6 0-1.5-0.1-2.5-0.1c-1.4 0-2.7 0.2-3.9 0.5c-1.2 0.3-2.3 0.8-3.3 1.5 c-1 0.7-1.7 1.6-2.3 2.6c-0.6 1-0.8 2.3-0.8 3.6c0 1.4 0.2 2.6 0.7 3.6c0.5 1 1.2 1.8 2.1 2.5c0.9 0.6 2 1.1 3.2 1.4 c1.2 0.3 2.6 0.4 4.2 0.4c1.6 0 3.2-0.1 4.8-0.4c1.5-0.3 3.4-0.6 4-0.8c0.5-0.1 1.1-0.3 1.1-0.3c0.4-0.1 0.4-0.5 0.4-0.5l0-14.4 c0-3.2-0.8-5.5-2.5-7c-1.7-1.4-4.1-2.2-7.2-2.2c-1.2 0-3.1 0.2-4.2 0.4c0 0-3.4 0.7-4.9 1.8c0 0-0.3 0.2-0.1 0.6l1.1 3 c0.1 0.4 0.5 0.3 0.5 0.3s0.1 0 0.3-0.1c3-1.6 6.9-1.6 6.9-1.6c1.7 0 3 0.3 3.9 1c0.9 0.7 1.3 1.7 1.3 3.8v0.7 C75.1 86.2 73.9 86.1 73.9 86.1z M67.6 97.2c-0.6-0.5-0.7-0.6-0.9-0.9c-0.3-0.5-0.5-1.2-0.5-2.1c0-1.4 0.5-2.4 1.4-3.1 c0 0 1.4-1.2 4.6-1.1c2.3 0 4.3 0.4 4.3 0.4v7.2h0c0 0-2 0.4-4.3 0.6C69 98.3 67.6 97.2 67.6 97.2z" class="style1"/><path d="M201.1 78c0.1-0.4-0.1-0.5-0.2-0.6c-0.3-0.1-1.6-0.4-2.6-0.4 c-2-0.1-3.1 0.2-4.1 0.7c-1 0.4-2.1 1.2-2.7 2l0-1.9c0-0.3-0.2-0.5-0.5-0.5h-4c-0.3 0-0.5 0.2-0.5 0.5v23.5 c0 0.3 0.2 0.5 0.5 0.5h4.1c0.3 0 0.5-0.2 0.5-0.5V89.4c0-1.6 0.2-3.2 0.5-4.1c0.3-1 0.8-1.8 1.4-2.3c0.6-0.6 1.2-1 1.9-1.2 c0.7-0.2 1.5-0.3 2.1-0.3c0.8 0 1.7 0.2 1.7 0.2c0.3 0 0.5-0.2 0.6-0.4C200.2 80.5 201 78.4 201.1 78z" class="style2"/><path d="M162.2 67c-0.5-0.2-1-0.3-1.6-0.4c-0.6-0.1-1.3-0.2-2.1-0.2 c-2.9 0-5.1 0.8-6.7 2.4c-1.6 1.6-2.6 4-3.2 7.2l-0.2 1.1h-3.6c0 0-0.4 0-0.5 0.5l-0.6 3.3c0 0.3 0.1 0.5 0.5 0.5h3.5l-3.5 19.7 c-0.3 1.6-0.6 2.9-0.9 3.9c-0.3 1-0.7 1.7-1.1 2.2c-0.4 0.5-0.8 0.9-1.4 1.1c-0.5 0.2-1.2 0.3-1.9 0.3c-0.4 0-0.9-0.1-1.3-0.1 c-0.4-0.1-0.6-0.2-0.9-0.3c0 0-0.4-0.2-0.6 0.3c-0.1 0.3-1.1 2.9-1.2 3.2c-0.1 0.3 0 0.6 0.2 0.6c0.5 0.2 0.8 0.3 1.4 0.4 c0.9 0.2 1.6 0.2 2.3 0.2c1.5 0 2.8-0.2 3.9-0.6c1.1-0.4 2.1-1.1 2.9-2c0.9-1 1.5-2.1 2-3.5c0.5-1.4 1-3.2 1.4-5.3l3.6-20.1h5.2 c0 0 0.4 0 0.5-0.5l0.6-3.3c0-0.3-0.1-0.5-0.5-0.5h-5c0-0.1 0.3-1.9 0.8-3.6c0.2-0.7 0.7-1.3 1.1-1.7c0.4-0.4 0.8-0.7 1.3-0.8 c0.5-0.2 1.1-0.2 1.7-0.2c0.5 0 0.9 0.1 1.3 0.1c0.5 0.1 0.7 0.2 0.8 0.2c0.5 0.2 0.6 0 0.7-0.2l1.2-3.3 C162.6 67.2 162.3 67.1 162.2 67z" class="style2"/><path d="M91.7 101.2c0 0.3-0.2 0.5-0.5 0.5h-4.2c-0.3 0-0.5-0.2-0.5-0.5 V67.5c0-0.3 0.2-0.5 0.5-0.5h4.2c0.3 0 0.5 0.2 0.5 0.5V101.2z" class="style2"/></g></g></g></svg>
