<svg width="32" height="32" xmlns="http://www.w3.org/2000/svg" xmlns:xlink="http://www.w3.org/1999/xlink"><g fill="none" fill-rule="evenodd"><path fill="#FAFBFC" d="M-517-2H31v28h-548z"/><circle fill="#0577DA" cx="16" cy="16" r="16"/><path d="M6.544 16.228c0 4.077 2.644 7.536 6.31 8.756.462.085.63-.2.63-.445 0-.22-.007-.8-.012-1.57-2.567.557-3.108-1.238-3.108-1.238-.42-1.066-1.025-1.35-1.025-1.35-.84-.573.06-.56.06-.56.928.064 1.415.95 1.415.95.824 1.41 2.16 1.003 2.686.767.085-.598.323-1.004.586-1.235-2.05-.233-4.203-1.024-4.203-4.56 0-1.008.36-1.832.95-2.477-.095-.234-.41-1.173.09-2.443 0 0 .776-.248 2.538.946.737-.204 1.527-.306 2.31-.31.785.004 1.574.106 2.31.31 1.763-1.193 2.537-.945 2.537-.945.503 1.27.186 2.21.092 2.442.59.644.947 1.468.947 2.476 0 3.544-2.157 4.324-4.213 4.553.332.284.626.847.626 1.708 0 1.234-.01 2.23-.01 2.53 0 .248.166.535.635.445C22.358 23.76 25 20.302 25 16.227 25 11.132 20.868 7 15.77 7c-5.094 0-9.226 4.132-9.226 9.228z" fill="#FFF"/></g></svg>
