<svg width="32" height="32" xmlns="http://www.w3.org/2000/svg" xmlns:xlink="http://www.w3.org/1999/xlink"><g fill="none" fill-rule="evenodd"><path fill="#FAFBFC" d="M-475-2H73v28h-548z"/><circle fill="#0577DA" cx="16" cy="16" r="16"/><path d="M24.962 10.795c-.618.275-1.283.462-1.98.545.71-.428 1.258-1.107 1.516-1.915-.667.396-1.405.685-2.19.84-.63-.673-1.527-1.094-2.52-1.094-1.905 0-3.45 1.553-3.45 3.465 0 .27.03.536.09.79-2.867-.145-5.41-1.524-7.11-3.62-.298.513-.468 1.107-.468 1.742 0 1.2.61 2.26 1.535 2.882-.566-.02-1.098-.175-1.563-.434v.044c0 1.676 1.19 3.076 2.767 3.394-.29.08-.596.12-.91.12-.223 0-.44-.02-.65-.06.44 1.375 1.713 2.376 3.223 2.404-1.18.93-2.668 1.482-4.285 1.482-.28 0-.554-.016-.824-.048 1.527.982 3.34 1.556 5.29 1.556 6.345 0 9.815-5.277 9.815-9.853 0-.15-.003-.3-.01-.447.674-.49 1.26-1.1 1.72-1.793" fill="#FFF"/></g></svg>
