<svg width="32" height="32" xmlns="http://www.w3.org/2000/svg" xmlns:xlink="http://www.w3.org/1999/xlink"><g fill="none" fill-rule="evenodd"><path fill="#FAFBFC" d="M-433-2h548v28h-548z"/><circle fill="#0577DA" cx="16" cy="16" r="16"/><path d="M16.03 25.098c-4.98 0-9.03-4.06-9.03-9.05C7 11.06 11.05 7 16.03 7c4.98 0 9.03 4.06 9.03 9.05 0 4.99-4.05 9.048-9.03 9.048zm7.615-7.81c-.264-.083-2.387-.718-4.804-.33 1.01 2.778 1.42 5.04 1.5 5.51 1.73-1.172 2.96-3.03 3.306-5.18zm-4.602 5.888c-.115-.678-.563-3.04-1.646-5.86-.017.004-.034.01-.05.016-4.35 1.52-5.913 4.542-6.05 4.827 1.306 1.02 2.95 1.63 4.733 1.63 1.068 0 2.087-.22 3.013-.615zM10.3 21.23c.174-.3 2.29-3.813 6.27-5.1.1-.034.2-.065.303-.093-.194-.44-.404-.88-.625-1.312-3.852 1.155-7.59 1.107-7.927 1.1l-.002.236c0 1.987.75 3.8 1.983 5.17zm-1.82-6.752c.345.005 3.523.018 7.13-.942-1.278-2.276-2.656-4.19-2.86-4.47-2.157 1.02-3.77 3.013-4.27 5.412zm5.742-5.932c.214.287 1.614 2.198 2.878 4.525 2.743-1.03 3.904-2.592 4.043-2.79-1.363-1.213-3.153-1.95-5.113-1.95-.622 0-1.228.074-1.808.214zM22 11.173c-.162.22-1.455 1.88-4.307 3.048.18.37.352.744.512 1.12l.166.4c2.57-.323 5.118.195 5.373.25-.017-1.825-.668-3.5-1.742-4.816z" fill="#FFF"/></g></svg>
