<svg width="32" height="32" viewBox="0 0 32 32" xmlns="http://www.w3.org/2000/svg" xmlns:xlink="http://www.w3.org/1999/xlink"><defs><path id="a" d="M10.61 31.183c.777.147 1.06-.347 1.06-.77 0-.382-.013-1.387-.02-2.722-4.317.97-5.227-2.142-5.227-2.142-.706-1.848-1.723-2.34-1.723-2.34-1.41-.993.106-.973.106-.973 1.558.113 2.377 1.65 2.377 1.65 1.385 2.444 3.632 1.738 4.515 1.328.14-1.033.542-1.737.985-2.14-3.445-.402-7.067-1.774-7.067-7.905 0-1.747.605-3.176 1.597-4.294-.16-.404-.69-2.03.153-4.233 0 0 1.303-.43 4.266 1.64 1.238-.354 2.565-.532 3.884-.54 1.318.008 2.645.186 3.885.54 2.965-2.07 4.267-1.64 4.267-1.64.845 2.203.313 3.83.154 4.235.994 1.12 1.594 2.548 1.594 4.295 0 6.145-3.627 7.5-7.083 7.894.557.493 1.05 1.47 1.05 2.962 0 2.14-.016 3.865-.016 4.39 0 .428.28.925 1.067.77 6.16-2.12 10.6-8.114 10.6-15.18C31.03 7.162 24.086 0 15.516 0 6.947 0 0 7.164 0 16c0 7.07 4.445 13.067 10.61 15.183z"/></defs><g fill="none" fill-rule="evenodd"><use fill="#0577DA" xlink:href="#a"/><use xlink:href="#a"/></g></svg>
