<?xml version="1.0"?><svg xmlns="http://www.w3.org/2000/svg" width="52" height="52" viewBox="0 0 52 52"><g fill="#fff"><path d="m39.2 36.8l3.2-3.2c0.1-0.1 0.1-0.4 0-0.5l-0.5-0.5c-0.1-0.1-0.4-0.1-0.5 0l-3.2 3.2c-0.1 0.1-0.2 0.1-0.3 0l-3.2-3.2c-0.1-0.1-0.4-0.1-0.5 0l-0.5 0.5c-0.1 0.1-0.1 0.4 0 0.5l3.2 3.2c0.1 0.1 0.1 0.2 0 0.3l-3.2 3.2c-0.1 0.1-0.1 0.4 0 0.5l0.5 0.5c0.1 0.1 0.4 0.1 0.5 0l3.2-3.2c0.1-0.1 0.2-0.1 0.3 0l3.2 3.2c0.1 0.1 0.4 0.1 0.5 0l0.5-0.5c0.1-0.1 0.1-0.4 0-0.5l-3.2-3.2c-0.1-0.1-0.1-0.2 0-0.3z m-1.3-11.9c-6.6 0-12 5.4-12 12s5.4 12 12 12 12-5.4 12-12-5.4-12-12-12z m-16 12.2c0-2.7 0.9-5.8 2.3-8.2 1.7-3 3.6-4.2 5.1-6.4 2.5-3.7 3-9 1.4-13-1.6-4.1-5.4-6.5-9.8-6.4s-8 2.8-9.4 6.9c-1.6 4.5-0.9 9.9 2.7 13.3 1.5 1.4 2.9 3.6 2.1 5.7-0.7 2-3.1 2.9-4.8 3.7-3.9 1.7-8.6 4.1-9.4 8.7-0.8 3.8 1.8 7.7 5.9 7.7h17c0.8 0 1.3-1 0.8-1.6-2.5-2.9-3.9-6.6-3.9-10.4z"></path></g></svg>