<?xml version="1.0"?><svg xmlns="http://www.w3.org/2000/svg" width="52" height="52" viewBox="0 0 52 52"><g fill="#fff"><path d="m23.4 26.6c0.6 0.6 1.4 0.6 2 0l21.4-19.7c0.4-0.7 0.3-1.9-1.2-1.9h-42.2c-1.1 0-2 1.1-1.2 2l21.2 19.6z m6.7 11c0.5-5.6 5-10.2 10.7-10.8 0.5 0 1-0.1 1.4-0.1 1.8 0 3.4 0.4 4.9 1v-12.4c0-1-1.2-1.5-1.9-0.8l-16.6 15.4c-1.1 1-2.6 1.6-4.1 1.6s-3-0.6-4.1-1.6l-16.6-15.4c-0.8-0.7-1.9-0.2-1.9 0.8v19.6c0 2.5 2.1 4.6 4.6 4.6h23.7c-0.1-0.6-0.1-1.3-0.1-1.9z m12-6.6c-4.4 0-8 3.6-8 8s3.6 8 8 8 8-3.6 8-8-3.6-8-8-8z m4 8.6c0 0.2-0.2 0.4-0.5 0.4h-7c-0.3 0-0.5-0.2-0.5-0.4v-1.1c0-0.2 0.2-0.4 0.5-0.4h7c0.3 0 0.5 0.2 0.5 0.4v1.1z"></path></g></svg>