<?xml version="1.0" encoding="UTF-8" standalone="no"?>
<svg width="287px" height="275px" viewBox="0 0 287 275" version="1.1" xmlns="http://www.w3.org/2000/svg" xmlns:xlink="http://www.w3.org/1999/xlink" xmlns:sketch="http://www.bohemiancoding.com/sketch/ns">
    <!-- Generator: Sketch 3.3.3 (12081) - http://www.bohemiancoding.com/sketch -->
    <title>record + Rectangle 564 Copy</title>
    <desc>Created with Sketch.</desc>
    <defs></defs>
    <g id="Page-1" stroke="none" stroke-width="1" fill="none" fill-rule="evenodd" sketch:type="MSPage">
        <g id="navigation" sketch:type="MSArtboardGroup" transform="translate(-886.000000, -1025.000000)">
            <g id="record-+-Rectangle-564-Copy" sketch:type="MSLayerGroup" transform="translate(886.000000, 1025.000000)">
                <g id="record" sketch:type="MSShapeGroup">
                    <rect id="bkgd" stroke="#E1E6EF" fill="#FFFFFF" x="0" y="11.6502034" width="286.747837" height="262.820968"></rect>
                    <path d="M18.5,87.5 L187.5,86.5" id="Line" stroke="#E1E6EF" stroke-linecap="square"></path>
                    <rect id="Rectangle-553" stroke="#E0E5EE" fill="#F7F9FB" x="12.2766658" y="12.2766658" width="274.471171" height="56.1219008"></rect>
                    <g id="Component---Top-Bar-Copy-12">
                        <rect id="Background" stroke="#E1E6EF" fill="#FFFFFF" x="0" y="0" width="286.747837" height="13.2185"></rect>
                        <path d="M20.7326568,3.8787883 C21.0890386,3.5075133 21.5851381,3.2771449 22.1338749,3.2771449 C22.8632079,3.2771449 23.4996452,3.68387106 23.8384527,4.28775955 C24.1330679,4.15613269 24.4590047,4.08287836 24.8019599,4.08287836 C26.1175087,4.08287836 27.1840457,5.15883604 27.1840457,6.48613775 C27.1840457,7.81346083 26.1175087,8.88939713 24.8019599,8.88939713 C24.6413326,8.88939713 24.4844254,8.87327519 24.3326922,8.84265634 C24.0343355,9.37493691 23.4655229,9.73460154 22.8128582,9.73460154 C22.5396657,9.73460154 22.2811826,9.67154637 22.0510278,9.55924873 C21.7485661,10.2709661 21.0436063,10.7699764 20.2222541,10.7699764 C19.3667369,10.7699764 18.6375749,10.2286727 18.3578401,9.46944482 C18.2354829,9.49529552 18.1087214,9.50891578 17.9787529,9.50891578 C16.9601924,9.50891578 16.1345215,8.67455198 16.1345215,7.64529233 C16.1345215,6.95549144 16.5054203,6.35324935 17.0567227,6.03100301 C16.9431954,5.76975917 16.8801888,5.48157417 16.8801888,5.17861428 C16.8801888,3.99482777 17.8410021,3.03518753 19.0262618,3.03518753 C19.7221352,3.03518753 20.3405278,3.36605077 20.7326568,3.8787883" id="Fill-1-Copy" fill="#1AA2DD"></path>
                    </g>
                    <g id="Component---Left-Bar---Expanded-Copy-16" transform="translate(0.000000, 0.224042)" fill="#16325C">
                        <rect id="BG" x="0" y="0" width="12.7692396" height="274.149638"></rect>
                    </g>
                    <g id="Group-19-Copy-7" transform="translate(17.499464, 79.682934)">
                        <rect id="Rectangle-827" stroke="#E1E6EF" fill="#FFFFFF" x="183" y="0" width="80.6478292" height="82" rx="2"></rect>
                        <rect id="Rectangle-224-Copy-25" fill="#CFD7E5" x="39.8361356" y="1" width="19.026979" height="1.98789333" rx="4"></rect>
                        <rect id="Rectangle-224-Copy-20" fill="#A8B8D0" x="5.75796426" y="1" width="19.026979" height="1.98789333" rx="4"></rect>
                        <rect id="Rectangle-224-Copy-24" fill="#CFD7E5" x="73.9143069" y="1" width="19.026979" height="1.98789333" rx="4"></rect>
                        <path d="M0.65453552,7.11684451 L0.65453552,8.03588983 L29.8413038,7.91904532 L29.8413038,7 L0.65453552,7.11684451 Z" id="Active-4-Copy-3" fill="#0070D2"></path>
                        <rect id="Rectangle-827-Copy" stroke="#E1E6EF" fill="#FFFFFF" x="183" y="88" width="80.6478292" height="71" rx="2"></rect>
                        <rect id="Rectangle-827-Copy-2" stroke="#E1E6EF" fill="#FFFFFF" x="183" y="166" width="80.6478292" height="29" rx="2"></rect>
                    </g>
                    <path d="M195.111296,67.9433232 L195.111296,274.032726" id="Line-Copy-2" stroke="#E1E6EF" stroke-linecap="square"></path>
                    <g id="Wide---With-Pic-Copy" transform="translate(18.481794, 97.608015)" stroke="#E0E5EE" fill="#FFFFFF">
                        <path d="M3.99919833,2.97830326e-15 C1.79050208,2.97830326e-15 0,1.79055058 0,3.99002419 L0,30.2092591 C0,32.4128886 1.79686215,34.1992833 3.99919833,34.1992833 L166.25733,34.1992833 C168.466026,34.1992833 170.256528,32.4087327 170.256528,30.2092591 L170.256528,3.99002419 C170.256528,1.78639468 168.459666,2.97830326e-15 166.25733,2.97830326e-15 L3.99919833,2.97830326e-15 Z" id="Rectangle-19"></path>
                        <path d="M3.99919833,40.3376162 C1.79050208,40.3376162 0,42.1360814 0,44.3340835 L0,83.6940028 C0,85.9011907 1.79686215,87.69047 3.99919833,87.69047 L166.25733,87.69047 C168.466026,87.69047 170.256528,85.8920049 170.256528,83.6940028 L170.256528,44.3340835 C170.256528,42.1268956 168.459666,40.3376162 166.25733,40.3376162 L3.99919833,40.3376162 Z" id="Rectangle-19-Copy-2"></path>
                        <path d="M3.99919833,93.8288029 C1.79050208,93.8288029 0,95.6108561 0,97.827439 L0,159.105638 C0,161.314024 1.79686215,163.104274 3.99919833,163.104274 L166.25733,163.104274 C168.466026,163.104274 170.256528,161.322221 170.256528,159.105638 L170.256528,97.827439 C170.256528,95.6190533 168.459666,93.8288029 166.25733,93.8288029 L3.99919833,93.8288029 Z" id="Rectangle-19-Copy-3"></path>
                    </g>
                </g>
                <rect id="Rectangle-564-Copy" stroke="#2ECBBE" fill-opacity="0.05" fill="#2ECBBE" sketch:type="MSShapeGroup" x="15" y="72" width="177" height="22"></rect>
            </g>
        </g>
    </g>
</svg>