<?xml version="1.0" encoding="UTF-8" standalone="no"?>
<svg width="450px" height="437px" viewBox="0 0 450 437" version="1.1" xmlns="http://www.w3.org/2000/svg" xmlns:xlink="http://www.w3.org/1999/xlink" xmlns:sketch="http://www.bohemiancoding.com/sketch/ns">
    <!-- Generator: Sketch 3.3.3 (12081) - http://www.bohemiancoding.com/sketch -->
    <title>bkgd + Modal1</title>
    <desc>Created with Sketch.</desc>
    <defs>
        <rect id="path-1" x="0" y="0" width="270.538642" height="281" rx="4"></rect>
        <rect id="path-3" x="0" y="0" width="270.538642" height="36.056338" rx="4"></rect>
        <path d="M64.2866216,15.7851668 C64.8882903,15.2943076 65.6576702,15 66.4993402,15 L202.50066,15 C204.433292,15 206,16.5709366 206,18.5 C206,20.4329966 204.44278,22 202.50066,22 L66.4993402,22 C65.8568647,22 65.2548287,21.8263905 64.7373472,21.5237285 C63.477374,21.1320141 62.5620609,19.9525921 62.5620609,18.5633803 C62.5620609,17.3453932 63.2681344,16.2915406 64.2866216,15.7851668 Z" id="path-5"></path>
    </defs>
    <g id="Page-1" stroke="none" stroke-width="1" fill="none" fill-rule="evenodd" sketch:type="MSPage">
        <g id="navigation" sketch:type="MSArtboardGroup" transform="translate(-297.000000, -3503.000000)">
            <g id="bkgd-+-Modal1" sketch:type="MSLayerGroup" transform="translate(297.000000, 3503.000000)">
                <rect id="bkgd" fill="#D3DCE7" sketch:type="MSShapeGroup" x="0" y="0" width="450" height="437"></rect>
                <g id="Modal1" transform="translate(89.000000, 64.000000)">
                    <g id="Modal-Copy-2">
                        <g id="Container" transform="translate(0.867291, 24.915493)">
                            <mask id="mask-2" sketch:name="Rectangle 451" fill="white">
                                <use xlink:href="#path-1"></use>
                            </mask>
                            <use id="Rectangle-451" fill="#FFFFFF" sketch:type="MSShapeGroup" xlink:href="#path-1"></use>
                            <g id="Bottom" transform="translate(0.000000, 246.971831)">
                                <mask id="mask-4" sketch:name="Rectangle 453" fill="white">
                                    <use xlink:href="#path-3"></use>
                                </mask>
                                <use id="Rectangle-453" fill="#F7F9FB" sketch:type="MSShapeGroup" xlink:href="#path-3"></use>
                                <g id="Save-Button" mask="url(#mask-4)" fill="#D3DCE7" sketch:type="MSShapeGroup">
                                    <g transform="translate(209.667447, 7.887324)" id="Rectangle-153">
                                        <rect x="0" y="0" width="52.980484" height="20.2816901" rx="3"></rect>
                                    </g>
                                </g>
                                <g id="Cancel-Button" mask="url(#mask-4)" stroke="#E1E6EF" fill="#FFFFFF" sketch:type="MSShapeGroup">
                                    <g transform="translate(143.723653, 6.887324)" id="Rectangle-153">
                                        <rect x="0" y="1" width="59.1803279" height="20.2816901" rx="3"></rect>
                                    </g>
                                </g>
                            </g>
                            <path d="M0.632701338,246.521127 L269.632714,246.521127" id="Line-2" stroke="#F0F2F7" stroke-linecap="square" sketch:type="MSShapeGroup"></path>
                            <g id="Top" transform="translate(0.563622, 10.957746)" stroke="#F0F2F7" stroke-linecap="square" sketch:type="MSShapeGroup">
                                <path d="M0,26.5 L269.411397,26.5" id="Line"></path>
                            </g>
                            <mask id="mask-6" sketch:name="Mask" fill="white">
                                <use xlink:href="#path-5"></use>
                            </mask>
                            <use id="Mask" fill="#B8C4D2" sketch:type="MSShapeGroup" xlink:href="#path-5"></use>
                        </g>
                        <path d="M267.089329,5.65604151 L270.978618,1.76842105 C271.152451,1.59466271 271.152451,1.31297257 270.978618,1.13921423 L270.349735,0.510600445 C270.175902,0.336842105 269.894091,0.336842105 269.720258,0.510600445 L265.830968,4.3982209 C265.715277,4.51386212 265.527205,4.51386212 265.411514,4.3982209 L261.522225,0.510600445 C261.348392,0.336842105 261.066581,0.336842105 260.892748,0.510600445 L260.263864,1.13921423 C260.090031,1.31297257 260.090031,1.59466271 260.263864,1.76842105 L264.153154,5.65604151 C264.268845,5.77168273 264.268845,5.95967383 264.153154,6.07531505 L260.263864,9.96293551 C260.090031,10.1366938 260.090031,10.418384 260.263864,10.5921423 L260.892748,11.2207561 C261.066581,11.3945145 261.348392,11.3945145 261.522225,11.2207561 L265.411514,7.33313566 C265.527205,7.21749444 265.715277,7.21749444 265.830968,7.33313566 L269.720258,11.2207561 C269.894091,11.3945145 270.175902,11.3945145 270.349735,11.2207561 L270.978618,10.5921423 C271.152451,10.418384 271.152451,10.1366938 270.978618,9.96293551 L267.089329,6.07531505 C266.973638,5.95967383 266.973638,5.77168273 267.089329,5.65604151" id="Imported-Layers" fill="#FFFFFF" sketch:type="MSShapeGroup"></path>
                    </g>
                    <g id="Group-Copy-22" transform="translate(16.830601, 83.901408)" fill="#D3DCE7" sketch:type="MSShapeGroup">
                        <rect id="Rectangle-777" x="49" y="0" width="70" height="3" rx="2"></rect>
                        <rect id="Rectangle-777-Copy-7" x="0" y="0" width="41" height="3" rx="2"></rect>
                        <rect id="Rectangle-777-Copy" x="127" y="0" width="112" height="3" rx="2"></rect>
                        <rect id="Rectangle-777" x="0" y="10" width="82.7370647" height="3" rx="2"></rect>
                        <rect id="Rectangle-777-Copy" x="91.2992203" y="10" width="56.2369962" height="3" rx="2"></rect>
                        <rect id="Rectangle-777-Copy-2" x="156.432334" y="10" width="82.7370647" height="3" rx="2"></rect>
                        <rect id="Rectangle-777-Copy-5" x="9.09494702e-13" y="19.8760421" width="58.5216151" height="3" rx="2"></rect>
                        <rect id="Rectangle-777-Copy-3" x="64.5778026" y="19.8760421" width="55.0791672" height="3" rx="2"></rect>
                        <rect id="Rectangle-777-Copy-4" x="125.903034" y="19.8760421" width="43.2663647" height="3" rx="2"></rect>
                        <rect id="Rectangle-777-Copy-6" x="177.903034" y="19.8760421" width="61.1693989" height="3" rx="2"></rect>
                    </g>
                    <g id="Group-Copy-23" transform="translate(16.830601, 113.901408)" fill="#D3DCE7" sketch:type="MSShapeGroup">
                        <rect id="Rectangle-777" x="0" y="0" width="148" height="3" rx="2"></rect>
                        <rect id="Rectangle-777-Copy" x="156" y="0" width="83" height="3" rx="2"></rect>
                        <rect id="Rectangle-777" x="0" y="10" width="82.7370647" height="3" rx="2"></rect>
                        <rect id="Rectangle-777-Copy" x="91.2992203" y="10" width="77.8701786" height="3" rx="2"></rect>
                        <rect id="Rectangle-777-Copy-2" x="178" y="10" width="61.1693989" height="3" rx="2"></rect>
                        <rect id="Rectangle-777-Copy-5" x="9.09494702e-13" y="19.8760421" width="58.5216151" height="3" rx="2"></rect>
                        <rect id="Rectangle-777-Copy-3" x="64.5778026" y="19.8760421" width="55.0791672" height="3" rx="2"></rect>
                        <rect id="Rectangle-777-Copy-4" x="125.903034" y="19.8760421" width="65.0969658" height="3" rx="2"></rect>
                        <rect id="Rectangle-777-Copy-6" x="199" y="19.8760421" width="40.0724331" height="3" rx="2"></rect>
                    </g>
                    <g id="Group-Copy-24" transform="translate(16.830601, 143.901408)" fill="#D3DCE7" sketch:type="MSShapeGroup">
                        <rect id="Rectangle-777" x="78" y="0" width="41" height="3" rx="2"></rect>
                        <rect id="Rectangle-777-Copy-8" x="0" y="0" width="70" height="3" rx="2"></rect>
                        <rect id="Rectangle-777-Copy" x="127" y="0" width="112" height="3" rx="2"></rect>
                        <rect id="Rectangle-777" x="0" y="10" width="82.7370647" height="3" rx="2"></rect>
                        <rect id="Rectangle-777-Copy" x="91.2992203" y="10" width="77.8701786" height="3" rx="2"></rect>
                        <rect id="Rectangle-777-Copy-2" x="178" y="10" width="61.1693989" height="3" rx="2"></rect>
                        <rect id="Rectangle-777-Copy-5" x="9.09494702e-13" y="19.8760421" width="58.5216151" height="3" rx="2"></rect>
                        <rect id="Rectangle-777-Copy-3" x="64.5778026" y="19.8760421" width="55.0791672" height="3" rx="2"></rect>
                    </g>
                </g>
            </g>
        </g>
    </g>
</svg>