<svg width="650" height="229" xmlns="http://www.w3.org/2000/svg"><g transform="translate(-1 -1)" fill="none" fill-rule="evenodd"><path stroke="#E9EDF3" fill="#FFF" d="M1 1h650v229H1z"/><rect fill="#A8B8D0" x="142.047" y="32.575" width="66.085" height="6.91" rx="4"/><rect fill="#A8B8D0" x="23.686" y="32.575" width="66.085" height="6.91" rx="4"/><rect fill="#CFD7E5" x="23.686" y="91.803" width="118.361" height="6.91" rx="4"/><rect fill="#EEF1F6" x="23.686" y="111.545" width="212.064" height="6.91" rx="4"/><rect fill="#CFD7E5" x="23.686" y="160.901" width="85.812" height="6.91" rx="4"/><rect fill="#EEF1F6" x="23.686" y="180.644" width="168.665" height="6.91" rx="4"/><rect fill="#CFD7E5" x="339.316" y="91.803" width="118.361" height="6.91" rx="4"/><rect fill="#EEF1F6" x="339.316" y="111.545" width="212.064" height="6.91" rx="4"/><rect fill="#CFD7E5" x="339.316" y="160.901" width="85.812" height="6.91" rx="4"/><rect fill="#EEF1F6" x="339.316" y="180.644" width="168.665" height="6.91" rx="4"/><rect fill="#16325C" x="260.408" y="32.575" width="66.085" height="6.91" rx="4"/><path d="M1.5 53.5h649" stroke="#E1E6EF" stroke-linecap="square"/><path d="M244.5 52h103" stroke="#0070D2" stroke-width="2" stroke-linecap="square"/></g></svg>