<svg width="341" height="11" xmlns="http://www.w3.org/2000/svg"><g fill="none" fill-rule="evenodd"><path d="M63.45 5.57c.014-.333-.102-.672-.345-.927l-3.458-3.405c-.462-.485-1.212-.485-1.674 0-.462.484-.462 1.27 0 1.754l2.62 2.58-2.62 2.596c-.462.486-.462 1.273 0 1.76.462.484 1.212.484 1.674 0L63.105 6.5c.243-.255.36-.594.346-.93zm150 0c.014-.333-.102-.672-.345-.927l-3.458-3.405c-.462-.485-1.212-.485-1.674 0-.462.484-.462 1.27 0 1.754l2.62 2.58-2.62 2.596c-.462.486-.462 1.273 0 1.76.462.484 1.212.484 1.674 0l3.458-3.427c.243-.252.36-.59.346-.93z" fill="#B9C2CE"/><circle fill="#A5B1BE" cx="37.5" cy="5.5" r="3.5"/><circle fill="#A5B1BE" cx="20.5" cy="5.5" r="3.5"/><circle fill="#A5B1BE" cx="3.5" cy="5.5" r="3.5"/><rect fill="#A5B1BE" x="80" y="2" width="111" height="7" rx="4"/><rect fill="#0070D2" x="230" y="2" width="111" height="7" rx="4"/></g></svg>