<svg width="287" height="275" xmlns="http://www.w3.org/2000/svg"><g fill="none" fill-rule="evenodd"><path stroke="#E1E6EF" fill="#FFF" d="M0 11.65h286.748v262.82H0z"/><path stroke="#E0E5EE" fill="#F7F9FB" d="M12.277 12.277h274.47V68.4H12.277z"/><path stroke="#E1E6EF" fill="#FFF" d="M0 0h286.748v13.22H0z"/><path d="M20.733 3.88c.356-.372.852-.603 1.4-.603.73 0 1.367.407 1.705 1.01.295-.13.62-.204.964-.204 1.316 0 2.382 1.076 2.382 2.403S26.118 8.89 24.802 8.89c-.16 0-.318-.017-.47-.047-.298.532-.866.892-1.52.892-.272 0-.53-.063-.76-.176-.303.71-1.008 1.21-1.83 1.21-.855 0-1.584-.54-1.864-1.3-.123.022-.25.04-.38.04-1.018 0-1.843-.838-1.843-1.868 0-.69.37-1.292.922-1.614-.114-.26-.177-.55-.177-.85 0-1.186.96-2.146 2.146-2.146.696 0 1.315.33 1.707.844" fill="#1AA2DD"/><path d="M0 .224h12.77v274.15H0z" fill="#16325C"/><g transform="translate(200.5 79.683)" stroke="#E1E6EF" fill="#FFF"><rect width="80.648" height="82" rx="2"/><rect y="88" width="80.648" height="71" rx="2"/><rect y="166" width="80.648" height="29" rx="2"/></g><path d="M195.11 67.943v206.09" stroke="#E1E6EF" stroke-linecap="square"/><g transform="translate(18.482 78.608)"><rect fill="#F7F9FB" x="23" y="1.728" width="147" height="9.477" rx="5"/><g transform="translate(0 .728)"><path d="M4 .272c-2.21 0-4 1.79-4 3.99v26.22c0 2.202 1.797 3.99 4 3.99h162.257c2.21 0 4-1.792 4-3.99V4.26c0-2.204-1.797-3.99-4-3.99H4z" stroke="#E0E5EE"/><path d="M145.642 18.714c-1.1 0-1.99.89-1.99 1.993v4.335c0 1.1.893 1.993 1.99 1.993h17.805c1.1 0 1.99-.89 1.99-1.993v-4.335c0-1.1-.894-1.993-1.99-1.993h-17.805z" fill="#D3DCE7"/><rect fill="#B8C4D2" x="52.741" y="5.118" width="10.493" height="1.618" rx="4"/><rect fill="#D3DCE7" x="5.714" y="22.412" width="75.785" height="1.618" rx="4"/><rect fill="#B8C4D2" x="5.552" y="5.118" width="10.493" height="1.618" rx="4"/><rect fill="#B8C4D2" x="30.212" y="5.118" width="10.493" height="1.618" rx="4"/><rect fill="#B8C4D2" x="77.43" y="5.118" width="10.493" height="1.618" rx="4"/></g><path d="M4 41.338c-2.21 0-4 1.798-4 3.996v39.36C0 86.9 1.797 88.69 4 88.69h162.257c2.21 0 4-1.798 4-3.996v-39.36c0-2.207-1.797-3.996-4-3.996H4zM4 94.83c-2.21 0-4 1.78-4 3.997v61.28c0 2.207 1.797 3.997 4 3.997h162.257c2.21 0 4-1.782 4-3.998v-61.28c0-2.207-1.797-3.997-4-3.997H4zm0 75c-2.21 0-4 1.798-4 4.002V196h170.257v-22.168c0-2.21-1.797-4.003-4-4.003H4z" stroke="#E0E5EE" fill="#FFF"/></g><path stroke="#2ECBBE" fill-opacity=".05" fill="#2ECBBE" d="M15 76h177v41H15z"/></g></svg>