<?xml version="1.0" encoding="UTF-8" standalone="no"?>
<svg width="450px" height="437px" viewBox="0 0 450 437" version="1.1" xmlns="http://www.w3.org/2000/svg" xmlns:xlink="http://www.w3.org/1999/xlink" xmlns:sketch="http://www.bohemiancoding.com/sketch/ns">
    <!-- Generator: Sketch 3.3.3 (12081) - http://www.bohemiancoding.com/sketch -->
    <title>Modal1 Copy</title>
    <desc>Created with Sketch.</desc>
    <defs>
        <rect id="path-1" x="0.538641686" y="0" width="410" height="258.028169" rx="4"></rect>
        <rect id="path-3" x="0" y="0" width="409.538642" height="36.056338" rx="4"></rect>
        <path d="M151.555162,117.70066 C152.156831,117.209801 152.92621,116.915493 153.76788,116.915493 L289.7692,116.915493 C291.701832,116.915493 293.26854,118.48643 293.26854,120.415493 C293.26854,122.34849 291.71132,123.915493 289.7692,123.915493 L153.76788,123.915493 C153.125405,123.915493 152.523369,123.741883 152.005887,123.439221 C150.745914,123.047507 149.830601,121.868085 149.830601,120.478873 C149.830601,119.260886 150.536675,118.207034 151.555162,117.70066 Z" id="path-5"></path>
    </defs>
    <g id="Page-1" stroke="none" stroke-width="1" fill="none" fill-rule="evenodd" sketch:type="MSPage">
        <g id="navigation" sketch:type="MSArtboardGroup" transform="translate(-782.000000, -4095.000000)">
            <g id="Modal1-Copy" sketch:type="MSLayerGroup" transform="translate(782.000000, 4095.000000)">
                <rect id="bkgd-copy-2" fill="#D3DCE7" sketch:type="MSShapeGroup" x="0" y="0" width="450" height="437"></rect>
                <g id="Modal-Copy-2" transform="translate(19.000000, 77.000000)">
                    <g id="Container" transform="translate(0.867291, 22.915493)">
                        <mask id="mask-2" sketch:name="Rectangle 451" fill="white">
                            <use xlink:href="#path-1"></use>
                        </mask>
                        <use id="Rectangle-451" fill="#FFFFFF" sketch:type="MSShapeGroup" xlink:href="#path-1"></use>
                        <g id="Bottom" transform="translate(1.000000, 221.971831)">
                            <mask id="mask-4" sketch:name="Rectangle 453" fill="white">
                                <use xlink:href="#path-3"></use>
                            </mask>
                            <use id="Rectangle-453" fill="#F7F9FB" sketch:type="MSShapeGroup" xlink:href="#path-3"></use>
                            <g id="Save-Button" mask="url(#mask-4)" fill="#D3DCE7" sketch:type="MSShapeGroup">
                                <g transform="translate(348.667447, 7.887324)" id="Rectangle-153">
                                    <rect x="0" y="0" width="52.980484" height="20.2816901" rx="3"></rect>
                                </g>
                            </g>
                            <g id="Cancel-Button" mask="url(#mask-4)" stroke="#E1E6EF" fill="#FFFFFF" sketch:type="MSShapeGroup">
                                <g transform="translate(282.723653, 7.887324)" id="Rectangle-153">
                                    <rect x="2.55795385e-13" y="-3.57047725e-13" width="59.1803279" height="20.2816901" rx="3"></rect>
                                </g>
                            </g>
                        </g>
                        <path d="M1.63270389,221.521127 L409.132897,221.521127" id="Line-2" stroke="#F0F2F7" stroke-linecap="square" sketch:type="MSShapeGroup"></path>
                        <g id="Top" transform="translate(1.563622, 12.957746)" stroke="#F0F2F7" stroke-linecap="square" sketch:type="MSShapeGroup">
                            <path d="M0.069066979,26.5 L408.411397,26.5" id="Line"></path>
                        </g>
                    </g>
                    <path d="M407.089329,5.65604151 L410.978618,1.76842105 C411.152451,1.59466271 411.152451,1.31297257 410.978618,1.13921423 L410.349735,0.510600445 C410.175902,0.336842105 409.894091,0.336842105 409.720258,0.510600445 L405.830968,4.3982209 C405.715277,4.51386212 405.527205,4.51386212 405.411514,4.3982209 L401.522225,0.510600445 C401.348392,0.336842105 401.066581,0.336842105 400.892748,0.510600445 L400.263864,1.13921423 C400.090031,1.31297257 400.090031,1.59466271 400.263864,1.76842105 L404.153154,5.65604151 C404.268845,5.77168273 404.268845,5.95967383 404.153154,6.07531505 L400.263864,9.96293551 C400.090031,10.1366938 400.090031,10.418384 400.263864,10.5921423 L400.892748,11.2207561 C401.066581,11.3945145 401.348392,11.3945145 401.522225,11.2207561 L405.411514,7.33313566 C405.527205,7.21749444 405.715277,7.21749444 405.830968,7.33313566 L409.720258,11.2207561 C409.894091,11.3945145 410.175902,11.3945145 410.349735,11.2207561 L410.978618,10.5921423 C411.152451,10.418384 411.152451,10.1366938 410.978618,9.96293551 L407.089329,6.07531505 C406.973638,5.95967383 406.973638,5.77168273 407.089329,5.65604151" id="Imported-Layers" fill="#FFFFFF" sketch:type="MSShapeGroup"></path>
                </g>
                <text id="90%" sketch:type="MSTextLayer" font-family="Salesforce Sans" font-size="12" font-weight="normal" fill="#16325C">
                    <tspan x="210" y="396">90%</tspan>
                </text>
                <path d="M21.4012314,377.5 L429.5,377.5" id="Line-Copy-31" stroke="#16325C" stroke-linecap="square" sketch:type="MSShapeGroup"></path>
                <path d="M20.5,371.5 L20.5,383.5" id="Line-Copy-6" stroke="#16325C" stroke-linecap="square" sketch:type="MSShapeGroup"></path>
                <path d="M429.5,371.5 L429.5,383.541595" id="Line-Copy-7" stroke="#16325C" stroke-linecap="square" sketch:type="MSShapeGroup"></path>
                <g id="Group-Copy-22" transform="translate(174.830601, 166.901408)" fill="#D3DCE7" sketch:type="MSShapeGroup">
                    <rect id="Rectangle-777" x="49" y="0" width="70" height="3" rx="2"></rect>
                    <rect id="Rectangle-777-Copy-7" x="0" y="0" width="41" height="3" rx="2"></rect>
                    <rect id="Rectangle-777-Copy" x="127" y="0" width="112" height="3" rx="2"></rect>
                    <rect id="Rectangle-777" x="8" y="10" width="74.7370647" height="3" rx="2"></rect>
                    <rect id="Rectangle-777-Copy" x="91.2992203" y="10" width="56.2369962" height="3" rx="2"></rect>
                    <rect id="Rectangle-777-Copy-2" x="156.432334" y="10" width="82.7370647" height="3" rx="2"></rect>
                    <rect id="Rectangle-777-Copy-5" x="9.09494702e-13" y="19.8760421" width="58.5216151" height="3" rx="2"></rect>
                    <rect id="Rectangle-777-Copy-3" x="64.5778026" y="19.8760421" width="55.0791672" height="3" rx="2"></rect>
                    <rect id="Rectangle-777-Copy-4" x="125.903034" y="19.8760421" width="43.2663647" height="3" rx="2"></rect>
                    <rect id="Rectangle-777-Copy-6" x="177.903034" y="19.8760421" width="61.1693989" height="3" rx="2"></rect>
                </g>
                <g id="Group-Copy-23" transform="translate(149.830601, 196.901408)" fill="#D3DCE7" sketch:type="MSShapeGroup">
                    <rect id="Rectangle-777" x="63" y="0" width="110" height="3" rx="2"></rect>
                    <rect id="Rectangle-777-Copy" x="181" y="0" width="83" height="3" rx="2"></rect>
                    <rect id="Rectangle-777" x="0" y="10" width="107.737065" height="3" rx="2"></rect>
                    <rect id="Rectangle-777-Copy" x="116.29922" y="10" width="77.8701786" height="3" rx="2"></rect>
                    <rect id="Rectangle-777-Copy-2" x="203" y="10" width="61.1693989" height="3" rx="2"></rect>
                    <rect id="Rectangle-777-Copy-5" x="9" y="19.8760421" width="74.5216151" height="3" rx="2"></rect>
                    <rect id="Rectangle-777-Copy-3" x="89.5778026" y="19.8760421" width="55.0791672" height="3" rx="2"></rect>
                    <rect id="Rectangle-777-Copy-4" x="150.903034" y="19.8760421" width="65.0969658" height="3" rx="2"></rect>
                    <rect id="Rectangle-777-Copy-6" x="224" y="19.8760421" width="40.0724331" height="3" rx="2"></rect>
                </g>
                <g id="Group-Copy-24" transform="translate(55.830601, 226.901408)" fill="#D3DCE7" sketch:type="MSShapeGroup">
                    <rect id="Rectangle-777" x="197" y="0" width="41" height="3" rx="2"></rect>
                    <rect id="Rectangle-777-Copy-8" x="150" y="0" width="39" height="3" rx="2"></rect>
                    <rect id="Rectangle-777-Copy" x="246" y="0" width="112" height="3" rx="2"></rect>
                    <rect id="Rectangle-777" x="127" y="10" width="74.7370647" height="3" rx="2"></rect>
                    <rect id="Rectangle-777-Copy" x="210.29922" y="10" width="77.8701786" height="3" rx="2"></rect>
                    <rect id="Rectangle-777-Copy-2" x="297" y="10" width="61.1693989" height="3" rx="2"></rect>
                    <rect id="Rectangle-777-Copy-5" x="0" y="19.8760421" width="177.521615" height="3" rx="2"></rect>
                    <rect id="Rectangle-777-Copy-3" x="183.577803" y="19.8760421" width="55.0791672" height="3" rx="2"></rect>
                </g>
                <g id="Group-Copy-27" transform="translate(34.830601, 166.901408)" fill="#D3DCE7" sketch:type="MSShapeGroup">
                    <rect id="Rectangle-777" x="0" y="0" width="12" height="3" rx="2"></rect>
                    <rect id="Rectangle-777-Copy" x="20" y="0" width="112" height="3" rx="2"></rect>
                    <rect id="Rectangle-777-Copy" x="0" y="10" width="40.5362165" height="3" rx="2"></rect>
                    <rect id="Rectangle-777-Copy-2" x="49.4323342" y="10" width="90.5676658" height="3" rx="2"></rect>
                    <rect id="Rectangle-777-Copy-3" x="0.656969735" y="19.8760421" width="12" height="3" rx="2"></rect>
                    <rect id="Rectangle-777-Copy-4" x="18.9030342" y="19.8760421" width="43.2663647" height="3" rx="2"></rect>
                    <rect id="Rectangle-777-Copy-6" x="70.9030342" y="19.8760421" width="61.1693989" height="3" rx="2"></rect>
                </g>
                <g id="Group-Copy-25" transform="translate(34.830601, 196.901408)" fill="#D3DCE7" sketch:type="MSShapeGroup">
                    <rect id="Rectangle-777" x="0" y="0" width="41" height="3" rx="2"></rect>
                    <rect id="Rectangle-777-Copy" x="49" y="0" width="121" height="3" rx="2"></rect>
                    <rect id="Rectangle-777-Copy" x="0" y="10" width="62.1693989" height="3" rx="2"></rect>
                    <rect id="Rectangle-777-Copy-2" x="71" y="10" width="36" height="3" rx="2"></rect>
                    <rect id="Rectangle-777-Copy-3" x="0" y="19.8760421" width="12.6569697" height="3" rx="2"></rect>
                    <rect id="Rectangle-777-Copy-4" x="18.9030342" y="19.8760421" width="65.0969658" height="3" rx="2"></rect>
                    <rect id="Rectangle-777-Copy-6" x="92" y="19.8760421" width="24" height="3" rx="2"></rect>
                </g>
                <g id="Group-Copy-26" transform="translate(34.830601, 226.901408)" fill="#D3DCE7" sketch:type="MSShapeGroup">
                    <rect id="Rectangle-777" x="0" y="0" width="12" height="3" rx="2"></rect>
                    <rect id="Rectangle-777-Copy" x="20" y="0" width="143" height="3" rx="2"></rect>
                    <rect id="Rectangle-777-Copy" x="0" y="10" width="62.1693989" height="3" rx="2"></rect>
                    <rect id="Rectangle-777-Copy-2" x="71" y="10" width="69" height="3" rx="2"></rect>
                    <rect id="Rectangle-777-Copy-3" x="0.656969735" y="19.8760421" width="12" height="3" rx="2"></rect>
                </g>
                <mask id="mask-6" sketch:name="Mask Copy" fill="white">
                    <use xlink:href="#path-5"></use>
                </mask>
                <use id="Mask-Copy" fill="#B8C4D2" sketch:type="MSShapeGroup" xlink:href="#path-5"></use>
            </g>
        </g>
    </g>
</svg>