<svg width="450" height="437" xmlns="http://www.w3.org/2000/svg" xmlns:xlink="http://www.w3.org/1999/xlink"><defs><rect id="a" x=".539" width="410" height="258.028" rx="4"/><rect id="b" width="409.539" height="36.056" rx="4"/><path d="M151.555 117.7c.602-.49 1.37-.785 2.213-.785h136c1.934 0 3.5 1.57 3.5 3.5 0 1.933-1.557 3.5-3.5 3.5h-136c-.643 0-1.245-.173-1.762-.476-1.26-.395-2.175-1.575-2.175-2.96 0-1.22.71-2.276 1.728-2.78z" id="d"/></defs><g fill="none" fill-rule="evenodd"><path fill="#D3DCE7" d="M0 0h450v437H0z"/><g transform="translate(19.867 99.915)"><use fill="#FFF" xlink:href="#a"/><g transform="translate(1 221.972)"><mask id="c" fill="#fff"><use xlink:href="#b"/></mask><use fill="#F7F9FB" xlink:href="#b"/><rect width="52.98" height="20.282" rx="3" transform="translate(348.667 7.887)" mask="url(#c)" fill="#D3DCE7"/><rect width="59.18" height="20.282" rx="3" transform="translate(282.724 7.887)" mask="url(#c)" stroke="#E1E6EF" fill="#FFF"/></g><path d="M1.633 221.52h407.5M1.633 39.458h408.342" stroke="#F0F2F7" stroke-linecap="square"/></g><path d="M426.09 82.656l3.89-3.888c.172-.173.172-.455 0-.63l-.63-.627c-.174-.17-.456-.17-.63 0l-3.89 3.89c-.115.117-.303.117-.418 0l-3.89-3.886c-.174-.173-.455-.173-.63 0l-.628.63c-.174.173-.174.455 0 .628l3.89 3.89c.115.115.115.303 0 .42l-3.89 3.886c-.174.174-.174.455 0 .63l.63.628c.173.175.454.175.628 0l3.89-3.887c.115-.117.303-.117.42 0l3.888 3.887c.174.175.456.175.63 0l.63-.628c.172-.175.172-.456 0-.63l-3.89-3.888c-.116-.116-.116-.304 0-.42" fill="#FFF"/><text font-family="Salesforce Sans" font-size="12" fill="#16325C"><tspan x="210" y="396">90%</tspan></text><path d="M21.4 377.5h408.1m-409-6v12m409-12v12.042" stroke="#16325C" stroke-linecap="square"/><g transform="translate(174.83 166.9)" fill="#D3DCE7"><rect x="49" width="70" height="3" rx="2"/><rect width="41" height="3" rx="2"/><rect x="127" width="112" height="3" rx="2"/><rect x="8" y="10" width="74.737" height="3" rx="2"/><rect x="91.299" y="10" width="56.237" height="3" rx="2"/><rect x="156.432" y="10" width="82.737" height="3" rx="2"/><rect y="19.876" width="58.522" height="3" rx="2"/><rect x="64.578" y="19.876" width="55.079" height="3" rx="2"/><rect x="125.903" y="19.876" width="43.266" height="3" rx="2"/><rect x="177.903" y="19.876" width="61.169" height="3" rx="2"/></g><g transform="translate(149.83 196.9)" fill="#D3DCE7"><rect x="63" width="110" height="3" rx="2"/><rect x="181" width="83" height="3" rx="2"/><rect y="10" width="107.737" height="3" rx="2"/><rect x="116.299" y="10" width="77.87" height="3" rx="2"/><rect x="203" y="10" width="61.169" height="3" rx="2"/><rect x="9" y="19.876" width="74.522" height="3" rx="2"/><rect x="89.578" y="19.876" width="55.079" height="3" rx="2"/><rect x="150.903" y="19.876" width="65.097" height="3" rx="2"/><rect x="224" y="19.876" width="40.072" height="3" rx="2"/></g><g transform="translate(55.83 226.9)" fill="#D3DCE7"><rect x="197" width="41" height="3" rx="2"/><rect x="150" width="39" height="3" rx="2"/><rect x="246" width="112" height="3" rx="2"/><rect x="127" y="10" width="74.737" height="3" rx="2"/><rect x="210.299" y="10" width="77.87" height="3" rx="2"/><rect x="297" y="10" width="61.169" height="3" rx="2"/><rect y="19.876" width="177.522" height="3" rx="2"/><rect x="183.578" y="19.876" width="55.079" height="3" rx="2"/></g><g transform="translate(34.83 166.9)" fill="#D3DCE7"><rect width="12" height="3" rx="2"/><rect x="20" width="112" height="3" rx="2"/><rect y="10" width="40.536" height="3" rx="2"/><rect x="49.432" y="10" width="90.568" height="3" rx="2"/><rect x=".657" y="19.876" width="12" height="3" rx="2"/><rect x="18.903" y="19.876" width="43.266" height="3" rx="2"/><rect x="70.903" y="19.876" width="61.169" height="3" rx="2"/></g><g transform="translate(34.83 196.9)" fill="#D3DCE7"><rect width="41" height="3" rx="2"/><rect x="49" width="121" height="3" rx="2"/><rect y="10" width="62.169" height="3" rx="2"/><rect x="71" y="10" width="36" height="3" rx="2"/><rect y="19.876" width="12.657" height="3" rx="2"/><rect x="18.903" y="19.876" width="65.097" height="3" rx="2"/><rect x="92" y="19.876" width="24" height="3" rx="2"/></g><g transform="translate(34.83 226.9)" fill="#D3DCE7"><rect width="12" height="3" rx="2"/><rect x="20" width="143" height="3" rx="2"/><rect y="10" width="62.169" height="3" rx="2"/><rect x="71" y="10" width="69" height="3" rx="2"/><rect x=".657" y="19.876" width="12" height="3" rx="2"/></g><use fill="#B8C4D2" xlink:href="#d"/></g></svg>