<svg width="450" height="437" xmlns="http://www.w3.org/2000/svg" xmlns:xlink="http://www.w3.org/1999/xlink"><defs><rect id="a" width="270.539" height="281" rx="4"/><rect id="b" width="270.539" height="36.056" rx="4"/><path d="M64.287 15.785c.6-.49 1.37-.785 2.212-.785h136c1.93 0 3.5 1.57 3.5 3.5 0 1.933-1.56 3.5-3.5 3.5h-136c-.646 0-1.248-.174-1.766-.476-1.26-.392-2.175-1.57-2.175-2.96 0-1.22.706-2.272 1.725-2.78z" id="d"/></defs><g fill="none" fill-rule="evenodd"><path fill="#D3DCE7" d="M0 0h450v437H0z"/><g transform="translate(89.867 88.915)"><use fill="#FFF" xlink:href="#a"/><g transform="translate(0 246.972)"><mask id="c" fill="#fff"><use xlink:href="#b"/></mask><use fill="#F7F9FB" xlink:href="#b"/><rect width="52.98" height="20.282" rx="3" transform="translate(209.667 7.887)" mask="url(#c)" fill="#D3DCE7"/><rect y="1" width="59.18" height="20.282" rx="3" transform="translate(143.724 6.887)" mask="url(#c)" stroke="#E1E6EF" fill="#FFF"/></g><path d="M.633 246.52h269M.563 37.458h269.41" stroke="#F0F2F7" stroke-linecap="square"/><use fill="#B8C4D2" xlink:href="#d"/></g><path d="M356.09 69.656l3.89-3.888c.172-.173.172-.455 0-.63l-.63-.627c-.174-.17-.456-.17-.63 0l-3.89 3.89c-.115.117-.303.117-.418 0l-3.89-3.886c-.174-.173-.455-.173-.63 0l-.628.63c-.174.173-.174.455 0 .628l3.89 3.89c.115.115.115.303 0 .42l-3.89 3.886c-.174.174-.174.455 0 .63l.63.628c.173.175.454.175.628 0l3.89-3.887c.115-.117.303-.117.42 0l3.888 3.887c.174.175.456.175.63 0l.63-.628c.172-.175.172-.456 0-.63l-3.89-3.888c-.116-.116-.116-.304 0-.42" fill="#FFF"/><g transform="translate(105.83 147.9)" fill="#D3DCE7"><rect x="49" width="70" height="3" rx="2"/><rect width="41" height="3" rx="2"/><rect x="127" width="112" height="3" rx="2"/><rect y="10" width="82.737" height="3" rx="2"/><rect x="91.299" y="10" width="56.237" height="3" rx="2"/><rect x="156.432" y="10" width="82.737" height="3" rx="2"/><rect y="19.876" width="58.522" height="3" rx="2"/><rect x="64.578" y="19.876" width="55.079" height="3" rx="2"/><rect x="125.903" y="19.876" width="43.266" height="3" rx="2"/><rect x="177.903" y="19.876" width="61.169" height="3" rx="2"/></g><g transform="translate(105.83 177.9)" fill="#D3DCE7"><rect width="148" height="3" rx="2"/><rect x="156" width="83" height="3" rx="2"/><rect y="10" width="82.737" height="3" rx="2"/><rect x="91.299" y="10" width="77.87" height="3" rx="2"/><rect x="178" y="10" width="61.169" height="3" rx="2"/><rect y="19.876" width="58.522" height="3" rx="2"/><rect x="64.578" y="19.876" width="55.079" height="3" rx="2"/><rect x="125.903" y="19.876" width="65.097" height="3" rx="2"/><rect x="199" y="19.876" width="40.072" height="3" rx="2"/></g><g transform="translate(105.83 207.9)" fill="#D3DCE7"><rect x="78" width="41" height="3" rx="2"/><rect width="70" height="3" rx="2"/><rect x="127" width="112" height="3" rx="2"/><rect y="10" width="82.737" height="3" rx="2"/><rect x="91.299" y="10" width="77.87" height="3" rx="2"/><rect x="178" y="10" width="61.169" height="3" rx="2"/><rect y="19.876" width="58.522" height="3" rx="2"/><rect x="64.578" y="19.876" width="55.079" height="3" rx="2"/></g></g></svg>