<?xml version="1.0" encoding="UTF-8" standalone="no"?>
<svg width="200px" height="521px" viewBox="0 0 200 521" version="1.1" xmlns="http://www.w3.org/2000/svg" xmlns:xlink="http://www.w3.org/1999/xlink" xmlns:sketch="http://www.bohemiancoding.com/sketch/ns">
    <!-- Generator: Sketch 3.3.3 (12081) - http://www.bohemiancoding.com/sketch -->
    <title>Group</title>
    <desc>Created with Sketch.</desc>
    <defs></defs>
    <g id="Page-1" stroke="none" stroke-width="1" fill="none" fill-rule="evenodd" sketch:type="MSPage">
        <g id="navigation" sketch:type="MSArtboardGroup" transform="translate(-886.000000, -2088.000000)">
            <g id="Group" sketch:type="MSLayerGroup" transform="translate(886.000000, 2088.000000)">
                <rect id="Rectangle-377" stroke="#E0E5EE" fill="#FFFFFF" sketch:type="MSShapeGroup" x="0" y="0" width="200" height="521"></rect>
                <g id="triangles3" transform="translate(15.000000, 72.000000)" fill="#B9C2CE" sketch:type="MSShapeGroup">
                    <path d="M3.55054766,8.49395315 C3.88484071,8.50693295 4.22358744,8.39172099 4.47881648,8.14831727 L7.88412748,4.6903924 C8.36874284,4.22823033 8.36874284,3.47891755 7.88412748,3.01675548 C7.39951212,2.5545934 6.61379538,2.5545934 6.12918002,3.01675548 L3.5488857,5.63691672 L0.953166057,3.01675548 C0.46760797,2.5545934 -0.319637234,2.5545934 -0.805195321,3.01675548 C-1.29075341,3.47891755 -1.29075341,4.22823033 -0.805195321,4.6903924 L2.62047307,8.14831727 C2.8761986,8.39172099 3.2156043,8.50693295 3.55054766,8.49395315 Z" id="Icon---Arrow-Down-(Small)-29" transform="translate(3.539113, 5.582536) rotate(-90.000000) translate(-3.539113, -5.582536) "></path>
                    <path d="M3.55054766,48.4939531 C3.88484071,48.5069329 4.22358744,48.391721 4.47881648,48.1483173 L7.88412748,44.6903924 C8.36874284,44.2282303 8.36874284,43.4789176 7.88412748,43.0167555 C7.39951212,42.5545934 6.61379538,42.5545934 6.12918002,43.0167555 L3.5488857,45.6369167 L0.953166057,43.0167555 C0.46760797,42.5545934 -0.319637234,42.5545934 -0.805195321,43.0167555 C-1.29075341,43.4789176 -1.29075341,44.2282303 -0.805195321,44.6903924 L2.62047307,48.1483173 C2.8761986,48.391721 3.2156043,48.5069329 3.55054766,48.4939531 Z" id="Icon---Arrow-Down-(Small)-29-Copy" transform="translate(3.539113, 45.582536) rotate(-90.000000) translate(-3.539113, -45.582536) "></path>
                    <path d="M3.55054766,88.4939531 C3.88484071,88.5069329 4.22358744,88.391721 4.47881648,88.1483173 L7.88412748,84.6903924 C8.36874284,84.2282303 8.36874284,83.4789176 7.88412748,83.0167555 C7.39951212,82.5545934 6.61379538,82.5545934 6.12918002,83.0167555 L3.5488857,85.6369167 L0.953166057,83.0167555 C0.46760797,82.5545934 -0.319637234,82.5545934 -0.805195321,83.0167555 C-1.29075341,83.4789176 -1.29075341,84.2282303 -0.805195321,84.6903924 L2.62047307,88.1483173 C2.8761986,88.391721 3.2156043,88.5069329 3.55054766,88.4939531 Z" id="Icon---Arrow-Down-(Small)-29-Copy-2" transform="translate(3.539113, 85.582536) rotate(-90.000000) translate(-3.539113, -85.582536) "></path>
                    <path d="M3.55054766,168.493953 C3.88484071,168.506933 4.22358744,168.391721 4.47881648,168.148317 L7.88412748,164.690392 C8.36874284,164.22823 8.36874284,163.478918 7.88412748,163.016755 C7.39951212,162.554593 6.61379538,162.554593 6.12918002,163.016755 L3.5488857,165.636917 L0.953166057,163.016755 C0.46760797,162.554593 -0.319637234,162.554593 -0.805195321,163.016755 C-1.29075341,163.478918 -1.29075341,164.22823 -0.805195321,164.690392 L2.62047307,168.148317 C2.8761986,168.391721 3.2156043,168.506933 3.55054766,168.493953 Z" id="Icon---Arrow-Down-(Small)-29-Copy-3" transform="translate(3.539113, 165.582536) rotate(-90.000000) translate(-3.539113, -165.582536) "></path>
                    <path d="M3.55054766,208.493953 C3.88484071,208.506933 4.22358744,208.391721 4.47881648,208.148317 L7.88412748,204.690392 C8.36874284,204.22823 8.36874284,203.478918 7.88412748,203.016755 C7.39951212,202.554593 6.61379538,202.554593 6.12918002,203.016755 L3.5488857,205.636917 L0.953166057,203.016755 C0.46760797,202.554593 -0.319637234,202.554593 -0.805195321,203.016755 C-1.29075341,203.478918 -1.29075341,204.22823 -0.805195321,204.690392 L2.62047307,208.148317 C2.8761986,208.391721 3.2156043,208.506933 3.55054766,208.493953 Z" id="Icon---Arrow-Down-(Small)-29-Copy-4" transform="translate(3.539113, 205.582536) rotate(-90.000000) translate(-3.539113, -205.582536) "></path>
                    <path d="M3.55054766,248.493953 C3.88484071,248.506933 4.22358744,248.391721 4.47881648,248.148317 L7.88412748,244.690392 C8.36874284,244.22823 8.36874284,243.478918 7.88412748,243.016755 C7.39951212,242.554593 6.61379538,242.554593 6.12918002,243.016755 L3.5488857,245.636917 L0.953166057,243.016755 C0.46760797,242.554593 -0.319637234,242.554593 -0.805195321,243.016755 C-1.29075341,243.478918 -1.29075341,244.22823 -0.805195321,244.690392 L2.62047307,248.148317 C2.8761986,248.391721 3.2156043,248.506933 3.55054766,248.493953 Z" id="Icon---Arrow-Down-(Small)-29-Copy-5" transform="translate(3.539113, 245.582536) rotate(-90.000000) translate(-3.539113, -245.582536) "></path>
                    <path d="M3.55054766,288.493953 C3.88484071,288.506933 4.22358744,288.391721 4.47881648,288.148317 L7.88412748,284.690392 C8.36874284,284.22823 8.36874284,283.478918 7.88412748,283.016755 C7.39951212,282.554593 6.61379538,282.554593 6.12918002,283.016755 L3.5488857,285.636917 L0.953166057,283.016755 C0.46760797,282.554593 -0.319637234,282.554593 -0.805195321,283.016755 C-1.29075341,283.478918 -1.29075341,284.22823 -0.805195321,284.690392 L2.62047307,288.148317 C2.8761986,288.391721 3.2156043,288.506933 3.55054766,288.493953 Z" id="Icon---Arrow-Down-(Small)-29-Copy-6" transform="translate(3.539113, 285.582536) rotate(-90.000000) translate(-3.539113, -285.582536) "></path>
                    <path d="M3.55054766,328.493953 C3.88484071,328.506933 4.22358744,328.391721 4.47881648,328.148317 L7.88412748,324.690392 C8.36874284,324.22823 8.36874284,323.478918 7.88412748,323.016755 C7.39951212,322.554593 6.61379538,322.554593 6.12918002,323.016755 L3.5488857,325.636917 L0.953166057,323.016755 C0.46760797,322.554593 -0.319637234,322.554593 -0.805195321,323.016755 C-1.29075341,323.478918 -1.29075341,324.22823 -0.805195321,324.690392 L2.62047307,328.148317 C2.8761986,328.391721 3.2156043,328.506933 3.55054766,328.493953 Z" id="Icon---Arrow-Down-(Small)-29-Copy-7" transform="translate(3.539113, 325.582536) rotate(-90.000000) translate(-3.539113, -325.582536) "></path>
                    <path d="M3.55054766,368.493953 C3.88484071,368.506933 4.22358744,368.391721 4.47881648,368.148317 L7.88412748,364.690392 C8.36874284,364.22823 8.36874284,363.478918 7.88412748,363.016755 C7.39951212,362.554593 6.61379538,362.554593 6.12918002,363.016755 L3.5488857,365.636917 L0.953166057,363.016755 C0.46760797,362.554593 -0.319637234,362.554593 -0.805195321,363.016755 C-1.29075341,363.478918 -1.29075341,364.22823 -0.805195321,364.690392 L2.62047307,368.148317 C2.8761986,368.391721 3.2156043,368.506933 3.55054766,368.493953 Z" id="Icon---Arrow-Down-(Small)-29-Copy-12" transform="translate(3.539113, 365.582536) rotate(-90.000000) translate(-3.539113, -365.582536) "></path>
                    <path d="M3.55054766,407.493953 C3.88484071,407.506933 4.22358744,407.391721 4.47881648,407.148317 L7.88412748,403.690392 C8.36874284,403.22823 8.36874284,402.478918 7.88412748,402.016755 C7.39951212,401.554593 6.61379538,401.554593 6.12918002,402.016755 L3.5488857,404.636917 L0.953166057,402.016755 C0.46760797,401.554593 -0.319637234,401.554593 -0.805195321,402.016755 C-1.29075341,402.478918 -1.29075341,403.22823 -0.805195321,403.690392 L2.62047307,407.148317 C2.8761986,407.391721 3.2156043,407.506933 3.55054766,407.493953 Z" id="Icon---Arrow-Down-(Small)-29-Copy-13" transform="translate(3.539113, 404.582536) rotate(-90.000000) translate(-3.539113, -404.582536) "></path>
                </g>
                <rect id="Rectangle-232-Copy-77" fill="#A5B1BE" sketch:type="MSShapeGroup" x="15" y="40" width="138" height="7" rx="4"></rect>
                <rect id="Rectangle-232-Copy-80" fill="#D3DDE7" sketch:type="MSShapeGroup" x="32" y="74" width="75" height="7" rx="4"></rect>
                <rect id="Rectangle-232-Copy-81" fill="#D3DDE7" sketch:type="MSShapeGroup" x="32" y="114" width="60" height="7" rx="4"></rect>
                <rect id="Rectangle-232-Copy-82" fill="#D3DDE7" sketch:type="MSShapeGroup" x="32" y="154" width="86" height="7" rx="4"></rect>
                <rect id="Rectangle-232-Copy-83" fill="#D3DDE7" sketch:type="MSShapeGroup" x="32" y="234" width="69" height="7" rx="4"></rect>
                <rect id="Rectangle-232-Copy-84" fill="#D3DDE7" sketch:type="MSShapeGroup" x="32" y="274" width="75" height="7" rx="4"></rect>
                <rect id="Rectangle-232-Copy-85" fill="#D3DDE7" sketch:type="MSShapeGroup" x="32" y="314" width="52" height="7" rx="4"></rect>
                <rect id="Rectangle-232-Copy-86" fill="#D3DDE7" sketch:type="MSShapeGroup" x="32" y="354" width="60" height="7" rx="4"></rect>
                <rect id="Rectangle-232-Copy-87" fill="#D3DDE7" sketch:type="MSShapeGroup" x="32" y="394" width="69" height="7" rx="4"></rect>
                <rect id="Rectangle-232-Copy-88" fill="#D3DDE7" sketch:type="MSShapeGroup" x="32" y="434" width="75" height="7" rx="4"></rect>
                <rect id="Rectangle-232-Copy-89" fill="#D3DDE7" sketch:type="MSShapeGroup" x="32" y="474" width="52" height="7" rx="4"></rect>
                <rect id="Rectangle-232-Copy-78" fill="#A5B1BE" sketch:type="MSShapeGroup" x="15" y="200" width="111" height="7" rx="4"></rect>
            </g>
        </g>
    </g>
</svg>