<svg width="411" height="11" xmlns="http://www.w3.org/2000/svg"><g fill="none" fill-rule="evenodd"><path d="M133.45 5.57c.014-.333-.102-.672-.345-.927l-3.458-3.405c-.462-.485-1.212-.485-1.674 0-.462.484-.462 1.27 0 1.754l2.62 2.58-2.62 2.596c-.462.486-.462 1.273 0 1.76.462.484 1.212.484 1.674 0l3.458-3.427c.243-.252.36-.59.346-.93zm150 0c.014-.333-.102-.672-.345-.927l-3.458-3.405c-.462-.485-1.212-.485-1.674 0-.462.484-.462 1.27 0 1.754l2.62 2.58-2.62 2.596c-.462.486-.462 1.273 0 1.76.462.484 1.212.484 1.674 0l3.458-3.427c.243-.252.36-.59.346-.93z" fill="#B9C2CE"/><rect fill="#A5B1BE" y="2" width="111" height="7" rx="4"/><rect fill="#A5B1BE" x="150" y="2" width="111" height="7" rx="4"/><rect fill="#0070D2" x="300" y="2" width="111" height="7" rx="4"/></g></svg>