<svg width="200" height="521" xmlns="http://www.w3.org/2000/svg"><g fill="none" fill-rule="evenodd"><path stroke="#E0E5EE" fill="#FFF" d="M0 0h200v521H0z"/><g fill="#B9C2CE"><path d="M21.45 77.57c.014-.333-.102-.672-.345-.927l-3.458-3.405c-.462-.485-1.212-.485-1.674 0-.462.484-.462 1.27 0 1.754l2.62 2.58-2.62 2.596c-.462.486-.462 1.273 0 1.76.462.484 1.212.484 1.674 0l3.458-3.427c.243-.255.36-.594.346-.93zM21.45 117.57c.014-.333-.102-.672-.345-.927l-3.458-3.405c-.462-.485-1.212-.485-1.674 0-.462.484-.462 1.27 0 1.754l2.62 2.58-2.62 2.596c-.462.486-.462 1.273 0 1.76.462.484 1.212.484 1.674 0l3.458-3.427c.243-.255.36-.594.346-.93zM21.45 157.57c.014-.333-.102-.672-.345-.927l-3.458-3.405c-.462-.485-1.212-.485-1.674 0-.462.484-.462 1.27 0 1.754l2.62 2.58-2.62 2.596c-.462.486-.462 1.273 0 1.76.462.484 1.212.484 1.674 0l3.458-3.427c.243-.255.36-.594.346-.93zM21.45 237.57c.014-.333-.102-.672-.345-.927l-3.458-3.405c-.462-.485-1.212-.485-1.674 0-.462.484-.462 1.27 0 1.754l2.62 2.58-2.62 2.596c-.462.486-.462 1.273 0 1.76.462.484 1.212.484 1.674 0l3.458-3.427c.243-.255.36-.594.346-.93zM21.45 277.57c.014-.333-.102-.672-.345-.927l-3.458-3.405c-.462-.485-1.212-.485-1.674 0-.462.484-.462 1.27 0 1.754l2.62 2.58-2.62 2.596c-.462.486-.462 1.273 0 1.76.462.484 1.212.484 1.674 0l3.458-3.427c.243-.255.36-.594.346-.93zM21.45 317.57c.014-.333-.102-.672-.345-.927l-3.458-3.405c-.462-.485-1.212-.485-1.674 0-.462.484-.462 1.27 0 1.754l2.62 2.58-2.62 2.596c-.462.486-.462 1.273 0 1.76.462.484 1.212.484 1.674 0l3.458-3.427c.243-.255.36-.594.346-.93zM21.45 357.57c.014-.333-.102-.672-.345-.927l-3.458-3.405c-.462-.485-1.212-.485-1.674 0-.462.484-.462 1.27 0 1.754l2.62 2.58-2.62 2.596c-.462.486-.462 1.273 0 1.76.462.484 1.212.484 1.674 0l3.458-3.427c.243-.255.36-.594.346-.93zM21.45 397.57c.014-.333-.102-.672-.345-.927l-3.458-3.405c-.462-.485-1.212-.485-1.674 0-.462.484-.462 1.27 0 1.754l2.62 2.58-2.62 2.596c-.462.486-.462 1.273 0 1.76.462.484 1.212.484 1.674 0l3.458-3.427c.243-.255.36-.594.346-.93zM21.45 437.57c.014-.333-.102-.672-.345-.927l-3.458-3.405c-.462-.485-1.212-.485-1.674 0-.462.484-.462 1.27 0 1.754l2.62 2.58-2.62 2.596c-.462.486-.462 1.273 0 1.76.462.484 1.212.484 1.674 0l3.458-3.427c.243-.255.36-.594.346-.93zM21.45 476.57c.014-.333-.102-.672-.345-.927l-3.458-3.405c-.462-.485-1.212-.485-1.674 0-.462.484-.462 1.27 0 1.754l2.62 2.58-2.62 2.596c-.462.486-.462 1.273 0 1.76.462.484 1.212.484 1.674 0l3.458-3.427c.243-.255.36-.594.346-.93z"/></g><rect fill="#A5B1BE" x="15" y="40" width="138" height="7" rx="4"/><rect fill="#D3DDE7" x="32" y="74" width="75" height="7" rx="4"/><rect fill="#D3DDE7" x="32" y="114" width="60" height="7" rx="4"/><rect fill="#D3DDE7" x="32" y="154" width="86" height="7" rx="4"/><rect fill="#D3DDE7" x="32" y="234" width="69" height="7" rx="4"/><rect fill="#D3DDE7" x="32" y="274" width="75" height="7" rx="4"/><rect fill="#D3DDE7" x="32" y="314" width="52" height="7" rx="4"/><rect fill="#D3DDE7" x="32" y="354" width="60" height="7" rx="4"/><rect fill="#D3DDE7" x="32" y="394" width="69" height="7" rx="4"/><rect fill="#D3DDE7" x="32" y="434" width="75" height="7" rx="4"/><rect fill="#D3DDE7" x="32" y="474" width="52" height="7" rx="4"/><rect fill="#A5B1BE" x="15" y="200" width="111" height="7" rx="4"/></g></svg>