<?xml version="1.0"?><svg xmlns="http://www.w3.org/2000/svg" width="100" height="100" viewBox="0 0 100 100"><g fill="#fff"><path d="m45.8 49.4 8.2-0.1-8.2-1c-0.3 2.7-1 5.5-1.9 7.9-2.6 6.8-7.5 12.9-14.5 16.3-1 0.4-1.4 1.6-1 2.6l1.6 3.8c0.5 1.1 1.6 1.4 2.7 0.8 9.2-4.4 15.9-11.9 19.3-20.7 1.4-3.4 1.8-7.1 2.1-10.8"></path><path d="m45.8 48.2c0.3 3.8 0.7 7.4 2.1 10.8 3.3 8.8 10 16.3 19.3 20.7 1.1 0.5 2.2 0.4 2.7-0.8l1.6-3.8c0.4-1 0-2.2-1-2.6-7-3.4-12-9.4-14.5-16.3-1-2.6-1.6-5.3-1.9-7.9v-13h-8.3v12.9z m21.9-4.3h-35.6c-1 0-1.6-1.4-1-2.2l17.4-21.2c0.5-0.8 1.9-0.8 2.5 0l17.7 21.2c0.7 1 0.1 2.2-1 2.2z"></path></g></svg>