<?xml version="1.0"?><svg xmlns="http://www.w3.org/2000/svg" width="100" height="100" viewBox="0 0 100 100"><title></title><path d="m72 38.9h-6.8l-10.6-10.8a5.5 5.5 0 1 0-9.4 0l-10.6 10.8h-6.6a8 8 0 0 0-8 8v25.2a8 8 0 0 0 8 8h44a8 8 0 0 0 8-8v-25.2a8 8 0 0 0-8-8z m-24.9-8.8a5.3 5.3 0 0 0 5.5 0l8.7 8.8h-22.9z m20.8 19.6l-21.6 21.8a1.1 1.1 0 0 1-1.7 0l-12.5-12.6a1.2 1.2 0 0 1 0-1.7l1.6-1.7a1.2 1.2 0 0 1 1.7 0l9.5 9.5a0.8 0.8 0 0 0 1.1 0l18.6-18.7a1.2 1.2 0 0 1 1.7 0l1.6 1.7a1.2 1.2 0 0 1 0 1.7z" fill="#fff" fill-rule="evenodd"></path></svg>