<?xml version="1.0"?><svg xmlns="http://www.w3.org/2000/svg" width="100" height="100" viewBox="0 0 100 100"><title></title><path d="m77.9 20.2a2.4 2.4 0 0 0-2.4 0 48.9 48.9 0 0 0-6.1 3.8 35.1 35.1 0 0 1-9.5 4.4 37.3 37.3 0 0 1-12.7 1.3 38.4 38.4 0 0 1-22.1-8.8 3 3 0 0 0-3 0.1 2.8 2.8 0 0 0-1.3 2.4v43.6a2.8 2.8 0 0 0 1.6 2.5 20.1 20.1 0 0 1 2.3 1.8 54.1 54.1 0 0 0 6.1 3.7 48.4 48.4 0 0 0 16.1 4.9c5.1 0.7 10.5-0.6 15.3-2.2 5.9-2 10.7-5.4 15.7-9a2.8 2.8 0 0 0 1.3-2.5v-43.5a2.6 2.6 0 0 0-1.3-2.5z m-28 49.7a1.3 1.3 0 0 1-1.7 0c-2.7-2-11.7-10.1-11.7-18.7v0a12.5 12.5 0 0 1 12.5-12.5h0.1a12.5 12.5 0 0 1 12.5 12.5c0 8.6-9.1 16.5-11.8 18.7z m-0.6-25h-0.1a4.9 4.9 0 0 0-4.9 4.9 5 5 0 0 0 5 4.9h0.4a4.9 4.9 0 0 0-0.4-9.8z" fill="#fff"></path></svg>