<?xml version="1.0"?><svg xmlns="http://www.w3.org/2000/svg" width="100" height="100" viewBox="0 0 100 100"><title></title><path d="m70.9 20h-41.7a7.9 7.9 0 0 0-8 7.8v44.4a7.9 7.9 0 0 0 7.9 7.8h41.8a7.9 7.9 0 0 0 7.8-7.8v-44.4a7.7 7.7 0 0 0-7.8-7.8z m-36.5 10.4h13.3a2.7 2.7 0 0 1 2.6 2.6v2.6a2.7 2.7 0 0 1-2.6 2.6h-13.3a2.7 2.7 0 0 1-2.6-2.6v-2.6a2.7 2.7 0 0 1 2.6-2.6z m30.9 39.2h-13.1a2.7 2.7 0 0 1-2.6-2.6v-2.6a2.7 2.7 0 0 1 2.6-2.6h13.3a2.6 2.6 0 0 1 2.4 2.6v2.6a2.7 2.7 0 0 1-2.6 2.6z m3.2-15a2.8 2.8 0 0 1-2.8 2.6h-31.3a2.7 2.7 0 0 1-2.6-2.6v-9a2.7 2.7 0 0 1 2.6-2.6h31.4a2.7 2.7 0 0 1 2.7 2.6v9z" fill="#fff" fill-rule="evenodd"></path></svg>