<?xml version="1.0"?><svg xmlns="http://www.w3.org/2000/svg" width="100" height="100" viewBox="0 0 100 100"><title></title><path d="m34.4 30.4h13.3a2.7 2.7 0 0 1 2.6 2.6v2.6a2.7 2.7 0 0 1-2.6 2.6h-13.3a2.7 2.7 0 0 1-2.6-2.6v-2.6a2.7 2.7 0 0 1 2.6-2.6z m6.1 49.6h-11.4a7.9 7.9 0 0 1-7.8-7.8v-44.4a7.9 7.9 0 0 1 8-7.8h41.6a7.7 7.7 0 0 1 7.8 7.8v44.4a7.6 7.6 0 0 1-0.6 3c-2.1-2-5.3-3.5-8.6-4.9-3.8-1.5-4.3-2.9-4.3-4.5s1.2-2.9 2.4-4.2a10.7 10.7 0 0 0 3.4-7.9c0-6-3.8-11.1-10.5-11.1s-10.6 5.2-10.6 11.1a10 10 0 0 0 3.4 8c1.3 1.1 2.4 2.6 2.4 4.1s-0.6 3-4.3 4.6c-5.5 2.2-10.6 4.8-10.9 9.6z" fill="#fff" fill-rule="evenodd"></path></svg>