<?xml version="1.0"?><svg xmlns="http://www.w3.org/2000/svg" width="100" height="100" viewBox="0 0 100 100"><title></title><path d="m75.9 29.3l-9-8.9a1.1 1.1 0 0 0-0.9-0.4 1.4 1.4 0 0 0-1.4 1.4v6.4a3.9 3.9 0 0 0 3.9 3.8h6.4a1.4 1.4 0 0 0 1.3-1.3 1.7 1.7 0 0 0-0.3-1z m-11 14.7a0.4 0.4 0 0 0-0.8-0.2l-4.1 4.2a0.8 0.8 0 0 1-1.2 0l-3-3a0.8 0.8 0 0 1 0-1.1l4.3-4.2a0.5 0.5 0 0 0-0.2-0.8 8.3 8.3 0 0 0-2.2-0.3 7.4 7.4 0 0 0-7.4 8.4 7.8 7.8 0 0 0 0.5 2l-9.7 9.6a2.9 2.9 0 0 0 0 4.1 2.9 2.9 0 0 0 4.2 0l9.6-9.6a8.5 8.5 0 0 0 2 0.5 7.4 7.4 0 0 0 8.3-7.4 7.3 7.3 0 0 0-0.3-2.2z m9.4-6.6h-9.8a5.8 5.8 0 0 1-5.9-5.8v-9.7a1.8 1.8 0 0 0-1.8-1.9h-15.5a5.8 5.8 0 0 0-5.9 5.8v36.7a5.8 5.8 0 0 0 5.9 5.8h29.1a5.8 5.8 0 0 0 5.9-5.8v-23.1a2 2 0 0 0-2-2z m-44.7 25.2v-31a5.8 5.8 0 0 0-5.8 5.8v36.7a5.9 5.9 0 0 0 5.8 5.9h29.2a5.8 5.8 0 0 0 5.8-5.7h-23.3c-6.4 0-11.7 0-11.7-11.7z" fill="#fff" fill-rule="evenodd"></path></svg>