<svg xmlns="http://www.w3.org/2000/svg" width="455" height="99" xmlns:xlink="http://www.w3.org/1999/xlink"><defs><path id="b" d="M196.005 0C198.21 0 200 1.794 200 4.002v69.996c0 2.21-1.79 4.002-3.995 4.002H3.995C1.79 78 0 76.206 0 73.998V4.002C0 1.792 1.79 0 3.995 0h192.01z"/><filter id="a" width="200%" height="200%" x="-50%" y="-50%" filterUnits="objectBoundingBox"><feOffset dy="-1" in="SourceAlpha" result="shadowOffsetOuter1"/><feGaussianBlur stdDeviation="2" in="shadowOffsetOuter1" result="shadowBlurOuter1"/><feColorMatrix values="0 0 0 0 0 0 0 0 0 0 0 0 0 0 0 0 0 0 0.16 0" in="shadowBlurOuter1"/></filter><path id="d" d="M12 19.686L.686 31 12 42.314v15.69C12 60.21 13.786 62 15.99 62h232.02c2.196 0 3.99-1.79 3.99-3.996V3.996C252 1.79 250.214 0 248.01 0H15.99C13.794 0 12 1.79 12 3.996v15.69z"/><filter id="c" width="200%" height="200%" x="-50%" y="-50%" filterUnits="objectBoundingBox"><feOffset dy="-1" in="SourceAlpha" result="shadowOffsetOuter1"/><feGaussianBlur stdDeviation="2" in="shadowOffsetOuter1" result="shadowBlurOuter1"/><feColorMatrix values="0 0 0 0 0 0 0 0 0 0 0 0 0 0 0 0 0 0 0.16 0" in="shadowBlurOuter1"/></filter></defs><g fill="none" fill-rule="evenodd"><g transform="translate(4 3)"><g transform="matrix(1 0 0 -1 0 78)"><use fill="#000" filter="url(#a)" xlink:href="#b"/><use fill="#FFF" xlink:href="#b"/></g><rect width="60" height="6" x="12" y="12" fill="#E0E5EE" rx="3"/><rect width="130" height="10" x="12" y="22" fill="#E0E5EE" rx="5"/><rect width="60" height="6" x="12" y="48" fill="#E0E5EE" rx="3"/><rect width="90" height="6" x="12" y="58" fill="#E0E5EE" rx="3"/></g><g transform="translate(174 51)"><rect width="16" height="16" x="3.834" y="3.834" fill="#FFB75D" transform="rotate(45 11.834 11.834)" rx="2"/><g fill="#FFF" transform="translate(10.667 7.11)"><rect width="2.667" height="6.222" rx=".5"/><ellipse cx="1.333" cy="8.889" rx="1.333" ry="1.333"/></g></g><g transform="translate(199 32)"><g transform="matrix(1 0 0 -1 0 62)"><use fill="#000" filter="url(#c)" xlink:href="#d"/><use fill="#FFF" xlink:href="#d"/></g><path fill="#0070D2" d="M239.605 14.23l4.252 4.252c.19.19.19.498 0 .688l-.687.687c-.19.19-.498.19-.688 0l-4.253-4.252c-.128-.126-.334-.126-.46 0l-4.253 4.252c-.19.19-.498.19-.688 0l-.688-.687c-.19-.19-.19-.498 0-.688l4.252-4.253c.126-.128.126-.334 0-.46l-4.252-4.253c-.19-.19-.19-.498 0-.688l.687-.688c.19-.19.497-.19.687 0l4.253 4.252c.127.126.333.126.46 0l4.252-4.252c.19-.19.498-.19.688 0l.687.687c.19.19.19.497 0 .687l-4.252 4.253c-.126.127-.126.333 0 .46"/><rect width="100" height="8" x="24" y="12" fill="#16325C" rx="4"/><rect width="200" height="6" x="24" y="30" fill="#16325C" rx="3"/><rect width="140" height="6" x="24" y="44" fill="#16325C" rx="3"/></g></g></svg>