<svg width="351" height="141" viewBox="0 0 351 141" xmlns="http://www.w3.org/2000/svg"><defs><filter x="-50%" y="-50%" width="200%" height="200%" filterUnits="objectBoundingBox" id="a"><feOffset dy="1" in="SourceAlpha" result="shadowOffsetOuter1"/><feGaussianBlur stdDeviation=".5" in="shadowOffsetOuter1" result="shadowBlurOuter1"/><feColorMatrix values="0 0 0 0 0 0 0 0 0 0 0 0 0 0 0 0 0 0 0.0417091259 0" in="shadowBlurOuter1" result="shadowMatrixOuter1"/><feMerge><feMergeNode in="shadowMatrixOuter1"/><feMergeNode in="SourceGraphic"/></feMerge></filter><filter x="-50%" y="-50%" width="200%" height="200%" filterUnits="objectBoundingBox" id="b"><feOffset dy="-2" in="SourceAlpha" result="shadowOffsetOuter1"/><feGaussianBlur stdDeviation="1.5" in="shadowOffsetOuter1" result="shadowBlurOuter1"/><feColorMatrix values="0 0 0 0 0 0 0 0 0 0 0 0 0 0 0 0 0 0 0.112 0" in="shadowBlurOuter1" result="shadowMatrixOuter1"/><feMerge><feMergeNode in="shadowMatrixOuter1"/><feMergeNode in="SourceGraphic"/></feMerge></filter></defs><g fill="none" fill-rule="evenodd"><g transform="translate(145 103)"><rect stroke="#E1E6EF" fill="#FFF" filter="url(#a)" width="104.214" height="36" rx="3"/><rect fill="#1570D2" x="22" y="14" width="60" height="8" rx="5"/></g><g transform="translate(257 103)"><rect fill="#1570D2" width="93.297" height="36" rx="3"/><rect fill="#FFF" x="17" y="14" width="60" height="8" rx="5"/></g><g><path d="M132.78 126.795l-8.81-14.223c-.473-.763-1.467-.763-1.94 0l-8.81 14.223c-.555.894.007 2.128.968 2.128h17.624c.96 0 1.523-1.234.97-2.128zm-9.78-.95c-.637 0-1.154-.515-1.154-1.153 0-.637.517-1.154 1.154-1.154.637 0 1.154.517 1.154 1.154 0 .638-.517 1.154-1.154 1.154zm1.154-3.46c0 .212-.172.384-.385.384h-1.54c-.212 0-.384-.173-.384-.385v-5c0-.213.172-.385.385-.385h1.54c.212 0 .384.172.384.385v5z" fill="#C23934"/><g transform="matrix(1 0 0 -1 3 102)"><path d="M106.858 13.142L120 0l13.142 13.142H236.01c2.196 0 3.99 1.788 3.99 3.993V96.15c0 2.195-1.786 3.992-3.99 3.992H3.99c-2.196 0-3.99-1.788-3.99-3.993V17.134c0-2.196 1.786-3.993 3.99-3.993h102.868z" fill="#C23934" filter="url(#b)"/><path d="M229.405 85.62l4.14-4.142c.185-.185.185-.485 0-.67l-.67-.67c-.184-.184-.484-.184-.67 0l-4.14 4.14c-.123.124-.323.124-.446 0l-4.142-4.14c-.185-.184-.485-.184-.67 0l-.67.67c-.184.185-.184.485 0 .67l4.14 4.14c.124.124.124.324 0 .447l-4.14 4.14c-.184.186-.184.486 0 .67l.67.67c.185.185.485.185.67 0l4.14-4.14c.124-.123.324-.123.447 0l4.14 4.14c.186.185.486.185.67 0l.67-.67c.185-.184.185-.484 0-.67l-4.14-4.14c-.123-.123-.123-.323 0-.446" fill="#FFF"/><rect fill="#FFF" x="11" y="78" width="160" height="8" rx="5"/><rect fill="#FFF" x="22" y="50" width="140" height="8" rx="5"/><rect fill="#FFF" x="22" y="30" width="120" height="8" rx="5"/><text transform="matrix(1 0 0 -1 0 90.655)" font-family="SalesforceSans-Regular, Salesforce Sans" font-size="14" fill="#FFF"><tspan x="11" y="39.328">• </tspan> <tspan x="11" y="57.328">• </tspan></text></g></g></g></svg>