<svg width="488" height="96" viewBox="0 0 488 96" xmlns="http://www.w3.org/2000/svg"><defs><filter x="-50%" y="-50%" width="200%" height="200%" filterUnits="objectBoundingBox" id="a"><feOffset dy="-2" in="SourceAlpha" result="shadowOffsetOuter1"/><feGaussianBlur stdDeviation="1.5" in="shadowOffsetOuter1" result="shadowBlurOuter1"/><feColorMatrix values="0 0 0 0 0 0 0 0 0 0 0 0 0 0 0 0 0 0 0.112 0" in="shadowBlurOuter1" result="shadowMatrixOuter1"/><feMerge><feMergeNode in="shadowMatrixOuter1"/><feMergeNode in="SourceGraphic"/></feMerge></filter></defs><g fill="none" fill-rule="evenodd"><g transform="translate(0 8)"><rect stroke="#E1E6EF" fill="#FFF" width="180" height="60" rx="2"/><rect fill="#B9C4D2" x="8" y="17" width="81" height="8" rx="5"/><rect fill="#D3DDE7" x="8" y="9" width="54" height="4" rx="5"/><rect fill="#D3DDE7" x="8" y="39" width="32" height="4" rx="4"/><rect fill="#D3DDE7" x="8" y="47" width="50" height="4" rx="4"/><path d="M171.75 49.196l-8.582-13.607c-.23-.358-.687-.59-1.166-.59-.5 0-.938.232-1.167.59l-8.666 13.73c-.23.36-.23.787.02 1.126.25.34.667.554 1.146.554h17.33c.73 0 1.334-.5 1.334-1.143 0-.25-.104-.482-.25-.66zm-9.748.25c-.834 0-1.5-.57-1.5-1.286 0-.714.666-1.285 1.5-1.285.833 0 1.5.57 1.5 1.285s-.667 1.286-1.5 1.286zm.853-4.732c-.062.357-.437.68-.833.68h-.062c-.375 0-.75-.323-.813-.68-.333-1.5-.5-3.107-.667-4.446-.02-.304.27-.643.646-.715.687-.107 1.083-.107 1.77 0 .397.072.646.41.626.715-.167 1.34-.333 2.946-.667 4.446z" fill="#FFB75D"/></g><g transform="matrix(1 0 0 -1 171 91)"><path d="M14 31.716L.716 45 14 58.284v27.718C14 88.21 15.8 90 18 90h292c2.21 0 4-1.798 4-3.998V3.998C314 1.79 312.2 0 310 0H18c-2.21 0-4 1.798-4 3.998v27.718z" stroke="#EEF1F6" fill="#FFF" filter="url(#a)"/><path d="M301.405 75.62l4.14-4.142c.185-.185.185-.485 0-.67l-.67-.67c-.184-.184-.484-.184-.67 0l-4.14 4.14c-.123.124-.323.124-.446 0l-4.142-4.14c-.185-.184-.485-.184-.67 0l-.67.67c-.184.185-.184.485 0 .67l4.14 4.14c.124.124.124.324 0 .447l-4.14 4.14c-.184.186-.184.486 0 .67l.67.67c.185.185.485.185.67 0l4.14-4.14c.124-.123.324-.123.447 0l4.14 4.14c.186.185.486.185.67 0l.67-.67c.185-.184.185-.484 0-.67l-4.14-4.14c-.123-.123-.123-.323 0-.446" fill="#16325C"/><rect fill="#16325C" x="31" y="65" width="140" height="8" rx="5"/><rect fill="#16325C" x="31" y="33" width="260" height="8" rx="5"/><rect fill="#16325C" x="31" y="17" width="220" height="8" rx="5"/></g></g></svg>