<svg xmlns="http://www.w3.org/2000/svg" width="488" height="96"><defs><filter id="a" width="200%" height="200%" x="-50%" y="-50%" filterUnits="objectBoundingBox"><feOffset dy="-2" in="SourceAlpha" result="shadowOffsetOuter1"/><feGaussianBlur stdDeviation="1.5" in="shadowOffsetOuter1" result="shadowBlurOuter1"/><feColorMatrix values="0 0 0 0 0 0 0 0 0 0 0 0 0 0 0 0 0 0 0.112 0" in="shadowBlurOuter1" result="shadowMatrixOuter1"/><feMerge><feMergeNode in="shadowMatrixOuter1"/><feMergeNode in="SourceGraphic"/></feMerge></filter></defs><g fill="none" fill-rule="evenodd"><g transform="translate(0 8)"><rect width="180" height="60" fill="#FFF" stroke="#E1E6EF" rx="2"/><rect width="81" height="8" x="8" y="17" fill="#B9C4D2" rx="5"/><rect width="54" height="4" x="8" y="9" fill="#D3DDE7" rx="5"/><rect width="32" height="4" x="8" y="39" fill="#D3DDE7" rx="4"/><rect width="50" height="4" x="8" y="47" fill="#D3DDE7" rx="4"/><path fill="#FFB75D" d="M171.75 49.196l-8.582-13.607c-.23-.36-.687-.59-1.166-.59-.5 0-.938.23-1.167.59l-8.666 13.73c-.23.36-.23.786.02 1.125.25.34.666.554 1.145.554h17.33c.73 0 1.334-.5 1.334-1.144 0-.25-.105-.482-.25-.66zm-9.748.25c-.834 0-1.5-.57-1.5-1.286 0-.714.666-1.285 1.5-1.285.833 0 1.5.57 1.5 1.285s-.667 1.286-1.5 1.286zm.853-4.732c-.062.357-.437.68-.833.68h-.062c-.375 0-.75-.323-.813-.68-.333-1.5-.5-3.107-.667-4.446-.02-.304.27-.643.646-.715.687-.107 1.083-.107 1.77 0 .397.072.646.41.626.715-.167 1.34-.333 2.946-.667 4.446z"/></g><g transform="matrix(1 0 0 -1 171 91)"><path fill="#FFF" stroke="#EEF1F6" d="M14 31.716L.716 45 14 58.284v27.718C14 88.21 15.8 90 18 90h292c2.21 0 4-1.798 4-3.998V3.998C314 1.79 312.2 0 310 0H18c-2.21 0-4 1.798-4 3.998v27.718z" filter="url(#a)"/><path fill="#16325C" d="M301.405 75.62l4.14-4.142c.185-.185.185-.485 0-.67l-.67-.67c-.184-.184-.484-.184-.67 0l-4.14 4.14c-.123.124-.323.124-.446 0l-4.143-4.14c-.185-.184-.485-.184-.67 0l-.67.67c-.184.185-.184.485 0 .67l4.14 4.14c.124.124.124.324 0 .447l-4.14 4.14c-.184.186-.184.486 0 .67l.67.67c.185.185.485.185.67 0l4.14-4.14c.124-.123.324-.123.447 0l4.14 4.14c.186.185.486.185.67 0l.67-.67c.185-.184.185-.484 0-.67l-4.14-4.14c-.123-.123-.123-.323 0-.446"/><rect width="140" height="8" x="31" y="65" fill="#16325C" rx="5"/><rect width="260" height="8" x="31" y="33" fill="#16325C" rx="5"/><rect width="220" height="8" x="31" y="17" fill="#16325C" rx="5"/></g></g></svg>