<svg width="518" height="231" xmlns="http://www.w3.org/2000/svg"><g fill="none" fill-rule="evenodd"><path stroke="#E1E6EF" fill="#FFF" d="M0 9.774h241v220.49H0z"/><g transform="translate(21.02 96.26)" fill="#E1E6EF"><rect x="8.108" y="1.982" width="57.225" height="1.081" rx="4"/><rect x="121.259" y="1.982" width="10.92" height="1.081" rx="4"/><rect x="8.108" y="7.027" width="102.9" height="1.081" rx="4"/><rect x="8.108" y="9.91" width="84.525" height="1.081" rx="4"/><rect x="8.108" y="12.793" width="93.45" height="1.081" rx="4"/><rect width="5.045" height="5.045" rx="4"/><path d="M2.162 4.865h.54v12.432h-.54z"/></g><g transform="translate(21.02 113.26)" fill="#E1E6EF"><rect x="8.108" y="1.982" width="57.225" height="1.081" rx="4"/><rect x="121.259" y="1.982" width="10.92" height="1.081" rx="4"/><rect x="8.108" y="7.027" width="102.9" height="1.081" rx="4"/><rect x="8.108" y="9.91" width="84.525" height="1.081" rx="4"/><rect x="8.108" y="12.793" width="93.45" height="1.081" rx="4"/><rect width="5.045" height="5.045" rx="4"/><path d="M2.162 4.865h.54v12.432h-.54z"/></g><g transform="translate(21.02 130.26)" fill="#E1E6EF"><rect x="8.108" y="1.982" width="57.225" height="1.081" rx="4"/><rect x="121.259" y="1.982" width="10.92" height="1.081" rx="4"/><rect x="8.108" y="7.027" width="102.9" height="1.081" rx="4"/><rect x="8.108" y="9.91" width="84.525" height="1.081" rx="4"/><rect x="8.108" y="12.793" width="93.45" height="1.081" rx="4"/><rect width="5.045" height="5.045" rx="4"/><path d="M2.162 4.865h.54v12.432h-.54z"/></g><g transform="translate(21.02 147.26)" fill="#E1E6EF"><rect x="8.108" y="1.982" width="57.225" height="1.081" rx="4"/><rect x="121.259" y="1.982" width="10.92" height="1.081" rx="4"/><rect x="8.108" y="7.027" width="102.9" height="1.081" rx="4"/><rect x="8.108" y="9.91" width="84.525" height="1.081" rx="4"/><rect x="8.108" y="12.793" width="93.45" height="1.081" rx="4"/><rect width="5.045" height="5.045" rx="4"/><path d="M2.162 4.865h.54v12.432h-.54z"/></g><g transform="translate(21.02 164.26)" fill="#E1E6EF"><rect x="8.108" y="1.982" width="57.225" height="1.081" rx="4"/><rect x="121.259" y="1.982" width="10.92" height="1.081" rx="4"/><rect x="8.108" y="7.027" width="102.9" height="1.081" rx="4"/><rect x="8.108" y="9.91" width="84.525" height="1.081" rx="4"/><rect x="8.108" y="12.793" width="93.45" height="1.081" rx="4"/><rect width="5.045" height="5.045" rx="4"/><path d="M2.162 4.865h.54v12.432h-.54z"/></g><g transform="translate(21.02 181.26)" fill="#E1E6EF"><rect x="8.108" y="1.982" width="57.225" height="1.081" rx="4"/><rect x="121.259" y="1.982" width="10.92" height="1.081" rx="4"/><rect x="8.108" y="7.027" width="102.9" height="1.081" rx="4"/><rect x="8.108" y="9.91" width="84.525" height="1.081" rx="4"/><rect x="8.108" y="12.793" width="93.45" height="1.081" rx="4"/><rect width="5.045" height="5.045" rx="4"/><path d="M2.162 4.865h.54v12.432h-.54z"/></g><g transform="translate(21.02 198.26)" fill="#E1E6EF"><rect x="8.108" y="1.982" width="57.225" height="1.081" rx="4"/><rect x="121.259" y="1.982" width="10.92" height="1.081" rx="4"/><rect x="8.108" y="7.027" width="102.9" height="1.081" rx="4"/><rect x="8.108" y="9.91" width="84.525" height="1.081" rx="4"/><rect x="8.108" y="12.793" width="93.45" height="1.081" rx="4"/><rect width="5.045" height="5.045" rx="4"/><path d="M2.162 4.865h.54v12.432h-.54z"/></g><g transform="translate(21.02 215.26)" fill="#E1E6EF"><rect x="8.108" y="1.982" width="57.225" height="1.081" rx="4"/><rect x="121.259" y="1.982" width="10.92" height="1.081" rx="4"/><rect x="8.108" y="7.027" width="102.9" height="1.081" rx="4"/><rect x="8.108" y="9.91" width="84.525" height="1.081" rx="4"/><rect width="5.045" height="5.045" rx="4"/><path d="M2.162 4.865h.54V14h-.54z"/></g><g transform="translate(21.2 70.314)"><path d="M115.31 9.91c-1.79 0-3.24 1.455-3.24 3.243 0 1.79 1.46 3.243 3.24 3.243h10.637c1.79 0 3.24-1.456 3.24-3.243 0-1.79-1.46-3.243-3.24-3.243H115.31z" stroke="#E1E6EF"/><path fill="#FFF" d="M0 0h17.117v7.387H0z"/><rect stroke="#E1E6EF" width="131.89" height="18.738" rx="1"/></g><path stroke="#E0E5EE" fill="#F7F9FB" d="M10.318 10.3H241V57.38H10.318z"/><path stroke="#E1E6EF" fill="#FFF" d="M0 0h241v11.09H0z"/><path stroke="#E1E6EF" fill="#04844B" d="M0 10h241v11.09H0z"/><path d="M17.425 3.254c.3-.31.716-.505 1.178-.505.613 0 1.148.34 1.432.847.248-.11.522-.172.81-.172 1.106 0 2.002.903 2.002 2.016 0 1.115-.896 2.018-2.002 2.018-.135 0-.267-.014-.394-.04-.25.447-.728.75-1.277.75-.23 0-.447-.054-.64-.148-.254.597-.847 1.015-1.537 1.015-.72 0-1.332-.454-1.567-1.09-.104.02-.21.032-.32.032-.856 0-1.55-.7-1.55-1.563 0-.58.312-1.084.775-1.354-.095-.22-.148-.46-.148-.715 0-.994.808-1.8 1.804-1.8.586 0 1.105.28 1.435.71" fill="#1AA2DD"/><path d="M232.85 15.405l1.036-1.035c.047-.047.047-.122 0-.168l-.167-.167c-.047-.047-.122-.047-.17 0l-1.034 1.035c-.03.03-.08.03-.11 0l-1.036-1.035c-.047-.047-.122-.047-.168 0l-.167.167c-.047.046-.047.12 0 .168l1.035 1.035c.03.03.03.08 0 .11l-1.035 1.036c-.047.048-.047.123 0 .17l.167.166c.046.047.12.047.168 0l1.035-1.035c.03-.03.08-.03.11 0l1.036 1.036c.048.047.123.047.17 0l.166-.167c.047-.047.047-.122 0-.17l-1.035-1.034c-.03-.03-.03-.08 0-.11" fill="#FFF"/><g fill="#16325C"><path d="M0 .188h10.732v229.995H0z"/></g><path d="M163.983 57v172.897" stroke="#E1E6EF" stroke-linecap="square"/><g><path stroke="#E1E6EF" fill="#FFF" d="M277 9.774h241v220.49H277z"/><g transform="translate(298.02 96.26)" fill="#E1E6EF"><rect x="8.108" y="1.982" width="57.225" height="1.081" rx="4"/><rect x="121.259" y="1.982" width="10.92" height="1.081" rx="4"/><rect x="8.108" y="7.027" width="102.9" height="1.081" rx="4"/><rect x="8.108" y="9.91" width="84.525" height="1.081" rx="4"/><rect x="8.108" y="12.793" width="93.45" height="1.081" rx="4"/><rect width="5.045" height="5.045" rx="4"/><path d="M2.162 4.865h.54v12.432h-.54z"/></g><g transform="translate(298.02 113.26)" fill="#E1E6EF"><rect x="8.108" y="1.982" width="57.225" height="1.081" rx="4"/><rect x="121.259" y="1.982" width="10.92" height="1.081" rx="4"/><rect x="8.108" y="7.027" width="102.9" height="1.081" rx="4"/><rect x="8.108" y="9.91" width="84.525" height="1.081" rx="4"/><rect x="8.108" y="12.793" width="93.45" height="1.081" rx="4"/><rect width="5.045" height="5.045" rx="4"/><path d="M2.162 4.865h.54v12.432h-.54z"/></g><g transform="translate(298.02 130.26)" fill="#E1E6EF"><rect x="8.108" y="1.982" width="57.225" height="1.081" rx="4"/><rect x="121.259" y="1.982" width="10.92" height="1.081" rx="4"/><rect x="8.108" y="7.027" width="102.9" height="1.081" rx="4"/><rect x="8.108" y="9.91" width="84.525" height="1.081" rx="4"/><rect x="8.108" y="12.793" width="93.45" height="1.081" rx="4"/><rect width="5.045" height="5.045" rx="4"/><path d="M2.162 4.865h.54v12.432h-.54z"/></g><g transform="translate(298.02 147.26)" fill="#E1E6EF"><rect x="8.108" y="1.982" width="57.225" height="1.081" rx="4"/><rect x="121.259" y="1.982" width="10.92" height="1.081" rx="4"/><rect x="8.108" y="7.027" width="102.9" height="1.081" rx="4"/><rect x="8.108" y="9.91" width="84.525" height="1.081" rx="4"/><rect x="8.108" y="12.793" width="93.45" height="1.081" rx="4"/><rect width="5.045" height="5.045" rx="4"/><path d="M2.162 4.865h.54v12.432h-.54z"/></g><g transform="translate(298.02 164.26)" fill="#E1E6EF"><rect x="8.108" y="1.982" width="57.225" height="1.081" rx="4"/><rect x="121.259" y="1.982" width="10.92" height="1.081" rx="4"/><rect x="8.108" y="7.027" width="102.9" height="1.081" rx="4"/><rect x="8.108" y="9.91" width="84.525" height="1.081" rx="4"/><rect x="8.108" y="12.793" width="93.45" height="1.081" rx="4"/><rect width="5.045" height="5.045" rx="4"/><path d="M2.162 4.865h.54v12.432h-.54z"/></g><g transform="translate(298.02 181.26)" fill="#E1E6EF"><rect x="8.108" y="1.982" width="57.225" height="1.081" rx="4"/><rect x="121.259" y="1.982" width="10.92" height="1.081" rx="4"/><rect x="8.108" y="7.027" width="102.9" height="1.081" rx="4"/><rect x="8.108" y="9.91" width="84.525" height="1.081" rx="4"/><rect x="8.108" y="12.793" width="93.45" height="1.081" rx="4"/><rect width="5.045" height="5.045" rx="4"/><path d="M2.162 4.865h.54v12.432h-.54z"/></g><g transform="translate(298.02 198.26)" fill="#E1E6EF"><rect x="8.108" y="1.982" width="57.225" height="1.081" rx="4"/><rect x="121.259" y="1.982" width="10.92" height="1.081" rx="4"/><rect x="8.108" y="7.027" width="102.9" height="1.081" rx="4"/><rect x="8.108" y="9.91" width="84.525" height="1.081" rx="4"/><rect x="8.108" y="12.793" width="93.45" height="1.081" rx="4"/><rect width="5.045" height="5.045" rx="4"/><path d="M2.162 4.865h.54v12.432h-.54z"/></g><g transform="translate(298.02 215.26)" fill="#E1E6EF"><rect x="8.108" y="1.982" width="57.225" height="1.081" rx="4"/><rect x="121.259" y="1.982" width="10.92" height="1.081" rx="4"/><rect x="8.108" y="7.027" width="102.9" height="1.081" rx="4"/><rect x="8.108" y="9.91" width="84.525" height="1.081" rx="4"/><rect width="5.045" height="5.045" rx="4"/><path d="M2.162 4.865h.54V14h-.54z"/></g><g transform="translate(298.2 70.314)"><path d="M115.31 9.91c-1.79 0-3.24 1.455-3.24 3.243 0 1.79 1.46 3.243 3.24 3.243h10.637c1.79 0 3.24-1.456 3.24-3.243 0-1.79-1.46-3.243-3.24-3.243H115.31z" stroke="#E1E6EF"/><path fill="#FFF" d="M0 0h17.117v7.387H0z"/><rect stroke="#E1E6EF" width="131.89" height="18.738" rx="1"/></g><path stroke="#E0E5EE" fill="#F7F9FB" d="M287.318 10.3H518V57.38H287.318z"/><path stroke="#E1E6EF" fill="#FFF" d="M277 0h241v11.09H277z"/><path stroke="#E1E6EF" fill="#C23934" d="M277 10h241v11.09H277z"/><path d="M509.85 15.405l1.036-1.035c.047-.047.047-.122 0-.168l-.167-.167c-.047-.047-.122-.047-.17 0l-1.034 1.035c-.03.03-.08.03-.11 0l-1.036-1.035c-.047-.047-.122-.047-.168 0l-.167.167c-.047.046-.047.12 0 .168l1.035 1.035c.03.03.03.08 0 .11l-1.035 1.036c-.047.048-.047.123 0 .17l.167.166c.046.047.12.047.168 0l1.035-1.035c.03-.03.08-.03.11 0l1.036 1.036c.048.047.123.047.17 0l.166-.167c.047-.047.047-.122 0-.17l-1.035-1.034c-.03-.03-.03-.08 0-.11" fill="#FFF"/><path d="M294.425 3.254c.3-.31.716-.505 1.178-.505.613 0 1.148.34 1.432.847.248-.11.522-.172.81-.172 1.106 0 2.002.903 2.002 2.016 0 1.115-.896 2.018-2.002 2.018-.135 0-.267-.014-.394-.04-.25.447-.728.75-1.277.75-.23 0-.447-.054-.64-.148-.254.597-.847 1.015-1.537 1.015-.72 0-1.332-.454-1.567-1.09-.104.02-.21.032-.32.032-.856 0-1.55-.7-1.55-1.563 0-.58.312-1.084.775-1.354-.095-.22-.148-.46-.148-.715 0-.994.808-1.8 1.804-1.8.586 0 1.105.28 1.435.71" fill="#1AA2DD"/><g fill="#16325C"><path d="M277 .188h10.732v229.995H277z"/></g><path d="M440.983 57v172.897" stroke="#E1E6EF" stroke-linecap="square"/></g></g></svg>