<?xml version="1.0" encoding="UTF-8" standalone="no"?>
<svg width="518px" height="231px" viewBox="0 0 518 231" version="1.1" xmlns="http://www.w3.org/2000/svg" xmlns:xlink="http://www.w3.org/1999/xlink" xmlns:sketch="http://www.bohemiancoding.com/sketch/ns">
    <!-- Generator: Sketch 3.3.3 (12081) - http://www.bohemiancoding.com/sketch -->
    <title>record copy 2 + record copy 3</title>
    <desc>Created with Sketch.</desc>
    <defs></defs>
    <g id="Page-1" stroke="none" stroke-width="1" fill="none" fill-rule="evenodd" sketch:type="MSPage">
        <g id="Messaging" sketch:type="MSArtboardGroup" transform="translate(-297.000000, -1413.000000)">
            <g id="record-copy-2-+-record-copy-3" sketch:type="MSLayerGroup" transform="translate(297.000000, 1413.000000)">
                <g id="record-copy-2" sketch:type="MSShapeGroup">
                    <rect id="bkgd" stroke="#E1E6EF" fill="#FFFFFF" x="0" y="9.77379984" width="241" height="220.490531"></rect>
                    <g id="Group-Copy-7" transform="translate(21.019531, 96.259058)" fill="#E1E6EF">
                        <rect id="Rectangle-232-Copy-14" x="8.10797003" y="1.98194823" width="57.2250744" height="1.08106267" rx="4"></rect>
                        <rect id="Rectangle-232-Copy-66" x="121.259196" y="1.98194823" width="10.9195567" height="1.08106267" rx="4"></rect>
                        <rect id="Rectangle-232-Copy-15" x="8.10797003" y="7.02690736" width="102.900134" height="1.08106267" rx="4"></rect>
                        <rect id="Rectangle-232-Copy-16" x="8.10797003" y="9.90974114" width="84.5251099" height="1.08106267" rx="4"></rect>
                        <rect id="Rectangle-232-Copy-17" x="8.10797003" y="12.7925749" width="93.4501216" height="1.08106267" rx="4"></rect>
                        <g id="event-icon-copy">
                            <rect id="Rectangle-48" x="0" y="0" width="5.04495913" height="5.04495913" rx="4"></rect>
                        </g>
                        <rect id="Rectangle-278" x="2.16212534" y="4.86478202" width="0.540531335" height="12.4322207"></rect>
                    </g>
                    <g id="Group-Copy-8" transform="translate(21.019531, 113.259058)" fill="#E1E6EF">
                        <rect id="Rectangle-232-Copy-14" x="8.10797003" y="1.98194823" width="57.2250744" height="1.08106267" rx="4"></rect>
                        <rect id="Rectangle-232-Copy-66" x="121.259196" y="1.98194823" width="10.9195567" height="1.08106267" rx="4"></rect>
                        <rect id="Rectangle-232-Copy-15" x="8.10797003" y="7.02690736" width="102.900134" height="1.08106267" rx="4"></rect>
                        <rect id="Rectangle-232-Copy-16" x="8.10797003" y="9.90974114" width="84.5251099" height="1.08106267" rx="4"></rect>
                        <rect id="Rectangle-232-Copy-17" x="8.10797003" y="12.7925749" width="93.4501216" height="1.08106267" rx="4"></rect>
                        <g id="event-icon-copy">
                            <rect id="Rectangle-48" x="0" y="0" width="5.04495913" height="5.04495913" rx="4"></rect>
                        </g>
                        <rect id="Rectangle-278" x="2.16212534" y="4.86478202" width="0.540531335" height="12.4322207"></rect>
                    </g>
                    <g id="Group-Copy-9" transform="translate(21.019531, 130.259058)" fill="#E1E6EF">
                        <rect id="Rectangle-232-Copy-14" x="8.10797003" y="1.98194823" width="57.2250744" height="1.08106267" rx="4"></rect>
                        <rect id="Rectangle-232-Copy-66" x="121.259196" y="1.98194823" width="10.9195567" height="1.08106267" rx="4"></rect>
                        <rect id="Rectangle-232-Copy-15" x="8.10797003" y="7.02690736" width="102.900134" height="1.08106267" rx="4"></rect>
                        <rect id="Rectangle-232-Copy-16" x="8.10797003" y="9.90974114" width="84.5251099" height="1.08106267" rx="4"></rect>
                        <rect id="Rectangle-232-Copy-17" x="8.10797003" y="12.7925749" width="93.4501216" height="1.08106267" rx="4"></rect>
                        <g id="event-icon-copy">
                            <rect id="Rectangle-48" x="0" y="0" width="5.04495913" height="5.04495913" rx="4"></rect>
                        </g>
                        <rect id="Rectangle-278" x="2.16212534" y="4.86478202" width="0.540531335" height="12.4322207"></rect>
                    </g>
                    <g id="Group-Copy-10" transform="translate(21.019531, 147.259058)" fill="#E1E6EF">
                        <rect id="Rectangle-232-Copy-14" x="8.10797003" y="1.98194823" width="57.2250744" height="1.08106267" rx="4"></rect>
                        <rect id="Rectangle-232-Copy-66" x="121.259196" y="1.98194823" width="10.9195567" height="1.08106267" rx="4"></rect>
                        <rect id="Rectangle-232-Copy-15" x="8.10797003" y="7.02690736" width="102.900134" height="1.08106267" rx="4"></rect>
                        <rect id="Rectangle-232-Copy-16" x="8.10797003" y="9.90974114" width="84.5251099" height="1.08106267" rx="4"></rect>
                        <rect id="Rectangle-232-Copy-17" x="8.10797003" y="12.7925749" width="93.4501216" height="1.08106267" rx="4"></rect>
                        <g id="event-icon-copy">
                            <rect id="Rectangle-48" x="0" y="0" width="5.04495913" height="5.04495913" rx="4"></rect>
                        </g>
                        <rect id="Rectangle-278" x="2.16212534" y="4.86478202" width="0.540531335" height="12.4322207"></rect>
                    </g>
                    <g id="Group-Copy-12" transform="translate(21.019531, 164.259058)" fill="#E1E6EF">
                        <rect id="Rectangle-232-Copy-14" x="8.10797003" y="1.98194823" width="57.2250744" height="1.08106267" rx="4"></rect>
                        <rect id="Rectangle-232-Copy-66" x="121.259196" y="1.98194823" width="10.9195567" height="1.08106267" rx="4"></rect>
                        <rect id="Rectangle-232-Copy-15" x="8.10797003" y="7.02690736" width="102.900134" height="1.08106267" rx="4"></rect>
                        <rect id="Rectangle-232-Copy-16" x="8.10797003" y="9.90974114" width="84.5251099" height="1.08106267" rx="4"></rect>
                        <rect id="Rectangle-232-Copy-17" x="8.10797003" y="12.7925749" width="93.4501216" height="1.08106267" rx="4"></rect>
                        <g id="event-icon-copy">
                            <rect id="Rectangle-48" x="0" y="0" width="5.04495913" height="5.04495913" rx="4"></rect>
                        </g>
                        <rect id="Rectangle-278" x="2.16212534" y="4.86478202" width="0.540531335" height="12.4322207"></rect>
                    </g>
                    <g id="Group-Copy-13" transform="translate(21.019531, 181.259058)" fill="#E1E6EF">
                        <rect id="Rectangle-232-Copy-14" x="8.10797003" y="1.98194823" width="57.2250744" height="1.08106267" rx="4"></rect>
                        <rect id="Rectangle-232-Copy-66" x="121.259196" y="1.98194823" width="10.9195567" height="1.08106267" rx="4"></rect>
                        <rect id="Rectangle-232-Copy-15" x="8.10797003" y="7.02690736" width="102.900134" height="1.08106267" rx="4"></rect>
                        <rect id="Rectangle-232-Copy-16" x="8.10797003" y="9.90974114" width="84.5251099" height="1.08106267" rx="4"></rect>
                        <rect id="Rectangle-232-Copy-17" x="8.10797003" y="12.7925749" width="93.4501216" height="1.08106267" rx="4"></rect>
                        <g id="event-icon-copy">
                            <rect id="Rectangle-48" x="0" y="0" width="5.04495913" height="5.04495913" rx="4"></rect>
                        </g>
                        <rect id="Rectangle-278" x="2.16212534" y="4.86478202" width="0.540531335" height="12.4322207"></rect>
                    </g>
                    <g id="Group-Copy-14" transform="translate(21.019531, 198.259058)" fill="#E1E6EF">
                        <rect id="Rectangle-232-Copy-14" x="8.10797003" y="1.98194823" width="57.2250744" height="1.08106267" rx="4"></rect>
                        <rect id="Rectangle-232-Copy-66" x="121.259196" y="1.98194823" width="10.9195567" height="1.08106267" rx="4"></rect>
                        <rect id="Rectangle-232-Copy-15" x="8.10797003" y="7.02690736" width="102.900134" height="1.08106267" rx="4"></rect>
                        <rect id="Rectangle-232-Copy-16" x="8.10797003" y="9.90974114" width="84.5251099" height="1.08106267" rx="4"></rect>
                        <rect id="Rectangle-232-Copy-17" x="8.10797003" y="12.7925749" width="93.4501216" height="1.08106267" rx="4"></rect>
                        <g id="event-icon-copy">
                            <rect id="Rectangle-48" x="0" y="0" width="5.04495913" height="5.04495913" rx="4"></rect>
                        </g>
                        <rect id="Rectangle-278" x="2.16212534" y="4.86478202" width="0.540531335" height="12.4322207"></rect>
                    </g>
                    <g id="Group-Copy-15" transform="translate(21.019531, 215.259058)" fill="#E1E6EF">
                        <rect id="Rectangle-232-Copy-14" x="8.10797003" y="1.98194823" width="57.2250744" height="1.08106267" rx="4"></rect>
                        <rect id="Rectangle-232-Copy-66" x="121.259196" y="1.98194823" width="10.9195567" height="1.08106267" rx="4"></rect>
                        <rect id="Rectangle-232-Copy-15" x="8.10797003" y="7.02690736" width="102.900134" height="1.08106267" rx="4"></rect>
                        <rect id="Rectangle-232-Copy-16" x="8.10797003" y="9.90974114" width="84.5251099" height="1.08106267" rx="4"></rect>
                        <g id="event-icon-copy">
                            <rect id="Rectangle-48" x="0" y="0" width="5.04495913" height="5.04495913" rx="4"></rect>
                        </g>
                        <rect id="Rectangle-278" x="2.16212534" y="4.86478202" width="0.540531335" height="9.13521798"></rect>
                    </g>
                    <g id="Group-Copy-11" transform="translate(21.199708, 70.313554)">
                        <path d="M115.309831,9.90974114 C113.520612,9.90974114 112.070163,11.3654105 112.070163,13.1529292 L112.070163,13.1529292 C112.070163,14.9440924 113.529534,16.3961172 115.309831,16.3961172 L125.947322,16.3961172 C127.736541,16.3961172 129.186989,14.9404478 129.186989,13.1529292 L129.186989,13.1529292 C129.186989,11.3617659 127.727618,9.90974114 125.947322,9.90974114 L115.309831,9.90974114 Z" id="Rectangle-827-Copy" stroke="#E1E6EF"></path>
                        <rect id="Rectangle-473" fill="#FFFFFF" x="0" y="0" width="17.1168256" height="7.38726158"></rect>
                        <rect id="Rectangle-210-Copy" stroke="#E1E6EF" x="0" y="0" width="131.889646" height="18.7384196" rx="1"></rect>
                    </g>
                    <rect id="Rectangle-553" stroke="#E0E5EE" fill="#F7F9FB" x="10.3180428" y="10.2993631" width="230.681957" height="47.0828025"></rect>
                    <g id="Component---Top-Bar-Copy-12">
                        <rect id="Background" stroke="#E1E6EF" fill="#FFFFFF" x="0" y="0" width="241" height="11.0895037"></rect>
                        <rect id="Background-Copy" stroke="#E1E6EF" fill="#04844B" x="0" y="10" width="241" height="11.0895037"></rect>
                        <path d="M17.4249624,3.2540634 C17.724487,2.94258665 18.1414386,2.74932182 18.6026298,2.74932182 C19.2156048,2.74932182 19.7505047,3.0905399 20.0352587,3.59716498 C20.2828709,3.48673819 20.5568077,3.42528234 20.8450477,3.42528234 C21.9507134,3.42528234 22.8470948,4.32794426 22.8470948,5.44146827 C22.8470948,6.55501022 21.9507134,7.45765421 20.8450477,7.45765421 C20.7100469,7.45765421 20.5781727,7.4441289 20.4506471,7.41844157 C20.1998903,7.86499204 19.7218262,8.16672842 19.1732879,8.16672842 C18.9436806,8.16672842 18.7264359,8.11382903 18.5330001,8.01961825 C18.2787933,8.61670505 17.6863029,9.03534387 16.9959896,9.03534387 C16.2769618,9.03534387 15.6641306,8.58122354 15.4290247,7.94427834 C15.3261884,7.96596547 15.2196505,7.97739202 15.1104172,7.97739202 C14.2543582,7.97739202 13.5604151,7.27741242 13.5604151,6.41392725 C13.5604151,5.83522698 13.8721405,5.32998313 14.335488,5.05963839 C14.2400729,4.84047097 14.1871183,4.59870158 14.1871183,4.34453698 C14.1871183,3.35141334 14.9946432,2.54633455 15.9908062,2.54633455 C16.5756597,2.54633455 17.0953938,2.82390834 17.4249624,3.2540634" id="Fill-1-Copy" fill="#1AA2DD"></path>
                        <path d="M232.851197,15.4047007 L233.886355,14.3696217 C233.932539,14.3233586 233.932539,14.2483586 233.886355,14.2020954 L233.718829,14.034727 C233.672645,13.9884638 233.597645,13.9883849 233.551382,14.034727 L232.516303,15.0698059 C232.485434,15.1005954 232.435539,15.1005954 232.404671,15.0698059 L231.369592,14.034727 C231.323329,13.9883849 231.248329,13.9884638 231.202145,14.034727 L231.034697,14.2020954 C230.988434,14.2483586 230.988434,14.3233586 231.034697,14.3696217 L232.069776,15.4047007 C232.100566,15.4355691 232.100566,15.4854638 232.069776,15.5163322 L231.034697,16.5514112 C230.988434,16.5976743 230.988434,16.6726743 231.034697,16.7189375 L231.202145,16.8863059 C231.248329,16.9325691 231.323329,16.9325691 231.369592,16.8863059 L232.404671,15.851227 C232.435539,15.8204375 232.485434,15.8204375 232.516303,15.851227 L233.551382,16.8863059 C233.597645,16.9325691 233.672645,16.9325691 233.718829,16.8863059 L233.886355,16.7189375 C233.932539,16.6726743 233.932539,16.5976743 233.886355,16.5514112 L232.851197,15.5163322 C232.820408,15.4854638 232.820408,15.4355691 232.851197,15.4047007" id="Imported-Layers" fill="#FFFFFF"></path>
                    </g>
                    <g id="Component---Left-Bar---Expanded-Copy-16" transform="translate(0.000000, 0.187958)" fill="#16325C">
                        <rect id="BG" x="0" y="0" width="10.7320313" height="229.994584"></rect>
                    </g>
                    <path d="M163.98318,57.0002445 L163.98318,229.896503" id="Line-Copy-2" stroke="#E1E6EF" stroke-linecap="square"></path>
                </g>
                <g id="record-copy-3" transform="translate(277.000000, 0.000000)" sketch:type="MSShapeGroup">
                    <rect id="bkgd" stroke="#E1E6EF" fill="#FFFFFF" x="0" y="9.77379984" width="241" height="220.490531"></rect>
                    <g id="Group-Copy-7" transform="translate(21.019531, 96.259058)" fill="#E1E6EF">
                        <rect id="Rectangle-232-Copy-14" x="8.10797003" y="1.98194823" width="57.2250744" height="1.08106267" rx="4"></rect>
                        <rect id="Rectangle-232-Copy-66" x="121.259196" y="1.98194823" width="10.9195567" height="1.08106267" rx="4"></rect>
                        <rect id="Rectangle-232-Copy-15" x="8.10797003" y="7.02690736" width="102.900134" height="1.08106267" rx="4"></rect>
                        <rect id="Rectangle-232-Copy-16" x="8.10797003" y="9.90974114" width="84.5251099" height="1.08106267" rx="4"></rect>
                        <rect id="Rectangle-232-Copy-17" x="8.10797003" y="12.7925749" width="93.4501216" height="1.08106267" rx="4"></rect>
                        <g id="event-icon-copy">
                            <rect id="Rectangle-48" x="0" y="0" width="5.04495913" height="5.04495913" rx="4"></rect>
                        </g>
                        <rect id="Rectangle-278" x="2.16212534" y="4.86478202" width="0.540531335" height="12.4322207"></rect>
                    </g>
                    <g id="Group-Copy-8" transform="translate(21.019531, 113.259058)" fill="#E1E6EF">
                        <rect id="Rectangle-232-Copy-14" x="8.10797003" y="1.98194823" width="57.2250744" height="1.08106267" rx="4"></rect>
                        <rect id="Rectangle-232-Copy-66" x="121.259196" y="1.98194823" width="10.9195567" height="1.08106267" rx="4"></rect>
                        <rect id="Rectangle-232-Copy-15" x="8.10797003" y="7.02690736" width="102.900134" height="1.08106267" rx="4"></rect>
                        <rect id="Rectangle-232-Copy-16" x="8.10797003" y="9.90974114" width="84.5251099" height="1.08106267" rx="4"></rect>
                        <rect id="Rectangle-232-Copy-17" x="8.10797003" y="12.7925749" width="93.4501216" height="1.08106267" rx="4"></rect>
                        <g id="event-icon-copy">
                            <rect id="Rectangle-48" x="0" y="0" width="5.04495913" height="5.04495913" rx="4"></rect>
                        </g>
                        <rect id="Rectangle-278" x="2.16212534" y="4.86478202" width="0.540531335" height="12.4322207"></rect>
                    </g>
                    <g id="Group-Copy-9" transform="translate(21.019531, 130.259058)" fill="#E1E6EF">
                        <rect id="Rectangle-232-Copy-14" x="8.10797003" y="1.98194823" width="57.2250744" height="1.08106267" rx="4"></rect>
                        <rect id="Rectangle-232-Copy-66" x="121.259196" y="1.98194823" width="10.9195567" height="1.08106267" rx="4"></rect>
                        <rect id="Rectangle-232-Copy-15" x="8.10797003" y="7.02690736" width="102.900134" height="1.08106267" rx="4"></rect>
                        <rect id="Rectangle-232-Copy-16" x="8.10797003" y="9.90974114" width="84.5251099" height="1.08106267" rx="4"></rect>
                        <rect id="Rectangle-232-Copy-17" x="8.10797003" y="12.7925749" width="93.4501216" height="1.08106267" rx="4"></rect>
                        <g id="event-icon-copy">
                            <rect id="Rectangle-48" x="0" y="0" width="5.04495913" height="5.04495913" rx="4"></rect>
                        </g>
                        <rect id="Rectangle-278" x="2.16212534" y="4.86478202" width="0.540531335" height="12.4322207"></rect>
                    </g>
                    <g id="Group-Copy-10" transform="translate(21.019531, 147.259058)" fill="#E1E6EF">
                        <rect id="Rectangle-232-Copy-14" x="8.10797003" y="1.98194823" width="57.2250744" height="1.08106267" rx="4"></rect>
                        <rect id="Rectangle-232-Copy-66" x="121.259196" y="1.98194823" width="10.9195567" height="1.08106267" rx="4"></rect>
                        <rect id="Rectangle-232-Copy-15" x="8.10797003" y="7.02690736" width="102.900134" height="1.08106267" rx="4"></rect>
                        <rect id="Rectangle-232-Copy-16" x="8.10797003" y="9.90974114" width="84.5251099" height="1.08106267" rx="4"></rect>
                        <rect id="Rectangle-232-Copy-17" x="8.10797003" y="12.7925749" width="93.4501216" height="1.08106267" rx="4"></rect>
                        <g id="event-icon-copy">
                            <rect id="Rectangle-48" x="0" y="0" width="5.04495913" height="5.04495913" rx="4"></rect>
                        </g>
                        <rect id="Rectangle-278" x="2.16212534" y="4.86478202" width="0.540531335" height="12.4322207"></rect>
                    </g>
                    <g id="Group-Copy-12" transform="translate(21.019531, 164.259058)" fill="#E1E6EF">
                        <rect id="Rectangle-232-Copy-14" x="8.10797003" y="1.98194823" width="57.2250744" height="1.08106267" rx="4"></rect>
                        <rect id="Rectangle-232-Copy-66" x="121.259196" y="1.98194823" width="10.9195567" height="1.08106267" rx="4"></rect>
                        <rect id="Rectangle-232-Copy-15" x="8.10797003" y="7.02690736" width="102.900134" height="1.08106267" rx="4"></rect>
                        <rect id="Rectangle-232-Copy-16" x="8.10797003" y="9.90974114" width="84.5251099" height="1.08106267" rx="4"></rect>
                        <rect id="Rectangle-232-Copy-17" x="8.10797003" y="12.7925749" width="93.4501216" height="1.08106267" rx="4"></rect>
                        <g id="event-icon-copy">
                            <rect id="Rectangle-48" x="0" y="0" width="5.04495913" height="5.04495913" rx="4"></rect>
                        </g>
                        <rect id="Rectangle-278" x="2.16212534" y="4.86478202" width="0.540531335" height="12.4322207"></rect>
                    </g>
                    <g id="Group-Copy-13" transform="translate(21.019531, 181.259058)" fill="#E1E6EF">
                        <rect id="Rectangle-232-Copy-14" x="8.10797003" y="1.98194823" width="57.2250744" height="1.08106267" rx="4"></rect>
                        <rect id="Rectangle-232-Copy-66" x="121.259196" y="1.98194823" width="10.9195567" height="1.08106267" rx="4"></rect>
                        <rect id="Rectangle-232-Copy-15" x="8.10797003" y="7.02690736" width="102.900134" height="1.08106267" rx="4"></rect>
                        <rect id="Rectangle-232-Copy-16" x="8.10797003" y="9.90974114" width="84.5251099" height="1.08106267" rx="4"></rect>
                        <rect id="Rectangle-232-Copy-17" x="8.10797003" y="12.7925749" width="93.4501216" height="1.08106267" rx="4"></rect>
                        <g id="event-icon-copy">
                            <rect id="Rectangle-48" x="0" y="0" width="5.04495913" height="5.04495913" rx="4"></rect>
                        </g>
                        <rect id="Rectangle-278" x="2.16212534" y="4.86478202" width="0.540531335" height="12.4322207"></rect>
                    </g>
                    <g id="Group-Copy-14" transform="translate(21.019531, 198.259058)" fill="#E1E6EF">
                        <rect id="Rectangle-232-Copy-14" x="8.10797003" y="1.98194823" width="57.2250744" height="1.08106267" rx="4"></rect>
                        <rect id="Rectangle-232-Copy-66" x="121.259196" y="1.98194823" width="10.9195567" height="1.08106267" rx="4"></rect>
                        <rect id="Rectangle-232-Copy-15" x="8.10797003" y="7.02690736" width="102.900134" height="1.08106267" rx="4"></rect>
                        <rect id="Rectangle-232-Copy-16" x="8.10797003" y="9.90974114" width="84.5251099" height="1.08106267" rx="4"></rect>
                        <rect id="Rectangle-232-Copy-17" x="8.10797003" y="12.7925749" width="93.4501216" height="1.08106267" rx="4"></rect>
                        <g id="event-icon-copy">
                            <rect id="Rectangle-48" x="0" y="0" width="5.04495913" height="5.04495913" rx="4"></rect>
                        </g>
                        <rect id="Rectangle-278" x="2.16212534" y="4.86478202" width="0.540531335" height="12.4322207"></rect>
                    </g>
                    <g id="Group-Copy-15" transform="translate(21.019531, 215.259058)" fill="#E1E6EF">
                        <rect id="Rectangle-232-Copy-14" x="8.10797003" y="1.98194823" width="57.2250744" height="1.08106267" rx="4"></rect>
                        <rect id="Rectangle-232-Copy-66" x="121.259196" y="1.98194823" width="10.9195567" height="1.08106267" rx="4"></rect>
                        <rect id="Rectangle-232-Copy-15" x="8.10797003" y="7.02690736" width="102.900134" height="1.08106267" rx="4"></rect>
                        <rect id="Rectangle-232-Copy-16" x="8.10797003" y="9.90974114" width="84.5251099" height="1.08106267" rx="4"></rect>
                        <g id="event-icon-copy">
                            <rect id="Rectangle-48" x="0" y="0" width="5.04495913" height="5.04495913" rx="4"></rect>
                        </g>
                        <rect id="Rectangle-278" x="2.16212534" y="4.86478202" width="0.540531335" height="9.13521798"></rect>
                    </g>
                    <g id="Group-Copy-11" transform="translate(21.199708, 70.313554)">
                        <path d="M115.309831,9.90974114 C113.520612,9.90974114 112.070163,11.3654105 112.070163,13.1529292 L112.070163,13.1529292 C112.070163,14.9440924 113.529534,16.3961172 115.309831,16.3961172 L125.947322,16.3961172 C127.736541,16.3961172 129.186989,14.9404478 129.186989,13.1529292 L129.186989,13.1529292 C129.186989,11.3617659 127.727618,9.90974114 125.947322,9.90974114 L115.309831,9.90974114 Z" id="Rectangle-827-Copy" stroke="#E1E6EF"></path>
                        <rect id="Rectangle-473" fill="#FFFFFF" x="0" y="0" width="17.1168256" height="7.38726158"></rect>
                        <rect id="Rectangle-210-Copy" stroke="#E1E6EF" x="0" y="0" width="131.889646" height="18.7384196" rx="1"></rect>
                    </g>
                    <rect id="Rectangle-553" stroke="#E0E5EE" fill="#F7F9FB" x="10.3180428" y="10.2993631" width="230.681957" height="47.0828025"></rect>
                    <g id="Component---Top-Bar-Copy-12">
                        <rect id="Background" stroke="#E1E6EF" fill="#FFFFFF" x="0" y="0" width="241" height="11.0895037"></rect>
                        <rect id="Background-Copy" stroke="#E1E6EF" fill="#C23934" x="0" y="10" width="241" height="11.0895037"></rect>
                        <path d="M232.851197,15.4047007 L233.886355,14.3696217 C233.932539,14.3233586 233.932539,14.2483586 233.886355,14.2020954 L233.718829,14.034727 C233.672645,13.9884638 233.597645,13.9883849 233.551382,14.034727 L232.516303,15.0698059 C232.485434,15.1005954 232.435539,15.1005954 232.404671,15.0698059 L231.369592,14.034727 C231.323329,13.9883849 231.248329,13.9884638 231.202145,14.034727 L231.034697,14.2020954 C230.988434,14.2483586 230.988434,14.3233586 231.034697,14.3696217 L232.069776,15.4047007 C232.100566,15.4355691 232.100566,15.4854638 232.069776,15.5163322 L231.034697,16.5514112 C230.988434,16.5976743 230.988434,16.6726743 231.034697,16.7189375 L231.202145,16.8863059 C231.248329,16.9325691 231.323329,16.9325691 231.369592,16.8863059 L232.404671,15.851227 C232.435539,15.8204375 232.485434,15.8204375 232.516303,15.851227 L233.551382,16.8863059 C233.597645,16.9325691 233.672645,16.9325691 233.718829,16.8863059 L233.886355,16.7189375 C233.932539,16.6726743 233.932539,16.5976743 233.886355,16.5514112 L232.851197,15.5163322 C232.820408,15.4854638 232.820408,15.4355691 232.851197,15.4047007" id="Imported-Layers-Copy-2" fill="#FFFFFF"></path>
                        <path d="M17.4249624,3.2540634 C17.724487,2.94258665 18.1414386,2.74932182 18.6026298,2.74932182 C19.2156048,2.74932182 19.7505047,3.0905399 20.0352587,3.59716498 C20.2828709,3.48673819 20.5568077,3.42528234 20.8450477,3.42528234 C21.9507134,3.42528234 22.8470948,4.32794426 22.8470948,5.44146827 C22.8470948,6.55501022 21.9507134,7.45765421 20.8450477,7.45765421 C20.7100469,7.45765421 20.5781727,7.4441289 20.4506471,7.41844157 C20.1998903,7.86499204 19.7218262,8.16672842 19.1732879,8.16672842 C18.9436806,8.16672842 18.7264359,8.11382903 18.5330001,8.01961825 C18.2787933,8.61670505 17.6863029,9.03534387 16.9959896,9.03534387 C16.2769618,9.03534387 15.6641306,8.58122354 15.4290247,7.94427834 C15.3261884,7.96596547 15.2196505,7.97739202 15.1104172,7.97739202 C14.2543582,7.97739202 13.5604151,7.27741242 13.5604151,6.41392725 C13.5604151,5.83522698 13.8721405,5.32998313 14.335488,5.05963839 C14.2400729,4.84047097 14.1871183,4.59870158 14.1871183,4.34453698 C14.1871183,3.35141334 14.9946432,2.54633455 15.9908062,2.54633455 C16.5756597,2.54633455 17.0953938,2.82390834 17.4249624,3.2540634" id="Fill-1-Copy" fill="#1AA2DD"></path>
                    </g>
                    <g id="Component---Left-Bar---Expanded-Copy-16" transform="translate(0.000000, 0.187958)" fill="#16325C">
                        <rect id="BG" x="0" y="0" width="10.7320313" height="229.994584"></rect>
                    </g>
                    <path d="M163.98318,57.0002445 L163.98318,229.896503" id="Line-Copy-2" stroke="#E1E6EF" stroke-linecap="square"></path>
                </g>
            </g>
        </g>
    </g>
</svg>