<?xml version="1.0" encoding="utf-8"?>
<!-- Generator: Adobe Illustrator 19.1.0, SVG Export Plug-In . SVG Version: 6.00 Build 0)  -->
<svg version="1.1" id="Layer_1" xmlns="http://www.w3.org/2000/svg" xmlns:xlink="http://www.w3.org/1999/xlink" x="0px" y="0px"
	 width="857.1px" height="169.2px" viewBox="0 0 857.1 169.2" style="enable-background:new 0 0 857.1 169.2;" xml:space="preserve"
	>
<style type="text/css">
	.st0{clip-path:url(#SVGID_2_);fill:#03844B;}
	.st1{clip-path:url(#SVGID_4_);fill:#037F48;}
	.st2{clip-path:url(#SVGID_6_);fill:#037F48;}
	.st3{clip-path:url(#SVGID_8_);fill:#037F48;}
	.st4{clip-path:url(#SVGID_10_);fill:#037F48;}
	.st5{clip-path:url(#SVGID_12_);fill:#037F48;}
	.st6{clip-path:url(#SVGID_14_);fill:#037F48;}
	.st7{clip-path:url(#SVGID_16_);fill:#037F48;}
	.st8{clip-path:url(#SVGID_18_);fill:#037F48;}
	.st9{clip-path:url(#SVGID_20_);fill:#037F48;}
	.st10{clip-path:url(#SVGID_22_);fill:#037F48;}
	.st11{clip-path:url(#SVGID_24_);fill:#037F48;}
	.st12{clip-path:url(#SVGID_26_);fill:#037F48;}
	.st13{clip-path:url(#SVGID_28_);fill:#037F48;}
	.st14{clip-path:url(#SVGID_30_);fill:#037F48;}
	.st15{clip-path:url(#SVGID_32_);fill:#037F48;}
	.st16{clip-path:url(#SVGID_34_);fill:#037F48;}
	.st17{clip-path:url(#SVGID_36_);fill:#037F48;}
	.st18{clip-path:url(#SVGID_38_);fill:#037F48;}
	.st19{clip-path:url(#SVGID_40_);fill:#C4372F;}
	.st20{clip-path:url(#SVGID_42_);fill:#BD362D;}
	.st21{clip-path:url(#SVGID_44_);fill:#BD362D;}
	.st22{clip-path:url(#SVGID_46_);fill:#BD362D;}
	.st23{clip-path:url(#SVGID_48_);fill:#BD362D;}
	.st24{clip-path:url(#SVGID_50_);fill:#BD362D;}
	.st25{clip-path:url(#SVGID_52_);fill:#BD362D;}
	.st26{clip-path:url(#SVGID_54_);fill:#BD362D;}
	.st27{clip-path:url(#SVGID_56_);fill:#BD362D;}
	.st28{clip-path:url(#SVGID_58_);fill:#BD362D;}
	.st29{clip-path:url(#SVGID_60_);fill:#BD362D;}
	.st30{clip-path:url(#SVGID_62_);fill:#BD362D;}
	.st31{clip-path:url(#SVGID_64_);fill:#BD362D;}
	.st32{clip-path:url(#SVGID_66_);fill:#BD362D;}
	.st33{clip-path:url(#SVGID_68_);fill:#BD362D;}
	.st34{clip-path:url(#SVGID_70_);fill:#BD362D;}
	.st35{clip-path:url(#SVGID_72_);fill:#BD362D;}
	.st36{clip-path:url(#SVGID_74_);fill:#BD362D;}
	.st37{clip-path:url(#SVGID_76_);fill:#BD362D;}
	.st38{clip-path:url(#SVGID_78_);fill:#444444;}
	.st39{clip-path:url(#SVGID_80_);fill:#414141;}
	.st40{clip-path:url(#SVGID_82_);fill:#414141;}
	.st41{clip-path:url(#SVGID_84_);fill:#414141;}
	.st42{clip-path:url(#SVGID_86_);fill:#414141;}
	.st43{clip-path:url(#SVGID_88_);fill:#414141;}
	.st44{clip-path:url(#SVGID_90_);fill:#414141;}
	.st45{clip-path:url(#SVGID_92_);fill:#414141;}
	.st46{clip-path:url(#SVGID_94_);fill:#414141;}
	.st47{clip-path:url(#SVGID_96_);fill:#414141;}
	.st48{clip-path:url(#SVGID_98_);fill:#414141;}
	.st49{clip-path:url(#SVGID_100_);fill:#414141;}
	.st50{clip-path:url(#SVGID_102_);fill:#414141;}
	.st51{clip-path:url(#SVGID_104_);fill:#414141;}
	.st52{clip-path:url(#SVGID_106_);fill:#414141;}
	.st53{clip-path:url(#SVGID_108_);fill:#414141;}
	.st54{clip-path:url(#SVGID_110_);fill:#414141;}
	.st55{clip-path:url(#SVGID_112_);fill:#414141;}
	.st56{clip-path:url(#SVGID_114_);fill:#414141;}
	.st57{clip-path:url(#SVGID_116_);fill:#53688E;}
	.st58{clip-path:url(#SVGID_118_);fill:#506489;}
	.st59{clip-path:url(#SVGID_120_);fill:#506489;}
	.st60{clip-path:url(#SVGID_122_);fill:#506489;}
	.st61{clip-path:url(#SVGID_124_);fill:#506489;}
	.st62{clip-path:url(#SVGID_126_);fill:#506489;}
	.st63{clip-path:url(#SVGID_128_);fill:#506489;}
	.st64{clip-path:url(#SVGID_130_);fill:#506489;}
	.st65{clip-path:url(#SVGID_132_);fill:#506489;}
	.st66{clip-path:url(#SVGID_134_);fill:#506489;}
	.st67{clip-path:url(#SVGID_136_);fill:#506489;}
	.st68{clip-path:url(#SVGID_138_);fill:#506489;}
	.st69{clip-path:url(#SVGID_140_);fill:#506489;}
	.st70{clip-path:url(#SVGID_142_);fill:#506489;}
	.st71{clip-path:url(#SVGID_144_);fill:#506489;}
	.st72{clip-path:url(#SVGID_146_);fill:#506489;}
	.st73{clip-path:url(#SVGID_148_);fill:#506489;}
	.st74{clip-path:url(#SVGID_150_);fill:#506489;}
	.st75{clip-path:url(#SVGID_152_);fill:#506489;}
	.st76{clip-path:url(#SVGID_154_);fill:#FFFFFF;}
	.st77{clip-path:url(#SVGID_156_);fill:#FFFFFF;}
	.st78{clip-path:url(#SVGID_158_);fill:#FFFFFF;}
	.st79{clip-path:url(#SVGID_160_);fill:#FFFFFF;}
</style>
<g>
	<g>
		<defs>
			<rect id="SVGID_1_" y="45.3" width="856.6" height="34"/>
		</defs>
		<clipPath id="SVGID_2_">
			<use xlink:href="#SVGID_1_"  style="overflow:visible;"/>
		</clipPath>
		<rect x="-5" y="40.3" class="st0" width="866.6" height="44"/>
	</g>
</g>
<g>
	<g>
		<defs>
			<polyline id="SVGID_3_" points="0.5,46.3 33.8,78.8 60,78.8 27.1,46.3 0.5,46.3 			"/>
		</defs>
		<clipPath id="SVGID_4_">
			<use xlink:href="#SVGID_3_"  style="overflow:visible;"/>
		</clipPath>
		<rect x="-4.5" y="41.3" class="st1" width="69.5" height="42.5"/>
	</g>
</g>
<g>
	<g>
		<defs>
			<polyline id="SVGID_5_" points="53.2,46.3 86.5,78.8 112.6,78.8 79.8,46.3 53.2,46.3 			"/>
		</defs>
		<clipPath id="SVGID_6_">
			<use xlink:href="#SVGID_5_"  style="overflow:visible;"/>
		</clipPath>
		<rect x="48.2" y="41.3" class="st2" width="69.5" height="42.5"/>
	</g>
</g>
<g>
	<g>
		<defs>
			<polyline id="SVGID_7_" points="105.7,46.3 139.1,78.8 165.2,78.8 132.3,46.3 105.7,46.3 			"/>
		</defs>
		<clipPath id="SVGID_8_">
			<use xlink:href="#SVGID_7_"  style="overflow:visible;"/>
		</clipPath>
		<rect x="100.7" y="41.3" class="st3" width="69.5" height="42.5"/>
	</g>
</g>
<g>
	<g>
		<defs>
			<polyline id="SVGID_9_" points="158.4,46.3 191.7,78.8 217.9,78.8 185,46.3 158.4,46.3 			"/>
		</defs>
		<clipPath id="SVGID_10_">
			<use xlink:href="#SVGID_9_"  style="overflow:visible;"/>
		</clipPath>
		<rect x="153.4" y="41.3" class="st4" width="69.5" height="42.5"/>
	</g>
</g>
<g>
	<g>
		<defs>
			<polyline id="SVGID_11_" points="211.2,46.3 244.6,78.8 270.7,78.8 237.8,46.3 211.2,46.3 			"/>
		</defs>
		<clipPath id="SVGID_12_">
			<use xlink:href="#SVGID_11_"  style="overflow:visible;"/>
		</clipPath>
		<rect x="206.2" y="41.3" class="st5" width="69.5" height="42.5"/>
	</g>
</g>
<g>
	<g>
		<defs>
			<polyline id="SVGID_13_" points="263.9,46.3 297.3,78.8 323.4,78.8 290.5,46.3 263.9,46.3 			"/>
		</defs>
		<clipPath id="SVGID_14_">
			<use xlink:href="#SVGID_13_"  style="overflow:visible;"/>
		</clipPath>
		<rect x="258.9" y="41.3" class="st6" width="69.5" height="42.5"/>
	</g>
</g>
<g>
	<g>
		<defs>
			<polyline id="SVGID_15_" points="316.3,46.3 349.7,78.8 375.8,78.8 342.9,46.3 316.3,46.3 			"/>
		</defs>
		<clipPath id="SVGID_16_">
			<use xlink:href="#SVGID_15_"  style="overflow:visible;"/>
		</clipPath>
		<rect x="311.3" y="41.3" class="st7" width="69.5" height="42.5"/>
	</g>
</g>
<g>
	<g>
		<defs>
			<polyline id="SVGID_17_" points="369,46.3 402.4,78.8 428.5,78.8 395.6,46.3 369,46.3 			"/>
		</defs>
		<clipPath id="SVGID_18_">
			<use xlink:href="#SVGID_17_"  style="overflow:visible;"/>
		</clipPath>
		<rect x="364" y="41.3" class="st8" width="69.5" height="42.5"/>
	</g>
</g>
<g>
	<g>
		<defs>
			<polyline id="SVGID_19_" points="421.6,46.3 454.9,78.8 481,78.8 448.2,46.3 421.6,46.3 			"/>
		</defs>
		<clipPath id="SVGID_20_">
			<use xlink:href="#SVGID_19_"  style="overflow:visible;"/>
		</clipPath>
		<rect x="416.6" y="41.3" class="st9" width="69.5" height="42.5"/>
	</g>
</g>
<g>
	<g>
		<defs>
			<polyline id="SVGID_21_" points="474.3,46.3 507.6,78.8 533.7,78.8 500.9,46.3 474.3,46.3 			"/>
		</defs>
		<clipPath id="SVGID_22_">
			<use xlink:href="#SVGID_21_"  style="overflow:visible;"/>
		</clipPath>
		<rect x="469.3" y="41.3" class="st10" width="69.5" height="42.5"/>
	</g>
</g>
<g>
	<g>
		<defs>
			<polyline id="SVGID_23_" points="527.4,46.3 560.7,78.8 586.8,78.8 554,46.3 527.4,46.3 			"/>
		</defs>
		<clipPath id="SVGID_24_">
			<use xlink:href="#SVGID_23_"  style="overflow:visible;"/>
		</clipPath>
		<rect x="522.4" y="41.3" class="st11" width="69.5" height="42.5"/>
	</g>
</g>
<g>
	<g>
		<defs>
			<polyline id="SVGID_25_" points="580,46.3 613.4,78.8 639.5,78.8 606.7,46.3 580,46.3 			"/>
		</defs>
		<clipPath id="SVGID_26_">
			<use xlink:href="#SVGID_25_"  style="overflow:visible;"/>
		</clipPath>
		<rect x="575" y="41.3" class="st12" width="69.5" height="42.5"/>
	</g>
</g>
<g>
	<g>
		<defs>
			<polyline id="SVGID_27_" points="632.9,46.3 666.2,78.8 692.3,78.8 659.5,46.3 632.9,46.3 			"/>
		</defs>
		<clipPath id="SVGID_28_">
			<use xlink:href="#SVGID_27_"  style="overflow:visible;"/>
		</clipPath>
		<rect x="627.9" y="41.3" class="st13" width="69.5" height="42.5"/>
	</g>
</g>
<g>
	<g>
		<defs>
			<polyline id="SVGID_29_" points="685.6,46.3 718.9,78.8 745,78.8 712.2,46.3 685.6,46.3 			"/>
		</defs>
		<clipPath id="SVGID_30_">
			<use xlink:href="#SVGID_29_"  style="overflow:visible;"/>
		</clipPath>
		<rect x="680.6" y="41.3" class="st14" width="69.5" height="42.5"/>
	</g>
</g>
<g>
	<g>
		<defs>
			<polyline id="SVGID_31_" points="738,46.3 771.3,78.8 797.4,78.8 764.6,46.3 738,46.3 			"/>
		</defs>
		<clipPath id="SVGID_32_">
			<use xlink:href="#SVGID_31_"  style="overflow:visible;"/>
		</clipPath>
		<rect x="733" y="41.3" class="st15" width="69.5" height="42.5"/>
	</g>
</g>
<g>
	<g>
		<defs>
			<polyline id="SVGID_33_" points="790.7,46.3 824,78.8 850.1,78.8 817.3,46.3 790.7,46.3 			"/>
		</defs>
		<clipPath id="SVGID_34_">
			<use xlink:href="#SVGID_33_"  style="overflow:visible;"/>
		</clipPath>
		<rect x="785.7" y="41.3" class="st16" width="69.5" height="42.5"/>
	</g>
</g>
<g>
	<g>
		<defs>
			<polyline id="SVGID_35_" points="842.5,46.3 855.9,59.5 855.9,46.3 842.5,46.3 			"/>
		</defs>
		<clipPath id="SVGID_36_">
			<use xlink:href="#SVGID_35_"  style="overflow:visible;"/>
		</clipPath>
		<rect x="837.5" y="41.3" class="st17" width="23.4" height="23.2"/>
	</g>
</g>
<g>
	<g>
		<defs>
			<polyline id="SVGID_37_" points="0,72.8 6.5,78.8 0,78.8 0,72.8 			"/>
		</defs>
		<clipPath id="SVGID_38_">
			<use xlink:href="#SVGID_37_"  style="overflow:visible;"/>
		</clipPath>
		<rect x="-5" y="67.8" class="st18" width="16.5" height="16"/>
	</g>
</g>
<g>
	<g>
		<defs>
			<rect id="SVGID_39_" x="0.5" y="90.8" width="856.6" height="34"/>
		</defs>
		<clipPath id="SVGID_40_">
			<use xlink:href="#SVGID_39_"  style="overflow:visible;"/>
		</clipPath>
		<rect x="-4.5" y="85.8" class="st19" width="866.6" height="44"/>
	</g>
</g>
<g>
	<g>
		<defs>
			<polyline id="SVGID_41_" points="0.5,91.3 33.8,123.8 60,123.8 27.1,91.3 0.5,91.3 			"/>
		</defs>
		<clipPath id="SVGID_42_">
			<use xlink:href="#SVGID_41_"  style="overflow:visible;"/>
		</clipPath>
		<rect x="-4.5" y="86.3" class="st20" width="69.5" height="42.5"/>
	</g>
</g>
<g>
	<g>
		<defs>
			<polyline id="SVGID_43_" points="53.2,91.3 86.5,123.8 112.6,123.8 79.8,91.3 53.2,91.3 			"/>
		</defs>
		<clipPath id="SVGID_44_">
			<use xlink:href="#SVGID_43_"  style="overflow:visible;"/>
		</clipPath>
		<rect x="48.2" y="86.3" class="st21" width="69.5" height="42.5"/>
	</g>
</g>
<g>
	<g>
		<defs>
			<polyline id="SVGID_45_" points="105.7,91.3 139.1,123.8 165.2,123.8 132.3,91.3 105.7,91.3 			"/>
		</defs>
		<clipPath id="SVGID_46_">
			<use xlink:href="#SVGID_45_"  style="overflow:visible;"/>
		</clipPath>
		<rect x="100.7" y="86.3" class="st22" width="69.5" height="42.5"/>
	</g>
</g>
<g>
	<g>
		<defs>
			<polyline id="SVGID_47_" points="158.4,91.3 191.7,123.8 217.9,123.8 185,91.3 158.4,91.3 			"/>
		</defs>
		<clipPath id="SVGID_48_">
			<use xlink:href="#SVGID_47_"  style="overflow:visible;"/>
		</clipPath>
		<rect x="153.4" y="86.3" class="st23" width="69.5" height="42.5"/>
	</g>
</g>
<g>
	<g>
		<defs>
			<polyline id="SVGID_49_" points="211.2,91.3 244.6,123.8 270.7,123.8 237.8,91.3 211.2,91.3 			"/>
		</defs>
		<clipPath id="SVGID_50_">
			<use xlink:href="#SVGID_49_"  style="overflow:visible;"/>
		</clipPath>
		<rect x="206.2" y="86.3" class="st24" width="69.5" height="42.5"/>
	</g>
</g>
<g>
	<g>
		<defs>
			<polyline id="SVGID_51_" points="263.9,91.3 297.3,123.8 323.4,123.8 290.5,91.3 263.9,91.3 			"/>
		</defs>
		<clipPath id="SVGID_52_">
			<use xlink:href="#SVGID_51_"  style="overflow:visible;"/>
		</clipPath>
		<rect x="258.9" y="86.3" class="st25" width="69.5" height="42.5"/>
	</g>
</g>
<g>
	<g>
		<defs>
			<polyline id="SVGID_53_" points="316.3,91.3 349.7,123.8 375.8,123.8 342.9,91.3 316.3,91.3 			"/>
		</defs>
		<clipPath id="SVGID_54_">
			<use xlink:href="#SVGID_53_"  style="overflow:visible;"/>
		</clipPath>
		<rect x="311.3" y="86.3" class="st26" width="69.5" height="42.5"/>
	</g>
</g>
<g>
	<g>
		<defs>
			<polyline id="SVGID_55_" points="369,91.3 402.4,123.8 428.5,123.8 395.6,91.3 369,91.3 			"/>
		</defs>
		<clipPath id="SVGID_56_">
			<use xlink:href="#SVGID_55_"  style="overflow:visible;"/>
		</clipPath>
		<rect x="364" y="86.3" class="st27" width="69.5" height="42.5"/>
	</g>
</g>
<g>
	<g>
		<defs>
			<polyline id="SVGID_57_" points="421.6,91.3 454.9,123.8 481,123.8 448.2,91.3 421.6,91.3 			"/>
		</defs>
		<clipPath id="SVGID_58_">
			<use xlink:href="#SVGID_57_"  style="overflow:visible;"/>
		</clipPath>
		<rect x="416.6" y="86.3" class="st28" width="69.5" height="42.5"/>
	</g>
</g>
<g>
	<g>
		<defs>
			<polyline id="SVGID_59_" points="474.3,91.3 507.6,123.8 533.7,123.8 500.9,91.3 474.3,91.3 			"/>
		</defs>
		<clipPath id="SVGID_60_">
			<use xlink:href="#SVGID_59_"  style="overflow:visible;"/>
		</clipPath>
		<rect x="469.3" y="86.3" class="st29" width="69.5" height="42.5"/>
	</g>
</g>
<g>
	<g>
		<defs>
			<polyline id="SVGID_61_" points="527.4,91.3 560.7,123.8 586.8,123.8 554,91.3 527.4,91.3 			"/>
		</defs>
		<clipPath id="SVGID_62_">
			<use xlink:href="#SVGID_61_"  style="overflow:visible;"/>
		</clipPath>
		<rect x="522.4" y="86.3" class="st30" width="69.5" height="42.5"/>
	</g>
</g>
<g>
	<g>
		<defs>
			<polyline id="SVGID_63_" points="580,91.3 613.4,123.8 639.5,123.8 606.7,91.3 580,91.3 			"/>
		</defs>
		<clipPath id="SVGID_64_">
			<use xlink:href="#SVGID_63_"  style="overflow:visible;"/>
		</clipPath>
		<rect x="575" y="86.3" class="st31" width="69.5" height="42.5"/>
	</g>
</g>
<g>
	<g>
		<defs>
			<polyline id="SVGID_65_" points="632.9,91.3 666.2,123.8 692.3,123.8 659.5,91.3 632.9,91.3 			"/>
		</defs>
		<clipPath id="SVGID_66_">
			<use xlink:href="#SVGID_65_"  style="overflow:visible;"/>
		</clipPath>
		<rect x="627.9" y="86.3" class="st32" width="69.5" height="42.5"/>
	</g>
</g>
<g>
	<g>
		<defs>
			<polyline id="SVGID_67_" points="685.6,91.3 718.9,123.8 745,123.8 712.2,91.3 685.6,91.3 			"/>
		</defs>
		<clipPath id="SVGID_68_">
			<use xlink:href="#SVGID_67_"  style="overflow:visible;"/>
		</clipPath>
		<rect x="680.6" y="86.3" class="st33" width="69.5" height="42.5"/>
	</g>
</g>
<g>
	<g>
		<defs>
			<polyline id="SVGID_69_" points="738,91.3 771.3,123.8 797.4,123.8 764.6,91.3 738,91.3 			"/>
		</defs>
		<clipPath id="SVGID_70_">
			<use xlink:href="#SVGID_69_"  style="overflow:visible;"/>
		</clipPath>
		<rect x="733" y="86.3" class="st34" width="69.5" height="42.5"/>
	</g>
</g>
<g>
	<g>
		<defs>
			<polyline id="SVGID_71_" points="790.7,91.3 824,123.8 850.1,123.8 817.3,91.3 790.7,91.3 			"/>
		</defs>
		<clipPath id="SVGID_72_">
			<use xlink:href="#SVGID_71_"  style="overflow:visible;"/>
		</clipPath>
		<rect x="785.7" y="86.3" class="st35" width="69.5" height="42.5"/>
	</g>
</g>
<g>
	<g>
		<defs>
			<polyline id="SVGID_73_" points="842.5,91.3 855.9,104.5 855.9,91.3 842.5,91.3 			"/>
		</defs>
		<clipPath id="SVGID_74_">
			<use xlink:href="#SVGID_73_"  style="overflow:visible;"/>
		</clipPath>
		<rect x="837.5" y="86.3" class="st36" width="23.4" height="23.2"/>
	</g>
</g>
<g>
	<g>
		<defs>
			<polyline id="SVGID_75_" points="1,118.8 7.5,124.8 1,124.8 1,118.8 			"/>
		</defs>
		<clipPath id="SVGID_76_">
			<use xlink:href="#SVGID_75_"  style="overflow:visible;"/>
		</clipPath>
		<rect x="-4" y="113.8" class="st37" width="16.5" height="16"/>
	</g>
</g>
<g>
	<g>
		<defs>
			<rect id="SVGID_77_" y="135.2" width="856.6" height="34"/>
		</defs>
		<clipPath id="SVGID_78_">
			<use xlink:href="#SVGID_77_"  style="overflow:visible;"/>
		</clipPath>
		<rect x="-5" y="130.2" class="st38" width="866.6" height="44"/>
	</g>
</g>
<g>
	<g>
		<defs>
			<polyline id="SVGID_79_" points="0.5,135.3 33.8,167.8 60,167.8 27.1,135.3 0.5,135.3 			"/>
		</defs>
		<clipPath id="SVGID_80_">
			<use xlink:href="#SVGID_79_"  style="overflow:visible;"/>
		</clipPath>
		<rect x="-4.5" y="130.3" class="st39" width="69.5" height="42.5"/>
	</g>
</g>
<g>
	<g>
		<defs>
			<polyline id="SVGID_81_" points="53.2,135.3 86.5,167.8 112.6,167.8 79.8,135.3 53.2,135.3 			"/>
		</defs>
		<clipPath id="SVGID_82_">
			<use xlink:href="#SVGID_81_"  style="overflow:visible;"/>
		</clipPath>
		<rect x="48.2" y="130.3" class="st40" width="69.5" height="42.5"/>
	</g>
</g>
<g>
	<g>
		<defs>
			<polyline id="SVGID_83_" points="105.7,135.3 139.1,167.8 165.2,167.8 132.3,135.3 105.7,135.3 			"/>
		</defs>
		<clipPath id="SVGID_84_">
			<use xlink:href="#SVGID_83_"  style="overflow:visible;"/>
		</clipPath>
		<rect x="100.7" y="130.3" class="st41" width="69.5" height="42.5"/>
	</g>
</g>
<g>
	<g>
		<defs>
			<polyline id="SVGID_85_" points="158.4,135.3 191.7,167.8 217.9,167.8 185,135.3 158.4,135.3 			"/>
		</defs>
		<clipPath id="SVGID_86_">
			<use xlink:href="#SVGID_85_"  style="overflow:visible;"/>
		</clipPath>
		<rect x="153.4" y="130.3" class="st42" width="69.5" height="42.5"/>
	</g>
</g>
<g>
	<g>
		<defs>
			<polyline id="SVGID_87_" points="211.2,135.3 244.6,167.8 270.7,167.8 237.8,135.3 211.2,135.3 			"/>
		</defs>
		<clipPath id="SVGID_88_">
			<use xlink:href="#SVGID_87_"  style="overflow:visible;"/>
		</clipPath>
		<rect x="206.2" y="130.3" class="st43" width="69.5" height="42.5"/>
	</g>
</g>
<g>
	<g>
		<defs>
			<polyline id="SVGID_89_" points="263.9,135.3 297.3,167.8 323.4,167.8 290.5,135.3 263.9,135.3 			"/>
		</defs>
		<clipPath id="SVGID_90_">
			<use xlink:href="#SVGID_89_"  style="overflow:visible;"/>
		</clipPath>
		<rect x="258.9" y="130.3" class="st44" width="69.5" height="42.5"/>
	</g>
</g>
<g>
	<g>
		<defs>
			<polyline id="SVGID_91_" points="316.3,135.3 349.7,167.8 375.8,167.8 342.9,135.3 316.3,135.3 			"/>
		</defs>
		<clipPath id="SVGID_92_">
			<use xlink:href="#SVGID_91_"  style="overflow:visible;"/>
		</clipPath>
		<rect x="311.3" y="130.3" class="st45" width="69.5" height="42.5"/>
	</g>
</g>
<g>
	<g>
		<defs>
			<polyline id="SVGID_93_" points="369,135.3 402.4,167.8 428.5,167.8 395.6,135.3 369,135.3 			"/>
		</defs>
		<clipPath id="SVGID_94_">
			<use xlink:href="#SVGID_93_"  style="overflow:visible;"/>
		</clipPath>
		<rect x="364" y="130.3" class="st46" width="69.5" height="42.5"/>
	</g>
</g>
<g>
	<g>
		<defs>
			<polyline id="SVGID_95_" points="421.6,135.3 454.9,167.8 481,167.8 448.2,135.3 421.6,135.3 			"/>
		</defs>
		<clipPath id="SVGID_96_">
			<use xlink:href="#SVGID_95_"  style="overflow:visible;"/>
		</clipPath>
		<rect x="416.6" y="130.3" class="st47" width="69.5" height="42.5"/>
	</g>
</g>
<g>
	<g>
		<defs>
			<polyline id="SVGID_97_" points="474.3,135.3 507.6,167.8 533.7,167.8 500.9,135.3 474.3,135.3 			"/>
		</defs>
		<clipPath id="SVGID_98_">
			<use xlink:href="#SVGID_97_"  style="overflow:visible;"/>
		</clipPath>
		<rect x="469.3" y="130.3" class="st48" width="69.5" height="42.5"/>
	</g>
</g>
<g>
	<g>
		<defs>
			<polyline id="SVGID_99_" points="527.4,135.3 560.7,167.8 586.8,167.8 554,135.3 527.4,135.3 			"/>
		</defs>
		<clipPath id="SVGID_100_">
			<use xlink:href="#SVGID_99_"  style="overflow:visible;"/>
		</clipPath>
		<rect x="522.4" y="130.3" class="st49" width="69.5" height="42.5"/>
	</g>
</g>
<g>
	<g>
		<defs>
			<polyline id="SVGID_101_" points="580,135.3 613.4,167.8 639.5,167.8 606.7,135.3 580,135.3 			"/>
		</defs>
		<clipPath id="SVGID_102_">
			<use xlink:href="#SVGID_101_"  style="overflow:visible;"/>
		</clipPath>
		<rect x="575" y="130.3" class="st50" width="69.5" height="42.5"/>
	</g>
</g>
<g>
	<g>
		<defs>
			<polyline id="SVGID_103_" points="632.9,135.3 666.2,167.8 692.3,167.8 659.5,135.3 632.9,135.3 			"/>
		</defs>
		<clipPath id="SVGID_104_">
			<use xlink:href="#SVGID_103_"  style="overflow:visible;"/>
		</clipPath>
		<rect x="627.9" y="130.3" class="st51" width="69.5" height="42.5"/>
	</g>
</g>
<g>
	<g>
		<defs>
			<polyline id="SVGID_105_" points="685.6,135.3 718.9,167.8 745,167.8 712.2,135.3 685.6,135.3 			"/>
		</defs>
		<clipPath id="SVGID_106_">
			<use xlink:href="#SVGID_105_"  style="overflow:visible;"/>
		</clipPath>
		<rect x="680.6" y="130.3" class="st52" width="69.5" height="42.5"/>
	</g>
</g>
<g>
	<g>
		<defs>
			<polyline id="SVGID_107_" points="738,135.3 771.3,167.8 797.4,167.8 764.6,135.3 738,135.3 			"/>
		</defs>
		<clipPath id="SVGID_108_">
			<use xlink:href="#SVGID_107_"  style="overflow:visible;"/>
		</clipPath>
		<rect x="733" y="130.3" class="st53" width="69.5" height="42.5"/>
	</g>
</g>
<g>
	<g>
		<defs>
			<polyline id="SVGID_109_" points="790.7,135.3 824,167.8 850.1,167.8 817.3,135.3 790.7,135.3 			"/>
		</defs>
		<clipPath id="SVGID_110_">
			<use xlink:href="#SVGID_109_"  style="overflow:visible;"/>
		</clipPath>
		<rect x="785.7" y="130.3" class="st54" width="69.5" height="42.5"/>
	</g>
</g>
<g>
	<g>
		<defs>
			<polyline id="SVGID_111_" points="842.5,135.3 855.9,148.5 855.9,135.3 842.5,135.3 			"/>
		</defs>
		<clipPath id="SVGID_112_">
			<use xlink:href="#SVGID_111_"  style="overflow:visible;"/>
		</clipPath>
		<rect x="837.5" y="130.3" class="st55" width="23.4" height="23.2"/>
	</g>
</g>
<g>
	<g>
		<defs>
			<polyline id="SVGID_113_" points="0,161.8 6.5,167.8 0,167.8 0,161.8 			"/>
		</defs>
		<clipPath id="SVGID_114_">
			<use xlink:href="#SVGID_113_"  style="overflow:visible;"/>
		</clipPath>
		<rect x="-5" y="156.8" class="st56" width="16.5" height="16"/>
	</g>
</g>
<g>
	<g>
		<defs>
			<rect id="SVGID_115_" y="0" width="856.6" height="34"/>
		</defs>
		<clipPath id="SVGID_116_">
			<use xlink:href="#SVGID_115_"  style="overflow:visible;"/>
		</clipPath>
		<rect x="-5" y="-5" class="st57" width="866.6" height="44"/>
	</g>
</g>
<g>
	<g>
		<defs>
			<polyline id="SVGID_117_" points="0.5,1 33.8,33.5 60,33.5 27.1,1 0.5,1 			"/>
		</defs>
		<clipPath id="SVGID_118_">
			<use xlink:href="#SVGID_117_"  style="overflow:visible;"/>
		</clipPath>
		<rect x="-4.5" y="-4" class="st58" width="69.5" height="42.5"/>
	</g>
</g>
<g>
	<g>
		<defs>
			<polyline id="SVGID_119_" points="53.2,1 86.5,33.5 112.6,33.5 79.8,1 53.2,1 			"/>
		</defs>
		<clipPath id="SVGID_120_">
			<use xlink:href="#SVGID_119_"  style="overflow:visible;"/>
		</clipPath>
		<rect x="48.2" y="-4" class="st59" width="69.5" height="42.5"/>
	</g>
</g>
<g>
	<g>
		<defs>
			<polyline id="SVGID_121_" points="105.7,1 139.1,33.5 165.2,33.5 132.3,1 105.7,1 			"/>
		</defs>
		<clipPath id="SVGID_122_">
			<use xlink:href="#SVGID_121_"  style="overflow:visible;"/>
		</clipPath>
		<rect x="100.7" y="-4" class="st60" width="69.5" height="42.5"/>
	</g>
</g>
<g>
	<g>
		<defs>
			<polyline id="SVGID_123_" points="158.4,1 191.7,33.5 217.9,33.5 185,1 158.4,1 			"/>
		</defs>
		<clipPath id="SVGID_124_">
			<use xlink:href="#SVGID_123_"  style="overflow:visible;"/>
		</clipPath>
		<rect x="153.4" y="-4" class="st61" width="69.5" height="42.5"/>
	</g>
</g>
<g>
	<g>
		<defs>
			<polyline id="SVGID_125_" points="211.2,1 244.6,33.5 270.7,33.5 237.8,1 211.2,1 			"/>
		</defs>
		<clipPath id="SVGID_126_">
			<use xlink:href="#SVGID_125_"  style="overflow:visible;"/>
		</clipPath>
		<rect x="206.2" y="-4" class="st62" width="69.5" height="42.5"/>
	</g>
</g>
<g>
	<g>
		<defs>
			<polyline id="SVGID_127_" points="263.9,1 297.3,33.5 323.4,33.5 290.5,1 263.9,1 			"/>
		</defs>
		<clipPath id="SVGID_128_">
			<use xlink:href="#SVGID_127_"  style="overflow:visible;"/>
		</clipPath>
		<rect x="258.9" y="-4" class="st63" width="69.5" height="42.5"/>
	</g>
</g>
<g>
	<g>
		<defs>
			<polyline id="SVGID_129_" points="316.3,1 349.7,33.5 375.8,33.5 342.9,1 316.3,1 			"/>
		</defs>
		<clipPath id="SVGID_130_">
			<use xlink:href="#SVGID_129_"  style="overflow:visible;"/>
		</clipPath>
		<rect x="311.3" y="-4" class="st64" width="69.5" height="42.5"/>
	</g>
</g>
<g>
	<g>
		<defs>
			<polyline id="SVGID_131_" points="369,1 402.4,33.5 428.5,33.5 395.6,1 369,1 			"/>
		</defs>
		<clipPath id="SVGID_132_">
			<use xlink:href="#SVGID_131_"  style="overflow:visible;"/>
		</clipPath>
		<rect x="364" y="-4" class="st65" width="69.5" height="42.5"/>
	</g>
</g>
<g>
	<g>
		<defs>
			<polyline id="SVGID_133_" points="421.6,1 454.9,33.5 481,33.5 448.2,1 421.6,1 			"/>
		</defs>
		<clipPath id="SVGID_134_">
			<use xlink:href="#SVGID_133_"  style="overflow:visible;"/>
		</clipPath>
		<rect x="416.6" y="-4" class="st66" width="69.5" height="42.5"/>
	</g>
</g>
<g>
	<g>
		<defs>
			<polyline id="SVGID_135_" points="474.3,1 507.6,33.5 533.7,33.5 500.9,1 474.3,1 			"/>
		</defs>
		<clipPath id="SVGID_136_">
			<use xlink:href="#SVGID_135_"  style="overflow:visible;"/>
		</clipPath>
		<rect x="469.3" y="-4" class="st67" width="69.5" height="42.5"/>
	</g>
</g>
<g>
	<g>
		<defs>
			<polyline id="SVGID_137_" points="527.4,1 560.7,33.5 586.8,33.5 554,1 527.4,1 			"/>
		</defs>
		<clipPath id="SVGID_138_">
			<use xlink:href="#SVGID_137_"  style="overflow:visible;"/>
		</clipPath>
		<rect x="522.4" y="-4" class="st68" width="69.5" height="42.5"/>
	</g>
</g>
<g>
	<g>
		<defs>
			<polyline id="SVGID_139_" points="580,1 613.4,33.5 639.5,33.5 606.7,1 580,1 			"/>
		</defs>
		<clipPath id="SVGID_140_">
			<use xlink:href="#SVGID_139_"  style="overflow:visible;"/>
		</clipPath>
		<rect x="575" y="-4" class="st69" width="69.5" height="42.5"/>
	</g>
</g>
<g>
	<g>
		<defs>
			<polyline id="SVGID_141_" points="632.9,1 666.2,33.5 692.3,33.5 659.5,1 632.9,1 			"/>
		</defs>
		<clipPath id="SVGID_142_">
			<use xlink:href="#SVGID_141_"  style="overflow:visible;"/>
		</clipPath>
		<rect x="627.9" y="-4" class="st70" width="69.5" height="42.5"/>
	</g>
</g>
<g>
	<g>
		<defs>
			<polyline id="SVGID_143_" points="685.6,1 718.9,33.5 745,33.5 712.2,1 685.6,1 			"/>
		</defs>
		<clipPath id="SVGID_144_">
			<use xlink:href="#SVGID_143_"  style="overflow:visible;"/>
		</clipPath>
		<rect x="680.6" y="-4" class="st71" width="69.5" height="42.5"/>
	</g>
</g>
<g>
	<g>
		<defs>
			<polyline id="SVGID_145_" points="738,1 771.3,33.5 797.4,33.5 764.6,1 738,1 			"/>
		</defs>
		<clipPath id="SVGID_146_">
			<use xlink:href="#SVGID_145_"  style="overflow:visible;"/>
		</clipPath>
		<rect x="733" y="-4" class="st72" width="69.5" height="42.5"/>
	</g>
</g>
<g>
	<g>
		<defs>
			<polyline id="SVGID_147_" points="790.7,1 824,33.5 850.1,33.5 817.3,1 790.7,1 			"/>
		</defs>
		<clipPath id="SVGID_148_">
			<use xlink:href="#SVGID_147_"  style="overflow:visible;"/>
		</clipPath>
		<rect x="785.7" y="-4" class="st73" width="69.5" height="42.5"/>
	</g>
</g>
<g>
	<g>
		<defs>
			<polyline id="SVGID_149_" points="842.5,1 855.9,14.2 855.9,1 842.5,1 			"/>
		</defs>
		<clipPath id="SVGID_150_">
			<use xlink:href="#SVGID_149_"  style="overflow:visible;"/>
		</clipPath>
		<rect x="837.5" y="-4" class="st74" width="23.4" height="23.2"/>
	</g>
</g>
<g>
	<g>
		<defs>
			<polyline id="SVGID_151_" points="0,27.4 6.5,33.5 0,33.5 0,27.4 			"/>
		</defs>
		<clipPath id="SVGID_152_">
			<use xlink:href="#SVGID_151_"  style="overflow:visible;"/>
		</clipPath>
		<rect x="-5" y="22.4" class="st75" width="16.5" height="16"/>
	</g>
</g>
<g>
	<g>
		<defs>
			<path id="SVGID_153_" d="M372.6,16.8c0-1.7,1.3-3,3-3h105c1.7,0,3,1.3,3,3c0,1.7-1.3,3-3,3h-105
				C373.9,19.8,372.6,18.5,372.6,16.8z"/>
		</defs>
		<clipPath id="SVGID_154_">
			<use xlink:href="#SVGID_153_"  style="overflow:visible;"/>
		</clipPath>
		<rect x="367.6" y="8.8" class="st76" width="121" height="16"/>
	</g>
</g>
<g>
	<g>
		<defs>
			<path id="SVGID_155_" d="M230.6,61.8c0-1.7,1.3-3,3-3h388c1.7,0,3,1.3,3,3c0,1.7-1.3,3-3,3h-388
				C231.9,64.8,230.6,63.5,230.6,61.8z"/>
		</defs>
		<clipPath id="SVGID_156_">
			<use xlink:href="#SVGID_155_"  style="overflow:visible;"/>
		</clipPath>
		<rect x="225.6" y="53.8" class="st77" width="404" height="16"/>
	</g>
</g>
<g>
	<g>
		<defs>
			<path id="SVGID_157_" d="M257.6,107.8c0-1.7,1.3-3,3-3h335c1.7,0,3,1.3,3,3c0,1.7-1.3,3-3,3h-335
				C258.9,110.8,257.6,109.5,257.6,107.8z"/>
		</defs>
		<clipPath id="SVGID_158_">
			<use xlink:href="#SVGID_157_"  style="overflow:visible;"/>
		</clipPath>
		<rect x="252.6" y="99.8" class="st78" width="351" height="16"/>
	</g>
</g>
<g>
	<g>
		<defs>
			<path id="SVGID_159_" d="M336.6,151.8c0-1.7,1.3-3,3-3h176c1.7,0,3,1.3,3,3c0,1.7-1.3,3-3,3h-176
				C337.9,154.8,336.6,153.5,336.6,151.8z"/>
		</defs>
		<clipPath id="SVGID_160_">
			<use xlink:href="#SVGID_159_"  style="overflow:visible;"/>
		</clipPath>
		<rect x="331.6" y="143.8" class="st79" width="192" height="16"/>
	</g>
</g>
</svg>
