<svg id="Layer_1" xmlns="http://www.w3.org/2000/svg" xmlns:xlink="http://www.w3.org/1999/xlink" width="857" height="102"><style>.st0{clip-path:url(#SVGID_2_);fill:#04844B;} .st1{clip-path:url(#SVGID_4_);fill:#FFFFFF;} .st2{clip-path:url(#SVGID_6_);fill:#FFFFFF;} .st3{clip-path:url(#SVGID_8_);fill:#04844B;} .st4{clip-path:url(#SVGID_10_);fill:#FFFFFF;} .st5{clip-path:url(#SVGID_12_);fill:#FFFFFF;} .st6{clip-path:url(#SVGID_14_);fill:#04844B;} .st7{clip-path:url(#SVGID_16_);fill:#FFFFFF;} .st8{clip-path:url(#SVGID_18_);fill:#FFFFFF;} .st9{clip-path:url(#SVGID_20_);fill:#FFFFFF;} .st10{clip-path:url(#SVGID_22_);fill:#FFFFFF;} .st11{fill:none;stroke:#16325C;stroke-linecap:square;stroke-miterlimit:10;} .st12{clip-path:url(#SVGID_24_);fill:#04844B;} .st13{clip-path:url(#SVGID_26_);fill:#FFFFFF;} .st14{clip-path:url(#SVGID_28_);fill:#FFFFFF;}</style><defs><path id="SVGID_1_" d="M0 4c0-2.2 1.8-4 4-4h216c2.2 0 4 1.8 4 4v22c0 2.2-1.8 4-4 4H4c-2.2 0-4-1.8-4-4V4z"/></defs><clipPath id="SVGID_2_"><use xlink:href="#SVGID_1_" overflow="visible"/></clipPath><path class="st0" d="M-5-5h234v40H-5z"/><defs><path id="SVGID_3_" d="M14 15c0-1.7 1.3-3 3-3h136c1.7 0 3 1.3 3 3s-1.3 3-3 3H17c-1.7 0-3-1.3-3-3z"/></defs><clipPath id="SVGID_4_"><use xlink:href="#SVGID_3_" overflow="visible"/></clipPath><path class="st1" d="M9 7h152v16H9z"/><defs><path id="SVGID_5_" d="M206.6 14.2l3.1-3.1c.1-.1.1-.4 0-.5l-.5-.5c-.1-.1-.4-.1-.5 0l-3.1 3.1c-.1.1-.2.1-.3 0l-3.1-3.1c-.1-.1-.4-.1-.5 0l-.5.5c-.1.1-.1.4 0 .5l3.1 3.1c.1.1.1.2 0 .3l-3.1 3.1c-.1.1-.1.4 0 .5l.5.5c.1.1.4.1.5 0l3.1-3.1c.1-.1.2-.1.3 0l3.1 3.1c.1.1.4.1.5 0l.5-.5c.1-.1.1-.4 0-.5l-3.1-3.1c-.1 0-.1-.2 0-.3"/></defs><clipPath id="SVGID_6_"><use xlink:href="#SVGID_5_" overflow="visible"/></clipPath><path class="st2" d="M196 5h18.8v18.8H196z"/><defs><path id="SVGID_7_" d="M0 40c0-2.2 1.8-4 4-4h216c2.2 0 4 1.8 4 4v22c0 2.2-1.8 4-4 4H4c-2.2 0-4-1.8-4-4V40z"/></defs><clipPath id="SVGID_8_"><use xlink:href="#SVGID_7_" overflow="visible"/></clipPath><path class="st3" d="M-5 31h234v40H-5z"/><defs><path id="SVGID_9_" d="M14 51c0-1.7 1.4-3 3-3h101c1.7 0 3 1.3 3 3s-1.4 3-3 3H17c-1.7 0-3-1.3-3-3z"/></defs><clipPath id="SVGID_10_"><use xlink:href="#SVGID_9_" overflow="visible"/></clipPath><path class="st4" d="M9 43h117v16H9z"/><defs><path id="SVGID_11_" d="M206.6 50.2l3.1-3.1c.1-.1.1-.4 0-.5l-.5-.5c-.1-.1-.4-.1-.5 0l-3.1 3.1c-.1.1-.2.1-.3 0l-3.1-3.1c-.1-.1-.4-.1-.5 0l-.5.5c-.1.1-.1.4 0 .5l3.1 3.1c.1.1.1.2 0 .3l-3.1 3.1c-.1.1-.1.4 0 .5l.5.5c.1.1.4.1.5 0l3.1-3.1c.1-.1.2-.1.3 0l3.1 3.1c.1.1.4.1.5 0l.5-.5c.1-.1.1-.4 0-.5l-3.1-3.1c-.1 0-.1-.2 0-.3"/></defs><clipPath id="SVGID_12_"><use xlink:href="#SVGID_11_" overflow="visible"/></clipPath><path class="st5" d="M196 41h18.8v18.8H196z"/><defs><path id="SVGID_13_" d="M392 40c0-2.2 1.8-4 4-4h457c2.2 0 4 1.8 4 4v22c0 2.2-1.8 4-4 4H396c-2.2 0-4-1.8-4-4V40z"/></defs><clipPath id="SVGID_14_"><use xlink:href="#SVGID_13_" overflow="visible"/></clipPath><path class="st6" d="M387 31h475v40H387z"/><defs><path id="SVGID_15_" d="M564 51c0-1.7 1.4-3 3-3h101c1.7 0 3 1.3 3 3s-1.4 3-3 3H567c-1.7 0-3-1.3-3-3z"/></defs><clipPath id="SVGID_16_"><use xlink:href="#SVGID_15_" overflow="visible"/></clipPath><path class="st7" d="M559 43h117v16H559z"/><defs><path id="SVGID_17_" d="M685 51c0-1.7 1.3-3 3-3h58c1.7 0 3 1.3 3 3s-1.3 3-3 3h-58c-1.7 0-3-1.3-3-3z"/></defs><clipPath id="SVGID_18_"><use xlink:href="#SVGID_17_" overflow="visible"/></clipPath><path class="st8" d="M680 43h74v16h-74z"/><defs><path id="SVGID_19_" d="M406 51c0-1.7 1.3-3 3-3h136c1.7 0 3 1.3 3 3s-1.3 3-3 3H409c-1.7 0-3-1.3-3-3z"/></defs><clipPath id="SVGID_20_"><use xlink:href="#SVGID_19_" overflow="visible"/></clipPath><path class="st9" d="M401 43h152v16H401z"/><defs><path id="SVGID_21_" d="M839.6 50.2l3.1-3.1c.1-.1.1-.4 0-.5l-.5-.5c-.1-.1-.4-.1-.5 0l-3.1 3.1c-.1.1-.2.1-.3 0l-3.1-3.1c-.1-.1-.4-.1-.5 0l-.5.5c-.1.1-.1.4 0 .5l3.1 3.1c.1.1.1.2 0 .3l-3.1 3.1c-.1.1-.1.4 0 .5l.5.5c.1.1.4.1.5 0l3.1-3.1c.1-.1.2-.1.3 0l3.1 3.1c.1.1.4.1.5 0l.5-.5c.1-.1.1-.4 0-.5l-3.1-3.1c-.1 0-.1-.2 0-.3"/></defs><clipPath id="SVGID_22_"><use xlink:href="#SVGID_21_" overflow="visible"/></clipPath><path class="st10" d="M829 41h18.8v18.8H829z"/><path class="st11" d="M238.5 51.5h139m-131-37v72m-8-72h7.1m-7.1 72h7.1"/><defs><path id="SVGID_23_" d="M0 76c0-2.2 1.8-4 4-4h216c2.2 0 4 1.8 4 4v22c0 2.2-1.8 4-4 4H4c-2.2 0-4-1.8-4-4V76z"/></defs><clipPath id="SVGID_24_"><use xlink:href="#SVGID_23_" overflow="visible"/></clipPath><path class="st12" d="M-5 67h234v40H-5z"/><g><defs><path id="SVGID_25_" d="M14 87c0-1.7 1.3-3 3-3h58c1.7 0 3 1.3 3 3s-1.3 3-3 3H17c-1.7 0-3-1.3-3-3z"/></defs><clipPath id="SVGID_26_"><use xlink:href="#SVGID_25_" overflow="visible"/></clipPath><path class="st13" d="M9 79h74v16H9z"/></g><g><defs><path id="SVGID_27_" d="M206.6 86.2l3.1-3.1c.1-.1.1-.4 0-.5l-.5-.5c-.1-.1-.4-.1-.5 0l-3.1 3.1c-.1.1-.2.1-.3 0l-3.1-3.1c-.1-.1-.4-.1-.5 0l-.5.5c-.1.1-.1.4 0 .5l3.1 3.1c.1.1.1.2 0 .3l-3.1 3.1c-.1.1-.1.4 0 .5l.5.5c.1.1.4.1.5 0l3.1-3.1c.1-.1.2-.1.3 0l3.1 3.1c.1.1.4.1.5 0l.5-.5c.1-.1.1-.4 0-.5l-3.1-3.1c-.1 0-.1-.2 0-.3"/></defs><clipPath id="SVGID_28_"><use xlink:href="#SVGID_27_" overflow="visible"/></clipPath><path class="st14" d="M196 77h18.8v18.8H196z"/></g></svg>