<?xml version="1.0" encoding="utf-8"?>
<!-- Generator: Adobe Illustrator 19.1.0, SVG Export Plug-In . SVG Version: 6.00 Build 0)  -->
<svg version="1.1" id="Layer_1" xmlns="http://www.w3.org/2000/svg" xmlns:xlink="http://www.w3.org/1999/xlink" x="0px" y="0px"
	 width="519px" height="102px" viewBox="0 0 519 102" style="enable-background:new 0 0 519 102;" xml:space="preserve">
<style type="text/css">
	.st0{clip-path:url(#SVGID_2_);fill:#04844B;}
	.st1{clip-path:url(#SVGID_4_);fill:#FFFFFF;}
	.st2{clip-path:url(#SVGID_6_);fill:#FFFFFF;}
	.st3{clip-path:url(#SVGID_8_);fill:#FFB854;}
	.st4{clip-path:url(#SVGID_10_);fill:#FFFFFF;}
	.st5{clip-path:url(#SVGID_12_);fill:#FFFFFF;}
	.st6{clip-path:url(#SVGID_14_);fill:#C4372F;}
	.st7{clip-path:url(#SVGID_16_);fill:#FFFFFF;}
	.st8{clip-path:url(#SVGID_18_);fill:#FFFFFF;}
</style>
<g>
	<g>
		<defs>
			<path id="SVGID_1_" d="M0,4c0-2.2,1.8-4,4-4h510c2.2,0,4,1.8,4,4v22c0,2.2-1.8,4-4,4H4c-2.2,0-4-1.8-4-4V4z"/>
		</defs>
		<clipPath id="SVGID_2_">
			<use xlink:href="#SVGID_1_"  style="overflow:visible;"/>
		</clipPath>
		<rect x="-5" y="-5" class="st0" width="528" height="40"/>
	</g>
</g>
<g>
	<g>
		<defs>
			<path id="SVGID_3_" d="M500.6,14.2l3.1-3.1c0.1-0.1,0.1-0.4,0-0.5l-0.5-0.5c-0.1-0.1-0.4-0.1-0.5,0l-3.1,3.1
				c-0.1,0.1-0.2,0.1-0.3,0l-3.1-3.1c-0.1-0.1-0.4-0.1-0.5,0l-0.5,0.5c-0.1,0.1-0.1,0.4,0,0.5l3.1,3.1c0.1,0.1,0.1,0.2,0,0.3
				l-3.1,3.1c-0.1,0.1-0.1,0.4,0,0.5l0.5,0.5c0.1,0.1,0.4,0.1,0.5,0l3.1-3.1c0.1-0.1,0.2-0.1,0.3,0l3.1,3.1c0.1,0.1,0.4,0.1,0.5,0
				l0.5-0.5c0.1-0.1,0.1-0.4,0-0.5l-3.1-3.1C500.5,14.5,500.5,14.3,500.6,14.2"/>
		</defs>
		<clipPath id="SVGID_4_">
			<use xlink:href="#SVGID_3_"  style="overflow:visible;"/>
		</clipPath>
		<rect x="490" y="5" class="st1" width="18.8" height="18.8"/>
	</g>
</g>
<g>
	<g>
		<defs>
			<path id="SVGID_5_" d="M14,15c0-1.7,1.3-3,3-3h262c1.7,0,3,1.3,3,3c0,1.7-1.3,3-3,3H17C15.3,18,14,16.7,14,15z"/>
		</defs>
		<clipPath id="SVGID_6_">
			<use xlink:href="#SVGID_5_"  style="overflow:visible;"/>
		</clipPath>
		<rect x="9" y="7" class="st2" width="278" height="16"/>
	</g>
</g>
<g>
	<g>
		<defs>
			<path id="SVGID_7_" d="M0,40c0-2.2,1.8-4,4-4h511c2.2,0,4,1.8,4,4v22c0,2.2-1.8,4-4,4H4c-2.2,0-4-1.8-4-4V40z"/>
		</defs>
		<clipPath id="SVGID_8_">
			<use xlink:href="#SVGID_7_"  style="overflow:visible;"/>
		</clipPath>
		<rect x="-5" y="31" class="st3" width="529" height="40"/>
	</g>
</g>
<g>
	<g>
		<defs>
			<path id="SVGID_9_" d="M501.6,51.2l3.1-3.1c0.1-0.1,0.1-0.4,0-0.5l-0.5-0.5c-0.1-0.1-0.4-0.1-0.5,0l-3.1,3.1
				c-0.1,0.1-0.2,0.1-0.3,0l-3.1-3.1c-0.1-0.1-0.4-0.1-0.5,0l-0.5,0.5c-0.1,0.1-0.1,0.4,0,0.5l3.1,3.1c0.1,0.1,0.1,0.2,0,0.3
				l-3.1,3.1c-0.1,0.1-0.1,0.4,0,0.5l0.5,0.5c0.1,0.1,0.4,0.1,0.5,0l3.1-3.1c0.1-0.1,0.2-0.1,0.3,0l3.1,3.1c0.1,0.1,0.4,0.1,0.5,0
				l0.5-0.5c0.1-0.1,0.1-0.4,0-0.5l-3.1-3.1C501.5,51.5,501.5,51.3,501.6,51.2"/>
		</defs>
		<clipPath id="SVGID_10_">
			<use xlink:href="#SVGID_9_"  style="overflow:visible;"/>
		</clipPath>
		<rect x="491" y="42" class="st4" width="18.8" height="18.8"/>
	</g>
</g>
<g>
	<g>
		<defs>
			<path id="SVGID_11_" d="M14,51c0-1.7,1.3-3,3-3h337c1.7,0,3,1.3,3,3c0,1.7-1.3,3-3,3H17C15.3,54,14,52.7,14,51z"/>
		</defs>
		<clipPath id="SVGID_12_">
			<use xlink:href="#SVGID_11_"  style="overflow:visible;"/>
		</clipPath>
		<rect x="9" y="43" class="st5" width="353" height="16"/>
	</g>
</g>
<g>
	<g>
		<defs>
			<path id="SVGID_13_" d="M0,76c0-2.2,1.8-4,4-4h511c2.2,0,4,1.8,4,4v22c0,2.2-1.8,4-4,4H4c-2.2,0-4-1.8-4-4V76z"/>
		</defs>
		<clipPath id="SVGID_14_">
			<use xlink:href="#SVGID_13_"  style="overflow:visible;"/>
		</clipPath>
		<rect x="-5" y="67" class="st6" width="529" height="40"/>
	</g>
</g>
<g>
	<g>
		<defs>
			<path id="SVGID_15_" d="M501.6,87.2l3.1-3.1c0.1-0.1,0.1-0.4,0-0.5l-0.5-0.5c-0.1-0.1-0.4-0.1-0.5,0l-3.1,3.1
				c-0.1,0.1-0.2,0.1-0.3,0l-3.1-3.1c-0.1-0.1-0.4-0.1-0.5,0l-0.5,0.5c-0.1,0.1-0.1,0.4,0,0.5l3.1,3.1c0.1,0.1,0.1,0.2,0,0.3
				l-3.1,3.1c-0.1,0.1-0.1,0.4,0,0.5l0.5,0.5c0.1,0.1,0.4,0.1,0.5,0l3.1-3.1c0.1-0.1,0.2-0.1,0.3,0l3.1,3.1c0.1,0.1,0.4,0.1,0.5,0
				l0.5-0.5c0.1-0.1,0.1-0.4,0-0.5l-3.1-3.1C501.5,87.5,501.5,87.3,501.6,87.2"/>
		</defs>
		<clipPath id="SVGID_16_">
			<use xlink:href="#SVGID_15_"  style="overflow:visible;"/>
		</clipPath>
		<rect x="491" y="78" class="st7" width="18.8" height="18.8"/>
	</g>
</g>
<g>
	<g>
		<defs>
			<path id="SVGID_17_" d="M14,87c0-1.7,1.3-3,3-3h203c1.7,0,3,1.3,3,3c0,1.7-1.3,3-3,3H17C15.3,90,14,88.7,14,87z"/>
		</defs>
		<clipPath id="SVGID_18_">
			<use xlink:href="#SVGID_17_"  style="overflow:visible;"/>
		</clipPath>
		<rect x="9" y="79" class="st8" width="219" height="16"/>
	</g>
</g>
</svg>
