<svg id="Layer_1" xmlns="http://www.w3.org/2000/svg" xmlns:xlink="http://www.w3.org/1999/xlink" width="859" height="273"><style>.st0{clip-path:url(#SVGID_2_);fill:#D3DCE7;} .st1{clip-path:url(#SVGID_4_);enable-background:new ;} .st2{clip-path:url(#SVGID_6_);} .st3{clip-path:url(#SVGID_8_);fill:#FFFFFF;} .st4{clip-path:url(#SVGID_10_);fill:#5876A3;} .st5{clip-path:url(#SVGID_12_);fill:#D3DCE7;} .st6{clip-path:url(#SVGID_14_);} .st7{clip-path:url(#SVGID_16_);fill-rule:evenodd;clip-rule:evenodd;fill:#FFFFFF;} .st8{clip-path:url(#SVGID_18_);fill:none;stroke:#E1E6EF;stroke-width:2;stroke-miterlimit:10;} .st9{clip-path:url(#SVGID_20_);fill:#FFFFFF;} .st10{clip-path:url(#SVGID_22_);fill:#D3DCE7;} .st11{clip-path:url(#SVGID_24_);fill:#D3DCE7;} .st12{clip-path:url(#SVGID_26_);fill:#D3DCE7;} .st13{clip-path:url(#SVGID_28_);fill:#D3DCE7;} .st14{clip-path:url(#SVGID_30_);fill:#D3DCE7;} .st15{clip-path:url(#SVGID_32_);fill:#D3DCE7;} .st16{clip-path:url(#SVGID_34_);fill:#D3DCE7;} .st17{clip-path:url(#SVGID_36_);fill:#D3DCE7;} .st18{clip-path:url(#SVGID_38_);fill:#D3DCE7;} .st19{clip-path:url(#SVGID_40_);fill:#D3DCE7;} .st20{clip-path:url(#SVGID_42_);fill:#D3DCE7;} .st21{clip-path:url(#SVGID_44_);enable-background:new ;} .st22{clip-path:url(#SVGID_46_);} .st23{clip-path:url(#SVGID_48_);fill:#FFFFFF;} .st24{clip-path:url(#SVGID_50_);fill:#C33F3A;} .st25{clip-path:url(#SVGID_52_);} .st26{clip-path:url(#SVGID_54_);fill-rule:evenodd;clip-rule:evenodd;fill:#FFFFFF;} .st27{clip-path:url(#SVGID_56_);fill:none;stroke:#E1E6EF;stroke-width:2;stroke-miterlimit:10;} .st28{clip-path:url(#SVGID_58_);fill:#FFFFFF;} .st29{clip-path:url(#SVGID_60_);fill:#D3DCE7;} .st30{clip-path:url(#SVGID_62_);fill:#D3DCE7;} .st31{clip-path:url(#SVGID_64_);fill:#D3DCE7;} .st32{clip-path:url(#SVGID_66_);fill:#D3DCE7;} .st33{clip-path:url(#SVGID_68_);fill:#D3DCE7;} .st34{clip-path:url(#SVGID_70_);fill:#D3DCE7;} .st35{clip-path:url(#SVGID_72_);fill:#D3DCE7;} .st36{clip-path:url(#SVGID_74_);fill:#D3DCE7;} .st37{clip-path:url(#SVGID_76_);fill:#D3DCE7;} .st38{clip-path:url(#SVGID_78_);fill:#D3DCE7;}</style><defs><path id="SVGID_1_" d="M0 0h414v273H0z"/></defs><clipPath id="SVGID_2_"><use xlink:href="#SVGID_1_" overflow="visible"/></clipPath><path class="st0" d="M-5-5h424v283H-5z"/><defs><path id="SVGID_3_" d="M75.9 61.9c-2.2 0-4 1.8-4 4v141c0 2.2 1.8 4 4 4h262.5c2.2 0 4-1.8 4-4v-141c0-2.2-1.8-4-4-4H75.9z"/></defs><clipPath id="SVGID_4_"><use xlink:href="#SVGID_3_" overflow="visible"/></clipPath><g class="st1"><defs><path id="SVGID_5_" d="M71 61h272v150H71z"/></defs><clipPath id="SVGID_6_"><use xlink:href="#SVGID_5_" overflow="visible"/></clipPath><g class="st2"><defs><path id="SVGID_7_" d="M71 61h272v150H71z"/></defs><clipPath id="SVGID_8_"><use xlink:href="#SVGID_7_" overflow="visible"/></clipPath><path class="st3" d="M66.9 56.9h280.5v159H66.9z"/></g></g><defs><path id="SVGID_9_" d="M71.9 65.9c0-2.2 1.8-4 4-4h263c2.2 0 4 1.8 4 4v34h-271v-34z"/></defs><clipPath id="SVGID_10_"><use xlink:href="#SVGID_9_" overflow="visible"/></clipPath><path class="st4" d="M66.9 56.9h281v48h-281z"/><defs><path id="SVGID_11_" d="M213.5 167.8c-1.7 0-3 1.3-3 3v14c0 1.7 1.3 3 3 3h54c1.7 0 3-1.3 3-3v-14c0-1.7-1.3-3-3-3h-54z"/></defs><clipPath id="SVGID_12_"><use xlink:href="#SVGID_11_" overflow="visible"/></clipPath><path class="st5" d="M205.5 162.8h70v30h-70z"/><defs><path id="SVGID_13_" d="M147.6 168.3h54c1.4 0 2.5 1.1 2.5 2.5v14c0 1.4-1.1 2.5-2.5 2.5h-54c-1.4 0-2.5-1.1-2.5-2.5v-14c0-1.4 1.1-2.5 2.5-2.5zm0-1c-1.9 0-3.5 1.6-3.5 3.5v14c0 1.9 1.6 3.5 3.5 3.5h54c1.9 0 3.5-1.6 3.5-3.5v-14c0-1.9-1.6-3.5-3.5-3.5h-54zm-23.5-20h101v61h-101v-61z"/></defs><clipPath id="SVGID_14_"><use xlink:href="#SVGID_13_" overflow="visible"/></clipPath><g class="st6"><defs><path id="SVGID_15_" d="M147.6 167.8c-1.7 0-3 1.3-3 3v14c0 1.7 1.3 3 3 3h54c1.7 0 3-1.3 3-3v-14c0-1.7-1.3-3-3-3h-54z"/></defs><clipPath id="SVGID_16_"><use xlink:href="#SVGID_15_" overflow="visible"/></clipPath><path class="st7" d="M147.6 167.8c-1.7 0-3 1.3-3 3v14c0 1.7 1.3 3 3 3h54c1.7 0 3-1.3 3-3v-14c0-1.7-1.3-3-3-3h-54z"/></g><defs><path id="SVGID_17_" d="M147.6 167.8c-1.7 0-3 1.3-3 3v14c0 1.7 1.3 3 3 3h54c1.7 0 3-1.3 3-3v-14c0-1.7-1.3-3-3-3h-54z"/></defs><clipPath id="SVGID_18_"><use xlink:href="#SVGID_17_" overflow="visible"/></clipPath><path class="st8" d="M147.6 167.8c-1.7 0-3 1.3-3 3v14c0 1.7 1.3 3 3 3h54c1.7 0 3-1.3 3-3v-14c0-1.7-1.3-3-3-3h-54z"/><defs><path id="SVGID_19_" d="M134.4 80.5c0-1.7 1.4-3.1 3.1-3.1h137c1.7 0 3.1 1.4 3.1 3.1 0 1.7-1.4 3.1-3.1 3.1h-137c-1.7 0-3.1-1.4-3.1-3.1z"/></defs><clipPath id="SVGID_20_"><use xlink:href="#SVGID_19_" overflow="visible"/></clipPath><path class="st9" d="M129.4 72.4h153.2v16.2H129.4z"/><defs><path id="SVGID_21_" d="M136.8 122.4c0-.8.7-1.5 1.5-1.5h67c.8 0 1.5.7 1.5 1.5s-.7 1.5-1.5 1.5h-67c-.8 0-1.5-.7-1.5-1.5z"/></defs><clipPath id="SVGID_22_"><use xlink:href="#SVGID_21_" overflow="visible"/></clipPath><path class="st10" d="M131.8 115.9h80v13h-80z"/><defs><path id="SVGID_23_" d="M87.8 122.4c0-.8.7-1.5 1.5-1.5h38c.8 0 1.5.7 1.5 1.5s-.7 1.5-1.5 1.5h-38c-.8 0-1.5-.7-1.5-1.5z"/></defs><clipPath id="SVGID_24_"><use xlink:href="#SVGID_23_" overflow="visible"/></clipPath><path class="st11" d="M82.8 115.9h51v13h-51z"/><defs><path id="SVGID_25_" d="M214.8 122.4c0-.8.7-1.5 1.5-1.5h109c.8 0 1.5.7 1.5 1.5s-.7 1.5-1.5 1.5h-109c-.8 0-1.5-.7-1.5-1.5z"/></defs><clipPath id="SVGID_26_"><use xlink:href="#SVGID_25_" overflow="visible"/></clipPath><path class="st12" d="M209.8 115.9h122v13h-122z"/><defs><path id="SVGID_27_" d="M87.8 132.4c0-.8.7-1.5 1.5-1.5H169c.8 0 1.5.7 1.5 1.5s-.7 1.5-1.5 1.5H89.3c-.8 0-1.5-.7-1.5-1.5z"/></defs><clipPath id="SVGID_28_"><use xlink:href="#SVGID_27_" overflow="visible"/></clipPath><path class="st13" d="M82.8 125.9h92.7v13H82.8z"/><defs><path id="SVGID_29_" d="M179.1 132.4c0-.8.7-1.5 1.5-1.5h53.2c.8 0 1.5.7 1.5 1.5s-.7 1.5-1.5 1.5h-53.2c-.8 0-1.5-.7-1.5-1.5z"/></defs><clipPath id="SVGID_30_"><use xlink:href="#SVGID_29_" overflow="visible"/></clipPath><path class="st14" d="M174.1 125.9h66.2v13h-66.2z"/><defs><path id="SVGID_31_" d="M244.3 132.4c0-.8.7-1.5 1.5-1.5h79.7c.8 0 1.5.7 1.5 1.5s-.7 1.5-1.5 1.5h-79.7c-.9 0-1.5-.7-1.5-1.5z"/></defs><clipPath id="SVGID_32_"><use xlink:href="#SVGID_31_" overflow="visible"/></clipPath><path class="st15" d="M239.3 125.9H332v13h-92.7z"/><defs><path id="SVGID_33_" d="M87.8 142.3c0-.8.7-1.5 1.5-1.5h55.5c.8 0 1.5.7 1.5 1.5s-.7 1.5-1.5 1.5H89.3c-.8 0-1.5-.7-1.5-1.5z"/></defs><clipPath id="SVGID_34_"><use xlink:href="#SVGID_33_" overflow="visible"/></clipPath><path class="st16" d="M82.8 135.8h68.5v13H82.8z"/><defs><path id="SVGID_35_" d="M152.4 142.3c0-.8.7-1.5 1.5-1.5H206c.8 0 1.5.7 1.5 1.5s-.7 1.5-1.5 1.5h-52.1c-.8 0-1.5-.7-1.5-1.5z"/></defs><clipPath id="SVGID_36_"><use xlink:href="#SVGID_35_" overflow="visible"/></clipPath><path class="st17" d="M147.4 135.8h65.1v13h-65.1z"/><defs><path id="SVGID_37_" d="M213.7 142.3c0-.8.7-1.5 1.5-1.5h40.3c.8 0 1.5.7 1.5 1.5s-.7 1.5-1.5 1.5h-40.3c-.8 0-1.5-.7-1.5-1.5z"/></defs><clipPath id="SVGID_38_"><use xlink:href="#SVGID_37_" overflow="visible"/></clipPath><path class="st18" d="M208.7 135.8H262v13h-53.3z"/><defs><path id="SVGID_39_" d="M265.7 142.3c0-.8.7-1.5 1.5-1.5h58.2c.8 0 1.5.7 1.5 1.5s-.7 1.5-1.5 1.5h-58.2c-.8 0-1.5-.7-1.5-1.5z"/></defs><clipPath id="SVGID_40_"><use xlink:href="#SVGID_39_" overflow="visible"/></clipPath><path class="st19" d="M260.7 135.8h71.2v13h-71.2z"/><defs><path id="SVGID_41_" d="M445 0h414v273H445z"/></defs><clipPath id="SVGID_42_"><use xlink:href="#SVGID_41_" overflow="visible"/></clipPath><path class="st20" d="M440-5h424v283H440z"/><defs><path id="SVGID_43_" d="M520.9 61.4c-2.2 0-4 1.8-4 4v141c0 2.2 1.8 4 4 4h262.5c2.2 0 4-1.8 4-4v-141c0-2.2-1.8-4-4-4H520.9z"/></defs><clipPath id="SVGID_44_"><use xlink:href="#SVGID_43_" overflow="visible"/></clipPath><g class="st21"><defs><path id="SVGID_45_" d="M516 61h272v150H516z"/></defs><clipPath id="SVGID_46_"><use xlink:href="#SVGID_45_" overflow="visible"/></clipPath><g class="st22"><defs><path id="SVGID_47_" d="M516 61h272v150H516z"/></defs><clipPath id="SVGID_48_"><use xlink:href="#SVGID_47_" overflow="visible"/></clipPath><path class="st23" d="M511.9 56.4h280.5v159H511.9z"/></g></g><defs><path id="SVGID_49_" d="M516.9 65.4c0-2.2 1.8-4 4-4h263c2.2 0 4 1.8 4 4v34h-271v-34z"/></defs><clipPath id="SVGID_50_"><use xlink:href="#SVGID_49_" overflow="visible"/></clipPath><path class="st24" d="M511.9 56.4h281v48h-281z"/><defs><path id="SVGID_51_" d="M625.6 167.8h54c1.4 0 2.5 1.1 2.5 2.5v14c0 1.4-1.1 2.5-2.5 2.5h-54c-1.4 0-2.5-1.1-2.5-2.5v-14c0-1.4 1.1-2.5 2.5-2.5zm0-1c-1.9 0-3.5 1.6-3.5 3.5v14c0 1.9 1.6 3.5 3.5 3.5h54c1.9 0 3.5-1.6 3.5-3.5v-14c0-1.9-1.6-3.5-3.5-3.5h-54zm-23.5-20h101v61h-101v-61z"/></defs><clipPath id="SVGID_52_"><use xlink:href="#SVGID_51_" overflow="visible"/></clipPath><g class="st25"><defs><path id="SVGID_53_" d="M625.6 167.3c-1.7 0-3 1.3-3 3v14c0 1.7 1.3 3 3 3h54c1.7 0 3-1.3 3-3v-14c0-1.7-1.3-3-3-3h-54z"/></defs><clipPath id="SVGID_54_"><use xlink:href="#SVGID_53_" overflow="visible"/></clipPath><path class="st26" d="M625.6 167.3c-1.7 0-3 1.3-3 3v14c0 1.7 1.3 3 3 3h54c1.7 0 3-1.3 3-3v-14c0-1.7-1.3-3-3-3h-54z"/></g><defs><path id="SVGID_55_" d="M625.6 167.3c-1.7 0-3 1.3-3 3v14c0 1.7 1.3 3 3 3h54c1.7 0 3-1.3 3-3v-14c0-1.7-1.3-3-3-3h-54z"/></defs><clipPath id="SVGID_56_"><use xlink:href="#SVGID_55_" overflow="visible"/></clipPath><path class="st27" d="M625.6 167.3c-1.7 0-3 1.3-3 3v14c0 1.7 1.3 3 3 3h54c1.7 0 3-1.3 3-3v-14c0-1.7-1.3-3-3-3h-54z"/><defs><path id="SVGID_57_" d="M579.4 80c0-1.7 1.4-3.1 3.1-3.1h137c1.7 0 3.1 1.4 3.1 3.1 0 1.7-1.4 3.1-3.1 3.1h-137c-1.7 0-3.1-1.4-3.1-3.1z"/></defs><clipPath id="SVGID_58_"><use xlink:href="#SVGID_57_" overflow="visible"/></clipPath><path class="st28" d="M574.4 71.9h153.2v16.2H574.4z"/><defs><path id="SVGID_59_" d="M581.8 121.9c0-.8.7-1.5 1.5-1.5h67c.8 0 1.5.7 1.5 1.5s-.7 1.5-1.5 1.5h-67c-.8 0-1.5-.7-1.5-1.5z"/></defs><clipPath id="SVGID_60_"><use xlink:href="#SVGID_59_" overflow="visible"/></clipPath><path class="st29" d="M576.8 115.4h80v13h-80z"/><defs><path id="SVGID_61_" d="M532.8 121.9c0-.8.7-1.5 1.5-1.5h38c.8 0 1.5.7 1.5 1.5s-.7 1.5-1.5 1.5h-38c-.8 0-1.5-.7-1.5-1.5z"/></defs><clipPath id="SVGID_62_"><use xlink:href="#SVGID_61_" overflow="visible"/></clipPath><path class="st30" d="M527.8 115.4h51v13h-51z"/><defs><path id="SVGID_63_" d="M659.8 121.9c0-.8.7-1.5 1.5-1.5h109c.8 0 1.5.7 1.5 1.5s-.7 1.5-1.5 1.5h-109c-.8 0-1.5-.7-1.5-1.5z"/></defs><clipPath id="SVGID_64_"><use xlink:href="#SVGID_63_" overflow="visible"/></clipPath><path class="st31" d="M654.8 115.4h122v13h-122z"/><defs><path id="SVGID_65_" d="M532.8 131.9c0-.8.7-1.5 1.5-1.5H614c.8 0 1.5.7 1.5 1.5s-.7 1.5-1.5 1.5h-79.7c-.8 0-1.5-.7-1.5-1.5z"/></defs><clipPath id="SVGID_66_"><use xlink:href="#SVGID_65_" overflow="visible"/></clipPath><path class="st32" d="M527.8 125.4h92.7v13h-92.7z"/><g><defs><path id="SVGID_67_" d="M624.1 131.9c0-.8.7-1.5 1.5-1.5h53.2c.8 0 1.5.7 1.5 1.5s-.7 1.5-1.5 1.5h-53.2c-.8 0-1.5-.7-1.5-1.5z"/></defs><clipPath id="SVGID_68_"><use xlink:href="#SVGID_67_" overflow="visible"/></clipPath><path class="st33" d="M619.1 125.4h66.2v13h-66.2z"/></g><g><defs><path id="SVGID_69_" d="M689.3 131.9c0-.8.7-1.5 1.5-1.5h79.7c.8 0 1.5.7 1.5 1.5s-.7 1.5-1.5 1.5h-79.7c-.9 0-1.5-.7-1.5-1.5z"/></defs><clipPath id="SVGID_70_"><use xlink:href="#SVGID_69_" overflow="visible"/></clipPath><path class="st34" d="M684.3 125.4H777v13h-92.7z"/></g><g><defs><path id="SVGID_71_" d="M532.8 141.8c0-.8.7-1.5 1.5-1.5h55.5c.8 0 1.5.7 1.5 1.5s-.7 1.5-1.5 1.5h-55.5c-.8 0-1.5-.7-1.5-1.5z"/></defs><clipPath id="SVGID_72_"><use xlink:href="#SVGID_71_" overflow="visible"/></clipPath><path class="st35" d="M527.8 135.3h68.5v13h-68.5z"/></g><g><defs><path id="SVGID_73_" d="M597.4 141.8c0-.8.7-1.5 1.5-1.5H651c.8 0 1.5.7 1.5 1.5s-.7 1.5-1.5 1.5h-52.1c-.8 0-1.5-.7-1.5-1.5z"/></defs><clipPath id="SVGID_74_"><use xlink:href="#SVGID_73_" overflow="visible"/></clipPath><path class="st36" d="M592.4 135.3h65.1v13h-65.1z"/></g><g><defs><path id="SVGID_75_" d="M658.7 141.8c0-.8.7-1.5 1.5-1.5h40.3c.8 0 1.5.7 1.5 1.5s-.7 1.5-1.5 1.5h-40.3c-.8 0-1.5-.7-1.5-1.5z"/></defs><clipPath id="SVGID_76_"><use xlink:href="#SVGID_75_" overflow="visible"/></clipPath><path class="st37" d="M653.7 135.3H707v13h-53.3z"/></g><g><defs><path id="SVGID_77_" d="M710.7 141.8c0-.8.7-1.5 1.5-1.5h58.2c.8 0 1.5.7 1.5 1.5s-.7 1.5-1.5 1.5h-58.2c-.8 0-1.5-.7-1.5-1.5z"/></defs><clipPath id="SVGID_78_"><use xlink:href="#SVGID_77_" overflow="visible"/></clipPath><path class="st38" d="M705.7 135.3h71.2v13h-71.2z"/></g></svg>