<svg xmlns="http://www.w3.org/2000/svg" width="294" height="100" xmlns:xlink="http://www.w3.org/1999/xlink"><defs><rect id="a" width="72" height="32" rx="4"/><mask id="b" width="72" height="32" x="0" y="0" fill="#fff"><use xlink:href="#a"/></mask><path id="d" d="M130.627 11.314L119.314 0 108 11.314H3.99c-2.204 0-3.99 1.79-3.99 3.994V59.32c0 2.206 1.794 3.994 3.99 3.994h232.02c2.204 0 3.99-1.79 3.99-3.994V15.308c0-2.206-1.794-3.994-3.99-3.994H130.627z"/><filter id="c" width="200%" height="200%" x="-50%" y="-50%" filterUnits="objectBoundingBox"><feOffset dy="-1" in="SourceAlpha" result="shadowOffsetOuter1"/><feGaussianBlur stdDeviation="2" in="shadowOffsetOuter1" result="shadowBlurOuter1"/><feColorMatrix values="0 0 0 0 0 0 0 0 0 0 0 0 0 0 0 0 0 0 0.16 0" in="shadowBlurOuter1"/></filter></defs><g fill="none" fill-rule="evenodd"><g transform="translate(222 68)"><rect width="72" height="32" fill="#1570D2" rx="4"/><rect width="40" height="6" x="16" y="13" fill="#FFF" rx="3"/></g><g transform="translate(142 68)"><use fill="#FFF" stroke="#E0E5EE" stroke-width="2" mask="url(#b)" xlink:href="#a"/><rect width="40" height="6" x="16" y="13" fill="#0070D2" rx="3"/></g><path fill="#C23934" d="M133.78 89.795l-8.81-14.223c-.473-.763-1.467-.763-1.94 0l-8.81 14.223c-.555.894.007 2.128.968 2.128h17.624c.96 0 1.523-1.234.97-2.128zm-9.78-.95c-.637 0-1.154-.515-1.154-1.153 0-.637.517-1.154 1.154-1.154.637 0 1.154.517 1.154 1.154 0 .638-.517 1.154-1.154 1.154zm1.154-3.46c0 .212-.172.384-.385.384h-1.54c-.22 0-.39-.18-.39-.39v-5c0-.22.17-.39.38-.39h1.54c.21 0 .382.17.382.382v5z"/><g transform="translate(4 3)"><g transform="matrix(1 0 0 -1 0 63.314)"><use fill="#000" filter="url(#c)" xlink:href="#d"/><use fill="#C23934" xlink:href="#d"/></g><path fill="#FFF" d="M227.605 14.23l4.252 4.252c.19.19.19.498 0 .688l-.687.687c-.19.19-.498.19-.688 0l-4.253-4.252c-.13-.126-.34-.126-.46 0l-4.26 4.252c-.19.19-.5.19-.69 0l-.69-.687c-.19-.19-.19-.498 0-.688l4.25-4.253c.127-.13.127-.34 0-.46l-4.25-4.26c-.19-.19-.19-.5 0-.69l.686-.69c.19-.19.497-.19.687 0l4.253 4.25c.13.127.335.127.46 0l4.254-4.25c.19-.19.498-.19.688 0l.69.686c.19.19.19.497 0 .687l-4.255 4.253c-.126.13-.126.335 0 .46"/><rect width="170" height="8" x="14" y="12" fill="#FFF" rx="4"/><rect width="80" height="6" x="28" y="30" fill="#FFF" rx="3"/><circle cx="17" cy="33" r="3" fill="#FFF"/></g></g></svg>