<svg width="863" height="536" viewBox="0 0 863 536" xmlns="http://www.w3.org/2000/svg"><defs><filter x="-50%" y="-50%" width="200%" height="200%" filterUnits="objectBoundingBox" id="a"><feOffset dy="2" in="SourceAlpha" result="shadowOffsetOuter1"/><feGaussianBlur stdDeviation="1" in="shadowOffsetOuter1" result="shadowBlurOuter1"/><feColorMatrix values="0 0 0 0 0.0862745098 0 0 0 0 0.196078431 0 0 0 0 0.360784314 0 0 0 0.07 0" in="shadowBlurOuter1" result="shadowMatrixOuter1"/><feMerge><feMergeNode in="shadowMatrixOuter1"/><feMergeNode in="SourceGraphic"/></feMerge></filter></defs><g fill="none" fill-rule="evenodd"><path stroke="#BAC6D3" fill="#FFF" d="M2.34.67h857.85v534.84H2.34z"/><path stroke="#BAC6D3" fill="#FFF" filter="url(#a)" d="M0 0h857.85v40.113H0z" transform="translate(2.34 .67)"/><path d="M66.118 9.234c1.358-1.41 3.248-2.287 5.34-2.287 2.778 0 5.203 1.546 6.494 3.84 1.122-.5 2.364-.778 3.67-.778 5.013 0 9.077 4.09 9.077 9.133 0 5.044-4.065 9.133-9.077 9.133-.612 0-1.21-.06-1.788-.177-1.137 2.022-3.304 3.388-5.79 3.388-1.042 0-2.027-.24-2.904-.666-1.15 2.705-3.837 4.6-6.966 4.6-3.26 0-6.038-2.056-7.104-4.94-.466.097-.95.15-1.445.15-3.88 0-7.026-3.172-7.026-7.084 0-2.62 1.412-4.91 3.512-6.135-.432-.993-.672-2.088-.672-3.24 0-4.498 3.66-8.145 8.177-8.145 2.65 0 5.007 1.257 6.5 3.206" fill="#00A1E0"/><path fill="#16325C" d="M2.34.67h37.53v534.842H2.34z"/><g fill="#16325C"><path d="M2.34.67h37.53v40.113H2.34z"/></g><g transform="translate(312.64 46.13)"><rect fill="#04844B" width="275.45" height="37.439" rx="4"/><rect fill="#FFF" x="16.085" y="14.04" width="214.463" height="8.023" rx="5"/><path d="M259.528 13.013c.207-.207.207-.54 0-.747l-.748-.746c-.207-.206-.542-.206-.748 0l-4.625 4.613c-.138.138-.36.138-.5 0l-4.624-4.613c-.206-.206-.54-.206-.748 0l-.748.746c-.207.206-.207.54 0 .747l4.625 4.613c.137.137.137.36 0 .498l-4.625 4.613c-.207.206-.207.54 0 .747l.748.746c.207.206.542.206.748 0l4.625-4.614c.138-.137.36-.137.5 0l4.624 4.614c.206.206.54.206.748 0l.748-.746c.207-.207.207-.54 0-.747l-4.625-4.613c-.137-.138-.137-.36 0-.498l4.625-4.613z" fill="#FFF"/></g></g></svg>