<?xml version="1.0" encoding="utf-8"?>
<!-- Generator: Adobe Illustrator 19.1.0, SVG Export Plug-In . SVG Version: 6.00 Build 0)  -->
<svg version="1.1" id="Layer_1" xmlns="http://www.w3.org/2000/svg" xmlns:xlink="http://www.w3.org/1999/xlink" x="0px" y="0px"
	 width="857px" height="102px" viewBox="0 0 857 102" style="enable-background:new 0 0 857 102;" xml:space="preserve">
<style type="text/css">
	.st0{clip-path:url(#SVGID_2_);fill:#04844B;}
	.st1{clip-path:url(#SVGID_4_);fill:#FFFFFF;}
	.st2{clip-path:url(#SVGID_6_);fill:#FFFFFF;}
	.st3{clip-path:url(#SVGID_8_);fill:#04844B;}
	.st4{clip-path:url(#SVGID_10_);fill:#FFFFFF;}
	.st5{clip-path:url(#SVGID_12_);fill:#FFFFFF;}
	.st6{clip-path:url(#SVGID_14_);fill:#04844B;}
	.st7{clip-path:url(#SVGID_16_);fill:#FFFFFF;}
	.st8{clip-path:url(#SVGID_18_);fill:#FFFFFF;}
	.st9{clip-path:url(#SVGID_20_);fill:#FFFFFF;}
	.st10{clip-path:url(#SVGID_22_);fill:#FFFFFF;}
	.st11{fill:none;stroke:#16325C;stroke-linecap:square;stroke-miterlimit:10;}
	.st12{clip-path:url(#SVGID_24_);fill:#04844B;}
	.st13{clip-path:url(#SVGID_26_);fill:#FFFFFF;}
	.st14{clip-path:url(#SVGID_28_);fill:#FFFFFF;}
</style>
<g>
	<g>
		<defs>
			<path id="SVGID_1_" d="M0,4c0-2.2,1.8-4,4-4h216c2.2,0,4,1.8,4,4v22c0,2.2-1.8,4-4,4H4c-2.2,0-4-1.8-4-4V4z"/>
		</defs>
		<clipPath id="SVGID_2_">
			<use xlink:href="#SVGID_1_"  style="overflow:visible;"/>
		</clipPath>
		<rect x="-5" y="-5" class="st0" width="234" height="40"/>
	</g>
</g>
<g>
	<g>
		<defs>
			<path id="SVGID_3_" d="M14,15c0-1.7,1.3-3,3-3h136c1.7,0,3,1.3,3,3c0,1.7-1.3,3-3,3H17C15.3,18,14,16.7,14,15z"/>
		</defs>
		<clipPath id="SVGID_4_">
			<use xlink:href="#SVGID_3_"  style="overflow:visible;"/>
		</clipPath>
		<rect x="9" y="7" class="st1" width="152" height="16"/>
	</g>
</g>
<g>
	<g>
		<defs>
			<path id="SVGID_5_" d="M206.6,14.2l3.1-3.1c0.1-0.1,0.1-0.4,0-0.5l-0.5-0.5c-0.1-0.1-0.4-0.1-0.5,0l-3.1,3.1
				c-0.1,0.1-0.2,0.1-0.3,0l-3.1-3.1c-0.1-0.1-0.4-0.1-0.5,0l-0.5,0.5c-0.1,0.1-0.1,0.4,0,0.5l3.1,3.1c0.1,0.1,0.1,0.2,0,0.3
				l-3.1,3.1c-0.1,0.1-0.1,0.4,0,0.5l0.5,0.5c0.1,0.1,0.4,0.1,0.5,0l3.1-3.1c0.1-0.1,0.2-0.1,0.3,0l3.1,3.1c0.1,0.1,0.4,0.1,0.5,0
				l0.5-0.5c0.1-0.1,0.1-0.4,0-0.5l-3.1-3.1C206.5,14.5,206.5,14.3,206.6,14.2"/>
		</defs>
		<clipPath id="SVGID_6_">
			<use xlink:href="#SVGID_5_"  style="overflow:visible;"/>
		</clipPath>
		<rect x="196" y="5" class="st2" width="18.8" height="18.8"/>
	</g>
</g>
<g>
	<g>
		<defs>
			<path id="SVGID_7_" d="M0,40c0-2.2,1.8-4,4-4h216c2.2,0,4,1.8,4,4v22c0,2.2-1.8,4-4,4H4c-2.2,0-4-1.8-4-4V40z"/>
		</defs>
		<clipPath id="SVGID_8_">
			<use xlink:href="#SVGID_7_"  style="overflow:visible;"/>
		</clipPath>
		<rect x="-5" y="31" class="st3" width="234" height="40"/>
	</g>
</g>
<g>
	<g>
		<defs>
			<path id="SVGID_9_" d="M14,51c0-1.7,1.4-3,3-3h101c1.7,0,3,1.3,3,3c0,1.7-1.4,3-3,3H17C15.3,54,14,52.7,14,51z"/>
		</defs>
		<clipPath id="SVGID_10_">
			<use xlink:href="#SVGID_9_"  style="overflow:visible;"/>
		</clipPath>
		<rect x="9" y="43" class="st4" width="117" height="16"/>
	</g>
</g>
<g>
	<g>
		<defs>
			<path id="SVGID_11_" d="M206.6,50.2l3.1-3.1c0.1-0.1,0.1-0.4,0-0.5l-0.5-0.5c-0.1-0.1-0.4-0.1-0.5,0l-3.1,3.1
				c-0.1,0.1-0.2,0.1-0.3,0l-3.1-3.1c-0.1-0.1-0.4-0.1-0.5,0l-0.5,0.5c-0.1,0.1-0.1,0.4,0,0.5l3.1,3.1c0.1,0.1,0.1,0.2,0,0.3
				l-3.1,3.1c-0.1,0.1-0.1,0.4,0,0.5l0.5,0.5c0.1,0.1,0.4,0.1,0.5,0l3.1-3.1c0.1-0.1,0.2-0.1,0.3,0l3.1,3.1c0.1,0.1,0.4,0.1,0.5,0
				l0.5-0.5c0.1-0.1,0.1-0.4,0-0.5l-3.1-3.1C206.5,50.5,206.5,50.3,206.6,50.2"/>
		</defs>
		<clipPath id="SVGID_12_">
			<use xlink:href="#SVGID_11_"  style="overflow:visible;"/>
		</clipPath>
		<rect x="196" y="41" class="st5" width="18.8" height="18.8"/>
	</g>
</g>
<g>
	<g>
		<defs>
			<path id="SVGID_13_" d="M392,40c0-2.2,1.8-4,4-4h457c2.2,0,4,1.8,4,4v22c0,2.2-1.8,4-4,4H396c-2.2,0-4-1.8-4-4V40z"/>
		</defs>
		<clipPath id="SVGID_14_">
			<use xlink:href="#SVGID_13_"  style="overflow:visible;"/>
		</clipPath>
		<rect x="387" y="31" class="st6" width="475" height="40"/>
	</g>
</g>
<g>
	<g>
		<defs>
			<path id="SVGID_15_" d="M564,51c0-1.7,1.4-3,3-3h101c1.7,0,3,1.3,3,3c0,1.7-1.4,3-3,3H567C565.3,54,564,52.7,564,51z"/>
		</defs>
		<clipPath id="SVGID_16_">
			<use xlink:href="#SVGID_15_"  style="overflow:visible;"/>
		</clipPath>
		<rect x="559" y="43" class="st7" width="117" height="16"/>
	</g>
</g>
<g>
	<g>
		<defs>
			<path id="SVGID_17_" d="M685,51c0-1.7,1.3-3,3-3h58c1.7,0,3,1.3,3,3c0,1.7-1.3,3-3,3h-58C686.3,54,685,52.7,685,51z"/>
		</defs>
		<clipPath id="SVGID_18_">
			<use xlink:href="#SVGID_17_"  style="overflow:visible;"/>
		</clipPath>
		<rect x="680" y="43" class="st8" width="74" height="16"/>
	</g>
</g>
<g>
	<g>
		<defs>
			<path id="SVGID_19_" d="M406,51c0-1.7,1.3-3,3-3h136c1.7,0,3,1.3,3,3c0,1.7-1.3,3-3,3H409C407.3,54,406,52.7,406,51z"/>
		</defs>
		<clipPath id="SVGID_20_">
			<use xlink:href="#SVGID_19_"  style="overflow:visible;"/>
		</clipPath>
		<rect x="401" y="43" class="st9" width="152" height="16"/>
	</g>
</g>
<g>
	<g>
		<defs>
			<path id="SVGID_21_" d="M839.6,50.2l3.1-3.1c0.1-0.1,0.1-0.4,0-0.5l-0.5-0.5c-0.1-0.1-0.4-0.1-0.5,0l-3.1,3.1
				c-0.1,0.1-0.2,0.1-0.3,0l-3.1-3.1c-0.1-0.1-0.4-0.1-0.5,0l-0.5,0.5c-0.1,0.1-0.1,0.4,0,0.5l3.1,3.1c0.1,0.1,0.1,0.2,0,0.3
				l-3.1,3.1c-0.1,0.1-0.1,0.4,0,0.5l0.5,0.5c0.1,0.1,0.4,0.1,0.5,0l3.1-3.1c0.1-0.1,0.2-0.1,0.3,0l3.1,3.1c0.1,0.1,0.4,0.1,0.5,0
				l0.5-0.5c0.1-0.1,0.1-0.4,0-0.5l-3.1-3.1C839.5,50.5,839.5,50.3,839.6,50.2"/>
		</defs>
		<clipPath id="SVGID_22_">
			<use xlink:href="#SVGID_21_"  style="overflow:visible;"/>
		</clipPath>
		<rect x="829" y="41" class="st10" width="18.8" height="18.8"/>
	</g>
</g>
<g>
	<line class="st11" x1="238.5" y1="51.5" x2="377.5" y2="51.5"/>
	<line class="st11" x1="246.5" y1="14.5" x2="246.5" y2="86.5"/>
	<line class="st11" x1="238.5" y1="14.5" x2="245.6" y2="14.5"/>
	<line class="st11" x1="238.5" y1="86.5" x2="245.6" y2="86.5"/>
</g>
<g>
	<g>
		<defs>
			<path id="SVGID_23_" d="M0,76c0-2.2,1.8-4,4-4h216c2.2,0,4,1.8,4,4v22c0,2.2-1.8,4-4,4H4c-2.2,0-4-1.8-4-4V76z"/>
		</defs>
		<clipPath id="SVGID_24_">
			<use xlink:href="#SVGID_23_"  style="overflow:visible;"/>
		</clipPath>
		<rect x="-5" y="67" class="st12" width="234" height="40"/>
	</g>
</g>
<g>
	<g>
		<defs>
			<path id="SVGID_25_" d="M14,87c0-1.7,1.3-3,3-3h58c1.7,0,3,1.3,3,3c0,1.7-1.3,3-3,3H17C15.3,90,14,88.7,14,87z"/>
		</defs>
		<clipPath id="SVGID_26_">
			<use xlink:href="#SVGID_25_"  style="overflow:visible;"/>
		</clipPath>
		<rect x="9" y="79" class="st13" width="74" height="16"/>
	</g>
</g>
<g>
	<g>
		<defs>
			<path id="SVGID_27_" d="M206.6,86.2l3.1-3.1c0.1-0.1,0.1-0.4,0-0.5l-0.5-0.5c-0.1-0.1-0.4-0.1-0.5,0l-3.1,3.1
				c-0.1,0.1-0.2,0.1-0.3,0l-3.1-3.1c-0.1-0.1-0.4-0.1-0.5,0l-0.5,0.5c-0.1,0.1-0.1,0.4,0,0.5l3.1,3.1c0.1,0.1,0.1,0.2,0,0.3
				l-3.1,3.1c-0.1,0.1-0.1,0.4,0,0.5l0.5,0.5c0.1,0.1,0.4,0.1,0.5,0l3.1-3.1c0.1-0.1,0.2-0.1,0.3,0l3.1,3.1c0.1,0.1,0.4,0.1,0.5,0
				l0.5-0.5c0.1-0.1,0.1-0.4,0-0.5l-3.1-3.1C206.5,86.5,206.5,86.3,206.6,86.2"/>
		</defs>
		<clipPath id="SVGID_28_">
			<use xlink:href="#SVGID_27_"  style="overflow:visible;"/>
		</clipPath>
		<rect x="196" y="77" class="st14" width="18.8" height="18.8"/>
	</g>
</g>
</svg>
