<svg id="Layer_1" xmlns="http://www.w3.org/2000/svg" xmlns:xlink="http://www.w3.org/1999/xlink" width="519" height="102"><style>.st0{clip-path:url(#SVGID_2_);fill:#04844B;} .st1{clip-path:url(#SVGID_4_);fill:#FFFFFF;} .st2{clip-path:url(#SVGID_6_);fill:#FFFFFF;} .st3{clip-path:url(#SVGID_8_);fill:#576C90;} .st4{clip-path:url(#SVGID_10_);fill:#FFFFFF;} .st5{clip-path:url(#SVGID_12_);fill:#FFFFFF;} .st6{clip-path:url(#SVGID_14_);fill:#FFB75D;} .st7{clip-path:url(#SVGID_16_);fill:#FFFFFF;} .st8{clip-path:url(#SVGID_18_);fill:#FFFFFF;}</style><defs><path id="SVGID_1_" d="M0 4c0-2.2 1.8-4 4-4h510c2.2 0 4 1.8 4 4v22c0 2.2-1.8 4-4 4H4c-2.2 0-4-1.8-4-4V4z"/></defs><clipPath id="SVGID_2_"><use xlink:href="#SVGID_1_" overflow="visible"/></clipPath><path class="st0" d="M-5-5h528v40H-5z"/><defs><path id="SVGID_3_" d="M500.6 14.2l3.1-3.1c.1-.1.1-.4 0-.5l-.5-.5c-.1-.1-.4-.1-.5 0l-3.1 3.1c-.1.1-.2.1-.3 0l-3.1-3.1c-.1-.1-.4-.1-.5 0l-.5.5c-.1.1-.1.4 0 .5l3.1 3.1c.1.1.1.2 0 .3l-3.1 3.1c-.1.1-.1.4 0 .5l.5.5c.1.1.4.1.5 0l3.1-3.1c.1-.1.2-.1.3 0l3.1 3.1c.1.1.4.1.5 0l.5-.5c.1-.1.1-.4 0-.5l-3.1-3.1c-.1 0-.1-.2 0-.3"/></defs><clipPath id="SVGID_4_"><use xlink:href="#SVGID_3_" overflow="visible"/></clipPath><path class="st1" d="M490 5h18.8v18.8H490z"/><defs><path id="SVGID_5_" d="M14 15c0-1.7 1.3-3 3-3h262c1.7 0 3 1.3 3 3s-1.3 3-3 3H17c-1.7 0-3-1.3-3-3z"/></defs><clipPath id="SVGID_6_"><use xlink:href="#SVGID_5_" overflow="visible"/></clipPath><path class="st2" d="M9 7h278v16H9z"/><defs><path id="SVGID_7_" d="M0 40c0-2.2 1.8-4 4-4h511c2.2 0 4 1.8 4 4v22c0 2.2-1.8 4-4 4H4c-2.2 0-4-1.8-4-4V40z"/></defs><clipPath id="SVGID_8_"><use xlink:href="#SVGID_7_" overflow="visible"/></clipPath><path class="st3" d="M-5 31h529v40H-5z"/><defs><path id="SVGID_9_" d="M501.6 51.2l3.1-3.1c.1-.1.1-.4 0-.5l-.5-.5c-.1-.1-.4-.1-.5 0l-3.1 3.1c-.1.1-.2.1-.3 0l-3.1-3.1c-.1-.1-.4-.1-.5 0l-.5.5c-.1.1-.1.4 0 .5l3.1 3.1c.1.1.1.2 0 .3l-3.1 3.1c-.1.1-.1.4 0 .5l.5.5c.1.1.4.1.5 0l3.1-3.1c.1-.1.2-.1.3 0l3.1 3.1c.1.1.4.1.5 0l.5-.5c.1-.1.1-.4 0-.5l-3.1-3.1c-.1 0-.1-.2 0-.3"/></defs><clipPath id="SVGID_10_"><use xlink:href="#SVGID_9_" overflow="visible"/></clipPath><path class="st4" d="M491 42h18.8v18.8H491z"/><defs><path id="SVGID_11_" d="M14 51c0-1.7 1.3-3 3-3h337c1.7 0 3 1.3 3 3s-1.3 3-3 3H17c-1.7 0-3-1.3-3-3z"/></defs><clipPath id="SVGID_12_"><use xlink:href="#SVGID_11_" overflow="visible"/></clipPath><path class="st5" d="M9 43h353v16H9z"/><defs><path id="SVGID_13_" d="M0 76c0-2.2 1.8-4 4-4h511c2.2 0 4 1.8 4 4v22c0 2.2-1.8 4-4 4H4c-2.2 0-4-1.8-4-4V76z"/></defs><clipPath id="SVGID_14_"><use xlink:href="#SVGID_13_" overflow="visible"/></clipPath><path class="st6" d="M-5 67h529v40H-5z"/><defs><path id="SVGID_15_" d="M501.6 87.2l3.1-3.1c.1-.1.1-.4 0-.5l-.5-.5c-.1-.1-.4-.1-.5 0l-3.1 3.1c-.1.1-.2.1-.3 0l-3.1-3.1c-.1-.1-.4-.1-.5 0l-.5.5c-.1.1-.1.4 0 .5l3.1 3.1c.1.1.1.2 0 .3l-3.1 3.1c-.1.1-.1.4 0 .5l.5.5c.1.1.4.1.5 0l3.1-3.1c.1-.1.2-.1.3 0l3.1 3.1c.1.1.4.1.5 0l.5-.5c.1-.1.1-.4 0-.5l-3.1-3.1c-.1 0-.1-.2 0-.3"/></defs><clipPath id="SVGID_16_"><use xlink:href="#SVGID_15_" overflow="visible"/></clipPath><path class="st7" d="M491 78h18.8v18.8H491z"/><g><defs><path id="SVGID_17_" d="M14 87c0-1.7 1.3-3 3-3h203c1.7 0 3 1.3 3 3s-1.3 3-3 3H17c-1.7 0-3-1.3-3-3z"/></defs><clipPath id="SVGID_18_"><use xlink:href="#SVGID_17_" overflow="visible"/></clipPath><path class="st8" d="M9 79h219v16H9z"/></g></svg>