<?xml version="1.0" encoding="utf-8"?>
<!-- Generator: Adobe Illustrator 19.1.0, SVG Export Plug-In . SVG Version: 6.00 Build 0)  -->
<svg version="1.1" id="Layer_1" xmlns="http://www.w3.org/2000/svg" xmlns:xlink="http://www.w3.org/1999/xlink" x="0px" y="0px"
	 width="859px" height="273px" viewBox="0 0 859 273" style="enable-background:new 0 0 859 273;" xml:space="preserve">
<style type="text/css">
	.st0{clip-path:url(#SVGID_2_);fill:#D3DCE7;}
	.st1{clip-path:url(#SVGID_4_);enable-background:new    ;}
	.st2{clip-path:url(#SVGID_6_);}
	.st3{clip-path:url(#SVGID_8_);fill:#FFFFFF;}
	.st4{clip-path:url(#SVGID_10_);fill:#5876A3;}
	.st5{clip-path:url(#SVGID_12_);fill:#D3DCE7;}
	.st6{clip-path:url(#SVGID_14_);}
	.st7{clip-path:url(#SVGID_16_);fill-rule:evenodd;clip-rule:evenodd;fill:#FFFFFF;}
	.st8{clip-path:url(#SVGID_18_);fill:none;stroke:#E1E6EF;stroke-width:2;stroke-miterlimit:10;}
	.st9{clip-path:url(#SVGID_20_);fill:#FFFFFF;}
	.st10{clip-path:url(#SVGID_22_);fill:#D3DCE7;}
	.st11{clip-path:url(#SVGID_24_);fill:#D3DCE7;}
	.st12{clip-path:url(#SVGID_26_);fill:#D3DCE7;}
	.st13{clip-path:url(#SVGID_28_);fill:#D3DCE7;}
	.st14{clip-path:url(#SVGID_30_);fill:#D3DCE7;}
	.st15{clip-path:url(#SVGID_32_);fill:#D3DCE7;}
	.st16{clip-path:url(#SVGID_34_);fill:#D3DCE7;}
	.st17{clip-path:url(#SVGID_36_);fill:#D3DCE7;}
	.st18{clip-path:url(#SVGID_38_);fill:#D3DCE7;}
	.st19{clip-path:url(#SVGID_40_);fill:#D3DCE7;}
	.st20{clip-path:url(#SVGID_42_);fill:#D3DCE7;}
	.st21{clip-path:url(#SVGID_44_);enable-background:new    ;}
	.st22{clip-path:url(#SVGID_46_);}
	.st23{clip-path:url(#SVGID_48_);fill:#FFFFFF;}
	.st24{clip-path:url(#SVGID_50_);fill:#C33F3A;}
	.st25{clip-path:url(#SVGID_52_);}
	.st26{clip-path:url(#SVGID_54_);fill-rule:evenodd;clip-rule:evenodd;fill:#FFFFFF;}
	.st27{clip-path:url(#SVGID_56_);fill:none;stroke:#E1E6EF;stroke-width:2;stroke-miterlimit:10;}
	.st28{clip-path:url(#SVGID_58_);fill:#FFFFFF;}
	.st29{clip-path:url(#SVGID_60_);fill:#D3DCE7;}
	.st30{clip-path:url(#SVGID_62_);fill:#D3DCE7;}
	.st31{clip-path:url(#SVGID_64_);fill:#D3DCE7;}
	.st32{clip-path:url(#SVGID_66_);fill:#D3DCE7;}
	.st33{clip-path:url(#SVGID_68_);fill:#D3DCE7;}
	.st34{clip-path:url(#SVGID_70_);fill:#D3DCE7;}
	.st35{clip-path:url(#SVGID_72_);fill:#D3DCE7;}
	.st36{clip-path:url(#SVGID_74_);fill:#D3DCE7;}
	.st37{clip-path:url(#SVGID_76_);fill:#D3DCE7;}
	.st38{clip-path:url(#SVGID_78_);fill:#D3DCE7;}
</style>
<g>
	<g>
		<defs>
			<rect id="SVGID_1_" width="414" height="273"/>
		</defs>
		<clipPath id="SVGID_2_">
			<use xlink:href="#SVGID_1_"  style="overflow:visible;"/>
		</clipPath>
		<rect x="-5" y="-5" class="st0" width="424" height="283"/>
	</g>
</g>
<g>
	<g>
		<defs>
			<path id="SVGID_3_" d="M75.9,61.9c-2.2,0-4,1.8-4,4v141c0,2.2,1.8,4,4,4h262.5c2.2,0,4-1.8,4-4v-141c0-2.2-1.8-4-4-4H75.9z"/>
		</defs>
		<clipPath id="SVGID_4_">
			<use xlink:href="#SVGID_3_"  style="overflow:visible;"/>
		</clipPath>
		<g class="st1">
			<g>
				<defs>
					<rect id="SVGID_5_" x="71" y="61" width="272" height="150"/>
				</defs>
				<clipPath id="SVGID_6_">
					<use xlink:href="#SVGID_5_"  style="overflow:visible;"/>
				</clipPath>
				<g class="st2">
					<defs>
						<rect id="SVGID_7_" x="71" y="61" width="272" height="150"/>
					</defs>
					<clipPath id="SVGID_8_">
						<use xlink:href="#SVGID_7_"  style="overflow:visible;"/>
					</clipPath>
					<rect x="66.9" y="56.9" class="st3" width="280.5" height="159"/>
				</g>
			</g>
		</g>
	</g>
</g>
<g>
	<g>
		<defs>
			<path id="SVGID_9_" d="M71.9,65.9c0-2.2,1.8-4,4-4h263c2.2,0,4,1.8,4,4v34h-271V65.9z"/>
		</defs>
		<clipPath id="SVGID_10_">
			<use xlink:href="#SVGID_9_"  style="overflow:visible;"/>
		</clipPath>
		<rect x="66.9" y="56.9" class="st4" width="281" height="48"/>
	</g>
</g>
<g>
	<g>
		<defs>
			<path id="SVGID_11_" d="M213.5,167.8c-1.7,0-3,1.3-3,3v14c0,1.7,1.3,3,3,3h54c1.7,0,3-1.3,3-3v-14c0-1.7-1.3-3-3-3H213.5z"/>
		</defs>
		<clipPath id="SVGID_12_">
			<use xlink:href="#SVGID_11_"  style="overflow:visible;"/>
		</clipPath>
		<rect x="205.5" y="162.8" class="st5" width="70" height="30"/>
	</g>
</g>
<g>
	<g>
		<defs>
			<path id="SVGID_13_" d="M147.6,168.3h54c1.4,0,2.5,1.1,2.5,2.5v14c0,1.4-1.1,2.5-2.5,2.5h-54c-1.4,0-2.5-1.1-2.5-2.5v-14
				C145.1,169.4,146.2,168.3,147.6,168.3z M147.6,167.3c-1.9,0-3.5,1.6-3.5,3.5v14c0,1.9,1.6,3.5,3.5,3.5h54c1.9,0,3.5-1.6,3.5-3.5
				v-14c0-1.9-1.6-3.5-3.5-3.5H147.6z M124.1,147.3h101v61h-101V147.3z"/>
		</defs>
		<clipPath id="SVGID_14_">
			<use xlink:href="#SVGID_13_"  style="overflow:visible;"/>
		</clipPath>
		<g class="st6">
			<defs>
				<path id="SVGID_15_" d="M147.6,167.8c-1.7,0-3,1.3-3,3v14c0,1.7,1.3,3,3,3h54c1.7,0,3-1.3,3-3v-14c0-1.7-1.3-3-3-3H147.6z"/>
			</defs>
			<clipPath id="SVGID_16_">
				<use xlink:href="#SVGID_15_"  style="overflow:visible;"/>
			</clipPath>
			<path class="st7" d="M147.6,167.8c-1.7,0-3,1.3-3,3v14c0,1.7,1.3,3,3,3h54c1.7,0,3-1.3,3-3v-14c0-1.7-1.3-3-3-3H147.6z"/>
		</g>
	</g>
</g>
<g>
	<g>
		<defs>
			<path id="SVGID_17_" d="M147.6,167.8c-1.7,0-3,1.3-3,3v14c0,1.7,1.3,3,3,3h54c1.7,0,3-1.3,3-3v-14c0-1.7-1.3-3-3-3H147.6z"/>
		</defs>
		<clipPath id="SVGID_18_">
			<use xlink:href="#SVGID_17_"  style="overflow:visible;"/>
		</clipPath>
		<path class="st8" d="M147.6,167.8c-1.7,0-3,1.3-3,3v14c0,1.7,1.3,3,3,3h54c1.7,0,3-1.3,3-3v-14c0-1.7-1.3-3-3-3H147.6z"/>
	</g>
</g>
<g>
	<g>
		<defs>
			<path id="SVGID_19_" d="M134.4,80.5c0-1.7,1.4-3.1,3.1-3.1h137c1.7,0,3.1,1.4,3.1,3.1c0,1.7-1.4,3.1-3.1,3.1h-137
				C135.8,83.6,134.4,82.2,134.4,80.5z"/>
		</defs>
		<clipPath id="SVGID_20_">
			<use xlink:href="#SVGID_19_"  style="overflow:visible;"/>
		</clipPath>
		<rect x="129.4" y="72.4" class="st9" width="153.2" height="16.2"/>
	</g>
</g>
<g>
	<g>
		<defs>
			<path id="SVGID_21_" d="M136.8,122.4c0-0.8,0.7-1.5,1.5-1.5h67c0.8,0,1.5,0.7,1.5,1.5c0,0.8-0.7,1.5-1.5,1.5h-67
				C137.5,123.9,136.8,123.2,136.8,122.4z"/>
		</defs>
		<clipPath id="SVGID_22_">
			<use xlink:href="#SVGID_21_"  style="overflow:visible;"/>
		</clipPath>
		<rect x="131.8" y="115.9" class="st10" width="80" height="13"/>
	</g>
</g>
<g>
	<g>
		<defs>
			<path id="SVGID_23_" d="M87.8,122.4c0-0.8,0.7-1.5,1.5-1.5h38c0.8,0,1.5,0.7,1.5,1.5c0,0.8-0.7,1.5-1.5,1.5h-38
				C88.5,123.9,87.8,123.2,87.8,122.4z"/>
		</defs>
		<clipPath id="SVGID_24_">
			<use xlink:href="#SVGID_23_"  style="overflow:visible;"/>
		</clipPath>
		<rect x="82.8" y="115.9" class="st11" width="51" height="13"/>
	</g>
</g>
<g>
	<g>
		<defs>
			<path id="SVGID_25_" d="M214.8,122.4c0-0.8,0.7-1.5,1.5-1.5h109c0.8,0,1.5,0.7,1.5,1.5c0,0.8-0.7,1.5-1.5,1.5h-109
				C215.5,123.9,214.8,123.2,214.8,122.4z"/>
		</defs>
		<clipPath id="SVGID_26_">
			<use xlink:href="#SVGID_25_"  style="overflow:visible;"/>
		</clipPath>
		<rect x="209.8" y="115.9" class="st12" width="122" height="13"/>
	</g>
</g>
<g>
	<g>
		<defs>
			<path id="SVGID_27_" d="M87.8,132.4c0-0.8,0.7-1.5,1.5-1.5h79.7c0.8,0,1.5,0.7,1.5,1.5c0,0.8-0.7,1.5-1.5,1.5H89.3
				C88.5,133.9,87.8,133.2,87.8,132.4z"/>
		</defs>
		<clipPath id="SVGID_28_">
			<use xlink:href="#SVGID_27_"  style="overflow:visible;"/>
		</clipPath>
		<rect x="82.8" y="125.9" class="st13" width="92.7" height="13"/>
	</g>
</g>
<g>
	<g>
		<defs>
			<path id="SVGID_29_" d="M179.1,132.4c0-0.8,0.7-1.5,1.5-1.5h53.2c0.8,0,1.5,0.7,1.5,1.5c0,0.8-0.7,1.5-1.5,1.5h-53.2
				C179.8,133.9,179.1,133.2,179.1,132.4z"/>
		</defs>
		<clipPath id="SVGID_30_">
			<use xlink:href="#SVGID_29_"  style="overflow:visible;"/>
		</clipPath>
		<rect x="174.1" y="125.9" class="st14" width="66.2" height="13"/>
	</g>
</g>
<g>
	<g>
		<defs>
			<path id="SVGID_31_" d="M244.3,132.4c0-0.8,0.7-1.5,1.5-1.5h79.7c0.8,0,1.5,0.7,1.5,1.5c0,0.8-0.7,1.5-1.5,1.5h-79.7
				C244.9,133.9,244.3,133.2,244.3,132.4z"/>
		</defs>
		<clipPath id="SVGID_32_">
			<use xlink:href="#SVGID_31_"  style="overflow:visible;"/>
		</clipPath>
		<rect x="239.3" y="125.9" class="st15" width="92.7" height="13"/>
	</g>
</g>
<g>
	<g>
		<defs>
			<path id="SVGID_33_" d="M87.8,142.3c0-0.8,0.7-1.5,1.5-1.5h55.5c0.8,0,1.5,0.7,1.5,1.5c0,0.8-0.7,1.5-1.5,1.5H89.3
				C88.5,143.8,87.8,143.1,87.8,142.3z"/>
		</defs>
		<clipPath id="SVGID_34_">
			<use xlink:href="#SVGID_33_"  style="overflow:visible;"/>
		</clipPath>
		<rect x="82.8" y="135.8" class="st16" width="68.5" height="13"/>
	</g>
</g>
<g>
	<g>
		<defs>
			<path id="SVGID_35_" d="M152.4,142.3c0-0.8,0.7-1.5,1.5-1.5H206c0.8,0,1.5,0.7,1.5,1.5c0,0.8-0.7,1.5-1.5,1.5h-52.1
				C153.1,143.8,152.4,143.1,152.4,142.3z"/>
		</defs>
		<clipPath id="SVGID_36_">
			<use xlink:href="#SVGID_35_"  style="overflow:visible;"/>
		</clipPath>
		<rect x="147.4" y="135.8" class="st17" width="65.1" height="13"/>
	</g>
</g>
<g>
	<g>
		<defs>
			<path id="SVGID_37_" d="M213.7,142.3c0-0.8,0.7-1.5,1.5-1.5h40.3c0.8,0,1.5,0.7,1.5,1.5c0,0.8-0.7,1.5-1.5,1.5h-40.3
				C214.4,143.8,213.7,143.1,213.7,142.3z"/>
		</defs>
		<clipPath id="SVGID_38_">
			<use xlink:href="#SVGID_37_"  style="overflow:visible;"/>
		</clipPath>
		<rect x="208.7" y="135.8" class="st18" width="53.3" height="13"/>
	</g>
</g>
<g>
	<g>
		<defs>
			<path id="SVGID_39_" d="M265.7,142.3c0-0.8,0.7-1.5,1.5-1.5h58.2c0.8,0,1.5,0.7,1.5,1.5c0,0.8-0.7,1.5-1.5,1.5h-58.2
				C266.4,143.8,265.7,143.1,265.7,142.3z"/>
		</defs>
		<clipPath id="SVGID_40_">
			<use xlink:href="#SVGID_39_"  style="overflow:visible;"/>
		</clipPath>
		<rect x="260.7" y="135.8" class="st19" width="71.2" height="13"/>
	</g>
</g>
<g>
	<g>
		<defs>
			<rect id="SVGID_41_" x="445" width="414" height="273"/>
		</defs>
		<clipPath id="SVGID_42_">
			<use xlink:href="#SVGID_41_"  style="overflow:visible;"/>
		</clipPath>
		<rect x="440" y="-5" class="st20" width="424" height="283"/>
	</g>
</g>
<g>
	<g>
		<defs>
			<path id="SVGID_43_" d="M520.9,61.4c-2.2,0-4,1.8-4,4v141c0,2.2,1.8,4,4,4h262.5c2.2,0,4-1.8,4-4v-141c0-2.2-1.8-4-4-4H520.9z"/>
		</defs>
		<clipPath id="SVGID_44_">
			<use xlink:href="#SVGID_43_"  style="overflow:visible;"/>
		</clipPath>
		<g class="st21">
			<g>
				<defs>
					<rect id="SVGID_45_" x="516" y="61" width="272" height="150"/>
				</defs>
				<clipPath id="SVGID_46_">
					<use xlink:href="#SVGID_45_"  style="overflow:visible;"/>
				</clipPath>
				<g class="st22">
					<defs>
						<rect id="SVGID_47_" x="516" y="61" width="272" height="150"/>
					</defs>
					<clipPath id="SVGID_48_">
						<use xlink:href="#SVGID_47_"  style="overflow:visible;"/>
					</clipPath>
					<rect x="511.9" y="56.4" class="st23" width="280.5" height="159"/>
				</g>
			</g>
		</g>
	</g>
</g>
<g>
	<g>
		<defs>
			<path id="SVGID_49_" d="M516.9,65.4c0-2.2,1.8-4,4-4h263c2.2,0,4,1.8,4,4v34h-271V65.4z"/>
		</defs>
		<clipPath id="SVGID_50_">
			<use xlink:href="#SVGID_49_"  style="overflow:visible;"/>
		</clipPath>
		<rect x="511.9" y="56.4" class="st24" width="281" height="48"/>
	</g>
</g>
<g>
	<g>
		<defs>
			<path id="SVGID_51_" d="M625.6,167.8h54c1.4,0,2.5,1.1,2.5,2.5v14c0,1.4-1.1,2.5-2.5,2.5h-54c-1.4,0-2.5-1.1-2.5-2.5v-14
				C623.1,168.9,624.2,167.8,625.6,167.8z M625.6,166.8c-1.9,0-3.5,1.6-3.5,3.5v14c0,1.9,1.6,3.5,3.5,3.5h54c1.9,0,3.5-1.6,3.5-3.5
				v-14c0-1.9-1.6-3.5-3.5-3.5H625.6z M602.1,146.8h101v61h-101V146.8z"/>
		</defs>
		<clipPath id="SVGID_52_">
			<use xlink:href="#SVGID_51_"  style="overflow:visible;"/>
		</clipPath>
		<g class="st25">
			<defs>
				<path id="SVGID_53_" d="M625.6,167.3c-1.7,0-3,1.3-3,3v14c0,1.7,1.3,3,3,3h54c1.7,0,3-1.3,3-3v-14c0-1.7-1.3-3-3-3H625.6z"/>
			</defs>
			<clipPath id="SVGID_54_">
				<use xlink:href="#SVGID_53_"  style="overflow:visible;"/>
			</clipPath>
			<path class="st26" d="M625.6,167.3c-1.7,0-3,1.3-3,3v14c0,1.7,1.3,3,3,3h54c1.7,0,3-1.3,3-3v-14c0-1.7-1.3-3-3-3H625.6z"/>
		</g>
	</g>
</g>
<g>
	<g>
		<defs>
			<path id="SVGID_55_" d="M625.6,167.3c-1.7,0-3,1.3-3,3v14c0,1.7,1.3,3,3,3h54c1.7,0,3-1.3,3-3v-14c0-1.7-1.3-3-3-3H625.6z"/>
		</defs>
		<clipPath id="SVGID_56_">
			<use xlink:href="#SVGID_55_"  style="overflow:visible;"/>
		</clipPath>
		<path class="st27" d="M625.6,167.3c-1.7,0-3,1.3-3,3v14c0,1.7,1.3,3,3,3h54c1.7,0,3-1.3,3-3v-14c0-1.7-1.3-3-3-3H625.6z"/>
	</g>
</g>
<g>
	<g>
		<defs>
			<path id="SVGID_57_" d="M579.4,80c0-1.7,1.4-3.1,3.1-3.1h137c1.7,0,3.1,1.4,3.1,3.1c0,1.7-1.4,3.1-3.1,3.1h-137
				C580.8,83.1,579.4,81.7,579.4,80z"/>
		</defs>
		<clipPath id="SVGID_58_">
			<use xlink:href="#SVGID_57_"  style="overflow:visible;"/>
		</clipPath>
		<rect x="574.4" y="71.9" class="st28" width="153.2" height="16.2"/>
	</g>
</g>
<g>
	<g>
		<defs>
			<path id="SVGID_59_" d="M581.8,121.9c0-0.8,0.7-1.5,1.5-1.5h67c0.8,0,1.5,0.7,1.5,1.5c0,0.8-0.7,1.5-1.5,1.5h-67
				C582.5,123.4,581.8,122.7,581.8,121.9z"/>
		</defs>
		<clipPath id="SVGID_60_">
			<use xlink:href="#SVGID_59_"  style="overflow:visible;"/>
		</clipPath>
		<rect x="576.8" y="115.4" class="st29" width="80" height="13"/>
	</g>
</g>
<g>
	<g>
		<defs>
			<path id="SVGID_61_" d="M532.8,121.9c0-0.8,0.7-1.5,1.5-1.5h38c0.8,0,1.5,0.7,1.5,1.5c0,0.8-0.7,1.5-1.5,1.5h-38
				C533.5,123.4,532.8,122.7,532.8,121.9z"/>
		</defs>
		<clipPath id="SVGID_62_">
			<use xlink:href="#SVGID_61_"  style="overflow:visible;"/>
		</clipPath>
		<rect x="527.8" y="115.4" class="st30" width="51" height="13"/>
	</g>
</g>
<g>
	<g>
		<defs>
			<path id="SVGID_63_" d="M659.8,121.9c0-0.8,0.7-1.5,1.5-1.5h109c0.8,0,1.5,0.7,1.5,1.5c0,0.8-0.7,1.5-1.5,1.5h-109
				C660.5,123.4,659.8,122.7,659.8,121.9z"/>
		</defs>
		<clipPath id="SVGID_64_">
			<use xlink:href="#SVGID_63_"  style="overflow:visible;"/>
		</clipPath>
		<rect x="654.8" y="115.4" class="st31" width="122" height="13"/>
	</g>
</g>
<g>
	<g>
		<defs>
			<path id="SVGID_65_" d="M532.8,131.9c0-0.8,0.7-1.5,1.5-1.5h79.7c0.8,0,1.5,0.7,1.5,1.5c0,0.8-0.7,1.5-1.5,1.5h-79.7
				C533.5,133.4,532.8,132.7,532.8,131.9z"/>
		</defs>
		<clipPath id="SVGID_66_">
			<use xlink:href="#SVGID_65_"  style="overflow:visible;"/>
		</clipPath>
		<rect x="527.8" y="125.4" class="st32" width="92.7" height="13"/>
	</g>
</g>
<g>
	<g>
		<defs>
			<path id="SVGID_67_" d="M624.1,131.9c0-0.8,0.7-1.5,1.5-1.5h53.2c0.8,0,1.5,0.7,1.5,1.5c0,0.8-0.7,1.5-1.5,1.5h-53.2
				C624.8,133.4,624.1,132.7,624.1,131.9z"/>
		</defs>
		<clipPath id="SVGID_68_">
			<use xlink:href="#SVGID_67_"  style="overflow:visible;"/>
		</clipPath>
		<rect x="619.1" y="125.4" class="st33" width="66.2" height="13"/>
	</g>
</g>
<g>
	<g>
		<defs>
			<path id="SVGID_69_" d="M689.3,131.9c0-0.8,0.7-1.5,1.5-1.5h79.7c0.8,0,1.5,0.7,1.5,1.5c0,0.8-0.7,1.5-1.5,1.5h-79.7
				C689.9,133.4,689.3,132.7,689.3,131.9z"/>
		</defs>
		<clipPath id="SVGID_70_">
			<use xlink:href="#SVGID_69_"  style="overflow:visible;"/>
		</clipPath>
		<rect x="684.3" y="125.4" class="st34" width="92.7" height="13"/>
	</g>
</g>
<g>
	<g>
		<defs>
			<path id="SVGID_71_" d="M532.8,141.8c0-0.8,0.7-1.5,1.5-1.5h55.5c0.8,0,1.5,0.7,1.5,1.5c0,0.8-0.7,1.5-1.5,1.5h-55.5
				C533.5,143.3,532.8,142.6,532.8,141.8z"/>
		</defs>
		<clipPath id="SVGID_72_">
			<use xlink:href="#SVGID_71_"  style="overflow:visible;"/>
		</clipPath>
		<rect x="527.8" y="135.3" class="st35" width="68.5" height="13"/>
	</g>
</g>
<g>
	<g>
		<defs>
			<path id="SVGID_73_" d="M597.4,141.8c0-0.8,0.7-1.5,1.5-1.5H651c0.8,0,1.5,0.7,1.5,1.5c0,0.8-0.7,1.5-1.5,1.5h-52.1
				C598.1,143.3,597.4,142.6,597.4,141.8z"/>
		</defs>
		<clipPath id="SVGID_74_">
			<use xlink:href="#SVGID_73_"  style="overflow:visible;"/>
		</clipPath>
		<rect x="592.4" y="135.3" class="st36" width="65.1" height="13"/>
	</g>
</g>
<g>
	<g>
		<defs>
			<path id="SVGID_75_" d="M658.7,141.8c0-0.8,0.7-1.5,1.5-1.5h40.3c0.8,0,1.5,0.7,1.5,1.5c0,0.8-0.7,1.5-1.5,1.5h-40.3
				C659.4,143.3,658.7,142.6,658.7,141.8z"/>
		</defs>
		<clipPath id="SVGID_76_">
			<use xlink:href="#SVGID_75_"  style="overflow:visible;"/>
		</clipPath>
		<rect x="653.7" y="135.3" class="st37" width="53.3" height="13"/>
	</g>
</g>
<g>
	<g>
		<defs>
			<path id="SVGID_77_" d="M710.7,141.8c0-0.8,0.7-1.5,1.5-1.5h58.2c0.8,0,1.5,0.7,1.5,1.5c0,0.8-0.7,1.5-1.5,1.5h-58.2
				C711.4,143.3,710.7,142.6,710.7,141.8z"/>
		</defs>
		<clipPath id="SVGID_78_">
			<use xlink:href="#SVGID_77_"  style="overflow:visible;"/>
		</clipPath>
		<rect x="705.7" y="135.3" class="st38" width="71.2" height="13"/>
	</g>
</g>
</svg>
