<svg id="Layer_1" xmlns="http://www.w3.org/2000/svg" xmlns:xlink="http://www.w3.org/1999/xlink" width="857.1" height="169.2"><style>.st0{clip-path:url(#SVGID_2_);fill:#03844B;} .st1{clip-path:url(#SVGID_4_);fill:#037F48;} .st2{clip-path:url(#SVGID_6_);fill:#037F48;} .st3{clip-path:url(#SVGID_8_);fill:#037F48;} .st4{clip-path:url(#SVGID_10_);fill:#037F48;} .st5{clip-path:url(#SVGID_12_);fill:#037F48;} .st6{clip-path:url(#SVGID_14_);fill:#037F48;} .st7{clip-path:url(#SVGID_16_);fill:#037F48;} .st8{clip-path:url(#SVGID_18_);fill:#037F48;} .st9{clip-path:url(#SVGID_20_);fill:#037F48;} .st10{clip-path:url(#SVGID_22_);fill:#037F48;} .st11{clip-path:url(#SVGID_24_);fill:#037F48;} .st12{clip-path:url(#SVGID_26_);fill:#037F48;} .st13{clip-path:url(#SVGID_28_);fill:#037F48;} .st14{clip-path:url(#SVGID_30_);fill:#037F48;} .st15{clip-path:url(#SVGID_32_);fill:#037F48;} .st16{clip-path:url(#SVGID_34_);fill:#037F48;} .st17{clip-path:url(#SVGID_36_);fill:#037F48;} .st18{clip-path:url(#SVGID_38_);fill:#037F48;} .st19{clip-path:url(#SVGID_40_);fill:#C4372F;} .st20{clip-path:url(#SVGID_42_);fill:#BD362D;} .st21{clip-path:url(#SVGID_44_);fill:#BD362D;} .st22{clip-path:url(#SVGID_46_);fill:#BD362D;} .st23{clip-path:url(#SVGID_48_);fill:#BD362D;} .st24{clip-path:url(#SVGID_50_);fill:#BD362D;} .st25{clip-path:url(#SVGID_52_);fill:#BD362D;} .st26{clip-path:url(#SVGID_54_);fill:#BD362D;} .st27{clip-path:url(#SVGID_56_);fill:#BD362D;} .st28{clip-path:url(#SVGID_58_);fill:#BD362D;} .st29{clip-path:url(#SVGID_60_);fill:#BD362D;} .st30{clip-path:url(#SVGID_62_);fill:#BD362D;} .st31{clip-path:url(#SVGID_64_);fill:#BD362D;} .st32{clip-path:url(#SVGID_66_);fill:#BD362D;} .st33{clip-path:url(#SVGID_68_);fill:#BD362D;} .st34{clip-path:url(#SVGID_70_);fill:#BD362D;} .st35{clip-path:url(#SVGID_72_);fill:#BD362D;} .st36{clip-path:url(#SVGID_74_);fill:#BD362D;} .st37{clip-path:url(#SVGID_76_);fill:#BD362D;} .st38{clip-path:url(#SVGID_78_);fill:#444444;} .st39{clip-path:url(#SVGID_80_);fill:#414141;} .st40{clip-path:url(#SVGID_82_);fill:#414141;} .st41{clip-path:url(#SVGID_84_);fill:#414141;} .st42{clip-path:url(#SVGID_86_);fill:#414141;} .st43{clip-path:url(#SVGID_88_);fill:#414141;} .st44{clip-path:url(#SVGID_90_);fill:#414141;} .st45{clip-path:url(#SVGID_92_);fill:#414141;} .st46{clip-path:url(#SVGID_94_);fill:#414141;} .st47{clip-path:url(#SVGID_96_);fill:#414141;} .st48{clip-path:url(#SVGID_98_);fill:#414141;} .st49{clip-path:url(#SVGID_100_);fill:#414141;} .st50{clip-path:url(#SVGID_102_);fill:#414141;} .st51{clip-path:url(#SVGID_104_);fill:#414141;} .st52{clip-path:url(#SVGID_106_);fill:#414141;} .st53{clip-path:url(#SVGID_108_);fill:#414141;} .st54{clip-path:url(#SVGID_110_);fill:#414141;} .st55{clip-path:url(#SVGID_112_);fill:#414141;} .st56{clip-path:url(#SVGID_114_);fill:#414141;} .st57{clip-path:url(#SVGID_116_);fill:#53688E;} .st58{clip-path:url(#SVGID_118_);fill:#506489;} .st59{clip-path:url(#SVGID_120_);fill:#506489;} .st60{clip-path:url(#SVGID_122_);fill:#506489;} .st61{clip-path:url(#SVGID_124_);fill:#506489;} .st62{clip-path:url(#SVGID_126_);fill:#506489;} .st63{clip-path:url(#SVGID_128_);fill:#506489;} .st64{clip-path:url(#SVGID_130_);fill:#506489;} .st65{clip-path:url(#SVGID_132_);fill:#506489;} .st66{clip-path:url(#SVGID_134_);fill:#506489;} .st67{clip-path:url(#SVGID_136_);fill:#506489;} .st68{clip-path:url(#SVGID_138_);fill:#506489;} .st69{clip-path:url(#SVGID_140_);fill:#506489;} .st70{clip-path:url(#SVGID_142_);fill:#506489;} .st71{clip-path:url(#SVGID_144_);fill:#506489;} .st72{clip-path:url(#SVGID_146_);fill:#506489;} .st73{clip-path:url(#SVGID_148_);fill:#506489;} .st74{clip-path:url(#SVGID_150_);fill:#506489;} .st75{clip-path:url(#SVGID_152_);fill:#506489;} .st76{clip-path:url(#SVGID_154_);fill:#FFFFFF;} .st77{clip-path:url(#SVGID_156_);fill:#FFFFFF;} .st78{clip-path:url(#SVGID_158_);fill:#FFFFFF;} .st79{clip-path:url(#SVGID_160_);fill:#FFFFFF;}</style><defs><path id="SVGID_1_" d="M0 45.3h856.6v34H0z"/></defs><clipPath id="SVGID_2_"><use xlink:href="#SVGID_1_" overflow="visible"/></clipPath><path class="st0" d="M-5 40.3h866.6v44H-5z"/><defs><path id="SVGID_3_" d="M.5 46.3l33.3 32.5H60L27.1 46.3H.5"/></defs><clipPath id="SVGID_4_"><use xlink:href="#SVGID_3_" overflow="visible"/></clipPath><path class="st1" d="M-4.5 41.3H65v42.5H-4.5z"/><defs><path id="SVGID_5_" d="M53.2 46.3l33.3 32.5h26.1L79.8 46.3H53.2"/></defs><clipPath id="SVGID_6_"><use xlink:href="#SVGID_5_" overflow="visible"/></clipPath><path class="st2" d="M48.2 41.3h69.5v42.5H48.2z"/><defs><path id="SVGID_7_" d="M105.7 46.3l33.4 32.5h26.1l-32.9-32.5h-26.6"/></defs><clipPath id="SVGID_8_"><use xlink:href="#SVGID_7_" overflow="visible"/></clipPath><path class="st3" d="M100.7 41.3h69.5v42.5h-69.5z"/><defs><path id="SVGID_9_" d="M158.4 46.3l33.3 32.5h26.2L185 46.3h-26.6"/></defs><clipPath id="SVGID_10_"><use xlink:href="#SVGID_9_" overflow="visible"/></clipPath><path class="st4" d="M153.4 41.3h69.5v42.5h-69.5z"/><defs><path id="SVGID_11_" d="M211.2 46.3l33.4 32.5h26.1l-32.9-32.5h-26.6"/></defs><clipPath id="SVGID_12_"><use xlink:href="#SVGID_11_" overflow="visible"/></clipPath><path class="st5" d="M206.2 41.3h69.5v42.5h-69.5z"/><defs><path id="SVGID_13_" d="M263.9 46.3l33.4 32.5h26.1l-32.9-32.5h-26.6"/></defs><clipPath id="SVGID_14_"><use xlink:href="#SVGID_13_" overflow="visible"/></clipPath><path class="st6" d="M258.9 41.3h69.5v42.5h-69.5z"/><defs><path id="SVGID_15_" d="M316.3 46.3l33.4 32.5h26.1l-32.9-32.5h-26.6"/></defs><clipPath id="SVGID_16_"><use xlink:href="#SVGID_15_" overflow="visible"/></clipPath><path class="st7" d="M311.3 41.3h69.5v42.5h-69.5z"/><defs><path id="SVGID_17_" d="M369 46.3l33.4 32.5h26.1l-32.9-32.5H369"/></defs><clipPath id="SVGID_18_"><use xlink:href="#SVGID_17_" overflow="visible"/></clipPath><path class="st8" d="M364 41.3h69.5v42.5H364z"/><defs><path id="SVGID_19_" d="M421.6 46.3l33.3 32.5H481l-32.8-32.5h-26.6"/></defs><clipPath id="SVGID_20_"><use xlink:href="#SVGID_19_" overflow="visible"/></clipPath><path class="st9" d="M416.6 41.3h69.5v42.5h-69.5z"/><defs><path id="SVGID_21_" d="M474.3 46.3l33.3 32.5h26.1l-32.8-32.5h-26.6"/></defs><clipPath id="SVGID_22_"><use xlink:href="#SVGID_21_" overflow="visible"/></clipPath><path class="st10" d="M469.3 41.3h69.5v42.5h-69.5z"/><defs><path id="SVGID_23_" d="M527.4 46.3l33.3 32.5h26.1L554 46.3h-26.6"/></defs><clipPath id="SVGID_24_"><use xlink:href="#SVGID_23_" overflow="visible"/></clipPath><path class="st11" d="M522.4 41.3h69.5v42.5h-69.5z"/><defs><path id="SVGID_25_" d="M580 46.3l33.4 32.5h26.1l-32.8-32.5H580"/></defs><clipPath id="SVGID_26_"><use xlink:href="#SVGID_25_" overflow="visible"/></clipPath><path class="st12" d="M575 41.3h69.5v42.5H575z"/><defs><path id="SVGID_27_" d="M632.9 46.3l33.3 32.5h26.1l-32.8-32.5h-26.6"/></defs><clipPath id="SVGID_28_"><use xlink:href="#SVGID_27_" overflow="visible"/></clipPath><path class="st13" d="M627.9 41.3h69.5v42.5h-69.5z"/><defs><path id="SVGID_29_" d="M685.6 46.3l33.3 32.5H745l-32.8-32.5h-26.6"/></defs><clipPath id="SVGID_30_"><use xlink:href="#SVGID_29_" overflow="visible"/></clipPath><path class="st14" d="M680.6 41.3h69.5v42.5h-69.5z"/><defs><path id="SVGID_31_" d="M738 46.3l33.3 32.5h26.1l-32.8-32.5H738"/></defs><clipPath id="SVGID_32_"><use xlink:href="#SVGID_31_" overflow="visible"/></clipPath><path class="st15" d="M733 41.3h69.5v42.5H733z"/><defs><path id="SVGID_33_" d="M790.7 46.3L824 78.8h26.1l-32.8-32.5h-26.6"/></defs><clipPath id="SVGID_34_"><use xlink:href="#SVGID_33_" overflow="visible"/></clipPath><path class="st16" d="M785.7 41.3h69.5v42.5h-69.5z"/><defs><path id="SVGID_35_" d="M842.5 46.3l13.4 13.2V46.3h-13.4"/></defs><clipPath id="SVGID_36_"><use xlink:href="#SVGID_35_" overflow="visible"/></clipPath><path class="st17" d="M837.5 41.3h23.4v23.2h-23.4z"/><defs><path id="SVGID_37_" d="M0 72.8l6.5 6H0v-6"/></defs><clipPath id="SVGID_38_"><use xlink:href="#SVGID_37_" overflow="visible"/></clipPath><path class="st18" d="M-5 67.8h16.5v16H-5z"/><defs><path id="SVGID_39_" d="M.5 90.8h856.6v34H.5z"/></defs><clipPath id="SVGID_40_"><use xlink:href="#SVGID_39_" overflow="visible"/></clipPath><path class="st19" d="M-4.5 85.8h866.6v44H-4.5z"/><defs><path id="SVGID_41_" d="M.5 91.3l33.3 32.5H60L27.1 91.3H.5"/></defs><clipPath id="SVGID_42_"><use xlink:href="#SVGID_41_" overflow="visible"/></clipPath><path class="st20" d="M-4.5 86.3H65v42.5H-4.5z"/><defs><path id="SVGID_43_" d="M53.2 91.3l33.3 32.5h26.1L79.8 91.3H53.2"/></defs><clipPath id="SVGID_44_"><use xlink:href="#SVGID_43_" overflow="visible"/></clipPath><path class="st21" d="M48.2 86.3h69.5v42.5H48.2z"/><defs><path id="SVGID_45_" d="M105.7 91.3l33.4 32.5h26.1l-32.9-32.5h-26.6"/></defs><clipPath id="SVGID_46_"><use xlink:href="#SVGID_45_" overflow="visible"/></clipPath><path class="st22" d="M100.7 86.3h69.5v42.5h-69.5z"/><defs><path id="SVGID_47_" d="M158.4 91.3l33.3 32.5h26.2L185 91.3h-26.6"/></defs><clipPath id="SVGID_48_"><use xlink:href="#SVGID_47_" overflow="visible"/></clipPath><path class="st23" d="M153.4 86.3h69.5v42.5h-69.5z"/><defs><path id="SVGID_49_" d="M211.2 91.3l33.4 32.5h26.1l-32.9-32.5h-26.6"/></defs><clipPath id="SVGID_50_"><use xlink:href="#SVGID_49_" overflow="visible"/></clipPath><path class="st24" d="M206.2 86.3h69.5v42.5h-69.5z"/><defs><path id="SVGID_51_" d="M263.9 91.3l33.4 32.5h26.1l-32.9-32.5h-26.6"/></defs><clipPath id="SVGID_52_"><use xlink:href="#SVGID_51_" overflow="visible"/></clipPath><path class="st25" d="M258.9 86.3h69.5v42.5h-69.5z"/><defs><path id="SVGID_53_" d="M316.3 91.3l33.4 32.5h26.1l-32.9-32.5h-26.6"/></defs><clipPath id="SVGID_54_"><use xlink:href="#SVGID_53_" overflow="visible"/></clipPath><path class="st26" d="M311.3 86.3h69.5v42.5h-69.5z"/><defs><path id="SVGID_55_" d="M369 91.3l33.4 32.5h26.1l-32.9-32.5H369"/></defs><clipPath id="SVGID_56_"><use xlink:href="#SVGID_55_" overflow="visible"/></clipPath><path class="st27" d="M364 86.3h69.5v42.5H364z"/><defs><path id="SVGID_57_" d="M421.6 91.3l33.3 32.5H481l-32.8-32.5h-26.6"/></defs><clipPath id="SVGID_58_"><use xlink:href="#SVGID_57_" overflow="visible"/></clipPath><path class="st28" d="M416.6 86.3h69.5v42.5h-69.5z"/><defs><path id="SVGID_59_" d="M474.3 91.3l33.3 32.5h26.1l-32.8-32.5h-26.6"/></defs><clipPath id="SVGID_60_"><use xlink:href="#SVGID_59_" overflow="visible"/></clipPath><path class="st29" d="M469.3 86.3h69.5v42.5h-69.5z"/><defs><path id="SVGID_61_" d="M527.4 91.3l33.3 32.5h26.1L554 91.3h-26.6"/></defs><clipPath id="SVGID_62_"><use xlink:href="#SVGID_61_" overflow="visible"/></clipPath><path class="st30" d="M522.4 86.3h69.5v42.5h-69.5z"/><defs><path id="SVGID_63_" d="M580 91.3l33.4 32.5h26.1l-32.8-32.5H580"/></defs><clipPath id="SVGID_64_"><use xlink:href="#SVGID_63_" overflow="visible"/></clipPath><path class="st31" d="M575 86.3h69.5v42.5H575z"/><defs><path id="SVGID_65_" d="M632.9 91.3l33.3 32.5h26.1l-32.8-32.5h-26.6"/></defs><clipPath id="SVGID_66_"><use xlink:href="#SVGID_65_" overflow="visible"/></clipPath><path class="st32" d="M627.9 86.3h69.5v42.5h-69.5z"/><defs><path id="SVGID_67_" d="M685.6 91.3l33.3 32.5H745l-32.8-32.5h-26.6"/></defs><clipPath id="SVGID_68_"><use xlink:href="#SVGID_67_" overflow="visible"/></clipPath><path class="st33" d="M680.6 86.3h69.5v42.5h-69.5z"/><defs><path id="SVGID_69_" d="M738 91.3l33.3 32.5h26.1l-32.8-32.5H738"/></defs><clipPath id="SVGID_70_"><use xlink:href="#SVGID_69_" overflow="visible"/></clipPath><path class="st34" d="M733 86.3h69.5v42.5H733z"/><defs><path id="SVGID_71_" d="M790.7 91.3l33.3 32.5h26.1l-32.8-32.5h-26.6"/></defs><clipPath id="SVGID_72_"><use xlink:href="#SVGID_71_" overflow="visible"/></clipPath><path class="st35" d="M785.7 86.3h69.5v42.5h-69.5z"/><defs><path id="SVGID_73_" d="M842.5 91.3l13.4 13.2V91.3h-13.4"/></defs><clipPath id="SVGID_74_"><use xlink:href="#SVGID_73_" overflow="visible"/></clipPath><path class="st36" d="M837.5 86.3h23.4v23.2h-23.4z"/><defs><path id="SVGID_75_" d="M1 118.8l6.5 6H1v-6"/></defs><clipPath id="SVGID_76_"><use xlink:href="#SVGID_75_" overflow="visible"/></clipPath><path class="st37" d="M-4 113.8h16.5v16H-4z"/><defs><path id="SVGID_77_" d="M0 135.2h856.6v34H0z"/></defs><clipPath id="SVGID_78_"><use xlink:href="#SVGID_77_" overflow="visible"/></clipPath><path class="st38" d="M-5 130.2h866.6v44H-5z"/><defs><path id="SVGID_79_" d="M.5 135.3l33.3 32.5H60l-32.9-32.5H.5"/></defs><clipPath id="SVGID_80_"><use xlink:href="#SVGID_79_" overflow="visible"/></clipPath><path class="st39" d="M-4.5 130.3H65v42.5H-4.5z"/><defs><path id="SVGID_81_" d="M53.2 135.3l33.3 32.5h26.1l-32.8-32.5H53.2"/></defs><clipPath id="SVGID_82_"><use xlink:href="#SVGID_81_" overflow="visible"/></clipPath><path class="st40" d="M48.2 130.3h69.5v42.5H48.2z"/><defs><path id="SVGID_83_" d="M105.7 135.3l33.4 32.5h26.1l-32.9-32.5h-26.6"/></defs><clipPath id="SVGID_84_"><use xlink:href="#SVGID_83_" overflow="visible"/></clipPath><path class="st41" d="M100.7 130.3h69.5v42.5h-69.5z"/><defs><path id="SVGID_85_" d="M158.4 135.3l33.3 32.5h26.2L185 135.3h-26.6"/></defs><clipPath id="SVGID_86_"><use xlink:href="#SVGID_85_" overflow="visible"/></clipPath><path class="st42" d="M153.4 130.3h69.5v42.5h-69.5z"/><defs><path id="SVGID_87_" d="M211.2 135.3l33.4 32.5h26.1l-32.9-32.5h-26.6"/></defs><clipPath id="SVGID_88_"><use xlink:href="#SVGID_87_" overflow="visible"/></clipPath><path class="st43" d="M206.2 130.3h69.5v42.5h-69.5z"/><defs><path id="SVGID_89_" d="M263.9 135.3l33.4 32.5h26.1l-32.9-32.5h-26.6"/></defs><clipPath id="SVGID_90_"><use xlink:href="#SVGID_89_" overflow="visible"/></clipPath><path class="st44" d="M258.9 130.3h69.5v42.5h-69.5z"/><defs><path id="SVGID_91_" d="M316.3 135.3l33.4 32.5h26.1l-32.9-32.5h-26.6"/></defs><clipPath id="SVGID_92_"><use xlink:href="#SVGID_91_" overflow="visible"/></clipPath><path class="st45" d="M311.3 130.3h69.5v42.5h-69.5z"/><defs><path id="SVGID_93_" d="M369 135.3l33.4 32.5h26.1l-32.9-32.5H369"/></defs><clipPath id="SVGID_94_"><use xlink:href="#SVGID_93_" overflow="visible"/></clipPath><path class="st46" d="M364 130.3h69.5v42.5H364z"/><defs><path id="SVGID_95_" d="M421.6 135.3l33.3 32.5H481l-32.8-32.5h-26.6"/></defs><clipPath id="SVGID_96_"><use xlink:href="#SVGID_95_" overflow="visible"/></clipPath><path class="st47" d="M416.6 130.3h69.5v42.5h-69.5z"/><defs><path id="SVGID_97_" d="M474.3 135.3l33.3 32.5h26.1l-32.8-32.5h-26.6"/></defs><clipPath id="SVGID_98_"><use xlink:href="#SVGID_97_" overflow="visible"/></clipPath><path class="st48" d="M469.3 130.3h69.5v42.5h-69.5z"/><defs><path id="SVGID_99_" d="M527.4 135.3l33.3 32.5h26.1L554 135.3h-26.6"/></defs><clipPath id="SVGID_100_"><use xlink:href="#SVGID_99_" overflow="visible"/></clipPath><path class="st49" d="M522.4 130.3h69.5v42.5h-69.5z"/><defs><path id="SVGID_101_" d="M580 135.3l33.4 32.5h26.1l-32.8-32.5H580"/></defs><clipPath id="SVGID_102_"><use xlink:href="#SVGID_101_" overflow="visible"/></clipPath><path class="st50" d="M575 130.3h69.5v42.5H575z"/><defs><path id="SVGID_103_" d="M632.9 135.3l33.3 32.5h26.1l-32.8-32.5h-26.6"/></defs><clipPath id="SVGID_104_"><use xlink:href="#SVGID_103_" overflow="visible"/></clipPath><path class="st51" d="M627.9 130.3h69.5v42.5h-69.5z"/><defs><path id="SVGID_105_" d="M685.6 135.3l33.3 32.5H745l-32.8-32.5h-26.6"/></defs><clipPath id="SVGID_106_"><use xlink:href="#SVGID_105_" overflow="visible"/></clipPath><path class="st52" d="M680.6 130.3h69.5v42.5h-69.5z"/><defs><path id="SVGID_107_" d="M738 135.3l33.3 32.5h26.1l-32.8-32.5H738"/></defs><clipPath id="SVGID_108_"><use xlink:href="#SVGID_107_" overflow="visible"/></clipPath><path class="st53" d="M733 130.3h69.5v42.5H733z"/><defs><path id="SVGID_109_" d="M790.7 135.3l33.3 32.5h26.1l-32.8-32.5h-26.6"/></defs><clipPath id="SVGID_110_"><use xlink:href="#SVGID_109_" overflow="visible"/></clipPath><path class="st54" d="M785.7 130.3h69.5v42.5h-69.5z"/><defs><path id="SVGID_111_" d="M842.5 135.3l13.4 13.2v-13.2h-13.4"/></defs><clipPath id="SVGID_112_"><use xlink:href="#SVGID_111_" overflow="visible"/></clipPath><path class="st55" d="M837.5 130.3h23.4v23.2h-23.4z"/><defs><path id="SVGID_113_" d="M0 161.8l6.5 6H0v-6"/></defs><clipPath id="SVGID_114_"><use xlink:href="#SVGID_113_" overflow="visible"/></clipPath><path class="st56" d="M-5 156.8h16.5v16H-5z"/><defs><path id="SVGID_115_" d="M0 0h856.6v34H0z"/></defs><clipPath id="SVGID_116_"><use xlink:href="#SVGID_115_" overflow="visible"/></clipPath><path class="st57" d="M-5-5h866.6v44H-5z"/><defs><path id="SVGID_117_" d="M.5 1l33.3 32.5H60L27.1 1H.5"/></defs><clipPath id="SVGID_118_"><use xlink:href="#SVGID_117_" overflow="visible"/></clipPath><path class="st58" d="M-4.5-4H65v42.5H-4.5z"/><defs><path id="SVGID_119_" d="M53.2 1l33.3 32.5h26.1L79.8 1H53.2"/></defs><clipPath id="SVGID_120_"><use xlink:href="#SVGID_119_" overflow="visible"/></clipPath><path class="st59" d="M48.2-4h69.5v42.5H48.2z"/><defs><path id="SVGID_121_" d="M105.7 1l33.4 32.5h26.1L132.3 1h-26.6"/></defs><clipPath id="SVGID_122_"><use xlink:href="#SVGID_121_" overflow="visible"/></clipPath><path class="st60" d="M100.7-4h69.5v42.5h-69.5z"/><defs><path id="SVGID_123_" d="M158.4 1l33.3 32.5h26.2L185 1h-26.6"/></defs><clipPath id="SVGID_124_"><use xlink:href="#SVGID_123_" overflow="visible"/></clipPath><path class="st61" d="M153.4-4h69.5v42.5h-69.5z"/><defs><path id="SVGID_125_" d="M211.2 1l33.4 32.5h26.1L237.8 1h-26.6"/></defs><clipPath id="SVGID_126_"><use xlink:href="#SVGID_125_" overflow="visible"/></clipPath><path class="st62" d="M206.2-4h69.5v42.5h-69.5z"/><defs><path id="SVGID_127_" d="M263.9 1l33.4 32.5h26.1L290.5 1h-26.6"/></defs><clipPath id="SVGID_128_"><use xlink:href="#SVGID_127_" overflow="visible"/></clipPath><path class="st63" d="M258.9-4h69.5v42.5h-69.5z"/><defs><path id="SVGID_129_" d="M316.3 1l33.4 32.5h26.1L342.9 1h-26.6"/></defs><clipPath id="SVGID_130_"><use xlink:href="#SVGID_129_" overflow="visible"/></clipPath><path class="st64" d="M311.3-4h69.5v42.5h-69.5z"/><g><defs><path id="SVGID_131_" d="M369 1l33.4 32.5h26.1L395.6 1H369"/></defs><clipPath id="SVGID_132_"><use xlink:href="#SVGID_131_" overflow="visible"/></clipPath><path class="st65" d="M364-4h69.5v42.5H364z"/></g><g><defs><path id="SVGID_133_" d="M421.6 1l33.3 32.5H481L448.2 1h-26.6"/></defs><clipPath id="SVGID_134_"><use xlink:href="#SVGID_133_" overflow="visible"/></clipPath><path class="st66" d="M416.6-4h69.5v42.5h-69.5z"/></g><g><defs><path id="SVGID_135_" d="M474.3 1l33.3 32.5h26.1L500.9 1h-26.6"/></defs><clipPath id="SVGID_136_"><use xlink:href="#SVGID_135_" overflow="visible"/></clipPath><path class="st67" d="M469.3-4h69.5v42.5h-69.5z"/></g><g><defs><path id="SVGID_137_" d="M527.4 1l33.3 32.5h26.1L554 1h-26.6"/></defs><clipPath id="SVGID_138_"><use xlink:href="#SVGID_137_" overflow="visible"/></clipPath><path class="st68" d="M522.4-4h69.5v42.5h-69.5z"/></g><g><defs><path id="SVGID_139_" d="M580 1l33.4 32.5h26.1L606.7 1H580"/></defs><clipPath id="SVGID_140_"><use xlink:href="#SVGID_139_" overflow="visible"/></clipPath><path class="st69" d="M575-4h69.5v42.5H575z"/></g><g><defs><path id="SVGID_141_" d="M632.9 1l33.3 32.5h26.1L659.5 1h-26.6"/></defs><clipPath id="SVGID_142_"><use xlink:href="#SVGID_141_" overflow="visible"/></clipPath><path class="st70" d="M627.9-4h69.5v42.5h-69.5z"/></g><g><defs><path id="SVGID_143_" d="M685.6 1l33.3 32.5H745L712.2 1h-26.6"/></defs><clipPath id="SVGID_144_"><use xlink:href="#SVGID_143_" overflow="visible"/></clipPath><path class="st71" d="M680.6-4h69.5v42.5h-69.5z"/></g><g><defs><path id="SVGID_145_" d="M738 1l33.3 32.5h26.1L764.6 1H738"/></defs><clipPath id="SVGID_146_"><use xlink:href="#SVGID_145_" overflow="visible"/></clipPath><path class="st72" d="M733-4h69.5v42.5H733z"/></g><g><defs><path id="SVGID_147_" d="M790.7 1L824 33.5h26.1L817.3 1h-26.6"/></defs><clipPath id="SVGID_148_"><use xlink:href="#SVGID_147_" overflow="visible"/></clipPath><path class="st73" d="M785.7-4h69.5v42.5h-69.5z"/></g><g><defs><path id="SVGID_149_" d="M842.5 1l13.4 13.2V1h-13.4"/></defs><clipPath id="SVGID_150_"><use xlink:href="#SVGID_149_" overflow="visible"/></clipPath><path class="st74" d="M837.5-4h23.4v23.2h-23.4z"/></g><g><defs><path id="SVGID_151_" d="M0 27.4l6.5 6.1H0v-6.1"/></defs><clipPath id="SVGID_152_"><use xlink:href="#SVGID_151_" overflow="visible"/></clipPath><path class="st75" d="M-5 22.4h16.5v16H-5z"/></g><g><defs><path id="SVGID_153_" d="M372.6 16.8c0-1.7 1.3-3 3-3h105c1.7 0 3 1.3 3 3s-1.3 3-3 3h-105c-1.7 0-3-1.3-3-3z"/></defs><clipPath id="SVGID_154_"><use xlink:href="#SVGID_153_" overflow="visible"/></clipPath><path class="st76" d="M367.6 8.8h121v16h-121z"/></g><g><defs><path id="SVGID_155_" d="M230.6 61.8c0-1.7 1.3-3 3-3h388c1.7 0 3 1.3 3 3s-1.3 3-3 3h-388c-1.7 0-3-1.3-3-3z"/></defs><clipPath id="SVGID_156_"><use xlink:href="#SVGID_155_" overflow="visible"/></clipPath><path class="st77" d="M225.6 53.8h404v16h-404z"/></g><g><defs><path id="SVGID_157_" d="M257.6 107.8c0-1.7 1.3-3 3-3h335c1.7 0 3 1.3 3 3s-1.3 3-3 3h-335c-1.7 0-3-1.3-3-3z"/></defs><clipPath id="SVGID_158_"><use xlink:href="#SVGID_157_" overflow="visible"/></clipPath><path class="st78" d="M252.6 99.8h351v16h-351z"/></g><g><defs><path id="SVGID_159_" d="M336.6 151.8c0-1.7 1.3-3 3-3h176c1.7 0 3 1.3 3 3s-1.3 3-3 3h-176c-1.7 0-3-1.3-3-3z"/></defs><clipPath id="SVGID_160_"><use xlink:href="#SVGID_159_" overflow="visible"/></clipPath><path class="st79" d="M331.6 143.8h192v16h-192z"/></g></svg>