<?xml version="1.0" encoding="utf-8"?>
<!-- Generator: Adobe Illustrator 19.1.0, SVG Export Plug-In . SVG Version: 6.00 Build 0)  -->
<svg version="1.1" id="Layer_1" xmlns="http://www.w3.org/2000/svg" xmlns:xlink="http://www.w3.org/1999/xlink" x="0px" y="0px"
	 width="707.8px" height="168px" viewBox="0 0 707.8 168" style="enable-background:new 0 0 707.8 168;" xml:space="preserve">
<style type="text/css">
	.st0{clip-path:url(#SVGID_2_);fill:none;stroke:#CFD7E5;stroke-width:2;stroke-miterlimit:10;}
	.st1{clip-path:url(#SVGID_4_);fill:#4F6A92;}
	.st2{clip-path:url(#SVGID_6_);fill:#4F6A92;}
	.st3{clip-path:url(#SVGID_8_);fill:#4F6A92;}
	.st4{clip-path:url(#SVGID_10_);fill:#4F6A92;}
	.st5{clip-path:url(#SVGID_12_);fill:none;stroke:#CFD7E5;stroke-width:2;stroke-miterlimit:10;}
	.st6{clip-path:url(#SVGID_14_);fill:#4F6A92;}
	.st7{clip-path:url(#SVGID_16_);fill:#4F6A92;}
	.st8{clip-path:url(#SVGID_18_);fill:#4F6A92;}
	.st9{clip-path:url(#SVGID_20_);fill:#4F6A92;}
	.st10{clip-path:url(#SVGID_22_);fill:none;stroke:#CFD7E5;stroke-width:2;stroke-miterlimit:10;}
	.st11{clip-path:url(#SVGID_24_);fill:#4F6A92;}
	.st12{clip-path:url(#SVGID_26_);fill:#4F6A92;}
	.st13{clip-path:url(#SVGID_28_);fill:#4F6A92;}
	.st14{clip-path:url(#SVGID_30_);fill:#4F6A92;}
	.st15{clip-path:url(#SVGID_32_);fill:none;stroke:#CFD7E5;stroke-width:2;stroke-miterlimit:10;}
	.st16{clip-path:url(#SVGID_34_);fill:#4F6A92;}
	.st17{clip-path:url(#SVGID_36_);fill:#4F6A92;}
	.st18{clip-path:url(#SVGID_38_);fill:#4F6A92;}
	.st19{clip-path:url(#SVGID_40_);fill:#4F6A92;}
</style>
<g>
	<defs>
		<path id="SVGID_1_" d="M185,8c0-4.4,3.6-8,8-8h136.5c4.4,0,8,3.6,8,8v152c0,4.4-3.6,8-8,8H193c-4.4,0-8-3.6-8-8V8z"/>
	</defs>
	<clipPath id="SVGID_2_">
		<use xlink:href="#SVGID_1_"  style="overflow:visible;"/>
	</clipPath>
	<path class="st0" d="M185,8c0-4.4,3.6-8,8-8h136.5c4.4,0,8,3.6,8,8v152c0,4.4-3.6,8-8,8H193c-4.4,0-8-3.6-8-8V8z"/>
</g>
<g>
	<defs>
		<rect id="SVGID_3_" x="206.6" y="118.1" width="109.3" height="1"/>
	</defs>
	<clipPath id="SVGID_4_">
		<use xlink:href="#SVGID_3_"  style="overflow:visible;"/>
	</clipPath>
	<rect x="201.6" y="113.1" class="st1" width="119.3" height="11"/>
</g>
<g>
	<defs>
		<path id="SVGID_5_" d="M224.5,74.6h31L240,34.8L224.5,74.6z M257,78.4h-34l-6.8,17.4h-5l26.2-65.1h5.3l26.2,65.1h-5.2L257,78.4z"
			/>
	</defs>
	<clipPath id="SVGID_6_">
		<use xlink:href="#SVGID_5_"  style="overflow:visible;"/>
	</clipPath>
	<rect x="206.1" y="25.6" class="st2" width="67.8" height="75.1"/>
</g>
<g>
	<defs>
		<path id="SVGID_7_" d="M305.3,79.5v-8.1l-4.6-0.1c-5.4,0-9.7,0.4-13,1.1c-3.3,0.7-5.7,1.9-7.3,3.7c-1.6,1.7-2.4,4.2-2.4,7.3
			c0,3.3,1,5.7,2.9,7.5c1.9,1.7,4.6,2.6,8.1,2.6c3.6,0,6.6-0.7,9-2.2c2.5-1.5,4.3-3.3,5.5-5.4C304.7,83.6,305.3,81.5,305.3,79.5z
			 M273.4,83.5c0-4,1-7.1,2.9-9.4c2-2.3,4.9-3.9,8.8-4.8c3.9-1,8.9-1.4,15.1-1.4c2.2,0,3.9,0,5.1,0.1v-3c0-8.5-4.3-12.7-13-12.7
			c-2.8,0-5.4,0.4-7.6,1.1c-2.3,0.7-4.5,1.7-6.7,3.1l-1.7-3.1c4.6-3.1,10-4.7,16.2-4.7c5.9,0,10.3,1.4,13.1,4.3s4.3,7.2,4.3,13v19.9
			c0,2.9,0.2,6.2,0.6,10h-4.2c-0.2-2.1-0.4-4.7-0.6-7.6h-0.2c-1.6,2.9-3.8,5.1-6.8,6.7c-2.9,1.6-6.5,2.3-10.6,2.3
			c-4.6,0-8.2-1.2-10.8-3.5C274.7,91.2,273.4,87.9,273.4,83.5z"/>
	</defs>
	<clipPath id="SVGID_8_">
		<use xlink:href="#SVGID_7_"  style="overflow:visible;"/>
	</clipPath>
	<rect x="268.4" y="43.6" class="st3" width="47.1" height="58.6"/>
</g>
<g>
	<defs>
		<path id="SVGID_9_" d="M236.1,136.6H234v6h-1.3v-6h-2.1v-1.1h5.6V136.6z M229.7,142.6h-1.3v-3.1h-3.3v3.1h-1.3v-7.1h1.3v2.9h3.3
			v-2.9h1.3V142.6z M216,139c0-0.7,0.1-1.4,0.4-1.9c0.3-0.6,0.7-1,1.2-1.3c0.5-0.3,1.2-0.5,1.9-0.5c0.5,0,1,0.1,1.4,0.2
			s0.8,0.4,1.1,0.7l-0.7,0.8c-0.2-0.2-0.5-0.3-0.8-0.5c-0.3-0.1-0.6-0.2-0.9-0.2c-0.8,0-1.4,0.2-1.7,0.7c-0.4,0.5-0.6,1.1-0.6,1.9
			c0,1.8,0.8,2.6,2.3,2.6c0.5,0,1-0.1,1.4-0.3v-1.6h-1.4v-1h2.7v3.3c-0.8,0.4-1.7,0.7-2.7,0.7c-0.8,0-1.4-0.2-2-0.5
			c-0.5-0.3-0.9-0.7-1.2-1.3C216.1,140.4,216,139.8,216,139z M214.4,141.6h0.8v1h-2.9v-1h0.8v-5.1h-0.8v-1h2.9v1h-0.8V141.6z
			 M208.7,141.5h3.1v1.1h-4.4v-7.1h1.3V141.5z"/>
	</defs>
	<clipPath id="SVGID_10_">
		<use xlink:href="#SVGID_9_"  style="overflow:visible;"/>
	</clipPath>
	<rect x="202.4" y="130.3" class="st4" width="38.7" height="17.5"/>
</g>
<g>
	<defs>
		<path id="SVGID_11_" d="M0,8c0-4.4,3.6-8,8-8h136.5c4.4,0,8,3.6,8,8v152c0,4.4-3.6,8-8,8H8c-4.4,0-8-3.6-8-8V8z"/>
	</defs>
	<clipPath id="SVGID_12_">
		<use xlink:href="#SVGID_11_"  style="overflow:visible;"/>
	</clipPath>
	<path class="st5" d="M0,8c0-4.4,3.6-8,8-8h136.5c4.4,0,8,3.6,8,8v152c0,4.4-3.6,8-8,8H8c-4.4,0-8-3.6-8-8V8z"/>
</g>
<g>
	<defs>
		<rect id="SVGID_13_" x="21.6" y="118.1" width="109.3" height="1"/>
	</defs>
	<clipPath id="SVGID_14_">
		<use xlink:href="#SVGID_13_"  style="overflow:visible;"/>
	</clipPath>
	<rect x="16.6" y="113.1" class="st6" width="119.3" height="11"/>
</g>
<g>
	<defs>
		<path id="SVGID_15_" d="M38,75.3h35.1L55.7,31.9L38,75.3z M73.9,77.1H37.3l-7.5,18.7h-2.2l26.7-65.1H57l26.7,65.1h-2.2L73.9,77.1z
			"/>
	</defs>
	<clipPath id="SVGID_16_">
		<use xlink:href="#SVGID_15_"  style="overflow:visible;"/>
	</clipPath>
	<rect x="22.6" y="25.6" class="st7" width="66.1" height="75.1"/>
</g>
<g>
	<defs>
		<path id="SVGID_17_" d="M122,80.3v-9.7l-5.1-0.1c-6.1,0-10.9,0.4-14.5,1.2c-3.6,0.8-6.3,2.1-8.1,4c-1.8,1.9-2.7,4.7-2.7,8.2
			c0,3.7,1.1,6.5,3.3,8.5c2.2,2,5.2,2.9,9.2,2.9c4,0,7.4-0.8,10.2-2.5c2.7-1.7,4.7-3.6,6-6C121.4,84.6,122,82.4,122,80.3z M89.5,84
			c0-3.9,1-6.9,2.9-9.1c1.9-2.2,4.8-3.8,8.7-4.7c3.9-0.9,9.1-1.4,15.6-1.4c2.3,0,4,0,5.2,0.1v-3.3c0-9.8-4.7-14.6-14.2-14.6
			c-2.9,0-5.5,0.4-7.8,1.1c-2.2,0.7-4.5,1.8-6.7,3.2l-0.9-1.4c4.4-3.1,9.5-4.7,15.4-4.7c10.8,0,16.2,5.5,16.2,16.4v20.5
			c0,3.5,0.2,6.7,0.5,9.7h-1.8c-0.3-2.9-0.5-5.8-0.5-8.6H122c-1.5,3.3-3.8,5.7-6.9,7.5c-3.1,1.7-6.8,2.6-11.1,2.6
			c-4.6,0-8.2-1.1-10.7-3.4C90.8,91.4,89.5,88.1,89.5,84z"/>
	</defs>
	<clipPath id="SVGID_18_">
		<use xlink:href="#SVGID_17_"  style="overflow:visible;"/>
	</clipPath>
	<rect x="84.5" y="44.2" class="st8" width="45" height="57.9"/>
</g>
<g>
	<defs>
		<path id="SVGID_19_" d="M39.4,135.5h1.5l3.5,5.3h0l0-5.3h1.2v7.1h-1.5l-3.5-5.3h0l0,5.3h-1.2V135.5z M37.3,141.6h0.8v1h-2.9v-1
			h0.8v-5.1h-0.8v-1h2.9v1h-0.8V141.6z M34,142.6h-1.3v-3.1h-3.3v3.1h-1.3v-7.1h1.3v2.9h3.3v-2.9H34V142.6z M27.2,136.6h-2.1v6h-1.3
			v-6h-2.1v-1.1h5.6V136.6z"/>
	</defs>
	<clipPath id="SVGID_20_">
		<use xlink:href="#SVGID_19_"  style="overflow:visible;"/>
	</clipPath>
	<rect x="16.6" y="130.5" class="st9" width="34" height="17.1"/>
</g>
<g>
	<defs>
		<path id="SVGID_21_" d="M370.3,8c0-4.4,3.6-8,8-8h136.5c4.4,0,8,3.6,8,8v152c0,4.4-3.6,8-8,8H378.2c-4.4,0-8-3.6-8-8V8z"/>
	</defs>
	<clipPath id="SVGID_22_">
		<use xlink:href="#SVGID_21_"  style="overflow:visible;"/>
	</clipPath>
	<path class="st10" d="M370.3,8c0-4.4,3.6-8,8-8h136.5c4.4,0,8,3.6,8,8v152c0,4.4-3.6,8-8,8H378.2c-4.4,0-8-3.6-8-8V8z"/>
</g>
<g>
	<defs>
		<rect id="SVGID_23_" x="391.9" y="118.1" width="109.3" height="1"/>
	</defs>
	<clipPath id="SVGID_24_">
		<use xlink:href="#SVGID_23_"  style="overflow:visible;"/>
	</clipPath>
	<rect x="386.9" y="113.1" class="st11" width="119.3" height="11"/>
</g>
<g>
	<defs>
		<path id="SVGID_25_" d="M411.5,73.6h25.9l-13-35.2L411.5,73.6z M439.7,79.9h-30.5l-6.1,15.8h-8.6l25.8-65.1h8.6l25.6,65.1h-8.8
			L439.7,79.9z"/>
	</defs>
	<clipPath id="SVGID_26_">
		<use xlink:href="#SVGID_25_"  style="overflow:visible;"/>
	</clipPath>
	<rect x="389.5" y="25.6" class="st12" width="69.9" height="75.1"/>
</g>
<g>
	<defs>
		<path id="SVGID_27_" d="M488.9,78.5v-6.1l-4.1-0.1c-4.6,0-8.3,0.3-11,0.9c-2.7,0.6-4.8,1.7-6.1,3.1c-1.3,1.5-2,3.5-2,6.2
			c0,2.7,0.8,4.8,2.4,6.2c1.6,1.4,3.8,2.2,6.6,2.2c2.9,0,5.5-0.6,7.6-1.9c2.1-1.3,3.8-2.8,4.9-4.7S488.9,80.4,488.9,78.5z M457.6,83
			c0-6.1,2.2-10.3,6.6-12.7c4.4-2.4,11-3.5,19.8-3.5c2.1,0,3.8,0,4.9,0.1v-2.7c0-3.5-1-6.1-2.9-7.8c-1.9-1.7-4.8-2.6-8.7-2.6
			c-5,0-9.7,1.3-14.1,4l-2.8-5.2c5.3-3.3,11-4.9,17.3-4.9c6.6,0,11.4,1.5,14.4,4.6c3,3.1,4.6,7.7,4.6,14v19.1
			c0,3.4,0.2,6.8,0.6,10.4h-7.2c-0.4-2.7-0.6-4.8-0.6-6.3h-0.3c-1.7,2.5-3.9,4.4-6.5,5.7c-2.6,1.3-6,1.9-10.1,1.9
			c-4.5,0-8.2-1.2-10.9-3.6C459,91,457.6,87.5,457.6,83z"/>
	</defs>
	<clipPath id="SVGID_28_">
		<use xlink:href="#SVGID_27_"  style="overflow:visible;"/>
	</clipPath>
	<rect x="452.6" y="42.6" class="st13" width="49.7" height="59.4"/>
</g>
<g>
	<defs>
		<path id="SVGID_29_" d="M433.1,139.2c0.4,0,0.7-0.1,1-0.3c0.3-0.2,0.4-0.5,0.4-1c0-0.4-0.1-0.8-0.4-1c-0.3-0.2-0.6-0.3-1-0.3H432
			v2.6H433.1z M434.6,142.6l-1.4-2.4H432v2.4h-1.3v-7.1h2.5c0.8,0,1.4,0.2,1.9,0.6c0.5,0.4,0.7,1,0.7,1.8c0,1-0.5,1.7-1.4,2.1
			l1.7,2.7H434.6z M425.4,140h2.2l-1.1-3.2L425.4,140z M427.9,141H425l-0.6,1.5h-1.4l2.7-7.1h1.4l2.7,7.1h-1.4L427.9,141z
			 M420,141.5h3.1v1.1h-4.4v-7.1h1.3V141.5z M411.2,140v-4.5h1.3v4.4c0,0.6,0.1,1,0.4,1.3c0.3,0.3,0.7,0.4,1.3,0.4
			c0.6,0,1-0.1,1.3-0.4c0.3-0.3,0.4-0.7,0.4-1.3v-4.4h1.3v4.5c0,0.9-0.3,1.5-0.8,2c-0.5,0.5-1.2,0.7-2.2,0.7s-1.7-0.2-2.2-0.7
			C411.5,141.5,411.2,140.9,411.2,140z M403.5,139c0-0.7,0.1-1.4,0.4-1.9c0.3-0.6,0.7-1,1.2-1.3c0.5-0.3,1.2-0.5,1.9-0.5
			c0.5,0,1,0.1,1.4,0.2s0.8,0.4,1.1,0.7l-0.7,0.8c-0.2-0.2-0.5-0.3-0.8-0.5c-0.3-0.1-0.6-0.2-0.9-0.2c-0.8,0-1.4,0.2-1.7,0.7
			c-0.4,0.5-0.6,1.1-0.6,1.9c0,1.8,0.8,2.6,2.3,2.6c0.5,0,1-0.1,1.4-0.3v-1.6h-1.4v-1h2.7v3.3c-0.8,0.4-1.7,0.7-2.6,0.7
			c-0.8,0-1.4-0.2-2-0.5c-0.5-0.3-0.9-0.7-1.2-1.3C403.6,140.4,403.5,139.8,403.5,139z M402.7,136.5h-3.2v1.9h2.7v1h-2.7v2.1h3.3
			v1.1h-4.6v-7.1h4.5V136.5z M394.1,139.2c0.4,0,0.7-0.1,1-0.3c0.3-0.2,0.4-0.5,0.4-1c0-0.4-0.1-0.8-0.4-1c-0.3-0.2-0.6-0.3-1-0.3
			H393v2.6H394.1z M395.6,142.6l-1.4-2.4H393v2.4h-1.3v-7.1h2.5c0.8,0,1.4,0.2,1.9,0.6c0.5,0.4,0.7,1,0.7,1.8c0,1-0.5,1.7-1.4,2.1
			l1.7,2.7H395.6z"/>
	</defs>
	<clipPath id="SVGID_30_">
		<use xlink:href="#SVGID_29_"  style="overflow:visible;"/>
	</clipPath>
	<rect x="386.7" y="130.3" class="st14" width="54.4" height="17.5"/>
</g>
<g>
	<defs>
		<path id="SVGID_31_" d="M555.3,8c0-4.4,3.6-8,8-8h136.5c4.4,0,8,3.6,8,8v152c0,4.4-3.6,8-8,8H563.3c-4.4,0-8-3.6-8-8V8z"/>
	</defs>
	<clipPath id="SVGID_32_">
		<use xlink:href="#SVGID_31_"  style="overflow:visible;"/>
	</clipPath>
	<path class="st15" d="M555.3,8c0-4.4,3.6-8,8-8h136.5c4.4,0,8,3.6,8,8v152c0,4.4-3.6,8-8,8H563.3c-4.4,0-8-3.6-8-8V8z"/>
</g>
<g>
	<defs>
		<rect id="SVGID_33_" x="576.9" y="118.1" width="108.7" height="1"/>
	</defs>
	<clipPath id="SVGID_34_">
		<use xlink:href="#SVGID_33_"  style="overflow:visible;"/>
	</clipPath>
	<rect x="571.9" y="113.1" class="st16" width="118.7" height="11"/>
</g>
<g>
	<defs>
		<path id="SVGID_35_" d="M598.7,72.5h20.1l-10-29.5L598.7,72.5z M621.9,81.7h-26.5l-5.2,14.1h-12.6l25-65.1H615L640,95.8h-13.1
			L621.9,81.7z"/>
	</defs>
	<clipPath id="SVGID_36_">
		<use xlink:href="#SVGID_35_"  style="overflow:visible;"/>
	</clipPath>
	<rect x="572.6" y="25.6" class="st17" width="72.4" height="75.1"/>
</g>
<g>
	<defs>
		<path id="SVGID_37_" d="M672.8,77.3v-3.9l-3.5-0.1c-5.4,0-9.3,0.6-11.6,1.9c-2.3,1.3-3.5,3.4-3.5,6.3c0,2.1,0.6,3.7,1.8,4.8
			c1.2,1.1,2.9,1.7,5,1.7c2.3,0,4.3-0.5,6.1-1.5s3.2-2.3,4.2-4C672.3,80.9,672.8,79.2,672.8,77.3z M642.2,82.3
			c0-6.3,2.2-10.6,6.7-13.1c4.4-2.5,10.8-3.7,19.2-3.7c2,0,3.6,0,4.6,0.1v-2.4c0-5.2-3.3-7.7-9.8-7.7c-4.7,0-9.4,1.2-13.9,3.7
			l-3.9-7.6c2.6-1.5,5.5-2.7,8.7-3.6c3.3-0.9,6.5-1.3,9.7-1.3c7.3,0,12.6,1.6,15.8,4.9c3.3,3.3,4.9,8.3,4.9,15v18.2
			c0,2.3,0.3,6,0.8,10.9h-10.6c-0.4-2.5-0.7-4.3-0.8-5.4h-0.3c-1.7,2.3-3.8,4-6.2,5.1c-2.4,1.1-5.6,1.7-9.5,1.7
			c-4.4,0-8.1-1.3-11-3.8C643.7,90.7,642.2,87,642.2,82.3z"/>
	</defs>
	<clipPath id="SVGID_38_">
		<use xlink:href="#SVGID_37_"  style="overflow:visible;"/>
	</clipPath>
	<rect x="637.2" y="41.6" class="st18" width="52.8" height="60.4"/>
</g>
<g>
	<defs>
		<path id="SVGID_39_" d="M597.7,136.5v4.9h1c0.8,0,1.4-0.2,1.9-0.6c0.4-0.4,0.6-1,0.6-1.9s-0.2-1.5-0.6-1.9c-0.4-0.4-1-0.6-1.8-0.6
			H597.7z M602.6,139c0,0.8-0.2,1.4-0.5,1.9c-0.3,0.5-0.7,0.9-1.3,1.2c-0.6,0.3-1.2,0.4-2,0.4h-2.5v-7.1h2.4c1.2,0,2.1,0.3,2.8,0.9
			C602.3,136.9,602.6,137.8,602.6,139z M592.5,141.5h3.1v1.1h-4.4v-7.1h1.3V141.5z M588.6,139c0-0.8-0.2-1.4-0.6-1.9
			c-0.4-0.5-1-0.7-1.7-0.7c-0.8,0-1.3,0.2-1.7,0.7c-0.4,0.5-0.6,1.1-0.6,1.9c0,0.8,0.2,1.4,0.6,1.9c0.4,0.5,1,0.7,1.7,0.7
			c0.8,0,1.3-0.2,1.7-0.7C588.4,140.4,588.6,139.8,588.6,139z M582.7,139c0-0.7,0.1-1.4,0.4-2c0.3-0.6,0.7-1,1.2-1.3
			c0.5-0.3,1.2-0.5,1.9-0.5c0.8,0,1.4,0.2,1.9,0.5c0.5,0.3,1,0.7,1.2,1.3c0.3,0.6,0.4,1.2,0.4,2s-0.1,1.4-0.4,2
			c-0.3,0.6-0.7,1-1.2,1.3c-0.5,0.3-1.2,0.5-1.9,0.5c-0.8,0-1.4-0.2-1.9-0.5c-0.5-0.3-1-0.7-1.2-1.3
			C582.9,140.4,582.7,139.8,582.7,139z M577.9,139.4v2.2h1.2c0.4,0,0.8-0.1,1-0.3s0.4-0.5,0.4-0.9c0-0.4-0.1-0.6-0.3-0.8
			c-0.2-0.2-0.6-0.3-1-0.3H577.9z M577.9,136.5v2h1.2c0.4,0,0.7-0.1,0.9-0.3c0.2-0.2,0.3-0.4,0.3-0.8c0-0.3-0.1-0.6-0.3-0.7
			c-0.2-0.2-0.5-0.2-0.9-0.2H577.9z M581.6,137.2c0,0.4-0.1,0.7-0.3,1c-0.2,0.3-0.5,0.5-0.9,0.6v0c0.5,0.1,0.8,0.2,1.1,0.5
			c0.3,0.3,0.4,0.7,0.4,1.2c0,0.7-0.2,1.2-0.7,1.5c-0.5,0.3-1.1,0.5-1.8,0.5h-2.7v-7.1h2.7c0.7,0,1.2,0.1,1.6,0.4
			C581.4,136.2,581.6,136.6,581.6,137.2z"/>
	</defs>
	<clipPath id="SVGID_40_">
		<use xlink:href="#SVGID_39_"  style="overflow:visible;"/>
	</clipPath>
	<rect x="571.7" y="130.3" class="st19" width="35.9" height="17.5"/>
</g>
</svg>
