<svg id="Layer_1" xmlns="http://www.w3.org/2000/svg" xmlns:xlink="http://www.w3.org/1999/xlink" width="707.8" height="168"><style>.st0{clip-path:url(#SVGID_2_);fill:none;stroke:#CFD7E5;stroke-width:2;stroke-miterlimit:10;} .st1{clip-path:url(#SVGID_4_);fill:#4F6A92;} .st2{clip-path:url(#SVGID_6_);fill:#4F6A92;} .st3{clip-path:url(#SVGID_8_);fill:#4F6A92;} .st4{clip-path:url(#SVGID_10_);fill:#4F6A92;} .st5{clip-path:url(#SVGID_12_);fill:none;stroke:#CFD7E5;stroke-width:2;stroke-miterlimit:10;} .st6{clip-path:url(#SVGID_14_);fill:#4F6A92;} .st7{clip-path:url(#SVGID_16_);fill:#4F6A92;} .st8{clip-path:url(#SVGID_18_);fill:#4F6A92;} .st9{clip-path:url(#SVGID_20_);fill:#4F6A92;} .st10{clip-path:url(#SVGID_22_);fill:none;stroke:#CFD7E5;stroke-width:2;stroke-miterlimit:10;} .st11{clip-path:url(#SVGID_24_);fill:#4F6A92;} .st12{clip-path:url(#SVGID_26_);fill:#4F6A92;} .st13{clip-path:url(#SVGID_28_);fill:#4F6A92;} .st14{clip-path:url(#SVGID_30_);fill:#4F6A92;} .st15{clip-path:url(#SVGID_32_);fill:none;stroke:#CFD7E5;stroke-width:2;stroke-miterlimit:10;} .st16{clip-path:url(#SVGID_34_);fill:#4F6A92;} .st17{clip-path:url(#SVGID_36_);fill:#4F6A92;} .st18{clip-path:url(#SVGID_38_);fill:#4F6A92;} .st19{clip-path:url(#SVGID_40_);fill:#4F6A92;}</style><defs><path id="SVGID_1_" d="M185 8c0-4.4 3.6-8 8-8h136.5c4.4 0 8 3.6 8 8v152c0 4.4-3.6 8-8 8H193c-4.4 0-8-3.6-8-8V8z"/></defs><clipPath id="SVGID_2_"><use xlink:href="#SVGID_1_" overflow="visible"/></clipPath><path class="st0" d="M185 8c0-4.4 3.6-8 8-8h136.5c4.4 0 8 3.6 8 8v152c0 4.4-3.6 8-8 8H193c-4.4 0-8-3.6-8-8V8z"/><defs><path id="SVGID_3_" d="M206.6 118.1h109.3v1H206.6z"/></defs><clipPath id="SVGID_4_"><use xlink:href="#SVGID_3_" overflow="visible"/></clipPath><path class="st1" d="M201.6 113.1h119.3v11H201.6z"/><defs><path id="SVGID_5_" d="M224.5 74.6h31L240 34.8l-15.5 39.8zm32.5 3.8h-34l-6.8 17.4h-5l26.2-65.1h5.3l26.2 65.1h-5.2L257 78.4z"/></defs><clipPath id="SVGID_6_"><use xlink:href="#SVGID_5_" overflow="visible"/></clipPath><path class="st2" d="M206.1 25.6h67.8v75.1h-67.8z"/><defs><path id="SVGID_7_" d="M305.3 79.5v-8.1l-4.6-.1c-5.4 0-9.7.4-13 1.1-3.3.7-5.7 1.9-7.3 3.7-1.6 1.7-2.4 4.2-2.4 7.3 0 3.3 1 5.7 2.9 7.5 1.9 1.7 4.6 2.6 8.1 2.6 3.6 0 6.6-.7 9-2.2 2.5-1.5 4.3-3.3 5.5-5.4 1.2-2.3 1.8-4.4 1.8-6.4zm-31.9 4c0-4 1-7.1 2.9-9.4 2-2.3 4.9-3.9 8.8-4.8 3.9-1 8.9-1.4 15.1-1.4 2.2 0 3.9 0 5.1.1v-3c0-8.5-4.3-12.7-13-12.7-2.8 0-5.4.4-7.6 1.1-2.3.7-4.5 1.7-6.7 3.1l-1.7-3.1c4.6-3.1 10-4.7 16.2-4.7 5.9 0 10.3 1.4 13.1 4.3s4.3 7.2 4.3 13v19.9c0 2.9.2 6.2.6 10h-4.2c-.2-2.1-.4-4.7-.6-7.6h-.2c-1.6 2.9-3.8 5.1-6.8 6.7-2.9 1.6-6.5 2.3-10.6 2.3-4.6 0-8.2-1.2-10.8-3.5-2.6-2.6-3.9-5.9-3.9-10.3z"/></defs><clipPath id="SVGID_8_"><use xlink:href="#SVGID_7_" overflow="visible"/></clipPath><path class="st3" d="M268.4 43.6h47.1v58.6h-47.1z"/><defs><path id="SVGID_9_" d="M236.1 136.6H234v6h-1.3v-6h-2.1v-1.1h5.6v1.1zm-6.4 6h-1.3v-3.1h-3.3v3.1h-1.3v-7.1h1.3v2.9h3.3v-2.9h1.3v7.1zM216 139c0-.7.1-1.4.4-1.9.3-.6.7-1 1.2-1.3.5-.3 1.2-.5 1.9-.5.5 0 1 .1 1.4.2s.8.4 1.1.7l-.7.8c-.2-.2-.5-.3-.8-.5-.3-.1-.6-.2-.9-.2-.8 0-1.4.2-1.7.7-.4.5-.6 1.1-.6 1.9 0 1.8.8 2.6 2.3 2.6.5 0 1-.1 1.4-.3v-1.6h-1.4v-1h2.7v3.3c-.8.4-1.7.7-2.7.7-.8 0-1.4-.2-2-.5-.5-.3-.9-.7-1.2-1.3-.3-.4-.4-1-.4-1.8zm-1.6 2.6h.8v1h-2.9v-1h.8v-5.1h-.8v-1h2.9v1h-.8v5.1zm-5.7-.1h3.1v1.1h-4.4v-7.1h1.3v6z"/></defs><clipPath id="SVGID_10_"><use xlink:href="#SVGID_9_" overflow="visible"/></clipPath><path class="st4" d="M202.4 130.3h38.7v17.5h-38.7z"/><defs><path id="SVGID_11_" d="M0 8c0-4.4 3.6-8 8-8h136.5c4.4 0 8 3.6 8 8v152c0 4.4-3.6 8-8 8H8c-4.4 0-8-3.6-8-8V8z"/></defs><clipPath id="SVGID_12_"><use xlink:href="#SVGID_11_" overflow="visible"/></clipPath><path class="st5" d="M0 8c0-4.4 3.6-8 8-8h136.5c4.4 0 8 3.6 8 8v152c0 4.4-3.6 8-8 8H8c-4.4 0-8-3.6-8-8V8z"/><defs><path id="SVGID_13_" d="M21.6 118.1h109.3v1H21.6z"/></defs><clipPath id="SVGID_14_"><use xlink:href="#SVGID_13_" overflow="visible"/></clipPath><path class="st6" d="M16.6 113.1h119.3v11H16.6z"/><defs><path id="SVGID_15_" d="M38 75.3h35.1L55.7 31.9 38 75.3zm35.9 1.8H37.3l-7.5 18.7h-2.2l26.7-65.1H57l26.7 65.1h-2.2l-7.6-18.7z"/></defs><clipPath id="SVGID_16_"><use xlink:href="#SVGID_15_" overflow="visible"/></clipPath><path class="st7" d="M22.6 25.6h66.1v75.1H22.6z"/><defs><path id="SVGID_17_" d="M122 80.3v-9.7l-5.1-.1c-6.1 0-10.9.4-14.5 1.2-3.6.8-6.3 2.1-8.1 4-1.8 1.9-2.7 4.7-2.7 8.2 0 3.7 1.1 6.5 3.3 8.5 2.2 2 5.2 2.9 9.2 2.9 4 0 7.4-.8 10.2-2.5 2.7-1.7 4.7-3.6 6-6 1.1-2.2 1.7-4.4 1.7-6.5zM89.5 84c0-3.9 1-6.9 2.9-9.1 1.9-2.2 4.8-3.8 8.7-4.7 3.9-.9 9.1-1.4 15.6-1.4 2.3 0 4 0 5.2.1v-3.3c0-9.8-4.7-14.6-14.2-14.6-2.9 0-5.5.4-7.8 1.1-2.2.7-4.5 1.8-6.7 3.2l-.9-1.4c4.4-3.1 9.5-4.7 15.4-4.7 10.8 0 16.2 5.5 16.2 16.4v20.5c0 3.5.2 6.7.5 9.7h-1.8c-.3-2.9-.5-5.8-.5-8.6h-.1c-1.5 3.3-3.8 5.7-6.9 7.5-3.1 1.7-6.8 2.6-11.1 2.6-4.6 0-8.2-1.1-10.7-3.4-2.5-2.5-3.8-5.8-3.8-9.9z"/></defs><clipPath id="SVGID_18_"><use xlink:href="#SVGID_17_" overflow="visible"/></clipPath><path class="st8" d="M84.5 44.2h45v57.9h-45z"/><defs><path id="SVGID_19_" d="M39.4 135.5h1.5l3.5 5.3v-5.3h1.2v7.1h-1.5l-3.5-5.3v5.3h-1.2v-7.1zm-2.1 6.1h.8v1h-2.9v-1h.8v-5.1h-.8v-1h2.9v1h-.8v5.1zm-3.3 1h-1.3v-3.1h-3.3v3.1h-1.3v-7.1h1.3v2.9h3.3v-2.9H34v7.1zm-6.8-6h-2.1v6h-1.3v-6h-2.1v-1.1h5.6v1.1z"/></defs><clipPath id="SVGID_20_"><use xlink:href="#SVGID_19_" overflow="visible"/></clipPath><path class="st9" d="M16.6 130.5h34v17.1h-34z"/><defs><path id="SVGID_21_" d="M370.3 8c0-4.4 3.6-8 8-8h136.5c4.4 0 8 3.6 8 8v152c0 4.4-3.6 8-8 8H378.2c-4.4 0-8-3.6-8-8V8z"/></defs><clipPath id="SVGID_22_"><use xlink:href="#SVGID_21_" overflow="visible"/></clipPath><path class="st10" d="M370.3 8c0-4.4 3.6-8 8-8h136.5c4.4 0 8 3.6 8 8v152c0 4.4-3.6 8-8 8H378.2c-4.4 0-8-3.6-8-8V8z"/><defs><path id="SVGID_23_" d="M391.9 118.1h109.3v1H391.9z"/></defs><clipPath id="SVGID_24_"><use xlink:href="#SVGID_23_" overflow="visible"/></clipPath><path class="st11" d="M386.9 113.1h119.3v11H386.9z"/><defs><path id="SVGID_25_" d="M411.5 73.6h25.9l-13-35.2-12.9 35.2zm28.2 6.3h-30.5l-6.1 15.8h-8.6l25.8-65.1h8.6l25.6 65.1h-8.8l-6-15.8z"/></defs><clipPath id="SVGID_26_"><use xlink:href="#SVGID_25_" overflow="visible"/></clipPath><path class="st12" d="M389.5 25.6h69.9v75.1h-69.9z"/><defs><path id="SVGID_27_" d="M488.9 78.5v-6.1l-4.1-.1c-4.6 0-8.3.3-11 .9-2.7.6-4.8 1.7-6.1 3.1-1.3 1.5-2 3.5-2 6.2s.8 4.8 2.4 6.2c1.6 1.4 3.8 2.2 6.6 2.2 2.9 0 5.5-.6 7.6-1.9 2.1-1.3 3.8-2.8 4.9-4.7s1.7-3.9 1.7-5.8zM457.6 83c0-6.1 2.2-10.3 6.6-12.7 4.4-2.4 11-3.5 19.8-3.5 2.1 0 3.8 0 4.9.1v-2.7c0-3.5-1-6.1-2.9-7.8-1.9-1.7-4.8-2.6-8.7-2.6-5 0-9.7 1.3-14.1 4l-2.8-5.2c5.3-3.3 11-4.9 17.3-4.9 6.6 0 11.4 1.5 14.4 4.6 3 3.1 4.6 7.7 4.6 14v19.1c0 3.4.2 6.8.6 10.4h-7.2c-.4-2.7-.6-4.8-.6-6.3h-.3c-1.7 2.5-3.9 4.4-6.5 5.7-2.6 1.3-6 1.9-10.1 1.9-4.5 0-8.2-1.2-10.9-3.6-2.7-2.5-4.1-6-4.1-10.5z"/></defs><clipPath id="SVGID_28_"><use xlink:href="#SVGID_27_" overflow="visible"/></clipPath><path class="st13" d="M452.6 42.6h49.7V102h-49.7z"/><defs><path id="SVGID_29_" d="M433.1 139.2c.4 0 .7-.1 1-.3.3-.2.4-.5.4-1 0-.4-.1-.8-.4-1-.3-.2-.6-.3-1-.3H432v2.6h1.1zm1.5 3.4l-1.4-2.4H432v2.4h-1.3v-7.1h2.5c.8 0 1.4.2 1.9.6.5.4.7 1 .7 1.8 0 1-.5 1.7-1.4 2.1l1.7 2.7h-1.5zm-9.2-2.6h2.2l-1.1-3.2-1.1 3.2zm2.5 1H425l-.6 1.5H423l2.7-7.1h1.4l2.7 7.1h-1.4l-.5-1.5zm-7.9.5h3.1v1.1h-4.4v-7.1h1.3v6zm-8.8-1.5v-4.5h1.3v4.4c0 .6.1 1 .4 1.3.3.3.7.4 1.3.4.6 0 1-.1 1.3-.4.3-.3.4-.7.4-1.3v-4.4h1.3v4.5c0 .9-.3 1.5-.8 2s-1.2.7-2.2.7-1.7-.2-2.2-.7c-.5-.5-.8-1.1-.8-2zm-7.7-1c0-.7.1-1.4.4-1.9.3-.6.7-1 1.2-1.3.5-.3 1.2-.5 1.9-.5.5 0 1 .1 1.4.2s.8.4 1.1.7l-.7.8c-.2-.2-.5-.3-.8-.5-.3-.1-.6-.2-.9-.2-.8 0-1.4.2-1.7.7-.4.5-.6 1.1-.6 1.9 0 1.8.8 2.6 2.3 2.6.5 0 1-.1 1.4-.3v-1.6h-1.4v-1h2.7v3.3c-.8.4-1.7.7-2.6.7-.8 0-1.4-.2-2-.5-.5-.3-.9-.7-1.2-1.3-.4-.4-.5-1-.5-1.8zm-.8-2.5h-3.2v1.9h2.7v1h-2.7v2.1h3.3v1.1h-4.6v-7.1h4.5v1zm-8.6 2.7c.4 0 .7-.1 1-.3.3-.2.4-.5.4-1 0-.4-.1-.8-.4-1-.3-.2-.6-.3-1-.3H393v2.6h1.1zm1.5 3.4l-1.4-2.4H393v2.4h-1.3v-7.1h2.5c.8 0 1.4.2 1.9.6.5.4.7 1 .7 1.8 0 1-.5 1.7-1.4 2.1l1.7 2.7h-1.5z"/></defs><clipPath id="SVGID_30_"><use xlink:href="#SVGID_29_" overflow="visible"/></clipPath><path class="st14" d="M386.7 130.3h54.4v17.5h-54.4z"/><defs><path id="SVGID_31_" d="M555.3 8c0-4.4 3.6-8 8-8h136.5c4.4 0 8 3.6 8 8v152c0 4.4-3.6 8-8 8H563.3c-4.4 0-8-3.6-8-8V8z"/></defs><clipPath id="SVGID_32_"><use xlink:href="#SVGID_31_" overflow="visible"/></clipPath><path class="st15" d="M555.3 8c0-4.4 3.6-8 8-8h136.5c4.4 0 8 3.6 8 8v152c0 4.4-3.6 8-8 8H563.3c-4.4 0-8-3.6-8-8V8z"/><defs><path id="SVGID_33_" d="M576.9 118.1h108.7v1H576.9z"/></defs><clipPath id="SVGID_34_"><use xlink:href="#SVGID_33_" overflow="visible"/></clipPath><path class="st16" d="M571.9 113.1h118.7v11H571.9z"/><g><defs><path id="SVGID_35_" d="M598.7 72.5h20.1l-10-29.5-10.1 29.5zm23.2 9.2h-26.5l-5.2 14.1h-12.6l25-65.1H615l25 65.1h-13.1l-5-14.1z"/></defs><clipPath id="SVGID_36_"><use xlink:href="#SVGID_35_" overflow="visible"/></clipPath><path class="st17" d="M572.6 25.6H645v75.1h-72.4z"/></g><g><defs><path id="SVGID_37_" d="M672.8 77.3v-3.9l-3.5-.1c-5.4 0-9.3.6-11.6 1.9-2.3 1.3-3.5 3.4-3.5 6.3 0 2.1.6 3.7 1.8 4.8 1.2 1.1 2.9 1.7 5 1.7 2.3 0 4.3-.5 6.1-1.5s3.2-2.3 4.2-4c1-1.6 1.5-3.3 1.5-5.2zm-30.6 5c0-6.3 2.2-10.6 6.7-13.1 4.4-2.5 10.8-3.7 19.2-3.7 2 0 3.6 0 4.6.1v-2.4c0-5.2-3.3-7.7-9.8-7.7-4.7 0-9.4 1.2-13.9 3.7l-3.9-7.6c2.6-1.5 5.5-2.7 8.7-3.6 3.3-.9 6.5-1.3 9.7-1.3 7.3 0 12.6 1.6 15.8 4.9 3.3 3.3 4.9 8.3 4.9 15v18.2c0 2.3.3 6 .8 10.9h-10.6c-.4-2.5-.7-4.3-.8-5.4h-.3c-1.7 2.3-3.8 4-6.2 5.1-2.4 1.1-5.6 1.7-9.5 1.7-4.4 0-8.1-1.3-11-3.8-2.9-2.6-4.4-6.3-4.4-11z"/></defs><clipPath id="SVGID_38_"><use xlink:href="#SVGID_37_" overflow="visible"/></clipPath><path class="st18" d="M637.2 41.6H690V102h-52.8z"/></g><g><defs><path id="SVGID_39_" d="M597.7 136.5v4.9h1c.8 0 1.4-.2 1.9-.6.4-.4.6-1 .6-1.9s-.2-1.5-.6-1.9c-.4-.4-1-.6-1.8-.6h-1.1zm4.9 2.5c0 .8-.2 1.4-.5 1.9s-.7.9-1.3 1.2c-.6.3-1.2.4-2 .4h-2.5v-7.1h2.4c1.2 0 2.1.3 2.8.9.8.6 1.1 1.5 1.1 2.7zm-10.1 2.5h3.1v1.1h-4.4v-7.1h1.3v6zm-3.9-2.5c0-.8-.2-1.4-.6-1.9-.4-.5-1-.7-1.7-.7-.8 0-1.3.2-1.7.7-.4.5-.6 1.1-.6 1.9 0 .8.2 1.4.6 1.9.4.5 1 .7 1.7.7.8 0 1.3-.2 1.7-.7.4-.5.6-1.1.6-1.9zm-5.9 0c0-.7.1-1.4.4-2 .3-.6.7-1 1.2-1.3.5-.3 1.2-.5 1.9-.5.8 0 1.4.2 1.9.5s1 .7 1.2 1.3c.3.6.4 1.2.4 2s-.1 1.4-.4 2c-.3.6-.7 1-1.2 1.3-.5.3-1.2.5-1.9.5-.8 0-1.4-.2-1.9-.5s-1-.7-1.2-1.3c-.2-.6-.4-1.2-.4-2zm-4.8.4v2.2h1.2c.4 0 .8-.1 1-.3s.4-.5.4-.9-.1-.6-.3-.8c-.2-.2-.6-.3-1-.3h-1.3zm0-2.9v2h1.2c.4 0 .7-.1.9-.3.2-.2.3-.4.3-.8 0-.3-.1-.6-.3-.7-.2-.2-.5-.2-.9-.2h-1.2zm3.7.7c0 .4-.1.7-.3 1-.2.3-.5.5-.9.6.5.1.8.2 1.1.5.3.3.4.7.4 1.2 0 .7-.2 1.2-.7 1.5-.5.3-1.1.5-1.8.5h-2.7v-7.1h2.7c.7 0 1.2.1 1.6.4.4.4.6.8.6 1.4z"/></defs><clipPath id="SVGID_40_"><use xlink:href="#SVGID_39_" overflow="visible"/></clipPath><path class="st19" d="M571.7 130.3h35.9v17.5h-35.9z"/></g></svg>