<svg height="126" viewBox="0 0 240 126" width="240" xmlns="http://www.w3.org/2000/svg"><g fill="none" fill-rule="evenodd"><path d="m0 0h300v130h-300z" transform="translate(-24 -3)"/><path d="m.25 48.5 48.5-48.5 35 34.5m-11-11.5 11-10.5 37 37" stroke="#c2e8ff" stroke-linecap="round" stroke-linejoin="round" stroke-width="3" transform="matrix(-1 0 0 1 174.25 51.5)"/><path d="m10.7556657 28.2319794 3.5159107 12.6261985-7.03080036-6.2109777 1.58083085-6.3872157c.13268652-.5361088.67485232-.8631473 1.21096121-.7304607.3500614.0866399.6263584.3550495.7230976.7024556z" fill="#c2e8ff" transform="translate(152.738 51.5)"/><path d="m111.855519 33.9531312 1.629829 5.8529787-4.365116-2.5876805.801228-3.2372931c.132686-.5361089.674852-.8631473 1.210961-.7304608.350062.0866399.626359.3550496.723098.7024557z" fill="#c2e8ff" transform="matrix(-1 0 0 1 174.25 51.5)"/><path d="m60.209 12h-7.234l-7.153 7.09-4.649-4.649-4.328 4.328-2.542-2.542" stroke="#c2e8ff" stroke-linecap="round" stroke-linejoin="round" stroke-width="3" transform="matrix(-1 0 0 1 174.25 51.5)"/><path d="m70.4810694 13.2322243c-1.3682019-3.2250696-4.5086812-5.480769-8.1641234-5.480769-1.0071144 0-1.9751399.17122177-2.8777822.48676428-1.7134233-2.65300629-4.6554608-4.40329235-7.9972692-4.40329235-3.1962609 0-6.0268153 1.60114393-7.7664691 4.06185616-.6959277-.41270289-1.5042677-.64896634-2.3665452-.64896634-.7547232 0-1.4681252.18099967-2.1009967.50288488-1.7091172-4.45709086-5.9529684-7.61307199-10.9176557-7.61307199-4.5585861 0-8.5094388 2.66079189-10.4483627 6.54646121-1.1462635-.55060464-2.426122-.85831152-3.7762281-.85831152-4.34696188 0-7.96569489 3.18987026-8.74182639 7.40644487h65.15726009z" fill="#c2e8ff" transform="translate(90 89.25)"/><path d="m0 12.25h65" stroke="#c2e8ff" stroke-linecap="round" stroke-width="3" transform="translate(90 89.25)"/><path d="m104.481069 13.2322243c-1.368202-3.2250696-4.5086808-5.480769-8.164123-5.480769-1.0071144 0-1.9751399.17122177-2.8777822.48676428-1.7134233-2.65300629-4.6554608-4.40329235-7.9972692-4.40329235-3.1962609 0-6.0268153 1.60114393-7.7664691 4.06185616-.6959277-.41270289-1.5042677-.64896634-2.3665452-.64896634-.7547232 0-1.4681252.18099967-2.1009967.50288488-1.7091172-4.45709086-5.9529684-7.61307199-10.9176557-7.61307199-4.5585861 0-8.5094388 2.66079189-10.4483627 6.54646121-1.1462635-.55060464-2.426122-.85831152-3.7762281-.85831152-4.3469619 0-7.9656949 3.18987026-8.7418264 7.40644487h65.1572603z" fill="#c2e8ff" transform="translate(2 89.25)"/><path d="m14 12.25h85m-99 0h8m15 0h5.5" stroke="#c2e8ff" stroke-linecap="round" stroke-width="3" transform="translate(2 89.25)"/><path d="m82.7143538 20.9727273h-82.66458217c-.03294088-.3682529-.04977163-.7412238-.04977163-1.1181818 0-6.7479155 5.39332657-12.21818186 12.046332-12.21818186 1.8282688 0 3.5614105.41309771 5.1136431 1.15228522 2.6256263-5.21652578 7.9757389-8.78864886 14.1488236-8.78864886 6.7230141 0 12.469896 4.23691726 14.7843255 10.2205795.8570135-.43213217 1.8230788-.67512495 2.8450997-.67512495 1.1676675 0 2.2622945.31718463 3.2046967.87123985 2.3557811-3.30351594 6.1888236-5.45305804 10.5170935-5.45305804 6.3617064 0 11.6535619 4.64370387 12.7573635 10.76993424.3263165-.0520183.6608194-.0790251 1.0015413-.0790251 3.1396292 0 5.7512001 2.2931394 6.2954349 5.3181818z" fill="#c2e8ff" transform="translate(151.647 81.527)"/><path d="m16.3532819 19.9727273h70.5" stroke="#c2e8ff" stroke-linecap="round" stroke-width="3" transform="translate(151.647 81.527)"/><path d="m82.7143538 20.9727273h-82.66458217c-.03294088-.3682529-.04977163-.7412238-.04977163-1.1181818 0-6.7479155 5.39332657-12.21818186 12.046332-12.21818186 1.8282688 0 3.5614105.41309771 5.1136431 1.15228522 2.6256263-5.21652578 7.9757389-8.78864886 14.1488236-8.78864886 6.7230141 0 12.469896 4.23691726 14.7843255 10.2205795.8570135-.43213217 1.8230788-.67512495 2.8450997-.67512495 1.1676675 0 2.2622945.31718463 3.2046967.87123985 2.3557811-3.30351594 6.1888236-5.45305804 10.5170935-5.45305804 6.3617064 0 11.6535619 4.64370387 12.7573635 10.76993424.3263165-.0520183.6608194-.0790251 1.0015413-.0790251 3.1396292 0 5.7512001 2.2931394 6.2954349 5.3181818z" fill="#c2e8ff" transform="translate(45.647 81.527)"/><path d="m16.3532819 19.9727273h70.5m4.5 0h5.5" stroke="#c2e8ff" stroke-linecap="round" stroke-width="3" transform="translate(45.647 81.527)"/><path d="m10.4209988 4.29236217 5.8382972 20.15107383c.3073818 1.0609384-.3034965 2.170181-1.3644348 2.4775628-.1808769.0524048-.3682486.0790012-.556564.0790012h-11.6765944c-1.1045695 0-1.99999999-.8954305-1.99999999-2 0-.1883154.02659637-.3756871.07900116-.556564l5.8382972-20.15107383c.3073818-1.06093836 1.41662446-1.67181664 2.47756282-1.36443484.65864624.19082718 1.17360771.70578861 1.36443481 1.36443484z" fill="#c2e8ff" transform="translate(211 71.5)"/><g stroke="#8cd3f8" stroke-linecap="round" stroke-width="3"><path d="m8.5.162 8.5 26.838h-17z" stroke-linejoin="round" transform="translate(211 71.5)"/><path d="m8.5 3.16197183v28.33802817c0-.426404 0-9.8724134 0-28.33802817z" transform="translate(211 71.5)"/><path d="m8.5 14.6619718c2.6666667 3.2306088 4 4.8972754 4 5 0-.1027246-1.3333333-1.7693912-4-5z" stroke-linejoin="round" transform="matrix(-1 0 0 1 232 71.5)"/></g><path d="m12.8239437 0 12.2518928 41.9391718c.3097369 1.0602531-.2986768 2.1708495-1.35893 2.4805864-.1821881.0532235-.371025.0802418-.5608282.0802418h-20.66426928c-1.1045695 0-2-.8954305-2-2 0-.1898032.02701827-.3786401.08024177-.5608282z" fill="#c2e8ff" transform="translate(190.5 54)"/><g stroke="#8cd3f8" stroke-linecap="round" stroke-width="3" transform="translate(190 55)"><path d="m13.5 0 13 43.5h-26z" stroke-linejoin="round"/><path d="m13.5 3v45c0-.7513526 0-15.7513526 0-45z"/><path d="m7.82394366 21c3.66666664 3.539346 5.50000004 5.3726794 5.50000004 5.5 0-.1273206-1.8333334-1.960654-5.50000004-5.5zm6.00000004 13c4.6666666-5.460654 7-8.1273206 7-8 0-.1273206-2.3333334 2.539346-7 8z" stroke-linejoin="round"/></g><g fill="#c2e8ff" transform="translate(136.927 73.896)"><path d="m1.28352602 8.56969821-1.16655903 5.60414959v17.0672253h41.88817961l-1.8745826 3.4461709h20.8950944l-.3742321-16.0111005-3.6950369-7.6507608-8.772835-4.30818024c-10.4585215-.26732348-20.1861721-.40098522-29.1829519-.40098522s-14.90247197.75116032-17.71707648 2.25348097z"/><rect height="6.371" rx="2" width="17.202" x="17.52"/></g><g fill="#fff" transform="translate(136.29 79.904)"><path d="m.404 25.734h42.384l-1.895 2.949 20.711.653-2.26 5.239-5.344 1.918-46.945.407-6.651-.407z"/><circle cx="42.048" cy="37.633" r="7.008"/><path d="m.97337686 7.21306782c2.16264491-2.7285939 4.35619067-4.10113453 6.58063728-4.1176219 2.22444662-.01648737 15.26046136-.01648737 39.10804426 0 6.2743194.26243626 10.9656987 3.43930671 14.0741378 9.53061138 3.1084391 6.0913046 2.437901 3.9385107-2.0116144-6.45838191-2.3503313-2.27650107-3.5656784-3.4449266-3.6460414-3.50527659-.0803629-.06034999-2.370759-.85526924-6.8711882-2.38475775h-11.0690899-29.78536293l-4.2549852 1.37949494-2.12453731 2.36920363z"/></g><g stroke="#8cd3f8" stroke-width="3" transform="translate(121 71.622)"><path d="m69.125 44.877704c4.222306 0 8.375-4.296527 8.375-8.518833v-13.3790323c0-8.444612-7.5755493-15.10213472-16.0201613-15.10213472h-38.2258064c-4.222306 0-7.7540323 3.23466742-7.7540323 7.45697342v29.5430266h34.8306452c0 3.8704471 3.1376173 7.0900379 7.0080645 7.0900379 3.8704471 0 7.0080645-3.2195908 7.0080645-7.0900379z" stroke-linecap="round" stroke-linejoin="round"/><path d="m35.5.87770399h13c1.1045695 0 2 .8954305 2 1.99999999v5h-17v-5c0-1.10456949.8954305-1.99999999 2-1.99999999zm-10 17.00000001h13c.5522847 0 1 .4477152 1 1v25c0 .5522847-.4477153 1-1 1h-13c-.5522847 0-1-.4477153-1-1v-25c0-.5522848.4477153-1 1-1zm23 0h17c.5522847 0 1 .4477152 1 1v6c0 .5522847-.4477153 1-1 1h-17c-.5522847 0-1-.4477153-1-1v-6c0-.5522848.4477153-1 1-1z"/><path d="m15.927 32.878h42.049l-2.552 4h21.346"/><path d="m66.8982721 44.877704h-66.8982721m7.5-6.6075427v12.7419355" stroke-linecap="round"/></g><g fill="#c2e8ff" fill-rule="nonzero" transform="translate(15 70)"><path d="m10.6920303 27.0039829c.3272369.2009206.3768182.4784714.2280742.7410699-.2032835.3616571-1.04715801.5429529-2.05068442.0177558-.00297488.3738057-.01487441.7934027-.03966508 1.2830883-.0148744.2803543-.21121652.9457285-.03074043 1.1158102.43631583.4111863.5751436.7476115.47598091 1.1784226-.05453948.2383012-.39863401.4139899-.81809219.5205246-.34607779.1074691-.77049409.1794267-1.20482667.1149452h-.00099163c-1.1066556-.0850408-1.54495468-.2953065-1.52313892-.7476115.00198329-.0626125.01388281-.130832.03470697-.2065277.0892464-.3149313.16758493-.6569636.16659328-.9027409-.0009916-.0822372-.00892463-.1541949-.03074043-.2102657-.01983251-.0560709-.11304545-.2392357-.25286484-.3354907-.03470693-.0233629-.07238874-.0420532-.11304545-.0523328-.12197013-.0299045-.26674766.0196248-.42342471.2392357-.04065667.0560708-.08428827.1411116-.09817104.2326941-.01388277.0915824 0 .1897064.07833853.2719437.0446232.0476602.07933012.101862.10610406.1598019.0257823.0579399.04363161.1196178.05255624.1840994.05057298.3850199-.2280742.84667-.84387449.9746985-.27071415.0551363-.52258739.0925169-.75661132.1102727-.70207185.0523328-1.23854201-.0682196-1.59453603-.3635261-.23898211-.196248-.0406567-1.0326384.1626268-1.7531491-1.45769153-.5270661-1.75319637-1.5671806-1.75319637-1.5671806.32822852.1691471.73380392.5485599.79528479.3242765.06148086-.2224144-2.22818563-1.6036267-.77247735-4.0595306-.07139714 1.4699912.66339839 1.6867986.79925129 1.7017508.13486125.0158867.10015428-.1869029.02082415-.5065068.48292228.1355045.85180751.5429528 1.11954677.8756399.01189953-.0476602.01784927-.101862.02974879-.1485878-.01487442-.2149383.03173208-.4868819.12395337-.7775159.16758493-.5205246.48986367-1.0924473.86965678-1.5101753-.10213757-.0467257-.19535052-.0943859-.26773926-.1392426-1.43885062-.906479-3.70769295-3.2679969-1.12648816-6.450953.13486126-.165409.27963879-.3168003.43532424-.456043-.24394026-2.8661557 1.50132308-1.7344587 2.27776696-1.0989889 1.27027404-.259795 2.66350982-.1130763 3.8316463.3448358.88056468-.585006 2.55145596-1.3765397 2.04175976 1.4363486 0 0 1.0560826 3.6632965-1.57867 5.6201696-.46110651.3429668-.93312091.5952857-1.39819392.775647.03173206.0495293.04759809.0841063.05553111.1065346.00991626.0112142.0188409.0224284.0297488.0345771.77346897.1560639.8924642.7420044.8924642.7420044-.00495813.132701.01685766.2682056.04958135.4513705.07139713.1009275.14279427.2027896.21617466.3130623.04958134.0738266.11998685.1607365.19237562.2485808.36690195.1831648.81115079.2224144.81809218.2233489.06445575-.005607.1418026.0093452.1844426.0177558.2042751.0383151.6158003.030839.6881891.3710023.0327237.1541948-.0852799.2383011-.1636185.3158658-.0674306.065416-.015866.1897064.0654474.2392357z"/><path d="m21.0732953.44334032c.8748982-.45874104 2.7314453-.29932738 3.3083987-.14630112.1791636-.15792333.6582246-.50497532 1.0361927-.09818702.4364632.47045421-.3653007 1.2666075-.3653007 1.2666075l-.0075349-.0111597c.1382504.64677252.2120693 1.45861017.2714556 2.13638791.092931 1.06062382.6401942 2.52243147.8281872 2.99989245.0058399-.00834393.0117342-.01667453.0176831-.02499137 0 0 3.8157305 2.72094272 4.6245425 4.13190503.6647889 1.159552.2775076 1.8260333-.2968279 2.6930857-.4707092.7103561.1809069.5641063.4952985.7089633.4443636.2054461.7447042 2.2216041-1.0309937 2.6164786-.8973366.199547-1.7399526-.2253297-2.3866383-.8279556.0803822.2816842.1650612.571136.2542537.8685202.7005592 2.3355889 1.1664617 6.1899666 2.0034491 9.2052381.4890954 1.7687494 1.500711 2.6754302 1.500711 3.7461271 0 1.4289081-1.6139464 2.1407378-3.9509626 1.8730636-1.3308578-.1522069-1.8363245-.7492254-2.0587026-2.408412-.246253-1.8297633-2.8950078-2.2995054-4.2292762-2.3546148-2.1501095-.0892247-4.9509818 1.1776354-5.062853 2.5153505-.0886784 1.0726652.0491142 2.2089685-2.0587026 2.5691478-2.5041408.42841-3.895027-.6363824-3.895027-1.6053893 0-.5766805.6985128-2.3939786 1.6439606-4.5872016 1.5191288-3.530938 3.6740133-8.0394119 4.5887648-9.9308452.713967-1.4765844 1.2045701-3.209014 1.6041542-4.7643285-.833411-.5632558-1.7909729-1.42061929-2.6805959-2.80183252-.3772661-.58954776-1.016447-2.59466518-1.1643679-4.41767786-.3704806-1.76078263-.0793887-3.65192082 1.7879425-3.78293143 1.1365478-.08188163 1.2267931 1.10310936.9207733 2.6516548-.0040712.00851569-.0040712.01637632-.0040712.02489201-.0515687 1.52692869.0977092 2.48789153.1519921 2.65034469.3541958.60395893 1.1087278 1.09262851 1.7112678 1.42998084.1952859.02976748.3877916.04002827.5677946.0407648.4876151-1.26631137.7792052-3.80345043 1.184132-5.23184917-.1878378-.22003593-.6263795-.81187432-.2721949-1.18497702.3393674-.35766592.7512059-.11961182.9630954.05024928z"/></g><g transform="translate(33 1)"><path d="m125.198103 23.4314099c.671885 7.1819709 5.0294 13.8271688 12.038933 17.0957675 10.511339 4.9015181 23.005929.3538594 27.907447-10.15748s.353859-23.00592898-10.15748-27.90744702c-6.426153-2.99656424-13.593554-2.46145986-19.314049.80889057 1.962909-.0583264 3.968868.32886528 5.870025 1.21538911 6.507019 3.03427307 9.322237 10.76901904 6.287964 17.27603864s-10.769019 9.3222369-17.276039 6.2879638c-2.261897-1.0547399-4.077707-2.6774466-5.356801-4.6191226z" stroke="#c2e8ff" stroke-linecap="round" stroke-linejoin="round" stroke-width="3"/><g fill="#c2e8ff"><circle cx="74.5" cy="42.5" r="2.5"/><circle cx="2.5" cy="47.5" r="2.5"/><circle cx="186.5" cy="45.5" r="2.5"/><circle cx="145.5" cy="67.5" r="2.5"/><circle cx="117.5" cy="35.5" r="2.5"/></g><g stroke="#c2e8ff" stroke-linecap="round" stroke-linejoin="round" stroke-width="3"><path d="m170.719 42.122-2.63 1.227 1.228-2.63-1.228-2.63 2.63 1.228 2.63-1.228-1.227 2.63 1.227 2.63z" transform="matrix(.70710678 .70710678 -.70710678 .70710678 78.796118 -108.790658)"/><path d="m126.719 59.122-2.63 1.227 1.228-2.63-1.228-2.63 2.63 1.228 2.63-1.228-1.227 2.63 1.227 2.63z" transform="matrix(.70710678 .70710678 -.70710678 .70710678 77.929632 -72.698775)"/><path d="m42.719 56.122-2.63 1.227 1.228-2.63-1.228-2.63 2.63 1.228 2.63-1.228-1.227 2.63 1.227 2.63z" transform="matrix(.70710678 .70710678 -.70710678 .70710678 51.205281 -14.180485)"/><path d="m98.719 21.122-2.63 1.227 1.228-2.63-1.228-2.63 2.63 1.228 2.63-1.228-1.227 2.63 1.227 2.63z" transform="matrix(.70710678 .70710678 -.70710678 .70710678 42.858564 -64.029727)"/></g></g><path d="m1.44744117 1.89614401 36.00000003-1.89473684c.5515214-.02902744 1.0221492.3945376 1.0511766.946059.0009213.01750447.0013822.03503013.0013822.05255883v9.8919687c0 .5522847-.4477153 1-1 1-.0175287 0-.0350544-.0004609-.0525588-.0013822l-36.00000003-1.89473684c-.53112471-.02795393-.94744117-.466758-.94744117-.99861783v-6.10249499c0-.53185982.41631646-.97066389.94744117-.99861783z" fill="#fff" transform="matrix(.90630779 -.42261826 .42261826 .90630779 34.176976 99.018375)"/><path d="m.88315875 1.84210831 15.00000005-1.76470588c.5485019-.06452964 1.0454622.32780742 1.1099918.87630935.0045624.03877996.0068494.07779384.0068494.11684125v9.75091257c0 .5522848-.4477153 1-1 1-.0390474 0-.0780613-.002287-.1168412-.0068494l-15.00000005-1.7647058c-.50361291-.05924861-.88315875-.48606449-.88315875-.99315064v-6.22150085c0-.50708615.37954584-.93390202.88315875-.9931506z" fill="#c2e8ff" transform="matrix(.90630779 -.42261826 .42261826 .90630779 41.87849 94.693663)"/><g transform="matrix(.90630779 -.42261826 .42261826 .90630779 26.367838 98.877629)"><path d="m9.44744117 4.89614401 36.00000003-1.89473684c.5515214-.02902744 1.0221492.3945376 1.0511766.946059.0009213.01750447.0013822.03503013.0013822.05255883v9.8919687c0 .5522847-.4477153 1-1 1-.0175287 0-.0350544-.0004609-.0525588-.0013822l-36.00000003-1.8947368c-.53112471-.027954-.94744117-.466758-.94744117-.9986179v-6.10249496c0-.53185982.41631646-.97066389.94744117-.99861783z" stroke="#8cd3f8" stroke-linecap="round" stroke-linejoin="round" stroke-width="3"/><path d="m1.982 7.43h6v4h-6z" fill="#8cd3f8"/><path d="m46.5.77016129v16.70999911m-45.03407417-12.45118006v8.71000006" stroke="#8cd3f8" stroke-linecap="round" stroke-width="3"/></g><g stroke="#8cd3f8" stroke-linecap="round" stroke-linejoin="round" stroke-width="3"><path d="m7.5.78759766v5.61999988m0 .38000012-7 11.61999984" transform="translate(48 100)"/><path d="m14.5 6.78759766-7 11.61999984" transform="matrix(-1 0 0 1 70 100)"/><path d="m3.5 6.5h8" transform="translate(48 100)"/></g></g></svg>