<svg height="117" viewBox="0 0 240 117" width="240" xmlns="http://www.w3.org/2000/svg"><g fill="none"><g stroke="#c2e8ff" stroke-linecap="round" stroke-linejoin="round" stroke-width="3"><path d="m167.75 18 22.25-18 17.5 13.5" transform="matrix(-1 0 0 1 388.75 90)"/><path d="m185.25.5v17m-17.5-12v7.5c0-.1281056 0-2.6281056 0-7.5z" transform="translate(13.5 90)"/><path d="m151.5 9 5.25-4.5 16.25 13.5" transform="matrix(-1 0 0 1 338 90)"/></g><path d="m0 18.5h225" stroke="#c2e8ff" stroke-linecap="round" stroke-width="3" transform="translate(13.5 90)"/><g fill="#c2e8ff"><path d="m203.54276 6.39237488 2.95724 9.98068482-6.252086-4.4506319 1.365647-5.48746493c.133377-.53593753.675964-.86227735 1.211901-.7289004.343791.08555815.616652.34663177.717298.68631241z" transform="translate(13.5 90)"/><path d="m156.462964 7.43915721 2.537036 9.06084279-5.614891-4.9468179 1.151927-4.11402489c.148912-.53183034.700764-.84224659 1.232594-.69333409.336333.09417313.599161.35700147.693334.69333409z" transform="matrix(-1 0 0 1 325.885 90)"/><path d="m11.2581158 11.747284c.1069094-.7344509.0446248-1.6136073-.2881073-2.66148184 0 0-.0192782-.05836189-.0613034-.15700638 1.3307852-3.41796167-1.04949404-2.31936198-1.76143287-1.93281813-.12003716-.05943578-.24703126-.11298263-.3812723-.15912906 0 0-1.43358252-.70986418-2.94011384-.68273574-.54951326-.81413792-1.96628651-2.52604557-2.28815148.89955697-1.50755568 1.36637703-2.46646395 3.31708608-1.24932789 5.53266988-.25534179-.0939952-.55747924-.1334323-.83968523.0105401-.67006673.3415864-.92874026.887725-.68979607 1.6032584.19960549.5916835 1.16224128 1.3255923 2.19586977 1.5452461.01859713.0149717.03895802.0278203.06115352.0383572.19454025.0923383.49380497.1724437.78470628.3058212.07526953.0345839.12973609.1075603.14527492.1946449.01553883.0870847-.00988921.1768497-.06782244.239424-.50907729.5421915-1.4552338.9158854-2.15485145 1.0678095-.85524985.1854658-1.85449585.1854658-1.70904519 1.1384443.1952675 1.270638 1.97594714 1.7204912 2.63447498 1.7733686.65852784.0528775.65852784-.529564.90252131-.6881964.24399347-.1586325 1.4155985-.2375541 2.12212505-.0528775s2.12248868 1.113584 2.48829707 2.1971777c.3658084 1.0835938 1.09778882 2.3266092 1.87813156 1.9821164.7803428-.3444929 1.0308815-2.1218076.9512473-2.7267418-.085016-.6447182-.5596588-.776622-.8569499-1.1182866.0010353-.0153092.005342-.0296428.0133544-.042801.1273549-.2091446.7550329.4868223 2.309491-.3568455 0 0-.7706794-.0653823-.7477555-.283192s.4864959.0996489 1.2506256-.4903672c.9406073-.7251132 1.789519.0504153 2.0402263.3418785 0 0-.1673808-2.2954698-2.2261645-2.8709127-.3587771-.1004366-.1455485-.1819676.291097-.2390786 0 0-1.2855572-.5990751-3.15258075.4659473-.00799851.0045626-.01595297.0091486-.02386364.0137576.00430149-.0680972.00914529-.1261051.01454909-.1719702.00893198-.0756108.04750248-.1433583.1058154-.1858604.5560423-.4094191 1.2183693-.8416754 1.6546155-1.1493212.1343675.018863.2649786.0113052.3806394-.0323148 1.1883793-.4494215 1.777977-1.3168449 1.8312429-2.0681346.0569393-.8010044-.3515546-1.2750845-1.1288685-1.4134904-.4808619-.087498-.9022131.2449944-1.1534809.5090792-.0425885.0451325-.1049772.0605506-.1614357.0398955s-.0974218-.0738842-.1059956-.1377341c-.0135542-.0941978-.0346839-.192079-.0674539-.2776972zm25.0610561 11.5526741c-1.909455.2438774-6.0969618-.7031177-9.0357805 1.3138042-1.520557 1.0431156-.3759902 3.7135688-.3759902 3.7135688-.5636992-.3374219-.6386683-.590649-.6386683-.590649s.1856091.3679631.3096357.760022c-.0052733-.0502413-.0126206-.0806792-.0126206-.0806792s.676439.6330677-.0749691 1.7725896c-.7514082 1.1395219-.9019187 1.0129084-.9768878.8862948-.0749691-.1266135-.1144567-.9704896-.3004488-.9280709-.1859921.0424188-.4131886.6330678-.6386683.590649-.2254797-.0424187-.3004488-1.8966323-.1505105-2.5746896 0 0 .0219038.033379.0606041.0890259.0379854-.4904077.1683092-.9886453.1683092-1.6122447 0-.8862948-.4126163-1.6061282-.7136374-2.4898522-.301021-.8837239-.7891788-3.6280886-.48873-5.3987501s.0749691-4.0490626.0749691-4.0490626c-.1505105.2532271-.676439.4640354-.676439.4640354.1499383-.1266135.3004488-.7808906.3004488-.7808906-.6197829.509025-1.0707422.3162125-1.0707422.3162125.2815634-.189599.5070431-.9492802.5070431-.9492802-.3948756.4441114-1.352878.3798406-1.352878.3798406l.3943033-.3798406c-.3562245-.1333538-.7905337-.4246278-1.1218959-.6705125-.7079327-.3782044-1.3719569-1.2191975-1.2301889-1.5005563.1499382-.297574.6369514.041776.7136374-.1690323.0766859-.2108084-.111023-.7596813.1144566-.7596813.2254797 0 1.2401382.8001719 1.2401382.8001719-.0042207.0004503-.0084167.0009441-.0125881.0014808.5384808.2831773 1.1544599.3467887 1.7385948.1675515.228856-.066945.419706-.1797672.5788379-.3202159-.1060047-.5851919-.047376-1.0632227-.092397-1.40931226-.121324-.0848375-.523067.20823746-1.6813686-.07776771-1.1583016-.28600522-1.5382978-2.08108964-1.0175199-2.97252612s1.1062238-2.24240943 1.2492947-2.72958235c.1430708-.48717293.4618327-1.43581045 1.2939328-1.95383338.2832292-.1764286.56087-.30021565.8254955-.38528483-.1169186-1.46980557-1.4721045-.91802857-1.7577452-1.02610271-.252377-.09576354.0412044-.34192084.2598167-.41711772.2695454-.09512083 1.336854-.6626323 2.1288942.03342084.2837046.24915773.495073.73234304.5828932 1.24368138.3058124.01084611.5498857.0569241.7047445.0867249.431129.08306186.7846357.21809715 1.0820172.39222422.4645968-.51577595 1.5316903-1.00645605 2.30075-.81191277 1.5142619.38562501 1.0461341 1.34968753 3.0462646 2.75464798.1144567.08033854.1035833.35734584-.1487937.26800938-2.3076237-.81729668-2.2016247-3.04324881-4.1077315-1.11294152.0750576.12812226.15097.28646632.2310745.46396204l.0068766-.01365283s2.8144898 1.64019171 2.0562143 2.65245736c-.298575.3984752-1.2006342.1210821-1.9247897-.32506828-.1039234.51068771-.2343078.99604439-.3871457 1.43013346.0339188.66131162.0714821 1.30058057.1498487 1.60844947.1505105.59129168 1.82959 2.00525005 2.968434 1.77258965.6903262-.1410898 1.3575569-.2690112 1.8131269-.3546391.3255476-.1374845.6133359-.1955299.7003418-.1466734.2249074.1240427-.3754179 1.0141937-.3754179 1.0141937s1.2676078-.4537521.8263773.2532271c-.7645328 1.2278989-1.4407338 1.2968739-1.8446517 1.1603795-.8755194.3476288-2.1355794.5215883-2.1355794.5215883.0377707.2950031.9768877.7172625.9768877.7172625-.4509593.041776-1.1645967-.0424188-1.1645967-.0424188s3.5321332 6.1610023 4.3962812 6.6674565c.6769255.3967281 1.6765758.456652 2.0779607.4639955.7902466-.1993382 1.9067247-.1418694 1.9766672.1729284.0749691.3374219-.5636992.5912917-.5636992.7596813s.9019187.2127365.4887301.7172625c-.4131886.5045261-2.2919951.6330677-2.2919951.6330677.0071016-.0032496.0141589-.0064992.0211723-.0097489z" transform="translate(0 79)"/></g><g stroke="#c2e8ff" stroke-linecap="round" stroke-width="3" transform="translate(13 42.749)"><path d="m22 8.79146919h9.5c-.3605143-2.72666305.5407715-5.00768627 2.7038574-6.84306964 2.4838867-2.04664127 5.4328614-1.58781195 7.0166016-.8815999s2.7598877 1.67648706 3.5751953 3.50739695c.345459.77088358.5802409 1.42308661.7043457 1.95660909"/><path d="m41.5 10.2985782c.5279134-1.83556261 1.6113688-3.03568156 3.2503662-3.60035684 2.4584961-.84701292 4.7896729.2809885 5.7208252 1.41598091.9311524 1.13499241 1.2263184 2.04676393 1.4020996 2.99827363.1171875.6343399.1594238 1.36778.126709 2.2003203h2.081543c1.9368489.5167057 2.9121907 1.6683691 2.9260254 3.4549902.0246994 3.1897169-2.3121107 3.9833984-3.5075684 3.9833984h-39.5m-5-6h32.5002493m-41.5002493 0h4"/></g><g stroke="#c2e8ff" stroke-linecap="round" stroke-width="3" transform="translate(109 1.749)"><path d="m22 8.79146919h9.5c-.3605143-2.72666305.5407715-5.00768627 2.7038574-6.84306964 2.4838867-2.04664127 5.4328614-1.58781195 7.0166016-.8815999s2.7598877 1.67648706 3.5751953 3.50739695c.345459.77088358.5802409 1.42308661.7043457 1.95660909"/><path d="m41.5 10.2985782c.5279134-1.83556261 1.6113688-3.03568156 3.2503662-3.60035684 2.4584961-.84701292 4.7896729.2809885 5.7208252 1.41598091.9311524 1.13499241 1.2263184 2.04676393 1.4020996 2.99827363.1171875.6343399.1594238 1.36778.126709 2.2003203h2.081543c1.9368489.5167057 2.9121907 1.6683691 2.9260254 3.4549902.0246994 3.1897169-2.3121107 3.9833984-3.5075684 3.9833984h-39.5m-5-6h32.5002493m-41.5002493 0h4"/></g><path d="m12.5 26.5c0 1.38-1.119375 2.5-2.5 2.5-1.38 0-2.5-1.12-2.5-2.5s1.12-2.5 2.5-2.5c1.380625 0 2.5 1.12 2.5 2.5zm-8.5 2.5c-.82934893 0-1.5.672177-1.5 1.5s.67065107 1.5 1.5 1.5c.82858596 0 1.5-.672177 1.5-1.5s-.67141404-1.5-1.5-1.5m17.6466208-29c-4.003792 0-7.4902184 2.20293261-9.327473 5.45923019-1.2746608-.90311589-2.82841233-1.43979697-4.50847162-1.43979697-4.31487323 0-7.81067618 3.49896607-7.81067618 7.81511418 0 4.3166886 3.49580295 7.8156547 7.81067618 7.8156547.09321406 0 .18532499-.0113498.27964217-.0145926 1.41034525 2.0316055 3.75558885 3.3643905 6.41522315 3.3643905 1.8868952 0 3.6182498-.6701758 4.9679232-1.7851537.702139.1448445 1.4290983.2221309 2.1731561.2221309 5.9171622 0 10.3533792-4.7085253 10.3533792-10.6276906 0-5.91970581-4.436217-10.8092866-10.3533792-10.8092866z" fill="#c2e8ff" transform="matrix(-1 0 0 1 120.5 67.5)"/><g transform="translate(28.5 76.5)"><path d="m45.2528776 24.5269019s12.854864 2.5081967 27.4636235 2.5081967c14.6087596 0 29.5363769-2.5081967 29.5363769-2.5081967s-6.1414471 3.7920312-9.3003502 4.9860207c-3.158903 1.1939895-9.6338919 2.1706679-9.6338919 2.1706679s-6.3860005 1.7157776-9.5657583 1.7851307c-3.1797577.069353-7.4817874-1.4133101-7.4817874-1.4133101l-12.8777544-2.5424885z" fill="#8cd3f8"/><path d="m42.4099133 19.6684202s7.3129623 13.5442623 31.5480654 13.5442623c24.2351032 0 33.4519343-13.5442623 33.4519343-13.5442623" stroke="#8cd3f8" stroke-linecap="round" stroke-linejoin="round" stroke-width="4"/><path d="m35.5 22.75h7.5m63.5 0h7.5" stroke="#8cd3f8" stroke-linecap="round" stroke-width="3"/><path d="m72.4728686 0h5.3065126c.4395122 0 .7958073.35629508.7958073.79580733v.59518896c0 .12875671-.0496706.25255036-.1386668.3455985l-4.3191434 4.51578904h4.3819746c.4725131 0 .8555607.3830476.8555607.85556077s-.3830476.85556078-.8555607.85556078h-6.479356c-.4560127 0-.825684-.36967134-.825684-.82568405v-.62513302c0-.1287166.0496397-.25247487.1385866-.34551467l4.2704155-4.46691635h-3.1304464c-.4695131 0-.8501287-.38061556-.8501287-.85012865 0-.46951308.3806156-.85012864.8501287-.85012864z" fill="#8cd3f8"/><path d="m10 39h185m-195 0h6" stroke="#8cd3f8" stroke-linecap="round" stroke-width="3"/></g><path d="m10.6009586 6.72613904 5.6554506 34.33424606c.1795229 1.0898832-.55847 2.1189401-1.6483532 2.2984629-.107447.0176984-.21616.0265919-.3250548.0265919h-12.01783724c-1.1045695 0-2-.8954305-2-2 0-.1222381.01120656-.2442188.033479-.3644107l6.36238657-34.33424605c.20125847-1.08607956 1.24485214-1.80336877 2.3309317-1.60211029.82858585.15354301 1.47203677.8099785 1.60899737 1.64146618z" fill="#c2e8ff" transform="translate(57.75 47)"/><g stroke="#8cd3f8" stroke-linecap="round" stroke-width="3"><path d="m8.75.355 9.25 46.645h-18z" stroke-linejoin="round" transform="translate(57.75 43.5)"/><path d="m8.75 4.04724702v67.40513398c0-.9340279 0-23.4024059 0-67.40513398z" transform="translate(57.75 43.5)"/><g stroke-linejoin="round"><path d="m9.5 32.1167002 4.5 4.952381z" transform="matrix(-1 0 0 1 81.25 43.5)"/><path d="m5 26.1167002c2.33333333 2.7432382 3.5 4.2273651 3.5 4.452381 0-.2250159-1.16666667-1.7091428-3.5-4.452381z" transform="translate(57.75 43.5)"/></g></g><path d="m14.762016.33496094 12.7590937 52.58209476c.2604664 1.0734203-.3985629 2.1547491-1.4719832 2.4152155-.1544069.037467-.3127285.0564007-.4716161.0564007h-23.07029298c-1.1045695 0-2-.8954305-2-2 0-.1760858.02325422-.3514005.06915954-.5213973z" fill="#c2e8ff" transform="translate(125.75 35.5)"/><g stroke="#8cd3f8" stroke-linecap="round" stroke-width="3"><path d="m14.75 0 14.536 56h-29.286z" stroke-linejoin="round" transform="translate(125.75 34.5)"/><path d="m14.75 3.04724702v77.40513398c0-.9340279 0-26.7357393 0-77.40513398z" transform="translate(125.75 34.5)"/><g stroke-linejoin="round"><path d="m15.5 37.1167002 9 9.952381z" transform="matrix(-1 0 0 1 165.75 34.5)"/><path d="m7 30.6167002c5 5.7432382 7.5 8.7273651 7.5 8.952381 0-.2250159-2.5-3.2091428-7.5-8.952381z" transform="translate(125.75 34.5)"/><path d="m15.5 24.1167002 5.5 6.952381z" transform="matrix(-1 0 0 1 162.25 34.5)"/></g></g><path d="m10.6009586 6.72613904 5.6554506 34.33424606c.1795229 1.0898832-.55847 2.1189401-1.6483532 2.2984629-.107447.0176984-.21616.0265919-.3250548.0265919h-12.01783724c-1.1045695 0-2-.8954305-2-2 0-.1222381.01120656-.2442188.033479-.3644107l6.36238657-34.33424605c.20125847-1.08607956 1.24485214-1.80336877 2.3309317-1.60211029.82858585.15354301 1.47203677.8099785 1.60899737 1.64146618z" fill="#c2e8ff" transform="translate(146.75 55)"/><g stroke="#8cd3f8" stroke-linecap="round" stroke-width="3"><path d="m8.75.355 9.25 45.145h-18z" stroke-linejoin="round" transform="translate(146.75 53)"/><path d="m8.75 2.54724702v59.90513398c0-.9340279 0-20.9024059 0-59.90513398z" transform="translate(146.75 53)"/><path d="m9.5 30.6167002 5.5 5.952381z" stroke-linejoin="round" transform="matrix(-1 0 0 1 171.25 53)"/><g stroke="#c2e8ff"><path d="m15.5180353 1.71764295s4.7720788-1.38169642 5.8063859 3.62779018" transform="matrix(.89879405 .43837115 -.43837115 .89879405 171.060469 56.491708)"/><path d="m20.2141001 5.08986883s4.7720788-1.38169643 5.8063859 3.62779018" transform="matrix(-.89879405 -.43837115 -.43837115 .89879405 215.281814 73.712015)"/><path d="m.36514239 14.7932757s4.77207881-1.3816964 5.80638587 3.6277902" transform="matrix(.96592583 -.25881905 .25881905 .96592583 167.422681 69.103516)"/><path d="m6.36514239 14.7932757s4.77207881-1.3816964 5.80638591 3.6277902" transform="matrix(-.96592583 .25881905 .25881905 .96592583 185.328001 64.305926)"/></g></g></g></svg>