<svg class="slds-illustration" viewBox="0 0 466 263" aria-hidden="true" xmlns="http://www.w3.org/2000/svg" xmlns:xlink="http://www.w3.org/1999/xlink">
<!-- Default styles. Override them in slds-illustrations.css if you like -->
<style>.slds-illustration{
    text-align:center
}
.slds-illustration.slds-illustration_small .slds-illustration__svg{
    width:100%;
    max-width:300px;
    max-height:200px;
    margin-bottom:1rem
}
.slds-illustration.slds-illustration_large .slds-illustration__svg{
    width:100%;
    max-width:600px;
    max-height:400px;
    margin-bottom:3rem
}
.slds-illustration.slds-illustration_large .slds-illustration__header{
    margin-bottom:1.5rem
}
.slds-illustration.slds-illustration_large p{
    margin-bottom:3rem
}
.slds-illustration .slds-illustration__stroke-primary{
    stroke:#8cd3f8
}
.slds-illustration .slds-illustration__stroke-secondary{
    stroke:#c2e8ff
}
.slds-illustration .slds-illustration__fill-primary{
    fill:#8cd3f8
}
.slds-illustration .slds-illustration__fill-secondary{
    fill:#c2e8ff
}
</style>
<link xmlns="http://www.w3.org/1999/xhtml" rel="stylesheet" href="slds-illustrations.css" type="text/css"/><g stroke="none" stroke-width="1" fill="none" fill-rule="evenodd"><g transform="translate(-69.000000, -67.000000)"><g><g transform="translate(455.000000, 232.000000) scale(-1, 1) translate(-455.000000, -232.000000) translate(377.000000, 213.000000)"><polyline vector-effect="non-scaling-stroke" class="slds-illustration__stroke-secondary" stroke-width="3" stroke-linecap="round" stroke-linejoin="round" points="26 36 72.5 0 105.5 27"></polyline><polyline vector-effect="non-scaling-stroke" class="slds-illustration__stroke-secondary" stroke-width="3" stroke-linecap="round" stroke-linejoin="round" points="96 17 105.5 9 138 36"></polyline><path vector-effect="non-scaling-stroke" d="M0,36.5 L156,36.5" class="slds-illustration__stroke-secondary" stroke-width="3" stroke-linecap="round"></path><path vector-effect="non-scaling-stroke" d="M34.202166,22.8278095 L37.207834,33.1133915 L30.8916038,28.4131636 L32.2719085,22.8668 C32.4052855,22.3308624 32.9478721,22.0045226 33.4838096,22.1378996 C33.8288998,22.223781 34.102419,22.486469 34.202166,22.8278095 Z" class="slds-illustration__fill-secondary" transform="translate(34.049719, 27.610728) scale(-1, 1) translate(-34.049719, -27.610728) "></path><path vector-effect="non-scaling-stroke" d="M28.9755366,18.8278095 L34.0379951,36.1518555 L29.5001232,33.2627202 L24.2782891,29.9851658 L27.0452792,18.8668 C27.1786561,18.3308624 27.7212427,18.0045226 28.2571802,18.1378996 C28.6022704,18.223781 28.8757896,18.486469 28.9755366,18.8278095 Z" class="slds-illustration__fill-secondary" transform="translate(29.158142, 27.129960) scale(-1, 1) translate(-29.158142, -27.129960) "></path><path vector-effect="non-scaling-stroke" d="M134.935531,21.7547479 L139.204202,37 L130.811328,29.6057303 L133.009603,21.7547479 C133.158515,21.2229175 133.710367,20.9125013 134.242197,21.0614138 C134.57853,21.1555869 134.841358,21.4184152 134.935531,21.7547479 Z" class="slds-illustration__fill-secondary"></path></g><g transform="translate(71.000000, 188.000000)"><path vector-effect="non-scaling-stroke" d="M237,61.5 L249,61.5" class="slds-illustration__stroke-secondary" stroke-width="3" stroke-linecap="round"></path><path vector-effect="non-scaling-stroke" d="M0,61.5 L230,61.5" class="slds-illustration__stroke-secondary" stroke-width="3" stroke-linecap="round"></path><path vector-effect="non-scaling-stroke" d="M34.9102011,32.0436939 L38.3925781,48.4296875 L26.453125,58.6445313 L32.9606296,32.0141932 C33.0917307,31.4776944 33.6329274,31.1490548 34.1694262,31.2801559 C34.5424771,31.3713162 34.8303699,31.6680556 34.9102011,32.0436939 Z" class="slds-illustration__fill-secondary"></path><path vector-effect="non-scaling-stroke" d="M191.962964,27.4391572 L198,49 L186.770218,39.1063642 L190.037036,27.4391572 C190.185948,26.9073269 190.7378,26.5969106 191.26963,26.7458231 C191.605963,26.8399963 191.868791,27.1028246 191.962964,27.4391572 Z" class="slds-illustration__fill-secondary"></path><path vector-effect="non-scaling-stroke" d="M39.9662349,37.3583594 L42.6016149,47.2410342 L40.7070312,48.7349783 L35,48.7349783 L38.0337651,37.3583594 C38.1760682,36.8247225 38.7240258,36.5074839 39.2576627,36.6497871 C39.6036917,36.7420615 39.8739605,37.0123303 39.9662349,37.3583594 Z" class="slds-illustration__fill-secondary"></path><polyline vector-effect="non-scaling-stroke" class="slds-illustration__stroke-secondary" stroke-width="3" stroke-linecap="round" stroke-linejoin="round" points="25 61 99.5 0 157.5 45"></polyline><polyline vector-effect="non-scaling-stroke" class="slds-illustration__stroke-secondary" stroke-width="3" stroke-linecap="round" stroke-linejoin="round" points="140 30.9433962 157.5 16 212 60"></polyline><polyline vector-effect="non-scaling-stroke" class="slds-illustration__stroke-secondary" stroke-width="3" stroke-linecap="round" stroke-linejoin="round" transform="translate(104.488255, 25.339689) scale(-1, 1) translate(-104.488255, -25.339689) " points="130.394479 18.5 115.925727 18.5 101.621349 32.1793777 92.3230131 22.8810419 83.6661566 31.5378985 78.5820312 26.4537731"></polyline></g><g transform="translate(145.000000, 129.000000)" class="slds-illustration__stroke-secondary" stroke-linecap="round" stroke-width="3"><path vector-effect="non-scaling-stroke" d="M44,17.5 L63,17.5 C62.2789714,12.0723971 64.081543,7.53186978 68.4077148,3.87841797 C73.3754883,-0.195556641 79.2734375,0.717773438 82.440918,2.12353516 C85.6083984,3.52929687 87.9606934,5.46069336 89.5913086,9.10524041 C90.2822266,10.6397351 90.7517904,11.9379883 91,13"></path><path vector-effect="non-scaling-stroke" d="M83,20.5 C84.0558268,16.8461914 86.2227376,14.4572754 89.5007324,13.333252 C94.4177246,11.6472168 99.0800781,13.8925781 100.942383,16.1518555 C102.804687,18.4111328 103.39502,20.2260742 103.746582,22.1201172 C103.980957,23.3828125 104.06543,24.8427734 104,26.5 C108.141764,26.3313802 110.918945,27.1647135 112.331543,29 C114.040039,31.1936035 114.215332,33.817627 113.593018,35.75 C112.970703,37.682373 110.894531,40.5 107,40.5 L28,40.5"></path><path vector-effect="non-scaling-stroke" d="M18,27.5 L83.0004985,27.5"></path><path vector-effect="non-scaling-stroke" d="M0,27.5 L8,27.5"></path></g><g transform="translate(317.000000, 169.000000)" class="slds-illustration__stroke-secondary" stroke-linecap="round" stroke-width="3"><path vector-effect="non-scaling-stroke" d="M44,17.5 L63,17.5 C62.2789714,12.0723971 64.081543,7.53186978 68.4077148,3.87841797 C73.3754883,-0.195556641 79.2734375,0.717773438 82.440918,2.12353516 C85.6083984,3.52929687 87.9606934,5.46069336 89.5913086,9.10524041 C90.2822266,10.6397351 90.7517904,11.9379883 91,13"></path><path vector-effect="non-scaling-stroke" d="M83,20.5 C84.0558268,16.8461914 86.2227376,14.4572754 89.5007324,13.333252 C94.4177246,11.6472168 99.0800781,13.8925781 100.942383,16.1518555 C102.804687,18.4111328 103.39502,20.2260742 103.746582,22.1201172 C103.980957,23.3828125 104.06543,24.8427734 104,26.5 C108.141764,26.3313802 110.918945,27.1647135 112.331543,29 C114.040039,31.1936035 114.215332,33.817627 113.593018,35.75 C112.970703,37.682373 110.894531,40.5 107,40.5 L28,40.5"></path><path vector-effect="non-scaling-stroke" d="M18,27.5 L83.0004985,27.5"></path><path vector-effect="non-scaling-stroke" d="M0,27.5 L8,27.5"></path></g><g transform="translate(114.000000, 286.000000)" class="slds-illustration__stroke-secondary" stroke-linecap="round" stroke-linejoin="round" stroke-width="3"><path vector-effect="non-scaling-stroke" d="M66.5016961,5.72253485 C59.2581641,7.22907384 54.7616802,0 54.7616802,0 L54.7530053,0 C54.7530053,0 51.3235326,5.94519033 44.2795231,5.94519033 C37.5304598,5.94519033 33.8262823,0 33.8262823,0 L33.8147158,0 C33.8147158,0 30.3910264,5.94519033 23.3470169,5.94519033 C16.5950619,5.94519033 12.8937761,0 12.8937761,0 L12.8822096,0 C12.8822096,0 7.08738399,7.34763065 0,5.84109166"></path><path vector-effect="non-scaling-stroke" d="M129.501696,5.72253485 C122.258164,7.22907384 117.76168,0 117.76168,0 L117.753005,0 C117.753005,0 114.323533,5.94519033 107.279523,5.94519033 C100.53046,5.94519033 96.8262823,0 96.8262823,0 L96.8147158,0 C96.8147158,0 93.3910264,5.94519033 86.3470169,5.94519033 C79.5950619,5.94519033 75.8937761,0 75.8937761,0 L75.8822096,0 C75.8822096,0 70.087384,7.34763065 63,5.84109166"></path><path vector-effect="non-scaling-stroke" d="M259.501696,5.72253485 C252.258164,7.22907384 247.76168,0 247.76168,0 L247.753005,0 C247.753005,0 244.323533,5.94519033 237.279523,5.94519033 C230.53046,5.94519033 226.826282,0 226.826282,0 L226.814716,0 C226.814716,0 223.391026,5.94519033 216.347017,5.94519033 C209.595062,5.94519033 205.893776,0 205.893776,0 L205.88221,0 C205.88221,0 200.087384,7.34763065 193,5.84109166"></path><path vector-effect="non-scaling-stroke" d="M322.501696,5.72253485 C315.258164,7.22907384 310.76168,0 310.76168,0 L310.753005,0 C310.753005,0 307.323533,5.94519033 300.279523,5.94519033 C293.53046,5.94519033 289.826282,0 289.826282,0 L289.814716,0 C289.814716,0 286.391026,5.94519033 279.347017,5.94519033 C272.595062,5.94519033 268.893776,0 268.893776,0 L268.88221,0 C268.88221,0 263.087384,7.34763065 256,5.84109166"></path><path vector-effect="non-scaling-stroke" d="M149.501696,31.7225349 C142.258164,33.2290738 137.76168,26 137.76168,26 L137.753005,26 C137.753005,26 134.323533,31.9451903 127.279523,31.9451903 C120.53046,31.9451903 116.826282,26 116.826282,26 L116.814716,26 C116.814716,26 113.391026,31.9451903 106.347017,31.9451903 C99.5950619,31.9451903 95.8937761,26 95.8937761,26 L95.8822096,26 C95.8822096,26 90.087384,33.3476307 83,31.8410917"></path><path vector-effect="non-scaling-stroke" d="M405.501696,5.72253485 C398.258164,7.22907384 393.76168,0 393.76168,0 L393.753005,0 C393.753005,0 390.323533,5.94519033 383.279523,5.94519033 C376.53046,5.94519033 372.826282,0 372.826282,0 L372.814716,0 C372.814716,0 369.391026,5.94519033 362.347017,5.94519033 C355.595062,5.94519033 351.893776,0 351.893776,0 L351.88221,0 C351.88221,0 346.087384,7.34763065 339,5.84109166"></path><path vector-effect="non-scaling-stroke" d="M355.501696,31.7225349 C348.258164,33.2290738 343.76168,26 343.76168,26 L343.753005,26 C343.753005,26 340.323533,31.9451903 333.279523,31.9451903 C326.53046,31.9451903 322.826282,26 322.826282,26 L322.814716,26 C322.814716,26 319.391026,31.9451903 312.347017,31.9451903 C305.595062,31.9451903 301.893776,26 301.893776,26 L301.88221,26 C301.88221,26 296.087384,33.3476307 289,31.8410917"></path></g><g transform="translate(273.000000, 50.000000)"><g><circle vector-effect="non-scaling-stroke" class="slds-illustration__fill-secondary" cx="64" cy="64" r="23"></circle><circle vector-effect="non-scaling-stroke" class="slds-illustration__stroke-secondary" stroke-width="3" stroke-linecap="round" stroke-linejoin="round" stroke-dasharray="135,1,1,18" transform="translate(64.000000, 64.000000) rotate(230.000000) translate(-64.000000, -64.000000) " cx="64" cy="64" r="45"></circle><circle vector-effect="non-scaling-stroke" class="slds-illustration__stroke-secondary" stroke-width="3" stroke-linecap="round" stroke-linejoin="round" stroke-dasharray="107,10" transform="translate(64.000000, 64.000000) rotate(150.000000) translate(-64.000000, -64.000000) " cx="64" cy="64" r="33"></circle></g><g transform="translate(41.000000, 41.000000)" class="slds-illustration__stroke-primary" stroke-width="3"><circle vector-effect="non-scaling-stroke" cx="23" cy="23" r="23"></circle></g></g><g transform="translate(333.500000, 276.500000) scale(-1, 1) translate(-333.500000, -276.500000) translate(262.000000, 225.000000)"><path vector-effect="non-scaling-stroke" d="M91.3840606,54.0079658 C92.0385344,54.409807 92.137697,54.9649086 91.840209,55.4901057 C91.433642,56.2134198 89.745893,56.5760114 87.7388402,55.5256172 C87.7328904,56.2732287 87.7090913,57.1124226 87.65951,58.0917937 C87.6297612,58.6525024 87.237077,59.9832509 87.5980291,60.3234141 C88.4706608,61.1457868 88.7483163,61.8186372 88.549991,62.6802595 C88.440912,63.1568618 87.7527229,63.5082392 86.9138066,63.7213085 C86.221651,63.9362469 85.3728184,64.080162 84.5041532,63.951199 L84.50217,63.951199 C82.2888588,63.7811174 81.4122606,63.3605859 81.4558921,62.455976 C81.4598587,62.3307511 81.4836578,62.194312 81.5253061,62.0429207 C81.7037989,61.4130579 81.8604759,60.7289934 81.8584926,60.2374389 C81.8565094,60.0729643 81.8406434,59.9290491 81.7970118,59.8169074 C81.7573468,59.7047656 81.5709209,59.338436 81.2912821,59.145926 C81.2218682,59.0992003 81.1465046,59.0618197 81.0651912,59.0412604 C80.8212509,58.9814515 80.5316959,59.08051 80.2183418,59.5197318 C80.1370284,59.6318735 80.0497652,59.8019551 80.0219997,59.98512 C79.9942342,60.1682848 80.0219997,60.3645328 80.1786768,60.5290073 C80.2679232,60.6243278 80.337337,60.7327314 80.3908849,60.8486113 C80.4424495,60.9644911 80.4781481,61.0878469 80.4959974,61.21681 C80.5971433,61.9868498 80.039849,62.91015 78.8082484,63.1662069 C78.2668201,63.2764797 77.7630736,63.3512408 77.2950257,63.3867524 C75.890882,63.491418 74.8179417,63.2503133 74.1059537,62.6597002 C73.6279895,62.2672041 74.0246403,60.5944233 74.4312073,59.1534021 C71.5158242,58.0992699 70.9248145,56.0190408 70.9248145,56.0190408 C71.5812716,56.357335 72.3924224,57.1161607 72.5153841,56.6675938 C72.6383458,56.2227649 68.0590129,53.4603404 70.9704294,48.5485327 C70.8276351,51.488515 72.2972262,51.9221297 72.568932,51.9520342 C72.8386545,51.9838076 72.7692406,51.5782283 72.6105803,50.9390206 C73.5764249,51.2100297 74.3141953,52.0249262 74.8496738,52.6903005 C74.8734729,52.59498 74.8853724,52.4865764 74.9091714,52.3931249 C74.8794226,51.9632483 74.9726356,51.4193609 75.1570782,50.8380929 C75.492248,49.7970439 76.1368055,48.6531983 76.8963917,47.8177424 C76.6921166,47.724291 76.5056907,47.6289705 76.3609132,47.5392571 C73.483212,45.7262992 68.9455273,41.0032634 74.1079369,34.6373513 C74.3776594,34.3065332 74.6672145,34.0037505 74.9785854,33.7252652 C74.4907048,27.9929539 77.9812315,30.2563478 79.5341193,31.5272873 C82.0746674,31.0076974 84.8611389,31.3011349 87.1974119,32.2169589 C88.9585412,31.0469469 92.3003239,29.4638795 91.2809314,35.0896562 C91.2809314,35.0896562 93.3930967,42.4162491 88.1235914,46.3299955 C87.2013784,47.015929 86.2573496,47.5205668 85.3272036,47.8812894 C85.3906677,47.9803479 85.4223997,48.0495019 85.4382658,48.0943587 C85.4580983,48.116787 85.4759476,48.1392154 85.4977634,48.1635127 C87.0447013,48.4756406 87.2826918,49.6475216 87.2826918,49.6475216 C87.2727755,49.9129237 87.3164071,50.1839329 87.3818545,50.5502626 C87.5246487,50.7521176 87.667443,50.9558418 87.8142038,51.1763872 C87.9133665,51.3240405 88.0541775,51.4978601 88.198955,51.6735488 C88.9327589,52.0398785 89.8212566,52.1183777 89.8351394,52.1202467 C89.9640509,52.1090326 90.1187447,52.138937 90.2040246,52.1557583 C90.6125749,52.2323885 91.4356252,52.2174362 91.5804027,52.8977627 C91.6458501,53.2061524 91.4098429,53.3743651 91.2531659,53.5294944 C91.1183046,53.6603264 91.2214338,53.9089073 91.3840606,54.0079658 Z" class="slds-illustration__fill-secondary" fill-rule="nonzero"></path><path vector-effect="non-scaling-stroke" d="M49.2583945,0.883945244 C51.0283166,-0.0481136637 54.784118,0.275779135 55.9512968,0.586694179 C56.3137453,0.265829393 57.2828874,-0.439302406 58.0475183,0.387200174 C58.9304849,1.34305762 57.3085137,2.96066253 57.3085137,2.96066253 L57.2932706,2.93798853 C57.5729515,4.25208522 57.7222874,5.90155724 57.8424262,7.2786496 C58.0304259,9.43359932 59.1375413,12.4036646 59.5178518,13.3737582 C59.5296659,13.3568052 59.5415901,13.3398793 59.5536248,13.3229814 C59.5536248,13.3229814 67.2728611,18.8513267 68.9090905,21.7180858 C70.2539609,24.0740353 69.4704895,25.4281757 68.3086067,27.1898317 C67.3563603,28.6331161 68.674582,28.3359693 69.3105973,28.6302862 C70.2095464,29.0477066 70.8171364,33.1440874 67.2248935,33.9463838 C65.4095783,34.3518187 63.704963,33.4885644 62.3967156,32.2641638 C62.5593291,32.836483 62.730635,33.4245841 62.9110719,34.028802 C64.3283055,38.7741948 65.270828,46.6054259 66.9640565,52.7317813 C67.9534981,56.3254832 70,58.1676554 70,60.3430714 C70,63.2462921 66.7349807,64.6925705 62.0071887,64.1487165 C59.3148588,63.8394662 58.2922978,62.6264585 57.8424262,59.2553634 C57.3442555,55.5376947 51.9858151,54.5832843 49.2865854,54.4713143 C44.9369063,54.2900297 39.2707317,56.8640054 39.0444159,59.5819424 C38.8650193,61.7613573 39.1437741,64.0700709 34.8796534,64.8018745 C29.8137677,65.6723075 27,63.5088882 27,61.5400834 C27,60.3683979 28.4130937,56.6760558 30.3257381,52.2199187 C33.3989409,45.0458445 37.7582798,35.8856369 39.6088254,32.0426685 C41.0531831,29.0425803 42.0456751,25.5226718 42.8540351,22.3626216 C41.1680416,21.2182122 39.2308905,19.4762418 37.43118,16.6699263 C36.6679695,15.4720975 35.3749042,11.3981486 35.0756598,7.69419575 C34.3261761,4.11668036 34.9150562,0.274311712 38.6926736,0.00812753105 C40.9919139,-0.158237582 41.1744804,2.24939833 40.5554014,5.39569535 C40.5471653,5.41299732 40.5471653,5.42896837 40.5471653,5.44627034 C40.4428416,8.54864697 40.7448313,10.5011079 40.8546458,10.8311763 C41.5711852,12.0582854 43.0976062,13.0511524 44.3165467,13.7365767 C44.7116108,13.7970575 45.1010505,13.8179051 45.4651972,13.8194016 C46.4516441,11.2465409 47.041532,6.09164338 47.8607003,3.1894575 C47.4807038,2.74239384 46.5935324,1.53991098 47.3100491,0.781849962 C47.9965905,0.0551530523 48.8297413,0.53882559 49.2583945,0.883945244 Z M59.7257459,19.8249155 C59.8527863,20.884346 60.0357511,22.1009209 60.2940567,23.489459 C60.4845776,23.0435856 60.7223775,22.555454 61.0157494,22.0138176 C61.3341941,21.4190545 60.6023682,20.6174384 59.7257459,19.8249155 Z" class="slds-illustration__fill-secondary" fill-rule="nonzero"></path><path vector-effect="non-scaling-stroke" d="M73,81 L120,33" class="slds-illustration__stroke-primary" stroke-width="3" stroke-linecap="round" stroke-linejoin="round"></path><path vector-effect="non-scaling-stroke" d="M1.39868597,51.4476887 C-1.14682637,62.0702972 -0.217845575,69.8024191 4.18562834,74.6440546 C8.58910225,79.4856901 13.2738072,82.1043385 18.2397431,82.5 L122.146095,82.5 C131.281883,80.1994348 137.232631,75.7717615 139.998341,69.2169803 C142.764051,62.6621991 143.61853,55.5898723 142.561778,48 C135.328499,55.6170649 127.767628,59.7837316 119.879164,60.5 C108.187158,60.5 32.7379358,60.5 20.6405569,60.5 C12.5756377,60.5 6.1616807,57.4825629 1.39868597,51.4476887 Z" class="slds-illustration__fill-secondary"></path><path vector-effect="non-scaling-stroke" d="M141.988281,49.9780273 C139.134277,55.4827474 134.811605,59.6679688 129.020264,62.5336914 C127.810916,63.1321113 126.396061,64.942562 120.75,65 C93.7275391,65.2749023 21.6982422,65 17,65 C7.73779297,65 2.19116211,56.3481445 2.2253418,53.5527344 C2.24812826,51.6891276 4.08561198,53.1865826 7.73779297,58.0450993 L17.3032227,59.7929688 L45.6547852,60.6054688 L93.3740234,60.6054688 L120.75,59.7929688 L132.729492,56.1923828" fill="#FFFFFF"></path><path vector-effect="non-scaling-stroke" d="M1.39868597,51.4476887 C-1.14682637,62.0702972 -0.217845575,69.8024191 4.18562834,74.6440546 C8.58910225,79.4856901 13.2738072,82.1043385 18.2397431,82.5 L122.146095,82.5 C131.281883,80.1994348 137.232631,75.7717615 139.998341,69.2169803 C142.764051,62.6621991 143.61853,55.5898723 142.561778,48 C135.328499,55.6170649 127.767628,59.7837316 119.879164,60.5 C108.187158,60.5 32.7379358,60.5 20.6405569,60.5 C12.5756377,60.5 6.1616807,57.4825629 1.39868597,51.4476887 Z" class="slds-illustration__stroke-primary" stroke-width="3" stroke-linecap="round" stroke-linejoin="round"></path><path vector-effect="non-scaling-stroke" d="M101,38 L101,54.9407523 C101,80.6494326 107.210948,96.815408 116,103" class="slds-illustration__stroke-primary" stroke-width="3" stroke-linecap="round" stroke-linejoin="round" transform="translate(108.500000, 70.500000) scale(-1, 1) translate(-108.500000, -70.500000) "></path></g></g></g></g></svg>