<svg class="slds-illustration" viewBox="0 0 364 277" aria-hidden="true" xmlns="http://www.w3.org/2000/svg" xmlns:xlink="http://www.w3.org/1999/xlink">
<!-- Default styles. Override them in slds-illustrations.css if you like -->
<style>.slds-illustration{
    text-align:center
}
.slds-illustration.slds-illustration_small .slds-illustration__svg{
    width:100%;
    max-width:300px;
    max-height:200px;
    margin-bottom:1rem
}
.slds-illustration.slds-illustration_large .slds-illustration__svg{
    width:100%;
    max-width:600px;
    max-height:400px;
    margin-bottom:3rem
}
.slds-illustration.slds-illustration_large .slds-illustration__header{
    margin-bottom:1.5rem
}
.slds-illustration.slds-illustration_large p{
    margin-bottom:3rem
}
.slds-illustration .slds-illustration__stroke-primary{
    stroke:#8cd3f8
}
.slds-illustration .slds-illustration__stroke-secondary{
    stroke:#c2e8ff
}
.slds-illustration .slds-illustration__fill-primary{
    fill:#8cd3f8
}
.slds-illustration .slds-illustration__fill-secondary{
    fill:#c2e8ff
}
</style>
<link xmlns="http://www.w3.org/1999/xhtml" rel="stylesheet" href="slds-illustrations.css" type="text/css"/><g stroke="none" stroke-width="1" fill="none" fill-rule="evenodd"><g transform="translate(-119.000000, -71.000000)"><g><g transform="translate(121.000000, 136.000000)" class="slds-illustration__stroke-secondary" stroke-linecap="round" stroke-width="3"><path vector-effect="non-scaling-stroke" d="M44,17.5 L63,17.5 C62.2789714,12.0723971 64.081543,7.53186978 68.4077148,3.87841797 C73.3754883,-0.195556641 79.2734375,0.717773438 82.440918,2.12353516 C85.6083984,3.52929687 87.9606934,5.46069336 89.5913086,9.10524041 C90.2822266,10.6397351 90.7517904,11.9379883 91,13"></path><path vector-effect="non-scaling-stroke" d="M83,20.5 C84.0558268,16.8461914 86.2227376,14.4572754 89.5007324,13.333252 C94.4177246,11.6472168 99.0800781,13.8925781 100.942383,16.1518555 C102.804687,18.4111328 103.39502,20.2260742 103.746582,22.1201172 C103.980957,23.3828125 104.06543,24.8427734 104,26.5 C108.141764,26.3313802 110.918945,27.1647135 112.331543,29 C114.040039,31.1936035 114.215332,33.817627 113.593018,35.75 C112.970703,37.682373 110.894531,40.5 107,40.5 L28,40.5"></path><path vector-effect="non-scaling-stroke" d="M18,27.5 L83.0004985,27.5"></path><path vector-effect="non-scaling-stroke" d="M0,27.5 L8,27.5"></path></g><g transform="translate(367.000000, 171.000000)" class="slds-illustration__stroke-secondary" stroke-linecap="round" stroke-width="3"><path vector-effect="non-scaling-stroke" d="M44,17.5 L63,17.5 C62.2789714,12.0723971 64.081543,7.53186978 68.4077148,3.87841797 C73.3754883,-0.195556641 79.2734375,0.717773438 82.440918,2.12353516 C85.6083984,3.52929687 87.9606934,5.46069336 89.5913086,9.10524041 C90.2822266,10.6397351 90.7517904,11.9379883 91,13"></path><path vector-effect="non-scaling-stroke" d="M83,20.5 C84.0558268,16.8461914 86.2227376,14.4572754 89.5007324,13.333252 C94.4177246,11.6472168 99.0800781,13.8925781 100.942383,16.1518555 C102.804687,18.4111328 103.39502,20.2260742 103.746582,22.1201172 C103.980957,23.3828125 104.06543,24.8427734 104,26.5 C108.141764,26.3313802 110.918945,27.1647135 112.331543,29 C114.040039,31.1936035 114.215332,33.817627 113.593018,35.75 C112.970703,37.682373 110.894531,40.5 107,40.5 L28,40.5"></path><path vector-effect="non-scaling-stroke" d="M18,27.5 L83.0004985,27.5"></path><path vector-effect="non-scaling-stroke" d="M0,27.5 L8,27.5"></path></g><g transform="translate(243.000000, 173.000000)"><g transform="translate(117.000000, 12.000000)" fill="#FFFFFF"><polygon vector-effect="non-scaling-stroke" points="0.859375 3.85351562 13.5612425 10.0491829 24.0820312 0 59.40625 34.4609375 6 34.4609375"></polygon></g><g><path vector-effect="non-scaling-stroke" d="M59,130.334713 C67.2864583,133.083411 78.5364583,127.556067 92.75,113.752682 C106.963542,99.9492965 123.921875,83.363359 143.625,63.9948694 C152.611979,56.4924808 161.757812,55.0251407 171.0625,59.592849 C180.367188,64.1605574 179.727865,70.7027673 169.144531,79.2194787 L123.617187,130.334713 C96.0794271,140.203203 81.4153646,145.137447 79.625,145.137447 C77.8346354,145.137447 70.9596354,140.203203 59,130.334713 Z" class="slds-illustration__stroke-secondary" stroke-width="3" fill="#FFFFFF"></path><path vector-effect="non-scaling-stroke" d="M71,126.169959 C91.0924479,127.362451 108.245443,121.057005 122.458984,107.25362 C136.672526,93.4502341 153.630859,76.8642966 173.333984,57.4958071 C181.083984,50.704356 190.051432,49.238318 200.236328,53.097693 C210.421224,56.957068 209.960286,63.4979758 198.853516,72.7204164 L153.326172,123.835651 C125.788411,133.70414 111.124349,138.638385 109.333984,138.638385 C107.54362,138.638385 94.765625,134.482243 71,126.169959 Z" class="slds-illustration__stroke-secondary" stroke-width="3" fill="#FFFFFF"></path><polyline vector-effect="non-scaling-stroke" class="slds-illustration__stroke-secondary" stroke-width="3" stroke-linecap="round" stroke-linejoin="round" points="0 72 43.5 31 77.5 63"></polyline><polyline vector-effect="non-scaling-stroke" class="slds-illustration__stroke-secondary" stroke-width="3" stroke-linecap="round" stroke-linejoin="round" points="67 52 77.5 42 109 71"></polyline><polyline vector-effect="non-scaling-stroke" class="slds-illustration__stroke-secondary" stroke-width="3" stroke-linecap="round" stroke-linejoin="round" points="59 45 107.5 0 141.5 32"></polyline><polyline vector-effect="non-scaling-stroke" class="slds-illustration__stroke-secondary" stroke-width="3" stroke-linecap="round" stroke-linejoin="round" points="131 21 141.5 11 170 38.5"></polyline><path vector-effect="non-scaling-stroke" d="M71.9883244,13.5582278 L78,36.7461193 L66.640625,27.28125 L70.049868,13.5679259 C70.1831145,13.031956 70.7256216,12.705484 71.2615916,12.8387305 C71.617423,12.9271931 71.8963059,13.2032994 71.9883244,13.5582278 Z" class="slds-illustration__fill-secondary" transform="translate(72.320312, 24.777537) scale(-1, 1) translate(-72.320312, -24.777537) "></path></g></g><g transform="translate(346.500000, 232.500000)"><g class="slds-illustration__fill-secondary"><path vector-effect="non-scaling-stroke" d="M18.9209988,1.95433401 L33.259296,51.443436 C33.5666778,52.5043744 32.9557995,53.613617 31.8948612,53.9209988 C31.7139843,53.9734036 31.5266126,54 31.3382972,54 L2.6617028,54 C1.5571333,54 0.661702805,53.1045695 0.661702805,52 C0.661702805,51.8116846 0.688299176,51.6243129 0.74070397,51.443436 L15.0790012,1.95433401 C15.386383,0.893395645 16.4956256,0.282517358 17.556564,0.589899164 C18.2152102,0.780726338 18.7301717,1.29568777 18.9209988,1.95433401 Z"></path></g><g class="slds-illustration__stroke-primary" stroke-linecap="round" stroke-width="3"><polygon vector-effect="non-scaling-stroke" stroke-linejoin="round" points="17 0.323943662 34 54 -1.81721305e-12 54"></polygon><path vector-effect="non-scaling-stroke" d="M17,4.6953125 C17,43.0456294 17,62.6471919 17,63.5 C17,62.6471919 17,43.0456294 17,4.6953125 Z"></path><path vector-effect="non-scaling-stroke" d="M17,29.3239437 C22.3333333,35.7851611 25,39.1184944 25,39.3239437 C25,39.1184944 22.3333333,35.7851611 17,29.3239437 Z" stroke-linejoin="round" transform="translate(21.000000, 34.323944) scale(-1, 1) translate(-21.000000, -34.323944) "></path></g></g><g transform="translate(313.000000, 199.500000)"><g transform="translate(1.000000, 0.000000)" class="slds-illustration__fill-secondary"><path vector-effect="non-scaling-stroke" d="M25.6478873,0 L50.879042,84.4273253 C51.1953215,85.4856452 50.5937789,86.5999782 49.535459,86.9162577 C49.3496374,86.9717906 49.1567264,87 48.9627843,87 L2.33299037,87 C1.22842087,87 0.332990367,86.1045695 0.332990367,85 C0.332990367,84.8060578 0.361199757,84.6131469 0.416732643,84.4273253 L25.6478873,0 Z"></path></g><g class="slds-illustration__stroke-primary" stroke-linecap="round" stroke-width="3"><polygon vector-effect="non-scaling-stroke" stroke-linejoin="round" points="26.5 0 52.5 87 0.5 87"></polygon><path vector-effect="non-scaling-stroke" d="M26.5,3.58642578 C26.5,64.0261034 26.5,94.9972948 26.5,96.5 C26.5,94.9972948 26.5,64.0261034 26.5,3.58642578 Z"></path><path vector-effect="non-scaling-stroke" d="M15.6478873,42 C22.9812207,49.078692 26.6478873,52.7453587 26.6478873,53 C26.6478873,52.7453587 22.9812207,49.078692 15.6478873,42 Z" stroke-linejoin="round"></path><path vector-effect="non-scaling-stroke" d="M27.6478873,68 C36.9812207,57.078692 41.6478873,51.7453587 41.6478873,52 C41.6478873,51.7453587 36.9812207,57.078692 27.6478873,68 Z" stroke-linejoin="round"></path></g></g><g transform="translate(222.500000, 182.500000)"><g class="slds-illustration__fill-secondary"><path vector-effect="non-scaling-stroke" d="M18.9209988,1.95433401 L33.259296,51.443436 C33.5666778,52.5043744 32.9557995,53.613617 31.8948612,53.9209988 C31.7139843,53.9734036 31.5266126,54 31.3382972,54 L2.6617028,54 C1.5571333,54 0.661702805,53.1045695 0.661702805,52 C0.661702805,51.8116846 0.688299176,51.6243129 0.74070397,51.443436 L15.0790012,1.95433401 C15.386383,0.893395645 16.4956256,0.282517358 17.556564,0.589899164 C18.2152102,0.780726338 18.7301717,1.29568777 18.9209988,1.95433401 Z"></path></g><g class="slds-illustration__stroke-primary" stroke-width="3"><polygon vector-effect="non-scaling-stroke" stroke-linecap="round" stroke-linejoin="round" points="17 0.323943662 34 54 -1.81721305e-12 54"></polygon><path vector-effect="non-scaling-stroke" d="M17,4.32394366 C17,42.2551731 17,61.6471919 17,62.5 C17,61.6471919 17,42.2551731 17,4.32394366 Z"></path><path vector-effect="non-scaling-stroke" d="M17,32.3239437 C23.6666667,39.4518278 27,43.1184944 27,43.3239437 C27,43.1184944 23.6666667,39.4518278 17,32.3239437 Z" stroke-linecap="round" stroke-linejoin="round" transform="translate(22.000000, 37.823944) scale(-1, 1) translate(-22.000000, -37.823944) "></path></g></g><g transform="translate(366.000000, 115.000000)" class="slds-illustration__stroke-secondary" stroke-linecap="round" stroke-width="3"><g transform="translate(30.372737, 22.925890) rotate(-15.000000) translate(-30.372737, -22.925890) translate(3.372737, 6.425890)"><path vector-effect="non-scaling-stroke" d="M1.73977935,15.4943337 C1.73977935,15.4943337 11.283937,12.7309408 13.3525511,22.749914" transform="translate(7.546165, 18.947488) rotate(41.000000) translate(-7.546165, -18.947488) "></path><path vector-effect="non-scaling-stroke" d="M11.1319089,22.2387854 C11.1319089,22.2387854 20.6760665,19.4753925 22.7446806,29.4943658" transform="translate(16.938295, 25.691939) scale(-1, 1) rotate(-41.000000) translate(-16.938295, -25.691939) "></path><path vector-effect="non-scaling-stroke" d="M30.101629,0.425354782 C30.101629,0.425354782 39.6457866,-2.33803808 41.7144007,7.68093514"></path><path vector-effect="non-scaling-stroke" d="M42.101629,0.425354782 C42.101629,0.425354782 51.6457866,-2.33803808 53.7144007,7.68093514" transform="translate(47.908015, 3.878509) scale(-1, 1) translate(-47.908015, -3.878509) "></path></g></g><g transform="translate(223.000000, 54.000000)"><g><circle vector-effect="non-scaling-stroke" class="slds-illustration__fill-secondary" cx="64" cy="64" r="23"></circle><circle vector-effect="non-scaling-stroke" class="slds-illustration__stroke-secondary" stroke-width="3" stroke-linecap="round" stroke-linejoin="round" stroke-dasharray="135,1,1,18" transform="translate(64.000000, 64.000000) rotate(230.000000) translate(-64.000000, -64.000000) " cx="64" cy="64" r="45"></circle><circle vector-effect="non-scaling-stroke" class="slds-illustration__stroke-secondary" stroke-width="3" stroke-linecap="round" stroke-linejoin="round" stroke-dasharray="107,10" transform="translate(64.000000, 64.000000) rotate(150.000000) translate(-64.000000, -64.000000) " cx="64" cy="64" r="33"></circle></g><g transform="translate(41.000000, 41.000000)" class="slds-illustration__stroke-primary" stroke-width="3"><circle vector-effect="non-scaling-stroke" cx="23" cy="23" r="23"></circle></g></g><g transform="translate(163.000000, 244.000000)" fill="#FFFFFF" class="slds-illustration__stroke-primary" stroke-linecap="round" stroke-linejoin="round" stroke-width="3"><g><path vector-effect="non-scaling-stroke" d="M0,61 L48,11 C54.6666667,4 63.6666667,0.5 75,0.5 C86.3333333,0.5 113.666667,0.5 157,0.5 C167,1.5 172,6.66666667 172,16 C171,25 162,30.5 157,30.5 C153.666667,30.5 139,30.5 113,30.5 C104.588216,30.8886719 99.8562826,34.3914388 98.8041992,41.0083008 C98.3886719,48.4902344 104.350586,53.5 110,53.5 L198,53.5 C207.225586,53.5 215.892253,49.6666667 224,42 C236.161621,30.5 254.517577,12.615436 263,8 C271.482423,3.384564 284,-5.90638649e-14 293,5 C302,10 303,13 289,26 C279.666667,34.6666667 261.666667,52 235,78 C226.333333,87 215.666667,91.5 203,91.5 C190.333333,91.5 155,91.5 97,91.5 C88.3333333,91.1666667 81,94.6666667 75,102"></path></g></g></g></g></g></svg>