<svg class="slds-illustration" viewBox="0 0 396 237" aria-hidden="true" xmlns="http://www.w3.org/2000/svg" xmlns:xlink="http://www.w3.org/1999/xlink">
<!-- Default styles. Override them in slds-illustrations.css if you like -->
<style>.slds-illustration{
    text-align:center
}
.slds-illustration.slds-illustration_small .slds-illustration__svg{
    width:100%;
    max-width:300px;
    max-height:200px;
    margin-bottom:1rem
}
.slds-illustration.slds-illustration_large .slds-illustration__svg{
    width:100%;
    max-width:600px;
    max-height:400px;
    margin-bottom:3rem
}
.slds-illustration.slds-illustration_large .slds-illustration__header{
    margin-bottom:1.5rem
}
.slds-illustration.slds-illustration_large p{
    margin-bottom:3rem
}
.slds-illustration .slds-illustration__stroke-primary{
    stroke:#8cd3f8
}
.slds-illustration .slds-illustration__stroke-secondary{
    stroke:#c2e8ff
}
.slds-illustration .slds-illustration__fill-primary{
    fill:#8cd3f8
}
.slds-illustration .slds-illustration__fill-secondary{
    fill:#c2e8ff
}
</style>
<link xmlns="http://www.w3.org/1999/xhtml" rel="stylesheet" href="slds-illustrations.css" type="text/css"/><g stroke="none" stroke-width="1" fill="none" fill-rule="evenodd"><g transform="translate(-102.000000, -79.000000)"><g><g transform="translate(226.000000, 271.000000)" class="slds-illustration__fill-secondary"><g transform="translate(0.293436, 0.054545)"><path vector-effect="non-scaling-stroke" d="M247.428708,41.9454545 L82.0995433,41.9454545 C82.0336615,41.2089487 82,40.4630069 82,39.7090909 C82,26.2132599 92.7866531,15.2727273 106.092664,15.2727273 C109.749202,15.2727273 113.215485,16.0989227 116.31995,17.5772977 C121.571203,7.14424616 132.271428,0 144.617597,0 C158.063626,0 169.557389,8.47383452 174.186248,20.441159 C175.900275,19.5768947 177.832406,19.0909091 179.876448,19.0909091 C182.211783,19.0909091 184.401037,19.7252784 186.285841,20.8333889 C190.997403,14.2263569 198.663488,9.92727273 207.320028,9.92727273 C220.043441,9.92727273 230.627152,19.2146805 232.834755,31.4671412 C233.487388,31.3631046 234.156394,31.3090909 234.837838,31.3090909 C241.117096,31.3090909 246.340238,35.8953699 247.428708,41.9454545 Z"></path><path vector-effect="non-scaling-stroke" d="M130.668705,41.9099036 C127.932299,35.4597639 121.65134,30.9483651 114.340456,30.9483651 C112.326227,30.9483651 110.390176,31.2908087 108.584891,31.9218937 C105.158045,26.6158811 99.2739697,23.115309 92.5903529,23.115309 C86.1978312,23.115309 80.5367222,26.3175969 77.0574148,31.2390213 C75.6655593,30.4136156 74.0488794,29.9410886 72.3243243,29.9410886 C70.814878,29.9410886 69.388074,30.303088 68.1223309,30.9468584 C64.7040965,22.0326767 56.2163941,15.7207144 46.2870194,15.7207144 C37.1698473,15.7207144 29.2681419,21.0422982 25.3902942,28.8136368 C23.0977671,27.7124276 20.5380502,27.0970138 17.8378378,27.0970138 C9.14391415,27.0970138 1.90644813,33.4767543 0.354185118,41.9099036 L130.668705,41.9099036 Z"></path></g></g><g transform="translate(104.000000, 228.000000)"><g transform="translate(35.000000, 0.000000)"><circle vector-effect="non-scaling-stroke" class="slds-illustration__fill-secondary" cx="36" cy="77" r="7"></circle><circle vector-effect="non-scaling-stroke" class="slds-illustration__fill-secondary" cx="53" cy="77" r="7"></circle><circle vector-effect="non-scaling-stroke" class="slds-illustration__fill-secondary" cx="70" cy="77" r="7"></circle><path vector-effect="non-scaling-stroke" d="M47.5993204,62 C47.5993204,62 45.3234189,54.9545453 55.0548818,54.9545455 C64.7863447,54.9545456 60.64481,54.9545466 68.525098,54.9545455 C76.4053859,54.9545443 75.8197996,45.1551939 68.7795875,45.0909091 L27.7910035,45.0909091 C27.7910035,45.0909091 10.4867295,45.1551939 6.38851862,45.0909091 C-2.1315161,45.1551939 -2.12749607,32.4090909 6.38851862,32.4090909 L91.0476222,32.4090909 C104.446387,32.4090909 104.102146,16.8434669 91.306569,16.9090909 C78.5109918,16.8434669 49.4432546,16.9090909 36.9059317,16.9090909 C33.2180637,16.9090909 26.6356862,16.5042063 26.6356862,8.45454545 C26.6356862,3.50059894 26.4270933,2.2662402 26.4270933,0" class="slds-illustration__stroke-secondary" stroke-width="3" stroke-linecap="round" transform="translate(50.500000, 31.000000) scale(-1, 1) translate(-50.500000, -31.000000) "></path></g><g transform="translate(0.000000, 70.000000)" class="slds-illustration__stroke-primary" stroke-width="3"><path vector-effect="non-scaling-stroke" d="M22,16.5 L392,16.5" stroke-linecap="round"></path><path vector-effect="non-scaling-stroke" d="M0,16.5 L12,16.5" stroke-linecap="round"></path><circle vector-effect="non-scaling-stroke" cx="71" cy="7" r="7"></circle><circle vector-effect="non-scaling-stroke" cx="88" cy="7" r="7"></circle><circle vector-effect="non-scaling-stroke" cx="105" cy="7" r="7"></circle></g></g><g transform="translate(259.000000, 246.000000)"><g transform="translate(1.000000, 0.000000)" class="slds-illustration__fill-secondary"><polygon vector-effect="non-scaling-stroke" points="35.8310547 0.381835938 101.723633 0.381835938 137.061523 68.3183594 0.555664062 68.3183594"></polygon></g><g transform="translate(38.000000, 1.000000)" fill="#FFFFFF"><rect x="0" y="0" width="66" height="4"></rect></g><g class="slds-illustration__stroke-primary" stroke-width="3"><path vector-effect="non-scaling-stroke" d="M36.5,0.5 L102.390018,0.5 C102.764581,0.5 103.107738,0.709319657 103.279154,1.04235657 L137.249742,67.0423566 C137.502492,67.5334127 137.309306,68.1363863 136.81825,68.3891358 C136.676702,68.4619916 136.519804,68.5 136.360607,68.5 L73.2120254,68.5 C72.4670674,68.5 71.7838465,68.0859594 71.4390883,67.4255775 L36.5,0.5 Z" stroke-linecap="round" stroke-linejoin="round"></path><path vector-effect="non-scaling-stroke" d="M36.5,3 L36.5,68"></path><path vector-effect="non-scaling-stroke" d="M36.5,0.5 L2.5,68" stroke-linecap="round" stroke-linejoin="round"></path><path vector-effect="non-scaling-stroke" d="M73.5,55 L73.5,67" stroke-linecap="round" stroke-linejoin="round"></path><path vector-effect="non-scaling-stroke" d="M1.5,55 L1.5,67" stroke-linecap="round" stroke-linejoin="round"></path></g></g><g transform="translate(420.500000, 252.500000)"><g class="slds-illustration__fill-secondary"><path vector-effect="non-scaling-stroke" d="M18.9209988,1.95433401 L33.259296,51.443436 C33.5666778,52.5043744 32.9557995,53.613617 31.8948612,53.9209988 C31.7139843,53.9734036 31.5266126,54 31.3382972,54 L2.6617028,54 C1.5571333,54 0.661702805,53.1045695 0.661702805,52 C0.661702805,51.8116846 0.688299176,51.6243129 0.74070397,51.443436 L15.0790012,1.95433401 C15.386383,0.893395645 16.4956256,0.282517358 17.556564,0.589899164 C18.2152102,0.780726338 18.7301717,1.29568777 18.9209988,1.95433401 Z"></path></g><g class="slds-illustration__stroke-primary" stroke-linecap="round" stroke-width="3"><polygon vector-effect="non-scaling-stroke" stroke-linejoin="round" points="17 0.323943662 34 54 -1.81721305e-12 54"></polygon><path vector-effect="non-scaling-stroke" d="M17,3.6953125 C17,42.0456294 17,61.6471919 17,62.5 C17,61.6471919 17,42.0456294 17,3.6953125 Z"></path><path vector-effect="non-scaling-stroke" d="M17,29.3239437 C22.3333333,35.7851611 25,39.1184944 25,39.3239437 C25,39.1184944 22.3333333,35.7851611 17,29.3239437 Z" stroke-linejoin="round" transform="translate(21.000000, 34.323944) scale(-1, 1) translate(-21.000000, -34.323944) "></path></g></g><g transform="translate(377.000000, 219.500000)"><g transform="translate(1.000000, 0.000000)" class="slds-illustration__fill-secondary"><path vector-effect="non-scaling-stroke" d="M25.6478873,0 L50.879042,84.4273253 C51.1953215,85.4856452 50.5937789,86.5999782 49.535459,86.9162577 C49.3496374,86.9717906 49.1567264,87 48.9627843,87 L2.33299037,87 C1.22842087,87 0.332990367,86.1045695 0.332990367,85 C0.332990367,84.8060578 0.361199757,84.6131469 0.416732643,84.4273253 L25.6478873,0 Z"></path></g><g class="slds-illustration__stroke-primary" stroke-linecap="round" stroke-width="3"><polygon vector-effect="non-scaling-stroke" stroke-linejoin="round" points="26.5 0 52.5 87 0.5 87"></polygon><path vector-effect="non-scaling-stroke" d="M26.5,2.58642578 C26.5,63.0261034 26.5,93.9972948 26.5,95.5 C26.5,93.9972948 26.5,63.0261034 26.5,2.58642578 Z"></path><path vector-effect="non-scaling-stroke" d="M15.6478873,42 C22.9812207,49.078692 26.6478873,52.7453587 26.6478873,53 C26.6478873,52.7453587 22.9812207,49.078692 15.6478873,42 Z" stroke-linejoin="round"></path><path vector-effect="non-scaling-stroke" d="M27.6478873,68 C36.9812207,57.078692 41.6478873,51.7453587 41.6478873,52 C41.6478873,51.7453587 36.9812207,57.078692 27.6478873,68 Z" stroke-linejoin="round"></path></g></g><g transform="translate(167.000000, 81.000000)" class="slds-illustration__stroke-secondary" stroke-linecap="round" stroke-width="3"><path vector-effect="non-scaling-stroke" d="M226.3,102.0625 L224.56612,108.874639"></path><path vector-effect="non-scaling-stroke" d="M184.3,102.0625 L183.259672,106.149783"></path><path vector-effect="non-scaling-stroke" d="M205.3,102.0625 L201.83224,115.686778"></path><path vector-effect="non-scaling-stroke" d="M163.3,102.0625 L159.83224,115.686778"></path><path vector-effect="non-scaling-stroke" d="M180.8,116.125 L177.33224,129.749278"></path><path vector-effect="non-scaling-stroke" d="M174.5,140.734375 L172.072568,150.271369"></path><path vector-effect="non-scaling-stroke" d="M17,88 L15.9596721,92.0872833"></path><path vector-effect="non-scaling-stroke" d="M13.5,102.0625 L10.0322405,115.686778"></path><path vector-effect="non-scaling-stroke" d="M5.8,129.484375 L3.37256834,139.021369"></path><path vector-effect="non-scaling-stroke" d="M199,126.671875 L192.758033,151.195575"></path><path vector-effect="non-scaling-stroke" d="M157,126.671875 L150.758033,151.195575"></path><path vector-effect="non-scaling-stroke" d="M142.3,102.0625 L138.83224,115.686778"></path><path vector-effect="non-scaling-stroke" d="M136,126.671875 L129.758033,151.195575"></path><path vector-effect="non-scaling-stroke" d="M38.7,89.40625 L35.2322405,103.030528"></path><path vector-effect="non-scaling-stroke" d="M32.4,114.015625 L26.1580329,138.539325"></path><path vector-effect="non-scaling-stroke" d="M81.4,90.8125 L77.9322405,104.436778"></path><path vector-effect="non-scaling-stroke" d="M75.1,115.421875 L68.8580329,139.945575"></path><path vector-effect="non-scaling-stroke" d="M101.7,99.953125 L97.5386886,116.302258"></path><path vector-effect="non-scaling-stroke" d="M94,126.671875 L89.8386886,143.021008"></path><path vector-effect="non-scaling-stroke" d="M87,154.796875 L84.0524044,166.377511"></path><path vector-effect="non-scaling-stroke" d="M121.138798,101.359375 L106.054044,160.624983"></path><path vector-effect="non-scaling-stroke" d="M103.43388,170.96875 L101.7,177.780889"></path><path vector-effect="non-scaling-stroke" d="M220.7,125.265625 L217.579016,137.527475"></path><path vector-effect="non-scaling-stroke" d="M60.4,90.109375 L58.6661202,96.9215138"></path><path vector-effect="non-scaling-stroke" d="M54.8,113.3125 L51.6790164,125.57435"></path><path vector-effect="non-scaling-stroke" d="M214.4,148.46875 L209.545137,167.542739"></path><path vector-effect="non-scaling-stroke" d="M204.938291,39.1462149 C204.342287,17.4337165 184.913843,0 161.034014,0 C142.403463,0 126.482381,10.6115523 120.100036,25.5876483 C115.538401,22.1480724 109.723853,20.0869565 103.391156,20.0869565 C90.8143443,20.0869565 80.2812321,28.2165019 77.547482,39.1281323 C75.3538627,37.4973286 72.5685916,36.5217391 69.537415,36.5217391 C65.5969778,36.5217391 62.0721016,38.170408 59.722337,40.7639307 C56.7670463,33.9695432 49.9838717,29.2173913 42.0884354,29.2173913 C32.4122981,29.2173913 24.4067079,36.3548251 23.0702494,45.6416111 C20.8424354,44.4846498 18.2803152,43.826087 15.5544218,43.826087 C6.96395183,43.826087 0,50.3666228 0,58.4347826 C0,66.2144681 6.47486708,73.0551929 14.6394558,73.5 L99.7999878,73.5 C101.975319,80.1067045 107.895618,84.5 121.690476,84.5 C123.298766,84.5 124.822237,84.5740007 126.265306,84.5 L245.210884,84.5 C258.430681,84.055267 269,73.4973746 269,61.173913 C269,48.5674133 257.939606,38.3478261 244.295918,38.3478261 C236.887527,38.3478261 230.24079,41.3609546 225.712845,46.1332433 C222.437463,41.4418761 216.820965,38.3478261 210.442177,38.3478261 C208.524337,38.3478261 206.675405,38.6275152 204.938291,39.1462149 Z" fill="#FFFFFF" stroke-linejoin="round"></path><path vector-effect="non-scaling-stroke" d="M99.7311854,73.8280126 C98.0122872,67.5511913 98.667688,62.3733162 101.697388,58.2943874 C102.919856,56.6485604 106.579333,54.0219021 109.897803,54.1131869" stroke-linejoin="round"></path></g></g></g></g></svg>