<svg class="slds-illustration" viewBox="0 0 470 267" aria-hidden="true" xmlns="http://www.w3.org/2000/svg" xmlns:xlink="http://www.w3.org/1999/xlink">
<!-- Default styles. Override them in slds-illustrations.css if you like -->
<style>.slds-illustration{
    text-align:center
}
.slds-illustration.slds-illustration_small .slds-illustration__svg{
    width:100%;
    max-width:300px;
    max-height:200px;
    margin-bottom:1rem
}
.slds-illustration.slds-illustration_large .slds-illustration__svg{
    width:100%;
    max-width:600px;
    max-height:400px;
    margin-bottom:3rem
}
.slds-illustration.slds-illustration_large .slds-illustration__header{
    margin-bottom:1.5rem
}
.slds-illustration.slds-illustration_large p{
    margin-bottom:3rem
}
.slds-illustration .slds-illustration__stroke-primary{
    stroke:#8cd3f8
}
.slds-illustration .slds-illustration__stroke-secondary{
    stroke:#c2e8ff
}
.slds-illustration .slds-illustration__fill-primary{
    fill:#8cd3f8
}
.slds-illustration .slds-illustration__fill-secondary{
    fill:#c2e8ff
}
</style>
<link xmlns="http://www.w3.org/1999/xhtml" rel="stylesheet" href="slds-illustrations.css" type="text/css"/><g stroke="none" stroke-width="1" fill="none" fill-rule="evenodd"><g transform="translate(-65.000000, -66.000000)"><g><g transform="translate(67.000000, 268.500000)"><path vector-effect="non-scaling-stroke" d="M157.962142,26.4644491 C155.225735,20.0143094 148.944776,15.5029106 141.633892,15.5029106 C139.619663,15.5029106 137.683612,15.8453541 135.878328,16.4764392 C132.451481,11.1704266 126.567406,7.66985447 119.883789,7.66985447 C113.491267,7.66985447 107.830159,10.8721423 104.350851,15.7935668 C102.958996,14.968161 101.342316,14.4956341 99.6177606,14.4956341 C98.1083143,14.4956341 96.6815102,14.8576334 95.4157672,15.5014039 C91.9975328,6.58722215 83.5098304,0.275259875 73.5804557,0.275259875 C64.4632836,0.275259875 56.5615782,5.59684366 52.6837305,13.3681823 C50.3912034,12.266973 47.8314865,11.6515593 45.1312741,11.6515593 C36.4373504,11.6515593 29.1998844,18.0312998 27.6476214,26.4644491 L157.962142,26.4644491 Z" class="slds-illustration__fill-secondary"></path><path vector-effect="non-scaling-stroke" d="M16,28 L466,28" class="slds-illustration__stroke-secondary" stroke-width="3" stroke-linecap="round"></path><path vector-effect="non-scaling-stroke" d="M0,28 L6,28" class="slds-illustration__stroke-secondary" stroke-width="3" stroke-linecap="round"></path><path vector-effect="non-scaling-stroke" d="M409,42 L421,42" class="slds-illustration__stroke-secondary" stroke-width="3" stroke-linecap="round" stroke-linejoin="round"></path><path vector-effect="non-scaling-stroke" d="M198,42 L399,42" class="slds-illustration__stroke-secondary" stroke-width="3" stroke-linecap="round" stroke-linejoin="round"></path></g><g transform="translate(112.000000, 235.000000)"><polyline vector-effect="non-scaling-stroke" class="slds-illustration__stroke-secondary" stroke-width="3" stroke-linecap="round" stroke-linejoin="round" points="0 61 74.5 0 132 45.1232877"></polyline><polyline vector-effect="non-scaling-stroke" class="slds-illustration__stroke-secondary" stroke-width="3" stroke-linecap="round" stroke-linejoin="round" points="115 30.9433962 132.5 16 188 61"></polyline><path vector-effect="non-scaling-stroke" d="M166.962964,27.4391572 L173,49 L161.770218,39.1063642 L165.037036,27.4391572 C165.185948,26.9073269 165.7378,26.5969106 166.26963,26.7458231 C166.605963,26.8399963 166.868791,27.1028246 166.962964,27.4391572 Z" class="slds-illustration__fill-secondary"></path><path vector-effect="non-scaling-stroke" d="M34.9662349,24.3583594 L36.7126351,30.9073598 L30,35.7349783 L33.0337651,24.3583594 C33.1760682,23.8247225 33.7240258,23.5074839 34.2576627,23.6497871 C34.6036917,23.7420615 34.8739605,24.0123303 34.9662349,24.3583594 Z" class="slds-illustration__fill-secondary"></path></g><g transform="translate(410.500000, 232.000000)"><g fill="#FFFFFF"><path vector-effect="non-scaling-stroke" d="M18.9209988,1.95433401 L33.259296,51.443436 C33.5666778,52.5043744 32.9557995,53.613617 31.8948612,53.9209988 C31.7139843,53.9734036 31.5266126,54 31.3382972,54 L2.6617028,54 C1.5571333,54 0.661702805,53.1045695 0.661702805,52 C0.661702805,51.8116846 0.688299176,51.6243129 0.74070397,51.443436 L15.0790012,1.95433401 C15.386383,0.893395645 16.4956256,0.282517358 17.556564,0.589899164 C18.2152102,0.780726338 18.7301717,1.29568777 18.9209988,1.95433401 Z"></path></g><g class="slds-illustration__stroke-secondary" stroke-linecap="round" stroke-width="3"><polygon vector-effect="non-scaling-stroke" stroke-linejoin="round" points="17 0.323943662 34 54 -1.81721305e-12 54"></polygon><path vector-effect="non-scaling-stroke" d="M17,4.6953125 C17,43.0456294 17,62.6471919 17,63.5 C17,62.6471919 17,43.0456294 17,4.6953125 Z"></path><path vector-effect="non-scaling-stroke" d="M17,29.3239437 C22.3333333,35.7851611 25,39.1184944 25,39.3239437 C25,39.1184944 22.3333333,35.7851611 17,29.3239437 Z" stroke-linejoin="round" transform="translate(21.000000, 34.323944) scale(-1, 1) translate(-21.000000, -34.323944) "></path></g></g><g transform="translate(365.000000, 199.000000)"><g transform="translate(1.000000, 0.000000)" fill="#FFFFFF"><path vector-effect="non-scaling-stroke" d="M25.6478873,0 L50.879042,84.4273253 C51.1953215,85.4856452 50.5937789,86.5999782 49.535459,86.9162577 C49.3496374,86.9717906 49.1567264,87 48.9627843,87 L2.33299037,87 C1.22842087,87 0.332990367,86.1045695 0.332990367,85 C0.332990367,84.8060578 0.361199757,84.6131469 0.416732643,84.4273253 L25.6478873,0 Z"></path></g><g class="slds-illustration__stroke-secondary" stroke-linecap="round" stroke-width="3"><polygon vector-effect="non-scaling-stroke" stroke-linejoin="round" points="26.5 0 52.5 87 0.5 87"></polygon><path vector-effect="non-scaling-stroke" d="M26.5,2.58642578 C26.5,64.3594367 26.5,95.9972948 26.5,97.5 C26.5,95.9972948 26.5,64.3594367 26.5,2.58642578 Z"></path><path vector-effect="non-scaling-stroke" d="M15.6478873,42 C22.314554,49.078692 25.6478873,52.7453587 25.6478873,53 C25.6478873,52.7453587 22.314554,49.078692 15.6478873,42 Z" stroke-linejoin="round"></path><path vector-effect="non-scaling-stroke" d="M27.6478873,68 C36.9812207,57.078692 41.6478873,51.7453587 41.6478873,52 C41.6478873,51.7453587 36.9812207,57.078692 27.6478873,68 Z" stroke-linejoin="round"></path></g></g><g transform="translate(197.000000, 68.000000)"><g transform="translate(152.000000, 0.000000)" fill="#FFFFFF"><polygon vector-effect="non-scaling-stroke" points="18 0 0 62 76 100 82 18"></polygon></g><g transform="translate(152.000000, 4.000000)" class="slds-illustration__fill-secondary"><path vector-effect="non-scaling-stroke" d="M20,0 L2.96289063,52.7529297 C1.5699673,54.8772379 0.7895311,56.2286377 0.621582031,56.8071289 C0.453632962,57.3856201 1.50213557,58.4144287 3.76708984,59.8935547 L75.6259766,95.125 L78.5678711,16.8793945 L76.9623727,16.0206673 L20,0 Z"></path></g><g class="slds-illustration__stroke-primary" stroke-width="3"><polygon vector-effect="non-scaling-stroke" stroke-linecap="round" stroke-linejoin="round" points="170 0 152 62 228 100 234 18"></polygon><path vector-effect="non-scaling-stroke" d="M170,0 L226,97" stroke-linecap="round" stroke-linejoin="round"></path><path vector-effect="non-scaling-stroke" d="M152,62 C166.337949,46.7755108 178.004616,36.7755108 187,32 C195.995384,27.2244892 211.662051,22.8911559 234,19" stroke-linecap="round" stroke-linejoin="round"></path><path vector-effect="non-scaling-stroke" d="M189.433594,66.1289062 C175.730469,104.138021 151.317057,130.615234 116.193359,145.560547" stroke-linecap="round" stroke-linejoin="round"></path><path vector-effect="non-scaling-stroke" d="M306.017133,73 C310.73483,89.7877604 306.109303,99.4869792 292.140553,102.097656 C280.311451,104.0625 260.483326,93.4892578 252.429615,110.188477 C247.148365,123.032227 259.850514,131.351562 275.406178,141.125 C294.355397,154.615234 288.518483,167.107422 273.957936,173.785156" stroke-linecap="round" stroke-linejoin="round" transform="translate(279.508567, 123.392578) scale(-1, 1) rotate(37.000000) translate(-279.508567, -123.392578) "></path><circle vector-effect="non-scaling-stroke" cx="107" cy="148" r="9"></circle><path vector-effect="non-scaling-stroke" d="M128.634766,173.670898 L134.988281,168.450439" stroke-linecap="round" stroke-linejoin="round"></path><polyline vector-effect="non-scaling-stroke" stroke-linecap="round" stroke-linejoin="round" transform="translate(128.035179, 168.889450) rotate(5.000000) translate(-128.035179, -168.889450) " points="111.829147 156.829147 135.949753 180.949753 144.241211 172.658295"></polyline><path vector-effect="non-scaling-stroke" d="M114,146 C74.6666667,156.666667 44,170.666667 22,188 C1.496403e-11,205.333333 -5.33333333,230.333333 6,263" stroke-linecap="round"></path><polyline vector-effect="non-scaling-stroke" stroke-linecap="round" stroke-linejoin="round" points="188 31 189 67 216 81"></polyline></g></g><g transform="translate(196.000000, 89.000000)"><g transform="translate(73.000000, 96.000000)"><path vector-effect="non-scaling-stroke" d="M12,6 C12,9.312 9.3135,12 6,12 C2.688,12 0,9.312 0,6 C0,2.688 2.688,0 6,0 C9.3135,0 12,2.688 12,6 Z" class="slds-illustration__stroke-secondary" stroke-width="3"></path><path vector-effect="non-scaling-stroke" d="M20,11 C17.7884028,11 16,12.792472 16,15 C16,17.207528 17.7884028,19 20,19 C22.2095626,19 24,17.207528 24,15 C24,12.792472 22.2095626,11 20,11" class="slds-illustration__fill-secondary"></path></g><g><path vector-effect="non-scaling-stroke" d="M81.4291702,0 C66.4942844,0 53.489268,8.38608553 46.635968,20.7821025 C41.8812468,17.3441367 36.0854659,15.3011085 29.8185334,15.3011085 C13.7232569,15.3011085 0.683264235,28.6209116 0.683264235,45.0515493 C0.683264235,61.4842444 13.7232569,74.8040476 29.8185334,74.8040476 C30.1662391,74.8040476 30.50983,74.7608415 30.8616505,74.7484969 C36.1224996,82.4823771 44.8706928,87.556 54.7916213,87.556 C61.8300901,87.556 68.2883635,85.0047865 73.3228952,80.760308 C75.9420039,81.3116993 78.6536969,81.6059118 81.4291702,81.6059118 C103.501282,81.6059118 120.049193,63.6815798 120.049193,41.1486042 C120.049193,18.6135711 103.501282,0 81.4291702,0 Z" class="slds-illustration__stroke-primary" stroke-width="3" stroke-linecap="round" stroke-linejoin="round" transform="translate(60.366228, 43.778000) scale(-1, 1) translate(-60.366228, -43.778000) "></path><path vector-effect="non-scaling-stroke" d="M46.0898281,100.989963 L55.0540541,70 L42.9368382,70 C42.3845534,70 41.9368382,69.5522847 41.9368382,69 C41.9368382,68.9232556 41.9456726,68.8467663 41.9631671,68.7720425 L50.8597887,30.7720425 C50.9656674,30.3198046 51.368993,30 51.8334598,30 L77.263115,30 C77.8153998,30 78.263115,30.4477153 78.263115,31 C78.263115,31.1979556 78.2043627,31.3914578 78.0943003,31.5559956 L61.7432432,56 L77.2426574,56 C77.7949421,56 78.2426574,56.4477153 78.2426574,57 C78.2426574,57.201025 78.1820707,57.3973835 78.0688014,57.5634591 L47.8765906,101.831293 C47.5654008,102.287559 46.9432543,102.405167 46.4869876,102.093977 C46.129942,101.85046 45.9697371,101.405126 46.0898281,100.989963 Z" class="slds-illustration__fill-primary"></path></g></g></g></g></g></svg>