<svg id="Layer_1" xmlns="http://www.w3.org/2000/svg" xmlns:xlink="http://www.w3.org/1999/xlink" width="385.3" height="158.8"><style>.st0{clip-path:url(#SVGID_2_);fill:#0C8EFF;} .st1{clip-path:url(#SVGID_4_);fill:#0C8EFF;} .st2{clip-path:url(#SVGID_6_);fill:#0C8EFF;} .st3{clip-path:url(#SVGID_8_);fill:#0C8EFF;} .st4{clip-path:url(#SVGID_10_);fill:none;stroke:#5EB4FF;stroke-miterlimit:10;} .st5{clip-path:url(#SVGID_12_);fill:#0577DA;} .st6{clip-path:url(#SVGID_14_);fill:#0577DA;} .st7{clip-path:url(#SVGID_16_);fill:#0577DA;} .st8{fill:none;stroke:#0C8EFF;stroke-linecap:square;stroke-miterlimit:10;} .st9{fill:#00A2FF;} .st10{fill:none;stroke:#0C8EFF;stroke-miterlimit:10;}</style><defs><path id="SVGID_1_" d="M137.1 20.2h.3v137.7h-.3z"/></defs><clipPath id="SVGID_2_"><use xlink:href="#SVGID_1_" overflow="visible"/></clipPath><path class="st0" d="M132.1 15.2h10.3v147.7h-10.3z"/><defs><path id="SVGID_3_" d="M233.5 20.2h.3v137.7h-.3z"/></defs><clipPath id="SVGID_4_"><use xlink:href="#SVGID_3_" overflow="visible"/></clipPath><path class="st1" d="M228.5 15.2h10.3v147.7h-10.3z"/><defs><path id="SVGID_5_" d="M116.6 40.7h137.7v.3H116.6z"/></defs><clipPath id="SVGID_6_"><use xlink:href="#SVGID_5_" overflow="visible"/></clipPath><path class="st2" d="M111.6 35.7h147.7V46H111.6z"/><defs><path id="SVGID_7_" d="M116.6 137.1h137.7v.3H116.6z"/></defs><clipPath id="SVGID_8_"><use xlink:href="#SVGID_7_" overflow="visible"/></clipPath><path class="st3" d="M111.6 132.1h147.7v10.3H111.6z"/><defs><path id="SVGID_9_" d="M116.7 40.3c0-11 8.9-20 20-20h98c11 0 20 8.9 20 20v98c0 11-8.9 20-20 20h-98c-11 0-20-8.9-20-20v-98z"/></defs><clipPath id="SVGID_10_"><use xlink:href="#SVGID_9_" overflow="visible"/></clipPath><path class="st4" d="M116.7 40.3c0-11 8.9-20 20-20h98c11 0 20 8.9 20 20v98c0 11-8.9 20-20 20h-98c-11 0-20-8.9-20-20v-98z"/><defs><path id="SVGID_11_" d="M161.6 58.5h47.9c1.4 0 2.2-1.7 1.4-2.8l-5.7-8.8c-1.7-3.5-5.3-5.7-9.2-5.7h-21c-3.9 0-7.4 2.1-9.2 5.6l-5.7 9c-.7 1 .2 2.7 1.5 2.7"/></defs><clipPath id="SVGID_12_"><use xlink:href="#SVGID_11_" overflow="visible"/></clipPath><path class="st5" d="M154.9 36.1h61.4v27.4h-61.4z"/><defs><path id="SVGID_13_" d="M185.6 88.9c-7.6 0-13.7 6.1-13.7 13.7s6.1 13.7 13.7 13.7 13.7-6.1 13.7-13.7-6.2-13.7-13.7-13.7"/></defs><clipPath id="SVGID_14_"><use xlink:href="#SVGID_13_" overflow="visible"/></clipPath><path class="st6" d="M166.9 83.9h37.4v37.4h-37.4z"/><defs><path id="SVGID_15_" d="M185.6 126.6c-13.2 0-24-10.8-24-24s10.8-24 24-24 24 10.8 24 24-10.8 24-24 24m47.9-48.1c0-5.7-4.6-10.3-10.3-10.3h-75.4c-5.7 0-10.3 4.6-10.3 10.3v48.2c0 5.7 4.6 10.3 10.3 10.3h75.4c5.7 0 10.3-4.6 10.3-10.3V78.5"/></defs><clipPath id="SVGID_16_"><use xlink:href="#SVGID_15_" overflow="visible"/></clipPath><path class="st7" d="M132.5 63.3h106v78.8h-106z"/><path class="st8" d="M233.2 129.8h62"/><path class="st9" d="M307.5 130.8c0 .5-.1 1-.3 1.4-.2.4-.5.7-.9.9-.4.2-.9.3-1.4.3-.9 0-1.6-.3-2-.9s-.7-1.4-.7-2.4c0-.8.1-1.5.4-2.2.2-.6.6-1.1 1.1-1.4s1.1-.5 1.7-.5c.6 0 1.2.2 1.7.5l-.5.9c-.4-.2-.8-.3-1.2-.3-.5 0-1 .2-1.3.6-.3.4-.5.9-.6 1.6.3-.2.5-.4.8-.5.3-.1.6-.2 1-.2s.8.1 1.2.3.6.4.8.8c.1.3.2.7.2 1.1zm-1.3.1c0-.4-.1-.7-.3-1-.2-.2-.5-.3-.9-.3-.6 0-1.1.2-1.5.7 0 .7.1 1.2.4 1.6.2.3.6.5 1.1.5.4 0 .8-.1 1-.4s.2-.7.2-1.1zm7.5-.2c0 .5-.1 1-.3 1.4s-.5.8-.8 1c-.4.2-.8.4-1.3.4-.6 0-1.1-.2-1.5-.5v2.8h-1.2v-6.5c0-.3 0-.7-.1-1.2h1.2c0 .3.1.5.1.6.4-.5 1-.8 1.7-.8.5 0 .9.1 1.2.4.3.2.6.6.7 1s.3.8.3 1.4zm-1.3 0c0-.6-.1-1-.3-1.3-.2-.3-.5-.4-.9-.4s-.7.1-1 .4c-.3.3-.4.6-.4 1v1.7l.6.3s.4.1.6.1c.5 0 .8-.2 1-.5.3-.4.4-.8.4-1.3zm7.1 2.6H318l-1.3-1.9-1.3 1.9h-1.5l2-2.7-1.8-2.5h1.4l1.2 1.8 1.1-1.8h1.4l-1.8 2.5 2.1 2.7zm5.9-5.4c.7 0 1.2.2 1.7.6l-.5.9c-.4-.3-.8-.4-1.3-.4s-.8.1-1.1.5c-.2.3-.3.7-.3 1.2s.1.9.3 1.2.6.5 1 .5.8-.1 1.3-.4l.5.9c-.3.2-.5.3-.9.4-.3.1-.6.1-1 .1-.6 0-1.1-.1-1.5-.4-.4-.3-.6-.6-.8-1-.2-.4-.2-.8-.2-1.3 0-.6.1-1 .3-1.4s.5-.7.9-1 1.1-.4 1.6-.4zm7.7 2.7c0 .5-.1 1-.3 1.4-.2.4-.5.7-.9 1s-.9.3-1.4.3c-.6 0-1-.1-1.4-.4s-.7-.6-.9-1c-.2-.4-.3-.9-.3-1.4 0-.5.1-1 .3-1.4.2-.4.5-.7.9-1 .4-.2.9-.3 1.5-.3s1.1.1 1.5.3c.4.2.7.5.9 1 0 .5.1 1 .1 1.5zm-4.1 0c0 .5.1 1 .3 1.3.2.3.6.5 1.1.5.5 0 .9-.2 1.1-.5s.3-.8.3-1.3-.1-.9-.3-1.3-.6-.5-1.1-.5c-.5 0-.8.2-1.1.5-.2.4-.3.8-.3 1.3zm5.3-1.3c0-.3 0-.7-.1-1.2h1.2c0 .3.1.5.1.7.3-.6.8-.9 1.5-.9h.3v1.1h-.4c-.4 0-.8.1-1 .4-.2.3-.4.7-.4 1.1v2.7h-1.2v-3.9zm4 0c0-.3 0-.7-.1-1.2h1.2c0 .2.1.4.1.6.2-.2.4-.4.7-.5.3-.1.6-.2 1-.2s.8.1 1.1.3c.3.2.5.4.6.7.1.3.2.6.2.9v3.4h-1.2v-3.2c0-.3-.1-.6-.2-.8-.2-.2-.4-.3-.8-.3s-.7.1-.9.4c-.2.3-.3.6-.3 1v2.9h-1.2v-4zm10.8 1.8h-3.6c.1.4.2.7.4 1 .2.2.6.3 1 .3.3 0 .6 0 .8-.1.2-.1.5-.2.7-.4l.5.8c-.3.2-.6.4-1 .5-.3.1-.7.2-1.1.2-.5 0-1-.1-1.4-.3-.4-.2-.7-.5-.9-1-.2-.4-.3-.9-.3-1.4 0-.8.2-1.5.7-2 .4-.5 1.1-.8 1.9-.8.8 0 1.4.2 1.8.7.4.5.6 1.2.6 2 0 .2-.1.4-.1.5zm-1.2-.9c0-.4-.1-.7-.3-1-.2-.2-.5-.4-.9-.4s-.7.1-.9.4-.3.6-.4.9h2.5zm2.5-.9c0-.3 0-.7-.1-1.2h1.2c0 .3.1.5.1.7.3-.6.8-.9 1.5-.9h.3l-.1 1.1h-.4c-.4 0-.8.1-1 .4-.2.3-.4.7-.4 1.1v2.7h-1.2v-3.9zm6.6 0c0-.3 0-.7-.1-1.2h1.2c0 .3.1.5.1.7.3-.6.8-.9 1.5-.9h.3v1.1h-.4c-.4 0-.8.1-1 .4-.2.3-.4.7-.4 1.1v2.7H357v-3.9zm3.3 2.5c0-.7.2-1.2.7-1.4.5-.3 1.2-.4 2.1-.4h.5v-.3c0-.6-.4-.8-1.1-.8-.5 0-1 .1-1.5.4l-.4-.8c.3-.2.6-.3.9-.4s.7-.1 1.1-.1c.8 0 1.4.2 1.7.5.4.4.5.9.5 1.6v2c0 .3 0 .7.1 1.2h-1.2c0-.3-.1-.5-.1-.6-.2.2-.4.4-.7.5-.3.1-.6.2-1 .2-.5 0-.9-.1-1.2-.4-.2-.3-.4-.7-.4-1.2zm3.3-.5v-.4h-.4c-.6 0-1 .1-1.3.2-.3.1-.4.4-.4.7 0 .2.1.4.2.5.1.1.3.2.5.2s.5-.1.7-.2.3-.3.5-.4.2-.4.2-.6zm7.7 2h-1.2c0-.3-.1-.5-.1-.7-.2.3-.4.5-.7.6-.3.1-.6.2-1 .2-.7 0-1.3-.2-1.6-.8-.4-.5-.6-1.2-.6-2 0-.5.1-1 .3-1.4s.5-.8.8-1c.4-.2.8-.4 1.3-.4.6 0 1.1.2 1.5.5V126h1.2v5.9c0 .5 0 .9.1 1.4zm-1.4-2.3v-1.5c-.3-.4-.8-.5-1.3-.5-.4 0-.7.2-1 .5-.2.3-.3.7-.3 1.3 0 .6.1 1 .3 1.3.2.3.5.4.9.4s.7-.1 1-.4c.3-.3.4-.7.4-1.1zm2.7-4.6c0-.5.3-.7.8-.7.3 0 .5.1.6.2.1.1.2.3.2.5s-.1.4-.2.5c-.1.1-.3.2-.6.2s-.5-.1-.6-.2c-.1-.1-.2-.2-.2-.5zm1.4 6.9h-1.2v-5.2h1.2v5.2zm1.5-2v-3.2h1.3v3c0 .4.1.7.2 1s.4.4.8.4.7-.1.9-.4c.2-.3.3-.7.3-1.1v-2.8h1.2v4c0 .4 0 .8.1 1.2h-1.2c0-.2-.1-.4-.1-.6-.4.5-.9.8-1.7.8-.6 0-1.1-.2-1.5-.6s-.3-1.1-.3-1.7zm9.7-2.8l-.5.8c-.4-.3-.8-.4-1.2-.4-.3 0-.5 0-.6.1s-.2.2-.2.4c0 .1 0 .3.1.3.1.1.2.2.3.2.2.1.4.1.7.2.5.1.9.3 1.1.6.3.2.4.6.4 1 0 .5-.2 1-.6 1.3-.4.3-.9.4-1.5.4-.8 0-1.4-.2-1.9-.6l.5-.8.6.3c.2.1.4.1.7.1.3 0 .5-.1.7-.2.2-.1.2-.3.2-.5 0-.1 0-.2-.1-.3-.1-.1-.2-.2-.3-.2-.1-.1-.4-.1-.7-.2-.5-.1-.9-.3-1.1-.6-.2-.2-.4-.6-.4-1 0-.5.2-.9.6-1.1.4-.3.9-.4 1.5-.4s1.2.2 1.7.6z"/><path class="st8" d="M210.2 63.8h55"/><path class="st9" d="M277.5 64.8c0 .5-.1 1-.3 1.4-.2.4-.5.7-.9.9-.4.2-.9.3-1.4.3-.9 0-1.6-.3-2-.9s-.7-1.4-.7-2.4c0-.8.1-1.5.4-2.2.2-.6.6-1.1 1.1-1.4s1.1-.5 1.7-.5c.6 0 1.2.2 1.7.5l-.5.9c-.4-.2-.8-.3-1.2-.3-.5 0-1 .2-1.3.6-.3.4-.5.9-.6 1.6.3-.2.5-.4.8-.5.3-.1.6-.2 1-.2s.8.1 1.2.3.6.4.8.8c.1.3.2.7.2 1.1zm-1.3.1c0-.4-.1-.7-.3-1-.2-.2-.5-.3-.9-.3-.6 0-1.1.2-1.5.7 0 .7.1 1.2.4 1.6.2.3.6.5 1.1.5.4 0 .8-.1 1-.4s.2-.7.2-1.1zm7.5-.2c0 .5-.1 1-.3 1.4s-.5.8-.8 1c-.4.2-.8.4-1.3.4-.6 0-1.1-.2-1.5-.5v2.8h-1.2v-6.5c0-.3 0-.7-.1-1.2h1.2c0 .3.1.5.1.6.4-.5 1-.8 1.7-.8.5 0 .9.1 1.2.4.3.2.6.6.7 1s.3.8.3 1.4zm-1.3 0c0-.6-.1-1-.3-1.3-.2-.3-.5-.4-.9-.4s-.7.1-1 .4c-.3.3-.4.6-.4 1V66l.6.3s.4.1.6.1c.5 0 .8-.2 1-.5.3-.3.4-.7.4-1.2zm7.1 2.6H288l-1.3-1.9-1.3 1.9h-1.5l2-2.7-1.8-2.5h1.4l1.2 1.8 1.1-1.8h1.4l-1.8 2.5 2.1 2.7zm3.6-4c0-.3 0-.7-.1-1.2h1.2c0 .2.1.4.1.6.2-.2.4-.4.7-.5s.6-.2 1-.2.8.1 1.1.3c.3.2.5.4.6.7.1.3.2.6.2.9v3.4h-1.2v-3.2c0-.3-.1-.6-.2-.8-.2-.2-.4-.3-.8-.3s-.7.1-.9.4c-.2.3-.3.6-.3 1v2.9h-1.2v-4zm10.8 1.8h-3.6c.1.4.2.7.4 1 .2.2.6.3 1 .3.3 0 .6 0 .8-.1.2-.1.5-.2.7-.4l.5.8c-.3.2-.6.4-1 .5-.3.1-.7.2-1.1.2-.5 0-1-.1-1.4-.3-.4-.2-.7-.5-.9-1-.2-.4-.3-.9-.3-1.4 0-.8.2-1.5.7-2 .4-.5 1.1-.8 1.9-.8.8 0 1.4.2 1.8.7.4.5.6 1.2.6 2 0 .2 0 .4-.1.5zm-1.2-.9c0-.4-.1-.7-.3-1-.2-.2-.5-.4-.9-.4s-.7.1-.9.4-.3.6-.4.9h2.5zm1.9 4c0-.5.3-1 .9-1.4l-.3-.3s-.1-.2-.1-.4.1-.4.2-.5c.1-.1.3-.3.5-.3-.6-.3-.9-.8-.9-1.5 0-.6.2-1 .6-1.4s1-.5 1.7-.5h.5s.3.1.5.1h1.9v1l-1.1-.2c.1.1.2.3.3.4.1.2.1.4.1.6 0 .5-.2 1-.6 1.2s-.9.5-1.6.5c-.3 0-.6 0-.7.1-.2.1-.2.2-.2.3 0 .1.1.2.2.3.2.1.4.1.7.1.9 0 1.6.2 2 .4.4.2.7.6.7 1.1 0 .6-.3 1.1-.8 1.4-.5.3-1.2.5-2.1.5-.8 0-1.4-.1-1.8-.4-.4-.2-.6-.6-.6-1.1zm4-.1c0-.2-.2-.4-.5-.5-.3-.1-.9-.2-1.8-.2-.4.2-.5.5-.5.8 0 .5.4.8 1.2.8.5 0 .9-.1 1.2-.2s.4-.5.4-.7zm-.4-4.3c0-.3-.1-.5-.3-.7-.2-.2-.4-.3-.8-.3-.3 0-.6.1-.8.3-.2.2-.3.4-.3.7 0 .3.1.5.3.7.2.2.5.3.8.3.8 0 1.1-.3 1.1-1zm2.4 2c0-.7.2-1.2.7-1.4s1.2-.4 2.1-.4h.5v-.3c0-.6-.4-.8-1.1-.8-.5 0-1 .1-1.5.4l-.4-.8c.3-.2.6-.3 1-.4s.7-.1 1-.1c.8 0 1.4.2 1.7.5s.5.9.5 1.6v2c0 .3 0 .7.1 1.2h-1.1c0-.3-.1-.5-.1-.6-.2.2-.4.4-.7.5-.3.1-.6.2-1 .2-.5 0-.9-.1-1.2-.4-.3-.3-.5-.7-.5-1.2zm3.3-.5v-.4h-.4c-.6 0-1 .1-1.3.2-.3.1-.4.4-.4.7 0 .2.1.4.2.5.1.1.3.2.5.2s.5-.1.7-.2.3-.3.5-.4c.2-.2.2-.4.2-.6zm4.2-3.2h1.3v1h-1.3v2.6c0 .5.2.7.7.7.2 0 .3 0 .5-.1l.2.9c-.3.1-.6.1-.9.1-.5 0-.9-.1-1.2-.4s-.4-.7-.4-1.2V63h-1v-.8l.9-.2v-1.2l1.3-.4v1.7zm2.3-1.7c0-.5.3-.7.8-.7.3 0 .5.1.6.2.1.1.2.3.2.5s-.1.4-.2.5c-.1.1-.3.2-.6.2s-.5-.1-.6-.2c-.2-.1-.2-.2-.2-.5zm1.3 6.9h-1.2v-5.2h1.2v5.2zm4.1 0h-1.4l-1.9-5.2h1.4l1.3 3.9 1.2-3.9h1.3l-1.9 5.2zm7.2-2.2h-3.6c.1.4.2.7.4 1 .2.2.6.3 1 .3.3 0 .6 0 .8-.1.2-.1.5-.2.7-.4l.5.8c-.3.2-.6.4-1 .5-.3.1-.7.2-1.1.2-.5 0-1-.1-1.4-.3-.4-.2-.7-.5-.9-1-.2-.4-.3-.9-.3-1.4 0-.8.2-1.5.7-2 .4-.5 1.1-.8 1.9-.8.8 0 1.4.2 1.8.7.4.5.6 1.2.6 2-.1.2-.1.4-.1.5zm-1.2-.9c0-.4-.1-.7-.3-1-.2-.2-.5-.4-.9-.4s-.7.1-.9.4c-.2.2-.3.6-.4.9h2.5zm8.5-1.7l-.5.8c-.4-.3-.8-.4-1.2-.4-.3 0-.5 0-.6.1s-.2.2-.2.4c0 .1 0 .3.1.3.1.1.2.2.3.2.2.1.4.1.7.2.5.1.9.3 1.1.6.3.2.4.6.4 1 0 .5-.2 1-.6 1.3-.4.3-.9.4-1.5.4-.8 0-1.4-.2-1.9-.6l.5-.8.6.3c.2.1.4.1.7.1.3 0 .5-.1.7-.2.2-.1.2-.3.2-.5 0-.1 0-.2-.1-.3-.1-.1-.2-.2-.3-.2-.1-.1-.4-.1-.7-.2-.5-.1-.9-.3-1.1-.6-.2-.2-.4-.6-.4-1 0-.5.2-.9.6-1.1.4-.3.9-.4 1.5-.4.7 0 1.3.2 1.7.6zm6.4 2.2c0 .5-.1 1-.3 1.4-.2.4-.5.8-.8 1-.4.2-.8.4-1.3.4-.6 0-1.1-.2-1.5-.5v2.8h-1.2v-6.5c0-.3 0-.7-.1-1.2h1.2c0 .3.1.5.1.6.4-.5 1-.8 1.7-.8.5 0 .9.1 1.2.4.3.2.6.6.7 1 .2.4.3.8.3 1.4zm-1.3 0c0-.6-.1-1-.3-1.3-.2-.3-.5-.4-.9-.4s-.7.1-1 .4c-.3.3-.4.6-.4 1V66l.6.3c.2.1.4.1.6.1.5 0 .8-.2 1-.5.3-.3.4-.7.4-1.2zm2.1 1.1c0-.7.2-1.2.7-1.4.5-.3 1.2-.4 2.1-.4h.5v-.3c0-.6-.4-.8-1.1-.8-.5 0-1 .1-1.5.4l-.4-.8c.3-.2.6-.3.9-.4s.7-.1 1.1-.1c.8 0 1.4.2 1.7.5.4.4.5.9.5 1.6v2c0 .3 0 .7.1 1.2H351c0-.3-.1-.5-.1-.6-.2.2-.4.4-.7.5-.3.1-.6.2-1 .2-.5 0-.9-.1-1.2-.4-.4-.3-.5-.7-.5-1.2zm3.3-.5v-.4h-.4c-.6 0-1 .1-1.3.2-.3.1-.4.4-.4.7 0 .2.1.4.2.5.1.1.3.2.5.2s.5-.1.7-.2.3-.3.5-.4.2-.4.2-.6zm5.1-3.4c.7 0 1.2.2 1.7.6l-.5.9c-.4-.3-.8-.4-1.3-.4s-.8.1-1.1.5c-.2.3-.3.7-.3 1.2s.1.9.3 1.2c.2.3.6.5 1 .5s.8-.1 1.3-.4l.5.9c-.3.2-.5.3-.9.4s-.6.1-1 .1c-.6 0-1.1-.1-1.5-.4-.4-.3-.6-.6-.8-1-.2-.4-.2-.8-.2-1.3 0-.6.1-1 .3-1.4.2-.4.5-.7.9-1s1.1-.4 1.6-.4zm7.2 3.2h-3.6c.1.4.2.7.4 1 .2.2.6.3 1 .3.3 0 .6 0 .8-.1.2-.1.5-.2.7-.4l.5.8c-.3.2-.6.4-1 .5-.3.1-.7.2-1.1.2-.5 0-1-.1-1.4-.3-.4-.2-.7-.5-.9-1-.2-.4-.3-.9-.3-1.4 0-.8.2-1.5.7-2 .4-.5 1.1-.8 1.9-.8.8 0 1.4.2 1.8.7.4.5.6 1.2.6 2-.1.2-.1.4-.1.5zm-1.2-.9c0-.4-.1-.7-.3-1-.2-.2-.5-.4-.9-.4s-.7.1-.9.4-.3.6-.4.9h2.5zm-185.6-58v1.1h-4.7V6.2h1.9V1.5l-1.8.9-.5-.9 2.4-1.2h1.2v6h1.5zm.8-2.5c0-1.2.2-2.1.7-2.8.5-.6 1.1-1 2-1 .9 0 1.6.3 2 1 .5.6.7 1.6.7 2.8 0 1.2-.2 2.1-.7 2.8-.5.6-1.1 1-2 1-.9 0-1.5-.3-2-1-.4-.6-.7-1.6-.7-2.8zm4.1 0c0-.9-.1-1.6-.3-2s-.6-.6-1.1-.6c-.5 0-.9.2-1.1.6s-.3 1.1-.3 2c0 .9.1 1.6.3 2 .2.4.6.6 1.1.6.5 0 .9-.2 1.1-.6s.3-1.1.3-2zm2 0c0-1.2.2-2.1.7-2.8.5-.6 1.1-1 2-1 .9 0 1.6.3 2 1 .5.6.7 1.6.7 2.8 0 1.2-.2 2.1-.7 2.8-.5.6-1.1 1-2 1-.9 0-1.5-.3-2-1-.4-.6-.7-1.6-.7-2.8zm4.1 0c0-.9-.1-1.6-.3-2s-.6-.6-1.1-.6c-.5 0-.9.2-1.1.6s-.3 1.1-.3 2c0 .9.1 1.6.3 2 .2.4.6.6 1.1.6.5 0 .9-.2 1.1-.6s.3-1.1.3-2zm7.6 1c0 .5-.1 1-.3 1.4s-.5.8-.8 1c-.4.2-.8.4-1.3.4-.6 0-1.1-.2-1.5-.5v2.8h-1.2V3.3c0-.3 0-.7-.1-1.2h1.2c0 .3.1.5.1.6.4-.5 1-.8 1.7-.8.5 0 .9.1 1.2.4.3.2.6.6.7 1 .2.4.3.8.3 1.4zm-1.3 0c0-.6-.1-1-.3-1.3-.2-.3-.5-.4-.9-.4s-.7.1-1 .4c-.3.3-.4.6-.4 1V6l.6.3c.2.1.4.1.6.1.5 0 .8-.2 1-.5.3-.3.4-.7.4-1.2zm7.1 2.6h-1.5l-1.3-1.9-1.3 1.9h-1.5l2-2.7-1.8-2.5h1.4l1.2 1.8 1.1-1.8h1.4l-1.8 2.5 2.1 2.7zM79.3 67.2v1.1h-4.7v-1.1h1.9v-4.7l-1.8.9-.5-.9 2.4-1.2h1.2v6h1.5zm.8-2.5c0-1.2.2-2.1.7-2.8.5-.6 1.1-1 2-1 .9 0 1.6.3 2 1 .5.6.7 1.6.7 2.8 0 1.2-.2 2.1-.7 2.8-.5.6-1.1 1-2 1-.9 0-1.5-.3-2-1-.4-.6-.7-1.6-.7-2.8zm4.1 0c0-.9-.1-1.6-.3-2s-.6-.6-1.1-.6c-.5 0-.9.2-1.1.6s-.3 1.1-.3 2c0 .9.1 1.6.3 2 .2.4.6.6 1.1.6.5 0 .9-.2 1.1-.6s.3-1.1.3-2zm2 0c0-1.2.2-2.1.7-2.8.5-.6 1.1-1 2-1 .9 0 1.6.3 2 1 .5.6.7 1.6.7 2.8 0 1.2-.2 2.1-.7 2.8-.5.6-1.1 1-2 1-.9 0-1.5-.3-2-1-.4-.6-.7-1.6-.7-2.8zm4.1 0c0-.9-.1-1.6-.3-2s-.6-.6-1.1-.6c-.5 0-.9.2-1.1.6s-.3 1.1-.3 2c0 .9.1 1.6.3 2 .2.4.6.6 1.1.6.5 0 .9-.2 1.1-.6s.3-1.1.3-2zm7.6 1c0 .5-.1 1-.3 1.4s-.5.8-.8 1c-.4.2-.8.4-1.3.4-.6 0-1.1-.2-1.5-.5v2.8h-1.2v-6.5c0-.3 0-.7-.1-1.2h1.2c0 .3.1.5.1.6.4-.5 1-.8 1.7-.8.5 0 .9.1 1.2.4.3.2.6.6.7 1 .2.4.3.8.3 1.4zm-1.3 0c0-.6-.1-1-.3-1.3-.2-.3-.5-.4-.9-.4s-.7.1-1 .4c-.3.3-.4.6-.4 1V67l.6.3c.2.1.4.1.6.1.5 0 .8-.2 1-.5.3-.3.4-.7.4-1.2zm7.1 2.6h-1.5l-1.3-1.9-1.3 1.9h-1.5l2-2.7-1.8-2.5h1.4l1.2 1.8 1.1-1.8h1.4l-1.8 2.5 2.1 2.7z"/><path class="st8" d="M95.6 93.8h28.6"/><path class="st9" d="M31.2 92.1c0 .5-.1.9-.3 1.2-.2.4-.5.7-.9 1.1-.4.4-1.1 1-2 1.7h3.4v1.1h-5.1v-1l.2-.2c1.1-.9 1.8-1.6 2.2-1.9.4-.4.7-.7.9-1 .2-.3.3-.6.3-.9 0-.4-.1-.6-.4-.9-.2-.2-.6-.3-1-.3-.3 0-.6.1-.9.2-.3.1-.5.3-.8.6l-.8-.6c.4-.4.7-.7 1.1-.9s.9-.3 1.5-.3c.5 0 1 .1 1.4.3s.7.5.9.8c.2.3.3.7.3 1zm.9 1.6c0-1.2.2-2.1.7-2.8.5-.6 1.1-1 2-1 .9 0 1.6.3 2 1 .5.6.7 1.6.7 2.8 0 1.2-.2 2.1-.7 2.8-.5.6-1.1 1-2 1-.9 0-1.5-.3-2-1-.4-.6-.7-1.6-.7-2.8zm4.1 0c0-.9-.1-1.6-.3-2s-.6-.6-1.1-.6c-.5 0-.9.2-1.1.6s-.3 1.1-.3 2c0 .9.1 1.6.3 2 .2.4.6.6 1.1.6.5 0 .9-.2 1.1-.6s.3-1.1.3-2zm7.6 1c0 .5-.1 1-.3 1.4s-.5.8-.8 1c-.4.2-.8.4-1.3.4-.6 0-1.1-.2-1.5-.5v2.8h-1.2v-6.5c0-.3 0-.7-.1-1.2h1.2c0 .3.1.5.1.6.4-.5 1-.8 1.7-.8.5 0 .9.1 1.2.4.3.2.6.6.7 1 .2.4.3.8.3 1.4zm-1.3 0c0-.6-.1-1-.3-1.3-.2-.3-.5-.4-.9-.4s-.7.1-1 .4c-.3.3-.4.6-.4 1V96l.6.3c.2.1.4.1.6.1.5 0 .8-.2 1-.5.3-.3.4-.7.4-1.2zm7.1 2.6h-1.5l-1.3-1.9-1.3 1.9H44l2-2.7-1.8-2.5h1.4l1.2 1.8 1.1-1.8h1.4l-1.8 2.5 2.1 2.7zm8.7-2.6c0 .5-.1 1-.3 1.4s-.5.8-.8 1c-.4.2-.8.4-1.3.4-.6 0-1.1-.2-1.5-.5v2.8h-1.2v-6.5c0-.3 0-.7-.1-1.2h1.2c0 .3.1.5.1.6.4-.5 1-.8 1.7-.8.5 0 .9.1 1.2.4.3.2.6.6.7 1 .2.4.3.8.3 1.4zm-1.3 0c0-.6-.1-1-.3-1.3-.2-.3-.5-.4-.9-.4s-.7.1-1 .4c-.3.3-.4.6-.4 1V96l.6.3c.2.1.4.1.6.1.5 0 .8-.2 1-.5.3-.3.4-.7.4-1.2zm2.1 1.1c0-.7.2-1.2.7-1.4s1.2-.4 2.1-.4h.5v-.3c0-.6-.4-.8-1.1-.8-.5 0-1 .1-1.5.4l-.4-.8c.3-.2.6-.3 1-.4.4-.1.7-.1 1-.1.8 0 1.4.2 1.7.5.4.4.5.9.5 1.6v2c0 .3 0 .7.1 1.2h-1.1c0-.3-.1-.5-.1-.6-.2.2-.4.4-.7.5-.3.1-.6.2-1 .2-.5 0-.9-.1-1.2-.4-.3-.3-.5-.7-.5-1.2zm3.4-.5v-.4h-.4c-.6 0-1 .1-1.3.2-.3.1-.4.4-.4.7 0 .2.1.4.2.5.1.1.3.2.5.2s.5-.1.7-.2.3-.3.5-.4c.1-.2.2-.4.2-.6zm7.6 2h-1.2c0-.3-.1-.5-.1-.7-.2.3-.4.5-.7.6-.3.1-.6.2-1 .2-.7 0-1.3-.2-1.6-.8-.4-.5-.6-1.2-.6-2 0-.5.1-1 .3-1.4s.5-.8.8-1c.4-.2.8-.4 1.3-.4.6 0 1.1.2 1.5.5V90H70v5.9c0 .5 0 .9.1 1.4zM68.8 95v-1.5c-.3-.4-.8-.5-1.3-.5-.4 0-.7.2-1 .5-.2.3-.3.7-.3 1.3 0 .6.1 1 .3 1.3.2.3.5.4.9.4s.7-.1 1-.4c.2-.3.4-.7.4-1.1zm7.6 2.3h-1.2c0-.3-.1-.5-.1-.7-.2.3-.4.5-.7.6-.3.1-.6.2-1 .2-.7 0-1.3-.2-1.6-.8-.4-.5-.6-1.2-.6-2 0-.5.1-1 .3-1.4s.5-.8.8-1c.4-.2.8-.4 1.3-.4.6 0 1.1.2 1.5.5V90h1.2v5.9c.1.5.1.9.1 1.4zM75.1 95v-1.5c-.3-.4-.8-.5-1.3-.5-.4 0-.7.2-1 .5-.2.3-.3.7-.3 1.3 0 .6.1 1 .3 1.3.2.3.5.4.9.4s.7-.1 1-.4c.3-.3.4-.7.4-1.1zm2.7-4.6c0-.5.3-.7.8-.7.3 0 .5.1.6.2.1.1.2.3.2.5s-.1.4-.2.5c-.1.1-.3.2-.6.2s-.5-.1-.6-.2c-.2-.1-.2-.2-.2-.5zm1.4 6.9H78v-5.2h1.2v5.2zm1.5-4c0-.3 0-.7-.1-1.2h1.2c0 .2.1.4.1.6.2-.2.4-.4.7-.5.3-.1.6-.2 1-.2s.8.1 1.1.3c.3.2.5.4.6.7.1.3.2.6.2.9v3.4h-1.2v-3.2c0-.3-.1-.6-.2-.8-.2-.2-.4-.3-.8-.3s-.7.1-.9.4c-.2.3-.3.6-.3 1v2.9h-1.2v-4zm5.8 4.9c0-.5.3-1 .9-1.4l-.3-.3c-.1-.1-.1-.2-.1-.4s.1-.4.2-.5c.1-.1.3-.3.5-.3-.6-.3-.9-.8-.9-1.5 0-.6.2-1 .6-1.4.4-.3 1-.5 1.7-.5h.5s.3.1.5.1H92v1l-1-.2c.1.1.2.3.3.4.1.2.1.4.1.6 0 .5-.2 1-.6 1.2s-.9.5-1.6.5c-.3 0-.6 0-.7.1-.2.1-.2.2-.2.3 0 .1.1.2.2.3s.4.1.7.1c.9 0 1.6.2 2 .4.4.2.7.6.7 1.1 0 .6-.3 1.1-.8 1.4-.5.3-1.2.5-2.1.5-.8 0-1.4-.1-1.8-.4-.5-.2-.7-.6-.7-1.1zm4-.1c0-.2-.2-.4-.5-.5s-.9-.2-1.8-.2c-.4.2-.5.5-.5.8 0 .5.4.8 1.2.8.5 0 .9-.1 1.2-.2s.4-.5.4-.7zm-.4-4.3c0-.3-.1-.5-.3-.7s-.4-.3-.8-.3c-.3 0-.6.1-.8.3-.2.2-.3.4-.3.7 0 .3.1.5.3.7.2.2.5.3.8.3.7 0 1.1-.3 1.1-1z"/><path class="st8" d="M85.6 137.8h30.6"/><path class="st9" d="M5.5 139.4c0 .4-.1.7-.3 1-.2.3-.5.6-1 .7s-.9.3-1.5.3-1-.1-1.5-.3c-.4-.2-.7-.4-.9-.7-.2-.3-.3-.7-.3-1 0-.5.1-.8.3-1.1s.6-.6 1.1-.8c-.4-.2-.7-.4-.8-.7-.2-.3-.3-.6-.3-1s.1-.7.3-1c.2-.3.5-.5.9-.7s.8-.2 1.2-.2c.4 0 .9.1 1.2.2.4.1.7.4.9.6.2.3.3.6.3 1 0 .7-.4 1.3-1.1 1.7.5.2.9.5 1.1.7.3.5.4.8.4 1.3zm-1.4-.1c0-.2 0-.4-.1-.5s-.2-.3-.4-.4c-.2-.1-.4-.2-.8-.3l-.5-.2c-.4.1-.6.3-.8.6-.2.2-.2.5-.2.8 0 .4.1.6.4.8s.6.3 1 .3.8-.1 1-.3.4-.4.4-.8zm-2.5-3.4c0 .2.1.5.2.6.2.2.4.3.8.5l.4.1c.3-.2.5-.4.6-.6.1-.2.2-.4.2-.7 0-.3-.1-.5-.3-.7s-.4-.1-.7-.1c-.3 0-.6.1-.8.3s-.4.3-.4.6zm10.1 2.8c0 .5-.1 1-.3 1.4s-.5.8-.8 1c-.4.2-.8.4-1.3.4-.6 0-1.1-.2-1.5-.5v2.8H6.6v-6.5c0-.3 0-.7-.1-1.2h1.2c0 .3.1.5.1.6.4-.5 1-.8 1.7-.8.5 0 .9.1 1.2.4.3.2.6.6.7 1 .2.4.3.8.3 1.4zm-1.3 0c0-.6-.1-1-.3-1.3-.2-.3-.5-.4-.9-.4s-.7.1-1 .4c-.3.3-.4.6-.4 1v1.7l.6.3c.2.1.4.1.6.1.5 0 .8-.2 1-.5.3-.4.4-.8.4-1.3zm7.1 2.6H16l-1.3-1.9-1.3 1.9h-1.5l2-2.7-1.8-2.5h1.4l1.2 1.8 1.1-1.8h1.4l-1.8 2.5 2.1 2.7zm5.9-5.4c.7 0 1.2.2 1.7.6l-.5.9c-.4-.3-.8-.4-1.3-.4s-.8.1-1.1.5c-.2.3-.3.7-.3 1.2s.1.9.3 1.2.6.5 1 .5.8-.1 1.3-.4l.5.9c-.3.2-.5.3-.9.4-.3.1-.6.1-1 .1-.6 0-1.1-.1-1.5-.4-.4-.3-.6-.6-.8-1-.2-.4-.2-.8-.2-1.3 0-.6.1-1 .3-1.4s.5-.7.9-1c.6-.3 1.1-.4 1.6-.4zm7.7 2.7c0 .5-.1 1-.3 1.4-.2.4-.5.7-.9 1s-.9.3-1.4.3c-.6 0-1-.1-1.4-.4-.4-.2-.7-.6-.9-1-.2-.4-.3-.9-.3-1.4 0-.5.1-1 .3-1.4.2-.4.5-.7.9-1s.9-.3 1.5-.3 1.1.1 1.5.3c.4.2.7.5.9 1 0 .5.1 1 .1 1.5zm-4.1 0c0 .5.1 1 .3 1.3.2.3.6.5 1.1.5s.9-.2 1.1-.5.3-.8.3-1.3-.1-.9-.3-1.3-.6-.5-1.1-.5c-.5 0-.9.2-1.1.5-.2.4-.3.8-.3 1.3zm5.3-1.3c0-.3 0-.7-.1-1.2h1.2c0 .3.1.5.1.7.3-.6.8-.9 1.5-.9h.3l-.1 1.1h-.4c-.4 0-.8.1-1 .4-.2.3-.4.7-.4 1.1v2.7h-1.2v-3.9zm4 0c0-.3 0-.7-.1-1.2h1.2c0 .2.1.4.1.6.2-.2.4-.4.7-.5.3-.1.6-.2 1-.2s.8.1 1.1.3c.3.2.5.4.6.7.1.3.2.6.2.9v3.4h-1.2v-3.2c0-.3-.1-.6-.2-.8-.2-.2-.4-.3-.8-.3s-.7.1-.9.4c-.2.3-.3.6-.3 1v2.9h-1.2v-4zm10.8 1.8h-3.6c.1.4.2.7.4 1 .2.2.6.3 1 .3.3 0 .6 0 .8-.1.2-.1.5-.2.7-.4l.5.8c-.3.2-.6.4-1 .5-.3.1-.7.2-1.1.2-.5 0-1-.1-1.4-.3-.4-.2-.7-.5-.9-1-.2-.4-.3-.9-.3-1.4 0-.8.2-1.5.7-2 .4-.5 1.1-.8 1.9-.8.8 0 1.4.2 1.8.7.4.5.6 1.2.6 2 0 .2-.1.4-.1.5zm-1.2-.9c0-.4-.1-.7-.3-1-.2-.2-.5-.4-.9-.4s-.7.1-.9.4-.3.6-.4.9h2.5zm2.5-.9c0-.3 0-.7-.1-1.2h1.2c0 .3.1.5.1.7.3-.6.8-.9 1.5-.9h.3l-.1 1.1h-.4c-.4 0-.8.1-1 .4-.2.3-.4.7-.4 1.1v2.7h-1.2v-3.9zm6.6 0c0-.3 0-.7-.1-1.2h1.2c0 .3.1.5.1.7.3-.6.8-.9 1.5-.9h.3v1.1h-.4c-.4 0-.8.1-1 .4-.2.3-.4.7-.4 1.1v2.7H55v-3.9zm3.3 2.5c0-.7.2-1.2.7-1.4s1.2-.4 2.1-.4h.5v-.3c0-.6-.4-.8-1.1-.8-.5 0-1 .1-1.5.4l-.4-.8c.3-.2.6-.3 1-.4.4-.1.7-.1 1-.1.8 0 1.4.2 1.7.5.4.4.5.9.5 1.6v2c0 .3 0 .7.1 1.2h-1.1c0-.3-.1-.5-.1-.6-.2.2-.4.4-.7.5-.3.1-.6.2-1 .2-.5 0-.9-.1-1.2-.4-.3-.3-.5-.7-.5-1.2zm3.3-.5v-.4h-.4c-.6 0-1 .1-1.3.2-.3.1-.4.4-.4.7 0 .2.1.4.2.5.1.1.3.2.5.2s.5-.1.7-.2.3-.3.5-.4c.2-.2.2-.4.2-.6zm7.7 2h-1.2c0-.3-.1-.5-.1-.7-.2.3-.4.5-.7.6-.3.1-.6.2-1 .2-.7 0-1.3-.2-1.6-.8-.4-.5-.6-1.2-.6-2 0-.5.1-1 .3-1.4s.5-.8.8-1c.4-.2.8-.4 1.3-.4.6 0 1.1.2 1.5.5V134h1.2v5.9c0 .5 0 .9.1 1.4zm-1.4-2.3v-1.5c-.3-.4-.8-.5-1.3-.5-.4 0-.7.2-1 .5-.2.3-.3.7-.3 1.3 0 .6.1 1 .3 1.3.2.3.5.4.9.4s.7-.1 1-.4c.3-.3.4-.7.4-1.1zm2.7-4.6c0-.5.3-.7.8-.7.3 0 .5.1.6.2.1.1.2.3.2.5s-.1.4-.2.5c-.1.1-.3.2-.6.2s-.5-.1-.6-.2c-.1-.1-.2-.2-.2-.5zm1.4 6.9h-1.2v-5.2H72v5.2zm1.5-2v-3.2h1.3v3c0 .4.1.7.2 1s.4.4.8.4.7-.1.9-.4.3-.7.3-1.1v-2.8h1.2v4c0 .4 0 .8.1 1.2h-1.2c0-.2-.1-.4-.1-.6-.4.5-.9.8-1.7.8-.6 0-1.1-.2-1.5-.6-.1-.6-.3-1.1-.3-1.7zm9.7-2.8l-.5.8c-.4-.3-.8-.4-1.2-.4-.3 0-.5 0-.6.1s-.2.2-.2.4c0 .1 0 .3.1.3.1.1.2.2.3.2.1.1.4.1.7.2.5.1.9.3 1.1.6.3.2.4.6.4 1 0 .5-.2 1-.6 1.3-.4.3-.9.4-1.5.4-.8 0-1.4-.2-1.9-.6l.5-.8.6.3c.2.1.4.1.7.1.3 0 .5-.1.7-.2.2-.1.2-.3.2-.5 0-.1 0-.2-.1-.3-.1-.1-.2-.2-.3-.2-.1-.1-.4-.1-.7-.2-.5-.1-.9-.3-1.1-.6-.2-.2-.4-.6-.4-1 0-.5.2-.9.6-1.1.4-.3.9-.4 1.5-.4s1.2.2 1.7.6z"/><path class="st10" d="M171.9 75.3v54.8m-10.1-54.8v54.8m51.3-61.6H158m55.1-10.1H158m75.5 68.6c0 5.7-4.6 10.3-10.3 10.3-5.7 0-10.3-4.6-10.3-10.3 0-5.7 4.6-10.3 10.3-10.3 5.6 0 10.3 4.6 10.3 10.3zm-75.3-48.2c0 5.7-4.6 10.3-10.3 10.3-5.7 0-10.3-4.6-10.3-10.3 0-5.7 4.6-10.3 10.3-10.3 5.6 0 10.3 4.6 10.3 10.3z"/><circle class="st10" cx="137.2" cy="137.8" r="20.5"/><circle class="st10" cx="234.2" cy="40.8" r="20.5"/><path class="st8" d="M116.2 10.8v6m138-6v6m-138-3h138m-147 7h6m-6 137h6m-3-136v135"/></svg>