<svg id="Layer_1" xmlns="http://www.w3.org/2000/svg" xmlns:xlink="http://www.w3.org/1999/xlink" width="220" height="163"><style>.st0{clip-path:url(#SVGID_2_);fill:none;stroke:#D3DCE7;stroke-width:2;stroke-miterlimit:10;} .st1{clip-path:url(#SVGID_4_);fill:#D3DCE7;} .st2{clip-path:url(#SVGID_6_);fill:none;stroke:#D3DCE7;stroke-width:2;stroke-miterlimit:10;} .st3{clip-path:url(#SVGID_8_);fill:#D3DCE7;} .st4{clip-path:url(#SVGID_10_);fill:#D3DCE7;} .st5{clip-path:url(#SVGID_12_);fill:#D3DCE7;} .st6{clip-path:url(#SVGID_14_);fill:none;stroke:#D3DCE7;stroke-width:2;stroke-miterlimit:10;} .st7{clip-path:url(#SVGID_16_);fill:#D3DCE7;} .st8{clip-path:url(#SVGID_18_);fill:#D3DCE7;} .st9{clip-path:url(#SVGID_20_);fill:#D3DCE7;} .st10{clip-path:url(#SVGID_22_);fill:none;stroke:#D3DCE7;stroke-width:2;stroke-miterlimit:10;} .st11{clip-path:url(#SVGID_24_);fill:#D3DCE7;} .st12{clip-path:url(#SVGID_26_);fill:#D3DCE7;} .st13{clip-path:url(#SVGID_28_);fill:#D3DCE7;} .st14{clip-path:url(#SVGID_30_);fill:none;stroke:#D3DCE7;stroke-width:2;stroke-miterlimit:10;} .st15{clip-path:url(#SVGID_32_);fill:#D3DCE7;} .st16{clip-path:url(#SVGID_34_);fill:#D3DCE7;} .st17{clip-path:url(#SVGID_36_);fill:#D3DCE7;} .st18{clip-path:url(#SVGID_38_);fill:none;stroke:#D3DCE7;stroke-width:2;stroke-miterlimit:10;} .st19{clip-path:url(#SVGID_40_);fill:#D3DCE7;} .st20{clip-path:url(#SVGID_42_);fill:#D3DCE7;} .st21{clip-path:url(#SVGID_44_);fill:#D3DCE7;} .st22{clip-path:url(#SVGID_46_);fill:none;stroke:#D3DCE7;stroke-width:2;stroke-miterlimit:10;} .st23{clip-path:url(#SVGID_48_);fill:#D3DCE7;} .st24{clip-path:url(#SVGID_50_);fill:#D3DCE7;} .st25{clip-path:url(#SVGID_52_);fill:#D3DCE7;} .st26{clip-path:url(#SVGID_54_);fill:none;stroke:#D3DCE7;stroke-width:2;stroke-miterlimit:10;} .st27{clip-path:url(#SVGID_56_);fill:#D3DCE7;} .st28{clip-path:url(#SVGID_58_);fill:#D3DCE7;} .st29{clip-path:url(#SVGID_60_);fill:#D3DCE7;} .st30{clip-path:url(#SVGID_62_);fill:none;stroke:#D3DCE7;stroke-width:2;stroke-miterlimit:10;} .st31{clip-path:url(#SVGID_64_);fill:#D3DCE7;} .st32{clip-path:url(#SVGID_66_);fill:#D3DCE7;} .st33{clip-path:url(#SVGID_68_);fill:#D3DCE7;} .st34{clip-path:url(#SVGID_70_);fill:none;stroke:#D3DCE7;stroke-width:2;stroke-miterlimit:10;} .st35{clip-path:url(#SVGID_72_);fill:none;stroke:#EEF1F6;stroke-width:2;stroke-miterlimit:10;} .st36{clip-path:url(#SVGID_74_);fill:#16325C;} .st37{clip-path:url(#SVGID_76_);} .st38{clip-path:url(#SVGID_78_);fill-rule:evenodd;clip-rule:evenodd;fill:#EEF1F6;} .st39{clip-path:url(#SVGID_80_);fill:none;stroke:#D3DCE7;stroke-width:2;stroke-miterlimit:10;} .st40{fill:none;stroke:#D3DCE7;stroke-linecap:square;stroke-miterlimit:10;} .st41{clip-path:url(#SVGID_82_);fill:#D3DCE7;} .st42{clip-path:url(#SVGID_84_);fill:#D3DCE7;} .st43{clip-path:url(#SVGID_86_);fill:#D3DCE7;} .st44{clip-path:url(#SVGID_88_);fill:#D3DCE7;} .st45{clip-path:url(#SVGID_90_);fill:#D3DCE7;} .st46{clip-path:url(#SVGID_92_);fill:#D3DCE7;} .st47{clip-path:url(#SVGID_94_);fill:#D3DCE7;} .st48{clip-path:url(#SVGID_96_);fill:#D3DCE7;} .st49{clip-path:url(#SVGID_98_);fill:#D3DCE7;} .st50{clip-path:url(#SVGID_100_);fill:#D3DCE7;} .st51{clip-path:url(#SVGID_102_);fill:#D3DCE7;} .st52{clip-path:url(#SVGID_104_);fill:#D3DCE7;} .st53{clip-path:url(#SVGID_106_);fill:#D3DCE7;} .st54{clip-path:url(#SVGID_108_);fill:#D3DCE7;} .st55{fill:none;stroke:#D3DCE7;stroke-miterlimit:10;} .st56{clip-path:url(#SVGID_110_);fill:#1AA2DD;} .st57{clip-path:url(#SVGID_112_);fill:#D3DCE7;} .st58{clip-path:url(#SVGID_114_);fill:#D3DCE7;} .st59{clip-path:url(#SVGID_116_);fill:#D3DCE7;} .st60{clip-path:url(#SVGID_118_);fill:#D3DCE7;} .st61{clip-path:url(#SVGID_120_);fill:#D3DCE7;} .st62{clip-path:url(#SVGID_122_);fill:#D3DCE7;} .st63{clip-path:url(#SVGID_124_);fill:#D3DCE7;} .st64{clip-path:url(#SVGID_126_);fill:#D3DCE7;} .st65{clip-path:url(#SVGID_128_);fill:#D3DCE7;} .st66{clip-path:url(#SVGID_130_);fill:#D3DCE7;} .st67{clip-path:url(#SVGID_132_);fill:#D3DCE7;} .st68{clip-path:url(#SVGID_134_);fill:none;stroke:#D3DCE7;stroke-width:2;stroke-miterlimit:10;} .st69{clip-path:url(#SVGID_136_);fill:#D3DCE7;} .st70{clip-path:url(#SVGID_138_);fill:#D3DCE7;} .st71{clip-path:url(#SVGID_140_);fill:#D3DCE7;} .st72{clip-path:url(#SVGID_142_);fill:#D3DCE7;} .st73{clip-path:url(#SVGID_144_);fill:#D3DCE7;} .st74{clip-path:url(#SVGID_146_);fill:#D3DCE7;} .st75{clip-path:url(#SVGID_148_);fill:#D3DCE7;} .st76{clip-path:url(#SVGID_150_);fill:#D3DCE7;} .st77{clip-path:url(#SVGID_152_);fill:#D3DCE7;} .st78{clip-path:url(#SVGID_154_);fill:#D3DCE7;} .st79{clip-path:url(#SVGID_156_);fill:#D3DCE7;} .st80{clip-path:url(#SVGID_158_);fill:none;stroke:#D3DCE7;stroke-width:2;stroke-miterlimit:10;} .st81{clip-path:url(#SVGID_160_);enable-background:new ;} .st82{clip-path:url(#SVGID_162_);} .st83{clip-path:url(#SVGID_164_);fill:#FFFFFF;} .st84{clip-path:url(#SVGID_166_);} .st85{clip-path:url(#SVGID_168_);} .st86{clip-path:url(#SVGID_170_);fill-rule:evenodd;clip-rule:evenodd;fill:#EEF8FB;} .st87{clip-path:url(#SVGID_172_);} .st88{clip-path:url(#SVGID_174_);fill:none;stroke:#4DB7DA;stroke-width:2;stroke-miterlimit:10;} .st89{clip-path:url(#SVGID_176_);fill:none;stroke:#D3DCE7;stroke-width:0.5;stroke-linecap:square;stroke-miterlimit:10;} .st90{clip-path:url(#SVGID_176_);fill:none;stroke:#E5ECF5;stroke-width:0.5;stroke-linecap:square;stroke-miterlimit:10;} .st91{clip-path:url(#SVGID_178_);} .st92{clip-path:url(#SVGID_180_);fill:#D3DCE7;} .st93{clip-path:url(#SVGID_182_);} .st94{clip-path:url(#SVGID_184_);fill:#D3DCE7;} .st95{clip-path:url(#SVGID_186_);} .st96{clip-path:url(#SVGID_188_);fill:#A8B8D0;} .st97{clip-path:url(#SVGID_190_);} .st98{clip-path:url(#SVGID_192_);fill:#A8B8D0;} .st99{clip-path:url(#SVGID_194_);} .st100{clip-path:url(#SVGID_196_);fill:#A8B8D0;} .st101{clip-path:url(#SVGID_198_);} .st102{clip-path:url(#SVGID_200_);fill:#A8B8D0;} .st103{clip-path:url(#SVGID_202_);} .st104{clip-path:url(#SVGID_204_);fill:#44CB7F;} .st105{clip-path:url(#SVGID_206_);} .st106{clip-path:url(#SVGID_208_);fill:#4DB7DA;} .st107{clip-path:url(#SVGID_210_);} .st108{clip-path:url(#SVGID_212_);fill:#A8B8D0;} .st109{clip-path:url(#SVGID_214_);} .st110{clip-path:url(#SVGID_216_);fill:#D3DCE7;} .st111{clip-path:url(#SVGID_218_);} .st112{clip-path:url(#SVGID_220_);fill:#A8B8D0;} .st113{clip-path:url(#SVGID_222_);} .st114{clip-path:url(#SVGID_224_);fill:#A8B8D0;} .st115{clip-path:url(#SVGID_226_);} .st116{clip-path:url(#SVGID_228_);fill:#A8B8D0;} .st117{clip-path:url(#SVGID_230_);fill:none;stroke:#E5ECF5;stroke-width:0.5;stroke-linecap:square;stroke-miterlimit:10;} .st118{clip-path:url(#SVGID_230_);fill:none;stroke:#D3DCE7;stroke-linecap:square;stroke-miterlimit:10;} .st119{clip-path:url(#SVGID_230_);fill:none;stroke:#D3DCE7;stroke-width:0.5;stroke-linecap:square;stroke-miterlimit:10;} .st120{clip-path:url(#SVGID_230_);fill:none;stroke:#44CB7F;stroke-linecap:square;stroke-miterlimit:10;} .st121{clip-path:url(#SVGID_230_);fill:none;stroke:#FFB854;stroke-linecap:square;stroke-miterlimit:10;} .st122{fill:none;stroke:#0577DA;stroke-width:6;stroke-miterlimit:10;} .st123{clip-path:url(#SVGID_232_);enable-background:new ;} .st124{clip-path:url(#SVGID_234_);} .st125{clip-path:url(#SVGID_236_);fill:none;stroke:#0577DA;stroke-width:6;stroke-miterlimit:10;}</style><defs><path id="SVGID_1_" d="M77 29c0-1.1.9-2 2-2h86c1.1 0 2 .9 2 2v46c0 1.1-.9 2-2 2H79c-1.1 0-2-.9-2-2V29z"/></defs><clipPath id="SVGID_2_"><use xlink:href="#SVGID_1_" overflow="visible"/></clipPath><path class="st0" d="M77 29c0-1.1.9-2 2-2h86c1.1 0 2 .9 2 2v46c0 1.1-.9 2-2 2H79c-1.1 0-2-.9-2-2V29z"/><defs><path id="SVGID_3_" d="M174 27.5c0-.3.2-.5.5-.5h9c.3 0 .5.2.5.5s-.2.5-.5.5h-9c-.3 0-.5-.2-.5-.5z"/></defs><clipPath id="SVGID_4_"><use xlink:href="#SVGID_3_" overflow="visible"/></clipPath><path class="st1" d="M169 22h20v11h-20z"/><defs><path id="SVGID_5_" d="M174 34c0-1.1.9-2 2-2h39c1.1 0 2 .9 2 2v9c0 1.1-.9 2-2 2h-39c-1.1 0-2-.9-2-2v-9z"/></defs><clipPath id="SVGID_6_"><use xlink:href="#SVGID_5_" overflow="visible"/></clipPath><path class="st2" d="M174 34c0-1.1.9-2 2-2h39c1.1 0 2 .9 2 2v9c0 1.1-.9 2-2 2h-39c-1.1 0-2-.9-2-2v-9z"/><defs><path id="SVGID_7_" d="M178 35.5c0-.3.2-.5.5-.5h22c.3 0 .5.2.5.5s-.2.5-.5.5h-22c-.3 0-.5-.2-.5-.5z"/></defs><clipPath id="SVGID_8_"><use xlink:href="#SVGID_7_" overflow="visible"/></clipPath><path class="st3" d="M173 30h33v11h-33z"/><defs><path id="SVGID_9_" d="M178 38.5c0-.3.2-.5.5-.5h14c.3 0 .5.2.5.5s-.2.5-.5.5h-14c-.3 0-.5-.2-.5-.5z"/></defs><clipPath id="SVGID_10_"><use xlink:href="#SVGID_9_" overflow="visible"/></clipPath><path class="st4" d="M173 33h25v11h-25z"/><defs><path id="SVGID_11_" d="M178 41.5c0-.3.2-.5.5-.5h17c.3 0 .5.2.5.5s-.2.5-.5.5h-17c-.3 0-.5-.2-.5-.5z"/></defs><clipPath id="SVGID_12_"><use xlink:href="#SVGID_11_" overflow="visible"/></clipPath><path class="st5" d="M173 36h28v11h-28z"/><defs><path id="SVGID_13_" d="M174 51c0-1.1.9-2 2-2h39c1.1 0 2 .9 2 2v9c0 1.1-.9 2-2 2h-39c-1.1 0-2-.9-2-2v-9z"/></defs><clipPath id="SVGID_14_"><use xlink:href="#SVGID_13_" overflow="visible"/></clipPath><path class="st6" d="M174 51c0-1.1.9-2 2-2h39c1.1 0 2 .9 2 2v9c0 1.1-.9 2-2 2h-39c-1.1 0-2-.9-2-2v-9z"/><defs><path id="SVGID_15_" d="M178 52.5c0-.3.2-.5.5-.5h22c.3 0 .5.2.5.5s-.2.5-.5.5h-22c-.3 0-.5-.2-.5-.5z"/></defs><clipPath id="SVGID_16_"><use xlink:href="#SVGID_15_" overflow="visible"/></clipPath><path class="st7" d="M173 47h33v11h-33z"/><defs><path id="SVGID_17_" d="M178 55.5c0-.3.2-.5.5-.5h14c.3 0 .5.2.5.5s-.2.5-.5.5h-14c-.3 0-.5-.2-.5-.5z"/></defs><clipPath id="SVGID_18_"><use xlink:href="#SVGID_17_" overflow="visible"/></clipPath><path class="st8" d="M173 50h25v11h-25z"/><defs><path id="SVGID_19_" d="M178 58.5c0-.3.2-.5.5-.5h17c.3 0 .5.2.5.5s-.2.5-.5.5h-17c-.3 0-.5-.2-.5-.5z"/></defs><clipPath id="SVGID_20_"><use xlink:href="#SVGID_19_" overflow="visible"/></clipPath><path class="st9" d="M173 53h28v11h-28z"/><defs><path id="SVGID_21_" d="M174 68c0-1.1.9-2 2-2h39c1.1 0 2 .9 2 2v9c0 1.1-.9 2-2 2h-39c-1.1 0-2-.9-2-2v-9z"/></defs><clipPath id="SVGID_22_"><use xlink:href="#SVGID_21_" overflow="visible"/></clipPath><path class="st10" d="M174 68c0-1.1.9-2 2-2h39c1.1 0 2 .9 2 2v9c0 1.1-.9 2-2 2h-39c-1.1 0-2-.9-2-2v-9z"/><defs><path id="SVGID_23_" d="M178 69.5c0-.3.2-.5.5-.5h22c.3 0 .5.2.5.5s-.2.5-.5.5h-22c-.3 0-.5-.2-.5-.5z"/></defs><clipPath id="SVGID_24_"><use xlink:href="#SVGID_23_" overflow="visible"/></clipPath><path class="st11" d="M173 64h33v11h-33z"/><defs><path id="SVGID_25_" d="M178 72.5c0-.3.2-.5.5-.5h14c.3 0 .5.2.5.5s-.2.5-.5.5h-14c-.3 0-.5-.2-.5-.5z"/></defs><clipPath id="SVGID_26_"><use xlink:href="#SVGID_25_" overflow="visible"/></clipPath><path class="st12" d="M173 67h25v11h-25z"/><defs><path id="SVGID_27_" d="M178 75.5c0-.3.2-.5.5-.5h17c.3 0 .5.2.5.5s-.2.5-.5.5h-17c-.3 0-.5-.2-.5-.5z"/></defs><clipPath id="SVGID_28_"><use xlink:href="#SVGID_27_" overflow="visible"/></clipPath><path class="st13" d="M173 70h28v11h-28z"/><defs><path id="SVGID_29_" d="M174 85c0-1.1.9-2 2-2h39c1.1 0 2 .9 2 2v9c0 1.1-.9 2-2 2h-39c-1.1 0-2-.9-2-2v-9z"/></defs><clipPath id="SVGID_30_"><use xlink:href="#SVGID_29_" overflow="visible"/></clipPath><path class="st14" d="M174 85c0-1.1.9-2 2-2h39c1.1 0 2 .9 2 2v9c0 1.1-.9 2-2 2h-39c-1.1 0-2-.9-2-2v-9z"/><defs><path id="SVGID_31_" d="M178 86.5c0-.3.2-.5.5-.5h22c.3 0 .5.2.5.5s-.2.5-.5.5h-22c-.3 0-.5-.2-.5-.5z"/></defs><clipPath id="SVGID_32_"><use xlink:href="#SVGID_31_" overflow="visible"/></clipPath><path class="st15" d="M173 81h33v11h-33z"/><defs><path id="SVGID_33_" d="M178 89.5c0-.3.2-.5.5-.5h14c.3 0 .5.2.5.5s-.2.5-.5.5h-14c-.3 0-.5-.2-.5-.5z"/></defs><clipPath id="SVGID_34_"><use xlink:href="#SVGID_33_" overflow="visible"/></clipPath><path class="st16" d="M173 84h25v11h-25z"/><defs><path id="SVGID_35_" d="M178 92.5c0-.3.2-.5.5-.5h17c.3 0 .5.2.5.5s-.2.5-.5.5h-17c-.3 0-.5-.2-.5-.5z"/></defs><clipPath id="SVGID_36_"><use xlink:href="#SVGID_35_" overflow="visible"/></clipPath><path class="st17" d="M173 87h28v11h-28z"/><defs><path id="SVGID_37_" d="M174 102c0-1.1.9-2 2-2h39c1.1 0 2 .9 2 2v9c0 1.1-.9 2-2 2h-39c-1.1 0-2-.9-2-2v-9z"/></defs><clipPath id="SVGID_38_"><use xlink:href="#SVGID_37_" overflow="visible"/></clipPath><path class="st18" d="M174 102c0-1.1.9-2 2-2h39c1.1 0 2 .9 2 2v9c0 1.1-.9 2-2 2h-39c-1.1 0-2-.9-2-2v-9z"/><defs><path id="SVGID_39_" d="M178 103.5c0-.3.2-.5.5-.5h22c.3 0 .5.2.5.5s-.2.5-.5.5h-22c-.3 0-.5-.2-.5-.5z"/></defs><clipPath id="SVGID_40_"><use xlink:href="#SVGID_39_" overflow="visible"/></clipPath><path class="st19" d="M173 98h33v11h-33z"/><defs><path id="SVGID_41_" d="M178 106.5c0-.3.2-.5.5-.5h14c.3 0 .5.2.5.5s-.2.5-.5.5h-14c-.3 0-.5-.2-.5-.5z"/></defs><clipPath id="SVGID_42_"><use xlink:href="#SVGID_41_" overflow="visible"/></clipPath><path class="st20" d="M173 101h25v11h-25z"/><defs><path id="SVGID_43_" d="M178 109.5c0-.3.2-.5.5-.5h17c.3 0 .5.2.5.5s-.2.5-.5.5h-17c-.3 0-.5-.2-.5-.5z"/></defs><clipPath id="SVGID_44_"><use xlink:href="#SVGID_43_" overflow="visible"/></clipPath><path class="st21" d="M173 104h28v11h-28z"/><defs><path id="SVGID_45_" d="M174 119c0-1.1.9-2 2-2h39c1.1 0 2 .9 2 2v9c0 1.1-.9 2-2 2h-39c-1.1 0-2-.9-2-2v-9z"/></defs><clipPath id="SVGID_46_"><use xlink:href="#SVGID_45_" overflow="visible"/></clipPath><path class="st22" d="M174 119c0-1.1.9-2 2-2h39c1.1 0 2 .9 2 2v9c0 1.1-.9 2-2 2h-39c-1.1 0-2-.9-2-2v-9z"/><defs><path id="SVGID_47_" d="M178 120.5c0-.3.2-.5.5-.5h22c.3 0 .5.2.5.5s-.2.5-.5.5h-22c-.3 0-.5-.2-.5-.5z"/></defs><clipPath id="SVGID_48_"><use xlink:href="#SVGID_47_" overflow="visible"/></clipPath><path class="st23" d="M173 115h33v11h-33z"/><defs><path id="SVGID_49_" d="M178 123.5c0-.3.2-.5.5-.5h14c.3 0 .5.2.5.5s-.2.5-.5.5h-14c-.3 0-.5-.2-.5-.5z"/></defs><clipPath id="SVGID_50_"><use xlink:href="#SVGID_49_" overflow="visible"/></clipPath><path class="st24" d="M173 118h25v11h-25z"/><defs><path id="SVGID_51_" d="M178 126.5c0-.3.2-.5.5-.5h17c.3 0 .5.2.5.5s-.2.5-.5.5h-17c-.3 0-.5-.2-.5-.5z"/></defs><clipPath id="SVGID_52_"><use xlink:href="#SVGID_51_" overflow="visible"/></clipPath><path class="st25" d="M173 121h28v11h-28z"/><defs><path id="SVGID_53_" d="M174 136c0-1.1.9-2 2-2h39c1.1 0 2 .9 2 2v9c0 1.1-.9 2-2 2h-39c-1.1 0-2-.9-2-2v-9z"/></defs><clipPath id="SVGID_54_"><use xlink:href="#SVGID_53_" overflow="visible"/></clipPath><path class="st26" d="M174 136c0-1.1.9-2 2-2h39c1.1 0 2 .9 2 2v9c0 1.1-.9 2-2 2h-39c-1.1 0-2-.9-2-2v-9z"/><defs><path id="SVGID_55_" d="M178 137.5c0-.3.2-.5.5-.5h22c.3 0 .5.2.5.5s-.2.5-.5.5h-22c-.3 0-.5-.2-.5-.5z"/></defs><clipPath id="SVGID_56_"><use xlink:href="#SVGID_55_" overflow="visible"/></clipPath><path class="st27" d="M173 132h33v11h-33z"/><defs><path id="SVGID_57_" d="M178 140.5c0-.3.2-.5.5-.5h14c.3 0 .5.2.5.5s-.2.5-.5.5h-14c-.3 0-.5-.2-.5-.5z"/></defs><clipPath id="SVGID_58_"><use xlink:href="#SVGID_57_" overflow="visible"/></clipPath><path class="st28" d="M173 135h25v11h-25z"/><defs><path id="SVGID_59_" d="M178 143.5c0-.3.2-.5.5-.5h17c.3 0 .5.2.5.5s-.2.5-.5.5h-17c-.3 0-.5-.2-.5-.5z"/></defs><clipPath id="SVGID_60_"><use xlink:href="#SVGID_59_" overflow="visible"/></clipPath><path class="st29" d="M173 138h28v11h-28z"/><defs><path id="SVGID_61_" d="M174 153c0-1.1.9-2 2-2h39c1.1 0 2 .9 2 2v10h-43v-10z"/></defs><clipPath id="SVGID_62_"><use xlink:href="#SVGID_61_" overflow="visible"/></clipPath><path class="st30" d="M174 153c0-1.1.9-2 2-2h39c1.1 0 2 .9 2 2v10h-43v-10z"/><defs><path id="SVGID_63_" d="M178 154.5c0-.3.2-.5.5-.5h22c.3 0 .5.2.5.5s-.2.5-.5.5h-22c-.3 0-.5-.2-.5-.5z"/></defs><clipPath id="SVGID_64_"><use xlink:href="#SVGID_63_" overflow="visible"/></clipPath><path class="st31" d="M173 149h33v11h-33z"/><defs><path id="SVGID_65_" d="M178 157.5c0-.3.2-.5.5-.5h14c.3 0 .5.2.5.5s-.2.5-.5.5h-14c-.3 0-.5-.2-.5-.5z"/></defs><clipPath id="SVGID_66_"><use xlink:href="#SVGID_65_" overflow="visible"/></clipPath><path class="st32" d="M173 152h25v11h-25z"/><defs><path id="SVGID_67_" d="M178 160.5c0-.3.2-.5.5-.5h17c.3 0 .5.2.5.5s-.2.5-.5.5h-17c-.3 0-.5-.2-.5-.5z"/></defs><clipPath id="SVGID_68_"><use xlink:href="#SVGID_67_" overflow="visible"/></clipPath><path class="st33" d="M173 155h28v11h-28z"/><defs><path id="SVGID_69_" d="M77 82c0-1.1.9-2 2-2h86c1.1 0 2 .9 2 2v27c0 1.1-.9 2-2 2H79c-1.1 0-2-.9-2-2V82z"/></defs><clipPath id="SVGID_70_"><use xlink:href="#SVGID_69_" overflow="visible"/></clipPath><path class="st34" d="M77 82c0-1.1.9-2 2-2h86c1.1 0 2 .9 2 2v27c0 1.1-.9 2-2 2H79c-1.1 0-2-.9-2-2V82z"/><defs><path id="SVGID_71_" d="M67 16h153v147H67z"/></defs><clipPath id="SVGID_72_"><use xlink:href="#SVGID_71_" overflow="visible"/></clipPath><path class="st35" d="M67 16h153v147H67z"/><defs><path id="SVGID_73_" d="M67 16h7v147h-7z"/></defs><clipPath id="SVGID_74_"><use xlink:href="#SVGID_73_" overflow="visible"/></clipPath><path class="st36" d="M62 11h17v157H62z"/><defs><path id="SVGID_75_" d="M111 58.9L76.8 70.5l-2.9 1h93.5V41.2l-.7.4-21.3 10.9h.1L111 58.9zm.3 1l34.5-6.5h.1l21.3-10.9-.7-.4v29l.5-.5H77l.2 1 34.1-11.7zM54 21.2h133.5v70.3H54V21.2z"/></defs><clipPath id="SVGID_76_"><use xlink:href="#SVGID_75_" overflow="visible"/></clipPath><g class="st37"><defs><path id="SVGID_77_" d="M111.2 59.4l34.5-6.5L167 42v29H77z"/></defs><clipPath id="SVGID_78_"><use xlink:href="#SVGID_77_" overflow="visible"/></clipPath><path class="st38" d="M111.2 59.4l34.5-6.5L167 42v29H77z"/></g><defs><path id="SVGID_79_" d="M111.2 59.4l34.5-6.5L167 42v29H77z"/></defs><clipPath id="SVGID_80_"><use xlink:href="#SVGID_79_" overflow="visible"/></clipPath><path class="st39" d="M111.2 59.4l34.5-6.5L167 42v29H77z"/><path class="st40" d="M77.5 35.5h88"/><defs><path id="SVGID_81_" d="M79 30.5c0-.3.2-.5.5-.5h19c.3 0 .5.2.5.5s-.2.5-.5.5h-19c-.3 0-.5-.2-.5-.5z"/></defs><clipPath id="SVGID_82_"><use xlink:href="#SVGID_81_" overflow="visible"/></clipPath><path class="st41" d="M74 25h30v11H74z"/><defs><path id="SVGID_83_" d="M81 84.5c0-.3.2-.5.5-.5h19c.3 0 .5.2.5.5s-.2.5-.5.5h-19c-.3 0-.5-.2-.5-.5z"/></defs><clipPath id="SVGID_84_"><use xlink:href="#SVGID_83_" overflow="visible"/></clipPath><path class="st42" d="M76 79h30v11H76z"/><defs><path id="SVGID_85_" d="M81 107.5c0-.3.2-.5.5-.5h8c.3 0 .5.2.5.5s-.2.5-.5.5h-8c-.3 0-.5-.2-.5-.5z"/></defs><clipPath id="SVGID_86_"><use xlink:href="#SVGID_85_" overflow="visible"/></clipPath><path class="st43" d="M76 102h19v11H76z"/><defs><path id="SVGID_87_" d="M109 89.5c0-.3.2-.5.5-.5h19c.3 0 .5.2.5.5s-.2.5-.5.5h-19c-.3 0-.5-.2-.5-.5z"/></defs><clipPath id="SVGID_88_"><use xlink:href="#SVGID_87_" overflow="visible"/></clipPath><path class="st44" d="M104 84h30v11h-30z"/><defs><path id="SVGID_89_" d="M109 94.5c0-.3.2-.5.5-.5h32c.3 0 .5.2.5.5s-.2.5-.5.5h-32c-.3 0-.5-.2-.5-.5z"/></defs><clipPath id="SVGID_90_"><use xlink:href="#SVGID_89_" overflow="visible"/></clipPath><path class="st45" d="M104 89h43v11h-43z"/><defs><path id="SVGID_91_" d="M109 96.5c0-.3.2-.5.5-.5h29c.3 0 .5.2.5.5s-.2.5-.5.5h-29c-.3 0-.5-.2-.5-.5z"/></defs><clipPath id="SVGID_92_"><use xlink:href="#SVGID_91_" overflow="visible"/></clipPath><path class="st46" d="M104 91h40v11h-40z"/><defs><path id="SVGID_93_" d="M109 98.5c0-.3.2-.5.5-.5h34c.3 0 .5.2.5.5s-.2.5-.5.5h-34c-.3 0-.5-.2-.5-.5z"/></defs><clipPath id="SVGID_94_"><use xlink:href="#SVGID_93_" overflow="visible"/></clipPath><path class="st47" d="M104 93h45v11h-45z"/><defs><path id="SVGID_95_" d="M81 91c0-1.1.9-2 2-2h21c1.1 0 2 .9 2 2v11c0 1.1-.9 2-2 2H83c-1.1 0-2-.9-2-2V91z"/></defs><clipPath id="SVGID_96_"><use xlink:href="#SVGID_95_" overflow="visible"/></clipPath><path class="st48" d="M76 84h35v25H76z"/><defs><path id="SVGID_97_" d="M79 32.5c0-.3.2-.5.5-.5h22c.3 0 .5.2.5.5s-.2.5-.5.5h-22c-.3 0-.5-.2-.5-.5z"/></defs><clipPath id="SVGID_98_"><use xlink:href="#SVGID_97_" overflow="visible"/></clipPath><path class="st49" d="M74 27h33v11H74z"/><defs><path id="SVGID_99_" d="M82 73.5c0-.3.2-.5.5-.5h2c.3 0 .5.2.5.5s-.2.5-.5.5h-2c-.3 0-.5-.2-.5-.5z"/></defs><clipPath id="SVGID_100_"><use xlink:href="#SVGID_99_" overflow="visible"/></clipPath><path class="st50" d="M77 68h13v11H77z"/><defs><path id="SVGID_101_" d="M110 73.5c0-.3.2-.5.5-.5h2c.3 0 .5.2.5.5s-.2.5-.5.5h-2c-.3 0-.5-.2-.5-.5z"/></defs><clipPath id="SVGID_102_"><use xlink:href="#SVGID_101_" overflow="visible"/></clipPath><path class="st51" d="M105 68h13v11h-13z"/><defs><path id="SVGID_103_" d="M138 73.5c0-.3.2-.5.5-.5h2c.3 0 .5.2.5.5s-.2.5-.5.5h-2c-.3 0-.5-.2-.5-.5z"/></defs><clipPath id="SVGID_104_"><use xlink:href="#SVGID_103_" overflow="visible"/></clipPath><path class="st52" d="M133 68h13v11h-13z"/><defs><path id="SVGID_105_" d="M105 32.5c0-.3.2-.5.5-.5h22c.3 0 .5.2.5.5s-.2.5-.5.5h-22c-.3 0-.5-.2-.5-.5z"/></defs><clipPath id="SVGID_106_"><use xlink:href="#SVGID_105_" overflow="visible"/></clipPath><path class="st53" d="M100 27h33v11h-33z"/><defs><path id="SVGID_107_" d="M131 32.5c0-.3.2-.5.5-.5h22c.3 0 .5.2.5.5s-.2.5-.5.5h-22c-.3 0-.5-.2-.5-.5z"/></defs><clipPath id="SVGID_108_"><use xlink:href="#SVGID_107_" overflow="visible"/></clipPath><path class="st54" d="M126 27h33v11h-33z"/><circle class="st55" cx="162.5" cy="31.5" r="1.5"/><path class="st40" d="M77.5 49.5h88m-88 13h88m-88 8h88"/><defs><path id="SVGID_109_" d="M79.4 20.4c.2-.2.4-.3.7-.3.4 0 .7.2.9.5.2-.1.3-.1.5-.1.7 0 1.2.6 1.2 1.2 0 .7-.5 1.2-1.2 1.2h-.2c-.2.3-.4.5-.8.5-.1 0-.3 0-.4-.1-.2.4-.5.6-.9.6s-.8-.3-1-.7H78c-.5 0-.9-.4-.9-1 0-.4.2-.7.5-.8-.1-.1-.1-.3-.1-.4 0-.6.5-1.1 1.1-1.1.2.1.6.3.8.5"/></defs><clipPath id="SVGID_110_"><use xlink:href="#SVGID_109_" overflow="visible"/></clipPath><path class="st56" d="M72 15h15.7v14H72z"/><defs><path id="SVGID_111_" d="M81 119.5c0-.3.2-.5.5-.5h19c.3 0 .5.2.5.5s-.2.5-.5.5h-19c-.3 0-.5-.2-.5-.5z"/></defs><clipPath id="SVGID_112_"><use xlink:href="#SVGID_111_" overflow="visible"/></clipPath><path class="st57" d="M76 114h30v11H76z"/><defs><path id="SVGID_113_" d="M88 124.5c0-.3.2-.5.5-.5h23c.3 0 .5.2.5.5s-.2.5-.5.5h-23c-.3 0-.5-.2-.5-.5z"/></defs><clipPath id="SVGID_114_"><use xlink:href="#SVGID_113_" overflow="visible"/></clipPath><path class="st58" d="M83 119h34v11H83z"/><defs><circle id="SVGID_115_" cx="83" cy="125" r="2"/></defs><clipPath id="SVGID_116_"><use xlink:href="#SVGID_115_" overflow="visible"/></clipPath><path class="st59" d="M76 118h14v14H76z"/><defs><path id="SVGID_117_" d="M88 131.5c0-.3.2-.5.5-.5h23c.3 0 .5.2.5.5s-.2.5-.5.5h-23c-.3 0-.5-.2-.5-.5z"/></defs><clipPath id="SVGID_118_"><use xlink:href="#SVGID_117_" overflow="visible"/></clipPath><path class="st60" d="M83 126h34v11H83z"/><defs><circle id="SVGID_119_" cx="83" cy="132" r="2"/></defs><clipPath id="SVGID_120_"><use xlink:href="#SVGID_119_" overflow="visible"/></clipPath><path class="st61" d="M76 125h14v14H76z"/><defs><path id="SVGID_121_" d="M88 138.5c0-.3.2-.5.5-.5h23c.3 0 .5.2.5.5s-.2.5-.5.5h-23c-.3 0-.5-.2-.5-.5z"/></defs><clipPath id="SVGID_122_"><use xlink:href="#SVGID_121_" overflow="visible"/></clipPath><path class="st62" d="M83 133h34v11H83z"/><defs><circle id="SVGID_123_" cx="83" cy="139" r="2"/></defs><clipPath id="SVGID_124_"><use xlink:href="#SVGID_123_" overflow="visible"/></clipPath><path class="st63" d="M76 132h14v14H76z"/><defs><path id="SVGID_125_" d="M88 145.5c0-.3.2-.5.5-.5h23c.3 0 .5.2.5.5s-.2.5-.5.5h-23c-.3 0-.5-.2-.5-.5z"/></defs><clipPath id="SVGID_126_"><use xlink:href="#SVGID_125_" overflow="visible"/></clipPath><path class="st64" d="M83 140h34v11H83z"/><defs><circle id="SVGID_127_" cx="83" cy="146" r="2"/></defs><clipPath id="SVGID_128_"><use xlink:href="#SVGID_127_" overflow="visible"/></clipPath><path class="st65" d="M76 139h14v14H76z"/><defs><path id="SVGID_129_" d="M88 152.5c0-.3.2-.5.5-.5h23c.3 0 .5.2.5.5s-.2.5-.5.5h-23c-.3 0-.5-.2-.5-.5z"/></defs><clipPath id="SVGID_130_"><use xlink:href="#SVGID_129_" overflow="visible"/></clipPath><path class="st66" d="M83 147h34v11H83z"/><defs><circle id="SVGID_131_" cx="83" cy="153" r="2"/></defs><clipPath id="SVGID_132_"><use xlink:href="#SVGID_131_" overflow="visible"/></clipPath><path class="st67" d="M76 146h14v14H76z"/><defs><path id="SVGID_133_" d="M77 117c0-1.1.9-2 2-2h39c1.1 0 2 .9 2 2v40c0 1.1-.9 2-2 2H79c-1.1 0-2-.9-2-2v-40z"/></defs><clipPath id="SVGID_134_"><use xlink:href="#SVGID_133_" overflow="visible"/></clipPath><path class="st68" d="M77 117c0-1.1.9-2 2-2h39c1.1 0 2 .9 2 2v40c0 1.1-.9 2-2 2H79c-1.1 0-2-.9-2-2v-40z"/><defs><path id="SVGID_135_" d="M128 119.5c0-.3.2-.5.5-.5h19c.3 0 .5.2.5.5s-.2.5-.5.5h-19c-.3 0-.5-.2-.5-.5z"/></defs><clipPath id="SVGID_136_"><use xlink:href="#SVGID_135_" overflow="visible"/></clipPath><path class="st69" d="M123 114h30v11h-30z"/><g><defs><path id="SVGID_137_" d="M135 124.5c0-.3.2-.5.5-.5h23c.3 0 .5.2.5.5s-.2.5-.5.5h-23c-.3 0-.5-.2-.5-.5z"/></defs><clipPath id="SVGID_138_"><use xlink:href="#SVGID_137_" overflow="visible"/></clipPath><path class="st70" d="M130 119h34v11h-34z"/></g><g><defs><circle id="SVGID_139_" cx="130" cy="125" r="2"/></defs><clipPath id="SVGID_140_"><use xlink:href="#SVGID_139_" overflow="visible"/></clipPath><path class="st71" d="M123 118h14v14h-14z"/></g><g><defs><path id="SVGID_141_" d="M135 131.5c0-.3.2-.5.5-.5h23c.3 0 .5.2.5.5s-.2.5-.5.5h-23c-.3 0-.5-.2-.5-.5z"/></defs><clipPath id="SVGID_142_"><use xlink:href="#SVGID_141_" overflow="visible"/></clipPath><path class="st72" d="M130 126h34v11h-34z"/></g><g><defs><circle id="SVGID_143_" cx="130" cy="132" r="2"/></defs><clipPath id="SVGID_144_"><use xlink:href="#SVGID_143_" overflow="visible"/></clipPath><path class="st73" d="M123 125h14v14h-14z"/></g><g><defs><path id="SVGID_145_" d="M135 138.5c0-.3.2-.5.5-.5h23c.3 0 .5.2.5.5s-.2.5-.5.5h-23c-.3 0-.5-.2-.5-.5z"/></defs><clipPath id="SVGID_146_"><use xlink:href="#SVGID_145_" overflow="visible"/></clipPath><path class="st74" d="M130 133h34v11h-34z"/></g><g><defs><circle id="SVGID_147_" cx="130" cy="139" r="2"/></defs><clipPath id="SVGID_148_"><use xlink:href="#SVGID_147_" overflow="visible"/></clipPath><path class="st75" d="M123 132h14v14h-14z"/></g><g><defs><path id="SVGID_149_" d="M135 145.5c0-.3.2-.5.5-.5h23c.3 0 .5.2.5.5s-.2.5-.5.5h-23c-.3 0-.5-.2-.5-.5z"/></defs><clipPath id="SVGID_150_"><use xlink:href="#SVGID_149_" overflow="visible"/></clipPath><path class="st76" d="M130 140h34v11h-34z"/></g><g><defs><circle id="SVGID_151_" cx="130" cy="146" r="2"/></defs><clipPath id="SVGID_152_"><use xlink:href="#SVGID_151_" overflow="visible"/></clipPath><path class="st77" d="M123 139h14v14h-14z"/></g><g><defs><path id="SVGID_153_" d="M135 152.5c0-.3.2-.5.5-.5h23c.3 0 .5.2.5.5s-.2.5-.5.5h-23c-.3 0-.5-.2-.5-.5z"/></defs><clipPath id="SVGID_154_"><use xlink:href="#SVGID_153_" overflow="visible"/></clipPath><path class="st78" d="M130 147h34v11h-34z"/></g><g><defs><circle id="SVGID_155_" cx="130" cy="153" r="2"/></defs><clipPath id="SVGID_156_"><use xlink:href="#SVGID_155_" overflow="visible"/></clipPath><path class="st79" d="M123 146h14v14h-14z"/></g><g><defs><path id="SVGID_157_" d="M124 117c0-1.1.9-2 2-2h39c1.1 0 2 .9 2 2v40c0 1.1-.9 2-2 2h-39c-1.1 0-2-.9-2-2v-40z"/></defs><clipPath id="SVGID_158_"><use xlink:href="#SVGID_157_" overflow="visible"/></clipPath><path class="st80" d="M124 117c0-1.1.9-2 2-2h39c1.1 0 2 .9 2 2v40c0 1.1-.9 2-2 2h-39c-1.1 0-2-.9-2-2v-40z"/></g><g><defs><circle id="SVGID_159_" cx="70.5" cy="70.5" r="67.5"/></defs><clipPath id="SVGID_160_"><use xlink:href="#SVGID_159_" overflow="visible"/></clipPath><g class="st81"><defs><path id="SVGID_161_" d="M3 3h135v135H3z"/></defs><clipPath id="SVGID_162_"><use xlink:href="#SVGID_161_" overflow="visible"/></clipPath><g class="st82"><defs><path id="SVGID_163_" d="M3 3h135v135H3z"/></defs><clipPath id="SVGID_164_"><use xlink:href="#SVGID_163_" overflow="visible"/></clipPath><path class="st83" d="M-2-2h145v145H-2z"/></g><g class="st82"><defs><path id="SVGID_165_" d="M9.1 101.3h-.2l-.1.2c-.4.5-.4.5-1.6 2.1-1.2 1.6-1.2 1.6-1.6 2.1l-.6.8h132.5V54.4l-.5.1-26.9 2.7h-.1c-.1 0-.1 0-.6.2-.4.2-1 .3-1.6.6-1.7.6-3.5 1.3-5.5 2-5.7 2.1-11.5 4.2-16.8 6.1-.4.1-.4.1-.8.3-2.7 1-5.3 1.9-7.6 2.8l-.1.1-34.6 27.3.2-.1c-1 .1-1 .1-5.2.7-5.2.7-5.2.7-11.5 1.6s-6.3.9-11.5 1.6c-4.3.7-4.3.7-5.3.9zm.1 1c1-.1 1-.1 5.2-.7 5.2-.7 5.2-.7 11.5-1.6 6.3-.9 6.3-.9 11.5-1.6 4.2-.6 4.2-.6 5.2-.7h.1l.1-.1L77.6 70l-.1.1c2.3-.9 4.9-1.8 7.6-2.8.4-.1.4-.1.8-.3 5.4-2 11.1-4 16.8-6.1 2-.7 3.9-1.4 5.5-2 .6-.2 1.1-.4 1.6-.6l.5-.2h-.1l26.9-2.7-.5-.5v51l.5-.5H6l.4.8c.4-.5.4-.5 1.6-2.1 1.2-1.6 1.2-1.6 1.6-2.1l-.4.3zM-15 34.4h172.5v92.1H-15V34.4z"/></defs><clipPath id="SVGID_166_"><use xlink:href="#SVGID_165_" overflow="visible"/></clipPath><g class="st84"><defs><path id="SVGID_167_" d="M9.2 101.8L42.8 97l34.5-27.4c14.3-5.3 32.9-11.9 32.9-11.9L137 55v51H6l3.2-4.2z"/></defs><clipPath id="SVGID_168_"><use xlink:href="#SVGID_167_" overflow="visible"/></clipPath><g class="st85"><defs><path id="SVGID_169_" d="M3 3h135v135H3z"/></defs><clipPath id="SVGID_170_"><use xlink:href="#SVGID_169_" overflow="visible"/></clipPath><path class="st86" d="M9.2 101.8L42.8 97l34.5-27.4c14.3-5.3 32.9-11.9 32.9-11.9L137 55v51H6l3.2-4.2z"/></g></g></g><g class="st82"><defs><path id="SVGID_171_" d="M9.2 101.8L42.8 97l34.5-27.4c14.3-5.3 32.9-11.9 32.9-11.9L137 55v51H6l3.2-4.2z"/></defs><clipPath id="SVGID_172_"><use xlink:href="#SVGID_171_" overflow="visible"/></clipPath><g class="st87"><defs><path id="SVGID_173_" d="M3 3h135v135H3z"/></defs><clipPath id="SVGID_174_"><use xlink:href="#SVGID_173_" overflow="visible"/></clipPath><path class="st88" d="M9.2 101.8L42.8 97l34.5-27.4c14.3-5.3 32.9-11.9 32.9-11.9L137 55v51H6l3.2-4.2z"/></g></g><g class="st82"><defs><path id="SVGID_175_" d="M3 3h135v135H3z"/></defs><clipPath id="SVGID_176_"><use xlink:href="#SVGID_175_" overflow="visible"/></clipPath><path class="st89" d="M10.5 45.2h122m-122-4h122m-122-18h123m-123-8h122"/><path class="st90" d="M24.2 45.5v60m61-60v60"/></g><g class="st82"><defs><path id="SVGID_177_" d="M27 36c0-.6.5-1 1-1h6c.6 0 1 .4 1 1s-.5 1-1 1h-6c-.6 0-1-.4-1-1z"/></defs><clipPath id="SVGID_178_"><use xlink:href="#SVGID_177_" overflow="visible"/></clipPath><g class="st91"><defs><path id="SVGID_179_" d="M3 3h135v135H3z"/></defs><clipPath id="SVGID_180_"><use xlink:href="#SVGID_179_" overflow="visible"/></clipPath><path class="st92" d="M22 30h18v12H22z"/></g></g><g class="st82"><defs><path id="SVGID_181_" d="M41 11c0-.6.5-1 1-1h6c.6 0 1 .4 1 1s-.5 1-1 1h-6c-.6 0-1-.4-1-1z"/></defs><clipPath id="SVGID_182_"><use xlink:href="#SVGID_181_" overflow="visible"/></clipPath><g class="st93"><defs><path id="SVGID_183_" d="M3 3h135v135H3z"/></defs><clipPath id="SVGID_184_"><use xlink:href="#SVGID_183_" overflow="visible"/></clipPath><path class="st94" d="M36 5h18v12H36z"/></g></g><g class="st82"><defs><path id="SVGID_185_" d="M22 108c0-.6.4-1 1-1h3c.6 0 1 .4 1 1s-.4 1-1 1h-3c-.6 0-1-.4-1-1z"/></defs><clipPath id="SVGID_186_"><use xlink:href="#SVGID_185_" overflow="visible"/></clipPath><g class="st95"><defs><path id="SVGID_187_" d="M3 3h135v135H3z"/></defs><clipPath id="SVGID_188_"><use xlink:href="#SVGID_187_" overflow="visible"/></clipPath><path class="st96" d="M17 102h15v12H17z"/></g></g><g class="st82"><defs><path id="SVGID_189_" d="M20 113c0-.6.4-1 1-1h7c.6 0 1 .4 1 1s-.4 1-1 1h-7c-.6 0-1-.4-1-1z"/></defs><clipPath id="SVGID_190_"><use xlink:href="#SVGID_189_" overflow="visible"/></clipPath><g class="st97"><defs><path id="SVGID_191_" d="M3 3h135v135H3z"/></defs><clipPath id="SVGID_192_"><use xlink:href="#SVGID_191_" overflow="visible"/></clipPath><path class="st98" d="M15 107h19v12H15z"/></g></g><g class="st82"><defs><path id="SVGID_193_" d="M40 113c0-.6.5-1 1-1h4c.5 0 1 .4 1 1s-.5 1-1 1h-4c-.6 0-1-.4-1-1z"/></defs><clipPath id="SVGID_194_"><use xlink:href="#SVGID_193_" overflow="visible"/></clipPath><g class="st99"><defs><path id="SVGID_195_" d="M3 3h135v135H3z"/></defs><clipPath id="SVGID_196_"><use xlink:href="#SVGID_195_" overflow="visible"/></clipPath><path class="st100" d="M35 107h16v12H35z"/></g></g><g class="st82"><defs><path id="SVGID_197_" d="M56 113c0-.6.4-1 1-1h28c.6 0 1 .4 1 1s-.4 1-1 1H57c-.6 0-1-.4-1-1z"/></defs><clipPath id="SVGID_198_"><use xlink:href="#SVGID_197_" overflow="visible"/></clipPath><g class="st101"><defs><path id="SVGID_199_" d="M3 3h135v135H3z"/></defs><clipPath id="SVGID_200_"><use xlink:href="#SVGID_199_" overflow="visible"/></clipPath><path class="st102" d="M51 107h40v12H51z"/></g></g><g class="st82"><defs><path id="SVGID_201_" d="M36 112h2v2h-2z"/></defs><clipPath id="SVGID_202_"><use xlink:href="#SVGID_201_" overflow="visible"/></clipPath><g class="st103"><defs><path id="SVGID_203_" d="M3 3h135v135H3z"/></defs><clipPath id="SVGID_204_"><use xlink:href="#SVGID_203_" overflow="visible"/></clipPath><path class="st104" d="M31 107h12v12H31z"/></g></g><g class="st82"><defs><path id="SVGID_205_" d="M52 112h2v2h-2z"/></defs><clipPath id="SVGID_206_"><use xlink:href="#SVGID_205_" overflow="visible"/></clipPath><g class="st105"><defs><path id="SVGID_207_" d="M3 3h135v135H3z"/></defs><clipPath id="SVGID_208_"><use xlink:href="#SVGID_207_" overflow="visible"/></clipPath><path class="st106" d="M47 107h12v12H47z"/></g></g><g class="st82"><defs><path id="SVGID_209_" d="M83 108c0-.6.4-1 1-1h3c.6 0 1 .4 1 1s-.4 1-1 1h-3c-.6 0-1-.4-1-1z"/></defs><clipPath id="SVGID_210_"><use xlink:href="#SVGID_209_" overflow="visible"/></clipPath><g class="st107"><defs><path id="SVGID_211_" d="M3 3h135v135H3z"/></defs><clipPath id="SVGID_212_"><use xlink:href="#SVGID_211_" overflow="visible"/></clipPath><path class="st108" d="M78 102h15v12H78z"/></g></g><g class="st82"><defs><path id="SVGID_213_" d="M106 30c0-.6.5-1 1-1h17c.5 0 1 .4 1 1s-.5 1-1 1h-17c-.6 0-1-.4-1-1z"/></defs><clipPath id="SVGID_214_"><use xlink:href="#SVGID_213_" overflow="visible"/></clipPath><g class="st109"><defs><path id="SVGID_215_" d="M3 3h135v135H3z"/></defs><clipPath id="SVGID_216_"><use xlink:href="#SVGID_215_" overflow="visible"/></clipPath><path class="st110" d="M101 24h29v12h-29z"/></g></g><g class="st82"><defs><path id="SVGID_217_" d="M36 35.5c0-.8.7-1.5 1.5-1.5h14c.8 0 1.5.7 1.5 1.5s-.7 1.5-1.5 1.5h-14c-.8 0-1.5-.7-1.5-1.5z"/></defs><clipPath id="SVGID_218_"><use xlink:href="#SVGID_217_" overflow="visible"/></clipPath><g class="st111"><defs><path id="SVGID_219_" d="M3 3h135v135H3z"/></defs><clipPath id="SVGID_220_"><use xlink:href="#SVGID_219_" overflow="visible"/></clipPath><path class="st112" d="M31 29h27v13H31z"/></g></g><g class="st82"><defs><path id="SVGID_221_" d="M52 10.5c0-.8.7-1.5 1.5-1.5h23c.8 0 1.5.7 1.5 1.5s-.7 1.5-1.5 1.5h-23c-.8 0-1.5-.7-1.5-1.5z"/></defs><clipPath id="SVGID_222_"><use xlink:href="#SVGID_221_" overflow="visible"/></clipPath><g class="st113"><defs><path id="SVGID_223_" d="M3 3h135v135H3z"/></defs><clipPath id="SVGID_224_"><use xlink:href="#SVGID_223_" overflow="visible"/></clipPath><path class="st114" d="M47 4h36v13H47z"/></g></g><g class="st82"><defs><path id="SVGID_225_" d="M14 35.5c0-.8.7-1.5 1.5-1.5h5c.8 0 1.5.7 1.5 1.5s-.7 1.5-1.5 1.5h-5c-.8 0-1.5-.7-1.5-1.5z"/></defs><clipPath id="SVGID_226_"><use xlink:href="#SVGID_225_" overflow="visible"/></clipPath><g class="st115"><defs><path id="SVGID_227_" d="M3 3h135v135H3z"/></defs><clipPath id="SVGID_228_"><use xlink:href="#SVGID_227_" overflow="visible"/></clipPath><path class="st116" d="M9 29h18v13H9z"/></g></g><g class="st82"><defs><path id="SVGID_229_" d="M3 3h135v135H3z"/></defs><clipPath id="SVGID_230_"><use xlink:href="#SVGID_229_" overflow="visible"/></clipPath><path class="st117" d="M7 53.2h128M4 71.2h132m-132 8h132m-132 9h132m-132 8h132"/><path class="st118" d="M13 105.4h115"/><path class="st119" d="M13 117.2h115m-115 6h115"/><path class="st120" d="M5.5 62.5h130"/><path class="st121" d="M6.5 83.5h128"/></g></g></g><circle class="st122" cx="70.5" cy="70.5" r="67.5"/><g><defs><circle id="SVGID_231_" cx="70.5" cy="70.5" r="67.5"/></defs><clipPath id="SVGID_232_"><use xlink:href="#SVGID_231_" overflow="visible"/></clipPath><g class="st123"><defs><path id="SVGID_233_" d="M3 3h135v135H3z"/></defs><clipPath id="SVGID_234_"><use xlink:href="#SVGID_233_" overflow="visible"/></clipPath><g class="st124"><defs><path id="SVGID_235_" d="M3 3h135v135H3z"/></defs><clipPath id="SVGID_236_"><use xlink:href="#SVGID_235_" overflow="visible"/></clipPath><circle class="st125" cx="70.5" cy="70.5" r="67.5"/></g></g></g></svg>