<svg id="Layer_1" xmlns="http://www.w3.org/2000/svg" xmlns:xlink="http://www.w3.org/1999/xlink" width="160.1" height="174.2"><style>.st0{clip-path:url(#SVGID_2_);fill:#F7B64B;} .st1{clip-path:url(#SVGID_4_);fill:#FFFFFF;} .st2{clip-path:url(#SVGID_6_);fill:#FFFFFF;} .st3{clip-path:url(#SVGID_8_);fill:#ED6F67;} .st4{clip-path:url(#SVGID_10_);fill:#FFFFFF;} .st5{clip-path:url(#SVGID_12_);fill:#FFFFFF;} .st6{clip-path:url(#SVGID_14_);fill:#2ECBBE;} .st7{clip-path:url(#SVGID_16_);fill:#FFFFFF;} .st8{clip-path:url(#SVGID_18_);fill:#62B7ED;} .st9{clip-path:url(#SVGID_20_);fill:#FFFFFF;} .st10{clip-path:url(#SVGID_22_);fill:#FFFFFF;} .st11{clip-path:url(#SVGID_24_);fill:#5876A3;} .st12{clip-path:url(#SVGID_26_);fill:#5876A3;} .st13{clip-path:url(#SVGID_28_);fill:#5876A3;} .st14{clip-path:url(#SVGID_30_);fill:#5876A3;}</style><defs><path id="SVGID_1_" d="M55.1 50h-42c-2.2 0-4-1.8-4-4V4c0-2.2 1.8-4 4-4h42c2.2 0 4 1.8 4 4v42c0 2.2-1.8 4-4 4"/></defs><clipPath id="SVGID_2_"><use xlink:href="#SVGID_1_" overflow="visible"/></clipPath><path class="st0" d="M4.1-5h60v60h-60z"/><defs><path id="SVGID_3_" d="M44.7 34.5H23.6c-.5 0-1 .4-1 .9v.1c0 1.7 1.3 3 3 3h17c1.7 0 3-1.4 3-3v-.1c0-.5-.4-.9-.9-.9"/></defs><clipPath id="SVGID_4_"><use xlink:href="#SVGID_3_" overflow="visible"/></clipPath><path class="st1" d="M17.6 29.5h33v14h-33z"/><defs><path id="SVGID_5_" d="M47.1 14c-1.7 0-3 1.3-3 3 0 .9.4 1.7 1.1 2.3-.8 2-2.8 3.3-5.1 3.2-2.6-.1-4.8-2.3-4.9-5 0-.4 0-.8.1-1.2 1.1-.4 1.9-1.5 1.9-2.8 0-1.7-1.3-3-3-3s-3 1.3-3 3c0 1.3.8 2.4 1.9 2.8.1.4.1.8.1 1.2-.1 2.6-2.3 4.8-4.9 5-2.3.1-4.3-1.2-5.1-3.2.7-.6 1.1-1.4 1.1-2.3 0-1.7-1.3-3-3-3s-3 1.3-3 3 1.3 3 3 3l1.4 10.7c.1.5.5.8.9.8h21.3c.5 0 .9-.3.9-.8L47.1 20c1.7 0 3-1.3 3-3s-1.3-3-3-3"/></defs><clipPath id="SVGID_6_"><use xlink:href="#SVGID_5_" overflow="visible"/></clipPath><path class="st2" d="M13.1 5.5h42v31h-42z"/><defs><path id="SVGID_7_" d="M55.6 152h-42c-2.2 0-4-1.8-4-4v-42c0-2.2 1.8-4 4-4h42c2.2 0 4 1.8 4 4v42c0 2.2-1.8 4-4 4"/></defs><clipPath id="SVGID_8_"><use xlink:href="#SVGID_7_" overflow="visible"/></clipPath><path class="st3" d="M4.6 97h60v60h-60z"/><defs><path id="SVGID_9_" d="M34.6 116c6.1 0 11 4.9 11 11 0 .5 0 1-.1 1.5H41c-.5 0-.9.4-1 .8-.4 2.6-2.7 4.7-5.4 4.7s-5-2-5.4-4.7c-.1-.5-.5-.8-1-.8h-4.5c-.1-.5-.1-1-.1-1.5 0-6.1 5-11 11-11zm0-4c-8.3 0-15 6.7-15 15s6.7 15 15 15 15-6.7 15-15-6.7-15-15-15z"/></defs><clipPath id="SVGID_10_"><use xlink:href="#SVGID_9_" overflow="visible"/></clipPath><path class="st4" d="M14.6 107h40v40h-40z"/><defs><path id="SVGID_11_" d="M33.5 130.7c1.2.6 2.7.2 3.4-1 .9-1.8 2.7-9.4 2.3-9.7s-5.8 5.6-6.7 7.3c-.7 1.3-.3 2.8 1 3.4"/></defs><clipPath id="SVGID_12_"><use xlink:href="#SVGID_11_" overflow="visible"/></clipPath><path class="st5" d="M27.1 115h17.1v21H27.1z"/><defs><path id="SVGID_13_" d="M156.1 152h-42c-2.2 0-4-1.8-4-4v-42c0-2.2 1.8-4 4-4h42c2.2 0 4 1.8 4 4v42c0 2.2-1.8 4-4 4"/></defs><clipPath id="SVGID_14_"><use xlink:href="#SVGID_13_" overflow="visible"/></clipPath><path class="st6" d="M105.1 97h60v60h-60z"/><defs><path id="SVGID_15_" d="M134.6 138c-.2 0-.5 0-.7-.2-.4-.2-.7-.6-.8-1.1l-3.9-15.6-3.2 7.5c-.2.5-.8.9-1.4.9h-4.5c-.6 0-1-.4-1-1v-1c0-.6.4-1 1-1h3.5l4.6-10.6c.3-.6.9-1 1.5-.9.6.1 1.2.5 1.3 1.1l4 15.8 5.2-11.6c.3-.6.9-.9 1.5-.9.6.1 1.1.5 1.3 1l2.6 6h4.5c.6 0 1 .4 1 1v1c0 .6-.4 1-1 1h-5.5c-.6 0-1.1-.4-1.4-.9l-1.7-3.9-5.6 12.4c-.2.7-.7 1-1.3 1"/></defs><clipPath id="SVGID_16_"><use xlink:href="#SVGID_15_" overflow="visible"/></clipPath><path class="st7" d="M114.1 110h42v33h-42z"/><defs><path id="SVGID_17_" d="M156.1 50h-42c-2.2 0-4-1.8-4-4V4c0-2.2 1.8-4 4-4h42c2.2 0 4 1.8 4 4v42c0 2.2-1.8 4-4 4"/></defs><clipPath id="SVGID_18_"><use xlink:href="#SVGID_17_" overflow="visible"/></clipPath><path class="st8" d="M105.1-5h60v60h-60z"/><defs><path id="SVGID_19_" d="M150.1 35.6V37c0 1.7-1.3 3-3 3h-24c-1.7 0-3-1.3-3-3v-1.4c0-3.7 4.3-5.9 8.3-7.6.1-.1.3-.1.4-.2.3-.1.7-.1 1 .1 1.6 1 3.4 1.6 5.4 1.6s3.8-.6 5.4-1.6c.3-.2.6-.2 1-.1.1.1.3.1.4.2 3.9 1.8 8.1 3.9 8.1 7.6"/></defs><clipPath id="SVGID_20_"><use xlink:href="#SVGID_19_" overflow="visible"/></clipPath><path class="st9" d="M115.1 22.7h40V45h-40z"/><defs><path id="SVGID_21_" d="M135.1 26.5c4.1 0 7.5-3.7 7.5-8.2s-3.3-8.2-7.5-8.2-7.5 3.7-7.5 8.2 3.4 8.2 7.5 8.2"/></defs><clipPath id="SVGID_22_"><use xlink:href="#SVGID_21_" overflow="visible"/></clipPath><path class="st10" d="M122.7 5h24.9v26.5h-24.9z"/><defs><path id="SVGID_23_" d="M65.1 72.5c-.2.6-.4 1-.7 1.2-.3.3-.7.4-1.2.4-.3 0-.6 0-.9-.1l.2-.8c.2 0 .3.1.5.1.3 0 .5-.1.7-.3s.3-.4.4-.8l.4-1.2-2.4-6.1h1.1l1.8 5 1.6-5h1l-2.5 7.6zm-4.9-7.6h1.6v.8h-1.6v3.7c0 .7.3 1 .9 1 .2 0 .4 0 .6-.1l.2.8c-.3.1-.6.2-.9.2-.5 0-1-.2-1.3-.4-.3-.3-.5-.7-.5-1.3v-3.8h-1.1V65l1.1-.1v-1.5l1-.4v1.9zm-4.5-2.1c0-.4.2-.6.7-.6.4 0 .7.2.7.6 0 .2-.1.3-.2.4-.1.1-.3.2-.5.2s-.4-.1-.5-.2c-.1-.1-.2-.2-.2-.4zm1.2 8.2h-1v-6.1h1V71zm-8.4-4.7c0-.4 0-.9-.1-1.4h1c0 .2.1.5.1.9.2-.3.5-.6.8-.8.4-.2.8-.3 1.3-.3.8 0 1.3.2 1.7.7.4.4.6 1 .6 1.7V71h-1v-3.7c0-.5-.1-.9-.4-1.2-.2-.3-.6-.5-1.2-.5s-1 .2-1.3.5-.5.8-.5 1.4V71h-1v-4.7zM41 68.6v-3.7h1v3.6c0 .6.1 1 .4 1.4.2.3.6.5 1.1.5.6 0 1-.2 1.3-.6.3-.4.5-.9.5-1.6v-3.3h1v4.8c0 .4 0 .9.1 1.4h-1c0-.3-.1-.6-.1-1-.4.8-1.1 1.1-2.1 1.1-.8 0-1.3-.2-1.7-.7-.3-.5-.5-1.1-.5-1.9zm-2.9-3.7h1.6v.8h-1.6v3.7c0 .7.3 1 .9 1 .2 0 .4 0 .6-.1l.2.8c-.3.1-.6.2-.9.2-.5 0-1-.2-1.3-.4-.4-.5-.6-.9-.6-1.5v-3.8h-1V65l1.1-.1v-1.5l1-.4v1.9zm-5.7 1.4c0-.4 0-.9-.1-1.4h1c0 .3.1.6.1 1 .4-.8 1-1.1 1.9-1.1h.3l-.1.9h-.4c-.6 0-1 .2-1.3.6-.3.4-.5.9-.5 1.5V71h-1v-4.7zm-6.7 1.6c0 .7.2 1.3.5 1.8.3.4.8.7 1.5.7s1.2-.2 1.5-.7.5-1 .5-1.8c0-.7-.2-1.3-.5-1.7-.3-.4-.8-.6-1.5-.6s-1.2.2-1.5.6c-.3.4-.5 1-.5 1.7zm5.1 0c0 .6-.1 1.2-.4 1.7-.2.5-.6.9-1.1 1.1-.5.3-1 .4-1.6.4-.6 0-1.2-.1-1.6-.4-.5-.3-.8-.7-1.1-1.1-.2-.5-.4-1-.4-1.7 0-1 .3-1.8.8-2.3.5-.6 1.3-.9 2.3-.9.6 0 1.2.1 1.7.4.5.3.8.6 1 1.1.3.5.4 1.1.4 1.7zm-8.4 0c0-.7-.2-1.3-.5-1.8-.3-.4-.8-.6-1.4-.6-.4 0-.7.1-1 .3-.3.2-.5.4-.7.7-.2.3-.2.6-.2 1v2c.3.3.6.5.8.6.3.1.6.2 1 .2.6 0 1.1-.2 1.5-.7s.5-.9.5-1.7zm1.1 0c0 .6-.1 1.2-.3 1.6-.2.5-.6.9-1 1.2-.4.3-.9.4-1.5.4-.8 0-1.4-.3-2-.8v3.5h-1v-7.7c0-.4 0-.9-.1-1.4h1c0 .3.1.6.1.9.2-.3.5-.6.8-.8.4-.2.8-.3 1.3-.3.6 0 1.1.1 1.5.4.4.3.7.7.9 1.2.2.7.3 1.2.3 1.8zm-8.6 0c0-.7-.2-1.3-.5-1.8-.3-.4-.8-.6-1.4-.6-.4 0-.7.1-1 .3-.3.2-.5.4-.7.7s-.2.6-.2 1v2c.3.3.6.5.8.6.3.1.6.2 1 .2.6 0 1.1-.2 1.5-.7s.5-.9.5-1.7zm1.1 0c0 .6-.1 1.2-.3 1.6-.2.5-.5.9-1 1.2-.4.3-.9.4-1.5.4-.8 0-1.4-.3-2-.8v3.5h-1v-7.7c0-.4 0-.9-.1-1.4h1c0 .3.1.6.1.9.2-.3.5-.6.8-.8.4-.2.8-.3 1.3-.3.6 0 1.1.1 1.5.4.4.3.7.7.9 1.2s.3 1.2.3 1.8zm-8.6-1.1c0-1.1-.3-1.9-.8-2.6-.5-.6-1.3-1-2.4-1-1 0-1.8.3-2.4 1S1 65.7 1 66.8s.3 1.9.8 2.6 1.3 1 2.4 1c1 0 1.8-.3 2.4-1 .6-.7.8-1.6.8-2.6zm-7.4 0c0-.9.2-1.7.5-2.3.3-.7.8-1.2 1.5-1.6s1.4-.6 2.3-.6 1.7.2 2.3.6 1.1.9 1.5 1.6c.3.7.5 1.4.5 2.3 0 .9-.2 1.7-.5 2.3-.3.7-.8 1.2-1.5 1.6-.6.4-1.4.6-2.3.6S2.6 71 2 70.6C1.4 70.2.9 69.7.5 69c-.3-.6-.5-1.4-.5-2.2z"/></defs><clipPath id="SVGID_24_"><use xlink:href="#SVGID_23_" overflow="visible"/></clipPath><path class="st11" d="M-5 57.2h77.8v21.9H-5z"/><defs><path id="SVGID_25_" d="M63.5 171.4v-1.9c-.2-.3-.5-.5-.8-.7-.3-.1-.6-.2-1-.2-.6 0-1.1.2-1.4.7s-.5 1-.5 1.7.2 1.3.5 1.7c.3.4.8.6 1.4.6s1-.2 1.4-.6c.2-.3.4-.8.4-1.3zm1.1 2.6h-.9c-.1-.4-.1-.7-.1-.9-.5.7-1.2 1.1-2.2 1.1-.9 0-1.5-.3-2-.9-.5-.6-.7-1.4-.7-2.3 0-.6.1-1.2.3-1.7s.6-.9 1-1.2c.4-.3.9-.4 1.5-.4.8 0 1.5.3 2 .8v-3h1v7.1c0 .5 0 .9.1 1.4zm-9.6-4.7c0-.4 0-.9-.1-1.4h1c0 .3.1.6.1 1 .4-.8 1-1.1 1.9-1.1h.3l-.1.9h-.4c-.6 0-1 .2-1.3.6s-.5.9-.5 1.5v3.3h-1v-4.8zm-3 2.4v-.7h-.5c-.6 0-1.1 0-1.4.1-.4.1-.6.2-.8.4-.2.2-.3.5-.3.8 0 .4.1.6.3.8s.5.3.9.3.7-.1 1-.2.5-.4.6-.6c.1-.3.2-.6.2-.9zm-4.1.6c0-.8.3-1.3.9-1.6.6-.3 1.4-.5 2.6-.5h.6v-.3c0-.5-.1-.8-.4-1-.2-.2-.6-.3-1.1-.3-.6 0-1.3.2-1.8.5l-.4-.7c.7-.4 1.4-.6 2.3-.6.9 0 1.5.2 1.9.6.4.4.6 1 .6 1.8v2.5c0 .4 0 .9.1 1.4h-.9c-.1-.4-.1-.6-.1-.8-.2.3-.5.6-.8.7s-.8.3-1.3.3c-.6 0-1.1-.2-1.4-.5-.6-.4-.8-.9-.8-1.5zm-6.2-1.4c0 .7.2 1.3.5 1.8s.8.7 1.5.7 1.2-.2 1.5-.7c.3-.4.5-1 .5-1.8 0-.7-.2-1.3-.5-1.7-.3-.4-.8-.6-1.5-.6s-1.2.2-1.5.6c-.3.4-.5 1-.5 1.7zm5.1 0c0 .6-.1 1.2-.4 1.7s-.6.9-1.1 1.1c-.5.3-1 .4-1.7.4-.6 0-1.2-.1-1.6-.4s-.8-.7-1.1-1.1c-.2-.5-.4-1-.4-1.7 0-1 .3-1.8.8-2.3s1.3-.9 2.3-.9c.6 0 1.2.1 1.7.4.5.3.8.6 1.1 1.1.3.5.4 1.1.4 1.7zm-8.4 0c0-.7-.2-1.3-.5-1.8-.3-.4-.8-.6-1.3-.6-.4 0-.7.1-1 .3-.3.2-.5.4-.7.7s-.2.6-.2 1v2c.3.3.6.5.8.6.3.1.6.2 1 .2.6 0 1.1-.2 1.5-.7.3-.4.4-.9.4-1.7zm1.1 0c0 .6-.1 1.2-.3 1.6s-.6.9-1 1.2c-.4.3-1 .4-1.6.4-.8 0-1.4-.3-2-.8l-.1.6h-.8v-8.5h1v3.3c.2-.3.5-.6.8-.8.4-.2.8-.3 1.2-.3.6 0 1.1.1 1.5.4.4.3.7.7.9 1.2.3.6.4 1.1.4 1.7zm-13.2-5.4h1v3.2c.2-.3.5-.6.8-.7s.8-.3 1.3-.3c.8 0 1.3.2 1.7.7s.6 1 .6 1.7v3.9h-1v-3.7c0-.5-.1-.9-.4-1.2-.2-.3-.6-.5-1.2-.5s-1 .2-1.3.5c-.3.4-.5.8-.5 1.4v3.5h-1v-8.5zm-1.7 2.9l-.5.6c-.5-.3-1-.5-1.5-.5-.4 0-.7.1-.9.2-.2.1-.3.4-.3.6 0 .2 0 .4.1.5.1.1.2.2.4.3.2.1.5.2.9.3.6.2 1.1.4 1.4.7.3.3.5.7.5 1.1 0 .6-.2 1.1-.7 1.4-.4.3-1 .5-1.7.5-.9 0-1.6-.2-2.2-.7l.5-.6c.3.2.5.3.8.4.3.1.6.1.9.1.4 0 .7-.1 1-.3.2-.2.4-.4.4-.8 0-.2 0-.4-.1-.5-.1-.1-.2-.2-.4-.3s-.5-.2-.9-.3c-.6-.2-1.1-.4-1.4-.6s-.4-.6-.4-1.1c0-.5.2-.9.6-1.2.4-.3.9-.5 1.6-.5.7 0 1.4.2 1.9.7zm-6.7 3.3v-.7h-.5c-.6 0-1.1 0-1.4.1-.4.1-.6.2-.8.4-.2.2-.3.5-.3.8 0 .4.1.6.3.8.2.2.5.3.9.3s.7-.1 1-.2.5-.4.6-.6c.2-.3.2-.6.2-.9zm-4 .6c0-.8.3-1.3.9-1.6.6-.3 1.4-.5 2.6-.5h.6v-.3c0-.5-.1-.8-.4-1-.2-.2-.6-.3-1.1-.3-.6 0-1.3.2-1.8.5l-.4-.7c.7-.4 1.4-.6 2.3-.6.9 0 1.5.2 1.9.6.4.4.6 1 .6 1.8v2.5c0 .4 0 .9.1 1.4h-.9c-.1-.4-.1-.6-.1-.8-.2.3-.5.6-.8.7s-.8.3-1.3.3c-.6 0-1.1-.2-1.4-.5-.7-.4-.8-.9-.8-1.5zm-7.1-5.9v6.7h1.6c1.1 0 1.9-.3 2.5-.8s.9-1.4.9-2.5c0-2.2-1.1-3.4-3.4-3.4H6.8zm6.1 3.3c0 1.4-.4 2.4-1.2 3.2-.8.7-1.8 1.1-3.2 1.1H5.8v-8.5h2.7c1.4 0 2.5.4 3.3 1.1s1.1 1.7 1.1 3.1z"/></defs><clipPath id="SVGID_26_"><use xlink:href="#SVGID_25_" overflow="visible"/></clipPath><path class="st12" d="M.8 160.5h68.8v18.7H.8z"/><g><defs><path id="SVGID_27_" d="M146.5 170.4v-1.9c-.2-.3-.5-.5-.8-.7-.3-.1-.6-.2-1-.2-.6 0-1.1.2-1.4.7-.3.4-.5 1-.5 1.7s.2 1.3.5 1.7c.3.4.8.6 1.4.6.6 0 1-.2 1.4-.6.2-.3.4-.8.4-1.3zm1.1 2.6h-.9c-.1-.4-.1-.7-.1-.9-.5.7-1.2 1.1-2.2 1.1-.9 0-1.5-.3-2-.9-.5-.6-.7-1.4-.7-2.3 0-.6.1-1.2.3-1.7s.6-.9 1-1.2c.4-.3.9-.4 1.5-.4.8 0 1.5.3 2 .8v-3h1v7.1c0 .5.1.9.1 1.4zm-8.1-3.5c0-.6-.2-1.1-.5-1.5-.3-.4-.7-.6-1.3-.6-.6 0-1 .2-1.3.6-.3.4-.5.9-.5 1.4h3.6zm1 .8H136c0 .6.2 1.1.6 1.5.3.4.8.6 1.4.6.4 0 .7-.1 1-.2.3-.1.6-.2.9-.4l.5.7c-.3.2-.7.4-1.1.6s-.8.2-1.3.2c-.9 0-1.7-.3-2.2-.9-.5-.6-.8-1.4-.8-2.4 0-.6.1-1.2.3-1.7s.6-.9 1-1.1c.4-.3.9-.4 1.5-.4.9 0 1.6.3 2 .9s.7 1.3.7 2.3v.3zm-7.8-.8c0-.6-.2-1.1-.5-1.5-.3-.4-.7-.6-1.3-.6-.6 0-1 .2-1.3.6-.3.4-.5.9-.5 1.4h3.6zm1 .8h-4.5c0 .6.2 1.1.6 1.5.3.4.8.6 1.4.6.4 0 .7-.1 1-.2.3-.1.6-.2.9-.4l.5.7c-.3.2-.7.4-1.1.6s-.8.2-1.3.2c-.9 0-1.7-.3-2.2-.9-.5-.6-.8-1.4-.8-2.4 0-.6.1-1.2.3-1.7s.6-.9 1-1.1c.4-.3.9-.4 1.5-.4.9 0 1.6.3 2 .9s.7 1.3.7 2.3v.3zm-5.8-4.9h-4.1v2.9h3.6v.9h-3.6v3.9h-1.1v-8.5h5.2v.8z"/></defs><clipPath id="SVGID_28_"><use xlink:href="#SVGID_27_" overflow="visible"/></clipPath><path class="st13" d="M117.8 159.5h34.9v18.7h-34.9z"/></g><g><defs><path id="SVGID_29_" d="M152.7 67.5c0-.6-.2-1.1-.5-1.5-.3-.4-.7-.6-1.3-.6-.6 0-1 .2-1.3.6-.3.4-.5.9-.5 1.4h3.6zm1 .8h-4.5c0 .6.2 1.1.6 1.5.3.4.8.6 1.4.6.4 0 .7 0 1-.1.3-.1.6-.2.9-.5l.5.7c-.3.2-.7.4-1.1.6s-.8.2-1.3.2c-.9 0-1.7-.3-2.2-.9-.5-.6-.8-1.4-.8-2.4 0-.6.1-1.2.3-1.7.2-.5.6-.9 1-1.1.4-.3.9-.4 1.5-.4.9 0 1.6.3 2 .9.5.6.7 1.3.7 2.3v.3zm-7.2-5.8V71h-1v-8.5h1zm-3.7 5.4c0-.7-.2-1.3-.5-1.8-.3-.4-.8-.6-1.3-.6-.4 0-.7.1-1 .3-.3.2-.5.4-.7.7s-.2.6-.2 1v2c.3.3.6.5.8.6.3.1.6.2 1 .2.6 0 1.1-.2 1.5-.7.2-.4.4-.9.4-1.7zm1.1 0c0 .6-.1 1.2-.3 1.6s-.6.9-1 1.2c-.4.3-.9.4-1.5.4-.8 0-1.4-.3-2-.8v3.5h-1v-7.7c0-.4 0-.9-.1-1.4h1c0 .3.1.6.1.9.2-.3.5-.6.8-.8.4-.2.8-.3 1.3-.3.6 0 1.1.1 1.5.4.4.3.7.7.9 1.2s.3 1.2.3 1.8zm-12.6 0c0 .7.2 1.3.5 1.8s.8.7 1.5.7 1.2-.2 1.5-.7.5-1 .5-1.8c0-.7-.2-1.3-.5-1.7-.3-.4-.8-.6-1.5-.6s-1.2.2-1.5.6c-.3.4-.5 1-.5 1.7zm5.1 0c0 .6-.1 1.2-.4 1.7-.2.5-.6.9-1.1 1.1-.5.3-1 .4-1.7.4-.6 0-1.2-.1-1.6-.4s-.8-.7-1.1-1.1-.4-1-.4-1.7c0-1 .3-1.8.8-2.3s1.3-.9 2.3-.9c.6 0 1.2.1 1.7.4s.8.6 1.1 1.1c.3.5.4 1.1.4 1.7zm-8.3-.4c0-.6-.2-1.1-.5-1.5-.3-.4-.7-.6-1.3-.6-.6 0-1 .2-1.3.6-.3.4-.5.9-.5 1.4h3.6zm.9.8h-4.5c0 .6.2 1.1.6 1.5.3.4.8.6 1.4.6.4 0 .7 0 1-.1.3-.1.6-.2.9-.5l.5.7c-.3.2-.7.4-1.1.6s-.8.2-1.3.2c-.9 0-1.7-.3-2.2-.9-.5-.6-.8-1.4-.8-2.4 0-.6.1-1.2.3-1.7.2-.5.6-.9 1-1.1.4-.3.9-.4 1.5-.4.9 0 1.6.3 2 .9.5.6.7 1.3.7 2.3.1.1.1.2 0 .3zm-11-4.9v3.8h1.7c.6 0 1-.2 1.4-.5.4-.3.6-.8.6-1.4 0-.7-.2-1.2-.6-1.5-.4-.3-.9-.5-1.5-.5H118zm4.9 1.9c0 .6-.1 1.1-.4 1.5-.3.4-.6.7-1.1.9-.5.2-1 .3-1.5.3h-1.8v3H117v-8.5h2.9c.9 0 1.6.2 2.2.7.5.4.8 1.1.8 2.1z"/></defs><clipPath id="SVGID_30_"><use xlink:href="#SVGID_29_" overflow="visible"/></clipPath><path class="st14" d="M112 57.5h46.8v21.4H112z"/></g></svg>