<svg id="Layer_1" xmlns="http://www.w3.org/2000/svg" xmlns:xlink="http://www.w3.org/1999/xlink" width="245.8" height="230.7"><style>.st0{clip-path:url(#SVGID_2_);fill:none;stroke:#E1E6EF;stroke-width:2;stroke-miterlimit:10;} .st1{fill:none;stroke:#E1E6EF;stroke-linecap:square;stroke-miterlimit:10;} .st2{clip-path:url(#SVGID_4_);fill:none;stroke:#E0E5EE;stroke-width:2;stroke-miterlimit:10;} .st3{clip-path:url(#SVGID_6_);fill-rule:evenodd;clip-rule:evenodd;fill:#FFFFFF;} .st4{clip-path:url(#SVGID_8_);fill:none;stroke:#E1E6EF;stroke-width:2;stroke-miterlimit:10;} .st5{clip-path:url(#SVGID_10_);fill:#1AA2DD;} .st6{clip-path:url(#SVGID_12_);fill:#16325C;} .st7{clip-path:url(#SVGID_14_);fill:none;stroke:#E1E6EF;stroke-width:2;stroke-miterlimit:10;} .st8{clip-path:url(#SVGID_16_);fill:#CFD7E5;} .st9{clip-path:url(#SVGID_18_);fill:#A8B8D0;} .st10{clip-path:url(#SVGID_20_);fill:#CFD7E5;} .st11{clip-path:url(#SVGID_22_);fill:#0070D2;} .st12{clip-path:url(#SVGID_24_);fill:none;stroke:#E1E6EF;stroke-width:2;stroke-miterlimit:10;} .st13{clip-path:url(#SVGID_26_);fill:none;stroke:#E1E6EF;stroke-width:2;stroke-miterlimit:10;} .st14{clip-path:url(#SVGID_28_);fill:#F7F9FB;} .st15{clip-path:url(#SVGID_30_);fill:none;stroke:#E0E5EE;stroke-width:2;stroke-miterlimit:10;} .st16{clip-path:url(#SVGID_32_);fill:#0070D2;} .st17{clip-path:url(#SVGID_34_);fill:#B8C4D2;} .st18{clip-path:url(#SVGID_36_);fill:#D3DCE7;} .st19{clip-path:url(#SVGID_38_);fill:#B8C4D2;} .st20{clip-path:url(#SVGID_40_);fill:#B8C4D2;} .st21{clip-path:url(#SVGID_42_);fill:#B8C4D2;} .st22{clip-path:url(#SVGID_44_);} .st23{clip-path:url(#SVGID_46_);fill-rule:evenodd;clip-rule:evenodd;fill:#FFFFFF;} .st24{clip-path:url(#SVGID_48_);fill:none;stroke:#E0E5EE;stroke-width:2;stroke-miterlimit:10;} .st25{clip-path:url(#SVGID_50_);fill:none;stroke:#E0E5EE;stroke-width:2;stroke-miterlimit:10;} .st26{clip-path:url(#SVGID_52_);fill:#A8B8D0;}</style><defs><path id="SVGID_1_" d="M5 9.8h240.8v220.8H5z"/></defs><clipPath id="SVGID_2_"><use xlink:href="#SVGID_1_" overflow="visible"/></clipPath><path class="st0" d="M5 9.8h240.8v220.8H5z"/><path class="st1" d="M20.5 73.5l141.9-.8"/><defs><path id="SVGID_3_" d="M15.3 10.3h230.5v47.1H15.3z"/></defs><clipPath id="SVGID_4_"><use xlink:href="#SVGID_3_" overflow="visible"/></clipPath><path class="st2" d="M15.3 10.3h230.5v47.1H15.3z"/><defs><path id="SVGID_5_" d="M5 0h240.8v11.1H5z"/></defs><clipPath id="SVGID_6_"><use xlink:href="#SVGID_5_" overflow="visible"/></clipPath><path class="st3" d="M5 0h240.8v11.1H5z"/><defs><path id="SVGID_7_" d="M5 0h240.8v11.1H5z"/></defs><clipPath id="SVGID_8_"><use xlink:href="#SVGID_7_" overflow="visible"/></clipPath><path class="st4" d="M5 0h240.8v11.1H5z"/><defs><path id="SVGID_9_" d="M22.4 3.3c.3-.3.7-.5 1.2-.5.6 0 1.1.3 1.4.8.2-.1.5-.2.8-.2 1.1 0 2 .9 2 2s-.9 2-2 2h-.4c-.3.4-.7.7-1.3.7-.2 0-.4-.1-.6-.1-.3.6-.8 1-1.5 1s-1.3-.5-1.6-1.1h-.3c-.9 0-1.5-.7-1.5-1.6 0-.6.3-1.1.8-1.4-.1-.2-.1-.5-.1-.7 0-1 .8-1.8 1.8-1.8.4.1 1 .4 1.3.9"/></defs><clipPath id="SVGID_10_"><use xlink:href="#SVGID_9_" overflow="visible"/></clipPath><path class="st5" d="M13.5-2.5h19.3V14H13.5z"/><defs><path id="SVGID_11_" d="M5 .2h10.7v230.3H5z"/></defs><clipPath id="SVGID_12_"><use xlink:href="#SVGID_11_" overflow="visible"/></clipPath><path class="st6" d="M0-4.8h20.7v240.3H0z"/><defs><path id="SVGID_13_" d="M175.3 66.9c-1.1 0-2 .9-2 2v64.9c0 1.1.9 2 2 2H239c1.1 0 2-.9 2-2V68.9c0-1.1-.9-2-2-2h-63.7z"/></defs><clipPath id="SVGID_14_"><use xlink:href="#SVGID_13_" overflow="visible"/></clipPath><path class="st7" d="M175.3 66.9c-1.1 0-2 .9-2 2v64.9c0 1.1.9 2 2 2H239c1.1 0 2-.9 2-2V68.9c0-1.1-.9-2-2-2h-63.7z"/><defs><path id="SVGID_15_" d="M53.1 68.6c0-.5.4-.8.8-.8h14.3c.5 0 .8.4.8.8 0 .5-.4.8-.8.8H54c-.5 0-.9-.3-.9-.8z"/></defs><clipPath id="SVGID_16_"><use xlink:href="#SVGID_15_" overflow="visible"/></clipPath><path class="st8" d="M48.1 62.8h26v11.7h-26z"/><defs><path id="SVGID_17_" d="M24.5 68.6c0-.5.4-.8.8-.8h14.3c.5 0 .8.4.8.8 0 .5-.4.8-.8.8H25.3c-.4 0-.8-.3-.8-.8z"/></defs><clipPath id="SVGID_18_"><use xlink:href="#SVGID_17_" overflow="visible"/></clipPath><path class="st9" d="M19.5 62.8h26v11.7h-26z"/><defs><path id="SVGID_19_" d="M81.7 68.6c0-.5.4-.8.8-.8h14.3c.5 0 .8.4.8.8 0 .5-.4.8-.8.8H82.6c-.5 0-.9-.3-.9-.8z"/></defs><clipPath id="SVGID_20_"><use xlink:href="#SVGID_19_" overflow="visible"/></clipPath><path class="st10" d="M76.7 62.8h26v11.7h-26z"/><defs><path id="SVGID_21_" d="M20.2 72.9v.8l24.5-.1v-.8z"/></defs><clipPath id="SVGID_22_"><use xlink:href="#SVGID_21_" overflow="visible"/></clipPath><path class="st11" d="M15.2 67.8h34.5v10.9H15.2z"/><defs><path id="SVGID_23_" d="M175.3 140.9c-1.1 0-2 .9-2 2v55.6c0 1.1.9 2 2 2H239c1.1 0 2-.9 2-2v-55.6c0-1.1-.9-2-2-2h-63.7z"/></defs><clipPath id="SVGID_24_"><use xlink:href="#SVGID_23_" overflow="visible"/></clipPath><path class="st12" d="M175.3 140.9c-1.1 0-2 .9-2 2v55.6c0 1.1.9 2 2 2H239c1.1 0 2-.9 2-2v-55.6c0-1.1-.9-2-2-2h-63.7z"/><defs><path id="SVGID_25_" d="M175.3 206.4c-1.1 0-2 .9-2 2v22.4H241v-22.4c0-1.1-.9-2-2-2h-63.7z"/></defs><clipPath id="SVGID_26_"><use xlink:href="#SVGID_25_" overflow="visible"/></clipPath><path class="st13" d="M175.3 206.4c-1.1 0-2 .9-2 2v22.4H241v-22.4c0-1.1-.9-2-2-2h-63.7z"/><path class="st1" d="M168.8 57.1v173.1"/><defs><path id="SVGID_27_" d="M39.8 82.6v8h123.4v-4c0-2.2-1.8-4-4-4H39.8z"/></defs><clipPath id="SVGID_28_"><use xlink:href="#SVGID_27_" overflow="visible"/></clipPath><path class="st14" d="M34.8 77.6h133.4v18H34.8z"/><defs><path id="SVGID_29_" d="M24.5 82c-2.2 0-4 1.8-4 4v20.7c0 2.2 1.8 4 4 4h135c2.2 0 4-1.8 4-4V86c0-2.2-1.8-4-4-4h-135z"/></defs><clipPath id="SVGID_30_"><use xlink:href="#SVGID_29_" overflow="visible"/></clipPath><path class="st15" d="M24.5 82c-2.2 0-4 1.8-4 4v20.7c0 2.2 1.8 4 4 4h135c2.2 0 4-1.8 4-4V86c0-2.2-1.8-4-4-4h-135z"/><defs><path id="SVGID_31_" d="M143.1 97.5c-1.1 0-2 .9-2 2v3c0 1.1.9 2 2 2h14.3c1.1 0 2-.9 2-2v-3c0-1.1-.9-2-2-2h-14.3z"/></defs><clipPath id="SVGID_32_"><use xlink:href="#SVGID_31_" overflow="visible"/></clipPath><path class="st16" d="M136.1 92.5h28.3v17h-28.3z"/><defs><path id="SVGID_33_" d="M64.8 86.7c0-.4.3-.7.7-.7H73c.4 0 .7.3.7.7 0 .4-.3.7-.7.7h-7.5c-.4 0-.7-.3-.7-.7z"/></defs><clipPath id="SVGID_34_"><use xlink:href="#SVGID_33_" overflow="visible"/></clipPath><path class="st17" d="M59.8 81.1h18.8v11.4H59.8z"/><defs><path id="SVGID_35_" d="M25.3 101.3c0-.4.3-.7.7-.7h62.3c.4 0 .7.3.7.7 0 .4-.3.7-.7.7H26c-.4-.1-.7-.4-.7-.7z"/></defs><clipPath id="SVGID_36_"><use xlink:href="#SVGID_35_" overflow="visible"/></clipPath><path class="st18" d="M20.3 95.6h73.6V107H20.3z"/><defs><path id="SVGID_37_" d="M25.2 86.7c0-.4.3-.7.7-.7h7.5c.4 0 .7.3.7.7 0 .4-.3.7-.7.7h-7.5c-.4 0-.7-.3-.7-.7z"/></defs><clipPath id="SVGID_38_"><use xlink:href="#SVGID_37_" overflow="visible"/></clipPath><path class="st19" d="M20.2 81.1H39v11.4H20.2z"/><defs><path id="SVGID_39_" d="M45.9 86.7c0-.4.3-.7.7-.7H54c.4 0 .7.3.7.7 0 .4-.3.7-.7.7h-7.5c-.3 0-.6-.3-.6-.7z"/></defs><clipPath id="SVGID_40_"><use xlink:href="#SVGID_39_" overflow="visible"/></clipPath><path class="st20" d="M40.9 81.1h18.8v11.4H40.9z"/><defs><path id="SVGID_41_" d="M85.5 86.7c0-.4.3-.7.7-.7h7.5c.4 0 .7.3.7.7 0 .4-.3.7-.7.7h-7.5c-.4 0-.7-.3-.7-.7z"/></defs><clipPath id="SVGID_42_"><use xlink:href="#SVGID_41_" overflow="visible"/></clipPath><path class="st21" d="M80.5 81.1h18.8v11.4H80.5z"/><g><defs><path id="SVGID_43_" d="M24.5 116.4h135c1.9 0 3.5 1.6 3.5 3.5v31.8c0 1.9-1.6 3.5-3.5 3.5h-135c-1.9 0-3.5-1.6-3.5-3.5v-31.8c0-2 1.6-3.5 3.5-3.5zm0-1c-2.5 0-4.5 2-4.5 4.5v31.8c0 2.5 2 4.5 4.5 4.5h135c2.5 0 4.5-2 4.5-4.5v-31.8c0-2.5-2-4.5-4.5-4.5h-135zM0 95.4h184v80.8H0V95.4z"/></defs><clipPath id="SVGID_44_"><use xlink:href="#SVGID_43_" overflow="visible"/></clipPath><g class="st22"><defs><path id="SVGID_45_" d="M24.5 115.9c-2.2 0-4 1.8-4 4v31.8c0 2.2 1.8 4 4 4h135c2.2 0 4-1.8 4-4v-31.8c0-2.2-1.8-4-4-4h-135z"/></defs><clipPath id="SVGID_46_"><use xlink:href="#SVGID_45_" overflow="visible"/></clipPath><path class="st23" d="M24.5 115.9c-2.2 0-4 1.8-4 4v31.8c0 2.2 1.8 4 4 4h135c2.2 0 4-1.8 4-4v-31.8c0-2.2-1.8-4-4-4h-135z"/></g></g><g><defs><path id="SVGID_47_" d="M24.5 115.9c-2.2 0-4 1.8-4 4v31.8c0 2.2 1.8 4 4 4h135c2.2 0 4-1.8 4-4v-31.8c0-2.2-1.8-4-4-4h-135z"/></defs><clipPath id="SVGID_48_"><use xlink:href="#SVGID_47_" overflow="visible"/></clipPath><path class="st24" d="M24.5 115.9c-2.2 0-4 1.8-4 4v31.8c0 2.2 1.8 4 4 4h135c2.2 0 4-1.8 4-4v-31.8c0-2.2-1.8-4-4-4h-135z"/></g><g><defs><path id="SVGID_49_" d="M24.5 160.8c-2.2 0-4 1.8-4 4V215c0 2.2 1.8 4 4 4h135c2.2 0 4-1.8 4-4v-50.2c0-2.2-1.8-4-4-4h-135z"/></defs><clipPath id="SVGID_50_"><use xlink:href="#SVGID_49_" overflow="visible"/></clipPath><path class="st25" d="M24.5 160.8c-2.2 0-4 1.8-4 4V215c0 2.2 1.8 4 4 4h135c2.2 0 4-1.8 4-4v-50.2c0-2.2-1.8-4-4-4h-135z"/></g><g><defs><path id="SVGID_51_" d="M24.5 68.6c0-.5.4-.8.8-.8h14.3c.5 0 .8.4.8.8 0 .5-.4.8-.8.8H25.3c-.4 0-.8-.3-.8-.8z"/></defs><clipPath id="SVGID_52_"><use xlink:href="#SVGID_51_" overflow="visible"/></clipPath><path class="st26" d="M19.5 62.8h26v11.7h-26z"/></g></svg>