<?xml version="1.0" encoding="utf-8"?>
<!-- Generator: Adobe Illustrator 19.1.0, SVG Export Plug-In . SVG Version: 6.00 Build 0)  -->
<svg version="1.1" id="Layer_1" xmlns="http://www.w3.org/2000/svg" xmlns:xlink="http://www.w3.org/1999/xlink" x="0px" y="0px"
	 width="241px" height="230.4px" viewBox="0 0 241 230.4" style="enable-background:new 0 0 241 230.4;" xml:space="preserve">
<style type="text/css">
	.st0{clip-path:url(#SVGID_2_);fill:none;stroke:#E1E6EF;stroke-width:2;stroke-miterlimit:10;}
	.st1{clip-path:url(#SVGID_4_);fill:#E1E6EF;}
	.st2{clip-path:url(#SVGID_6_);fill:#E1E6EF;}
	.st3{clip-path:url(#SVGID_8_);fill:#E1E6EF;}
	.st4{clip-path:url(#SVGID_10_);fill:#E1E6EF;}
	.st5{clip-path:url(#SVGID_12_);fill:#E1E6EF;}
	.st6{clip-path:url(#SVGID_14_);fill:#E1E6EF;}
	.st7{clip-path:url(#SVGID_16_);fill:#E1E6EF;}
	.st8{clip-path:url(#SVGID_18_);fill:#E1E6EF;}
	.st9{clip-path:url(#SVGID_20_);fill:#E1E6EF;}
	.st10{clip-path:url(#SVGID_22_);fill:#E1E6EF;}
	.st11{clip-path:url(#SVGID_24_);fill:#E1E6EF;}
	.st12{clip-path:url(#SVGID_26_);fill:#E1E6EF;}
	.st13{clip-path:url(#SVGID_28_);fill:#E1E6EF;}
	.st14{clip-path:url(#SVGID_30_);fill:#E1E6EF;}
	.st15{clip-path:url(#SVGID_32_);fill:#E1E6EF;}
	.st16{clip-path:url(#SVGID_34_);fill:#E1E6EF;}
	.st17{clip-path:url(#SVGID_36_);fill:#E1E6EF;}
	.st18{clip-path:url(#SVGID_38_);fill:#E1E6EF;}
	.st19{clip-path:url(#SVGID_40_);fill:#E1E6EF;}
	.st20{clip-path:url(#SVGID_42_);fill:#E1E6EF;}
	.st21{clip-path:url(#SVGID_44_);fill:#E1E6EF;}
	.st22{clip-path:url(#SVGID_46_);fill:#E1E6EF;}
	.st23{clip-path:url(#SVGID_48_);fill:#E1E6EF;}
	.st24{clip-path:url(#SVGID_50_);fill:#E1E6EF;}
	.st25{clip-path:url(#SVGID_52_);fill:#E1E6EF;}
	.st26{clip-path:url(#SVGID_54_);fill:#E1E6EF;}
	.st27{clip-path:url(#SVGID_56_);fill:#E1E6EF;}
	.st28{clip-path:url(#SVGID_58_);fill:#E1E6EF;}
	.st29{clip-path:url(#SVGID_60_);fill:#E1E6EF;}
	.st30{clip-path:url(#SVGID_62_);fill:#E1E6EF;}
	.st31{clip-path:url(#SVGID_64_);fill:#E1E6EF;}
	.st32{clip-path:url(#SVGID_66_);fill:#E1E6EF;}
	.st33{clip-path:url(#SVGID_68_);fill:#E1E6EF;}
	.st34{clip-path:url(#SVGID_70_);fill:#E1E6EF;}
	.st35{clip-path:url(#SVGID_72_);fill:#E1E6EF;}
	.st36{clip-path:url(#SVGID_74_);fill:#E1E6EF;}
	.st37{clip-path:url(#SVGID_76_);fill:#E1E6EF;}
	.st38{clip-path:url(#SVGID_78_);fill:#E1E6EF;}
	.st39{clip-path:url(#SVGID_80_);fill:#E1E6EF;}
	.st40{clip-path:url(#SVGID_82_);fill:#E1E6EF;}
	.st41{clip-path:url(#SVGID_84_);fill:#E1E6EF;}
	.st42{clip-path:url(#SVGID_86_);fill:#E1E6EF;}
	.st43{clip-path:url(#SVGID_88_);fill:#E1E6EF;}
	.st44{clip-path:url(#SVGID_90_);fill:#E1E6EF;}
	.st45{clip-path:url(#SVGID_92_);fill:#E1E6EF;}
	.st46{clip-path:url(#SVGID_94_);fill:#E1E6EF;}
	.st47{clip-path:url(#SVGID_96_);fill:#E1E6EF;}
	.st48{clip-path:url(#SVGID_98_);fill:#E1E6EF;}
	.st49{clip-path:url(#SVGID_100_);fill:#E1E6EF;}
	.st50{clip-path:url(#SVGID_102_);fill:#E1E6EF;}
	.st51{clip-path:url(#SVGID_104_);fill:#E1E6EF;}
	.st52{clip-path:url(#SVGID_106_);fill:#E1E6EF;}
	.st53{clip-path:url(#SVGID_108_);fill:#E1E6EF;}
	.st54{clip-path:url(#SVGID_110_);fill:#E1E6EF;}
	.st55{clip-path:url(#SVGID_112_);fill:#E1E6EF;}
	.st56{clip-path:url(#SVGID_114_);fill:none;stroke:#E1E6EF;stroke-width:2;stroke-miterlimit:10;}
	.st57{clip-path:url(#SVGID_116_);fill:#FFFFFF;}
	.st58{clip-path:url(#SVGID_118_);fill:none;stroke:#E1E6EF;stroke-width:2;stroke-miterlimit:10;}
	.st59{clip-path:url(#SVGID_120_);fill:none;stroke:#E0E5EE;stroke-width:2;stroke-miterlimit:10;}
	.st60{clip-path:url(#SVGID_122_);fill:none;stroke:#E1E6EF;stroke-width:2;stroke-miterlimit:10;}
	.st61{clip-path:url(#SVGID_124_);fill-rule:evenodd;clip-rule:evenodd;fill:#C23934;}
	.st62{clip-path:url(#SVGID_126_);fill:none;stroke:#E1E6EF;stroke-width:2;stroke-miterlimit:10;}
	.st63{clip-path:url(#SVGID_128_);fill:#FFFFFF;}
	.st64{clip-path:url(#SVGID_130_);fill:#1AA2DD;}
	.st65{clip-path:url(#SVGID_132_);fill:#16325C;}
	.st66{fill:none;stroke:#E1E6EF;stroke-linecap:square;stroke-miterlimit:10;}
</style>
<g>
	<defs>
		<rect id="SVGID_1_" y="9.8" width="241" height="220.5"/>
	</defs>
	<clipPath id="SVGID_2_">
		<use xlink:href="#SVGID_1_"  style="overflow:visible;"/>
	</clipPath>
	<rect y="9.8" class="st0" width="241" height="220.5"/>
</g>
<g>
	<defs>
		<path id="SVGID_3_" d="M29.1,98.8c0-0.3,0.2-0.5,0.5-0.5h56.1c0.3,0,0.5,0.3,0.5,0.5c0,0.3-0.2,0.5-0.5,0.5H29.7
			C29.4,99.3,29.1,99.1,29.1,98.8z"/>
	</defs>
	<clipPath id="SVGID_4_">
		<use xlink:href="#SVGID_3_"  style="overflow:visible;"/>
	</clipPath>
	<rect x="24.1" y="93.2" class="st1" width="67.2" height="11.1"/>
</g>
<g>
	<defs>
		<path id="SVGID_5_" d="M142.3,98.8c0-0.3,0.2-0.5,0.5-0.5h9.8c0.3,0,0.5,0.3,0.5,0.5c0,0.3-0.2,0.5-0.5,0.5h-9.8
			C142.5,99.3,142.3,99.1,142.3,98.8z"/>
	</defs>
	<clipPath id="SVGID_6_">
		<use xlink:href="#SVGID_5_"  style="overflow:visible;"/>
	</clipPath>
	<rect x="137.3" y="93.2" class="st2" width="20.9" height="11.1"/>
</g>
<g>
	<defs>
		<path id="SVGID_7_" d="M29.1,103.8c0-0.3,0.2-0.5,0.5-0.5h101.8c0.3,0,0.5,0.3,0.5,0.5c0,0.3-0.2,0.5-0.5,0.5H29.7
			C29.4,104.4,29.1,104.1,29.1,103.8z"/>
	</defs>
	<clipPath id="SVGID_8_">
		<use xlink:href="#SVGID_7_"  style="overflow:visible;"/>
	</clipPath>
	<rect x="24.1" y="98.3" class="st3" width="112.9" height="11.1"/>
</g>
<g>
	<defs>
		<path id="SVGID_9_" d="M29.1,106.7c0-0.3,0.2-0.5,0.5-0.5h83.4c0.3,0,0.5,0.3,0.5,0.5c0,0.3-0.2,0.5-0.5,0.5H29.7
			C29.4,107.2,29.1,107,29.1,106.7z"/>
	</defs>
	<clipPath id="SVGID_10_">
		<use xlink:href="#SVGID_9_"  style="overflow:visible;"/>
	</clipPath>
	<rect x="24.1" y="101.2" class="st4" width="94.5" height="11.1"/>
</g>
<g>
	<defs>
		<path id="SVGID_11_" d="M29.1,109.6c0-0.3,0.2-0.5,0.5-0.5H122c0.3,0,0.5,0.3,0.5,0.5c0,0.3-0.2,0.5-0.5,0.5H29.7
			C29.4,110.1,29.1,109.9,29.1,109.6z"/>
	</defs>
	<clipPath id="SVGID_12_">
		<use xlink:href="#SVGID_11_"  style="overflow:visible;"/>
	</clipPath>
	<rect x="24.1" y="104.1" class="st5" width="103.5" height="11.1"/>
</g>
<g>
	<defs>
		<path id="SVGID_13_" d="M23.5,96.3c-1.4,0-2.5,1.1-2.5,2.5c0,1.4,1.1,2.5,2.5,2.5c1.4,0,2.5-1.1,2.5-2.5
			C26.1,97.4,24.9,96.3,23.5,96.3z"/>
	</defs>
	<clipPath id="SVGID_14_">
		<use xlink:href="#SVGID_13_"  style="overflow:visible;"/>
	</clipPath>
	<rect x="16" y="91.3" class="st6" width="15" height="15"/>
</g>
<g>
	<defs>
		<rect id="SVGID_15_" x="23.2" y="101.1" width="0.5" height="12.4"/>
	</defs>
	<clipPath id="SVGID_16_">
		<use xlink:href="#SVGID_15_"  style="overflow:visible;"/>
	</clipPath>
	<rect x="18.2" y="96.1" class="st7" width="10.5" height="22.4"/>
</g>
<g>
	<defs>
		<path id="SVGID_17_" d="M29.1,115.8c0-0.3,0.2-0.5,0.5-0.5h56.1c0.3,0,0.5,0.3,0.5,0.5c0,0.3-0.2,0.5-0.5,0.5H29.7
			C29.4,116.3,29.1,116.1,29.1,115.8z"/>
	</defs>
	<clipPath id="SVGID_18_">
		<use xlink:href="#SVGID_17_"  style="overflow:visible;"/>
	</clipPath>
	<rect x="24.1" y="110.2" class="st8" width="67.2" height="11.1"/>
</g>
<g>
	<defs>
		<path id="SVGID_19_" d="M142.3,115.8c0-0.3,0.2-0.5,0.5-0.5h9.8c0.3,0,0.5,0.3,0.5,0.5c0,0.3-0.2,0.5-0.5,0.5h-9.8
			C142.5,116.3,142.3,116.1,142.3,115.8z"/>
	</defs>
	<clipPath id="SVGID_20_">
		<use xlink:href="#SVGID_19_"  style="overflow:visible;"/>
	</clipPath>
	<rect x="137.3" y="110.2" class="st9" width="20.9" height="11.1"/>
</g>
<g>
	<defs>
		<path id="SVGID_21_" d="M29.1,120.8c0-0.3,0.2-0.5,0.5-0.5h101.8c0.3,0,0.5,0.3,0.5,0.5c0,0.3-0.2,0.5-0.5,0.5H29.7
			C29.4,121.4,29.1,121.1,29.1,120.8z"/>
	</defs>
	<clipPath id="SVGID_22_">
		<use xlink:href="#SVGID_21_"  style="overflow:visible;"/>
	</clipPath>
	<rect x="24.1" y="115.3" class="st10" width="112.9" height="11.1"/>
</g>
<g>
	<defs>
		<path id="SVGID_23_" d="M29.1,123.7c0-0.3,0.2-0.5,0.5-0.5h83.4c0.3,0,0.5,0.3,0.5,0.5c0,0.3-0.2,0.5-0.5,0.5H29.7
			C29.4,124.2,29.1,124,29.1,123.7z"/>
	</defs>
	<clipPath id="SVGID_24_">
		<use xlink:href="#SVGID_23_"  style="overflow:visible;"/>
	</clipPath>
	<rect x="24.1" y="118.2" class="st11" width="94.5" height="11.1"/>
</g>
<g>
	<defs>
		<path id="SVGID_25_" d="M29.1,126.6c0-0.3,0.2-0.5,0.5-0.5H122c0.3,0,0.5,0.3,0.5,0.5c0,0.3-0.2,0.5-0.5,0.5H29.7
			C29.4,127.1,29.1,126.9,29.1,126.6z"/>
	</defs>
	<clipPath id="SVGID_26_">
		<use xlink:href="#SVGID_25_"  style="overflow:visible;"/>
	</clipPath>
	<rect x="24.1" y="121.1" class="st12" width="103.5" height="11.1"/>
</g>
<g>
	<defs>
		<path id="SVGID_27_" d="M23.5,113.3c-1.4,0-2.5,1.1-2.5,2.5c0,1.4,1.1,2.5,2.5,2.5c1.4,0,2.5-1.1,2.5-2.5
			C26.1,114.4,24.9,113.3,23.5,113.3z"/>
	</defs>
	<clipPath id="SVGID_28_">
		<use xlink:href="#SVGID_27_"  style="overflow:visible;"/>
	</clipPath>
	<rect x="16" y="108.3" class="st13" width="15" height="15"/>
</g>
<g>
	<defs>
		<rect id="SVGID_29_" x="23.2" y="118.1" width="0.5" height="12.4"/>
	</defs>
	<clipPath id="SVGID_30_">
		<use xlink:href="#SVGID_29_"  style="overflow:visible;"/>
	</clipPath>
	<rect x="18.2" y="113.1" class="st14" width="10.5" height="22.4"/>
</g>
<g>
	<defs>
		<path id="SVGID_31_" d="M29.1,132.8c0-0.3,0.2-0.5,0.5-0.5h56.1c0.3,0,0.5,0.3,0.5,0.5c0,0.3-0.2,0.5-0.5,0.5H29.7
			C29.4,133.3,29.1,133.1,29.1,132.8z"/>
	</defs>
	<clipPath id="SVGID_32_">
		<use xlink:href="#SVGID_31_"  style="overflow:visible;"/>
	</clipPath>
	<rect x="24.1" y="127.2" class="st15" width="67.2" height="11.1"/>
</g>
<g>
	<defs>
		<path id="SVGID_33_" d="M142.3,132.8c0-0.3,0.2-0.5,0.5-0.5h9.8c0.3,0,0.5,0.3,0.5,0.5c0,0.3-0.2,0.5-0.5,0.5h-9.8
			C142.5,133.3,142.3,133.1,142.3,132.8z"/>
	</defs>
	<clipPath id="SVGID_34_">
		<use xlink:href="#SVGID_33_"  style="overflow:visible;"/>
	</clipPath>
	<rect x="137.3" y="127.2" class="st16" width="20.9" height="11.1"/>
</g>
<g>
	<defs>
		<path id="SVGID_35_" d="M29.1,137.8c0-0.3,0.2-0.5,0.5-0.5h101.8c0.3,0,0.5,0.3,0.5,0.5c0,0.3-0.2,0.5-0.5,0.5H29.7
			C29.4,138.4,29.1,138.1,29.1,137.8z"/>
	</defs>
	<clipPath id="SVGID_36_">
		<use xlink:href="#SVGID_35_"  style="overflow:visible;"/>
	</clipPath>
	<rect x="24.1" y="132.3" class="st17" width="112.9" height="11.1"/>
</g>
<g>
	<defs>
		<path id="SVGID_37_" d="M29.1,140.7c0-0.3,0.2-0.5,0.5-0.5h83.4c0.3,0,0.5,0.3,0.5,0.5c0,0.3-0.2,0.5-0.5,0.5H29.7
			C29.4,141.2,29.1,141,29.1,140.7z"/>
	</defs>
	<clipPath id="SVGID_38_">
		<use xlink:href="#SVGID_37_"  style="overflow:visible;"/>
	</clipPath>
	<rect x="24.1" y="135.2" class="st18" width="94.5" height="11.1"/>
</g>
<g>
	<defs>
		<path id="SVGID_39_" d="M29.1,143.6c0-0.3,0.2-0.5,0.5-0.5H122c0.3,0,0.5,0.3,0.5,0.5c0,0.3-0.2,0.5-0.5,0.5H29.7
			C29.4,144.1,29.1,143.9,29.1,143.6z"/>
	</defs>
	<clipPath id="SVGID_40_">
		<use xlink:href="#SVGID_39_"  style="overflow:visible;"/>
	</clipPath>
	<rect x="24.1" y="138.1" class="st19" width="103.5" height="11.1"/>
</g>
<g>
	<defs>
		<path id="SVGID_41_" d="M23.5,130.3c-1.4,0-2.5,1.1-2.5,2.5c0,1.4,1.1,2.5,2.5,2.5c1.4,0,2.5-1.1,2.5-2.5
			C26.1,131.4,24.9,130.3,23.5,130.3z"/>
	</defs>
	<clipPath id="SVGID_42_">
		<use xlink:href="#SVGID_41_"  style="overflow:visible;"/>
	</clipPath>
	<rect x="16" y="125.3" class="st20" width="15" height="15"/>
</g>
<g>
	<defs>
		<rect id="SVGID_43_" x="23.2" y="135.1" width="0.5" height="12.4"/>
	</defs>
	<clipPath id="SVGID_44_">
		<use xlink:href="#SVGID_43_"  style="overflow:visible;"/>
	</clipPath>
	<rect x="18.2" y="130.1" class="st21" width="10.5" height="22.4"/>
</g>
<g>
	<defs>
		<path id="SVGID_45_" d="M29.1,149.8c0-0.3,0.2-0.5,0.5-0.5h56.1c0.3,0,0.5,0.3,0.5,0.5c0,0.3-0.2,0.5-0.5,0.5H29.7
			C29.4,150.3,29.1,150.1,29.1,149.8z"/>
	</defs>
	<clipPath id="SVGID_46_">
		<use xlink:href="#SVGID_45_"  style="overflow:visible;"/>
	</clipPath>
	<rect x="24.1" y="144.2" class="st22" width="67.2" height="11.1"/>
</g>
<g>
	<defs>
		<path id="SVGID_47_" d="M142.3,149.8c0-0.3,0.2-0.5,0.5-0.5h9.8c0.3,0,0.5,0.3,0.5,0.5c0,0.3-0.2,0.5-0.5,0.5h-9.8
			C142.5,150.3,142.3,150.1,142.3,149.8z"/>
	</defs>
	<clipPath id="SVGID_48_">
		<use xlink:href="#SVGID_47_"  style="overflow:visible;"/>
	</clipPath>
	<rect x="137.3" y="144.2" class="st23" width="20.9" height="11.1"/>
</g>
<g>
	<defs>
		<path id="SVGID_49_" d="M29.1,154.8c0-0.3,0.2-0.5,0.5-0.5h101.8c0.3,0,0.5,0.3,0.5,0.5c0,0.3-0.2,0.5-0.5,0.5H29.7
			C29.4,155.4,29.1,155.1,29.1,154.8z"/>
	</defs>
	<clipPath id="SVGID_50_">
		<use xlink:href="#SVGID_49_"  style="overflow:visible;"/>
	</clipPath>
	<rect x="24.1" y="149.3" class="st24" width="112.9" height="11.1"/>
</g>
<g>
	<defs>
		<path id="SVGID_51_" d="M29.1,157.7c0-0.3,0.2-0.5,0.5-0.5h83.4c0.3,0,0.5,0.3,0.5,0.5c0,0.3-0.2,0.5-0.5,0.5H29.7
			C29.4,158.2,29.1,158,29.1,157.7z"/>
	</defs>
	<clipPath id="SVGID_52_">
		<use xlink:href="#SVGID_51_"  style="overflow:visible;"/>
	</clipPath>
	<rect x="24.1" y="152.2" class="st25" width="94.5" height="11.1"/>
</g>
<g>
	<defs>
		<path id="SVGID_53_" d="M29.1,160.6c0-0.3,0.2-0.5,0.5-0.5H122c0.3,0,0.5,0.3,0.5,0.5c0,0.3-0.2,0.5-0.5,0.5H29.7
			C29.4,161.1,29.1,160.9,29.1,160.6z"/>
	</defs>
	<clipPath id="SVGID_54_">
		<use xlink:href="#SVGID_53_"  style="overflow:visible;"/>
	</clipPath>
	<rect x="24.1" y="155.1" class="st26" width="103.5" height="11.1"/>
</g>
<g>
	<defs>
		<path id="SVGID_55_" d="M23.5,147.3c-1.4,0-2.5,1.1-2.5,2.5c0,1.4,1.1,2.5,2.5,2.5c1.4,0,2.5-1.1,2.5-2.5
			C26.1,148.4,24.9,147.3,23.5,147.3z"/>
	</defs>
	<clipPath id="SVGID_56_">
		<use xlink:href="#SVGID_55_"  style="overflow:visible;"/>
	</clipPath>
	<rect x="16" y="142.3" class="st27" width="15" height="15"/>
</g>
<g>
	<defs>
		<rect id="SVGID_57_" x="23.2" y="152.1" width="0.5" height="12.4"/>
	</defs>
	<clipPath id="SVGID_58_">
		<use xlink:href="#SVGID_57_"  style="overflow:visible;"/>
	</clipPath>
	<rect x="18.2" y="147.1" class="st28" width="10.5" height="22.4"/>
</g>
<g>
	<defs>
		<path id="SVGID_59_" d="M29.1,166.8c0-0.3,0.2-0.5,0.5-0.5h56.1c0.3,0,0.5,0.3,0.5,0.5c0,0.3-0.2,0.5-0.5,0.5H29.7
			C29.4,167.3,29.1,167.1,29.1,166.8z"/>
	</defs>
	<clipPath id="SVGID_60_">
		<use xlink:href="#SVGID_59_"  style="overflow:visible;"/>
	</clipPath>
	<rect x="24.1" y="161.2" class="st29" width="67.2" height="11.1"/>
</g>
<g>
	<defs>
		<path id="SVGID_61_" d="M142.3,166.8c0-0.3,0.2-0.5,0.5-0.5h9.8c0.3,0,0.5,0.3,0.5,0.5c0,0.3-0.2,0.5-0.5,0.5h-9.8
			C142.5,167.3,142.3,167.1,142.3,166.8z"/>
	</defs>
	<clipPath id="SVGID_62_">
		<use xlink:href="#SVGID_61_"  style="overflow:visible;"/>
	</clipPath>
	<rect x="137.3" y="161.2" class="st30" width="20.9" height="11.1"/>
</g>
<g>
	<defs>
		<path id="SVGID_63_" d="M29.1,171.8c0-0.3,0.2-0.5,0.5-0.5h101.8c0.3,0,0.5,0.3,0.5,0.5c0,0.3-0.2,0.5-0.5,0.5H29.7
			C29.4,172.4,29.1,172.1,29.1,171.8z"/>
	</defs>
	<clipPath id="SVGID_64_">
		<use xlink:href="#SVGID_63_"  style="overflow:visible;"/>
	</clipPath>
	<rect x="24.1" y="166.3" class="st31" width="112.9" height="11.1"/>
</g>
<g>
	<defs>
		<path id="SVGID_65_" d="M29.1,174.7c0-0.3,0.2-0.5,0.5-0.5h83.4c0.3,0,0.5,0.3,0.5,0.5c0,0.3-0.2,0.5-0.5,0.5H29.7
			C29.4,175.2,29.1,175,29.1,174.7z"/>
	</defs>
	<clipPath id="SVGID_66_">
		<use xlink:href="#SVGID_65_"  style="overflow:visible;"/>
	</clipPath>
	<rect x="24.1" y="169.2" class="st32" width="94.5" height="11.1"/>
</g>
<g>
	<defs>
		<path id="SVGID_67_" d="M29.1,177.6c0-0.3,0.2-0.5,0.5-0.5H122c0.3,0,0.5,0.3,0.5,0.5c0,0.3-0.2,0.5-0.5,0.5H29.7
			C29.4,178.1,29.1,177.9,29.1,177.6z"/>
	</defs>
	<clipPath id="SVGID_68_">
		<use xlink:href="#SVGID_67_"  style="overflow:visible;"/>
	</clipPath>
	<rect x="24.1" y="172.1" class="st33" width="103.5" height="11.1"/>
</g>
<g>
	<defs>
		<path id="SVGID_69_" d="M23.5,164.3c-1.4,0-2.5,1.1-2.5,2.5c0,1.4,1.1,2.5,2.5,2.5c1.4,0,2.5-1.1,2.5-2.5
			C26.1,165.4,24.9,164.3,23.5,164.3z"/>
	</defs>
	<clipPath id="SVGID_70_">
		<use xlink:href="#SVGID_69_"  style="overflow:visible;"/>
	</clipPath>
	<rect x="16" y="159.3" class="st34" width="15" height="15"/>
</g>
<g>
	<defs>
		<rect id="SVGID_71_" x="23.2" y="169.1" width="0.5" height="12.4"/>
	</defs>
	<clipPath id="SVGID_72_">
		<use xlink:href="#SVGID_71_"  style="overflow:visible;"/>
	</clipPath>
	<rect x="18.2" y="164.1" class="st35" width="10.5" height="22.4"/>
</g>
<g>
	<defs>
		<path id="SVGID_73_" d="M29.1,183.8c0-0.3,0.2-0.5,0.5-0.5h56.1c0.3,0,0.5,0.3,0.5,0.5c0,0.3-0.2,0.5-0.5,0.5H29.7
			C29.4,184.3,29.1,184.1,29.1,183.8z"/>
	</defs>
	<clipPath id="SVGID_74_">
		<use xlink:href="#SVGID_73_"  style="overflow:visible;"/>
	</clipPath>
	<rect x="24.1" y="178.2" class="st36" width="67.2" height="11.1"/>
</g>
<g>
	<defs>
		<path id="SVGID_75_" d="M142.3,183.8c0-0.3,0.2-0.5,0.5-0.5h9.8c0.3,0,0.5,0.3,0.5,0.5c0,0.3-0.2,0.5-0.5,0.5h-9.8
			C142.5,184.3,142.3,184.1,142.3,183.8z"/>
	</defs>
	<clipPath id="SVGID_76_">
		<use xlink:href="#SVGID_75_"  style="overflow:visible;"/>
	</clipPath>
	<rect x="137.3" y="178.2" class="st37" width="20.9" height="11.1"/>
</g>
<g>
	<defs>
		<path id="SVGID_77_" d="M29.1,188.8c0-0.3,0.2-0.5,0.5-0.5h101.8c0.3,0,0.5,0.3,0.5,0.5c0,0.3-0.2,0.5-0.5,0.5H29.7
			C29.4,189.4,29.1,189.1,29.1,188.8z"/>
	</defs>
	<clipPath id="SVGID_78_">
		<use xlink:href="#SVGID_77_"  style="overflow:visible;"/>
	</clipPath>
	<rect x="24.1" y="183.3" class="st38" width="112.9" height="11.1"/>
</g>
<g>
	<defs>
		<path id="SVGID_79_" d="M29.1,191.7c0-0.3,0.2-0.5,0.5-0.5h83.4c0.3,0,0.5,0.3,0.5,0.5c0,0.3-0.2,0.5-0.5,0.5H29.7
			C29.4,192.2,29.1,192,29.1,191.7z"/>
	</defs>
	<clipPath id="SVGID_80_">
		<use xlink:href="#SVGID_79_"  style="overflow:visible;"/>
	</clipPath>
	<rect x="24.1" y="186.2" class="st39" width="94.5" height="11.1"/>
</g>
<g>
	<defs>
		<path id="SVGID_81_" d="M29.1,194.6c0-0.3,0.2-0.5,0.5-0.5H122c0.3,0,0.5,0.3,0.5,0.5c0,0.3-0.2,0.5-0.5,0.5H29.7
			C29.4,195.1,29.1,194.9,29.1,194.6z"/>
	</defs>
	<clipPath id="SVGID_82_">
		<use xlink:href="#SVGID_81_"  style="overflow:visible;"/>
	</clipPath>
	<rect x="24.1" y="189.1" class="st40" width="103.5" height="11.1"/>
</g>
<g>
	<defs>
		<path id="SVGID_83_" d="M23.5,181.3c-1.4,0-2.5,1.1-2.5,2.5c0,1.4,1.1,2.5,2.5,2.5c1.4,0,2.5-1.1,2.5-2.5
			C26.1,182.4,24.9,181.3,23.5,181.3z"/>
	</defs>
	<clipPath id="SVGID_84_">
		<use xlink:href="#SVGID_83_"  style="overflow:visible;"/>
	</clipPath>
	<rect x="16" y="176.3" class="st41" width="15" height="15"/>
</g>
<g>
	<defs>
		<rect id="SVGID_85_" x="23.2" y="186.1" width="0.5" height="12.4"/>
	</defs>
	<clipPath id="SVGID_86_">
		<use xlink:href="#SVGID_85_"  style="overflow:visible;"/>
	</clipPath>
	<rect x="18.2" y="181.1" class="st42" width="10.5" height="22.4"/>
</g>
<g>
	<defs>
		<path id="SVGID_87_" d="M29.1,200.8c0-0.3,0.2-0.5,0.5-0.5h56.1c0.3,0,0.5,0.3,0.5,0.5c0,0.3-0.2,0.5-0.5,0.5H29.7
			C29.4,201.3,29.1,201.1,29.1,200.8z"/>
	</defs>
	<clipPath id="SVGID_88_">
		<use xlink:href="#SVGID_87_"  style="overflow:visible;"/>
	</clipPath>
	<rect x="24.1" y="195.2" class="st43" width="67.2" height="11.1"/>
</g>
<g>
	<defs>
		<path id="SVGID_89_" d="M142.3,200.8c0-0.3,0.2-0.5,0.5-0.5h9.8c0.3,0,0.5,0.3,0.5,0.5c0,0.3-0.2,0.5-0.5,0.5h-9.8
			C142.5,201.3,142.3,201.1,142.3,200.8z"/>
	</defs>
	<clipPath id="SVGID_90_">
		<use xlink:href="#SVGID_89_"  style="overflow:visible;"/>
	</clipPath>
	<rect x="137.3" y="195.2" class="st44" width="20.9" height="11.1"/>
</g>
<g>
	<defs>
		<path id="SVGID_91_" d="M29.1,205.8c0-0.3,0.2-0.5,0.5-0.5h101.8c0.3,0,0.5,0.3,0.5,0.5c0,0.3-0.2,0.5-0.5,0.5H29.7
			C29.4,206.4,29.1,206.1,29.1,205.8z"/>
	</defs>
	<clipPath id="SVGID_92_">
		<use xlink:href="#SVGID_91_"  style="overflow:visible;"/>
	</clipPath>
	<rect x="24.1" y="200.3" class="st45" width="112.9" height="11.1"/>
</g>
<g>
	<defs>
		<path id="SVGID_93_" d="M29.1,208.7c0-0.3,0.2-0.5,0.5-0.5h83.4c0.3,0,0.5,0.3,0.5,0.5c0,0.3-0.2,0.5-0.5,0.5H29.7
			C29.4,209.2,29.1,209,29.1,208.7z"/>
	</defs>
	<clipPath id="SVGID_94_">
		<use xlink:href="#SVGID_93_"  style="overflow:visible;"/>
	</clipPath>
	<rect x="24.1" y="203.2" class="st46" width="94.5" height="11.1"/>
</g>
<g>
	<defs>
		<path id="SVGID_95_" d="M29.1,211.6c0-0.3,0.2-0.5,0.5-0.5H122c0.3,0,0.5,0.3,0.5,0.5c0,0.3-0.2,0.5-0.5,0.5H29.7
			C29.4,212.1,29.1,211.9,29.1,211.6z"/>
	</defs>
	<clipPath id="SVGID_96_">
		<use xlink:href="#SVGID_95_"  style="overflow:visible;"/>
	</clipPath>
	<rect x="24.1" y="206.1" class="st47" width="103.5" height="11.1"/>
</g>
<g>
	<defs>
		<path id="SVGID_97_" d="M23.5,198.3c-1.4,0-2.5,1.1-2.5,2.5c0,1.4,1.1,2.5,2.5,2.5c1.4,0,2.5-1.1,2.5-2.5
			C26.1,199.4,24.9,198.3,23.5,198.3z"/>
	</defs>
	<clipPath id="SVGID_98_">
		<use xlink:href="#SVGID_97_"  style="overflow:visible;"/>
	</clipPath>
	<rect x="16" y="193.3" class="st48" width="15" height="15"/>
</g>
<g>
	<defs>
		<rect id="SVGID_99_" x="23.2" y="203.1" width="0.5" height="12.4"/>
	</defs>
	<clipPath id="SVGID_100_">
		<use xlink:href="#SVGID_99_"  style="overflow:visible;"/>
	</clipPath>
	<rect x="18.2" y="198.1" class="st49" width="10.5" height="22.4"/>
</g>
<g>
	<defs>
		<path id="SVGID_101_" d="M29.1,217.8c0-0.3,0.2-0.5,0.5-0.5h56.1c0.3,0,0.5,0.3,0.5,0.5c0,0.3-0.2,0.5-0.5,0.5H29.7
			C29.4,218.3,29.1,218.1,29.1,217.8z"/>
	</defs>
	<clipPath id="SVGID_102_">
		<use xlink:href="#SVGID_101_"  style="overflow:visible;"/>
	</clipPath>
	<rect x="24.1" y="212.2" class="st50" width="67.2" height="11.1"/>
</g>
<g>
	<defs>
		<path id="SVGID_103_" d="M142.3,217.8c0-0.3,0.2-0.5,0.5-0.5h9.8c0.3,0,0.5,0.3,0.5,0.5c0,0.3-0.2,0.5-0.5,0.5h-9.8
			C142.5,218.3,142.3,218.1,142.3,217.8z"/>
	</defs>
	<clipPath id="SVGID_104_">
		<use xlink:href="#SVGID_103_"  style="overflow:visible;"/>
	</clipPath>
	<rect x="137.3" y="212.2" class="st51" width="20.9" height="11.1"/>
</g>
<g>
	<defs>
		<path id="SVGID_105_" d="M29.1,222.8c0-0.3,0.2-0.5,0.5-0.5h101.8c0.3,0,0.5,0.3,0.5,0.5c0,0.3-0.2,0.5-0.5,0.5H29.7
			C29.4,223.4,29.1,223.1,29.1,222.8z"/>
	</defs>
	<clipPath id="SVGID_106_">
		<use xlink:href="#SVGID_105_"  style="overflow:visible;"/>
	</clipPath>
	<rect x="24.1" y="217.3" class="st52" width="112.9" height="11.1"/>
</g>
<g>
	<defs>
		<path id="SVGID_107_" d="M29.1,225.7c0-0.3,0.2-0.5,0.5-0.5h83.4c0.3,0,0.5,0.3,0.5,0.5c0,0.3-0.2,0.5-0.5,0.5H29.7
			C29.4,226.2,29.1,226,29.1,225.7z"/>
	</defs>
	<clipPath id="SVGID_108_">
		<use xlink:href="#SVGID_107_"  style="overflow:visible;"/>
	</clipPath>
	<rect x="24.1" y="220.2" class="st53" width="94.5" height="11.1"/>
</g>
<g>
	<defs>
		<path id="SVGID_109_" d="M23.5,215.3c-1.4,0-2.5,1.1-2.5,2.5c0,1.4,1.1,2.5,2.5,2.5c1.4,0,2.5-1.1,2.5-2.5
			C26.1,216.4,24.9,215.3,23.5,215.3z"/>
	</defs>
	<clipPath id="SVGID_110_">
		<use xlink:href="#SVGID_109_"  style="overflow:visible;"/>
	</clipPath>
	<rect x="16" y="210.3" class="st54" width="15" height="15"/>
</g>
<g>
	<defs>
		<rect id="SVGID_111_" x="23.2" y="220.1" width="0.5" height="9.1"/>
	</defs>
	<clipPath id="SVGID_112_">
		<use xlink:href="#SVGID_111_"  style="overflow:visible;"/>
	</clipPath>
	<rect x="18.2" y="215.1" class="st55" width="10.5" height="19.1"/>
</g>
<g>
	<defs>
		<path id="SVGID_113_" d="M136.5,80.2c-1.8,0-3.2,1.5-3.2,3.2c0,1.8,1.5,3.2,3.2,3.2h10.6c1.8,0,3.2-1.5,3.2-3.2
			c0-1.8-1.5-3.2-3.2-3.2H136.5z"/>
	</defs>
	<clipPath id="SVGID_114_">
		<use xlink:href="#SVGID_113_"  style="overflow:visible;"/>
	</clipPath>
	<path class="st56" d="M136.5,80.2c-1.8,0-3.2,1.5-3.2,3.2c0,1.8,1.5,3.2,3.2,3.2h10.6c1.8,0,3.2-1.5,3.2-3.2c0-1.8-1.5-3.2-3.2-3.2
		H136.5z"/>
</g>
<g>
	<defs>
		<rect id="SVGID_115_" x="21.2" y="70.3" width="17.1" height="7.4"/>
	</defs>
	<clipPath id="SVGID_116_">
		<use xlink:href="#SVGID_115_"  style="overflow:visible;"/>
	</clipPath>
	<rect x="16.2" y="65.3" class="st57" width="27.1" height="17.4"/>
</g>
<g>
	<defs>
		<path id="SVGID_117_" d="M22.2,70.3c-0.6,0-1,0.4-1,1V88c0,0.6,0.5,1,1,1h129.9c0.6,0,1-0.4,1-1V71.3c0-0.6-0.5-1-1-1H22.2z
			 M10.2,59.3h153.9v40.7H10.2V59.3z"/>
	</defs>
	<clipPath id="SVGID_118_">
		<use xlink:href="#SVGID_117_"  style="overflow:visible;"/>
	</clipPath>
	<path class="st58" d="M22.2,70.3c-0.6,0-1,0.4-1,1V88c0,0.6,0.5,1,1,1h129.9c0.6,0,1-0.4,1-1V71.3c0-0.6-0.5-1-1-1H22.2z"/>
</g>
<g>
	<defs>
		<rect id="SVGID_119_" x="10.3" y="10.3" width="230.7" height="47.1"/>
	</defs>
	<clipPath id="SVGID_120_">
		<use xlink:href="#SVGID_119_"  style="overflow:visible;"/>
	</clipPath>
	<rect x="10.3" y="10.3" class="st59" width="230.7" height="47.1"/>
</g>
<g>
	<defs>
		<rect id="SVGID_121_" width="241" height="11.1"/>
	</defs>
	<clipPath id="SVGID_122_">
		<use xlink:href="#SVGID_121_"  style="overflow:visible;"/>
	</clipPath>
	<rect class="st60" width="241" height="11.1"/>
</g>
<g>
	<g>
		<defs>
			<rect id="SVGID_123_" y="10" width="241" height="11.1"/>
		</defs>
		<clipPath id="SVGID_124_">
			<use xlink:href="#SVGID_123_"  style="overflow:visible;"/>
		</clipPath>
		<rect y="10" class="st61" width="241" height="11.1"/>
	</g>
</g>
<g>
	<defs>
		<rect id="SVGID_125_" y="10" width="241" height="11.1"/>
	</defs>
	<clipPath id="SVGID_126_">
		<use xlink:href="#SVGID_125_"  style="overflow:visible;"/>
	</clipPath>
	<rect y="10" class="st62" width="241" height="11.1"/>
</g>
<g>
	<defs>
		<path id="SVGID_127_" d="M232.9,15.4l1-1c0,0,0-0.1,0-0.2l-0.2-0.2c0,0-0.1,0-0.2,0l-1,1c0,0-0.1,0-0.1,0l-1-1c0,0-0.1,0-0.2,0
			l-0.2,0.2c0,0,0,0.1,0,0.2l1,1c0,0,0,0.1,0,0.1l-1,1c0,0,0,0.1,0,0.2l0.2,0.2c0,0,0.1,0,0.2,0l1-1c0,0,0.1,0,0.1,0l1,1
			c0,0,0.1,0,0.2,0l0.2-0.2c0,0,0-0.1,0-0.2l-1-1C232.8,15.5,232.8,15.4,232.9,15.4"/>
	</defs>
	<clipPath id="SVGID_128_">
		<use xlink:href="#SVGID_127_"  style="overflow:visible;"/>
	</clipPath>
	<rect x="226" y="9" class="st63" width="12.9" height="12.9"/>
</g>
<g>
	<defs>
		<path id="SVGID_129_" d="M17.4,3.3c0.3-0.3,0.7-0.5,1.2-0.5c0.6,0,1.1,0.3,1.4,0.8c0.2-0.1,0.5-0.2,0.8-0.2c1.1,0,2,0.9,2,2
			c0,1.1-0.9,2-2,2c-0.1,0-0.3,0-0.4,0c-0.3,0.4-0.7,0.7-1.3,0.7c-0.2,0-0.4-0.1-0.6-0.1c-0.3,0.6-0.8,1-1.5,1
			c-0.7,0-1.3-0.5-1.6-1.1c-0.1,0-0.2,0-0.3,0c-0.9,0-1.6-0.7-1.6-1.6c0-0.6,0.3-1.1,0.8-1.4c-0.1-0.2-0.1-0.5-0.1-0.7
			c0-1,0.8-1.8,1.8-1.8C16.6,2.5,17.1,2.8,17.4,3.3"/>
	</defs>
	<clipPath id="SVGID_130_">
		<use xlink:href="#SVGID_129_"  style="overflow:visible;"/>
	</clipPath>
	<rect x="8.6" y="-2.5" class="st64" width="19.3" height="16.5"/>
</g>
<g>
	<defs>
		<rect id="SVGID_131_" y="0.2" width="10.7" height="230"/>
	</defs>
	<clipPath id="SVGID_132_">
		<use xlink:href="#SVGID_131_"  style="overflow:visible;"/>
	</clipPath>
	<rect x="-5" y="-4.8" class="st65" width="20.7" height="240"/>
</g>
<line class="st66" x1="164" y1="57" x2="164" y2="229.9"/>
</svg>
