<?xml version="1.0" encoding="utf-8"?>
<!-- Generator: Adobe Illustrator 19.1.0, SVG Export Plug-In . SVG Version: 6.00 Build 0)  -->
<svg version="1.1" id="Layer_1" xmlns="http://www.w3.org/2000/svg" xmlns:xlink="http://www.w3.org/1999/xlink" x="0px" y="0px"
	 width="160.1px" height="174.2px" viewBox="0 0 160.1 174.2" style="enable-background:new 0 0 160.1 174.2;" xml:space="preserve"
	>
<style type="text/css">
	.st0{clip-path:url(#SVGID_2_);fill:#F7B64B;}
	.st1{clip-path:url(#SVGID_4_);fill:#FFFFFF;}
	.st2{clip-path:url(#SVGID_6_);fill:#FFFFFF;}
	.st3{clip-path:url(#SVGID_8_);fill:#ED6F67;}
	.st4{clip-path:url(#SVGID_10_);fill:#FFFFFF;}
	.st5{clip-path:url(#SVGID_12_);fill:#FFFFFF;}
	.st6{clip-path:url(#SVGID_14_);fill:#2ECBBE;}
	.st7{clip-path:url(#SVGID_16_);fill:#FFFFFF;}
	.st8{clip-path:url(#SVGID_18_);fill:#62B7ED;}
	.st9{clip-path:url(#SVGID_20_);fill:#FFFFFF;}
	.st10{clip-path:url(#SVGID_22_);fill:#FFFFFF;}
	.st11{clip-path:url(#SVGID_24_);fill:#5876A3;}
	.st12{clip-path:url(#SVGID_26_);fill:#5876A3;}
	.st13{clip-path:url(#SVGID_28_);fill:#5876A3;}
	.st14{clip-path:url(#SVGID_30_);fill:#5876A3;}
</style>
<g>
	<defs>
		<path id="SVGID_1_" d="M55.1,50h-42c-2.2,0-4-1.8-4-4V4c0-2.2,1.8-4,4-4h42c2.2,0,4,1.8,4,4v42C59.1,48.2,57.3,50,55.1,50"/>
	</defs>
	<clipPath id="SVGID_2_">
		<use xlink:href="#SVGID_1_"  style="overflow:visible;"/>
	</clipPath>
	<rect x="4.1" y="-5" class="st0" width="60" height="60"/>
</g>
<g>
	<defs>
		<path id="SVGID_3_" d="M44.7,34.5H23.6c-0.5,0-1,0.4-1,0.9v0.1c0,1.7,1.3,3,3,3h17c1.7,0,3-1.4,3-3v-0.1
			C45.6,34.9,45.2,34.5,44.7,34.5"/>
	</defs>
	<clipPath id="SVGID_4_">
		<use xlink:href="#SVGID_3_"  style="overflow:visible;"/>
	</clipPath>
	<rect x="17.6" y="29.5" class="st1" width="33" height="14"/>
</g>
<g>
	<defs>
		<path id="SVGID_5_" d="M47.1,14c-1.7,0-3,1.3-3,3c0,0.9,0.4,1.7,1.1,2.3c-0.8,2-2.8,3.3-5.1,3.2c-2.6-0.1-4.8-2.3-4.9-5
			c0-0.4,0-0.8,0.1-1.2c1.1-0.4,1.9-1.5,1.9-2.8c0-1.7-1.3-3-3-3s-3,1.3-3,3c0,1.3,0.8,2.4,1.9,2.8c0.1,0.4,0.1,0.8,0.1,1.2
			c-0.1,2.6-2.3,4.8-4.9,5c-2.3,0.1-4.3-1.2-5.1-3.2c0.7-0.6,1.1-1.4,1.1-2.3c0-1.7-1.3-3-3-3s-3,1.3-3,3c0,1.7,1.3,3,3,3
			c0,0,0,0,0,0l1.4,10.7c0.1,0.5,0.5,0.8,0.9,0.8h21.3c0.5,0,0.9-0.3,0.9-0.8L47.1,20h0c1.7,0,3-1.3,3-3C50.1,15.3,48.8,14,47.1,14"
			/>
	</defs>
	<clipPath id="SVGID_6_">
		<use xlink:href="#SVGID_5_"  style="overflow:visible;"/>
	</clipPath>
	<rect x="13.1" y="5.5" class="st2" width="42" height="31"/>
</g>
<g>
	<defs>
		<path id="SVGID_7_" d="M55.6,152h-42c-2.2,0-4-1.8-4-4v-42c0-2.2,1.8-4,4-4h42c2.2,0,4,1.8,4,4v42C59.6,150.2,57.8,152,55.6,152"
			/>
	</defs>
	<clipPath id="SVGID_8_">
		<use xlink:href="#SVGID_7_"  style="overflow:visible;"/>
	</clipPath>
	<rect x="4.6" y="97" class="st3" width="60" height="60"/>
</g>
<g>
	<defs>
		<path id="SVGID_9_" d="M34.6,116c6.1,0,11,4.9,11,11c0,0.5,0,1-0.1,1.5H41c-0.5,0-0.9,0.4-1,0.8c-0.4,2.6-2.7,4.7-5.4,4.7
			s-5-2-5.4-4.7c-0.1-0.5-0.5-0.8-1-0.8h-4.5c-0.1-0.5-0.1-1-0.1-1.5C23.6,120.9,28.6,116,34.6,116z M34.6,112c-8.3,0-15,6.7-15,15
			s6.7,15,15,15s15-6.7,15-15S42.9,112,34.6,112z"/>
	</defs>
	<clipPath id="SVGID_10_">
		<use xlink:href="#SVGID_9_"  style="overflow:visible;"/>
	</clipPath>
	<rect x="14.6" y="107" class="st4" width="40" height="40"/>
</g>
<g>
	<defs>
		<path id="SVGID_11_" d="M33.5,130.7c1.2,0.6,2.7,0.2,3.4-1c0.9-1.8,2.7-9.4,2.3-9.7s-5.8,5.6-6.7,7.3
			C31.8,128.6,32.2,130.1,33.5,130.7"/>
	</defs>
	<clipPath id="SVGID_12_">
		<use xlink:href="#SVGID_11_"  style="overflow:visible;"/>
	</clipPath>
	<rect x="27.1" y="115" class="st5" width="17.1" height="21"/>
</g>
<g>
	<defs>
		<path id="SVGID_13_" d="M156.1,152h-42c-2.2,0-4-1.8-4-4v-42c0-2.2,1.8-4,4-4h42c2.2,0,4,1.8,4,4v42
			C160.1,150.2,158.3,152,156.1,152"/>
	</defs>
	<clipPath id="SVGID_14_">
		<use xlink:href="#SVGID_13_"  style="overflow:visible;"/>
	</clipPath>
	<rect x="105.1" y="97" class="st6" width="60" height="60"/>
</g>
<g>
	<defs>
		<path id="SVGID_15_" d="M134.6,138c-0.2,0-0.5,0-0.7-0.2c-0.4-0.2-0.7-0.6-0.8-1.1l-3.9-15.6l-3.2,7.5c-0.2,0.5-0.8,0.9-1.4,0.9
			h-4.5c-0.6,0-1-0.4-1-1v-1c0-0.6,0.4-1,1-1h3.5l4.6-10.6c0.3-0.6,0.9-1,1.5-0.9c0.6,0.1,1.2,0.5,1.3,1.1l4,15.8l5.2-11.6
			c0.3-0.6,0.9-0.9,1.5-0.9c0.6,0.1,1.1,0.5,1.3,1l2.6,6h4.5c0.6,0,1,0.4,1,1v1c0,0.6-0.4,1-1,1h-5.5c-0.6,0-1.1-0.4-1.4-0.9
			l-1.7-3.9l-5.6,12.4C135.7,137.7,135.2,138,134.6,138"/>
	</defs>
	<clipPath id="SVGID_16_">
		<use xlink:href="#SVGID_15_"  style="overflow:visible;"/>
	</clipPath>
	<rect x="114.1" y="110" class="st7" width="42" height="33"/>
</g>
<g>
	<defs>
		<path id="SVGID_17_" d="M156.1,50h-42c-2.2,0-4-1.8-4-4V4c0-2.2,1.8-4,4-4h42c2.2,0,4,1.8,4,4v42C160.1,48.2,158.3,50,156.1,50"/>
	</defs>
	<clipPath id="SVGID_18_">
		<use xlink:href="#SVGID_17_"  style="overflow:visible;"/>
	</clipPath>
	<rect x="105.1" y="-5" class="st8" width="60" height="60"/>
</g>
<g>
	<defs>
		<path id="SVGID_19_" d="M150.1,35.6V37c0,1.7-1.3,3-3,3h-24c-1.7,0-3-1.3-3-3v-1.4c0-3.7,4.3-5.9,8.3-7.6c0.1-0.1,0.3-0.1,0.4-0.2
			c0.3-0.1,0.7-0.1,1,0.1c1.6,1,3.4,1.6,5.4,1.6s3.8-0.6,5.4-1.6c0.3-0.2,0.6-0.2,1-0.1c0.1,0.1,0.3,0.1,0.4,0.2
			C145.9,29.8,150.1,31.9,150.1,35.6"/>
	</defs>
	<clipPath id="SVGID_20_">
		<use xlink:href="#SVGID_19_"  style="overflow:visible;"/>
	</clipPath>
	<rect x="115.1" y="22.7" class="st9" width="40" height="22.3"/>
</g>
<g>
	<defs>
		<path id="SVGID_21_" d="M135.1,26.5c4.1,0,7.5-3.7,7.5-8.2s-3.3-8.2-7.5-8.2s-7.5,3.7-7.5,8.2S131,26.5,135.1,26.5"/>
	</defs>
	<clipPath id="SVGID_22_">
		<use xlink:href="#SVGID_21_"  style="overflow:visible;"/>
	</clipPath>
	<rect x="122.7" y="5" class="st10" width="24.9" height="26.5"/>
</g>
<g>
	<defs>
		<path id="SVGID_23_" d="M65.1,72.5c-0.2,0.6-0.4,1-0.7,1.2c-0.3,0.3-0.7,0.4-1.2,0.4c-0.3,0-0.6,0-0.9-0.1l0.2-0.8
			c0.2,0,0.3,0.1,0.5,0.1c0.3,0,0.5-0.1,0.7-0.3s0.3-0.4,0.4-0.8l0.4-1.2l-2.4-6.1h1.1l1.8,5h0l1.6-5h1L65.1,72.5z M60.2,64.9h1.6
			v0.8h-1.6v3.7c0,0.7,0.3,1,0.9,1c0.2,0,0.4,0,0.6-0.1l0.2,0.8c-0.3,0.1-0.6,0.2-0.9,0.2c-0.5,0-1-0.2-1.3-0.4
			c-0.3-0.3-0.5-0.7-0.5-1.3v-3.8h-1.1V65l1.1-0.1v-1.5l1-0.4V64.9z M55.7,62.8c0-0.4,0.2-0.6,0.7-0.6c0.4,0,0.7,0.2,0.7,0.6
			c0,0.2-0.1,0.3-0.2,0.4c-0.1,0.1-0.3,0.2-0.5,0.2c-0.2,0-0.4-0.1-0.5-0.2C55.8,63.1,55.7,63,55.7,62.8z M56.9,71h-1v-6.1h1V71z
			 M48.5,66.3c0-0.4,0-0.9-0.1-1.4h1c0,0.2,0.1,0.5,0.1,0.9h0c0.2-0.3,0.5-0.6,0.8-0.8c0.4-0.2,0.8-0.3,1.3-0.3
			c0.8,0,1.3,0.2,1.7,0.7c0.4,0.4,0.6,1,0.6,1.7V71h-1v-3.7c0-0.5-0.1-0.9-0.4-1.2c-0.2-0.3-0.6-0.5-1.2-0.5c-0.6,0-1,0.2-1.3,0.5
			s-0.5,0.8-0.5,1.4V71h-1V66.3z M41,68.6v-3.7h1v3.6c0,0.6,0.1,1,0.4,1.4c0.2,0.3,0.6,0.5,1.1,0.5c0.6,0,1-0.2,1.3-0.6
			c0.3-0.4,0.5-0.9,0.5-1.6v-3.3h1v4.8c0,0.4,0,0.9,0.1,1.4h-1c0-0.3-0.1-0.6-0.1-1h0c-0.4,0.8-1.1,1.1-2.1,1.1
			c-0.8,0-1.3-0.2-1.7-0.7C41.2,70,41,69.4,41,68.6z M38.1,64.9h1.6v0.8h-1.6v3.7c0,0.7,0.3,1,0.9,1c0.2,0,0.4,0,0.6-0.1l0.2,0.8
			c-0.3,0.1-0.6,0.2-0.9,0.2c-0.5,0-1-0.2-1.3-0.4C37.2,70.4,37,70,37,69.4v-3.8H36V65l1.1-0.1v-1.5l1-0.4V64.9z M32.4,66.3
			c0-0.4,0-0.9-0.1-1.4h1c0,0.3,0.1,0.6,0.1,1h0c0.4-0.8,1-1.1,1.9-1.1c0.1,0,0.2,0,0.3,0l-0.1,0.9c-0.1,0-0.2,0-0.4,0
			c-0.6,0-1,0.2-1.3,0.6c-0.3,0.4-0.5,0.9-0.5,1.5V71h-1V66.3z M25.7,67.9c0,0.7,0.2,1.3,0.5,1.8c0.3,0.4,0.8,0.7,1.5,0.7
			c0.7,0,1.2-0.2,1.5-0.7s0.5-1,0.5-1.8c0-0.7-0.2-1.3-0.5-1.7c-0.3-0.4-0.8-0.6-1.5-0.6c-0.7,0-1.2,0.2-1.5,0.6
			C25.9,66.6,25.7,67.2,25.7,67.9z M30.8,67.9c0,0.6-0.1,1.2-0.4,1.7c-0.2,0.5-0.6,0.9-1.1,1.1c-0.5,0.3-1,0.4-1.6,0.4
			c-0.6,0-1.2-0.1-1.6-0.4c-0.5-0.3-0.8-0.7-1.1-1.1c-0.2-0.5-0.4-1-0.4-1.7c0-1,0.3-1.8,0.8-2.3c0.5-0.6,1.3-0.9,2.3-0.9
			c0.6,0,1.2,0.1,1.7,0.4c0.5,0.3,0.8,0.6,1,1.1C30.7,66.7,30.8,67.3,30.8,67.9z M22.4,67.9c0-0.7-0.2-1.3-0.5-1.8
			c-0.3-0.4-0.8-0.6-1.4-0.6c-0.4,0-0.7,0.1-1,0.3c-0.3,0.2-0.5,0.4-0.7,0.7c-0.2,0.3-0.2,0.6-0.2,1v2c0.3,0.3,0.6,0.5,0.8,0.6
			c0.3,0.1,0.6,0.2,1,0.2c0.6,0,1.1-0.2,1.5-0.7S22.4,68.7,22.4,67.9z M23.5,67.9c0,0.6-0.1,1.2-0.3,1.6c-0.2,0.5-0.6,0.9-1,1.2
			c-0.4,0.3-0.9,0.4-1.5,0.4c-0.8,0-1.4-0.3-2-0.8v3.5h-1v-7.7c0-0.4,0-0.9-0.1-1.4h1c0,0.3,0.1,0.6,0.1,0.9h0
			c0.2-0.3,0.5-0.6,0.8-0.8c0.4-0.2,0.8-0.3,1.3-0.3c0.6,0,1.1,0.1,1.5,0.4c0.4,0.3,0.7,0.7,0.9,1.2C23.4,66.8,23.5,67.3,23.5,67.9z
			 M14.9,67.9c0-0.7-0.2-1.3-0.5-1.8c-0.3-0.4-0.8-0.6-1.4-0.6c-0.4,0-0.7,0.1-1,0.3c-0.3,0.2-0.5,0.4-0.7,0.7s-0.2,0.6-0.2,1v2
			c0.3,0.3,0.6,0.5,0.8,0.6c0.3,0.1,0.6,0.2,1,0.2c0.6,0,1.1-0.2,1.5-0.7S14.9,68.7,14.9,67.9z M16,67.9c0,0.6-0.1,1.2-0.3,1.6
			c-0.2,0.5-0.5,0.9-1,1.2c-0.4,0.3-0.9,0.4-1.5,0.4c-0.8,0-1.4-0.3-2-0.8v3.5h-1v-7.7c0-0.4,0-0.9-0.1-1.4h1c0,0.3,0.1,0.6,0.1,0.9
			h0c0.2-0.3,0.5-0.6,0.8-0.8c0.4-0.2,0.8-0.3,1.3-0.3c0.6,0,1.1,0.1,1.5,0.4c0.4,0.3,0.7,0.7,0.9,1.2S16,67.3,16,67.9z M7.4,66.8
			c0-1.1-0.3-1.9-0.8-2.6c-0.5-0.6-1.3-1-2.4-1c-1,0-1.8,0.3-2.4,1s-0.8,1.5-0.8,2.6s0.3,1.9,0.8,2.6s1.3,1,2.4,1c1,0,1.8-0.3,2.4-1
			C7.2,68.7,7.4,67.8,7.4,66.8z M0,66.8c0-0.9,0.2-1.7,0.5-2.3c0.3-0.7,0.8-1.2,1.5-1.6s1.4-0.6,2.3-0.6s1.7,0.2,2.3,0.6
			s1.1,0.9,1.5,1.6c0.3,0.7,0.5,1.4,0.5,2.3c0,0.9-0.2,1.7-0.5,2.3c-0.3,0.7-0.8,1.2-1.5,1.6c-0.6,0.4-1.4,0.6-2.3,0.6
			S2.6,71,2,70.6c-0.6-0.4-1.1-0.9-1.5-1.6C0.2,68.4,0,67.6,0,66.8z"/>
	</defs>
	<clipPath id="SVGID_24_">
		<use xlink:href="#SVGID_23_"  style="overflow:visible;"/>
	</clipPath>
	<rect x="-5" y="57.2" class="st11" width="77.8" height="21.9"/>
</g>
<g>
	<defs>
		<path id="SVGID_25_" d="M63.5,171.4v-1.9c-0.2-0.3-0.5-0.5-0.8-0.7c-0.3-0.1-0.6-0.2-1-0.2c-0.6,0-1.1,0.2-1.4,0.7s-0.5,1-0.5,1.7
			c0,0.7,0.2,1.3,0.5,1.7c0.3,0.4,0.8,0.6,1.4,0.6s1-0.2,1.4-0.6C63.3,172.4,63.5,171.9,63.5,171.4z M64.6,174h-0.9
			c-0.1-0.4-0.1-0.7-0.1-0.9h0c-0.5,0.7-1.2,1.1-2.2,1.1c-0.9,0-1.5-0.3-2-0.9c-0.5-0.6-0.7-1.4-0.7-2.3c0-0.6,0.1-1.2,0.3-1.7
			s0.6-0.9,1-1.2c0.4-0.3,0.9-0.4,1.5-0.4c0.8,0,1.5,0.3,2,0.8v-3h1v7.1C64.5,173.1,64.5,173.5,64.6,174z M55,169.3
			c0-0.4,0-0.9-0.1-1.4h1c0,0.3,0.1,0.6,0.1,1h0c0.4-0.8,1-1.1,1.9-1.1c0.1,0,0.2,0,0.3,0l-0.1,0.9c-0.1,0-0.2,0-0.4,0
			c-0.6,0-1,0.2-1.3,0.6s-0.5,0.9-0.5,1.5v3.3h-1V169.3z M52,171.7V171l-0.5,0c-0.6,0-1.1,0-1.4,0.1c-0.4,0.1-0.6,0.2-0.8,0.4
			c-0.2,0.2-0.3,0.5-0.3,0.8c0,0.4,0.1,0.6,0.3,0.8s0.5,0.3,0.9,0.3c0.4,0,0.7-0.1,1-0.2s0.5-0.4,0.6-0.6
			C51.9,172.3,52,172,52,171.7z M47.9,172.3c0-0.8,0.3-1.3,0.9-1.6c0.6-0.3,1.4-0.5,2.6-0.5c0.3,0,0.5,0,0.6,0v-0.3
			c0-0.5-0.1-0.8-0.4-1c-0.2-0.2-0.6-0.3-1.1-0.3c-0.6,0-1.3,0.2-1.8,0.5l-0.4-0.7c0.7-0.4,1.4-0.6,2.3-0.6c0.9,0,1.5,0.2,1.9,0.6
			c0.4,0.4,0.6,1,0.6,1.8v2.5c0,0.4,0,0.9,0.1,1.4h-0.9c-0.1-0.4-0.1-0.6-0.1-0.8h0c-0.2,0.3-0.5,0.6-0.8,0.7s-0.8,0.3-1.3,0.3
			c-0.6,0-1.1-0.2-1.4-0.5C48.1,173.4,47.9,172.9,47.9,172.3z M41.7,170.9c0,0.7,0.2,1.3,0.5,1.8s0.8,0.7,1.5,0.7
			c0.7,0,1.2-0.2,1.5-0.7c0.3-0.4,0.5-1,0.5-1.8c0-0.7-0.2-1.3-0.5-1.7c-0.3-0.4-0.8-0.6-1.5-0.6s-1.2,0.2-1.5,0.6
			C41.9,169.6,41.7,170.2,41.7,170.9z M46.8,170.9c0,0.6-0.1,1.2-0.4,1.7s-0.6,0.9-1.1,1.1c-0.5,0.3-1,0.4-1.7,0.4
			c-0.6,0-1.2-0.1-1.6-0.4s-0.8-0.7-1.1-1.1c-0.2-0.5-0.4-1-0.4-1.7c0-1,0.3-1.8,0.8-2.3s1.3-0.9,2.3-0.9c0.6,0,1.2,0.1,1.7,0.4
			c0.5,0.3,0.8,0.6,1.1,1.1C46.7,169.7,46.8,170.3,46.8,170.9z M38.4,170.9c0-0.7-0.2-1.3-0.5-1.8c-0.3-0.4-0.8-0.6-1.3-0.6
			c-0.4,0-0.7,0.1-1,0.3c-0.3,0.2-0.5,0.4-0.7,0.7s-0.2,0.6-0.2,1v2c0.3,0.3,0.6,0.5,0.8,0.6c0.3,0.1,0.6,0.2,1,0.2
			c0.6,0,1.1-0.2,1.5-0.7C38.3,172.2,38.4,171.7,38.4,170.9z M39.5,170.9c0,0.6-0.1,1.2-0.3,1.6s-0.6,0.9-1,1.2
			c-0.4,0.3-1,0.4-1.6,0.4c-0.8,0-1.4-0.3-2-0.8l-0.1,0.6h-0.8v-8.5h1v3.3h0c0.2-0.3,0.5-0.6,0.8-0.8c0.4-0.2,0.8-0.3,1.2-0.3
			c0.6,0,1.1,0.1,1.5,0.4c0.4,0.3,0.7,0.7,0.9,1.2C39.4,169.8,39.5,170.3,39.5,170.9z M26.3,165.5h1v3.2h0c0.2-0.3,0.5-0.6,0.8-0.7
			s0.8-0.3,1.3-0.3c0.8,0,1.3,0.2,1.7,0.7s0.6,1,0.6,1.7v3.9h-1v-3.7c0-0.5-0.1-0.9-0.4-1.2c-0.2-0.3-0.6-0.5-1.2-0.5
			c-0.6,0-1,0.2-1.3,0.5c-0.3,0.4-0.5,0.8-0.5,1.4v3.5h-1V165.5z M24.6,168.4l-0.5,0.6c-0.5-0.3-1-0.5-1.5-0.5
			c-0.4,0-0.7,0.1-0.9,0.2c-0.2,0.1-0.3,0.4-0.3,0.6c0,0.2,0,0.4,0.1,0.5c0.1,0.1,0.2,0.2,0.4,0.3c0.2,0.1,0.5,0.2,0.9,0.3
			c0.6,0.2,1.1,0.4,1.4,0.7c0.3,0.3,0.5,0.7,0.5,1.1c0,0.6-0.2,1.1-0.7,1.4c-0.4,0.3-1,0.5-1.7,0.5c-0.9,0-1.6-0.2-2.2-0.7l0.5-0.6
			c0.3,0.2,0.5,0.3,0.8,0.4c0.3,0.1,0.6,0.1,0.9,0.1c0.4,0,0.7-0.1,1-0.3c0.2-0.2,0.4-0.4,0.4-0.8c0-0.2,0-0.4-0.1-0.5
			c-0.1-0.1-0.2-0.2-0.4-0.3s-0.5-0.2-0.9-0.3c-0.6-0.2-1.1-0.4-1.4-0.6s-0.4-0.6-0.4-1.1c0-0.5,0.2-0.9,0.6-1.2
			c0.4-0.3,0.9-0.5,1.6-0.5C23.4,167.7,24.1,167.9,24.6,168.4z M17.9,171.7V171l-0.5,0c-0.6,0-1.1,0-1.4,0.1
			c-0.4,0.1-0.6,0.2-0.8,0.4c-0.2,0.2-0.3,0.5-0.3,0.8c0,0.4,0.1,0.6,0.3,0.8c0.2,0.2,0.5,0.3,0.9,0.3c0.4,0,0.7-0.1,1-0.2
			s0.5-0.4,0.6-0.6C17.9,172.3,17.9,172,17.9,171.7z M13.9,172.3c0-0.8,0.3-1.3,0.9-1.6c0.6-0.3,1.4-0.5,2.6-0.5c0.3,0,0.5,0,0.6,0
			v-0.3c0-0.5-0.1-0.8-0.4-1c-0.2-0.2-0.6-0.3-1.1-0.3c-0.6,0-1.3,0.2-1.8,0.5l-0.4-0.7c0.7-0.4,1.4-0.6,2.3-0.6
			c0.9,0,1.5,0.2,1.9,0.6c0.4,0.4,0.6,1,0.6,1.8v2.5c0,0.4,0,0.9,0.1,1.4h-0.9c-0.1-0.4-0.1-0.6-0.1-0.8h0c-0.2,0.3-0.5,0.6-0.8,0.7
			s-0.8,0.3-1.3,0.3c-0.6,0-1.1-0.2-1.4-0.5C14,173.4,13.9,172.9,13.9,172.3z M6.8,166.4v6.7h1.6c1.1,0,1.9-0.3,2.5-0.8
			s0.9-1.4,0.9-2.5c0-2.2-1.1-3.4-3.4-3.4H6.8z M12.9,169.7c0,1.4-0.4,2.4-1.2,3.2c-0.8,0.7-1.8,1.1-3.2,1.1H5.8v-8.5h2.7
			c1.4,0,2.5,0.4,3.3,1.1S12.9,168.3,12.9,169.7z"/>
	</defs>
	<clipPath id="SVGID_26_">
		<use xlink:href="#SVGID_25_"  style="overflow:visible;"/>
	</clipPath>
	<rect x="0.8" y="160.5" class="st12" width="68.8" height="18.7"/>
</g>
<g>
	<defs>
		<path id="SVGID_27_" d="M146.5,170.4v-1.9c-0.2-0.3-0.5-0.5-0.8-0.7c-0.3-0.1-0.6-0.2-1-0.2c-0.6,0-1.1,0.2-1.4,0.7
			c-0.3,0.4-0.5,1-0.5,1.7c0,0.7,0.2,1.3,0.5,1.7c0.3,0.4,0.8,0.6,1.4,0.6c0.6,0,1-0.2,1.4-0.6C146.3,171.4,146.5,170.9,146.5,170.4
			z M147.6,173h-0.9c-0.1-0.4-0.1-0.7-0.1-0.9h0c-0.5,0.7-1.2,1.1-2.2,1.1c-0.9,0-1.5-0.3-2-0.9c-0.5-0.6-0.7-1.4-0.7-2.3
			c0-0.6,0.1-1.2,0.3-1.7s0.6-0.9,1-1.2c0.4-0.3,0.9-0.4,1.5-0.4c0.8,0,1.5,0.3,2,0.8v-3h1v7.1C147.5,172.1,147.6,172.5,147.6,173z
			 M139.5,169.5c0-0.6-0.2-1.1-0.5-1.5c-0.3-0.4-0.7-0.6-1.3-0.6c-0.6,0-1,0.2-1.3,0.6c-0.3,0.4-0.5,0.9-0.5,1.4H139.5z
			 M140.5,170.3H136c0,0.6,0.2,1.1,0.6,1.5c0.3,0.4,0.8,0.6,1.4,0.6c0.4,0,0.7-0.1,1-0.2c0.3-0.1,0.6-0.2,0.9-0.4l0.5,0.7
			c-0.3,0.2-0.7,0.4-1.1,0.6s-0.8,0.2-1.3,0.2c-0.9,0-1.7-0.3-2.2-0.9c-0.5-0.6-0.8-1.4-0.8-2.4c0-0.6,0.1-1.2,0.3-1.7
			s0.6-0.9,1-1.1c0.4-0.3,0.9-0.4,1.5-0.4c0.9,0,1.6,0.3,2,0.9s0.7,1.3,0.7,2.3C140.5,170.1,140.5,170.2,140.5,170.3z M132.7,169.5
			c0-0.6-0.2-1.1-0.5-1.5c-0.3-0.4-0.7-0.6-1.3-0.6c-0.6,0-1,0.2-1.3,0.6c-0.3,0.4-0.5,0.9-0.5,1.4H132.7z M133.7,170.3h-4.5
			c0,0.6,0.2,1.1,0.6,1.5c0.3,0.4,0.8,0.6,1.4,0.6c0.4,0,0.7-0.1,1-0.2c0.3-0.1,0.6-0.2,0.9-0.4l0.5,0.7c-0.3,0.2-0.7,0.4-1.1,0.6
			s-0.8,0.2-1.3,0.2c-0.9,0-1.7-0.3-2.2-0.9c-0.5-0.6-0.8-1.4-0.8-2.4c0-0.6,0.1-1.2,0.3-1.7s0.6-0.9,1-1.1c0.4-0.3,0.9-0.4,1.5-0.4
			c0.9,0,1.6,0.3,2,0.9s0.7,1.3,0.7,2.3C133.7,170.1,133.7,170.2,133.7,170.3z M127.9,165.4h-4.1v2.9h3.6v0.9h-3.6v3.9h-1.1v-8.5
			h5.2V165.4z"/>
	</defs>
	<clipPath id="SVGID_28_">
		<use xlink:href="#SVGID_27_"  style="overflow:visible;"/>
	</clipPath>
	<rect x="117.8" y="159.5" class="st13" width="34.9" height="18.7"/>
</g>
<g>
	<defs>
		<path id="SVGID_29_" d="M152.7,67.5c0-0.6-0.2-1.1-0.5-1.5c-0.3-0.4-0.7-0.6-1.3-0.6c-0.6,0-1,0.2-1.3,0.6
			c-0.3,0.4-0.5,0.9-0.5,1.4H152.7z M153.7,68.3h-4.5c0,0.6,0.2,1.1,0.6,1.5c0.3,0.4,0.8,0.6,1.4,0.6c0.4,0,0.7,0,1-0.1
			c0.3-0.1,0.6-0.2,0.9-0.5l0.5,0.7c-0.3,0.2-0.7,0.4-1.1,0.6s-0.8,0.2-1.3,0.2c-0.9,0-1.7-0.3-2.2-0.9c-0.5-0.6-0.8-1.4-0.8-2.4
			c0-0.6,0.1-1.2,0.3-1.7c0.2-0.5,0.6-0.9,1-1.1c0.4-0.3,0.9-0.4,1.5-0.4c0.9,0,1.6,0.3,2,0.9c0.5,0.6,0.7,1.3,0.7,2.3
			C153.7,68.1,153.7,68.2,153.7,68.3z M146.5,62.5V71h-1v-8.5H146.5z M142.8,67.9c0-0.7-0.2-1.3-0.5-1.8c-0.3-0.4-0.8-0.6-1.3-0.6
			c-0.4,0-0.7,0.1-1,0.3c-0.3,0.2-0.5,0.4-0.7,0.7s-0.2,0.6-0.2,1v2c0.3,0.3,0.6,0.5,0.8,0.6c0.3,0.1,0.6,0.2,1,0.2
			c0.6,0,1.1-0.2,1.5-0.7C142.6,69.2,142.8,68.7,142.8,67.9z M143.9,67.9c0,0.6-0.1,1.2-0.3,1.6s-0.6,0.9-1,1.2
			c-0.4,0.3-0.9,0.4-1.5,0.4c-0.8,0-1.4-0.3-2-0.8v3.5h-1v-7.7c0-0.4,0-0.9-0.1-1.4h1c0,0.3,0.1,0.6,0.1,0.9h0
			c0.2-0.3,0.5-0.6,0.8-0.8c0.4-0.2,0.8-0.3,1.3-0.3c0.6,0,1.1,0.1,1.5,0.4c0.4,0.3,0.7,0.7,0.9,1.2S143.9,67.3,143.9,67.9z
			 M131.3,67.9c0,0.7,0.2,1.3,0.5,1.8s0.8,0.7,1.5,0.7c0.7,0,1.2-0.2,1.5-0.7s0.5-1,0.5-1.8c0-0.7-0.2-1.3-0.5-1.7
			c-0.3-0.4-0.8-0.6-1.5-0.6c-0.7,0-1.2,0.2-1.5,0.6C131.5,66.6,131.3,67.2,131.3,67.9z M136.4,67.9c0,0.6-0.1,1.2-0.4,1.7
			c-0.2,0.5-0.6,0.9-1.1,1.1c-0.5,0.3-1,0.4-1.7,0.4c-0.6,0-1.2-0.1-1.6-0.4s-0.8-0.7-1.1-1.1s-0.4-1-0.4-1.7c0-1,0.3-1.8,0.8-2.3
			s1.3-0.9,2.3-0.9c0.6,0,1.2,0.1,1.7,0.4s0.8,0.6,1.1,1.1C136.3,66.7,136.4,67.3,136.4,67.9z M128.1,67.5c0-0.6-0.2-1.1-0.5-1.5
			c-0.3-0.4-0.7-0.6-1.3-0.6c-0.6,0-1,0.2-1.3,0.6c-0.3,0.4-0.5,0.9-0.5,1.4H128.1z M129,68.3h-4.5c0,0.6,0.2,1.1,0.6,1.5
			c0.3,0.4,0.8,0.6,1.4,0.6c0.4,0,0.7,0,1-0.1c0.3-0.1,0.6-0.2,0.9-0.5l0.5,0.7c-0.3,0.2-0.7,0.4-1.1,0.6s-0.8,0.2-1.3,0.2
			c-0.9,0-1.7-0.3-2.2-0.9c-0.5-0.6-0.8-1.4-0.8-2.4c0-0.6,0.1-1.2,0.3-1.7c0.2-0.5,0.6-0.9,1-1.1c0.4-0.3,0.9-0.4,1.5-0.4
			c0.9,0,1.6,0.3,2,0.9c0.5,0.6,0.7,1.3,0.7,2.3C129.1,68.1,129.1,68.2,129,68.3z M118,63.4v3.8h1.7c0.6,0,1-0.2,1.4-0.5
			c0.4-0.3,0.6-0.8,0.6-1.4c0-0.7-0.2-1.2-0.6-1.5c-0.4-0.3-0.9-0.5-1.5-0.5H118z M122.9,65.3c0,0.6-0.1,1.1-0.4,1.5
			c-0.3,0.4-0.6,0.7-1.1,0.9c-0.5,0.2-1,0.3-1.5,0.3h-1.8V71H117v-8.5h2.9c0.9,0,1.6,0.2,2.2,0.7C122.6,63.6,122.9,64.3,122.9,65.3z
			"/>
	</defs>
	<clipPath id="SVGID_30_">
		<use xlink:href="#SVGID_29_"  style="overflow:visible;"/>
	</clipPath>
	<rect x="112" y="57.5" class="st14" width="46.8" height="21.4"/>
</g>
</svg>
