<svg id="Layer_1" xmlns="http://www.w3.org/2000/svg" xmlns:xlink="http://www.w3.org/1999/xlink" width="241" height="230.4"><style>.st0{clip-path:url(#SVGID_2_);fill:none;stroke:#E1E6EF;stroke-width:2;stroke-miterlimit:10;} .st1{clip-path:url(#SVGID_4_);fill:#E1E6EF;} .st2{clip-path:url(#SVGID_6_);fill:#E1E6EF;} .st3{clip-path:url(#SVGID_8_);fill:#E1E6EF;} .st4{clip-path:url(#SVGID_10_);fill:#E1E6EF;} .st5{clip-path:url(#SVGID_12_);fill:#E1E6EF;} .st6{clip-path:url(#SVGID_14_);fill:#E1E6EF;} .st7{clip-path:url(#SVGID_16_);fill:#E1E6EF;} .st8{clip-path:url(#SVGID_18_);fill:#E1E6EF;} .st9{clip-path:url(#SVGID_20_);fill:#E1E6EF;} .st10{clip-path:url(#SVGID_22_);fill:#E1E6EF;} .st11{clip-path:url(#SVGID_24_);fill:#E1E6EF;} .st12{clip-path:url(#SVGID_26_);fill:#E1E6EF;} .st13{clip-path:url(#SVGID_28_);fill:#E1E6EF;} .st14{clip-path:url(#SVGID_30_);fill:#E1E6EF;} .st15{clip-path:url(#SVGID_32_);fill:#E1E6EF;} .st16{clip-path:url(#SVGID_34_);fill:#E1E6EF;} .st17{clip-path:url(#SVGID_36_);fill:#E1E6EF;} .st18{clip-path:url(#SVGID_38_);fill:#E1E6EF;} .st19{clip-path:url(#SVGID_40_);fill:#E1E6EF;} .st20{clip-path:url(#SVGID_42_);fill:#E1E6EF;} .st21{clip-path:url(#SVGID_44_);fill:#E1E6EF;} .st22{clip-path:url(#SVGID_46_);fill:#E1E6EF;} .st23{clip-path:url(#SVGID_48_);fill:#E1E6EF;} .st24{clip-path:url(#SVGID_50_);fill:#E1E6EF;} .st25{clip-path:url(#SVGID_52_);fill:#E1E6EF;} .st26{clip-path:url(#SVGID_54_);fill:#E1E6EF;} .st27{clip-path:url(#SVGID_56_);fill:#E1E6EF;} .st28{clip-path:url(#SVGID_58_);fill:#E1E6EF;} .st29{clip-path:url(#SVGID_60_);fill:#E1E6EF;} .st30{clip-path:url(#SVGID_62_);fill:#E1E6EF;} .st31{clip-path:url(#SVGID_64_);fill:#E1E6EF;} .st32{clip-path:url(#SVGID_66_);fill:#E1E6EF;} .st33{clip-path:url(#SVGID_68_);fill:#E1E6EF;} .st34{clip-path:url(#SVGID_70_);fill:#E1E6EF;} .st35{clip-path:url(#SVGID_72_);fill:#E1E6EF;} .st36{clip-path:url(#SVGID_74_);fill:#E1E6EF;} .st37{clip-path:url(#SVGID_76_);fill:#E1E6EF;} .st38{clip-path:url(#SVGID_78_);fill:#E1E6EF;} .st39{clip-path:url(#SVGID_80_);fill:#E1E6EF;} .st40{clip-path:url(#SVGID_82_);fill:#E1E6EF;} .st41{clip-path:url(#SVGID_84_);fill:#E1E6EF;} .st42{clip-path:url(#SVGID_86_);fill:#E1E6EF;} .st43{clip-path:url(#SVGID_88_);fill:#E1E6EF;} .st44{clip-path:url(#SVGID_90_);fill:#E1E6EF;} .st45{clip-path:url(#SVGID_92_);fill:#E1E6EF;} .st46{clip-path:url(#SVGID_94_);fill:#E1E6EF;} .st47{clip-path:url(#SVGID_96_);fill:#E1E6EF;} .st48{clip-path:url(#SVGID_98_);fill:#E1E6EF;} .st49{clip-path:url(#SVGID_100_);fill:#E1E6EF;} .st50{clip-path:url(#SVGID_102_);fill:#E1E6EF;} .st51{clip-path:url(#SVGID_104_);fill:#E1E6EF;} .st52{clip-path:url(#SVGID_106_);fill:#E1E6EF;} .st53{clip-path:url(#SVGID_108_);fill:#E1E6EF;} .st54{clip-path:url(#SVGID_110_);fill:#E1E6EF;} .st55{clip-path:url(#SVGID_112_);fill:#E1E6EF;} .st56{clip-path:url(#SVGID_114_);fill:none;stroke:#E1E6EF;stroke-width:2;stroke-miterlimit:10;} .st57{clip-path:url(#SVGID_116_);fill:#FFFFFF;} .st58{clip-path:url(#SVGID_118_);fill:none;stroke:#E1E6EF;stroke-width:2;stroke-miterlimit:10;} .st59{clip-path:url(#SVGID_120_);fill:none;stroke:#E0E5EE;stroke-width:2;stroke-miterlimit:10;} .st60{clip-path:url(#SVGID_122_);fill:none;stroke:#E1E6EF;stroke-width:2;stroke-miterlimit:10;} .st61{clip-path:url(#SVGID_124_);fill-rule:evenodd;clip-rule:evenodd;fill:#C23934;} .st62{clip-path:url(#SVGID_126_);fill:none;stroke:#E1E6EF;stroke-width:2;stroke-miterlimit:10;} .st63{clip-path:url(#SVGID_128_);fill:#FFFFFF;} .st64{clip-path:url(#SVGID_130_);fill:#1AA2DD;} .st65{clip-path:url(#SVGID_132_);fill:#16325C;} .st66{fill:none;stroke:#E1E6EF;stroke-linecap:square;stroke-miterlimit:10;}</style><defs><path id="SVGID_1_" d="M0 9.8h241v220.5H0z"/></defs><clipPath id="SVGID_2_"><use xlink:href="#SVGID_1_" overflow="visible"/></clipPath><path class="st0" d="M0 9.8h241v220.5H0z"/><defs><path id="SVGID_3_" d="M29.1 98.8c0-.3.2-.5.5-.5h56.1c.3 0 .5.3.5.5 0 .3-.2.5-.5.5h-56c-.3 0-.6-.2-.6-.5z"/></defs><clipPath id="SVGID_4_"><use xlink:href="#SVGID_3_" overflow="visible"/></clipPath><path class="st1" d="M24.1 93.2h67.2v11.1H24.1z"/><defs><path id="SVGID_5_" d="M142.3 98.8c0-.3.2-.5.5-.5h9.8c.3 0 .5.3.5.5 0 .3-.2.5-.5.5h-9.8c-.3 0-.5-.2-.5-.5z"/></defs><clipPath id="SVGID_6_"><use xlink:href="#SVGID_5_" overflow="visible"/></clipPath><path class="st2" d="M137.3 93.2h20.9v11.1h-20.9z"/><defs><path id="SVGID_7_" d="M29.1 103.8c0-.3.2-.5.5-.5h101.8c.3 0 .5.3.5.5 0 .3-.2.5-.5.5H29.7c-.3.1-.6-.2-.6-.5z"/></defs><clipPath id="SVGID_8_"><use xlink:href="#SVGID_7_" overflow="visible"/></clipPath><path class="st3" d="M24.1 98.3H137v11.1H24.1z"/><defs><path id="SVGID_9_" d="M29.1 106.7c0-.3.2-.5.5-.5H113c.3 0 .5.3.5.5 0 .3-.2.5-.5.5H29.7c-.3 0-.6-.2-.6-.5z"/></defs><clipPath id="SVGID_10_"><use xlink:href="#SVGID_9_" overflow="visible"/></clipPath><path class="st4" d="M24.1 101.2h94.5v11.1H24.1z"/><defs><path id="SVGID_11_" d="M29.1 109.6c0-.3.2-.5.5-.5H122c.3 0 .5.3.5.5 0 .3-.2.5-.5.5H29.7c-.3 0-.6-.2-.6-.5z"/></defs><clipPath id="SVGID_12_"><use xlink:href="#SVGID_11_" overflow="visible"/></clipPath><path class="st5" d="M24.1 104.1h103.5v11.1H24.1z"/><defs><path id="SVGID_13_" d="M23.5 96.3c-1.4 0-2.5 1.1-2.5 2.5s1.1 2.5 2.5 2.5 2.5-1.1 2.5-2.5c.1-1.4-1.1-2.5-2.5-2.5z"/></defs><clipPath id="SVGID_14_"><use xlink:href="#SVGID_13_" overflow="visible"/></clipPath><path class="st6" d="M16 91.3h15v15H16z"/><defs><path id="SVGID_15_" d="M23.2 101.1h.5v12.4h-.5z"/></defs><clipPath id="SVGID_16_"><use xlink:href="#SVGID_15_" overflow="visible"/></clipPath><path class="st7" d="M18.2 96.1h10.5v22.4H18.2z"/><defs><path id="SVGID_17_" d="M29.1 115.8c0-.3.2-.5.5-.5h56.1c.3 0 .5.3.5.5 0 .3-.2.5-.5.5h-56c-.3 0-.6-.2-.6-.5z"/></defs><clipPath id="SVGID_18_"><use xlink:href="#SVGID_17_" overflow="visible"/></clipPath><path class="st8" d="M24.1 110.2h67.2v11.1H24.1z"/><defs><path id="SVGID_19_" d="M142.3 115.8c0-.3.2-.5.5-.5h9.8c.3 0 .5.3.5.5 0 .3-.2.5-.5.5h-9.8c-.3 0-.5-.2-.5-.5z"/></defs><clipPath id="SVGID_20_"><use xlink:href="#SVGID_19_" overflow="visible"/></clipPath><path class="st9" d="M137.3 110.2h20.9v11.1h-20.9z"/><defs><path id="SVGID_21_" d="M29.1 120.8c0-.3.2-.5.5-.5h101.8c.3 0 .5.3.5.5 0 .3-.2.5-.5.5H29.7c-.3.1-.6-.2-.6-.5z"/></defs><clipPath id="SVGID_22_"><use xlink:href="#SVGID_21_" overflow="visible"/></clipPath><path class="st10" d="M24.1 115.3H137v11.1H24.1z"/><defs><path id="SVGID_23_" d="M29.1 123.7c0-.3.2-.5.5-.5H113c.3 0 .5.3.5.5 0 .3-.2.5-.5.5H29.7c-.3 0-.6-.2-.6-.5z"/></defs><clipPath id="SVGID_24_"><use xlink:href="#SVGID_23_" overflow="visible"/></clipPath><path class="st11" d="M24.1 118.2h94.5v11.1H24.1z"/><defs><path id="SVGID_25_" d="M29.1 126.6c0-.3.2-.5.5-.5H122c.3 0 .5.3.5.5 0 .3-.2.5-.5.5H29.7c-.3 0-.6-.2-.6-.5z"/></defs><clipPath id="SVGID_26_"><use xlink:href="#SVGID_25_" overflow="visible"/></clipPath><path class="st12" d="M24.1 121.1h103.5v11.1H24.1z"/><defs><path id="SVGID_27_" d="M23.5 113.3c-1.4 0-2.5 1.1-2.5 2.5s1.1 2.5 2.5 2.5 2.5-1.1 2.5-2.5c.1-1.4-1.1-2.5-2.5-2.5z"/></defs><clipPath id="SVGID_28_"><use xlink:href="#SVGID_27_" overflow="visible"/></clipPath><path class="st13" d="M16 108.3h15v15H16z"/><defs><path id="SVGID_29_" d="M23.2 118.1h.5v12.4h-.5z"/></defs><clipPath id="SVGID_30_"><use xlink:href="#SVGID_29_" overflow="visible"/></clipPath><path class="st14" d="M18.2 113.1h10.5v22.4H18.2z"/><defs><path id="SVGID_31_" d="M29.1 132.8c0-.3.2-.5.5-.5h56.1c.3 0 .5.3.5.5 0 .3-.2.5-.5.5h-56c-.3 0-.6-.2-.6-.5z"/></defs><clipPath id="SVGID_32_"><use xlink:href="#SVGID_31_" overflow="visible"/></clipPath><path class="st15" d="M24.1 127.2h67.2v11.1H24.1z"/><defs><path id="SVGID_33_" d="M142.3 132.8c0-.3.2-.5.5-.5h9.8c.3 0 .5.3.5.5 0 .3-.2.5-.5.5h-9.8c-.3 0-.5-.2-.5-.5z"/></defs><clipPath id="SVGID_34_"><use xlink:href="#SVGID_33_" overflow="visible"/></clipPath><path class="st16" d="M137.3 127.2h20.9v11.1h-20.9z"/><defs><path id="SVGID_35_" d="M29.1 137.8c0-.3.2-.5.5-.5h101.8c.3 0 .5.3.5.5 0 .3-.2.5-.5.5H29.7c-.3.1-.6-.2-.6-.5z"/></defs><clipPath id="SVGID_36_"><use xlink:href="#SVGID_35_" overflow="visible"/></clipPath><path class="st17" d="M24.1 132.3H137v11.1H24.1z"/><defs><path id="SVGID_37_" d="M29.1 140.7c0-.3.2-.5.5-.5H113c.3 0 .5.3.5.5 0 .3-.2.5-.5.5H29.7c-.3 0-.6-.2-.6-.5z"/></defs><clipPath id="SVGID_38_"><use xlink:href="#SVGID_37_" overflow="visible"/></clipPath><path class="st18" d="M24.1 135.2h94.5v11.1H24.1z"/><defs><path id="SVGID_39_" d="M29.1 143.6c0-.3.2-.5.5-.5H122c.3 0 .5.3.5.5 0 .3-.2.5-.5.5H29.7c-.3 0-.6-.2-.6-.5z"/></defs><clipPath id="SVGID_40_"><use xlink:href="#SVGID_39_" overflow="visible"/></clipPath><path class="st19" d="M24.1 138.1h103.5v11.1H24.1z"/><defs><path id="SVGID_41_" d="M23.5 130.3c-1.4 0-2.5 1.1-2.5 2.5s1.1 2.5 2.5 2.5 2.5-1.1 2.5-2.5c.1-1.4-1.1-2.5-2.5-2.5z"/></defs><clipPath id="SVGID_42_"><use xlink:href="#SVGID_41_" overflow="visible"/></clipPath><path class="st20" d="M16 125.3h15v15H16z"/><defs><path id="SVGID_43_" d="M23.2 135.1h.5v12.4h-.5z"/></defs><clipPath id="SVGID_44_"><use xlink:href="#SVGID_43_" overflow="visible"/></clipPath><path class="st21" d="M18.2 130.1h10.5v22.4H18.2z"/><defs><path id="SVGID_45_" d="M29.1 149.8c0-.3.2-.5.5-.5h56.1c.3 0 .5.3.5.5 0 .3-.2.5-.5.5h-56c-.3 0-.6-.2-.6-.5z"/></defs><clipPath id="SVGID_46_"><use xlink:href="#SVGID_45_" overflow="visible"/></clipPath><path class="st22" d="M24.1 144.2h67.2v11.1H24.1z"/><defs><path id="SVGID_47_" d="M142.3 149.8c0-.3.2-.5.5-.5h9.8c.3 0 .5.3.5.5 0 .3-.2.5-.5.5h-9.8c-.3 0-.5-.2-.5-.5z"/></defs><clipPath id="SVGID_48_"><use xlink:href="#SVGID_47_" overflow="visible"/></clipPath><path class="st23" d="M137.3 144.2h20.9v11.1h-20.9z"/><defs><path id="SVGID_49_" d="M29.1 154.8c0-.3.2-.5.5-.5h101.8c.3 0 .5.3.5.5 0 .3-.2.5-.5.5H29.7c-.3.1-.6-.2-.6-.5z"/></defs><clipPath id="SVGID_50_"><use xlink:href="#SVGID_49_" overflow="visible"/></clipPath><path class="st24" d="M24.1 149.3H137v11.1H24.1z"/><defs><path id="SVGID_51_" d="M29.1 157.7c0-.3.2-.5.5-.5H113c.3 0 .5.3.5.5 0 .3-.2.5-.5.5H29.7c-.3 0-.6-.2-.6-.5z"/></defs><clipPath id="SVGID_52_"><use xlink:href="#SVGID_51_" overflow="visible"/></clipPath><path class="st25" d="M24.1 152.2h94.5v11.1H24.1z"/><defs><path id="SVGID_53_" d="M29.1 160.6c0-.3.2-.5.5-.5H122c.3 0 .5.3.5.5 0 .3-.2.5-.5.5H29.7c-.3 0-.6-.2-.6-.5z"/></defs><clipPath id="SVGID_54_"><use xlink:href="#SVGID_53_" overflow="visible"/></clipPath><path class="st26" d="M24.1 155.1h103.5v11.1H24.1z"/><defs><path id="SVGID_55_" d="M23.5 147.3c-1.4 0-2.5 1.1-2.5 2.5s1.1 2.5 2.5 2.5 2.5-1.1 2.5-2.5c.1-1.4-1.1-2.5-2.5-2.5z"/></defs><clipPath id="SVGID_56_"><use xlink:href="#SVGID_55_" overflow="visible"/></clipPath><path class="st27" d="M16 142.3h15v15H16z"/><defs><path id="SVGID_57_" d="M23.2 152.1h.5v12.4h-.5z"/></defs><clipPath id="SVGID_58_"><use xlink:href="#SVGID_57_" overflow="visible"/></clipPath><path class="st28" d="M18.2 147.1h10.5v22.4H18.2z"/><defs><path id="SVGID_59_" d="M29.1 166.8c0-.3.2-.5.5-.5h56.1c.3 0 .5.3.5.5 0 .3-.2.5-.5.5h-56c-.3 0-.6-.2-.6-.5z"/></defs><clipPath id="SVGID_60_"><use xlink:href="#SVGID_59_" overflow="visible"/></clipPath><path class="st29" d="M24.1 161.2h67.2v11.1H24.1z"/><defs><path id="SVGID_61_" d="M142.3 166.8c0-.3.2-.5.5-.5h9.8c.3 0 .5.3.5.5 0 .3-.2.5-.5.5h-9.8c-.3 0-.5-.2-.5-.5z"/></defs><clipPath id="SVGID_62_"><use xlink:href="#SVGID_61_" overflow="visible"/></clipPath><path class="st30" d="M137.3 161.2h20.9v11.1h-20.9z"/><defs><path id="SVGID_63_" d="M29.1 171.8c0-.3.2-.5.5-.5h101.8c.3 0 .5.3.5.5 0 .3-.2.5-.5.5H29.7c-.3.1-.6-.2-.6-.5z"/></defs><clipPath id="SVGID_64_"><use xlink:href="#SVGID_63_" overflow="visible"/></clipPath><path class="st31" d="M24.1 166.3H137v11.1H24.1z"/><defs><path id="SVGID_65_" d="M29.1 174.7c0-.3.2-.5.5-.5H113c.3 0 .5.3.5.5 0 .3-.2.5-.5.5H29.7c-.3 0-.6-.2-.6-.5z"/></defs><clipPath id="SVGID_66_"><use xlink:href="#SVGID_65_" overflow="visible"/></clipPath><path class="st32" d="M24.1 169.2h94.5v11.1H24.1z"/><defs><path id="SVGID_67_" d="M29.1 177.6c0-.3.2-.5.5-.5H122c.3 0 .5.3.5.5 0 .3-.2.5-.5.5H29.7c-.3 0-.6-.2-.6-.5z"/></defs><clipPath id="SVGID_68_"><use xlink:href="#SVGID_67_" overflow="visible"/></clipPath><path class="st33" d="M24.1 172.1h103.5v11.1H24.1z"/><defs><path id="SVGID_69_" d="M23.5 164.3c-1.4 0-2.5 1.1-2.5 2.5s1.1 2.5 2.5 2.5 2.5-1.1 2.5-2.5c.1-1.4-1.1-2.5-2.5-2.5z"/></defs><clipPath id="SVGID_70_"><use xlink:href="#SVGID_69_" overflow="visible"/></clipPath><path class="st34" d="M16 159.3h15v15H16z"/><defs><path id="SVGID_71_" d="M23.2 169.1h.5v12.4h-.5z"/></defs><clipPath id="SVGID_72_"><use xlink:href="#SVGID_71_" overflow="visible"/></clipPath><path class="st35" d="M18.2 164.1h10.5v22.4H18.2z"/><defs><path id="SVGID_73_" d="M29.1 183.8c0-.3.2-.5.5-.5h56.1c.3 0 .5.3.5.5 0 .3-.2.5-.5.5h-56c-.3 0-.6-.2-.6-.5z"/></defs><clipPath id="SVGID_74_"><use xlink:href="#SVGID_73_" overflow="visible"/></clipPath><path class="st36" d="M24.1 178.2h67.2v11.1H24.1z"/><defs><path id="SVGID_75_" d="M142.3 183.8c0-.3.2-.5.5-.5h9.8c.3 0 .5.3.5.5 0 .3-.2.5-.5.5h-9.8c-.3 0-.5-.2-.5-.5z"/></defs><clipPath id="SVGID_76_"><use xlink:href="#SVGID_75_" overflow="visible"/></clipPath><path class="st37" d="M137.3 178.2h20.9v11.1h-20.9z"/><defs><path id="SVGID_77_" d="M29.1 188.8c0-.3.2-.5.5-.5h101.8c.3 0 .5.3.5.5 0 .3-.2.5-.5.5H29.7c-.3.1-.6-.2-.6-.5z"/></defs><clipPath id="SVGID_78_"><use xlink:href="#SVGID_77_" overflow="visible"/></clipPath><path class="st38" d="M24.1 183.3H137v11.1H24.1z"/><defs><path id="SVGID_79_" d="M29.1 191.7c0-.3.2-.5.5-.5H113c.3 0 .5.3.5.5 0 .3-.2.5-.5.5H29.7c-.3 0-.6-.2-.6-.5z"/></defs><clipPath id="SVGID_80_"><use xlink:href="#SVGID_79_" overflow="visible"/></clipPath><path class="st39" d="M24.1 186.2h94.5v11.1H24.1z"/><defs><path id="SVGID_81_" d="M29.1 194.6c0-.3.2-.5.5-.5H122c.3 0 .5.3.5.5 0 .3-.2.5-.5.5H29.7c-.3 0-.6-.2-.6-.5z"/></defs><clipPath id="SVGID_82_"><use xlink:href="#SVGID_81_" overflow="visible"/></clipPath><path class="st40" d="M24.1 189.1h103.5v11.1H24.1z"/><defs><path id="SVGID_83_" d="M23.5 181.3c-1.4 0-2.5 1.1-2.5 2.5s1.1 2.5 2.5 2.5 2.5-1.1 2.5-2.5c.1-1.4-1.1-2.5-2.5-2.5z"/></defs><clipPath id="SVGID_84_"><use xlink:href="#SVGID_83_" overflow="visible"/></clipPath><path class="st41" d="M16 176.3h15v15H16z"/><defs><path id="SVGID_85_" d="M23.2 186.1h.5v12.4h-.5z"/></defs><clipPath id="SVGID_86_"><use xlink:href="#SVGID_85_" overflow="visible"/></clipPath><path class="st42" d="M18.2 181.1h10.5v22.4H18.2z"/><defs><path id="SVGID_87_" d="M29.1 200.8c0-.3.2-.5.5-.5h56.1c.3 0 .5.3.5.5 0 .3-.2.5-.5.5h-56c-.3 0-.6-.2-.6-.5z"/></defs><clipPath id="SVGID_88_"><use xlink:href="#SVGID_87_" overflow="visible"/></clipPath><path class="st43" d="M24.1 195.2h67.2v11.1H24.1z"/><defs><path id="SVGID_89_" d="M142.3 200.8c0-.3.2-.5.5-.5h9.8c.3 0 .5.3.5.5 0 .3-.2.5-.5.5h-9.8c-.3 0-.5-.2-.5-.5z"/></defs><clipPath id="SVGID_90_"><use xlink:href="#SVGID_89_" overflow="visible"/></clipPath><path class="st44" d="M137.3 195.2h20.9v11.1h-20.9z"/><defs><path id="SVGID_91_" d="M29.1 205.8c0-.3.2-.5.5-.5h101.8c.3 0 .5.3.5.5 0 .3-.2.5-.5.5H29.7c-.3.1-.6-.2-.6-.5z"/></defs><clipPath id="SVGID_92_"><use xlink:href="#SVGID_91_" overflow="visible"/></clipPath><path class="st45" d="M24.1 200.3H137v11.1H24.1z"/><defs><path id="SVGID_93_" d="M29.1 208.7c0-.3.2-.5.5-.5H113c.3 0 .5.3.5.5 0 .3-.2.5-.5.5H29.7c-.3 0-.6-.2-.6-.5z"/></defs><clipPath id="SVGID_94_"><use xlink:href="#SVGID_93_" overflow="visible"/></clipPath><path class="st46" d="M24.1 203.2h94.5v11.1H24.1z"/><defs><path id="SVGID_95_" d="M29.1 211.6c0-.3.2-.5.5-.5H122c.3 0 .5.3.5.5 0 .3-.2.5-.5.5H29.7c-.3 0-.6-.2-.6-.5z"/></defs><clipPath id="SVGID_96_"><use xlink:href="#SVGID_95_" overflow="visible"/></clipPath><path class="st47" d="M24.1 206.1h103.5v11.1H24.1z"/><defs><path id="SVGID_97_" d="M23.5 198.3c-1.4 0-2.5 1.1-2.5 2.5s1.1 2.5 2.5 2.5 2.5-1.1 2.5-2.5c.1-1.4-1.1-2.5-2.5-2.5z"/></defs><clipPath id="SVGID_98_"><use xlink:href="#SVGID_97_" overflow="visible"/></clipPath><path class="st48" d="M16 193.3h15v15H16z"/><defs><path id="SVGID_99_" d="M23.2 203.1h.5v12.4h-.5z"/></defs><clipPath id="SVGID_100_"><use xlink:href="#SVGID_99_" overflow="visible"/></clipPath><path class="st49" d="M18.2 198.1h10.5v22.4H18.2z"/><defs><path id="SVGID_101_" d="M29.1 217.8c0-.3.2-.5.5-.5h56.1c.3 0 .5.3.5.5 0 .3-.2.5-.5.5h-56c-.3 0-.6-.2-.6-.5z"/></defs><clipPath id="SVGID_102_"><use xlink:href="#SVGID_101_" overflow="visible"/></clipPath><path class="st50" d="M24.1 212.2h67.2v11.1H24.1z"/><defs><path id="SVGID_103_" d="M142.3 217.8c0-.3.2-.5.5-.5h9.8c.3 0 .5.3.5.5 0 .3-.2.5-.5.5h-9.8c-.3 0-.5-.2-.5-.5z"/></defs><clipPath id="SVGID_104_"><use xlink:href="#SVGID_103_" overflow="visible"/></clipPath><path class="st51" d="M137.3 212.2h20.9v11.1h-20.9z"/><defs><path id="SVGID_105_" d="M29.1 222.8c0-.3.2-.5.5-.5h101.8c.3 0 .5.3.5.5 0 .3-.2.5-.5.5H29.7c-.3.1-.6-.2-.6-.5z"/></defs><clipPath id="SVGID_106_"><use xlink:href="#SVGID_105_" overflow="visible"/></clipPath><path class="st52" d="M24.1 217.3H137v11.1H24.1z"/><defs><path id="SVGID_107_" d="M29.1 225.7c0-.3.2-.5.5-.5H113c.3 0 .5.3.5.5 0 .3-.2.5-.5.5H29.7c-.3 0-.6-.2-.6-.5z"/></defs><clipPath id="SVGID_108_"><use xlink:href="#SVGID_107_" overflow="visible"/></clipPath><path class="st53" d="M24.1 220.2h94.5v11.1H24.1z"/><defs><path id="SVGID_109_" d="M23.5 215.3c-1.4 0-2.5 1.1-2.5 2.5s1.1 2.5 2.5 2.5 2.5-1.1 2.5-2.5c.1-1.4-1.1-2.5-2.5-2.5z"/></defs><clipPath id="SVGID_110_"><use xlink:href="#SVGID_109_" overflow="visible"/></clipPath><path class="st54" d="M16 210.3h15v15H16z"/><g><defs><path id="SVGID_111_" d="M23.2 220.1h.5v9.1h-.5z"/></defs><clipPath id="SVGID_112_"><use xlink:href="#SVGID_111_" overflow="visible"/></clipPath><path class="st55" d="M18.2 215.1h10.5v19.1H18.2z"/></g><g><defs><path id="SVGID_113_" d="M136.5 80.2c-1.8 0-3.2 1.5-3.2 3.2 0 1.8 1.5 3.2 3.2 3.2h10.6c1.8 0 3.2-1.5 3.2-3.2 0-1.8-1.5-3.2-3.2-3.2h-10.6z"/></defs><clipPath id="SVGID_114_"><use xlink:href="#SVGID_113_" overflow="visible"/></clipPath><path class="st56" d="M136.5 80.2c-1.8 0-3.2 1.5-3.2 3.2 0 1.8 1.5 3.2 3.2 3.2h10.6c1.8 0 3.2-1.5 3.2-3.2 0-1.8-1.5-3.2-3.2-3.2h-10.6z"/></g><g><defs><path id="SVGID_115_" d="M21.2 70.3h17.1v7.4H21.2z"/></defs><clipPath id="SVGID_116_"><use xlink:href="#SVGID_115_" overflow="visible"/></clipPath><path class="st57" d="M16.2 65.3h27.1v17.4H16.2z"/></g><g><defs><path id="SVGID_117_" d="M22.2 70.3c-.6 0-1 .4-1 1V88c0 .6.5 1 1 1h129.9c.6 0 1-.4 1-1V71.3c0-.6-.5-1-1-1H22.2zm-12-11h153.9V100H10.2V59.3z"/></defs><clipPath id="SVGID_118_"><use xlink:href="#SVGID_117_" overflow="visible"/></clipPath><path class="st58" d="M22.2 70.3c-.6 0-1 .4-1 1V88c0 .6.5 1 1 1h129.9c.6 0 1-.4 1-1V71.3c0-.6-.5-1-1-1H22.2z"/></g><g><defs><path id="SVGID_119_" d="M10.3 10.3H241v47.1H10.3z"/></defs><clipPath id="SVGID_120_"><use xlink:href="#SVGID_119_" overflow="visible"/></clipPath><path class="st59" d="M10.3 10.3H241v47.1H10.3z"/></g><g><defs><path id="SVGID_121_" d="M0 0h241v11.1H0z"/></defs><clipPath id="SVGID_122_"><use xlink:href="#SVGID_121_" overflow="visible"/></clipPath><path class="st60" d="M0 0h241v11.1H0z"/></g><g><defs><path id="SVGID_123_" d="M0 10h241v11.1H0z"/></defs><clipPath id="SVGID_124_"><use xlink:href="#SVGID_123_" overflow="visible"/></clipPath><path class="st61" d="M0 10h241v11.1H0z"/></g><g><defs><path id="SVGID_125_" d="M0 10h241v11.1H0z"/></defs><clipPath id="SVGID_126_"><use xlink:href="#SVGID_125_" overflow="visible"/></clipPath><path class="st62" d="M0 10h241v11.1H0z"/></g><g><defs><path id="SVGID_127_" d="M232.9 15.4l1-1v-.2l-.2-.2h-.2l-1 1h-.1l-1-1h-.2l-.2.2v.2l1 1v.1l-1 1v.2l.2.2h.2l1-1h.1l1 1h.2l.2-.2v-.2l-1-1c-.1 0-.1-.1 0-.1"/></defs><clipPath id="SVGID_128_"><use xlink:href="#SVGID_127_" overflow="visible"/></clipPath><path class="st63" d="M226 9h12.9v12.9H226z"/></g><g><defs><path id="SVGID_129_" d="M17.4 3.3c.3-.3.7-.5 1.2-.5.6 0 1.1.3 1.4.8.2-.1.5-.2.8-.2 1.1 0 2 .9 2 2s-.9 2-2 2h-.4c-.3.4-.7.7-1.3.7-.2 0-.4-.1-.6-.1-.3.6-.8 1-1.5 1s-1.3-.5-1.6-1.1h-.3c-.9 0-1.6-.7-1.6-1.6 0-.6.3-1.1.8-1.4-.1-.2-.1-.5-.1-.7 0-1 .8-1.8 1.8-1.8.6.1 1.1.4 1.4.9"/></defs><clipPath id="SVGID_130_"><use xlink:href="#SVGID_129_" overflow="visible"/></clipPath><path class="st64" d="M8.6-2.5h19.3V14H8.6z"/></g><g><defs><path id="SVGID_131_" d="M0 .2h10.7v230H0z"/></defs><clipPath id="SVGID_132_"><use xlink:href="#SVGID_131_" overflow="visible"/></clipPath><path class="st65" d="M-5-4.8h20.7v240H-5z"/></g><path class="st66" d="M164 57v172.9"/></svg>