<svg id="Layer_1" xmlns="http://www.w3.org/2000/svg" xmlns:xlink="http://www.w3.org/1999/xlink" width="241" height="276.2"><style>.st0{clip-path:url(#SVGID_2_);fill-rule:evenodd;clip-rule:evenodd;fill:#FFFFFF;} .st1{clip-path:url(#SVGID_4_);fill:none;stroke:#E1E6EF;stroke-width:2;stroke-miterlimit:10;} .st2{clip-path:url(#SVGID_6_);fill:#D3DCE7;} .st3{clip-path:url(#SVGID_8_);fill:#D3DCE7;} .st4{clip-path:url(#SVGID_10_);fill:#D3DCE7;} .st5{clip-path:url(#SVGID_12_);fill:#D3DCE7;} .st6{clip-path:url(#SVGID_14_);fill:#D3DCE7;} .st7{clip-path:url(#SVGID_16_);fill:#D3DCE7;} .st8{clip-path:url(#SVGID_18_);fill:#D3DCE7;} .st9{clip-path:url(#SVGID_20_);fill:#D3DCE7;} .st10{clip-path:url(#SVGID_22_);fill:none;stroke:#E1E6EF;stroke-width:2;stroke-miterlimit:10;} .st11{clip-path:url(#SVGID_24_);fill:#4D6892;} .st12{clip-path:url(#SVGID_26_);fill:#4D6892;} .st13{clip-path:url(#SVGID_28_);fill:#4D6892;} .st14{clip-path:url(#SVGID_30_);fill:#4D6892;} .st15{clip-path:url(#SVGID_32_);fill:#4D6892;} .st16{clip-path:url(#SVGID_34_);fill:#4D6892;} .st17{clip-path:url(#SVGID_36_);fill:#4D6892;} .st18{clip-path:url(#SVGID_38_);fill:#4D6892;} .st19{clip-path:url(#SVGID_40_);fill:#16325C;} .st20{clip-path:url(#SVGID_42_);fill:#4D6892;} .st21{clip-path:url(#SVGID_44_);fill:#4D6892;} .st22{clip-path:url(#SVGID_46_);fill:#4D6892;} .st23{clip-path:url(#SVGID_48_);fill:#4D6892;} .st24{clip-path:url(#SVGID_50_);fill:#4D6892;} .st25{clip-path:url(#SVGID_52_);fill:#4D6892;} .st26{clip-path:url(#SVGID_54_);fill:#4D6892;} .st27{clip-path:url(#SVGID_56_);fill:#4D6892;} .st28{clip-path:url(#SVGID_58_);fill:#16325C;} .st29{clip-path:url(#SVGID_60_);fill:#D3DCE7;} .st30{clip-path:url(#SVGID_62_);fill:#D3DCE7;} .st31{clip-path:url(#SVGID_64_);fill:#D3DCE7;} .st32{clip-path:url(#SVGID_66_);fill:#D3DCE7;} .st33{clip-path:url(#SVGID_68_);fill:#D3DCE7;} .st34{clip-path:url(#SVGID_70_);fill:#D3DCE7;} .st35{clip-path:url(#SVGID_72_);fill:#D3DCE7;} .st36{clip-path:url(#SVGID_74_);fill:#D3DCE7;} .st37{clip-path:url(#SVGID_76_);fill:#C23934;} .st38{clip-path:url(#SVGID_78_);fill:#04844B;} .st39{clip-path:url(#SVGID_80_);fill:#C23934;} .st40{clip-path:url(#SVGID_82_);fill:#04844B;}</style><defs><path id="SVGID_1_" d="M2 0C.9 0 0 .9 0 2v96c0 1.1.9 2 2 2h106c1.1 0 2-.9 2-2V2c0-1.1-.9-2-2-2H2z"/></defs><clipPath id="SVGID_2_"><use xlink:href="#SVGID_1_" overflow="visible"/></clipPath><path class="st0" d="M2 0C.9 0 0 .9 0 2v96c0 1.1.9 2 2 2h106c1.1 0 2-.9 2-2V2c0-1.1-.9-2-2-2H2z"/><defs><path id="SVGID_3_" d="M2 0C.9 0 0 .9 0 2v96c0 1.1.9 2 2 2h106c1.1 0 2-.9 2-2V2c0-1.1-.9-2-2-2H2z"/></defs><clipPath id="SVGID_4_"><use xlink:href="#SVGID_3_" overflow="visible"/></clipPath><path class="st1" d="M2 0C.9 0 0 .9 0 2v96c0 1.1.9 2 2 2h106c1.1 0 2-.9 2-2V2c0-1.1-.9-2-2-2H2z"/><defs><path id="SVGID_5_" d="M9.3 12.6c0-.6.4-1 1-1H72c.6 0 1 .4 1 1s-.4 1-1 1H10.3c-.5 0-1-.5-1-1z"/></defs><clipPath id="SVGID_6_"><use xlink:href="#SVGID_5_" overflow="visible"/></clipPath><path class="st2" d="M4.3 6.6h73.6v12H4.3z"/><defs><path id="SVGID_7_" d="M9.3 22.6c0-.6.4-1 1-1H38c.6 0 1 .4 1 1s-.4 1-1 1H10.3c-.5 0-1-.5-1-1z"/></defs><clipPath id="SVGID_8_"><use xlink:href="#SVGID_7_" overflow="visible"/></clipPath><path class="st3" d="M4.3 16.6H44v12H4.3z"/><defs><path id="SVGID_9_" d="M9.3 32.6c0-.6.4-1 1-1H56c.6 0 1 .4 1 1s-.4 1-1 1H10.3c-.5 0-1-.5-1-1z"/></defs><clipPath id="SVGID_10_"><use xlink:href="#SVGID_9_" overflow="visible"/></clipPath><path class="st4" d="M4.3 26.6H62v12H4.3z"/><defs><path id="SVGID_11_" d="M9.3 42.6c0-.6.4-1 1-1H38c.6 0 1 .4 1 1s-.4 1-1 1H10.3c-.5 0-1-.5-1-1z"/></defs><clipPath id="SVGID_12_"><use xlink:href="#SVGID_11_" overflow="visible"/></clipPath><path class="st5" d="M4.3 36.6H44v12H4.3z"/><defs><path id="SVGID_13_" d="M9.3 52.6c0-.6.4-1 1-1H56c.6 0 1 .4 1 1s-.4 1-1 1H10.3c-.5 0-1-.5-1-1z"/></defs><clipPath id="SVGID_14_"><use xlink:href="#SVGID_13_" overflow="visible"/></clipPath><path class="st6" d="M4.3 46.6H62v12H4.3z"/><defs><path id="SVGID_15_" d="M9.3 62.6c0-.6.4-1 1-1H38c.6 0 1 .4 1 1s-.4 1-1 1H10.3c-.5 0-1-.5-1-1z"/></defs><clipPath id="SVGID_16_"><use xlink:href="#SVGID_15_" overflow="visible"/></clipPath><path class="st7" d="M4.3 56.6H44v12H4.3z"/><defs><path id="SVGID_17_" d="M9.3 72.6c0-.6.4-1 1-1H56c.6 0 1 .4 1 1s-.4 1-1 1H10.3c-.5 0-1-.5-1-1z"/></defs><clipPath id="SVGID_18_"><use xlink:href="#SVGID_17_" overflow="visible"/></clipPath><path class="st8" d="M4.3 66.6H62v12H4.3z"/><defs><path id="SVGID_19_" d="M9.3 82.6c0-.6.4-1 1-1H38c.6 0 1 .4 1 1s-.4 1-1 1H10.3c-.5 0-1-.5-1-1z"/></defs><clipPath id="SVGID_20_"><use xlink:href="#SVGID_19_" overflow="visible"/></clipPath><path class="st9" d="M4.3 76.6H44v12H4.3z"/><defs><path id="SVGID_21_" d="M133 0c-1.1 0-2 .9-2 2v96c0 1.1.9 2 2 2h106c1.1 0 2-.9 2-2V2c0-1.1-.9-2-2-2H133z"/></defs><clipPath id="SVGID_22_"><use xlink:href="#SVGID_21_" overflow="visible"/></clipPath><path class="st10" d="M133 0c-1.1 0-2 .9-2 2v96c0 1.1.9 2 2 2h106c1.1 0 2-.9 2-2V2c0-1.1-.9-2-2-2H133z"/><defs><path id="SVGID_23_" d="M140.3 12.6c0-.6.4-1 1-1H203c.6 0 1 .4 1 1s-.4 1-1 1h-61.6c-.6 0-1.1-.5-1.1-1z"/></defs><clipPath id="SVGID_24_"><use xlink:href="#SVGID_23_" overflow="visible"/></clipPath><path class="st11" d="M135.3 6.6h73.6v12h-73.6z"/><defs><path id="SVGID_25_" d="M140.3 22.6c0-.6.4-1 1-1H169c.6 0 1 .4 1 1s-.4 1-1 1h-27.7c-.5 0-1-.5-1-1z"/></defs><clipPath id="SVGID_26_"><use xlink:href="#SVGID_25_" overflow="visible"/></clipPath><path class="st12" d="M135.3 16.6H175v12h-39.7z"/><defs><path id="SVGID_27_" d="M140.3 32.6c0-.6.4-1 1-1H187c.5 0 1 .4 1 1s-.4 1-1 1h-45.7c-.5 0-1-.5-1-1z"/></defs><clipPath id="SVGID_28_"><use xlink:href="#SVGID_27_" overflow="visible"/></clipPath><path class="st13" d="M135.3 26.6H193v12h-57.7z"/><defs><path id="SVGID_29_" d="M140.3 42.6c0-.6.4-1 1-1H169c.6 0 1 .4 1 1s-.4 1-1 1h-27.7c-.5 0-1-.5-1-1z"/></defs><clipPath id="SVGID_30_"><use xlink:href="#SVGID_29_" overflow="visible"/></clipPath><path class="st14" d="M135.3 36.6H175v12h-39.7z"/><defs><path id="SVGID_31_" d="M140.3 52.6c0-.6.4-1 1-1H187c.5 0 1 .4 1 1s-.4 1-1 1h-45.7c-.5 0-1-.5-1-1z"/></defs><clipPath id="SVGID_32_"><use xlink:href="#SVGID_31_" overflow="visible"/></clipPath><path class="st15" d="M135.3 46.6H193v12h-57.7z"/><defs><path id="SVGID_33_" d="M140.3 62.6c0-.6.4-1 1-1H169c.6 0 1 .4 1 1s-.4 1-1 1h-27.7c-.5 0-1-.5-1-1z"/></defs><clipPath id="SVGID_34_"><use xlink:href="#SVGID_33_" overflow="visible"/></clipPath><path class="st16" d="M135.3 56.6H175v12h-39.7z"/><defs><path id="SVGID_35_" d="M140.3 72.6c0-.6.4-1 1-1H187c.5 0 1 .4 1 1s-.4 1-1 1h-45.7c-.5 0-1-.5-1-1z"/></defs><clipPath id="SVGID_36_"><use xlink:href="#SVGID_35_" overflow="visible"/></clipPath><path class="st17" d="M135.3 66.6H193v12h-57.7z"/><defs><path id="SVGID_37_" d="M140.3 82.6c0-.6.4-1 1-1H169c.6 0 1 .4 1 1s-.4 1-1 1h-27.7c-.5 0-1-.5-1-1z"/></defs><clipPath id="SVGID_38_"><use xlink:href="#SVGID_37_" overflow="visible"/></clipPath><path class="st18" d="M135.3 76.6H175v12h-39.7z"/><defs><path id="SVGID_39_" d="M2 154c-1.1 0-2 .9-2 2v96c0 1.1.9 2 2 2h106c1.1 0 2-.9 2-2v-96c0-1.1-.9-2-2-2H2z"/></defs><clipPath id="SVGID_40_"><use xlink:href="#SVGID_39_" overflow="visible"/></clipPath><path class="st19" d="M-5 149h120v110H-5z"/><defs><path id="SVGID_41_" d="M9.3 166.6c0-.6.4-1 1-1H72c.6 0 1 .4 1 1s-.4 1-1 1H10.3c-.5 0-1-.5-1-1z"/></defs><clipPath id="SVGID_42_"><use xlink:href="#SVGID_41_" overflow="visible"/></clipPath><path class="st20" d="M4.3 160.6h73.6v12H4.3z"/><defs><path id="SVGID_43_" d="M9.3 176.6c0-.6.4-1 1-1H38c.6 0 1 .4 1 1s-.4 1-1 1H10.3c-.5 0-1-.5-1-1z"/></defs><clipPath id="SVGID_44_"><use xlink:href="#SVGID_43_" overflow="visible"/></clipPath><path class="st21" d="M4.3 170.6H44v12H4.3z"/><defs><path id="SVGID_45_" d="M9.3 186.6c0-.6.4-1 1-1H56c.6 0 1 .4 1 1s-.4 1-1 1H10.3c-.5 0-1-.5-1-1z"/></defs><clipPath id="SVGID_46_"><use xlink:href="#SVGID_45_" overflow="visible"/></clipPath><path class="st22" d="M4.3 180.6H62v12H4.3z"/><defs><path id="SVGID_47_" d="M9.3 196.6c0-.6.4-1 1-1H38c.6 0 1 .4 1 1s-.4 1-1 1H10.3c-.5 0-1-.5-1-1z"/></defs><clipPath id="SVGID_48_"><use xlink:href="#SVGID_47_" overflow="visible"/></clipPath><path class="st23" d="M4.3 190.6H44v12H4.3z"/><defs><path id="SVGID_49_" d="M9.3 206.6c0-.6.4-1 1-1H56c.6 0 1 .4 1 1s-.4 1-1 1H10.3c-.5 0-1-.5-1-1z"/></defs><clipPath id="SVGID_50_"><use xlink:href="#SVGID_49_" overflow="visible"/></clipPath><path class="st24" d="M4.3 200.6H62v12H4.3z"/><defs><path id="SVGID_51_" d="M9.3 216.6c0-.6.4-1 1-1H38c.6 0 1 .4 1 1s-.4 1-1 1H10.3c-.5 0-1-.5-1-1z"/></defs><clipPath id="SVGID_52_"><use xlink:href="#SVGID_51_" overflow="visible"/></clipPath><path class="st25" d="M4.3 210.6H44v12H4.3z"/><defs><path id="SVGID_53_" d="M9.3 226.6c0-.6.4-1 1-1H56c.6 0 1 .4 1 1s-.4 1-1 1H10.3c-.5 0-1-.5-1-1z"/></defs><clipPath id="SVGID_54_"><use xlink:href="#SVGID_53_" overflow="visible"/></clipPath><path class="st26" d="M4.3 220.6H62v12H4.3z"/><defs><path id="SVGID_55_" d="M9.3 236.6c0-.6.4-1 1-1H38c.6 0 1 .4 1 1s-.4 1-1 1H10.3c-.5 0-1-.5-1-1z"/></defs><clipPath id="SVGID_56_"><use xlink:href="#SVGID_55_" overflow="visible"/></clipPath><path class="st27" d="M4.3 230.6H44v12H4.3z"/><defs><path id="SVGID_57_" d="M133 154c-1.1 0-2 .9-2 2v96c0 1.1.9 2 2 2h106c1.1 0 2-.9 2-2v-96c0-1.1-.9-2-2-2H133z"/></defs><clipPath id="SVGID_58_"><use xlink:href="#SVGID_57_" overflow="visible"/></clipPath><path class="st28" d="M126 149h120v110H126z"/><defs><path id="SVGID_59_" d="M140.3 166.6c0-.6.4-1 1-1H203c.6 0 1 .4 1 1s-.4 1-1 1h-61.6c-.6 0-1.1-.5-1.1-1z"/></defs><clipPath id="SVGID_60_"><use xlink:href="#SVGID_59_" overflow="visible"/></clipPath><path class="st29" d="M135.3 160.6h73.6v12h-73.6z"/><defs><path id="SVGID_61_" d="M140.3 176.6c0-.6.4-1 1-1H169c.6 0 1 .4 1 1s-.4 1-1 1h-27.7c-.5 0-1-.5-1-1z"/></defs><clipPath id="SVGID_62_"><use xlink:href="#SVGID_61_" overflow="visible"/></clipPath><path class="st30" d="M135.3 170.6H175v12h-39.7z"/><defs><path id="SVGID_63_" d="M140.3 186.6c0-.6.4-1 1-1H187c.5 0 1 .4 1 1s-.4 1-1 1h-45.7c-.5 0-1-.5-1-1z"/></defs><clipPath id="SVGID_64_"><use xlink:href="#SVGID_63_" overflow="visible"/></clipPath><path class="st31" d="M135.3 180.6H193v12h-57.7z"/><defs><path id="SVGID_65_" d="M140.3 196.6c0-.6.4-1 1-1H169c.6 0 1 .4 1 1s-.4 1-1 1h-27.7c-.5 0-1-.5-1-1z"/></defs><clipPath id="SVGID_66_"><use xlink:href="#SVGID_65_" overflow="visible"/></clipPath><path class="st32" d="M135.3 190.6H175v12h-39.7z"/><g><defs><path id="SVGID_67_" d="M140.3 206.6c0-.6.4-1 1-1H187c.5 0 1 .4 1 1s-.4 1-1 1h-45.7c-.5 0-1-.5-1-1z"/></defs><clipPath id="SVGID_68_"><use xlink:href="#SVGID_67_" overflow="visible"/></clipPath><path class="st33" d="M135.3 200.6H193v12h-57.7z"/></g><g><defs><path id="SVGID_69_" d="M140.3 216.6c0-.6.4-1 1-1H169c.6 0 1 .4 1 1s-.4 1-1 1h-27.7c-.5 0-1-.5-1-1z"/></defs><clipPath id="SVGID_70_"><use xlink:href="#SVGID_69_" overflow="visible"/></clipPath><path class="st34" d="M135.3 210.6H175v12h-39.7z"/></g><g><defs><path id="SVGID_71_" d="M140.3 226.6c0-.6.4-1 1-1H187c.5 0 1 .4 1 1s-.4 1-1 1h-45.7c-.5 0-1-.5-1-1z"/></defs><clipPath id="SVGID_72_"><use xlink:href="#SVGID_71_" overflow="visible"/></clipPath><path class="st35" d="M135.3 220.6H193v12h-57.7z"/></g><g><defs><path id="SVGID_73_" d="M140.3 236.6c0-.6.4-1 1-1H169c.6 0 1 .4 1 1s-.4 1-1 1h-27.7c-.5 0-1-.5-1-1z"/></defs><clipPath id="SVGID_74_"><use xlink:href="#SVGID_73_" overflow="visible"/></clipPath><path class="st36" d="M135.3 230.6H175v12h-39.7z"/></g><g><defs><path id="SVGID_75_" d="M19.4 112.1v9.9h-1.2v-9.9h1.2zm-5 .3c0-.5.3-.8.8-.8s.8.3.8.8c0 .2-.1.4-.2.5-.1.1-.3.2-.6.2s-.5-.1-.6-.2-.2-.2-.2-.5zm1.3 9.6h-1.2v-7.1h1.2v7.1zm-4.7-2.6v-.9h-.6c-.7 0-1.3 0-1.7.1-.4.1-.7.3-.9.5-.2.2-.3.5-.3.9s.1.7.4.9c.2.2.6.3 1 .3s.8-.1 1.2-.3c.3-.2.6-.4.7-.7s.2-.5.2-.8zm-4.7.7c0-.9.3-1.6 1-1.9s1.7-.5 3-.5h.7v-.4c0-.5-.1-.9-.4-1.2-.3-.3-.7-.4-1.3-.4-.8 0-1.5.2-2.1.6l-.4-.8c.8-.5 1.7-.7 2.6-.7 1 0 1.7.2 2.2.7.5.5.7 1.2.7 2.1v2.9c0 .5 0 1 .1 1.6h-1.1c-.1-.4-.1-.7-.1-1-.3.4-.6.7-1 .9-.4.2-.9.3-1.5.3-.7 0-1.2-.2-1.7-.6s-.7-1-.7-1.6zm0-7H1.5v3.4h4.2v1H1.5v4.5H.3v-9.9h6v1z"/></defs><clipPath id="SVGID_76_"><use xlink:href="#SVGID_75_" overflow="visible"/></clipPath><path class="st37" d="M-4.7 106.7h29.1v20.5H-4.7z"/></g><g><defs><path id="SVGID_77_" d="M157.4 115.4l-.5.7c-.6-.4-1.1-.6-1.8-.6-.4 0-.8.1-1.1.3-.3.2-.4.4-.4.7 0 .2.1.4.2.6.1.1.3.3.5.4.2.1.6.2 1.1.3.7.2 1.3.4 1.6.8.4.3.5.8.5 1.3 0 .7-.3 1.2-.8 1.6-.5.4-1.2.6-1.9.6-1 0-1.9-.3-2.6-.8l.5-.7c.3.2.6.4.9.5.3.1.7.2 1.1.2.5 0 .9-.1 1.1-.3.3-.2.4-.5.4-.9 0-.3-.1-.5-.2-.6-.1-.2-.3-.3-.5-.4-.2-.1-.6-.2-1.1-.3-.7-.2-1.3-.4-1.6-.8-.3-.3-.5-.8-.5-1.3 0-.6.2-1.1.7-1.4s1.1-.5 1.9-.5c1-.1 1.8.1 2.5.6zm-6.2 0l-.5.7c-.6-.4-1.1-.6-1.8-.6-.4 0-.8.1-1.1.3-.3.2-.4.4-.4.7 0 .2.1.4.2.6.1.1.3.3.5.4.2.1.6.2 1.1.3.7.2 1.3.4 1.6.8.3.3.5.8.5 1.3 0 .7-.3 1.2-.8 1.6s-1.2.6-1.9.6c-1 0-1.9-.3-2.6-.8l.5-.7c.3.2.6.4.9.5.3.1.7.2 1.1.2.5 0 .9-.1 1.1-.3.3-.2.4-.5.4-.9 0-.3-.1-.5-.2-.6-.1-.2-.3-.3-.5-.4-.2-.1-.6-.2-1.1-.3-.7-.2-1.3-.4-1.6-.8-.3-.3-.5-.8-.5-1.3 0-.6.2-1.1.7-1.4.5-.4 1.1-.5 1.9-.5 1.1-.1 1.8.1 2.5.6zm-7.8 4v-.9h-.6c-.7 0-1.3 0-1.7.1-.4.1-.7.3-.9.5s-.3.5-.3.9.1.7.4.9c.2.2.6.3 1 .3s.8-.1 1.2-.3c.3-.2.6-.4.7-.7s.2-.5.2-.8zm-4.8.7c0-.9.3-1.6 1-1.9.7-.4 1.7-.5 3-.5h.7v-.4c0-.5-.1-.9-.4-1.2-.3-.3-.7-.4-1.3-.4-.8 0-1.5.2-2.1.6l-.4-.8c.8-.5 1.7-.7 2.6-.7 1 0 1.7.2 2.2.7.5.5.7 1.2.7 2.1v2.9c0 .5 0 1 .1 1.6h-1.1c-.1-.4-.1-.7-.1-1-.3.4-.6.7-1 .9-.4.2-.9.3-1.5.3-.7 0-1.2-.2-1.7-.6s-.7-1-.7-1.6zm-6.1-7v4.5h2c.7 0 1.2-.2 1.7-.6.5-.4.7-.9.7-1.7 0-.8-.2-1.4-.7-1.7-.5-.4-1-.5-1.7-.5h-2zm5.6 2.2c0 .7-.2 1.3-.5 1.8s-.8.9-1.3 1.1c-.5.2-1.1.4-1.7.4h-2.1v3.4h-1.2v-9.9h3.3c1 0 1.9.3 2.5.8.7.5 1 1.3 1 2.4z"/></defs><clipPath id="SVGID_78_"><use xlink:href="#SVGID_77_" overflow="visible"/></clipPath><path class="st38" d="M126.3 107.1h36.3v20.1h-36.3z"/></g><g><defs><path id="SVGID_79_" d="M19.4 266.1v9.9h-1.2v-9.9h1.2zm-5 .3c0-.5.3-.8.8-.8s.8.3.8.8c0 .2-.1.4-.2.5-.1.1-.3.2-.6.2s-.5-.1-.6-.2c-.2-.1-.2-.2-.2-.5zm1.3 9.6h-1.2v-7.1h1.2v7.1zm-4.7-2.6v-.9h-.6c-.7 0-1.3 0-1.7.1-.4.1-.7.3-.9.5-.2.2-.3.5-.3.9s.1.7.4.9c.2.2.6.3 1 .3s.8-.1 1.2-.3c.3-.2.6-.4.7-.7s.2-.5.2-.8zm-4.7.7c0-.9.3-1.6 1-1.9s1.7-.5 3-.5h.7v-.4c0-.5-.1-.9-.4-1.2-.3-.3-.7-.4-1.3-.4-.8 0-1.5.2-2.1.6l-.4-.8c.8-.5 1.7-.7 2.6-.7 1 0 1.7.2 2.2.7s.7 1.2.7 2.1v2.9c0 .5 0 1 .1 1.6h-1.1c-.1-.4-.1-.7-.1-1-.3.4-.6.7-1 .9-.4.2-.9.3-1.5.3-.7 0-1.2-.2-1.7-.6-.5-.4-.7-1-.7-1.6zm0-7H1.5v3.4h4.2v1H1.5v4.5H.3v-9.9h6v1z"/></defs><clipPath id="SVGID_80_"><use xlink:href="#SVGID_79_" overflow="visible"/></clipPath><path class="st39" d="M-4.7 260.7h29.1v20.5H-4.7z"/></g><g><defs><path id="SVGID_81_" d="M157.4 269.4l-.5.7c-.6-.4-1.1-.6-1.8-.6-.4 0-.8.1-1.1.3s-.4.4-.4.7c0 .2.1.4.2.6.1.1.3.3.5.4.2.1.6.2 1.1.3.7.2 1.3.4 1.6.8.4.3.5.8.5 1.3 0 .7-.3 1.2-.8 1.6-.5.4-1.2.6-1.9.6-1 0-1.9-.3-2.6-.8l.5-.7c.3.2.6.4.9.5s.7.2 1.1.2c.5 0 .9-.1 1.1-.3.3-.2.4-.5.4-.9 0-.3-.1-.5-.2-.6-.1-.2-.3-.3-.5-.4-.2-.1-.6-.2-1.1-.3-.7-.2-1.3-.4-1.6-.8-.3-.3-.5-.8-.5-1.3 0-.6.2-1.1.7-1.4.5-.4 1.1-.5 1.9-.5 1-.1 1.8.1 2.5.6zm-6.2 0l-.5.7c-.6-.4-1.1-.6-1.8-.6-.4 0-.8.1-1.1.3s-.4.4-.4.7c0 .2.1.4.2.6.1.1.3.3.5.4.2.1.6.2 1.1.3.7.2 1.3.4 1.6.8.3.3.5.8.5 1.3 0 .7-.3 1.2-.8 1.6-.5.4-1.2.6-1.9.6-1 0-1.9-.3-2.6-.8l.5-.7c.3.2.6.4.9.5s.7.2 1.1.2c.5 0 .9-.1 1.1-.3.3-.2.4-.5.4-.9 0-.3-.1-.5-.2-.6-.1-.2-.3-.3-.5-.4-.2-.1-.6-.2-1.1-.3-.7-.2-1.3-.4-1.6-.8-.3-.3-.5-.8-.5-1.3 0-.6.2-1.1.7-1.4.5-.4 1.1-.5 1.9-.5 1.1-.1 1.8.1 2.5.6zm-7.8 4v-.9h-.6c-.7 0-1.3 0-1.7.1-.4.1-.7.3-.9.5s-.3.5-.3.9.1.7.4.9c.2.2.6.3 1 .3s.8-.1 1.2-.3c.3-.2.6-.4.7-.7s.2-.5.2-.8zm-4.8.7c0-.9.3-1.6 1-1.9.7-.4 1.7-.5 3-.5h.7v-.4c0-.5-.1-.9-.4-1.2-.3-.3-.7-.4-1.3-.4-.8 0-1.5.2-2.1.6l-.4-.8c.8-.5 1.7-.7 2.6-.7 1 0 1.7.2 2.2.7.5.5.7 1.2.7 2.1v2.9c0 .5 0 1 .1 1.6h-1.1c-.1-.4-.1-.7-.1-1-.3.4-.6.7-1 .9-.4.2-.9.3-1.5.3-.7 0-1.2-.2-1.7-.6-.5-.4-.7-1-.7-1.6zm-6.1-7v4.5h2c.7 0 1.2-.2 1.7-.6.5-.4.7-.9.7-1.7 0-.8-.2-1.4-.7-1.7-.5-.4-1-.5-1.7-.5h-2zm5.6 2.2c0 .7-.2 1.3-.5 1.8s-.8.9-1.3 1.1c-.5.2-1.1.4-1.7.4h-2.1v3.4h-1.2v-9.9h3.3c1 0 1.9.3 2.5.8.7.5 1 1.3 1 2.4z"/></defs><clipPath id="SVGID_82_"><use xlink:href="#SVGID_81_" overflow="visible"/></clipPath><path class="st40" d="M126.3 261.1h36.3v20.1h-36.3z"/></g></svg>