<?xml version="1.0" encoding="utf-8"?>
<!-- Generator: Adobe Illustrator 19.1.0, SVG Export Plug-In . SVG Version: 6.00 Build 0)  -->
<svg version="1.1" id="Layer_1" xmlns="http://www.w3.org/2000/svg" xmlns:xlink="http://www.w3.org/1999/xlink" x="0px" y="0px"
	 width="241px" height="276.2px" viewBox="0 0 241 276.2" style="enable-background:new 0 0 241 276.2;" xml:space="preserve">
<style type="text/css">
	.st0{clip-path:url(#SVGID_2_);fill-rule:evenodd;clip-rule:evenodd;fill:#FFFFFF;}
	.st1{clip-path:url(#SVGID_4_);fill:none;stroke:#E1E6EF;stroke-width:2;stroke-miterlimit:10;}
	.st2{clip-path:url(#SVGID_6_);fill:#D3DCE7;}
	.st3{clip-path:url(#SVGID_8_);fill:#D3DCE7;}
	.st4{clip-path:url(#SVGID_10_);fill:#D3DCE7;}
	.st5{clip-path:url(#SVGID_12_);fill:#D3DCE7;}
	.st6{clip-path:url(#SVGID_14_);fill:#D3DCE7;}
	.st7{clip-path:url(#SVGID_16_);fill:#D3DCE7;}
	.st8{clip-path:url(#SVGID_18_);fill:#D3DCE7;}
	.st9{clip-path:url(#SVGID_20_);fill:#D3DCE7;}
	.st10{clip-path:url(#SVGID_22_);fill:none;stroke:#E1E6EF;stroke-width:2;stroke-miterlimit:10;}
	.st11{clip-path:url(#SVGID_24_);fill:#4D6892;}
	.st12{clip-path:url(#SVGID_26_);fill:#4D6892;}
	.st13{clip-path:url(#SVGID_28_);fill:#4D6892;}
	.st14{clip-path:url(#SVGID_30_);fill:#4D6892;}
	.st15{clip-path:url(#SVGID_32_);fill:#4D6892;}
	.st16{clip-path:url(#SVGID_34_);fill:#4D6892;}
	.st17{clip-path:url(#SVGID_36_);fill:#4D6892;}
	.st18{clip-path:url(#SVGID_38_);fill:#4D6892;}
	.st19{clip-path:url(#SVGID_40_);fill:#16325C;}
	.st20{clip-path:url(#SVGID_42_);fill:#4D6892;}
	.st21{clip-path:url(#SVGID_44_);fill:#4D6892;}
	.st22{clip-path:url(#SVGID_46_);fill:#4D6892;}
	.st23{clip-path:url(#SVGID_48_);fill:#4D6892;}
	.st24{clip-path:url(#SVGID_50_);fill:#4D6892;}
	.st25{clip-path:url(#SVGID_52_);fill:#4D6892;}
	.st26{clip-path:url(#SVGID_54_);fill:#4D6892;}
	.st27{clip-path:url(#SVGID_56_);fill:#4D6892;}
	.st28{clip-path:url(#SVGID_58_);fill:#16325C;}
	.st29{clip-path:url(#SVGID_60_);fill:#D3DCE7;}
	.st30{clip-path:url(#SVGID_62_);fill:#D3DCE7;}
	.st31{clip-path:url(#SVGID_64_);fill:#D3DCE7;}
	.st32{clip-path:url(#SVGID_66_);fill:#D3DCE7;}
	.st33{clip-path:url(#SVGID_68_);fill:#D3DCE7;}
	.st34{clip-path:url(#SVGID_70_);fill:#D3DCE7;}
	.st35{clip-path:url(#SVGID_72_);fill:#D3DCE7;}
	.st36{clip-path:url(#SVGID_74_);fill:#D3DCE7;}
	.st37{clip-path:url(#SVGID_76_);fill:#C23934;}
	.st38{clip-path:url(#SVGID_78_);fill:#04844B;}
	.st39{clip-path:url(#SVGID_80_);fill:#C23934;}
	.st40{clip-path:url(#SVGID_82_);fill:#04844B;}
</style>
<g>
	<g>
		<defs>
			<path id="SVGID_1_" d="M2,0C0.9,0,0,0.9,0,2v96c0,1.1,0.9,2,2,2h106c1.1,0,2-0.9,2-2V2c0-1.1-0.9-2-2-2H2z"/>
		</defs>
		<clipPath id="SVGID_2_">
			<use xlink:href="#SVGID_1_"  style="overflow:visible;"/>
		</clipPath>
		<path class="st0" d="M2,0C0.9,0,0,0.9,0,2v96c0,1.1,0.9,2,2,2h106c1.1,0,2-0.9,2-2V2c0-1.1-0.9-2-2-2H2z"/>
	</g>
</g>
<g>
	<defs>
		<path id="SVGID_3_" d="M2,0C0.9,0,0,0.9,0,2v96c0,1.1,0.9,2,2,2h106c1.1,0,2-0.9,2-2V2c0-1.1-0.9-2-2-2H2z"/>
	</defs>
	<clipPath id="SVGID_4_">
		<use xlink:href="#SVGID_3_"  style="overflow:visible;"/>
	</clipPath>
	<path class="st1" d="M2,0C0.9,0,0,0.9,0,2v96c0,1.1,0.9,2,2,2h106c1.1,0,2-0.9,2-2V2c0-1.1-0.9-2-2-2H2z"/>
</g>
<g>
	<defs>
		<path id="SVGID_5_" d="M9.3,12.6c0-0.6,0.4-1,1-1H72c0.6,0,1,0.4,1,1c0,0.6-0.4,1-1,1H10.3C9.8,13.6,9.3,13.1,9.3,12.6z"/>
	</defs>
	<clipPath id="SVGID_6_">
		<use xlink:href="#SVGID_5_"  style="overflow:visible;"/>
	</clipPath>
	<rect x="4.3" y="6.6" class="st2" width="73.6" height="12"/>
</g>
<g>
	<defs>
		<path id="SVGID_7_" d="M9.3,22.6c0-0.6,0.4-1,1-1H38c0.6,0,1,0.4,1,1c0,0.6-0.4,1-1,1H10.3C9.8,23.6,9.3,23.1,9.3,22.6z"/>
	</defs>
	<clipPath id="SVGID_8_">
		<use xlink:href="#SVGID_7_"  style="overflow:visible;"/>
	</clipPath>
	<rect x="4.3" y="16.6" class="st3" width="39.7" height="12"/>
</g>
<g>
	<defs>
		<path id="SVGID_9_" d="M9.3,32.6c0-0.6,0.4-1,1-1H56c0.6,0,1,0.4,1,1c0,0.6-0.4,1-1,1H10.3C9.8,33.6,9.3,33.1,9.3,32.6z"/>
	</defs>
	<clipPath id="SVGID_10_">
		<use xlink:href="#SVGID_9_"  style="overflow:visible;"/>
	</clipPath>
	<rect x="4.3" y="26.6" class="st4" width="57.7" height="12"/>
</g>
<g>
	<defs>
		<path id="SVGID_11_" d="M9.3,42.6c0-0.6,0.4-1,1-1H38c0.6,0,1,0.4,1,1c0,0.6-0.4,1-1,1H10.3C9.8,43.6,9.3,43.1,9.3,42.6z"/>
	</defs>
	<clipPath id="SVGID_12_">
		<use xlink:href="#SVGID_11_"  style="overflow:visible;"/>
	</clipPath>
	<rect x="4.3" y="36.6" class="st5" width="39.7" height="12"/>
</g>
<g>
	<defs>
		<path id="SVGID_13_" d="M9.3,52.6c0-0.6,0.4-1,1-1H56c0.6,0,1,0.4,1,1c0,0.6-0.4,1-1,1H10.3C9.8,53.6,9.3,53.1,9.3,52.6z"/>
	</defs>
	<clipPath id="SVGID_14_">
		<use xlink:href="#SVGID_13_"  style="overflow:visible;"/>
	</clipPath>
	<rect x="4.3" y="46.6" class="st6" width="57.7" height="12"/>
</g>
<g>
	<defs>
		<path id="SVGID_15_" d="M9.3,62.6c0-0.6,0.4-1,1-1H38c0.6,0,1,0.4,1,1c0,0.6-0.4,1-1,1H10.3C9.8,63.6,9.3,63.1,9.3,62.6z"/>
	</defs>
	<clipPath id="SVGID_16_">
		<use xlink:href="#SVGID_15_"  style="overflow:visible;"/>
	</clipPath>
	<rect x="4.3" y="56.6" class="st7" width="39.7" height="12"/>
</g>
<g>
	<defs>
		<path id="SVGID_17_" d="M9.3,72.6c0-0.6,0.4-1,1-1H56c0.6,0,1,0.4,1,1c0,0.6-0.4,1-1,1H10.3C9.8,73.6,9.3,73.1,9.3,72.6z"/>
	</defs>
	<clipPath id="SVGID_18_">
		<use xlink:href="#SVGID_17_"  style="overflow:visible;"/>
	</clipPath>
	<rect x="4.3" y="66.6" class="st8" width="57.7" height="12"/>
</g>
<g>
	<defs>
		<path id="SVGID_19_" d="M9.3,82.6c0-0.6,0.4-1,1-1H38c0.6,0,1,0.4,1,1c0,0.6-0.4,1-1,1H10.3C9.8,83.6,9.3,83.1,9.3,82.6z"/>
	</defs>
	<clipPath id="SVGID_20_">
		<use xlink:href="#SVGID_19_"  style="overflow:visible;"/>
	</clipPath>
	<rect x="4.3" y="76.6" class="st9" width="39.7" height="12"/>
</g>
<g>
	<defs>
		<path id="SVGID_21_" d="M133,0c-1.1,0-2,0.9-2,2v96c0,1.1,0.9,2,2,2h106c1.1,0,2-0.9,2-2V2c0-1.1-0.9-2-2-2H133z"/>
	</defs>
	<clipPath id="SVGID_22_">
		<use xlink:href="#SVGID_21_"  style="overflow:visible;"/>
	</clipPath>
	<path class="st10" d="M133,0c-1.1,0-2,0.9-2,2v96c0,1.1,0.9,2,2,2h106c1.1,0,2-0.9,2-2V2c0-1.1-0.9-2-2-2H133z"/>
</g>
<g>
	<defs>
		<path id="SVGID_23_" d="M140.3,12.6c0-0.6,0.4-1,1-1H203c0.6,0,1,0.4,1,1c0,0.6-0.4,1-1,1h-61.6C140.8,13.6,140.3,13.1,140.3,12.6
			z"/>
	</defs>
	<clipPath id="SVGID_24_">
		<use xlink:href="#SVGID_23_"  style="overflow:visible;"/>
	</clipPath>
	<rect x="135.3" y="6.6" class="st11" width="73.6" height="12"/>
</g>
<g>
	<defs>
		<path id="SVGID_25_" d="M140.3,22.6c0-0.6,0.4-1,1-1H169c0.6,0,1,0.4,1,1c0,0.6-0.4,1-1,1h-27.7C140.8,23.6,140.3,23.1,140.3,22.6
			z"/>
	</defs>
	<clipPath id="SVGID_26_">
		<use xlink:href="#SVGID_25_"  style="overflow:visible;"/>
	</clipPath>
	<rect x="135.3" y="16.6" class="st12" width="39.7" height="12"/>
</g>
<g>
	<defs>
		<path id="SVGID_27_" d="M140.3,32.6c0-0.6,0.4-1,1-1H187c0.5,0,1,0.4,1,1c0,0.6-0.4,1-1,1h-45.7C140.8,33.6,140.3,33.1,140.3,32.6
			z"/>
	</defs>
	<clipPath id="SVGID_28_">
		<use xlink:href="#SVGID_27_"  style="overflow:visible;"/>
	</clipPath>
	<rect x="135.3" y="26.6" class="st13" width="57.7" height="12"/>
</g>
<g>
	<defs>
		<path id="SVGID_29_" d="M140.3,42.6c0-0.6,0.4-1,1-1H169c0.6,0,1,0.4,1,1c0,0.6-0.4,1-1,1h-27.7C140.8,43.6,140.3,43.1,140.3,42.6
			z"/>
	</defs>
	<clipPath id="SVGID_30_">
		<use xlink:href="#SVGID_29_"  style="overflow:visible;"/>
	</clipPath>
	<rect x="135.3" y="36.6" class="st14" width="39.7" height="12"/>
</g>
<g>
	<defs>
		<path id="SVGID_31_" d="M140.3,52.6c0-0.6,0.4-1,1-1H187c0.5,0,1,0.4,1,1c0,0.6-0.4,1-1,1h-45.7C140.8,53.6,140.3,53.1,140.3,52.6
			z"/>
	</defs>
	<clipPath id="SVGID_32_">
		<use xlink:href="#SVGID_31_"  style="overflow:visible;"/>
	</clipPath>
	<rect x="135.3" y="46.6" class="st15" width="57.7" height="12"/>
</g>
<g>
	<defs>
		<path id="SVGID_33_" d="M140.3,62.6c0-0.6,0.4-1,1-1H169c0.6,0,1,0.4,1,1c0,0.6-0.4,1-1,1h-27.7C140.8,63.6,140.3,63.1,140.3,62.6
			z"/>
	</defs>
	<clipPath id="SVGID_34_">
		<use xlink:href="#SVGID_33_"  style="overflow:visible;"/>
	</clipPath>
	<rect x="135.3" y="56.6" class="st16" width="39.7" height="12"/>
</g>
<g>
	<defs>
		<path id="SVGID_35_" d="M140.3,72.6c0-0.6,0.4-1,1-1H187c0.5,0,1,0.4,1,1c0,0.6-0.4,1-1,1h-45.7C140.8,73.6,140.3,73.1,140.3,72.6
			z"/>
	</defs>
	<clipPath id="SVGID_36_">
		<use xlink:href="#SVGID_35_"  style="overflow:visible;"/>
	</clipPath>
	<rect x="135.3" y="66.6" class="st17" width="57.7" height="12"/>
</g>
<g>
	<defs>
		<path id="SVGID_37_" d="M140.3,82.6c0-0.6,0.4-1,1-1H169c0.6,0,1,0.4,1,1c0,0.6-0.4,1-1,1h-27.7C140.8,83.6,140.3,83.1,140.3,82.6
			z"/>
	</defs>
	<clipPath id="SVGID_38_">
		<use xlink:href="#SVGID_37_"  style="overflow:visible;"/>
	</clipPath>
	<rect x="135.3" y="76.6" class="st18" width="39.7" height="12"/>
</g>
<g>
	<defs>
		<path id="SVGID_39_" d="M2,154c-1.1,0-2,0.9-2,2v96c0,1.1,0.9,2,2,2h106c1.1,0,2-0.9,2-2v-96c0-1.1-0.9-2-2-2H2z"/>
	</defs>
	<clipPath id="SVGID_40_">
		<use xlink:href="#SVGID_39_"  style="overflow:visible;"/>
	</clipPath>
	<rect x="-5" y="149" class="st19" width="120" height="110"/>
</g>
<g>
	<defs>
		<path id="SVGID_41_" d="M9.3,166.6c0-0.6,0.4-1,1-1H72c0.6,0,1,0.4,1,1c0,0.6-0.4,1-1,1H10.3C9.8,167.6,9.3,167.1,9.3,166.6z"/>
	</defs>
	<clipPath id="SVGID_42_">
		<use xlink:href="#SVGID_41_"  style="overflow:visible;"/>
	</clipPath>
	<rect x="4.3" y="160.6" class="st20" width="73.6" height="12"/>
</g>
<g>
	<defs>
		<path id="SVGID_43_" d="M9.3,176.6c0-0.6,0.4-1,1-1H38c0.6,0,1,0.4,1,1c0,0.6-0.4,1-1,1H10.3C9.8,177.6,9.3,177.1,9.3,176.6z"/>
	</defs>
	<clipPath id="SVGID_44_">
		<use xlink:href="#SVGID_43_"  style="overflow:visible;"/>
	</clipPath>
	<rect x="4.3" y="170.6" class="st21" width="39.7" height="12"/>
</g>
<g>
	<defs>
		<path id="SVGID_45_" d="M9.3,186.6c0-0.6,0.4-1,1-1H56c0.6,0,1,0.4,1,1c0,0.6-0.4,1-1,1H10.3C9.8,187.6,9.3,187.1,9.3,186.6z"/>
	</defs>
	<clipPath id="SVGID_46_">
		<use xlink:href="#SVGID_45_"  style="overflow:visible;"/>
	</clipPath>
	<rect x="4.3" y="180.6" class="st22" width="57.7" height="12"/>
</g>
<g>
	<defs>
		<path id="SVGID_47_" d="M9.3,196.6c0-0.6,0.4-1,1-1H38c0.6,0,1,0.4,1,1c0,0.6-0.4,1-1,1H10.3C9.8,197.6,9.3,197.1,9.3,196.6z"/>
	</defs>
	<clipPath id="SVGID_48_">
		<use xlink:href="#SVGID_47_"  style="overflow:visible;"/>
	</clipPath>
	<rect x="4.3" y="190.6" class="st23" width="39.7" height="12"/>
</g>
<g>
	<defs>
		<path id="SVGID_49_" d="M9.3,206.6c0-0.6,0.4-1,1-1H56c0.6,0,1,0.4,1,1c0,0.6-0.4,1-1,1H10.3C9.8,207.6,9.3,207.1,9.3,206.6z"/>
	</defs>
	<clipPath id="SVGID_50_">
		<use xlink:href="#SVGID_49_"  style="overflow:visible;"/>
	</clipPath>
	<rect x="4.3" y="200.6" class="st24" width="57.7" height="12"/>
</g>
<g>
	<defs>
		<path id="SVGID_51_" d="M9.3,216.6c0-0.6,0.4-1,1-1H38c0.6,0,1,0.4,1,1c0,0.6-0.4,1-1,1H10.3C9.8,217.6,9.3,217.1,9.3,216.6z"/>
	</defs>
	<clipPath id="SVGID_52_">
		<use xlink:href="#SVGID_51_"  style="overflow:visible;"/>
	</clipPath>
	<rect x="4.3" y="210.6" class="st25" width="39.7" height="12"/>
</g>
<g>
	<defs>
		<path id="SVGID_53_" d="M9.3,226.6c0-0.6,0.4-1,1-1H56c0.6,0,1,0.4,1,1c0,0.6-0.4,1-1,1H10.3C9.8,227.6,9.3,227.1,9.3,226.6z"/>
	</defs>
	<clipPath id="SVGID_54_">
		<use xlink:href="#SVGID_53_"  style="overflow:visible;"/>
	</clipPath>
	<rect x="4.3" y="220.6" class="st26" width="57.7" height="12"/>
</g>
<g>
	<defs>
		<path id="SVGID_55_" d="M9.3,236.6c0-0.6,0.4-1,1-1H38c0.6,0,1,0.4,1,1c0,0.6-0.4,1-1,1H10.3C9.8,237.6,9.3,237.1,9.3,236.6z"/>
	</defs>
	<clipPath id="SVGID_56_">
		<use xlink:href="#SVGID_55_"  style="overflow:visible;"/>
	</clipPath>
	<rect x="4.3" y="230.6" class="st27" width="39.7" height="12"/>
</g>
<g>
	<defs>
		<path id="SVGID_57_" d="M133,154c-1.1,0-2,0.9-2,2v96c0,1.1,0.9,2,2,2h106c1.1,0,2-0.9,2-2v-96c0-1.1-0.9-2-2-2H133z"/>
	</defs>
	<clipPath id="SVGID_58_">
		<use xlink:href="#SVGID_57_"  style="overflow:visible;"/>
	</clipPath>
	<rect x="126" y="149" class="st28" width="120" height="110"/>
</g>
<g>
	<defs>
		<path id="SVGID_59_" d="M140.3,166.6c0-0.6,0.4-1,1-1H203c0.6,0,1,0.4,1,1c0,0.6-0.4,1-1,1h-61.6
			C140.8,167.6,140.3,167.1,140.3,166.6z"/>
	</defs>
	<clipPath id="SVGID_60_">
		<use xlink:href="#SVGID_59_"  style="overflow:visible;"/>
	</clipPath>
	<rect x="135.3" y="160.6" class="st29" width="73.6" height="12"/>
</g>
<g>
	<defs>
		<path id="SVGID_61_" d="M140.3,176.6c0-0.6,0.4-1,1-1H169c0.6,0,1,0.4,1,1c0,0.6-0.4,1-1,1h-27.7
			C140.8,177.6,140.3,177.1,140.3,176.6z"/>
	</defs>
	<clipPath id="SVGID_62_">
		<use xlink:href="#SVGID_61_"  style="overflow:visible;"/>
	</clipPath>
	<rect x="135.3" y="170.6" class="st30" width="39.7" height="12"/>
</g>
<g>
	<defs>
		<path id="SVGID_63_" d="M140.3,186.6c0-0.6,0.4-1,1-1H187c0.5,0,1,0.4,1,1c0,0.6-0.4,1-1,1h-45.7
			C140.8,187.6,140.3,187.1,140.3,186.6z"/>
	</defs>
	<clipPath id="SVGID_64_">
		<use xlink:href="#SVGID_63_"  style="overflow:visible;"/>
	</clipPath>
	<rect x="135.3" y="180.6" class="st31" width="57.7" height="12"/>
</g>
<g>
	<defs>
		<path id="SVGID_65_" d="M140.3,196.6c0-0.6,0.4-1,1-1H169c0.6,0,1,0.4,1,1c0,0.6-0.4,1-1,1h-27.7
			C140.8,197.6,140.3,197.1,140.3,196.6z"/>
	</defs>
	<clipPath id="SVGID_66_">
		<use xlink:href="#SVGID_65_"  style="overflow:visible;"/>
	</clipPath>
	<rect x="135.3" y="190.6" class="st32" width="39.7" height="12"/>
</g>
<g>
	<defs>
		<path id="SVGID_67_" d="M140.3,206.6c0-0.6,0.4-1,1-1H187c0.5,0,1,0.4,1,1c0,0.6-0.4,1-1,1h-45.7
			C140.8,207.6,140.3,207.1,140.3,206.6z"/>
	</defs>
	<clipPath id="SVGID_68_">
		<use xlink:href="#SVGID_67_"  style="overflow:visible;"/>
	</clipPath>
	<rect x="135.3" y="200.6" class="st33" width="57.7" height="12"/>
</g>
<g>
	<defs>
		<path id="SVGID_69_" d="M140.3,216.6c0-0.6,0.4-1,1-1H169c0.6,0,1,0.4,1,1c0,0.6-0.4,1-1,1h-27.7
			C140.8,217.6,140.3,217.1,140.3,216.6z"/>
	</defs>
	<clipPath id="SVGID_70_">
		<use xlink:href="#SVGID_69_"  style="overflow:visible;"/>
	</clipPath>
	<rect x="135.3" y="210.6" class="st34" width="39.7" height="12"/>
</g>
<g>
	<defs>
		<path id="SVGID_71_" d="M140.3,226.6c0-0.6,0.4-1,1-1H187c0.5,0,1,0.4,1,1c0,0.6-0.4,1-1,1h-45.7
			C140.8,227.6,140.3,227.1,140.3,226.6z"/>
	</defs>
	<clipPath id="SVGID_72_">
		<use xlink:href="#SVGID_71_"  style="overflow:visible;"/>
	</clipPath>
	<rect x="135.3" y="220.6" class="st35" width="57.7" height="12"/>
</g>
<g>
	<defs>
		<path id="SVGID_73_" d="M140.3,236.6c0-0.6,0.4-1,1-1H169c0.6,0,1,0.4,1,1c0,0.6-0.4,1-1,1h-27.7
			C140.8,237.6,140.3,237.1,140.3,236.6z"/>
	</defs>
	<clipPath id="SVGID_74_">
		<use xlink:href="#SVGID_73_"  style="overflow:visible;"/>
	</clipPath>
	<rect x="135.3" y="230.6" class="st36" width="39.7" height="12"/>
</g>
<g>
	<defs>
		<path id="SVGID_75_" d="M19.4,112.1v9.9h-1.2v-9.9H19.4z M14.4,112.4c0-0.5,0.3-0.8,0.8-0.8c0.5,0,0.8,0.3,0.8,0.8
			c0,0.2-0.1,0.4-0.2,0.5c-0.1,0.1-0.3,0.2-0.6,0.2c-0.3,0-0.5-0.1-0.6-0.2S14.4,112.7,14.4,112.4z M15.7,122h-1.2v-7.1h1.2V122z
			 M11,119.4v-0.9l-0.6,0c-0.7,0-1.3,0-1.7,0.1c-0.4,0.1-0.7,0.3-0.9,0.5c-0.2,0.2-0.3,0.5-0.3,0.9c0,0.4,0.1,0.7,0.4,0.9
			c0.2,0.2,0.6,0.3,1,0.3c0.4,0,0.8-0.1,1.2-0.3c0.3-0.2,0.6-0.4,0.7-0.7S11,119.7,11,119.4z M6.3,120.1c0-0.9,0.3-1.6,1-1.9
			s1.7-0.5,3-0.5c0.3,0,0.6,0,0.7,0v-0.4c0-0.5-0.1-0.9-0.4-1.2c-0.3-0.3-0.7-0.4-1.3-0.4c-0.8,0-1.5,0.2-2.1,0.6l-0.4-0.8
			c0.8-0.5,1.7-0.7,2.6-0.7c1,0,1.7,0.2,2.2,0.7c0.5,0.5,0.7,1.2,0.7,2.1v2.9c0,0.5,0,1,0.1,1.6h-1.1c-0.1-0.4-0.1-0.7-0.1-1h0
			c-0.3,0.4-0.6,0.7-1,0.9c-0.4,0.2-0.9,0.3-1.5,0.3c-0.7,0-1.2-0.2-1.7-0.6S6.3,120.7,6.3,120.1z M6.3,113.1H1.5v3.4h4.2v1H1.5v4.5
			H0.3v-9.9h6V113.1z"/>
	</defs>
	<clipPath id="SVGID_76_">
		<use xlink:href="#SVGID_75_"  style="overflow:visible;"/>
	</clipPath>
	<rect x="-4.7" y="106.7" class="st37" width="29.1" height="20.5"/>
</g>
<g>
	<defs>
		<path id="SVGID_77_" d="M157.4,115.4l-0.5,0.7c-0.6-0.4-1.1-0.6-1.8-0.6c-0.4,0-0.8,0.1-1.1,0.3c-0.3,0.2-0.4,0.4-0.4,0.7
			c0,0.2,0.1,0.4,0.2,0.6c0.1,0.1,0.3,0.3,0.5,0.4c0.2,0.1,0.6,0.2,1.1,0.3c0.7,0.2,1.3,0.4,1.6,0.8c0.4,0.3,0.5,0.8,0.5,1.3
			c0,0.7-0.3,1.2-0.8,1.6c-0.5,0.4-1.2,0.6-1.9,0.6c-1,0-1.9-0.3-2.6-0.8l0.5-0.7c0.3,0.2,0.6,0.4,0.9,0.5c0.3,0.1,0.7,0.2,1.1,0.2
			c0.5,0,0.9-0.1,1.1-0.3c0.3-0.2,0.4-0.5,0.4-0.9c0-0.3-0.1-0.5-0.2-0.6c-0.1-0.2-0.3-0.3-0.5-0.4c-0.2-0.1-0.6-0.2-1.1-0.3
			c-0.7-0.2-1.3-0.4-1.6-0.8c-0.3-0.3-0.5-0.8-0.5-1.3c0-0.6,0.2-1.1,0.7-1.4s1.1-0.5,1.9-0.5C155.9,114.7,156.7,114.9,157.4,115.4z
			 M151.2,115.4l-0.5,0.7c-0.6-0.4-1.1-0.6-1.8-0.6c-0.4,0-0.8,0.1-1.1,0.3c-0.3,0.2-0.4,0.4-0.4,0.7c0,0.2,0.1,0.4,0.2,0.6
			c0.1,0.1,0.3,0.3,0.5,0.4c0.2,0.1,0.6,0.2,1.1,0.3c0.7,0.2,1.3,0.4,1.6,0.8c0.3,0.3,0.5,0.8,0.5,1.3c0,0.7-0.3,1.2-0.8,1.6
			s-1.2,0.6-1.9,0.6c-1,0-1.9-0.3-2.6-0.8l0.5-0.7c0.3,0.2,0.6,0.4,0.9,0.5c0.3,0.1,0.7,0.2,1.1,0.2c0.5,0,0.9-0.1,1.1-0.3
			c0.3-0.2,0.4-0.5,0.4-0.9c0-0.3-0.1-0.5-0.2-0.6c-0.1-0.2-0.3-0.3-0.5-0.4c-0.2-0.1-0.6-0.2-1.1-0.3c-0.7-0.2-1.3-0.4-1.6-0.8
			c-0.3-0.3-0.5-0.8-0.5-1.3c0-0.6,0.2-1.1,0.7-1.4c0.5-0.4,1.1-0.5,1.9-0.5C149.8,114.7,150.5,114.9,151.2,115.4z M143.4,119.4
			v-0.9l-0.6,0c-0.7,0-1.3,0-1.7,0.1c-0.4,0.1-0.7,0.3-0.9,0.5s-0.3,0.5-0.3,0.9c0,0.4,0.1,0.7,0.4,0.9c0.2,0.2,0.6,0.3,1,0.3
			c0.4,0,0.8-0.1,1.2-0.3c0.3-0.2,0.6-0.4,0.7-0.7S143.4,119.7,143.4,119.4z M138.6,120.1c0-0.9,0.3-1.6,1-1.9
			c0.7-0.4,1.7-0.5,3-0.5c0.3,0,0.6,0,0.7,0v-0.4c0-0.5-0.1-0.9-0.4-1.2c-0.3-0.3-0.7-0.4-1.3-0.4c-0.8,0-1.5,0.2-2.1,0.6l-0.4-0.8
			c0.8-0.5,1.7-0.7,2.6-0.7c1,0,1.7,0.2,2.2,0.7c0.5,0.5,0.7,1.2,0.7,2.1v2.9c0,0.5,0,1,0.1,1.6h-1.1c-0.1-0.4-0.1-0.7-0.1-1h0
			c-0.3,0.4-0.6,0.7-1,0.9c-0.4,0.2-0.9,0.3-1.5,0.3c-0.7,0-1.2-0.2-1.7-0.6S138.6,120.7,138.6,120.1z M132.5,113.1v4.5h2
			c0.7,0,1.2-0.2,1.7-0.6c0.5-0.4,0.7-0.9,0.7-1.7c0-0.8-0.2-1.4-0.7-1.7c-0.5-0.4-1-0.5-1.7-0.5H132.5z M138.1,115.3
			c0,0.7-0.2,1.3-0.5,1.8c-0.3,0.5-0.8,0.9-1.3,1.1c-0.5,0.2-1.1,0.4-1.7,0.4h-2.1v3.4h-1.2v-9.9h3.3c1,0,1.9,0.3,2.5,0.8
			C137.8,113.4,138.1,114.2,138.1,115.3z"/>
	</defs>
	<clipPath id="SVGID_78_">
		<use xlink:href="#SVGID_77_"  style="overflow:visible;"/>
	</clipPath>
	<rect x="126.3" y="107.1" class="st38" width="36.3" height="20.1"/>
</g>
<g>
	<defs>
		<path id="SVGID_79_" d="M19.4,266.1v9.9h-1.2v-9.9H19.4z M14.4,266.4c0-0.5,0.3-0.8,0.8-0.8c0.5,0,0.8,0.3,0.8,0.8
			c0,0.2-0.1,0.4-0.2,0.5c-0.1,0.1-0.3,0.2-0.6,0.2c-0.3,0-0.5-0.1-0.6-0.2C14.4,266.8,14.4,266.7,14.4,266.4z M15.7,276h-1.2v-7.1
			h1.2V276z M11,273.4v-0.9l-0.6,0c-0.7,0-1.3,0-1.7,0.1c-0.4,0.1-0.7,0.3-0.9,0.5c-0.2,0.2-0.3,0.5-0.3,0.9c0,0.4,0.1,0.7,0.4,0.9
			c0.2,0.2,0.6,0.3,1,0.3c0.4,0,0.8-0.1,1.2-0.3c0.3-0.2,0.6-0.4,0.7-0.7S11,273.7,11,273.4z M6.3,274.1c0-0.9,0.3-1.6,1-1.9
			s1.7-0.5,3-0.5c0.3,0,0.6,0,0.7,0v-0.4c0-0.5-0.1-0.9-0.4-1.2c-0.3-0.3-0.7-0.4-1.3-0.4c-0.8,0-1.5,0.2-2.1,0.6l-0.4-0.8
			c0.8-0.5,1.7-0.7,2.6-0.7c1,0,1.7,0.2,2.2,0.7s0.7,1.2,0.7,2.1v2.9c0,0.5,0,1,0.1,1.6h-1.1c-0.1-0.4-0.1-0.7-0.1-1h0
			c-0.3,0.4-0.6,0.7-1,0.9c-0.4,0.2-0.9,0.3-1.5,0.3c-0.7,0-1.2-0.2-1.7-0.6C6.5,275.3,6.3,274.7,6.3,274.1z M6.3,267.1H1.5v3.4h4.2
			v1H1.5v4.5H0.3v-9.9h6V267.1z"/>
	</defs>
	<clipPath id="SVGID_80_">
		<use xlink:href="#SVGID_79_"  style="overflow:visible;"/>
	</clipPath>
	<rect x="-4.7" y="260.7" class="st39" width="29.1" height="20.5"/>
</g>
<g>
	<defs>
		<path id="SVGID_81_" d="M157.4,269.4l-0.5,0.7c-0.6-0.4-1.1-0.6-1.8-0.6c-0.4,0-0.8,0.1-1.1,0.3s-0.4,0.4-0.4,0.7
			c0,0.2,0.1,0.4,0.2,0.6c0.1,0.1,0.3,0.3,0.5,0.4c0.2,0.1,0.6,0.2,1.1,0.3c0.7,0.2,1.3,0.4,1.6,0.8c0.4,0.3,0.5,0.8,0.5,1.3
			c0,0.7-0.3,1.2-0.8,1.6c-0.5,0.4-1.2,0.6-1.9,0.6c-1,0-1.9-0.3-2.6-0.8l0.5-0.7c0.3,0.2,0.6,0.4,0.9,0.5s0.7,0.2,1.1,0.2
			c0.5,0,0.9-0.1,1.1-0.3c0.3-0.2,0.4-0.5,0.4-0.9c0-0.3-0.1-0.5-0.2-0.6c-0.1-0.2-0.3-0.3-0.5-0.4c-0.2-0.1-0.6-0.2-1.1-0.3
			c-0.7-0.2-1.3-0.4-1.6-0.8c-0.3-0.3-0.5-0.8-0.5-1.3c0-0.6,0.2-1.1,0.7-1.4c0.5-0.4,1.1-0.5,1.9-0.5
			C155.9,268.7,156.7,268.9,157.4,269.4z M151.2,269.4l-0.5,0.7c-0.6-0.4-1.1-0.6-1.8-0.6c-0.4,0-0.8,0.1-1.1,0.3s-0.4,0.4-0.4,0.7
			c0,0.2,0.1,0.4,0.2,0.6c0.1,0.1,0.3,0.3,0.5,0.4c0.2,0.1,0.6,0.2,1.1,0.3c0.7,0.2,1.3,0.4,1.6,0.8c0.3,0.3,0.5,0.8,0.5,1.3
			c0,0.7-0.3,1.2-0.8,1.6c-0.5,0.4-1.2,0.6-1.9,0.6c-1,0-1.9-0.3-2.6-0.8l0.5-0.7c0.3,0.2,0.6,0.4,0.9,0.5s0.7,0.2,1.1,0.2
			c0.5,0,0.9-0.1,1.1-0.3c0.3-0.2,0.4-0.5,0.4-0.9c0-0.3-0.1-0.5-0.2-0.6c-0.1-0.2-0.3-0.3-0.5-0.4c-0.2-0.1-0.6-0.2-1.1-0.3
			c-0.7-0.2-1.3-0.4-1.6-0.8c-0.3-0.3-0.5-0.8-0.5-1.3c0-0.6,0.2-1.1,0.7-1.4c0.5-0.4,1.1-0.5,1.9-0.5
			C149.8,268.7,150.5,268.9,151.2,269.4z M143.4,273.4v-0.9l-0.6,0c-0.7,0-1.3,0-1.7,0.1c-0.4,0.1-0.7,0.3-0.9,0.5s-0.3,0.5-0.3,0.9
			c0,0.4,0.1,0.7,0.4,0.9c0.2,0.2,0.6,0.3,1,0.3c0.4,0,0.8-0.1,1.2-0.3c0.3-0.2,0.6-0.4,0.7-0.7S143.4,273.7,143.4,273.4z
			 M138.6,274.1c0-0.9,0.3-1.6,1-1.9c0.7-0.4,1.7-0.5,3-0.5c0.3,0,0.6,0,0.7,0v-0.4c0-0.5-0.1-0.9-0.4-1.2c-0.3-0.3-0.7-0.4-1.3-0.4
			c-0.8,0-1.5,0.2-2.1,0.6l-0.4-0.8c0.8-0.5,1.7-0.7,2.6-0.7c1,0,1.7,0.2,2.2,0.7c0.5,0.5,0.7,1.2,0.7,2.1v2.9c0,0.5,0,1,0.1,1.6
			h-1.1c-0.1-0.4-0.1-0.7-0.1-1h0c-0.3,0.4-0.6,0.7-1,0.9c-0.4,0.2-0.9,0.3-1.5,0.3c-0.7,0-1.2-0.2-1.7-0.6
			C138.8,275.3,138.6,274.7,138.6,274.1z M132.5,267.1v4.5h2c0.7,0,1.2-0.2,1.7-0.6c0.5-0.4,0.7-0.9,0.7-1.7c0-0.8-0.2-1.4-0.7-1.7
			c-0.5-0.4-1-0.5-1.7-0.5H132.5z M138.1,269.3c0,0.7-0.2,1.3-0.5,1.8c-0.3,0.5-0.8,0.9-1.3,1.1c-0.5,0.2-1.1,0.4-1.7,0.4h-2.1v3.4
			h-1.2v-9.9h3.3c1,0,1.9,0.3,2.5,0.8C137.8,267.4,138.1,268.2,138.1,269.3z"/>
	</defs>
	<clipPath id="SVGID_82_">
		<use xlink:href="#SVGID_81_"  style="overflow:visible;"/>
	</clipPath>
	<rect x="126.3" y="261.1" class="st40" width="36.3" height="20.1"/>
</g>
</svg>
