<?xml version="1.0" encoding="utf-8"?>
<!-- Generator: Adobe Illustrator 19.1.0, SVG Export Plug-In . SVG Version: 6.00 Build 0)  -->
<svg version="1.1" id="Layer_1" xmlns="http://www.w3.org/2000/svg" xmlns:xlink="http://www.w3.org/1999/xlink" x="0px" y="0px"
	 width="245.8px" height="230.7px" viewBox="0 0 245.8 230.7" style="enable-background:new 0 0 245.8 230.7;" xml:space="preserve"
	>
<style type="text/css">
	.st0{clip-path:url(#SVGID_2_);fill:none;stroke:#E1E6EF;stroke-width:2;stroke-miterlimit:10;}
	.st1{fill:none;stroke:#E1E6EF;stroke-linecap:square;stroke-miterlimit:10;}
	.st2{clip-path:url(#SVGID_4_);fill:none;stroke:#E0E5EE;stroke-width:2;stroke-miterlimit:10;}
	.st3{clip-path:url(#SVGID_6_);fill-rule:evenodd;clip-rule:evenodd;fill:#FFFFFF;}
	.st4{clip-path:url(#SVGID_8_);fill:none;stroke:#E1E6EF;stroke-width:2;stroke-miterlimit:10;}
	.st5{clip-path:url(#SVGID_10_);fill:#1AA2DD;}
	.st6{clip-path:url(#SVGID_12_);fill:#16325C;}
	.st7{clip-path:url(#SVGID_14_);fill:none;stroke:#E1E6EF;stroke-width:2;stroke-miterlimit:10;}
	.st8{clip-path:url(#SVGID_16_);fill:#CFD7E5;}
	.st9{clip-path:url(#SVGID_18_);fill:#A8B8D0;}
	.st10{clip-path:url(#SVGID_20_);fill:#CFD7E5;}
	.st11{clip-path:url(#SVGID_22_);fill:#0070D2;}
	.st12{clip-path:url(#SVGID_24_);fill:none;stroke:#E1E6EF;stroke-width:2;stroke-miterlimit:10;}
	.st13{clip-path:url(#SVGID_26_);fill:none;stroke:#E1E6EF;stroke-width:2;stroke-miterlimit:10;}
	.st14{clip-path:url(#SVGID_28_);fill:#F7F9FB;}
	.st15{clip-path:url(#SVGID_30_);fill:none;stroke:#E0E5EE;stroke-width:2;stroke-miterlimit:10;}
	.st16{clip-path:url(#SVGID_32_);fill:#0070D2;}
	.st17{clip-path:url(#SVGID_34_);fill:#B8C4D2;}
	.st18{clip-path:url(#SVGID_36_);fill:#D3DCE7;}
	.st19{clip-path:url(#SVGID_38_);fill:#B8C4D2;}
	.st20{clip-path:url(#SVGID_40_);fill:#B8C4D2;}
	.st21{clip-path:url(#SVGID_42_);fill:#B8C4D2;}
	.st22{clip-path:url(#SVGID_44_);}
	.st23{clip-path:url(#SVGID_46_);fill-rule:evenodd;clip-rule:evenodd;fill:#FFFFFF;}
	.st24{clip-path:url(#SVGID_48_);fill:none;stroke:#E0E5EE;stroke-width:2;stroke-miterlimit:10;}
	.st25{clip-path:url(#SVGID_50_);fill:none;stroke:#E0E5EE;stroke-width:2;stroke-miterlimit:10;}
	.st26{clip-path:url(#SVGID_52_);fill:#A8B8D0;}
</style>
<g>
	<defs>
		<rect id="SVGID_1_" x="5" y="9.8" width="240.8" height="220.8"/>
	</defs>
	<clipPath id="SVGID_2_">
		<use xlink:href="#SVGID_1_"  style="overflow:visible;"/>
	</clipPath>
	<rect x="5" y="9.8" class="st0" width="240.8" height="220.8"/>
</g>
<line class="st1" x1="20.5" y1="73.5" x2="162.4" y2="72.7"/>
<g>
	<defs>
		<rect id="SVGID_3_" x="15.3" y="10.3" width="230.5" height="47.1"/>
	</defs>
	<clipPath id="SVGID_4_">
		<use xlink:href="#SVGID_3_"  style="overflow:visible;"/>
	</clipPath>
	<rect x="15.3" y="10.3" class="st2" width="230.5" height="47.1"/>
</g>
<g>
	<g>
		<defs>
			<rect id="SVGID_5_" x="5" width="240.8" height="11.1"/>
		</defs>
		<clipPath id="SVGID_6_">
			<use xlink:href="#SVGID_5_"  style="overflow:visible;"/>
		</clipPath>
		<rect x="5" class="st3" width="240.8" height="11.1"/>
	</g>
</g>
<g>
	<defs>
		<rect id="SVGID_7_" x="5" width="240.8" height="11.1"/>
	</defs>
	<clipPath id="SVGID_8_">
		<use xlink:href="#SVGID_7_"  style="overflow:visible;"/>
	</clipPath>
	<rect x="5" class="st4" width="240.8" height="11.1"/>
</g>
<g>
	<defs>
		<path id="SVGID_9_" d="M22.4,3.3c0.3-0.3,0.7-0.5,1.2-0.5c0.6,0,1.1,0.3,1.4,0.8c0.2-0.1,0.5-0.2,0.8-0.2c1.1,0,2,0.9,2,2
			c0,1.1-0.9,2-2,2c-0.1,0-0.3,0-0.4,0c-0.3,0.4-0.7,0.7-1.3,0.7c-0.2,0-0.4-0.1-0.6-0.1c-0.3,0.6-0.8,1-1.5,1
			c-0.7,0-1.3-0.5-1.6-1.1c-0.1,0-0.2,0-0.3,0c-0.9,0-1.5-0.7-1.5-1.6c0-0.6,0.3-1.1,0.8-1.4c-0.1-0.2-0.1-0.5-0.1-0.7
			c0-1,0.8-1.8,1.8-1.8C21.5,2.5,22.1,2.8,22.4,3.3"/>
	</defs>
	<clipPath id="SVGID_10_">
		<use xlink:href="#SVGID_9_"  style="overflow:visible;"/>
	</clipPath>
	<rect x="13.5" y="-2.5" class="st5" width="19.3" height="16.5"/>
</g>
<g>
	<defs>
		<rect id="SVGID_11_" x="5" y="0.2" width="10.7" height="230.3"/>
	</defs>
	<clipPath id="SVGID_12_">
		<use xlink:href="#SVGID_11_"  style="overflow:visible;"/>
	</clipPath>
	<rect x="0" y="-4.8" class="st6" width="20.7" height="240.3"/>
</g>
<g>
	<defs>
		<path id="SVGID_13_" d="M175.3,66.9c-1.1,0-2,0.9-2,2v64.9c0,1.1,0.9,2,2,2h63.7c1.1,0,2-0.9,2-2V68.9c0-1.1-0.9-2-2-2H175.3z"/>
	</defs>
	<clipPath id="SVGID_14_">
		<use xlink:href="#SVGID_13_"  style="overflow:visible;"/>
	</clipPath>
	<path class="st7" d="M175.3,66.9c-1.1,0-2,0.9-2,2v64.9c0,1.1,0.9,2,2,2h63.7c1.1,0,2-0.9,2-2V68.9c0-1.1-0.9-2-2-2H175.3z"/>
</g>
<g>
	<defs>
		<path id="SVGID_15_" d="M53.1,68.6c0-0.5,0.4-0.8,0.8-0.8h14.3c0.5,0,0.8,0.4,0.8,0.8c0,0.5-0.4,0.8-0.8,0.8H54
			C53.5,69.4,53.1,69.1,53.1,68.6z"/>
	</defs>
	<clipPath id="SVGID_16_">
		<use xlink:href="#SVGID_15_"  style="overflow:visible;"/>
	</clipPath>
	<rect x="48.1" y="62.8" class="st8" width="26" height="11.7"/>
</g>
<g>
	<defs>
		<path id="SVGID_17_" d="M24.5,68.6c0-0.5,0.4-0.8,0.8-0.8h14.3c0.5,0,0.8,0.4,0.8,0.8c0,0.5-0.4,0.8-0.8,0.8H25.3
			C24.9,69.4,24.5,69.1,24.5,68.6z"/>
	</defs>
	<clipPath id="SVGID_18_">
		<use xlink:href="#SVGID_17_"  style="overflow:visible;"/>
	</clipPath>
	<rect x="19.5" y="62.8" class="st9" width="26" height="11.7"/>
</g>
<g>
	<defs>
		<path id="SVGID_19_" d="M81.7,68.6c0-0.5,0.4-0.8,0.8-0.8h14.3c0.5,0,0.8,0.4,0.8,0.8c0,0.5-0.4,0.8-0.8,0.8H82.6
			C82.1,69.4,81.7,69.1,81.7,68.6z"/>
	</defs>
	<clipPath id="SVGID_20_">
		<use xlink:href="#SVGID_19_"  style="overflow:visible;"/>
	</clipPath>
	<rect x="76.7" y="62.8" class="st10" width="26" height="11.7"/>
</g>
<g>
	<defs>
		<polygon id="SVGID_21_" points="20.2,72.9 20.2,73.7 44.7,73.6 44.7,72.8 		"/>
	</defs>
	<clipPath id="SVGID_22_">
		<use xlink:href="#SVGID_21_"  style="overflow:visible;"/>
	</clipPath>
	<rect x="15.2" y="67.8" class="st11" width="34.5" height="10.9"/>
</g>
<g>
	<defs>
		<path id="SVGID_23_" d="M175.3,140.9c-1.1,0-2,0.9-2,2v55.6c0,1.1,0.9,2,2,2h63.7c1.1,0,2-0.9,2-2v-55.6c0-1.1-0.9-2-2-2H175.3z"
			/>
	</defs>
	<clipPath id="SVGID_24_">
		<use xlink:href="#SVGID_23_"  style="overflow:visible;"/>
	</clipPath>
	<path class="st12" d="M175.3,140.9c-1.1,0-2,0.9-2,2v55.6c0,1.1,0.9,2,2,2h63.7c1.1,0,2-0.9,2-2v-55.6c0-1.1-0.9-2-2-2H175.3z"/>
</g>
<g>
	<defs>
		<path id="SVGID_25_" d="M175.3,206.4c-1.1,0-2,0.9-2,2v22.4h67.7v-22.4c0-1.1-0.9-2-2-2H175.3z"/>
	</defs>
	<clipPath id="SVGID_26_">
		<use xlink:href="#SVGID_25_"  style="overflow:visible;"/>
	</clipPath>
	<path class="st13" d="M175.3,206.4c-1.1,0-2,0.9-2,2v22.4h67.7v-22.4c0-1.1-0.9-2-2-2H175.3z"/>
</g>
<line class="st1" x1="168.8" y1="57.1" x2="168.8" y2="230.2"/>
<g>
	<defs>
		<path id="SVGID_27_" d="M39.8,82.6v8h123.4v-4c0-2.2-1.8-4-4-4H39.8z"/>
	</defs>
	<clipPath id="SVGID_28_">
		<use xlink:href="#SVGID_27_"  style="overflow:visible;"/>
	</clipPath>
	<rect x="34.8" y="77.6" class="st14" width="133.4" height="18"/>
</g>
<g>
	<defs>
		<path id="SVGID_29_" d="M24.5,82c-2.2,0-4,1.8-4,4v20.7c0,2.2,1.8,4,4,4h135c2.2,0,4-1.8,4-4V86c0-2.2-1.8-4-4-4H24.5z"/>
	</defs>
	<clipPath id="SVGID_30_">
		<use xlink:href="#SVGID_29_"  style="overflow:visible;"/>
	</clipPath>
	<path class="st15" d="M24.5,82c-2.2,0-4,1.8-4,4v20.7c0,2.2,1.8,4,4,4h135c2.2,0,4-1.8,4-4V86c0-2.2-1.8-4-4-4H24.5z"/>
</g>
<g>
	<defs>
		<path id="SVGID_31_" d="M143.1,97.5c-1.1,0-2,0.9-2,2v3c0,1.1,0.9,2,2,2h14.3c1.1,0,2-0.9,2-2v-3c0-1.1-0.9-2-2-2H143.1z"/>
	</defs>
	<clipPath id="SVGID_32_">
		<use xlink:href="#SVGID_31_"  style="overflow:visible;"/>
	</clipPath>
	<rect x="136.1" y="92.5" class="st16" width="28.3" height="17"/>
</g>
<g>
	<defs>
		<path id="SVGID_33_" d="M64.8,86.7c0-0.4,0.3-0.7,0.7-0.7h7.5c0.4,0,0.7,0.3,0.7,0.7c0,0.4-0.3,0.7-0.7,0.7h-7.5
			C65.1,87.4,64.8,87.1,64.8,86.7z"/>
	</defs>
	<clipPath id="SVGID_34_">
		<use xlink:href="#SVGID_33_"  style="overflow:visible;"/>
	</clipPath>
	<rect x="59.8" y="81.1" class="st17" width="18.8" height="11.4"/>
</g>
<g>
	<defs>
		<path id="SVGID_35_" d="M25.3,101.3c0-0.4,0.3-0.7,0.7-0.7h62.3c0.4,0,0.7,0.3,0.7,0.7c0,0.4-0.3,0.7-0.7,0.7H26
			C25.6,101.9,25.3,101.6,25.3,101.3z"/>
	</defs>
	<clipPath id="SVGID_36_">
		<use xlink:href="#SVGID_35_"  style="overflow:visible;"/>
	</clipPath>
	<rect x="20.3" y="95.6" class="st18" width="73.6" height="11.4"/>
</g>
<g>
	<defs>
		<path id="SVGID_37_" d="M25.2,86.7c0-0.4,0.3-0.7,0.7-0.7h7.5c0.4,0,0.7,0.3,0.7,0.7c0,0.4-0.3,0.7-0.7,0.7h-7.5
			C25.5,87.4,25.2,87.1,25.2,86.7z"/>
	</defs>
	<clipPath id="SVGID_38_">
		<use xlink:href="#SVGID_37_"  style="overflow:visible;"/>
	</clipPath>
	<rect x="20.2" y="81.1" class="st19" width="18.8" height="11.4"/>
</g>
<g>
	<defs>
		<path id="SVGID_39_" d="M45.9,86.7c0-0.4,0.3-0.7,0.7-0.7H54c0.4,0,0.7,0.3,0.7,0.7c0,0.4-0.3,0.7-0.7,0.7h-7.5
			C46.2,87.4,45.9,87.1,45.9,86.7z"/>
	</defs>
	<clipPath id="SVGID_40_">
		<use xlink:href="#SVGID_39_"  style="overflow:visible;"/>
	</clipPath>
	<rect x="40.9" y="81.1" class="st20" width="18.8" height="11.4"/>
</g>
<g>
	<defs>
		<path id="SVGID_41_" d="M85.5,86.7c0-0.4,0.3-0.7,0.7-0.7h7.5c0.4,0,0.7,0.3,0.7,0.7c0,0.4-0.3,0.7-0.7,0.7h-7.5
			C85.8,87.4,85.5,87.1,85.5,86.7z"/>
	</defs>
	<clipPath id="SVGID_42_">
		<use xlink:href="#SVGID_41_"  style="overflow:visible;"/>
	</clipPath>
	<rect x="80.5" y="81.1" class="st21" width="18.8" height="11.4"/>
</g>
<g>
	<defs>
		<path id="SVGID_43_" d="M24.5,116.4h135c1.9,0,3.5,1.6,3.5,3.5v31.8c0,1.9-1.6,3.5-3.5,3.5h-135c-1.9,0-3.5-1.6-3.5-3.5v-31.8
			C21,117.9,22.6,116.4,24.5,116.4z M24.5,115.4c-2.5,0-4.5,2-4.5,4.5v31.8c0,2.5,2,4.5,4.5,4.5h135c2.5,0,4.5-2,4.5-4.5v-31.8
			c0-2.5-2-4.5-4.5-4.5H24.5z M0,95.4h184v80.8H0V95.4z"/>
	</defs>
	<clipPath id="SVGID_44_">
		<use xlink:href="#SVGID_43_"  style="overflow:visible;"/>
	</clipPath>
	<g class="st22">
		<defs>
			<path id="SVGID_45_" d="M24.5,115.9c-2.2,0-4,1.8-4,4v31.8c0,2.2,1.8,4,4,4h135c2.2,0,4-1.8,4-4v-31.8c0-2.2-1.8-4-4-4H24.5z"/>
		</defs>
		<clipPath id="SVGID_46_">
			<use xlink:href="#SVGID_45_"  style="overflow:visible;"/>
		</clipPath>
		<path class="st23" d="M24.5,115.9c-2.2,0-4,1.8-4,4v31.8c0,2.2,1.8,4,4,4h135c2.2,0,4-1.8,4-4v-31.8c0-2.2-1.8-4-4-4H24.5z"/>
	</g>
</g>
<g>
	<defs>
		<path id="SVGID_47_" d="M24.5,115.9c-2.2,0-4,1.8-4,4v31.8c0,2.2,1.8,4,4,4h135c2.2,0,4-1.8,4-4v-31.8c0-2.2-1.8-4-4-4H24.5z"/>
	</defs>
	<clipPath id="SVGID_48_">
		<use xlink:href="#SVGID_47_"  style="overflow:visible;"/>
	</clipPath>
	<path class="st24" d="M24.5,115.9c-2.2,0-4,1.8-4,4v31.8c0,2.2,1.8,4,4,4h135c2.2,0,4-1.8,4-4v-31.8c0-2.2-1.8-4-4-4H24.5z"/>
</g>
<g>
	<defs>
		<path id="SVGID_49_" d="M24.5,160.8c-2.2,0-4,1.8-4,4V215c0,2.2,1.8,4,4,4h135c2.2,0,4-1.8,4-4v-50.2c0-2.2-1.8-4-4-4H24.5z"/>
	</defs>
	<clipPath id="SVGID_50_">
		<use xlink:href="#SVGID_49_"  style="overflow:visible;"/>
	</clipPath>
	<path class="st25" d="M24.5,160.8c-2.2,0-4,1.8-4,4V215c0,2.2,1.8,4,4,4h135c2.2,0,4-1.8,4-4v-50.2c0-2.2-1.8-4-4-4H24.5z"/>
</g>
<g>
	<defs>
		<path id="SVGID_51_" d="M24.5,68.6c0-0.5,0.4-0.8,0.8-0.8h14.3c0.5,0,0.8,0.4,0.8,0.8c0,0.5-0.4,0.8-0.8,0.8H25.3
			C24.9,69.4,24.5,69.1,24.5,68.6z"/>
	</defs>
	<clipPath id="SVGID_52_">
		<use xlink:href="#SVGID_51_"  style="overflow:visible;"/>
	</clipPath>
	<rect x="19.5" y="62.8" class="st26" width="26" height="11.7"/>
</g>
</svg>
