<svg width="394" height="377" xmlns="http://www.w3.org/2000/svg"><g fill="none" fill-rule="evenodd"><path stroke="#E1E6EF" fill="#FFF" d="M0 15.993h394v360.803H0z"/><path stroke="#E0E5EE" fill="#F7F9FB" d="M16.87 16.854H394V93.9H16.87z"/><path stroke="#E1E6EF" fill="#FFF" d="M0 0h394v18.146H0z"/><path d="M28.487 5.325c.49-.51 1.172-.826 1.926-.826 1.002 0 1.876.557 2.342 1.386.405-.18.852-.28 1.324-.28 1.806 0 3.272 1.476 3.272 3.298s-1.466 3.3-3.273 3.3c-.222 0-.438-.023-.646-.065-.41.73-1.192 1.224-2.088 1.224-.376 0-.73-.087-1.047-.24-.417.976-1.385 1.66-2.514 1.66-1.176 0-2.177-.742-2.562-1.784-.168.035-.342.054-.52.054-1.4 0-2.535-1.146-2.535-2.558 0-.947.51-1.774 1.266-2.217-.156-.36-.242-.755-.242-1.17 0-1.626 1.32-2.943 2.95-2.943.955 0 1.804.454 2.343 1.158" fill="#1AA2DD"/><path d="M0 .308h17.545v376.355H0z" fill="#16325C"/><rect width="110.813" height="35.985" rx="2" transform="translate(275.492 124.49)" stroke="#E1E6EF" fill="#FFF"/><path d="M268.09 96.5v279.694" stroke="#E1E6EF" stroke-linecap="square"/><g stroke="#E0E5EE" fill="#FFF"><path d="M29.393 124.387c-2.208 0-3.998 1.784-3.998 4.003v38.944c0 2.21 1.78 4.002 3.998 4.002h225.94c2.21 0 4-1.783 4-4.002V128.39c0-2.21-1.783-4.003-4-4.003H29.393zM29.393 179.763c-2.208 0-3.998 1.79-3.998 3.993v57.02c0 2.206 1.78 3.994 3.998 3.994h225.94c2.21 0 4-1.79 4-3.993v-57.02c0-2.206-1.783-3.994-4-3.994H29.393zM29.393 253.196c-2.208 0-3.998 1.794-3.998 3.996v87.11c0 2.207 1.78 3.996 3.998 3.996h225.94c2.21 0 4-1.794 4-3.995v-87.11c0-2.208-1.783-3.997-4-3.997H29.393z"/></g></g></svg>