<svg width="241" height="231" xmlns="http://www.w3.org/2000/svg"><g fill="none" fill-rule="evenodd"><path stroke="#E1E6EF" fill="#FFF" d="M0 9.774h110v220.49H0z"/><g transform="translate(18 40)" fill="#E1E6EF"><rect x=".108" y=".982" width="79.892" height="1.081" rx="4"/><rect x=".108" y="6.027" width="21.892" height="1.081" rx="4"/><rect x=".108" y="8.91" width="46.644" height="1.081" rx="4"/><rect x=".108" y="11.793" width="51.569" height="1.081" rx="4"/></g><g transform="translate(18 64)" fill="#E1E6EF"><rect x=".108" y=".982" width="83.892" height="1.081" rx="4"/><rect x=".108" y="6.027" width="21.892" height="1.081" rx="4"/><rect x=".108" y="8.91" width="46.644" height="1.081" rx="4"/><rect x=".108" y="11.793" width="51.569" height="1.081" rx="4"/></g><g transform="translate(18 88)" fill="#E1E6EF"><rect x=".108" y=".982" width="83.892" height="1.081" rx="4"/><rect x=".108" y="6.027" width="21.892" height="1.081" rx="4"/><rect x=".108" y="8.91" width="46.644" height="1.081" rx="4"/><rect x=".108" y="11.793" width="51.569" height="1.081" rx="4"/></g><g transform="translate(18 112)" fill="#E1E6EF"><rect x=".108" y=".982" width="82.892" height="1.081" rx="4"/><rect x=".108" y="6.027" width="21.892" height="1.081" rx="4"/><rect x=".108" y="8.91" width="46.644" height="1.081" rx="4"/><rect x=".108" y="11.793" width="51.569" height="1.081" rx="4"/></g><g transform="translate(18 136)" fill="#E1E6EF"><rect x=".108" y=".982" width="79.892" height="1.081" rx="4"/><rect x=".108" y="6.027" width="21.892" height="1.081" rx="4"/><rect x=".108" y="8.91" width="46.644" height="1.081" rx="4"/><rect x=".108" y="11.793" width="51.569" height="1.081" rx="4"/></g><g transform="translate(18 160)" fill="#E1E6EF"><rect x=".108" y=".982" width="81.892" height="1.081" rx="4"/><rect x=".108" y="6.027" width="21.892" height="1.081" rx="4"/><rect x=".108" y="8.91" width="46.644" height="1.081" rx="4"/><rect x=".108" y="11.793" width="51.569" height="1.081" rx="4"/></g><path stroke="#E0E5EE" fill="#F7F9FB" d="M10.318 10.3H110V36H10.318z"/><path stroke="#E1E6EF" fill="#FFF" d="M0 0h110v11.09H0z"/><path d="M15.973 3.254c.274-.31.657-.505 1.08-.505.56 0 1.052.34 1.313.844.227-.11.478-.172.742-.172 1.013 0 1.835.903 1.835 2.016 0 1.114-.822 2.017-1.835 2.017-.124 0-.245-.014-.362-.04-.23.447-.668.75-1.17.75-.21 0-.41-.054-.587-.148-.237.596-.78 1.014-1.41 1.014-.66 0-1.22-.453-1.44-1.09-.094.02-.19.033-.29.033-.786 0-1.42-.7-1.42-1.563 0-.58.284-1.084.71-1.354-.09-.22-.137-.46-.137-.716 0-.994.74-1.8 1.653-1.8.536 0 1.013.28 1.315.71" fill="#1AA2DD"/><path d="M0 .188h10.732v229.995H0z" fill="#16325C"/><path d="M11.322 58.5h98.045m-98.045 24h98.045m-98.045 24h98.045m-98.045 24h98.045m-98.045 24h98.045m-98.045 24h98.045" stroke="#E1E6EF" stroke-linecap="square"/><path stroke="#E1E6EF" fill="#FFF" d="M131 9.774h110v220.49H131z"/><path d="M153.994 42c-2.206 0-3.994 1.787-3.994 4.007v8.986c0 2.213 1.794 4.007 3.994 4.007h74.234c2.206 0 3.994-1.787 3.994-4.007v-8.986c0-2.213-1.794-4.007-3.994-4.007h-74.234zm0 23c-2.206 0-3.994 1.788-3.994 4.005v149.99c0 2.212 1.794 4.005 3.994 4.005h74.234c2.206 0 3.994-1.788 3.994-4.005V69.005c0-2.212-1.794-4.005-3.994-4.005h-74.234z" stroke="#E0E5EE" fill="#FFF"/><path stroke="#E0E5EE" fill="#F7F9FB" d="M141.318 10.3H241V36h-99.682z"/><path stroke="#E1E6EF" fill="#FFF" d="M131 0h110v11.09H131z"/><path d="M146.973 3.254c.274-.31.657-.505 1.08-.505.56 0 1.052.34 1.313.844.227-.11.478-.172.742-.172 1.013 0 1.835.903 1.835 2.016 0 1.114-.822 2.017-1.835 2.017-.124 0-.245-.014-.362-.04-.23.447-.668.75-1.17.75-.21 0-.41-.054-.587-.148-.237.596-.78 1.014-1.41 1.014-.66 0-1.22-.453-1.44-1.09-.094.02-.19.033-.29.033-.786 0-1.42-.7-1.42-1.563 0-.58.284-1.084.71-1.354-.09-.22-.137-.46-.137-.716 0-.994.74-1.8 1.653-1.8.536 0 1.013.28 1.315.71" fill="#1AA2DD"/><path d="M131 .188h10.732v229.995H131z" fill="#16325C"/></g></svg>