<?xml version="1.0" encoding="UTF-8" standalone="no"?>
<svg width="394px" height="377px" viewBox="0 0 394 377" version="1.1" xmlns="http://www.w3.org/2000/svg" xmlns:xlink="http://www.w3.org/1999/xlink" xmlns:sketch="http://www.bohemiancoding.com/sketch/ns">
    <!-- Generator: Sketch 3.3.3 (12081) - http://www.bohemiancoding.com/sketch -->
    <title>record copy</title>
    <desc>Created with Sketch.</desc>
    <defs></defs>
    <g id="Page-1" stroke="none" stroke-width="1" fill="none" fill-rule="evenodd" sketch:type="MSPage">
        <g id="layouts" sketch:type="MSArtboardGroup" transform="translate(-298.000000, -719.000000)">
            <g id="record-copy" sketch:type="MSLayerGroup" transform="translate(298.000000, 719.000000)">
                <rect id="bkgd" stroke="#E1E6EF" fill="#FFFFFF" sketch:type="MSShapeGroup" x="0" y="15.9934906" width="394" height="360.802688"></rect>
                <rect id="Rectangle-553" stroke="#E0E5EE" fill="#F7F9FB" sketch:type="MSShapeGroup" x="16.8685015" y="16.8535032" width="377.131498" height="77.044586"></rect>
                <g id="Component---Top-Bar-Copy-12" sketch:type="MSShapeGroup">
                    <rect id="Background" stroke="#E1E6EF" fill="#FFFFFF" x="0" y="0" width="394" height="18.1464605"></rect>
                    <path d="M28.487283,5.32483102 C28.9769621,4.81514179 29.6586175,4.49889025 30.4125981,4.49889025 C31.4147232,4.49889025 32.2892068,5.05724711 32.7547383,5.88626997 C33.1595483,5.70557158 33.6073951,5.60500746 34.0786256,5.60500746 C35.8862286,5.60500746 37.351682,7.08209061 37.351682,8.90422081 C37.351682,10.7263804 35.8862286,12.2034342 34.0786256,12.2034342 C33.857919,12.2034342 33.6423239,12.1813018 33.4338379,12.139268 C33.023887,12.869987 32.2423217,13.3637374 31.3455412,13.3637374 C30.9701666,13.3637374 30.6150031,13.2771748 30.2987637,13.1230117 C29.8831724,14.1000628 28.9145367,14.7851082 27.7859746,14.7851082 C26.6104687,14.7851082 25.6085786,14.0420022 25.2242147,12.9997282 C25.0560923,13.0352162 24.8819182,13.0539142 24.7033376,13.0539142 C23.3038055,13.0539142 22.1693093,11.9084931 22.1693093,10.4955173 C22.1693093,9.54855324 22.6789351,8.72179058 23.436441,8.27940827 C23.2804511,7.92077068 23.1938781,7.52514805 23.1938781,7.10924234 C23.1938781,5.48413092 24.514064,4.16672926 26.1426458,4.16672926 C27.0987964,4.16672926 27.9484862,4.62094092 28.487283,5.32483102" id="Fill-1-Copy" fill="#1AA2DD"></path>
                </g>
                <g id="Component---Left-Bar---Expanded-Copy-16" transform="translate(0.000000, 0.307567)" fill="#16325C" sketch:type="MSShapeGroup">
                    <rect id="BG" x="0" y="0" width="17.5453125" height="376.354775"></rect>
                </g>
                <g id="Group-19-Copy-7" transform="translate(275.492188, 124.490244)" stroke="#E1E6EF" fill="#FFFFFF" sketch:type="MSShapeGroup">
                    <rect id="Rectangle-827" x="0" y="0" width="110.8125" height="35.9853539" rx="2"></rect>
                </g>
                <path d="M268.088685,96.4993805 L268.088685,376.194277" id="Line-Copy-2" stroke="#E1E6EF" stroke-linecap="square" sketch:type="MSShapeGroup"></path>
                <g id="Wide---With-Pic-Copy" transform="translate(25.394531, 124.387395)" stroke="#E0E5EE" fill="#FFFFFF" sketch:type="MSShapeGroup">
                    <path d="M3.99894293,6.31687223e-15 C1.79038773,6.31687223e-15 0,1.78312845 0,4.00284914 L0,42.9461955 C0,45.156908 1.78170635,46.9490446 3.99894293,46.9490446 L229.938557,46.9490446 C232.147112,46.9490446 233.9375,45.1659161 233.9375,42.9461955 L233.9375,4.00284914 C233.9375,1.7921366 232.155794,6.31687223e-15 229.938557,6.31687223e-15 L3.99894293,6.31687223e-15 Z" id="Rectangle-19"></path>
                    <path d="M3.99894293,55.3757962 C1.79038773,55.3757962 0,57.1652425 0,59.3687464 L0,116.389215 C0,118.594461 1.78170635,120.382166 3.99894293,120.382166 L229.938557,120.382166 C232.147112,120.382166 233.9375,118.592719 233.9375,116.389215 L233.9375,59.3687464 C233.9375,57.1635009 232.155794,55.3757962 229.938557,55.3757962 L3.99894293,55.3757962 Z" id="Rectangle-19-Copy-2"></path>
                    <path d="M3.99894293,128.808917 C1.79038773,128.808917 0,130.602859 0,132.804365 L0,219.91538 C0,222.122005 1.78170635,223.910828 3.99894293,223.910828 L229.938557,223.910828 C232.147112,223.910828 233.9375,222.116886 233.9375,219.91538 L233.9375,132.804365 C233.9375,130.59774 232.155794,128.808917 229.938557,128.808917 L3.99894293,128.808917 Z" id="Rectangle-19-Copy-3"></path>
                </g>
            </g>
        </g>
    </g>
</svg>