<?xml version="1.0" encoding="UTF-8" standalone="no"?>
<svg width="241px" height="231px" viewBox="0 0 241 231" version="1.1" xmlns="http://www.w3.org/2000/svg" xmlns:xlink="http://www.w3.org/1999/xlink" xmlns:sketch="http://www.bohemiancoding.com/sketch/ns">
    <!-- Generator: Sketch 3.3.3 (12081) - http://www.bohemiancoding.com/sketch -->
    <title>record copy 3</title>
    <desc>Created with Sketch.</desc>
    <defs></defs>
    <g id="Page-1" stroke="none" stroke-width="1" fill="none" fill-rule="evenodd" sketch:type="MSPage">
        <g id="layouts" sketch:type="MSArtboardGroup" transform="translate(-838.000000, -1486.000000)">
            <g id="record-copy-3" sketch:type="MSLayerGroup" transform="translate(838.000000, 1486.000000)">
                <rect id="bkgd" stroke="#E1E6EF" fill="#FFFFFF" sketch:type="MSShapeGroup" x="0" y="9.77379984" width="241" height="220.490531"></rect>
                <rect id="Rectangle-553" stroke="#E0E5EE" fill="#F7F9FB" sketch:type="MSShapeGroup" x="10.3180428" y="10.2993631" width="230.681957" height="47.0828025"></rect>
                <g id="Component---Top-Bar-Copy-12" sketch:type="MSShapeGroup">
                    <rect id="Background" stroke="#E1E6EF" fill="#FFFFFF" x="0" y="0" width="241" height="11.0895037"></rect>
                    <path d="M17.4249624,3.2540634 C17.724487,2.94258665 18.1414386,2.74932182 18.6026298,2.74932182 C19.2156048,2.74932182 19.7505047,3.0905399 20.0352587,3.59716498 C20.2828709,3.48673819 20.5568077,3.42528234 20.8450477,3.42528234 C21.9507134,3.42528234 22.8470948,4.32794426 22.8470948,5.44146827 C22.8470948,6.55501022 21.9507134,7.45765421 20.8450477,7.45765421 C20.7100469,7.45765421 20.5781727,7.4441289 20.4506471,7.41844157 C20.1998903,7.86499204 19.7218262,8.16672842 19.1732879,8.16672842 C18.9436806,8.16672842 18.7264359,8.11382903 18.5330001,8.01961825 C18.2787933,8.61670505 17.6863029,9.03534387 16.9959896,9.03534387 C16.2769618,9.03534387 15.6641306,8.58122354 15.4290247,7.94427834 C15.3261884,7.96596547 15.2196505,7.97739202 15.1104172,7.97739202 C14.2543582,7.97739202 13.5604151,7.27741242 13.5604151,6.41392725 C13.5604151,5.83522698 13.8721405,5.32998313 14.335488,5.05963839 C14.2400729,4.84047097 14.1871183,4.59870158 14.1871183,4.34453698 C14.1871183,3.35141334 14.9946432,2.54633455 15.9908062,2.54633455 C16.5756597,2.54633455 17.0953938,2.82390834 17.4249624,3.2540634" id="Fill-1-Copy" fill="#1AA2DD"></path>
                </g>
                <g id="Component---Left-Bar---Expanded-Copy-16" transform="translate(0.000000, 0.187958)" fill="#16325C" sketch:type="MSShapeGroup">
                    <rect id="BG" x="0" y="0" width="10.7320313" height="229.994584"></rect>
                </g>
                <path d="M163.98318,57.0002445 L163.98318,229.896503" id="Line-Copy-2" stroke="#E1E6EF" stroke-linecap="square" sketch:type="MSShapeGroup"></path>
                <g id="Wide---With-Pic-Copy" transform="translate(15.533203, 76.014519)" stroke="#E0E5EE" fill="#FFFFFF" sketch:type="MSShapeGroup">
                    <path d="M3.99531343,3.07081888e-15 C1.78876275,3.07081888e-15 0,1.79475573 0,4.0044663 L0,24.6866165 C0,26.8982222 1.78333235,28.6910828 3.99531343,28.6910828 L139.098437,28.6910828 C141.304987,28.6910828 143.09375,26.8963271 143.09375,24.6866165 L143.09375,4.0044663 C143.09375,1.79286063 141.310418,3.07081888e-15 139.098437,3.07081888e-15 L3.99531343,3.07081888e-15 Z" id="Rectangle-19"></path>
                    <path d="M3.99531343,33.8407643 C1.78876275,33.8407643 0,35.6248887 0,37.8317448 L0,69.5758986 C0,71.7800562 1.78333235,73.566879 3.99531343,73.566879 L139.098437,73.566879 C141.304987,73.566879 143.09375,71.7827546 143.09375,69.5758986 L143.09375,37.8317448 C143.09375,35.6275871 141.310418,33.8407643 139.098437,33.8407643 L3.99531343,33.8407643 Z" id="Rectangle-19-Copy-2"></path>
                    <path d="M3.99531343,78.7165605 C1.78876275,78.7165605 0,80.5036106 0,82.7112346 L0,132.839721 C0,135.045918 1.78333235,136.834395 3.99531343,136.834395 L139.098437,136.834395 C141.304987,136.834395 143.09375,135.047345 143.09375,132.839721 L143.09375,82.7112346 C143.09375,80.505037 141.310418,78.7165605 139.098437,78.7165605 L3.99531343,78.7165605 Z" id="Rectangle-19-Copy-3"></path>
                </g>
            </g>
        </g>
    </g>
</svg>