<svg width="241" height="231" xmlns="http://www.w3.org/2000/svg" xmlns:xlink="http://www.w3.org/1999/xlink"><defs><path id="a" d="M212.296 5.67c1.493 0 2.704-1.23 2.704-2.744 0-1.515-1.21-2.743-2.704-2.743H2.704C1.21.183 0 1.41 0 2.926S1.21 5.67 2.704 5.67h209.592z"/></defs><g fill="none" fill-rule="evenodd"><path stroke="#E1E6EF" fill="#FFF" d="M0 9.774h241v220.49H0z"/><path stroke="#E0E5EE" fill="#F7F9FB" d="M10.318 10.3H241V36H10.318z"/><g transform="translate(18 42.143)"><mask id="b" fill="#fff"><use xlink:href="#a"/></mask><use fill="#D3DCE7" xlink:href="#a"/><path d="M42.99-.15c-.186.098-.083.174.11.386.382.416 2.118 2.38 2.21 2.514.088.124.107.12 0 .256-.104.136-2.3 2.537-2.3 2.537s-.215.18-.044.26c.17.082.203.073.4-.135.79-.826 2.455-2.614 2.456-2.69 0-.038.07-.115-.013-.235-.32-.463-1.78-2.04-2.375-2.662-.187-.192-.265-.325-.45-.23zm42.89 0c-.184.098-.08.174.113.386.38.416 2.117 2.38 2.21 2.514.087.124.106.12 0 .256S85.9 5.543 85.9 5.543s-.213.18-.042.26c.17.082.202.073.4-.135.79-.826 2.455-2.614 2.456-2.69 0-.038.07-.115-.013-.235-.32-.463-1.774-2.04-2.37-2.662-.184-.192-.262-.325-.45-.23zm42.893.183c-.185.098-.083.174.112.386.38.412 2.116 2.38 2.21 2.51.087.124.106.12 0 .256-.106.135-2.302 2.535-2.302 2.535s-.215.18-.044.263c.17.08.2.072.4-.136.79-.827 2.45-2.614 2.453-2.69 0-.038.07-.115-.013-.235-.32-.464-1.777-2.04-2.37-2.662-.187-.195-.265-.33-.45-.23zm42.89-.183c-.183.098-.08.174.114.386.38.416 2.116 2.38 2.21 2.514.087.124.106.12 0 .256s-2.302 2.537-2.302 2.537-.215.18-.044.26c.175.082.207.073.406-.135.788-.826 2.453-2.614 2.454-2.69 0-.038.07-.115-.014-.235-.32-.463-1.778-2.04-2.37-2.662-.187-.192-.265-.325-.45-.23z" fill="#FFF" mask="url(#b)"/></g><path stroke="#E1E6EF" fill="#FFF" d="M0 0h241v11.09H0z"/><path d="M17.425 3.254c.3-.31.716-.505 1.178-.505.613 0 1.148.34 1.432.844.248-.11.522-.172.81-.172 1.106 0 2.002.903 2.002 2.016 0 1.114-.896 2.017-2.002 2.017-.135 0-.267-.014-.394-.04-.25.447-.725.75-1.274.75-.23 0-.447-.054-.64-.148-.254.596-.847 1.014-1.537 1.014-.72 0-1.333-.453-1.568-1.09-.103.02-.21.033-.32.033-.855 0-1.55-.7-1.55-1.563 0-.58.313-1.084.776-1.354-.095-.22-.148-.46-.148-.716 0-.994.808-1.8 1.804-1.8.587 0 1.106.28 1.436.71" fill="#1AA2DD"/><path d="M0 .188h10.732v229.995H0z" fill="#16325C"/><path d="M21.533 54.015c-2.21 0-4 1.784-4 3.99v16.02c0 2.203 1.797 3.99 4 3.99h32c2.21 0 4-1.785 4-3.99v-16.02c0-2.204-1.796-3.99-4-3.99h-32zm44 0c-2.21 0-4 1.784-4 3.99v16.02c0 2.203 1.797 3.99 4 3.99h32c2.21 0 4-1.785 4-3.99v-16.02c0-2.204-1.796-3.99-4-3.99h-32zm44 0c-2.21 0-4 1.784-4 3.99v16.02c0 2.203 1.797 3.99 4 3.99h32c2.21 0 4-1.785 4-3.99v-16.02c0-2.204-1.796-3.99-4-3.99h-32zm44 0c-2.21 0-4 1.784-4 3.99v16.02c0 2.203 1.797 3.99 4 3.99h32c2.21 0 4-1.785 4-3.99v-16.02c0-2.204-1.796-3.99-4-3.99h-32zm44 0c-2.21 0-4 1.784-4 3.99v16.02c0 2.203 1.797 3.99 4 3.99h32c2.21 0 4-1.785 4-3.99v-16.02c0-2.204-1.796-3.99-4-3.99h-32zm-176 28c-2.21 0-4 1.784-4 3.99v16.02c0 2.203 1.797 3.99 4 3.99h32c2.21 0 4-1.785 4-3.99v-16.02c0-2.204-1.796-3.99-4-3.99h-32zm44 0c-2.21 0-4 1.784-4 3.99v16.02c0 2.203 1.797 3.99 4 3.99h32c2.21 0 4-1.785 4-3.99v-16.02c0-2.204-1.796-3.99-4-3.99h-32zm44 0c-2.21 0-4 1.784-4 3.99v16.02c0 2.203 1.797 3.99 4 3.99h32c2.21 0 4-1.785 4-3.99v-16.02c0-2.204-1.796-3.99-4-3.99h-32zm44 0c-2.21 0-4 1.784-4 3.99v16.02c0 2.203 1.797 3.99 4 3.99h32c2.21 0 4-1.785 4-3.99v-16.02c0-2.204-1.796-3.99-4-3.99h-32zm44 0c-2.21 0-4 1.784-4 3.99v16.02c0 2.203 1.797 3.99 4 3.99h32c2.21 0 4-1.785 4-3.99v-16.02c0-2.204-1.796-3.99-4-3.99h-32zm-176 28c-2.21 0-4 1.784-4 3.99v16.02c0 2.203 1.797 3.99 4 3.99h32c2.21 0 4-1.785 4-3.99v-16.02c0-2.204-1.796-3.99-4-3.99h-32zm44 0c-2.21 0-4 1.784-4 3.99v16.02c0 2.203 1.797 3.99 4 3.99h32c2.21 0 4-1.785 4-3.99v-16.02c0-2.204-1.796-3.99-4-3.99h-32zm44 0c-2.21 0-4 1.784-4 3.99v16.02c0 2.203 1.797 3.99 4 3.99h32c2.21 0 4-1.785 4-3.99v-16.02c0-2.204-1.796-3.99-4-3.99h-32zm88 0c-2.21 0-4 1.784-4 3.99v16.02c0 2.203 1.797 3.99 4 3.99h32c2.21 0 4-1.785 4-3.99v-16.02c0-2.204-1.796-3.99-4-3.99h-32zm-176 28c-2.21 0-4 1.784-4 3.99v16.02c0 2.203 1.797 3.99 4 3.99h32c2.21 0 4-1.785 4-3.99v-16.02c0-2.204-1.796-3.99-4-3.99h-32zm88 0c-2.21 0-4 1.784-4 3.99v16.02c0 2.203 1.797 3.99 4 3.99h32c2.21 0 4-1.785 4-3.99v-16.02c0-2.204-1.796-3.99-4-3.99h-32zm88 0c-2.21 0-4 1.784-4 3.99v16.02c0 2.203 1.797 3.99 4 3.99h32c2.21 0 4-1.785 4-3.99v-16.02c0-2.204-1.796-3.99-4-3.99h-32zm-176 28c-2.21 0-4 1.784-4 3.99v16.02c0 2.203 1.797 3.99 4 3.99h32c2.21 0 4-1.785 4-3.99v-16.02c0-2.204-1.796-3.99-4-3.99h-32zm176 0c-2.21 0-4 1.784-4 3.99v16.02c0 2.203 1.797 3.99 4 3.99h32c2.21 0 4-1.785 4-3.99v-16.02c0-2.204-1.796-3.99-4-3.99h-32z" stroke="#E0E5EE" fill="#FFF"/></g></svg>