<svg width="241" height="231" xmlns="http://www.w3.org/2000/svg" xmlns:xlink="http://www.w3.org/1999/xlink"><defs><path id="a" d="M212.296 5.67c1.493 0 2.704-1.23 2.704-2.744 0-1.515-1.21-2.743-2.704-2.743H2.704C1.21.183 0 1.41 0 2.926S1.21 5.67 2.704 5.67h209.592z"/></defs><g fill="none" fill-rule="evenodd"><path stroke="#E1E6EF" fill="#FFF" d="M0 9.774h241v220.49H0z"/><path stroke="#E0E5EE" fill="#F7F9FB" d="M10.318 10.3H241V36H10.318z"/><g transform="translate(18 42.143)"><mask id="b" fill="#fff"><use xlink:href="#a"/></mask><use fill="#D3DCE7" xlink:href="#a"/><path d="M42.99-.15c-.186.098-.083.174.11.386.382.416 2.118 2.38 2.21 2.514.088.124.107.12 0 .256-.104.136-2.3 2.537-2.3 2.537s-.215.18-.044.26c.17.082.203.073.4-.135.79-.826 2.455-2.614 2.456-2.69 0-.038.07-.115-.013-.235-.32-.463-1.78-2.04-2.372-2.662-.187-.195-.265-.328-.45-.23zM85.88-.15c-.184.098-.08.174.113.386.38.416 2.117 2.38 2.21 2.514.087.124.106.12 0 .256S85.9 5.543 85.9 5.543s-.213.18-.042.26c.17.082.202.073.4-.135.79-.826 2.455-2.614 2.456-2.69 0-.038.07-.115-.013-.235-.32-.463-1.777-2.04-2.37-2.662-.187-.195-.265-.328-.45-.23zM128.773.033c-.185.098-.083.174.112.386.38.415 2.116 2.38 2.21 2.513.087.124.106.12 0 .256-.106.135-2.302 2.535-2.302 2.535s-.215.18-.044.262c.17.08.202.072.4-.136.79-.826 2.454-2.613 2.456-2.69 0-.037.07-.114-.013-.234-.32-.464-1.778-2.04-2.37-2.662-.188-.196-.266-.33-.45-.23zM171.664-.15c-.184.098-.082.174.113.386.38.416 2.116 2.38 2.21 2.514.087.124.106.12 0 .256s-2.302 2.537-2.302 2.537-.215.18-.044.26c.172.082.204.073.403-.135.788-.826 2.453-2.614 2.454-2.69 0-.038.07-.115-.013-.235-.32-.463-1.778-2.04-2.37-2.662-.187-.195-.265-.328-.45-.23z" fill="#FFF" mask="url(#b)"/></g><path stroke="#E1E6EF" fill="#FFF" d="M0 0h241v11.09H0z"/><path d="M17.425 3.254c.3-.31.716-.505 1.178-.505.613 0 1.148.34 1.432.847.248-.11.522-.172.81-.172 1.106 0 2.002.903 2.002 2.016 0 1.115-.896 2.018-2.002 2.018-.135 0-.267-.014-.394-.04-.25.447-.728.75-1.277.75-.23 0-.447-.054-.64-.148-.254.597-.847 1.015-1.537 1.015-.72 0-1.332-.454-1.567-1.09-.104.02-.21.032-.32.032-.856 0-1.55-.7-1.55-1.563 0-.58.312-1.084.775-1.354-.095-.22-.148-.46-.148-.715 0-.994.808-1.8 1.804-1.8.586 0 1.105.28 1.435.71" fill="#1AA2DD"/><path d="M0 .188h10.732v229.995H0z" fill="#16325C"/><g stroke="#E0E5EE" fill="#FFF"><path d="M21.533 54.015c-2.21 0-4 1.784-4 3.99v16.02c0 2.203 1.797 3.99 4 3.99h32c2.21 0 4-1.785 4-3.99v-16.02c0-2.204-1.796-3.99-4-3.99h-32zM65.533 54.015c-2.21 0-4 1.784-4 3.99v16.02c0 2.203 1.797 3.99 4 3.99h32c2.21 0 4-1.785 4-3.99v-16.02c0-2.204-1.796-3.99-4-3.99h-32zM109.533 54.015c-2.21 0-4 1.784-4 3.99v16.02c0 2.203 1.797 3.99 4 3.99h32c2.21 0 4-1.785 4-3.99v-16.02c0-2.204-1.796-3.99-4-3.99h-32zM153.533 54.015c-2.21 0-4 1.784-4 3.99v16.02c0 2.203 1.797 3.99 4 3.99h32c2.21 0 4-1.785 4-3.99v-16.02c0-2.204-1.796-3.99-4-3.99h-32zM197.533 54.015c-2.21 0-4 1.784-4 3.99v16.02c0 2.203 1.797 3.99 4 3.99h32c2.21 0 4-1.785 4-3.99v-16.02c0-2.204-1.796-3.99-4-3.99h-32zM21.533 82.015c-2.21 0-4 1.784-4 3.99v16.02c0 2.203 1.797 3.99 4 3.99h32c2.21 0 4-1.785 4-3.99v-16.02c0-2.204-1.796-3.99-4-3.99h-32zM65.533 82.015c-2.21 0-4 1.784-4 3.99v16.02c0 2.203 1.797 3.99 4 3.99h32c2.21 0 4-1.785 4-3.99v-16.02c0-2.204-1.796-3.99-4-3.99h-32zM109.533 82.015c-2.21 0-4 1.784-4 3.99v16.02c0 2.203 1.797 3.99 4 3.99h32c2.21 0 4-1.785 4-3.99v-16.02c0-2.204-1.796-3.99-4-3.99h-32zM153.533 82.015c-2.21 0-4 1.784-4 3.99v16.02c0 2.203 1.797 3.99 4 3.99h32c2.21 0 4-1.785 4-3.99v-16.02c0-2.204-1.796-3.99-4-3.99h-32zM197.533 82.015c-2.21 0-4 1.784-4 3.99v16.02c0 2.203 1.797 3.99 4 3.99h32c2.21 0 4-1.785 4-3.99v-16.02c0-2.204-1.796-3.99-4-3.99h-32zM21.533 110.015c-2.21 0-4 1.784-4 3.99v16.02c0 2.203 1.797 3.99 4 3.99h32c2.21 0 4-1.785 4-3.99v-16.02c0-2.204-1.796-3.99-4-3.99h-32zM65.533 110.015c-2.21 0-4 1.784-4 3.99v16.02c0 2.203 1.797 3.99 4 3.99h32c2.21 0 4-1.785 4-3.99v-16.02c0-2.204-1.796-3.99-4-3.99h-32zM109.533 110.015c-2.21 0-4 1.784-4 3.99v16.02c0 2.203 1.797 3.99 4 3.99h32c2.21 0 4-1.785 4-3.99v-16.02c0-2.204-1.796-3.99-4-3.99h-32zM197.533 110.015c-2.21 0-4 1.784-4 3.99v16.02c0 2.203 1.797 3.99 4 3.99h32c2.21 0 4-1.785 4-3.99v-16.02c0-2.204-1.796-3.99-4-3.99h-32zM21.533 138.015c-2.21 0-4 1.784-4 3.99v16.02c0 2.203 1.797 3.99 4 3.99h32c2.21 0 4-1.785 4-3.99v-16.02c0-2.204-1.796-3.99-4-3.99h-32zM109.533 138.015c-2.21 0-4 1.784-4 3.99v16.02c0 2.203 1.797 3.99 4 3.99h32c2.21 0 4-1.785 4-3.99v-16.02c0-2.204-1.796-3.99-4-3.99h-32zM197.533 138.015c-2.21 0-4 1.784-4 3.99v16.02c0 2.203 1.797 3.99 4 3.99h32c2.21 0 4-1.785 4-3.99v-16.02c0-2.204-1.796-3.99-4-3.99h-32zM21.533 166.015c-2.21 0-4 1.784-4 3.99v16.02c0 2.203 1.797 3.99 4 3.99h32c2.21 0 4-1.785 4-3.99v-16.02c0-2.204-1.796-3.99-4-3.99h-32zM197.533 166.015c-2.21 0-4 1.784-4 3.99v16.02c0 2.203 1.797 3.99 4 3.99h32c2.21 0 4-1.785 4-3.99v-16.02c0-2.204-1.796-3.99-4-3.99h-32z"/></g></g></svg>