<svg width="241" height="231" xmlns="http://www.w3.org/2000/svg"><g fill="none" fill-rule="evenodd"><path stroke="#E1E6EF" fill="#FFF" d="M0 9.774h241v220.49H0z"/><path stroke="#E0E5EE" fill="#F7F9FB" d="M10.318 10.3H241v47.08H10.318z"/><path stroke="#E1E6EF" fill="#FFF" d="M0 0h241v11.09H0z"/><path d="M17.425 3.254c.3-.31.716-.505 1.178-.505.613 0 1.148.34 1.432.844.248-.11.522-.172.81-.172 1.106 0 2.002.903 2.002 2.016 0 1.114-.896 2.017-2.002 2.017-.135 0-.267-.014-.394-.04-.25.447-.725.75-1.274.75-.23 0-.447-.054-.64-.148-.254.596-.847 1.014-1.537 1.014-.72 0-1.333-.453-1.568-1.09-.103.02-.21.033-.32.033-.855 0-1.55-.7-1.55-1.563 0-.58.313-1.084.776-1.354-.095-.22-.148-.46-.148-.716 0-.994.808-1.8 1.804-1.8.587 0 1.106.28 1.436.71" fill="#1AA2DD"/><path d="M0 .188h10.732v229.995H0z" fill="#16325C"/><path d="M163.983 57v172.897" stroke="#E1E6EF" stroke-linecap="square"/><path d="M19.53 76.015c-2.208 0-3.997 1.794-3.997 4.004v20.68c0 2.21 1.784 4.003 3.996 4.003h135.1c2.204 0 3.993-1.795 3.993-4.005V80.02c0-2.213-1.783-4.005-3.995-4.005H19.53zm0 33.84c-2.208 0-3.997 1.784-3.997 3.99v31.745c0 2.205 1.784 3.99 3.996 3.99h135.1c2.204 0 3.993-1.783 3.993-3.99v-31.744c0-2.204-1.783-3.99-3.995-3.99H19.53zm0 44.875c-2.208 0-3.997 1.788-3.997 3.996v50.128c0 2.206 1.784 3.995 3.996 3.995h135.1c2.204 0 3.993-1.79 3.993-4v-50.127c0-2.206-1.783-3.995-3.995-3.995H19.53z" stroke="#E0E5EE" fill="#FFF"/></g></svg>