<svg width="241" height="231" xmlns="http://www.w3.org/2000/svg"><g fill="none" fill-rule="evenodd"><path stroke="#E1E6EF" fill="#FFF" d="M0 9.774h241v220.49H0z"/><g transform="translate(18 40)" fill="#E1E6EF"><rect x=".108" y=".982" width="57.225" height="1.081" rx="4"/><rect x=".108" y="6.027" width="21.892" height="1.081" rx="4"/><rect x=".108" y="8.91" width="46.644" height="1.081" rx="4"/><rect x=".108" y="11.793" width="51.569" height="1.081" rx="4"/></g><g transform="translate(18 64)" fill="#E1E6EF"><rect x=".108" y=".982" width="57.225" height="1.081" rx="4"/><rect x=".108" y="6.027" width="21.892" height="1.081" rx="4"/><rect x=".108" y="8.91" width="46.644" height="1.081" rx="4"/><rect x=".108" y="11.793" width="51.569" height="1.081" rx="4"/></g><g transform="translate(18 88)" fill="#E1E6EF"><rect x=".108" y=".982" width="57.225" height="1.081" rx="4"/><rect x=".108" y="6.027" width="21.892" height="1.081" rx="4"/><rect x=".108" y="8.91" width="46.644" height="1.081" rx="4"/><rect x=".108" y="11.793" width="51.569" height="1.081" rx="4"/></g><g transform="translate(18 112)" fill="#E1E6EF"><rect x=".108" y=".982" width="57.225" height="1.081" rx="4"/><rect x=".108" y="6.027" width="21.892" height="1.081" rx="4"/><rect x=".108" y="8.91" width="46.644" height="1.081" rx="4"/><rect x=".108" y="11.793" width="51.569" height="1.081" rx="4"/></g><g transform="translate(18 136)" fill="#E1E6EF"><rect x=".108" y=".982" width="57.225" height="1.081" rx="4"/><rect x=".108" y="6.027" width="21.892" height="1.081" rx="4"/><rect x=".108" y="8.91" width="46.644" height="1.081" rx="4"/><rect x=".108" y="11.793" width="51.569" height="1.081" rx="4"/></g><g transform="translate(18 160)" fill="#E1E6EF"><rect x=".108" y=".982" width="57.225" height="1.081" rx="4"/><rect x=".108" y="6.027" width="21.892" height="1.081" rx="4"/><rect x=".108" y="8.91" width="46.644" height="1.081" rx="4"/><rect x=".108" y="11.793" width="51.569" height="1.081" rx="4"/></g><path stroke="#E0E5EE" fill="#F7F9FB" d="M10.318 10.3H241V36H10.318z"/><path stroke="#E1E6EF" fill="#FFF" d="M0 0h241v11.09H0z"/><path d="M17.425 3.254c.3-.31.716-.505 1.178-.505.613 0 1.148.34 1.432.844.248-.11.522-.172.81-.172 1.106 0 2.002.903 2.002 2.016 0 1.114-.896 2.017-2.002 2.017-.135 0-.267-.014-.394-.04-.25.447-.725.75-1.274.75-.23 0-.447-.054-.64-.148-.254.596-.847 1.014-1.537 1.014-.72 0-1.333-.453-1.568-1.09-.103.02-.21.033-.32.033-.855 0-1.55-.7-1.55-1.563 0-.58.313-1.084.776-1.354-.095-.22-.148-.46-.148-.716 0-.994.808-1.8 1.804-1.8.587 0 1.106.28 1.436.71" fill="#1AA2DD"/><path d="M0 .188h10.732v229.995H0z" fill="#16325C"/><path d="M83.983 35.494v194.403M11.24 58.5h72.694" stroke="#E1E6EF" stroke-linecap="square"/><path d="M94.993 42C92.788 42 91 43.787 91 46.007v8.986C91 57.206 92.782 59 94.993 59h135.014c2.205 0 3.993-1.787 3.993-4.007v-8.986c0-2.213-1.782-4.007-3.993-4.007H94.993zm0 23C92.788 65 91 66.788 91 69.005v149.99c0 2.212 1.782 4.005 3.993 4.005h135.014c2.205 0 3.993-1.788 3.993-4.005V69.005c0-2.212-1.782-4.005-3.993-4.005H94.993z" stroke="#E0E5EE" fill="#FFF"/><path d="M11.24 82.5h72.694m-72.694 24h72.694m-72.694 24h72.694m-72.694 24h72.694m-72.694 24h72.694" stroke="#E1E6EF" stroke-linecap="square"/></g></svg>