<?xml version="1.0" encoding="UTF-8" standalone="no"?>
<svg width="241px" height="231px" viewBox="0 0 241 231" version="1.1" xmlns="http://www.w3.org/2000/svg" xmlns:xlink="http://www.w3.org/1999/xlink" xmlns:sketch="http://www.bohemiancoding.com/sketch/ns">
    <!-- Generator: Sketch 3.3.3 (12081) - http://www.bohemiancoding.com/sketch -->
    <title>record copy 4</title>
    <desc>Created with Sketch.</desc>
    <defs>
        <path id="path-1" d="M212.296231,5.66854991 C213.789481,5.66854991 215,4.44086867 215,2.92570318 L215,2.92570318 C215,1.41087076 213.790875,0.182856449 212.296231,0.182856449 L2.70376922,0.182856449 C1.21051871,0.182856449 0,1.41053769 0,2.92570318 L0,2.92570318 C0,4.4405356 1.20912516,5.66854991 2.70376922,5.66854991 L212.296231,5.66854991 L212.296231,5.66854991 Z"></path>
    </defs>
    <g id="Page-1" stroke="none" stroke-width="1" fill="none" fill-rule="evenodd" sketch:type="MSPage">
        <g id="layouts" sketch:type="MSArtboardGroup" transform="translate(-838.000000, -2572.000000)">
            <g id="record-copy-4" sketch:type="MSLayerGroup" transform="translate(838.000000, 2572.000000)">
                <rect id="bkgd" stroke="#E1E6EF" fill="#FFFFFF" sketch:type="MSShapeGroup" x="0" y="9.77379984" width="241" height="220.490531"></rect>
                <rect id="Rectangle-553" stroke="#E0E5EE" fill="#F7F9FB" sketch:type="MSShapeGroup" x="10.3180428" y="10.2993631" width="230.681957" height="25.7006369"></rect>
                <g id="Stages" transform="translate(18.000000, 42.143126)">
                    <g id="Stage-Bar">
                        <mask id="mask-2" sketch:name="Rectangle 45" fill="white">
                            <use xlink:href="#path-1"></use>
                        </mask>
                        <use id="Rectangle-45" fill="#D3DCE7" sketch:type="MSShapeGroup" xlink:href="#path-1"></use>
                        <path d="M42.9887897,-0.149762079 C42.8041337,-0.0516935296 42.9066445,0.0243157131 43.1011261,0.236454283 C43.4821906,0.652115591 45.2177603,2.61740854 45.3113519,2.75049665 C45.3982266,2.87403324 45.4171355,2.86978752 45.3113519,3.00594931 C45.2055683,3.1421111 43.009168,5.54250663 43.009168,5.54250663 C43.009168,5.54250663 42.7947329,5.72345372 42.9657063,5.80408774 C43.1366796,5.88472176 43.1685352,5.87628313 43.3670425,5.66813561 C44.1552605,4.84163896 45.8207097,3.0536588 45.8218494,2.97719969 C45.8224024,2.9400954 45.8915568,2.86291815 45.8088175,2.74305031 C45.4888985,2.2795702 44.0308462,0.703902532 43.4383946,0.08147352 C43.2511239,-0.115272984 43.1734457,-0.247830628 42.9887897,-0.149762079 Z" id="Rectangle-9" fill="#FFFFFF" sketch:type="MSShapeGroup" mask="url(#mask-2)"></path>
                        <path d="M85.8806589,-0.149762079 C85.6960029,-0.0516935296 85.7985137,0.0243157131 85.9929953,0.236454283 C86.3740598,0.652115591 88.1096295,2.61740854 88.2032212,2.75049665 C88.2900959,2.87403324 88.3090047,2.86978752 88.2032211,3.00594931 C88.0974375,3.1421111 85.9010373,5.54250663 85.9010373,5.54250663 C85.9010373,5.54250663 85.6866022,5.72345372 85.8575755,5.80408774 C86.0285488,5.88472176 86.0604045,5.87628313 86.2589118,5.66813561 C87.0471297,4.84163896 88.7125789,3.0536588 88.7137186,2.97719969 C88.7142717,2.9400954 88.783426,2.86291815 88.7006868,2.74305031 C88.3807678,2.2795702 86.9227154,0.703902532 86.3302639,0.08147352 C86.1429931,-0.115272984 86.0653149,-0.247830628 85.8806589,-0.149762079 Z" id="Rectangle-10" fill="#FFFFFF" sketch:type="MSShapeGroup" mask="url(#mask-2)"></path>
                        <path d="M128.772528,0.0330943696 C128.587872,0.131162919 128.690383,0.207172162 128.884865,0.419310731 C129.265929,0.834972039 131.001499,2.80026498 131.09509,2.9333531 C131.181965,3.05688969 131.200874,3.05264397 131.09509,3.18880576 C130.989307,3.32496755 128.792906,5.72536308 128.792906,5.72536308 C128.792906,5.72536308 128.578471,5.90631016 128.749445,5.98694419 C128.920418,6.06757821 128.952274,6.05913957 129.150781,5.85099205 C129.938999,5.02449541 131.604448,3.23651525 131.605588,3.16005614 C131.606141,3.12295185 131.675295,3.0457746 131.592556,2.92590675 C131.272637,2.46242665 129.814585,0.886758981 129.222133,0.264329969 C129.034862,0.0675834644 128.957184,-0.0649741798 128.772528,0.0330943696 Z" id="Rectangle-11" fill="#FFFFFF" sketch:type="MSShapeGroup" mask="url(#mask-2)"></path>
                        <path d="M171.664397,-0.149762079 C171.479741,-0.0516935296 171.582252,0.0243157131 171.776734,0.236454283 C172.157798,0.652115591 173.893368,2.61740854 173.98696,2.75049665 C174.073834,2.87403324 174.092743,2.86978752 173.98696,3.00594931 C173.881176,3.1421111 171.684776,5.54250663 171.684776,5.54250663 C171.684776,5.54250663 171.470341,5.72345372 171.641314,5.80408774 C171.812287,5.88472176 171.844143,5.87628313 172.04265,5.66813561 C172.830868,4.84163896 174.496317,3.0536588 174.497457,2.97719969 C174.49801,2.9400954 174.567164,2.86291815 174.484425,2.74305031 C174.164506,2.2795702 172.706454,0.703902532 172.114002,0.08147352 C171.926732,-0.115272984 171.849053,-0.247830628 171.664397,-0.149762079 Z" id="Rectangle-12" fill="#FFFFFF" sketch:type="MSShapeGroup" mask="url(#mask-2)"></path>
                    </g>
                </g>
                <g id="Component---Top-Bar-Copy-12" sketch:type="MSShapeGroup">
                    <rect id="Background" stroke="#E1E6EF" fill="#FFFFFF" x="0" y="0" width="241" height="11.0895037"></rect>
                    <path d="M17.4249624,3.2540634 C17.724487,2.94258665 18.1414386,2.74932182 18.6026298,2.74932182 C19.2156048,2.74932182 19.7505047,3.0905399 20.0352587,3.59716498 C20.2828709,3.48673819 20.5568077,3.42528234 20.8450477,3.42528234 C21.9507134,3.42528234 22.8470948,4.32794426 22.8470948,5.44146827 C22.8470948,6.55501022 21.9507134,7.45765421 20.8450477,7.45765421 C20.7100469,7.45765421 20.5781727,7.4441289 20.4506471,7.41844157 C20.1998903,7.86499204 19.7218262,8.16672842 19.1732879,8.16672842 C18.9436806,8.16672842 18.7264359,8.11382903 18.5330001,8.01961825 C18.2787933,8.61670505 17.6863029,9.03534387 16.9959896,9.03534387 C16.2769618,9.03534387 15.6641306,8.58122354 15.4290247,7.94427834 C15.3261884,7.96596547 15.2196505,7.97739202 15.1104172,7.97739202 C14.2543582,7.97739202 13.5604151,7.27741242 13.5604151,6.41392725 C13.5604151,5.83522698 13.8721405,5.32998313 14.335488,5.05963839 C14.2400729,4.84047097 14.1871183,4.59870158 14.1871183,4.34453698 C14.1871183,3.35141334 14.9946432,2.54633455 15.9908062,2.54633455 C16.5756597,2.54633455 17.0953938,2.82390834 17.4249624,3.2540634" id="Fill-1-Copy" fill="#1AA2DD"></path>
                </g>
                <g id="Component---Left-Bar---Expanded-Copy-16" transform="translate(0.000000, 0.187958)" fill="#16325C" sketch:type="MSShapeGroup">
                    <rect id="BG" x="0" y="0" width="10.7320313" height="229.994584"></rect>
                </g>
                <g id="Wide---With-Pic-Copy" transform="translate(17.533203, 54.014519)" stroke="#E0E5EE" fill="#FFFFFF" sketch:type="MSShapeGroup">
                    <path d="M4.00002553,3.1496102e-15 C1.79087243,3.1496102e-15 0,1.78429328 0,3.99005301 L0,20.009947 C0,22.2135924 1.79642476,24 4.00002553,24 L35.9999745,24 C38.2091276,24 40,22.2157067 40,20.009947 L40,3.99005301 C40,1.78640758 38.2035752,3.1496102e-15 35.9999745,3.1496102e-15 L4.00002553,3.1496102e-15 Z" id="Rectangle-19"></path>
                    <path d="M48.0000255,3.1496102e-15 C45.7908724,3.1496102e-15 44,1.78429328 44,3.99005301 L44,20.009947 C44,22.2135924 45.7964248,24 48.0000255,24 L79.9999745,24 C82.2091276,24 84,22.2157067 84,20.009947 L84,3.99005301 C84,1.78640758 82.2035752,3.1496102e-15 79.9999745,3.1496102e-15 L48.0000255,3.1496102e-15 Z" id="Rectangle-19-Copy"></path>
                    <path d="M92.0000255,3.1496102e-15 C89.7908724,3.1496102e-15 88,1.78429328 88,3.99005301 L88,20.009947 C88,22.2135924 89.7964248,24 92.0000255,24 L123.999974,24 C126.209128,24 128,22.2157067 128,20.009947 L128,3.99005301 C128,1.78640758 126.203575,3.1496102e-15 123.999974,3.1496102e-15 L92.0000255,3.1496102e-15 Z" id="Rectangle-19-Copy-4"></path>
                    <path d="M136.000026,3.1496102e-15 C133.790872,3.1496102e-15 132,1.78429328 132,3.99005301 L132,20.009947 C132,22.2135924 133.796425,24 136.000026,24 L167.999974,24 C170.209128,24 172,22.2157067 172,20.009947 L172,3.99005301 C172,1.78640758 170.203575,3.1496102e-15 167.999974,3.1496102e-15 L136.000026,3.1496102e-15 Z" id="Rectangle-19-Copy-5"></path>
                    <path d="M180.000026,3.1496102e-15 C177.790872,3.1496102e-15 176,1.78429328 176,3.99005301 L176,20.009947 C176,22.2135924 177.796425,24 180.000026,24 L211.999974,24 C214.209128,24 216,22.2157067 216,20.009947 L216,3.99005301 C216,1.78640758 214.203575,3.1496102e-15 211.999974,3.1496102e-15 L180.000026,3.1496102e-15 Z" id="Rectangle-19-Copy-6"></path>
                    <path d="M4.00002553,28 C1.79087243,28 0,29.7842933 0,31.990053 L0,48.009947 C0,50.2135924 1.79642476,52 4.00002553,52 L35.9999745,52 C38.2091276,52 40,50.2157067 40,48.009947 L40,31.990053 C40,29.7864076 38.2035752,28 35.9999745,28 L4.00002553,28 Z" id="Rectangle-19-Copy-11"></path>
                    <path d="M48.0000255,28 C45.7908724,28 44,29.7842933 44,31.990053 L44,48.009947 C44,50.2135924 45.7964248,52 48.0000255,52 L79.9999745,52 C82.2091276,52 84,50.2157067 84,48.009947 L84,31.990053 C84,29.7864076 82.2035752,28 79.9999745,28 L48.0000255,28 Z" id="Rectangle-19-Copy-7"></path>
                    <path d="M92.0000255,28 C89.7908724,28 88,29.7842933 88,31.990053 L88,48.009947 C88,50.2135924 89.7964248,52 92.0000255,52 L123.999974,52 C126.209128,52 128,50.2157067 128,48.009947 L128,31.990053 C128,29.7864076 126.203575,28 123.999974,28 L92.0000255,28 Z" id="Rectangle-19-Copy-8"></path>
                    <path d="M136.000026,28 C133.790872,28 132,29.7842933 132,31.990053 L132,48.009947 C132,50.2135924 133.796425,52 136.000026,52 L167.999974,52 C170.209128,52 172,50.2157067 172,48.009947 L172,31.990053 C172,29.7864076 170.203575,28 167.999974,28 L136.000026,28 Z" id="Rectangle-19-Copy-9"></path>
                    <path d="M180.000026,28 C177.790872,28 176,29.7842933 176,31.990053 L176,48.009947 C176,50.2135924 177.796425,52 180.000026,52 L211.999974,52 C214.209128,52 216,50.2157067 216,48.009947 L216,31.990053 C216,29.7864076 214.203575,28 211.999974,28 L180.000026,28 Z" id="Rectangle-19-Copy-10"></path>
                    <path d="M4.00002553,56 C1.79087243,56 0,57.7842933 0,59.990053 L0,76.009947 C0,78.2135924 1.79642476,80 4.00002553,80 L35.9999745,80 C38.2091276,80 40,78.2157067 40,76.009947 L40,59.990053 C40,57.7864076 38.2035752,56 35.9999745,56 L4.00002553,56 Z" id="Rectangle-19-Copy-16"></path>
                    <path d="M48.0000255,56 C45.7908724,56 44,57.7842933 44,59.990053 L44,76.009947 C44,78.2135924 45.7964248,80 48.0000255,80 L79.9999745,80 C82.2091276,80 84,78.2157067 84,76.009947 L84,59.990053 C84,57.7864076 82.2035752,56 79.9999745,56 L48.0000255,56 Z" id="Rectangle-19-Copy-12"></path>
                    <path d="M92.0000255,56 C89.7908724,56 88,57.7842933 88,59.990053 L88,76.009947 C88,78.2135924 89.7964248,80 92.0000255,80 L123.999974,80 C126.209128,80 128,78.2157067 128,76.009947 L128,59.990053 C128,57.7864076 126.203575,56 123.999974,56 L92.0000255,56 Z" id="Rectangle-19-Copy-13"></path>
                    <path d="M180.000026,56 C177.790872,56 176,57.7842933 176,59.990053 L176,76.009947 C176,78.2135924 177.796425,80 180.000026,80 L211.999974,80 C214.209128,80 216,78.2157067 216,76.009947 L216,59.990053 C216,57.7864076 214.203575,56 211.999974,56 L180.000026,56 Z" id="Rectangle-19-Copy-15"></path>
                    <path d="M4.00002553,84 C1.79087243,84 0,85.7842933 0,87.990053 L0,104.009947 C0,106.213592 1.79642476,108 4.00002553,108 L35.9999745,108 C38.2091276,108 40,106.215707 40,104.009947 L40,87.990053 C40,85.7864076 38.2035752,84 35.9999745,84 L4.00002553,84 Z" id="Rectangle-19-Copy-21"></path>
                    <path d="M92.0000255,84 C89.7908724,84 88,85.7842933 88,87.990053 L88,104.009947 C88,106.213592 89.7964248,108 92.0000255,108 L123.999974,108 C126.209128,108 128,106.215707 128,104.009947 L128,87.990053 C128,85.7864076 126.203575,84 123.999974,84 L92.0000255,84 Z" id="Rectangle-19-Copy-18"></path>
                    <path d="M180.000026,84 C177.790872,84 176,85.7842933 176,87.990053 L176,104.009947 C176,106.213592 177.796425,108 180.000026,108 L211.999974,108 C214.209128,108 216,106.215707 216,104.009947 L216,87.990053 C216,85.7864076 214.203575,84 211.999974,84 L180.000026,84 Z" id="Rectangle-19-Copy-20"></path>
                    <path d="M4.00002553,112 C1.79087243,112 0,113.784293 0,115.990053 L0,132.009947 C0,134.213592 1.79642476,136 4.00002553,136 L35.9999745,136 C38.2091276,136 40,134.215707 40,132.009947 L40,115.990053 C40,113.786408 38.2035752,112 35.9999745,112 L4.00002553,112 Z" id="Rectangle-19-Copy-26"></path>
                    <path d="M180.000026,112 C177.790872,112 176,113.784293 176,115.990053 L176,132.009947 C176,134.213592 177.796425,136 180.000026,136 L211.999974,136 C214.209128,136 216,134.215707 216,132.009947 L216,115.990053 C216,113.786408 214.203575,112 211.999974,112 L180.000026,112 Z" id="Rectangle-19-Copy-25"></path>
                </g>
            </g>
        </g>
    </g>
</svg>