<svg width="241" height="231" xmlns="http://www.w3.org/2000/svg"><g fill="none" fill-rule="evenodd"><path stroke="#E1E6EF" fill="#FFF" d="M0 9.774h241v220.49H0z"/><g transform="translate(18 47)" fill="#E1E6EF"><rect x=".108" y=".982" width="39.892" height="1.081" rx="4"/><rect x=".108" y="14.982" width="36.892" height="1.081" rx="4"/><rect x=".108" y="28.982" width="50.892" height="1.081" rx="4"/><rect x=".108" y="42.982" width="38.892" height="1.081" rx="4"/><rect x=".108" y="56.982" width="47.892" height="1.081" rx="4"/><rect x=".108" y="70.982" width="51.892" height="1.081" rx="4"/><rect x=".108" y="84.982" width="42.892" height="1.081" rx="4"/><rect x=".108" y="98.982" width="41.892" height="1.081" rx="4"/></g><path stroke="#E0E5EE" fill="#F7F9FB" d="M10.318 10.3H241V36H10.318z"/><path stroke="#E1E6EF" fill="#FFF" d="M0 0h241v11.09H0z"/><path d="M17.425 3.254c.3-.31.716-.505 1.178-.505.613 0 1.148.34 1.432.844.248-.11.522-.172.81-.172 1.106 0 2.002.903 2.002 2.016 0 1.114-.896 2.017-2.002 2.017-.135 0-.267-.014-.394-.04-.25.447-.725.75-1.274.75-.23 0-.447-.054-.64-.148-.254.596-.847 1.014-1.537 1.014-.72 0-1.333-.453-1.568-1.09-.103.02-.21.033-.32.033-.855 0-1.55-.7-1.55-1.563 0-.58.313-1.084.776-1.354-.095-.22-.148-.46-.148-.716 0-.994.808-1.8 1.804-1.8.587 0 1.106.28 1.436.71" fill="#1AA2DD"/><path d="M0 .188h10.732v229.995H0z" fill="#16325C"/><path d="M83.983 35.494v194.403M84.35 48.5h155.674" stroke="#E1E6EF" stroke-linecap="square"/><rect fill="#E1E6EF" x="91.108" y="40.982" width="57.225" height="1.081" rx="4"/><rect fill="#E1E6EF" x="91.108" y="54.982" width="57.225" height="1.081" rx="4"/><rect fill="#E1E6EF" x="91.108" y="68.982" width="57.225" height="1.081" rx="4"/><rect fill="#E1E6EF" x="91.108" y="82.982" width="57.225" height="1.081" rx="4"/><rect fill="#E1E6EF" x="91.108" y="96.982" width="57.225" height="1.081" rx="4"/><rect fill="#E1E6EF" x="91.108" y="110.982" width="57.225" height="1.081" rx="4"/><rect fill="#E1E6EF" x="157.676" y="40.982" width="24.958" height="1.081" rx="4"/><rect fill="#E1E6EF" x="157.676" y="54.982" width="24.958" height="1.081" rx="4"/><rect fill="#E1E6EF" x="157.676" y="68.982" width="24.958" height="1.081" rx="4"/><rect fill="#E1E6EF" x="157.676" y="82.982" width="24.958" height="1.081" rx="4"/><rect fill="#E1E6EF" x="157.676" y="96.982" width="24.958" height="1.081" rx="4"/><rect fill="#E1E6EF" x="157.676" y="110.982" width="24.958" height="1.081" rx="4"/><path d="M84.35 62.5h155.674M84.35 76.5h155.674M84.35 90.5h155.674m-155.674 14h155.674m-155.674 14h155.674" stroke="#E1E6EF" stroke-linecap="square"/></g></svg>