<?xml version="1.0" encoding="UTF-8" standalone="no"?>
<svg width="241px" height="231px" viewBox="0 0 241 231" version="1.1" xmlns="http://www.w3.org/2000/svg" xmlns:xlink="http://www.w3.org/1999/xlink" xmlns:sketch="http://www.bohemiancoding.com/sketch/ns">
    <!-- Generator: Sketch 3.3.3 (12081) - http://www.bohemiancoding.com/sketch -->
    <title>record copy 10 + record copy 12</title>
    <desc>Created with Sketch.</desc>
    <defs></defs>
    <g id="Page-1" stroke="none" stroke-width="1" fill="none" fill-rule="evenodd" sketch:type="MSPage">
        <g id="layouts" sketch:type="MSArtboardGroup" transform="translate(-838.000000, -3913.000000)">
            <g id="record-copy-10-+-record-copy-12" sketch:type="MSLayerGroup" transform="translate(838.000000, 3913.000000)">
                <g id="record-copy-10" sketch:type="MSShapeGroup">
                    <rect id="bkgd" stroke="#E1E6EF" fill="#FFFFFF" x="0" y="9.77379984" width="110" height="220.490531"></rect>
                    <g id="Group-Copy-16" transform="translate(18.000000, 40.000000)" fill="#E1E6EF">
                        <rect id="Rectangle-232-Copy-14" x="0.107970027" y="0.981948229" width="79.89203" height="1.08106267" rx="4"></rect>
                        <rect id="Rectangle-232-Copy-15" x="0.107970027" y="6.02690736" width="21.89203" height="1.08106267" rx="4"></rect>
                        <rect id="Rectangle-232-Copy-16" x="0.107970027" y="8.90974114" width="46.6441205" height="1.08106267" rx="4"></rect>
                        <rect id="Rectangle-232-Copy-17" x="0.107970027" y="11.7925749" width="51.5692761" height="1.08106267" rx="4"></rect>
                    </g>
                    <g id="Group-Copy-17" transform="translate(18.000000, 64.000000)" fill="#E1E6EF">
                        <rect id="Rectangle-232-Copy-14" x="0.107970027" y="0.981948229" width="83.89203" height="1.08106267" rx="4"></rect>
                        <rect id="Rectangle-232-Copy-15" x="0.107970027" y="6.02690736" width="21.89203" height="1.08106267" rx="4"></rect>
                        <rect id="Rectangle-232-Copy-16" x="0.107970027" y="8.90974114" width="46.6441205" height="1.08106267" rx="4"></rect>
                        <rect id="Rectangle-232-Copy-17" x="0.107970027" y="11.7925749" width="51.5692761" height="1.08106267" rx="4"></rect>
                    </g>
                    <g id="Group-Copy-18" transform="translate(18.000000, 88.000000)" fill="#E1E6EF">
                        <rect id="Rectangle-232-Copy-14" x="0.107970027" y="0.981948229" width="83.89203" height="1.08106267" rx="4"></rect>
                        <rect id="Rectangle-232-Copy-15" x="0.107970027" y="6.02690736" width="21.89203" height="1.08106267" rx="4"></rect>
                        <rect id="Rectangle-232-Copy-16" x="0.107970027" y="8.90974114" width="46.6441205" height="1.08106267" rx="4"></rect>
                        <rect id="Rectangle-232-Copy-17" x="0.107970027" y="11.7925749" width="51.5692761" height="1.08106267" rx="4"></rect>
                    </g>
                    <g id="Group-Copy-19" transform="translate(18.000000, 112.000000)" fill="#E1E6EF">
                        <rect id="Rectangle-232-Copy-14" x="0.107970027" y="0.981948229" width="82.89203" height="1.08106267" rx="4"></rect>
                        <rect id="Rectangle-232-Copy-15" x="0.107970027" y="6.02690736" width="21.89203" height="1.08106267" rx="4"></rect>
                        <rect id="Rectangle-232-Copy-16" x="0.107970027" y="8.90974114" width="46.6441205" height="1.08106267" rx="4"></rect>
                        <rect id="Rectangle-232-Copy-17" x="0.107970027" y="11.7925749" width="51.5692761" height="1.08106267" rx="4"></rect>
                    </g>
                    <g id="Group-Copy-20" transform="translate(18.000000, 136.000000)" fill="#E1E6EF">
                        <rect id="Rectangle-232-Copy-14" x="0.107970027" y="0.981948229" width="79.89203" height="1.08106267" rx="4"></rect>
                        <rect id="Rectangle-232-Copy-15" x="0.107970027" y="6.02690736" width="21.89203" height="1.08106267" rx="4"></rect>
                        <rect id="Rectangle-232-Copy-16" x="0.107970027" y="8.90974114" width="46.6441205" height="1.08106267" rx="4"></rect>
                        <rect id="Rectangle-232-Copy-17" x="0.107970027" y="11.7925749" width="51.5692761" height="1.08106267" rx="4"></rect>
                    </g>
                    <g id="Group-Copy-21" transform="translate(18.000000, 160.000000)" fill="#E1E6EF">
                        <rect id="Rectangle-232-Copy-14" x="0.107970027" y="0.981948229" width="81.89203" height="1.08106267" rx="4"></rect>
                        <rect id="Rectangle-232-Copy-15" x="0.107970027" y="6.02690736" width="21.89203" height="1.08106267" rx="4"></rect>
                        <rect id="Rectangle-232-Copy-16" x="0.107970027" y="8.90974114" width="46.6441205" height="1.08106267" rx="4"></rect>
                        <rect id="Rectangle-232-Copy-17" x="0.107970027" y="11.7925749" width="51.5692761" height="1.08106267" rx="4"></rect>
                    </g>
                    <rect id="Rectangle-553" stroke="#E0E5EE" fill="#F7F9FB" x="10.3180428" y="10.2993631" width="99.6819572" height="25.7006369"></rect>
                    <g id="Component---Top-Bar-Copy-12">
                        <rect id="Background" stroke="#E1E6EF" fill="#FFFFFF" x="0" y="0" width="110" height="11.0895037"></rect>
                        <path d="M15.9728822,3.2540634 C16.2474464,2.94258665 16.629652,2.74932182 17.0524107,2.74932182 C17.6143044,2.74932182 18.1046293,3.0905399 18.3656538,3.59716498 C18.5926317,3.48673819 18.8437403,3.42528234 19.1079604,3.42528234 C20.1214873,3.42528234 20.9431702,4.32794426 20.9431702,5.44146827 C20.9431702,6.55501022 20.1214873,7.45765421 19.1079604,7.45765421 C18.9842097,7.45765421 18.863325,7.4441289 18.7464265,7.41844157 C18.5165661,7.86499204 18.0783407,8.16672842 17.5755139,8.16672842 C17.3650405,8.16672842 17.1658996,8.11382903 16.9885834,8.01961825 C16.7555605,8.61670505 16.2124443,9.03534387 15.5796571,9.03534387 C14.9205483,9.03534387 14.3587863,8.58122354 14.1432727,7.94427834 C14.049006,7.96596547 13.9513463,7.97739202 13.8512158,7.97739202 C13.066495,7.97739202 12.4303805,7.27741242 12.4303805,6.41392725 C12.4303805,5.83522698 12.7161288,5.32998313 13.140864,5.05963839 C13.0534001,4.84047097 13.0048585,4.59870158 13.0048585,4.34453698 C13.0048585,3.35141334 13.7450896,2.54633455 14.658239,2.54633455 C15.1943548,2.54633455 15.6707777,2.82390834 15.9728822,3.2540634" id="Fill-1-Copy" fill="#1AA2DD"></path>
                    </g>
                    <g id="Component---Left-Bar---Expanded-Copy-16" transform="translate(0.000000, 0.187958)" fill="#16325C">
                        <rect id="BG" x="0" y="0" width="10.7320313" height="229.994584"></rect>
                    </g>
                    <path d="M11.3221731,58.5 L109.366594,58.5" id="Line" stroke="#E1E6EF" stroke-linecap="square"></path>
                    <path d="M11.3221731,82.5 L109.366594,82.5" id="Line-Copy-19" stroke="#E1E6EF" stroke-linecap="square"></path>
                    <path d="M11.3221731,106.5 L109.366594,106.5" id="Line-Copy-20" stroke="#E1E6EF" stroke-linecap="square"></path>
                    <path d="M11.3221731,130.5 L109.366594,130.5" id="Line-Copy-21" stroke="#E1E6EF" stroke-linecap="square"></path>
                    <path d="M11.3221731,154.5 L109.366594,154.5" id="Line-Copy-22" stroke="#E1E6EF" stroke-linecap="square"></path>
                    <path d="M11.3221731,178.5 L109.366594,178.5" id="Line-Copy-23" stroke="#E1E6EF" stroke-linecap="square"></path>
                </g>
                <g id="record-copy-12" transform="translate(131.000000, 0.000000)" sketch:type="MSShapeGroup">
                    <rect id="bkgd" stroke="#E1E6EF" fill="#FFFFFF" x="0" y="9.77379984" width="110" height="220.490531"></rect>
                    <path d="M22.9935091,42 C20.7879549,42 19,43.787167 19,46.0072357 L19,54.9927643 C19,57.2058994 20.7937825,59 22.9935091,59 L97.2281706,59 C99.4337248,59 101.22168,57.212833 101.22168,54.9927643 L101.22168,46.0072357 C101.22168,43.7941006 99.4278972,42 97.2281706,42 L22.9935091,42 Z" id="Rectangle-19-Copy-24" stroke="#E0E5EE" fill="#FFFFFF"></path>
                    <path d="M22.9935091,65 C20.7879549,65 19,66.788 19,69.004532 L19,218.995468 C19,221.20711 20.7937825,223 22.9935091,223 L97.2281706,223 C99.4337248,223 101.22168,221.212 101.22168,218.995468 L101.22168,69.004532 C101.22168,66.7928901 99.4278972,65 97.2281706,65 L22.9935091,65 Z" id="Rectangle-19-Copy-23" stroke="#E0E5EE" fill="#FFFFFF"></path>
                    <rect id="Rectangle-553" stroke="#E0E5EE" fill="#F7F9FB" x="10.3180428" y="10.2993631" width="99.6819572" height="25.7006369"></rect>
                    <g id="Component---Top-Bar-Copy-12">
                        <rect id="Background" stroke="#E1E6EF" fill="#FFFFFF" x="0" y="0" width="110" height="11.0895037"></rect>
                        <path d="M15.9728822,3.2540634 C16.2474464,2.94258665 16.629652,2.74932182 17.0524107,2.74932182 C17.6143044,2.74932182 18.1046293,3.0905399 18.3656538,3.59716498 C18.5926317,3.48673819 18.8437403,3.42528234 19.1079604,3.42528234 C20.1214873,3.42528234 20.9431702,4.32794426 20.9431702,5.44146827 C20.9431702,6.55501022 20.1214873,7.45765421 19.1079604,7.45765421 C18.9842097,7.45765421 18.863325,7.4441289 18.7464265,7.41844157 C18.5165661,7.86499204 18.0783407,8.16672842 17.5755139,8.16672842 C17.3650405,8.16672842 17.1658996,8.11382903 16.9885834,8.01961825 C16.7555605,8.61670505 16.2124443,9.03534387 15.5796571,9.03534387 C14.9205483,9.03534387 14.3587863,8.58122354 14.1432727,7.94427834 C14.049006,7.96596547 13.9513463,7.97739202 13.8512158,7.97739202 C13.066495,7.97739202 12.4303805,7.27741242 12.4303805,6.41392725 C12.4303805,5.83522698 12.7161288,5.32998313 13.140864,5.05963839 C13.0534001,4.84047097 13.0048585,4.59870158 13.0048585,4.34453698 C13.0048585,3.35141334 13.7450896,2.54633455 14.658239,2.54633455 C15.1943548,2.54633455 15.6707777,2.82390834 15.9728822,3.2540634" id="Fill-1-Copy" fill="#1AA2DD"></path>
                    </g>
                    <g id="Component---Left-Bar---Expanded-Copy-16" transform="translate(0.000000, 0.187958)" fill="#16325C">
                        <rect id="BG" x="0" y="0" width="10.7320313" height="229.994584"></rect>
                    </g>
                </g>
            </g>
        </g>
    </g>
</svg>