<?xml version="1.0" encoding="UTF-8" standalone="no"?>
<svg width="125px" height="146px" viewBox="0 0 125 146" version="1.1" xmlns="http://www.w3.org/2000/svg" xmlns:xlink="http://www.w3.org/1999/xlink">
    <!-- Generator: Sketch 40.1 (33804) - http://www.bohemiancoding.com/sketch -->
    <title>astro--lightning</title>
    <desc>Created with Sketch.</desc>
    <defs>
        <filter x="-50%" y="-50%" width="200%" height="200%" filterUnits="objectBoundingBox" id="filter-1">
            <feOffset dx="2" dy="2" in="SourceAlpha" result="shadowOffsetOuter1"></feOffset>
            <feGaussianBlur stdDeviation="5" in="shadowOffsetOuter1" result="shadowBlurOuter1"></feGaussianBlur>
            <feColorMatrix values="0 0 0 0 0   0 0 0 0 0   0 0 0 0 0  0 0 0 0.3 0" type="matrix" in="shadowBlurOuter1" result="shadowMatrixOuter1"></feColorMatrix>
            <feMerge>
                <feMergeNode in="shadowMatrixOuter1"></feMergeNode>
                <feMergeNode in="SourceGraphic"></feMergeNode>
            </feMerge>
        </filter>
        <polygon id="path-2" points="17.5259138 0 0.344095622 0 0.344095622 23.0988222 17.5259138 23.0988222 17.5259138 2.30531643e-14"></polygon>
        <path d="M9.17794302,2.40394064 C0.770475492,4.46172953 0.0350858819,8.99502953 0.0350858819,8.99502953 L4.96284562,22.5284184 C2.45148199,30.5786962 8.81511835,39.3987184 8.81511835,39.3987184 C27.2461248,50.3462851 42.6341119,38.5567851 43.1673911,37.8000184 C43.7323261,37.0018851 44.4993716,31.0345406 44.4993716,31.0345406 C45.5959625,25.6455184 45.3897937,20.8559073 45.3897937,20.8559073 L48.2079755,15.2146295 L49.2298911,11.7236073 C49.2298911,11.7236073 48.0610599,6.47734064 43.0018067,3.81202953 C38.0383326,1.19862953 31.8849235,0.359940638 26.0724235,0.359940638 C19.013982,0.361562861 12.4628456,1.59931842 9.17794302,2.40394064 L9.17794302,2.40394064 Z" id="path-4"></path>
        <path d="M4.37817969,26.7790319 C4.35527616,25.3729155 4.52284668,23.9388528 4.96284562,22.5284184 L0.0350858819,8.99502953 C0.0350858819,8.99502953 0.770475492,4.46172953 9.17794302,2.40394064 C12.4628456,1.59931842 19.013982,0.361562861 26.0724235,0.359940638 C31.8849235,0.359940638 38.0383326,1.19862953 43.0018067,3.81202953 C48.0610599,6.47734064 49.2298911,11.7236073 49.2298911,11.7236073 L48.2079755,15.2146295 L45.3897937,20.8559073 C45.3897937,20.8559073 45.4974746,23.3574963 45.1432728,26.7790319 L4.37817969,26.7790319 L4.37817969,26.7790319 Z" id="path-6"></path>
    </defs>
    <g id="home-v1.5-DF16" stroke="none" stroke-width="1" fill="none" fill-rule="evenodd">
        <g id="astro--lightning">
            <g id="Page-1" filter="url(#filter-1)">
                <polygon id="Fill-1" fill="#414143" points="97.8362825 106.13543 97.8760552 106.266019 99.0603084 105.731497 99.0359578 105.593608"></polygon>
                <polygon id="Fill-2" fill="#414143" points="97.9670455 106.56102 98.0084416 106.69242 99.1561688 106.174931 99.1253247 106.039476"></polygon>
                <polygon id="Fill-3" fill="#414143" points="98.1 106.98223 98.1430195 107.11363 99.2655844 106.606686 99.2298701 106.474474"></polygon>
                <polygon id="Fill-4" fill="#414143" points="98.2358766 107.39468 98.2780844 107.52608 99.3852273 107.027247 99.3462662 106.894224"></polygon>
                <polygon id="Fill-5" fill="#414143" points="98.3746753 107.80859 98.4176948 107.938368 99.5126623 107.444401 99.4728896 107.314623"></polygon>
                <polygon id="Fill-6" fill="#414143" points="98.531737 108.26338 98.5771916 108.393969 99.6681006 107.900002 99.6210227 107.771847"></polygon>
                <polygon id="Fill-7" fill="#414143" points="98.6866071 108.70065 98.7328734 108.828806 99.8245942 108.334839 99.7783279 108.208306"></polygon>
                <polygon id="Fill-8" fill="#414143" points="98.8400162 109.1204 98.8870942 109.248556 99.9877435 108.752967 99.9382305 108.626433"></polygon>
                <polygon id="Fill-9" fill="#414143" points="99.019724 109.6022 99.069237 109.730356 100.180438 109.228278 100.127679 109.102556"></polygon>
                <polygon id="Fill-10" fill="#414143" points="99.2125812 110.09933 99.2620942 110.226674 100.387906 109.71973 100.334334 109.594008"></polygon>
                <polygon id="Fill-11" fill="#414143" points="99.4105519 110.59354 99.4616883 110.720884 100.606169 110.204207 100.550162 110.080107"></polygon>
                <polygon id="Fill-12" fill="#414143" points="99.620211 111.10819 99.6745942 111.233912 100.841802 110.707501 100.781737 110.585023"></polygon>
                <polygon id="Fill-13" fill="#414143" points="99.8539773 111.64182 99.9091721 111.766731 101.126705 111.21842 101.069886 111.09432"></polygon>
                <polygon id="Fill-14" fill="#414143" points="100.070211 112.14552 100.125406 112.26962 101.341315 111.721309 101.293425 111.593964"></polygon>
                <polygon id="Fill-15" fill="#414143" points="100.30763 112.66601 100.364448 112.788488 101.604708 112.231254 101.541396 112.109588"></polygon>
                <polygon id="Fill-16" fill="#414143" points="100.547971 113.17044 100.607224 113.292918 101.867776 112.724329 101.803653 112.604284"></polygon>
                <polygon id="Fill-17" fill="#414143" points="100.797808 113.67706 100.859497 113.797916 102.140341 113.221216 102.073782 113.101171"></polygon>
                <polygon id="Fill-18" fill="#414143" points="101.049838 114.16616 101.113149 114.285393 102.411039 113.703016 102.344481 113.583782"></polygon>
                <polygon id="Fill-19" fill="#414143" points="101.315016 114.66183 101.382386 114.781063 102.692451 114.190574 102.624269 114.071341"></polygon>
                <polygon id="Fill-20" fill="#414143" points="101.575812 115.12392 101.644805 115.243153 102.962987 114.64942 102.89237 114.531809"></polygon>
                <polygon id="Fill-21" fill="#414143" points="101.85414 115.59623 101.92638 115.713841 103.242938 115.118486 103.172321 115.000874"></polygon>
                <polygon id="Fill-22" fill="#414143" points="102.13539 116.0481 102.210065 116.165711 103.521753 115.571978 103.450325 115.455989"></polygon>
                <polygon id="Fill-23" fill="#414143" points="102.467045 116.55253 102.545779 116.668519 103.842045 116.083708 103.768182 115.967719"></polygon>
                <polygon id="Fill-24" fill="#414143" points="102.778977 116.99783 102.860958 117.110574 104.13125 116.536308 104.056575 116.420319"></polygon>
                <polygon id="Fill-25" fill="#414143" points="103.117208 117.4497 103.205682 117.560011 104.437825 117.005211 104.359091 116.888411"></polygon>
                <polygon id="Fill-26" fill="#414143" points="103.443019 117.8512 103.537175 117.959889 104.720617 117.426989 104.643506 117.311"></polygon>
                <polygon id="Fill-27" fill="#414143" points="103.829464 118.28847 103.930114 118.395537 104.460958 118.15707 104.538068 117.956726"></polygon>
                <polygon id="Fill-28" fill="#414143" points="58.1055195 110.98993 58.4529221 111.104297 58.4967532 110.963974 58.1477273 110.850419"></polygon>
                <polygon id="Fill-29" fill="#414143" points="57.9893669 111.37391 58.3408279 111.488277 58.3806006 111.348766 58.0323864 111.234399"></polygon>
                <polygon id="Fill-30" fill="#414143" points="57.8724838 111.77541 58.2263799 111.890588 58.2661526 111.750266 57.9122565 111.634277"></polygon>
                <polygon id="Fill-31" fill="#414143" points="57.7636364 112.16377 58.1224026 112.281381 58.1597403 112.140248 57.8034091 112.022637"></polygon>
                <polygon id="Fill-32" fill="#414143" points="57.65625 112.56235 58.0223214 112.684017 58.0580357 112.542072 57.6935877 112.420406"></polygon>
                <polygon id="Fill-33" fill="#414143" points="57.5554383 112.95144 57.9320617 113.07554 57.9629058 112.932784 57.5911526 112.808684"></polygon>
                <polygon id="Fill-34" fill="#414143" points="57.4560877 113.3617 57.8375812 113.489044 57.8700487 113.342233 57.4893669 113.218944"></polygon>
                <polygon id="Fill-35" fill="#414143" points="57.3545455 113.80116 57.7457792 113.930938 57.7733766 113.784127 57.3862013 113.659216"></polygon>
                <polygon id="Fill-36" fill="#414143" points="57.2712662 114.18514 57.6698052 114.31654 57.6982143 114.171351 57.3029221 114.041573"></polygon>
                <polygon id="Fill-37" fill="#414143" points="57.1923701 114.56401 57.5998377 114.697843 57.6266234 114.551843 57.2232143 114.420443"></polygon>
                <polygon id="Fill-38" fill="#414143" points="57.1178571 114.95164 57.5326299 115.087907 57.5577922 114.941907 57.1454545 114.808073"></polygon>
                <polygon id="Fill-39" fill="#414143" points="57.0462662 115.35168 57.4667208 115.492813 57.4902597 115.34438 57.0714286 115.206491"></polygon>
                <polygon id="Fill-40" fill="#414143" points="56.9761364 115.76413 57.4055195 115.906074 57.4282468 115.758452 56.9996753 115.618941"></polygon>
                <polygon id="Fill-41" fill="#414143" points="56.9206169 116.12183 57.3597403 116.266208 57.3775974 116.118586 56.9425325 115.976641"></polygon>
                <polygon id="Fill-42" fill="#414143" points="56.8607143 116.54523 57.3071429 116.693663 57.325 116.541986 56.8801948 116.39923"></polygon>
                <polygon id="Fill-43" fill="#414143" points="56.8095779 116.95549 57.2641234 117.105546 57.2779221 116.957112 56.8282468 116.807057"></polygon>
                <polygon id="Fill-44" fill="#414143" points="56.7599026 117.42269 57.2185065 117.574368 57.2323052 117.424312 56.7737013 117.273446"></polygon>
                <polygon id="Fill-45" fill="#414143" points="56.7255682 117.78769 57.1898539 117.942612 57.2020292 117.790934 56.7377435 117.640068"></polygon>
                <polygon id="Fill-46" fill="#414143" points="56.6919643 118.2162 57.1603084 118.371122 57.1700487 118.219444 56.7033279 118.066144"></polygon>
                <polygon id="Fill-47" fill="#414143" points="56.6678571 118.58923 57.1418831 118.744963 57.1483766 118.594097 56.6767857 118.437552"></polygon>
                <polygon id="Fill-48" fill="#414143" points="56.6466721 119.01628 57.1263799 119.174447 57.1304383 119.021958 56.6523539 118.864602"></polygon>
                <polygon id="Fill-49" fill="#414143" points="56.6342532 119.39004 57.1163961 119.549018 57.1204545 119.395718 56.6383117 119.23674"></polygon>
                <polygon id="Fill-50" fill="#414143" points="56.6269481 119.78497 57.1131494 119.94557 57.1147727 119.790648 56.6301948 119.63167"></polygon>
                <polygon id="Fill-51" fill="#414143" points="56.6298701 120.21348 57.1152597 120.37408 57.1144481 120.219158 56.6266234 120.059369"></polygon>
                <polygon id="Fill-52" fill="#414143" points="56.6371753 120.62739 57.1258117 120.788801 57.1209416 120.633068 56.6331169 120.472468"></polygon>
                <polygon id="Fill-53" fill="#414143" points="56.6517857 120.99166 57.1396104 121.151449 57.1323052 120.995716 56.6452922 120.835116"></polygon>
                <polygon id="Fill-54" fill="#414143" points="56.6707792 121.36396 57.1594156 121.526993 57.1496753 121.369638 56.6618506 121.208227"></polygon>
                <polygon id="Fill-55" fill="#414143" points="56.6978084 121.75305 57.1864448 121.914461 57.1742695 121.757106 56.6856331 121.598128"></polygon>
                <polygon id="Fill-56" fill="#414143" points="56.737987 122.20127 57.2233766 122.36187 57.2087662 122.202892 56.7225649 122.044726"></polygon>
                <polygon id="Fill-57" fill="#414143" points="56.7752435 122.54656 57.2573864 122.705538 57.2403409 122.544938 56.7573864 122.386771"></polygon>
                <polygon id="Fill-58" fill="#414143" points="56.8300325 122.96193 57.3081169 123.120097 57.2862013 122.958686 56.8073052 122.80133"></polygon>
                <polygon id="Fill-59" fill="#414143" points="56.8979708 123.41161 57.3703734 123.567343 57.3468344 123.40431 56.8728084 123.248577"></polygon>
                <polygon id="Fill-60" fill="#414143" points="57.0053571 124.0051 57.4469156 124.035922 57.4217532 123.886678 56.9777597 123.857478"></polygon>
                <polygon id="Fill-61" fill="#414143" points="57.0930195 124.4285 57.5280844 124.4577 57.4988636 124.310078 57.0613636 124.280878"></polygon>
                <polygon id="Fill-62" fill="#414143" points="57.1762987 124.79642 57.6040584 124.82562 57.5715909 124.675564 57.1422078 124.647176"></polygon>
                <polygon id="Fill-63" fill="#414143" points="57.112013 125.20668 57.700487 125.245613 57.663961 125.096369 57.2426948 125.068791"></polygon>
                <polygon id="Fill-64" fill="#414143" points="57.3844968 125.58263 57.7895292 125.608586 57.7521916 125.460152 57.3414773 125.433386"></polygon>
                <polygon id="Fill-65" fill="#414143" points="57.5013799 125.96953 57.8958604 125.995486 57.855276 125.844619 57.4551136 125.819474"></polygon>
                <polygon id="Fill-66" fill="#414143" points="57.6350649 126.37687 58.0181818 126.402014 57.9727273 126.25277 57.5855519 126.227626"></polygon>
                <polygon id="Fill-67" fill="#414143" points="57.7731331 126.76815 58.1749188 126.794106 58.1806006 126.648106 57.7179383 126.618094"></polygon>
                <polygon id="Fill-68" fill="#414143" points="57.9060877 127.11855 58.2689123 127.142072 58.2145292 126.991206 57.8484578 126.968494"></polygon>
                <polygon id="Fill-69" fill="#414143" points="58.0543831 127.4872 58.4082792 127.5091 58.3482143 127.359044 57.9935065 127.337144"></polygon>
                <polygon id="Fill-70" fill="#414143" points="58.2158279 127.85877 58.5551136 127.88067 58.4950487 127.730614 58.1492695 127.708714"></polygon>
                <polygon id="Fill-71" fill="#414143" points="58.4123377 128.27706 58.7353896 128.298149 58.6680195 128.148093 58.3409091 128.126193"></polygon>
                <polygon id="Fill-72" fill="#414143" points="58.5752435 128.6041 58.8869318 128.623567 58.8155032 128.4727 58.4989448 128.452422"></polygon>
                <polygon id="Fill-73" fill="#414143" points="58.7863636 129.00414 59.0842532 129.024418 59.0087662 128.87274 58.7051948 128.852462"></polygon>
                <polygon id="Fill-74" fill="#414143" points="59.0135552 129.40783 59.3017045 129.427297 59.2164773 129.275619 58.9267045 129.256152"></polygon>
                <polygon id="Fill-75" fill="#414143" points="59.2217532 129.75458 59.3102273 129.896524 59.5626623 129.885169 59.4782468 129.742413"></polygon>
                <polygon id="Fill-76" fill="#414143" points="59.4686688 130.14221 59.5628247 130.284966 59.8030844 130.272799 59.712987 130.131666"></polygon>
                <polygon id="Fill-77" fill="#414143" points="59.7214286 130.51232 59.8220779 130.655076 60.048539 130.64372 59.9519481 130.501776"></polygon>
                <polygon id="Fill-78" fill="#414143" points="59.9588474 130.84301 60.0643669 130.984954 60.280276 130.973599 60.1788149 130.832466"></polygon>
                <polygon id="Fill-79" fill="#414143" points="60.2211039 131.18903 60.3347403 131.331786 60.5400974 131.322052 60.4321429 131.179297"></polygon>
                <polygon id="Fill-80" fill="#414143" points="60.5081981 131.54454 60.6258929 131.685673 60.8247565 131.67594 60.7086851 131.534807"></polygon>
                <polygon id="Fill-81" fill="#414143" points="60.8486201 131.93947 60.9760552 132.080603 61.1627435 132.07087 61.0393669 131.931359"></polygon>
                <polygon id="Fill-82" fill="#414143" points="61.1320617 132.24899 61.2651786 132.388501 61.4445617 132.38039 61.3146916 132.240879"></polygon>
                <polygon id="Fill-83" fill="#414143" points="61.5038961 132.63151 61.6475649 132.771021 61.8147727 132.76291 61.675974 132.623399"></polygon>
                <polygon id="Fill-84" fill="#414143" points="61.893263 133.00162 62.0482955 133.141131 62.2008929 133.134642 62.0515422 132.995131"></polygon>
                <polygon id="Fill-85" fill="#414143" points="62.2994318 133.36224 62.4650162 133.501751 62.6046266 133.494451 62.444724 133.35494"></polygon>
                <polygon id="Fill-86" fill="#414143" points="62.7771916 133.7506 62.9590097 133.890111 63.0799513 133.883622 62.90625 133.745733"></polygon>
                <polygon id="Fill-87" fill="#414143" points="63.1848214 134.05501 63.3820617 134.192088 63.4778409 134.188032 63.2919643 134.050143"></polygon>
                <polygon id="Fill-88" fill="#414143" points="63.7502435 134.42877 63.8760552 134.502581 63.9093344 134.496903 63.8070617 134.426337"></polygon>
                <g id="Group-162">
                    <path d="M75.6092532,123.766309 C75.6092532,123.766309 82.6327922,124.167809 84.7626623,127.997064 C84.9079545,128.495087 89.5962662,143.038309 81.3073052,145.35322 C74.6571429,147.209042 74.1782468,144.590776 72.5548701,143.500642 C70.5069805,142.123376 70.312987,141.006476 70.312987,141.006476" id="Fill-89" fill="#FFFFFF"></path>
                    <path d="M104.931088,116.41675 C104.931088,116.41675 110.188393,116.647106 111.987906,118.283117 C114.231412,120.321439 120.132386,136.516894 112.593425,139.762961 C112.593425,139.762961 107.029302,141.768839 105.228166,140.004672 C103.427029,138.242128 96.4059253,121.025483 104.931088,116.41675" id="Fill-91" fill="#FFFFFF"></path>
                    <path d="M104.134334,116.844773 C104.134334,116.844773 97.8023539,125.60964 98.6765422,133.410096 C99.6505682,142.094662 113.159497,143.89614 113.002029,132.047429 C113.002029,132.047429 111.91112,115.208762 104.134334,116.844773" id="Fill-93" fill="#00A1DF"></path>
                    <path d="M77.6281656,124.466541 C77.6281656,124.466541 69.4146916,130.796452 69.4771916,137.473519 C69.5778409,148.421897 81.830276,147.407197 82.6492695,140.145319 C83.0331981,136.74433 84.1038149,125.207897 77.6281656,124.466541" id="Fill-95" fill="#00A1DF"></path>
                    <path d="M58.2034091,110.321899 L58.2034091,110.321899 C58.2034091,110.321899 49.4712662,134.181543 71.7107143,137.589832 C71.7107143,137.589832 81.3982143,138.681588 78.5329545,125.183888 C78.5329545,125.183888 75.8040584,117.684354 75.1214286,117.139288 C74.4387987,116.594221 81.8064935,112.639243 85.2188312,121.773977 C85.2188312,121.773977 92.0410714,137.454377 103.501299,129.409777 C103.501299,129.409777 108.093831,124.773466 105.683929,118.638221 C105.683929,118.638221 99.8170455,110.866966 98.9980519,104.049577 C98.1141234,96.6830656 60.5224026,111.95791 58.2034091,110.321899" id="Fill-97" fill="#00A1DF"></path>
                    <path d="M36.6288149,88.2967444 C35.7254058,89.8289333 30.1645292,93.0149778 30.1645292,93.0149778 C24.3658279,94.7093889 20.4169643,90.7746889 22.0103084,85.1017778 C22.6734578,82.7406333 23.6223214,82.2328778 23.8146916,82.2401778 L22.8268669,82.2012444 C21.9267045,82.2126 21.0849838,81.4639444 21.0021916,80.7590889 C20.6612825,77.8601778 25.0801136,78.1611 23.3252435,78.1886778 C24.8861201,78.1627222 33.8982955,78.1627222 33.8982955,78.1627222 L36.6288149,88.2967444 Z" id="Fill-99" fill="#FDCA88"></path>
                    <path d="M49.1494318,70.2441689 C49.1494318,70.2441689 56.7395292,67.0581244 60.1818994,68.4248467 C61.2370942,68.84338 61.9026786,69.6909911 61.8377435,71.1899244 C61.5658279,77.5733689 54.0171266,87.4040356 36.9619318,90.7239133 C36.9619318,90.7239133 35.6104708,91.99898 34.6543019,84.8482244 C33.6997565,77.6974689 29.9091721,78.4404467 31.8198864,77.1637578 C33.7289773,75.8870689 47.5122565,70.7551689 49.1494318,70.2441689" id="Fill-101" fill="#FFFFFF"></path>
                    <path d="M58.8664773,68.1682922 C58.8664773,68.1682922 55.7252435,66.8567256 39.7877435,73.7268367 C39.7877435,73.7268367 46.9054383,79.3681144 48.2252435,79.1856144 C49.5426136,79.0047367 59.5491071,75.7781367 61.8429383,76.7774256 C64.0588474,77.7434589 62.9257305,68.53167 58.8664773,68.1682922" id="Fill-103" fill="#9CCFEF"></path>
                    <path d="M59.9577922,67.8246244 C58.0194805,68.6779133 45.6493506,87.1972022 58.1842532,110.090813 C58.1842532,110.090813 78.9228896,118.68048 98.9788961,103.818491 C98.9788961,103.818491 100.344156,96.72938 98.7069805,87.1850356 C97.0689935,77.6415022 102.877435,68.8490578 88.4732143,67.14248 C85.8847403,66.8366911 66.7386364,64.8364911 59.9577922,67.8246244" id="Fill-105" fill="#00A1DF"></path>
                    <path d="M121.057711,93.3571856 C121.270373,93.6386411 129.246023,103.942997 121.086932,107.030086 C119.709497,107.550819 116.940016,107.265308 114.308523,103.539874 C112.583685,101.096808 113.294724,104.249597 113.139692,104.896863 C112.936769,105.737174 108.457873,107.491608 108.224107,98.7170078 C108.007386,90.5661522 119.878328,92.7707522 119.878328,92.7707522 L121.057711,93.3571856 Z" id="Fill-107" fill="#FDCA88"></path>
                    <path d="M58.2034091,110.321899 C58.2034091,110.321899 78.8511364,118.561977 99.0435065,104.291288 L99.5589286,98.5323989 C99.5589286,98.5323989 79.0597403,114.726232 55.8649351,105.728577 L58.2034091,110.321899 Z" id="Fill-109" fill="#5DB8E7"></path>
                    <path d="M71.1503247,109.192264 C71.1503247,109.192264 70.2274351,107.026598 72.6316558,105.93322 C72.6316558,105.93322 74.0342532,105.377609 75.3215909,106.756498 C75.3215909,106.756498 76.2444805,105.875631 77.3029221,106.144109 C77.3029221,106.144109 78.0715909,106.161953 78.8207792,107.217209 C78.8207792,107.217209 81.0358766,106.364731 82.3621753,108.59042 C82.3621753,108.59042 83.1665584,110.055287 81.9555195,111.454453 C81.9555195,111.454453 81.0707792,112.604609 79.3970779,112.375064 C79.3970779,112.375064 78.5326299,113.928342 76.8029221,113.181309 C76.8029221,113.181309 76.0342532,114.962509 74.0926948,114.445831 C74.0926948,114.445831 72.9579545,114.119764 72.649513,113.103442 C72.649513,113.103442 70.8621753,113.410042 70.1892857,111.512042 C70.1892857,111.512042 69.7655844,110.246709 71.1503247,109.192264" id="Fill-111" fill="#FFFFFF"></path>
                    <path d="M99.5586039,98.5319933 C99.5586039,98.5319933 99.8045455,89.1255378 98.7517857,87.3208156 C98.7517857,87.3208156 90.8012987,79.6241822 91.0358766,77.5793711 C91.0358766,77.5793711 94.5691558,83.9936378 91.8410714,87.26566 C91.8410714,87.26566 91.8029221,102.66866 91.8491883,103.189393 C91.8491883,103.189393 93.6649351,102.554293 99.5586039,98.5319933" id="Fill-113" fill="#9CCFEF"></path>
                    <path d="M55.8647727,105.727684 C55.8647727,105.727684 50.6017857,96.04464 52.4816558,85.0078511 C52.7957792,83.1641956 53.5717532,79.2092178 54.6626623,77.0962733 C54.6626623,77.0962733 51.8396104,87.4582178 55.0457792,88.8216956 C55.0457792,88.8216956 55.7787338,101.573173 59.301461,106.888384 C59.301461,106.888384 56.1821429,106.345751 55.8647727,105.727684" id="Fill-115" fill="#9CCFEF"></path>
                    <polygon id="Fill-117" fill="#FFFFFF" points="0 8.20528111 6.14529221 35.0563033 8.85714286 33.5638589 14.6404221 56.7283811 17.8928571 55.8548144 22.773539 80.3154922 26.2086039 78.2285033 32.8636364 105.957148 36.8498377 105.139548 41.9659091 126.067026 40.2938312 100.027114 36.8498377 99.2914367 30.1842532 70.3631589 27.112013 71.3389256 20.9829545 50.1843367 18.2548701 50.1843367 12.8319805 27.4286144 9.57954545 27.6330144"></polygon>
                    <path d="M25.5494318,82.2693778 C30.7791396,81.5791222 31.7718344,86.1813667 31.8245942,86.4230778 C32.9999188,91.7991222 29.4585227,93.3418556 29.1241071,93.5121889" id="Fill-119" fill="#FDCA88"></path>
                    <path d="M84.024513,67.0204889 C84.024513,67.0204889 83.7663961,69.8723556 82.4100649,73.6237444 L85.6105519,75.1810778 C85.6105519,75.1810778 88.0383117,66.7860778 87.248539,65.6432222 L84.024513,67.0204889 Z" id="Fill-121" fill="#5DB8E7"></path>
                    <path d="M89.1420455,67.2726633 C89.1420455,67.2726633 87.4155844,75.6992967 84.9983766,80.6259856 L89.1534091,81.9107856 C89.1534091,81.9107856 93.1728896,68.65723 92.0154221,67.8858633 C91.4042208,67.4786856 89.1420455,67.2726633 89.1420455,67.2726633" id="Fill-123" fill="#5DB8E7"></path>
                    <path d="M64.3076299,67.5742344 C64.3076299,67.5742344 63.9196429,70.1941233 64.4334416,73.2276789 L62.3555195,74.5173456 C62.3555195,74.5173456 61.5308442,68.4275233 61.9577922,66.7225678 L64.3076299,67.5742344 Z" id="Fill-125" fill="#5DB8E7"></path>
                    <path d="M60.1159903,67.84766 C60.1159903,67.84766 60.4268669,75.7884378 60.9406656,78.8228044 L58.9982955,80.6567267 C58.9982955,80.6567267 57.879789,70.7173711 58.4390422,69.5177378 C58.905763,68.5184489 60.1159903,67.84766 60.1159903,67.84766" id="Fill-127" fill="#5DB8E7"></path>
                    <path d="M104.538312,119.231143 L104.955519,117.410199 C104.955519,117.410199 99.5050325,109.175799 99.0448052,104.290477 L97.4823052,105.349788 C97.4823052,105.349788 100.145455,115.328888 104.341071,119.077843" id="Fill-129" fill="#9CCFEF"></path>
                    <path d="M58.5128247,110.488582 C58.5128247,110.488582 52.8675325,127.299671 64.3878247,134.745671 C68.8188312,137.611327 63.9097403,135.032804 63.9097403,135.032804 C63.9097403,135.032804 51.9568182,129.581327 58.1840909,110.091138 L58.5128247,110.488582 Z" id="Fill-131" fill="#9CCFEF"></path>
                    <path d="M95.2612825,67.8268144 C95.2612825,67.8268144 102.270211,65.3188589 110.500731,76.1131256 L114.663068,81.4932256 C114.663068,81.4932256 121.566477,91.1511256 122.314042,92.9728811 C122.314042,92.9728811 120.186607,99.0951478 107.020211,99.1981589 C107.020211,99.1981589 103.245049,94.5602256 100.801867,91.8981589 C98.3594968,89.2336589 89.5810877,82.9645811 89.6492695,75.4309811 C89.6711851,73.0690256 89.8659903,69.9162367 95.2612825,67.8268144" id="Fill-133" fill="#FFFFFF"></path>
                    <path d="M105.53888,70.7556556 C102.651705,68.7278778 95.6573864,63.9188 90.5031656,71.7452111 C90.5031656,71.7452111 98.7499188,72.9610667 106.936607,86.3225 C106.936607,86.3225 112.176055,85.1496333 115.249107,82.3172333 C115.249107,82.3172333 109.15901,73.2968667 105.53888,70.7556556" id="Fill-135" fill="#9CCFEF"></path>
                    <path d="M69.4762987,137.177058 C69.4762987,137.177058 81.4146104,140.154647 78.5501623,124.951991 C78.5501623,124.951991 79.5047078,125.383502 79.9819805,126.065647 C79.9819805,126.065647 84.611039,134.238402 78.2644481,138.097669 C76.5290584,139.152113 74.7344156,140.337958 69.5590909,138.85038 L69.4762987,137.177058 Z" id="Fill-137" fill="#FFFFFF"></path>
                    <path d="M105.028166,116.953219 L105.028166,117.090297 C105.028166,117.090297 108.837419,122.975719 103.481088,129.178286 C102.630438,130.165408 100.537906,130.855663 98.6710227,131.396674 C98.6710227,131.396674 98.4948864,132.775563 98.6758929,133.50313 C98.6758929,133.50313 100.544399,134.091186 104.760308,132.250774 C107.415341,131.093319 110.362581,127.018297 109.620698,122.270052 C109.388555,120.782474 108.666153,118.408352 106.392614,117.181141 L105.028166,116.953219 Z" id="Fill-139" fill="#FFFFFF"></path>
                    <path d="M63.9193182,134.815102 C67.649026,134.391702 68.2472403,131.585258 68.2472403,131.585258 C68.2472403,131.585258 77.5873377,128.937791 78.0743506,123.877269 C78.0743506,123.877269 81.2017857,131.858602 76.375487,136.109636 C71.5702922,140.343636 62.8543831,134.936769 63.9193182,134.815102" id="Fill-141" fill="#9CCFEF"></path>
                    <path d="M105.028166,116.953219 C104.214854,123.088463 97.4656656,125.228174 97.4656656,125.228174 C97.4656656,125.228174 95.607711,129.505974 92.7830357,130.583941 C92.7830357,130.583941 97.9778409,133.857586 103.32362,129.345374 C108.905601,124.636063 105.113393,116.308386 105.028166,116.953219" id="Fill-143" fill="#9CCFEF"></path>
                    <path d="M88.8854708,115.755127 C89.0015422,114.917249 90.6606331,114.446804 91.392776,114.871827 C93.2280032,115.938438 95.4544643,123.040527 95.4325487,124.15986 C95.4203734,124.884182 93.9836851,123.888949 93.2693994,123.762416 C91.0705357,123.373082 88.5965097,117.829949 88.8854708,115.755127" id="Fill-145" fill="#5DB8E7"></path>
                    <path d="M68.2734578,119.36522 C67.744237,118.777164 66.2150162,119.280864 65.8716721,119.992209 C65.0096591,121.778276 67.0056006,128.435064 67.6078734,129.290787 C67.9982955,129.844776 68.6086851,128.34422 69.0745942,127.852687 C70.1882305,126.674953 69.582711,120.818731 68.2734578,119.36522" id="Fill-147" fill="#5DB8E7"></path>
                    <path d="M75.1076299,116.984852 C75.1076299,116.984852 74.1530844,117.529919 74.8340909,118.85933 C75.7772727,120.696497 77.3511364,125.770808 77.3511364,125.770808 C77.8040584,125.243586 78.0743506,124.09343 78.0743506,124.09343 C78.0743506,124.09343 76.1474026,118.238019 75.1076299,116.984852" id="Fill-149" fill="#9CCFEF"></path>
                    <path d="M80.1721591,116.062943 C80.1721591,116.062943 82.9619318,115.903154 84.0382305,117.835221 C85.9335227,121.240266 88.7898539,128.26611 93.4513799,130.264688 L93.4976461,130.299566 C93.4976461,130.299566 92.9708604,130.592377 92.8637175,130.619954 C92.8637175,130.619954 91.4140422,129.979177 89.4846591,128.038188 C88.2030032,126.749332 87.969237,126.330799 86.7776786,124.629088 C85.4635552,122.752988 84.5836851,119.959521 83.3669643,118.40381 C83.1656656,118.145877 82.0366071,116.823766 80.1721591,116.062943" id="Fill-151" fill="#9CCFEF"></path>
                    <path d="M99.6623377,16.50822 C99.3157468,15.98262 98.9553571,15.4691867 98.5665584,14.9776533 C95.0706169,10.5449311 90.6850649,7.30129778 85.2224026,5.63933111 C85.2224026,5.63933111 81.9983766,5.06019778 81.5616883,4.47619778 C80.7037338,3.35362 79.9155844,2.17264222 78.9829545,1.11495333 C78.6063312,0.687497778 77.9358766,0.292486667 77.3863636,0.276264444 C74.9066558,0.197586667 72.4220779,0.259231111 69.9383117,0.270586667 C68.5519481,0.276264444 67.3693182,0.625042222 66.6728896,1.98446444 C66.2792208,2.75177556 65.8181818,3.49232 65.3125,4.19068667 C65.0844156,4.50620889 64.7102273,4.77306444 64.3457792,4.91906444 C63.6290584,5.20619778 62.8603896,5.36355333 62.1331169,5.62554222 C56.9983766,7.48217556 52.8506494,10.7055311 49.4293831,14.8957311 C48.3547078,16.2113533 46.1176948,19.6058533 46.1176948,19.6058533 C46.0202922,19.8013311 45.9180195,19.9951867 45.8165584,20.1882311 C42.6387987,25.2844422 40.8003247,31.2996422 40.8003247,37.7455422 C40.8003247,56.1066644 55.6948052,70.9905533 74.0681818,70.9905533 C92.4423701,70.9905533 107.336851,56.1066644 107.336851,37.7455422 C107.336851,29.6709311 104.453734,22.26792 99.6623377,16.50822" id="Fill-153" fill="#00A1DF"></path>
                    <g id="Group-157" transform="translate(64.526602, 0.000000)">
                        <mask id="mask-3" fill="white">
                            <use xlink:href="#path-2"></use>
                        </mask>
                        <g id="Clip-156"></g>
                        <path d="M0.344095622,5.14082222 L0.344095622,22.8076333 L17.5259138,23.0988222 L17.5259138,5.14082222 L14.94718,1.38537778 C14.94718,1.38537778 14.1736411,0.251444444 13.3514008,0.0665111111 C12.6801346,-0.0835444444 5.22802419,0.0665111111 5.22802419,0.0665111111 C5.22802419,0.0665111111 3.27672549,0.0640777778 2.51130341,1.41295556 L0.344095622,5.14082222 Z" id="Fill-155" fill="#FFFFFF" mask="url(#mask-3)"></path>
                    </g>
                    <polygon id="Fill-158" fill="#D0E7F8" points="68.2211039 20.2900256 68.2211039 0.579214444 67.5579545 0.836336667 67.3022727 1.04560333 67.038474 1.41303667 64.8712662 4.65423667 64.8712662 23.7121033"></polygon>
                    <polygon id="Fill-160" fill="#0193D7" points="78.6231331 20.3683789 78.6231331 0.500212222 79.0622565 0.87819 79.4737825 1.38513444 80.5979708 3.02195667 82.0517045 5.19492333 82.0525162 24.0037789"></polygon>
                </g>
                <g id="Group-171" transform="translate(49.104525, 25.547759)">
                    <g id="Group-165">
                        <mask id="mask-5" fill="white">
                            <use xlink:href="#path-4"></use>
                        </mask>
                        <g id="Clip-164"></g>
                        <path d="M56.940443,18.4587495 C56.940443,29.5993606 47.9607352,39.6895829 35.2927158,42.9332162 C32.2432028,43.7143162 29.0824885,44.2439717 25.7050534,44.2439717 C12.2018067,44.2439717 0.403105362,36.7395717 -4.08228425,27.2593051 C-4.21215438,26.9851495 -4.33634269,26.7077495 -4.45322581,26.4287273 C-5.51166736,23.9248273 -6.08471931,21.2457273 -6.08471931,18.4587495 C-6.08471931,4.63741619 8.67015082,-6.93713936 26.0743716,-6.93713936 C29.3089495,-6.93713936 32.4071638,-6.53726158 35.3081378,-5.79752825 C48.0175534,-2.55632825 56.940443,7.20620508 56.940443,18.4587495" id="Fill-163" fill="#FDCA88" mask="url(#mask-5)"></path>
                    </g>
                    <path d="M15.826969,28.6942417 C15.826969,30.9385862 14.6126833,32.7595306 13.1151183,32.7595306 C11.6183651,32.7595306 10.4040794,30.9385862 10.4040794,28.6942417 C10.4040794,26.4498973 11.6183651,24.6305751 13.1151183,24.6305751 C14.6126833,24.6305751 15.826969,26.4498973 15.826969,28.6942417" id="Fill-166" fill="#232222"></path>
                    <g id="Group-170">
                        <mask id="mask-7" fill="white">
                            <use xlink:href="#path-6"></use>
                        </mask>
                        <g id="Clip-169"></g>
                        <path d="M49.2436898,-4.51418825 C48.513982,-5.33746603 47.6625209,-6.02204381 46.6730729,-6.51357714 C40.2712872,-9.69394381 33.9108976,-11.659266 26.6860599,-11.7371327 C21.9182028,-11.7890438 17.1568391,-11.0322771 12.6333002,-9.52766603 C8.55050796,-8.16905492 3.47583264,-6.32621047 0.924696271,-2.70054381 C-1.65160243,0.958378416 -3.89997905,5.06178953 -4.17838814,9.52776731 C-4.35452451,12.3569229 -3.58260892,15.3320784 -1.87644009,17.6177895 C-0.957608923,18.8506784 0.219339129,19.4371117 1.33622225,20.4080117 C2.25424173,21.2069562 2.96203393,22.6775006 4.38735861,22.6775006 C4.66901445,22.6775006 3.59596251,13.8526117 8.37518328,11.2108229 C8.37518328,11.2108229 25.125995,18.1442006 27.1568391,14.3222451 C26.5886573,13.9775229 20.4190145,11.5214784 20.7363846,8.81074508 C20.9133326,7.30045619 34.0675534,7.74494508 39.5415794,20.6326895 C40.5042417,21.1972229 42.0285924,18.8190451 42.4547287,15.299634 C43.2469365,8.74585619 47.5432028,26.3696784 47.6617093,26.7622562 C47.7169041,26.9447562 49.5496963,25.5845229 49.7518067,25.286034 C50.6268067,23.9955562 50.9360599,21.7852784 51.3581378,20.2920229 C52.3719365,16.7093451 53.1146313,13.0277117 53.177943,9.29497842 C53.2501833,4.99365619 52.3475859,-1.01262158 49.2436898,-4.51418825" id="Fill-168" fill="#232222" mask="url(#mask-7)"></path>
                    </g>
                </g>
                <g id="Group-198" transform="translate(43.422706, 0.403315)">
                    <path d="M4.86755341,16.0533995 C3.6808651,16.7833995 0.214956012,24.1588329 0.214956012,24.1588329 C0.214956012,24.1588329 -0.76962191,33.9327217 2.30424173,43.2548217 C2.30424173,43.2548217 7.32209887,42.9766106 7.30667679,41.6763995 L6.09401445,35.0520551 C6.09401445,35.0520551 5.47794302,32.7038884 5.37891705,31.9016995 C5.32778069,31.4807329 5.34157939,30.2072884 5.34157939,30.2072884 L4.86755341,16.0533995 Z" id="Fill-172" fill="#9CCFEF"></path>
                    <polygon id="Fill-174" fill="#FFFFFF" points="20.7145502 22.3865551 24.7973424 19.4738551 35.6958813 19.4738551 39.4889008 22.3865551 41.0708813 29.6370773 37.52218 29.6370773 35.6958813 26.9896106 24.7973424 26.9896106 22.9799722 29.6370773 19.4288359 29.6370773"></polygon>
                    <polygon id="Fill-176" fill="#D0E7F8" points="24.7983976 19.4746662 20.7156054 22.3873662 19.4290794 29.6378884 22.9802158 29.6378884 24.7983976 26.9904217"></polygon>
                    <polygon id="Fill-178" fill="#0193D7" points="35.700995 19.4746662 39.7837872 22.3873662 41.0703132 29.6378884 37.5183651 29.6378884 35.700995 26.9904217"></polygon>
                    <path d="M55.338008,14.8239984 L57.4638196,17.9905762 L60.3785924,22.9123984 C60.3785924,22.9123984 61.3631703,32.6854762 58.2901183,42.0075762 C58.2901183,42.0075762 54.3858976,42.0943651 54.3996963,40.794154 C54.3996963,40.794154 54.9167417,36.3468317 55.338008,30.763954 C55.8079755,24.544354 55.6829755,16.3602429 55.338008,14.8239984" id="Fill-180" fill="#9CCFEF"></path>
                    <polygon id="Fill-182" fill="#FFFFFF" points="35.5511573 84.8745551 22.3336248 102.044966 28.6063521 86.173144 24.3936898 86.1723329 28.4496963 75.9125884 35.8693391 75.9125884 30.8230729 84.8769884"></polygon>
                    <polygon id="Fill-184" fill="#FFFFFF" points="53.3363034 15.3835029 39.4889008 19.2687251 49.1285112 13.318414 46.8890632 11.6475251 53.121206 7.80204731 57.0651995 10.7455695 50.821693 13.5098362"></polygon>
                    <polygon id="Fill-186" fill="#FFFFFF" points="7.12997225 15.3835029 20.9773748 19.2687251 11.3377645 13.318414 13.5772125 11.6475251 7.34506965 7.80204731 3.40107614 10.7455695 9.64458264 13.5098362"></polygon>
                    <path d="M22.2196638,97.5592784 C19.5483976,95.672634 17.95343,92.5969006 17.95343,89.3321784 C17.95343,85.1573895 20.4664171,81.4765673 24.3568391,79.9541117 C24.5589495,79.875434 24.7643067,79.802434 24.9729106,79.736734 L25.0792417,80.0709117 C24.877943,80.1349895 24.6798911,80.2047451 24.4850859,80.2809895 C20.7302158,81.7499117 18.3040794,85.3025784 18.3040794,89.3321784 C18.3040794,92.4833451 19.8438521,95.4520117 22.4225859,97.2729562 L22.2196638,97.5592784 Z" id="Fill-188" fill="#FFFFFF"></path>
                    <path d="M28.0276995,99.3995273 C27.5755891,99.3995273 27.1226671,99.3695162 26.682732,99.3103051 L26.7289982,98.9631495 C27.1543229,99.0199273 27.5910112,99.0483162 28.0276995,99.0483162 C33.3889008,99.0483162 37.7509138,94.6902162 37.7509138,89.3320162 C37.7509138,88.1964606 37.5561086,87.0828051 37.1729917,86.0226829 L37.5025372,85.9034495 C37.9010761,87.001694 38.1023748,88.155094 38.1023748,89.3320162 C38.1023748,94.8832606 33.5828943,99.3995273 28.0276995,99.3995273" id="Fill-190" fill="#FFFFFF"></path>
                    <polygon id="Fill-192" fill="#9CCFEF" points="39.7840307 22.3871229 38.6298099 21.5638451 38.6289982 4.79168953 37.1760761 2.61872286 36.0510761 0.981900638 35.6395502 0.474956194 35.2004268 0.0969784162 35.2004268 19.9651451 35.7012385 20.4956117 35.7012385 26.9901784 37.5186086 29.6376451 41.069745 29.6376451"></polygon>
                    <polygon id="Fill-194" fill="#9CCFEF" points="19.4289171 29.637564 24.7982352 25.5090084 35.7000209 25.5090084 41.0709625 29.637564 37.5222612 29.637564 35.6951508 26.9900973 24.7982352 26.9900973 22.9800534 29.637564"></polygon>
                    <path d="M45.3788359,53.8386862 C45.3788359,56.0830306 44.1645502,57.9039751 42.6669852,57.9039751 C41.170232,57.9039751 39.9559463,56.0830306 39.9559463,53.8386862 C39.9559463,51.5943417 41.170232,49.7750195 42.6669852,49.7750195 C44.1645502,49.7750195 45.3788359,51.5943417 45.3788359,53.8386862" id="Fill-196" fill="#232222"></path>
                </g>
            </g>
        </g>
    </g>
</svg>