<svg width="125" height="146" viewBox="0 0 125 146" xmlns="http://www.w3.org/2000/svg" xmlns:xlink="http://www.w3.org/1999/xlink"><title>astro--lightning</title><defs><filter x="-50%" y="-50%" width="200%" height="200%" filterUnits="objectBoundingBox" id="a"><feOffset dx="2" dy="2" in="SourceAlpha" result="shadowOffsetOuter1"/><feGaussianBlur stdDeviation="5" in="shadowOffsetOuter1" result="shadowBlurOuter1"/><feColorMatrix values="0 0 0 0 0 0 0 0 0 0 0 0 0 0 0 0 0 0 0.3 0" in="shadowBlurOuter1" result="shadowMatrixOuter1"/><feMerge><feMergeNode in="shadowMatrixOuter1"/><feMergeNode in="SourceGraphic"/></feMerge></filter><path id="b" d="M17.526 0H.344v23.1h17.182V0z"/><path d="M9.178 2.404C.77 4.462.035 8.994.035 8.994L4.963 22.53c-2.512 8.05 3.852 16.87 3.852 16.87 18.43 10.948 33.82-.84 34.352-1.598.565-.798 1.332-6.765 1.332-6.765 1.096-5.39.89-10.18.89-10.18l2.818-5.64 1.022-3.49s-1.17-5.248-6.228-7.913C38.038 1.2 31.885.36 26.072.36 19.014.362 12.462 1.6 9.178 2.404z" id="d"/><path d="M4.378 26.78c-.023-1.407.145-2.84.585-4.252L.035 8.995s.735-4.533 9.143-6.59C12.463 1.598 19.014.36 26.072.36c5.813 0 11.966.84 16.93 3.452 5.06 2.665 6.228 7.912 6.228 7.912l-1.022 3.49-2.818 5.642s.107 2.5-.247 5.923H4.378z" id="f"/></defs><g filter="url(#a)" fill="none" fill-rule="evenodd"><path fill="#414143" d="M97.836 106.135l.04.13 1.184-.534-.024-.136M97.967 106.56l.04.132 1.15-.517-.032-.136M98.1 106.982l.043.132 1.123-.507-.036-.133M98.236 107.395l.042.13 1.107-.498-.04-.133M98.375 107.81l.043.128 1.095-.494-.04-.13M98.532 108.263l.045.13 1.09-.493-.046-.128M98.687 108.7l.046.13 1.092-.495-.047-.127M98.84 109.12l.047.13 1.1-.497-.05-.127M99.02 109.602l.05.128 1.11-.502-.052-.125M99.213 110.1l.05.127 1.125-.507-.054-.126M99.41 110.594l.052.127 1.144-.516-.056-.124M99.62 111.108l.055.126 1.167-.526-.06-.123M99.854 111.642l.055.125 1.217-.55-.057-.123M100.07 112.146l.055.124 1.216-.55-.047-.126M100.308 112.666l.056.122 1.24-.557-.063-.12M100.548 113.17l.06.123 1.26-.57-.064-.12M100.798 113.677l.06.12 1.282-.576-.066-.12M101.05 114.166l.063.12 1.298-.583-.066-.12M101.315 114.662l.067.12 1.31-.59-.068-.12M101.576 115.124l.07.12 1.317-.595-.07-.118M101.854 115.596l.072.118 1.317-.596-.07-.117M102.135 116.048l.075.118 1.312-.594-.072-.116M102.467 116.553l.08.116 1.295-.586-.074-.116M102.78 116.998l.08.113 1.27-.574-.073-.116M103.117 117.45l.09.11 1.23-.555-.078-.117M103.443 117.85l.094.11 1.184-.533-.076-.116M103.83 118.288l.1.108.53-.24.078-.2M58.106 110.99l.347.114.044-.14-.35-.114M57.99 111.374l.35.114.04-.14-.348-.114M57.872 111.775l.354.116.04-.14-.354-.116M57.764 112.164l.358.117.038-.14-.357-.117M57.656 112.562l.366.122.036-.142-.364-.122M57.555 112.95l.377.126.03-.143-.37-.124M57.456 113.362l.382.127.032-.148-.38-.123M57.355 113.8l.39.13.028-.146-.387-.125M57.27 114.185l.4.132.028-.146-.395-.128M57.192 114.564l.408.134.027-.146-.404-.132M57.118 114.952l.415.136.025-.146-.413-.134M57.046 115.352l.42.14.024-.148-.42-.138M56.976 115.764l.43.142.022-.148-.428-.14M56.92 116.122l.44.144.018-.147-.435-.143M56.86 116.545l.447.15.018-.153-.445-.143M56.81 116.955l.454.15.014-.148-.45-.15M56.76 117.423l.46.15.012-.15-.458-.15M56.726 117.788l.464.155.012-.152-.464-.15M56.692 118.216l.468.155.01-.15-.467-.154M56.668 118.59l.474.155.006-.15-.47-.157M56.647 119.016l.48.158.003-.152-.478-.157M56.634 119.39l.482.16.004-.154-.482-.16M56.627 119.785l.486.16.002-.154-.485-.158M56.63 120.213l.485.16v-.154l-.488-.16M56.637 120.627l.49.162-.006-.157-.487-.16M56.652 120.992l.488.16-.008-.156-.487-.16M56.67 121.364l.49.163-.01-.157-.488-.162M56.698 121.753l.488.16-.012-.156-.488-.16M56.738 122.2l.485.162-.014-.16-.487-.157M56.775 122.547l.482.16-.017-.162-.483-.158M56.83 122.962l.478.158-.022-.16-.48-.16M56.898 123.412l.472.155-.023-.163-.474-.155M57.005 124.005l.442.03-.025-.148-.444-.03M57.093 124.428l.435.03-.03-.148-.437-.03M57.176 124.796l.428.03-.032-.15-.43-.03M57.112 125.207l.588.04-.036-.15-.42-.028M57.384 125.583l.406.026-.038-.15-.41-.027M57.5 125.97l.396.025-.04-.15-.4-.026M57.635 126.377l.383.025-.045-.15-.387-.024M57.773 126.768l.402.026.006-.146-.462-.03M57.906 127.12l.363.022-.055-.15-.367-.024M58.054 127.487l.354.022-.06-.15-.354-.023M58.216 127.86l.34.02-.06-.15-.347-.02M58.412 128.277l.323.02-.067-.15-.327-.02M58.575 128.604l.312.02-.07-.15-.318-.022M58.786 129.004l.298.02-.075-.15-.305-.022M59.014 129.408l.288.02-.086-.152-.29-.02M59.222 129.755l.088.142.253-.012-.085-.143M59.47 130.142l.093.143.24-.012-.09-.14M59.72 130.512l.102.143.227-.01-.098-.143M59.96 130.843l.104.142.216-.01-.1-.143M60.22 131.19l.115.142.205-.01-.108-.143M60.508 131.545l.118.14.2-.01-.117-.14M60.85 131.94l.126.14.187-.01-.124-.14M61.132 132.25l.133.14.18-.01-.13-.14M61.504 132.632l.144.14.167-.01-.14-.14M61.893 133.002l.155.14.153-.007-.148-.14M62.3 133.362l.165.14.14-.008-.16-.14M62.777 133.75l.182.14.12-.006-.174-.138M63.185 134.055l.197.137.096-.004-.186-.138M63.75 134.43l.126.073.033-.006-.103-.07"/><path d="M75.61 123.766s7.023.402 9.153 4.23c.145.5 4.833 15.042-3.456 17.357-6.65 1.856-7.13-.762-8.752-1.852-2.048-1.377-2.242-2.494-2.242-2.494M104.93 116.417s5.258.23 7.058 1.866c2.243 2.038 8.144 18.234.605 21.48 0 0-5.564 2.006-7.365.242-1.8-1.763-8.822-18.98-.297-23.588" fill="#FFF"/><path d="M104.134 116.845s-6.332 8.765-5.457 16.565c.974 8.685 14.482 10.486 14.325-1.363 0 0-1.09-16.838-8.868-15.202M77.628 124.467s-8.213 6.33-8.15 13.007c.1 10.948 12.352 9.933 13.17 2.67.385-3.4 1.456-14.936-5.02-15.677" fill="#00A1DF"/><path d="M58.203 110.322s-8.732 23.86 13.508 27.268c0 0 9.688 1.092 6.823-12.406 0 0-2.73-7.5-3.412-8.045-.68-.546 6.686-4.5 10.1 4.634 0 0 6.82 15.68 18.28 7.636 0 0 4.594-4.637 2.184-10.772 0 0-5.867-7.77-6.686-14.588-.884-7.367-38.476 7.908-40.795 6.272" fill="#00A1DF"/><path d="M36.63 88.297c-.905 1.532-6.465 4.718-6.465 4.718-5.8 1.694-9.748-2.24-8.155-7.913.663-2.36 1.612-2.87 1.805-2.862l-.988-.04c-.9.013-1.742-.736-1.825-1.44-.34-2.9 4.078-2.6 2.323-2.57 1.56-.027 10.573-.027 10.573-.027l2.73 10.134z" fill="#FDCA88"/><path d="M49.15 70.244s7.59-3.186 11.032-1.82c1.055.42 1.72 1.267 1.656 2.766-.272 6.383-7.82 16.214-24.876 19.534 0 0-1.352 1.275-2.308-5.876-.954-7.15-4.745-6.408-2.834-7.684 1.91-1.277 15.692-6.41 17.33-6.92" fill="#FFF"/><path d="M58.866 68.168s-3.14-1.31-19.078 5.56c0 0 7.117 5.64 8.437 5.458 1.318-.18 11.324-3.408 13.618-2.41 2.216.967 1.083-8.244-2.977-8.608" fill="#9CCFEF"/><path d="M59.958 67.825c-1.94.853-14.31 19.372-1.774 42.266 0 0 20.74 8.59 40.795-6.272 0 0 1.364-7.09-.273-16.633-1.638-9.543 4.17-18.336-10.234-20.043-2.588-.305-21.734-2.306-28.515.683" fill="#00A1DF"/><path d="M121.058 93.357c.212.282 8.188 10.586.03 13.673-1.38.52-4.148.235-6.78-3.49-1.724-2.443-1.013.71-1.168 1.357-.203.84-4.682 2.595-4.916-6.18-.217-8.15 11.654-5.946 11.654-5.946l1.18.587z" fill="#FDCA88"/><path d="M58.203 110.322s20.648 8.24 40.84-6.03l.516-5.76s-20.5 16.194-43.695 7.197l2.338 4.592z" fill="#5DB8E7"/><path d="M71.15 109.192s-.923-2.165 1.482-3.26c0 0 1.402-.554 2.69.824 0 0 .922-.88 1.98-.612 0 0 .77.018 1.52 1.073 0 0 2.214-.852 3.54 1.373 0 0 .805 1.465-.406 2.864 0 0-.885 1.15-2.56.92 0 0-.863 1.554-2.593.807 0 0-.77 1.783-2.71 1.266 0 0-1.135-.326-1.443-1.343 0 0-1.788.307-2.46-1.59 0 0-.424-1.266.96-2.32" fill="#FFF"/><path d="M99.56 98.532s.245-9.406-.808-11.21c0 0-7.95-7.698-7.716-9.743 0 0 3.533 6.414.805 9.686 0 0-.037 15.403.01 15.923 0 0 1.815-.636 7.71-4.658M55.865 105.728s-5.263-9.683-3.383-20.72c.314-1.844 1.09-5.8 2.18-7.912 0 0-2.822 10.362.384 11.726 0 0 .733 12.75 4.255 18.066 0 0-3.118-.542-3.435-1.16" fill="#9CCFEF"/><path fill="#FFF" d="M0 8.205l6.145 26.85 2.712-1.49 5.783 23.163 3.253-.873 4.88 24.46 3.436-2.086 6.654 27.727 3.986-.817 5.116 20.927-1.672-26.04-3.444-.736-6.666-28.927-3.072.976-6.13-21.156h-2.727L12.832 27.43l-3.252.203"/><path d="M25.55 82.27c5.23-.69 6.222 3.91 6.275 4.153 1.175 5.376-2.366 6.92-2.7 7.09" fill="#FDCA88"/><path d="M84.025 67.02s-.26 2.852-1.615 6.604l3.2 1.557s2.428-8.394 1.64-9.537l-3.225 1.377zM89.142 67.273s-1.726 8.426-4.144 13.353l4.155 1.285s4.02-13.253 2.862-14.024c-.61-.407-2.873-.613-2.873-.613M64.308 67.574s-.388 2.62.125 5.654l-2.077 1.29s-.825-6.09-.398-7.795l2.35.85zM60.116 67.848s.31 7.94.825 10.975L59 80.657s-1.118-9.94-.56-11.14c.468-1 1.678-1.67 1.678-1.67" fill="#5DB8E7"/><path d="M104.538 119.23l.418-1.82s-5.45-8.234-5.91-13.12l-1.564 1.06s2.663 9.98 6.86 13.728M58.513 110.49s-5.645 16.81 5.875 24.256c4.43 2.865-.478.287-.478.287s-11.953-5.452-5.726-24.942l.33.4z" fill="#9CCFEF"/><path d="M95.26 67.827s7.01-2.508 15.24 8.286l4.163 5.38s6.903 9.658 7.65 11.48c0 0-2.126 6.122-15.293 6.225 0 0-3.775-4.638-6.218-7.3-2.443-2.664-11.22-8.933-11.153-16.467.02-2.36.216-5.514 5.61-7.603" fill="#FFF"/><path d="M105.54 70.756c-2.888-2.028-9.883-6.837-15.037.99 0 0 8.247 1.215 16.434 14.577 0 0 5.24-1.173 8.312-4.006 0 0-6.09-9.02-9.71-11.56" fill="#9CCFEF"/><path d="M69.476 137.177s11.94 2.978 9.074-12.225c0 0 .955.432 1.432 1.114 0 0 4.63 8.172-1.718 12.032-1.735 1.054-3.53 2.24-8.705.752l-.084-1.673zM105.028 116.953v.137s3.81 5.886-1.547 12.088c-.85.987-2.942 1.678-4.81 2.22 0 0-.175 1.378.006 2.105 0 0 1.868.588 6.084-1.252 2.655-1.157 5.603-5.232 4.86-9.98-.23-1.488-.954-3.862-3.227-5.09l-1.365-.227z" fill="#FFF"/><path d="M63.92 134.815c3.73-.423 4.327-3.23 4.327-3.23s9.34-2.647 9.827-7.708c0 0 3.128 7.982-1.7 12.233-4.804 4.234-13.52-1.173-12.455-1.295M105.028 116.953c-.813 6.135-7.562 8.275-7.562 8.275s-1.858 4.278-4.683 5.356c0 0 5.195 3.274 10.54-1.24 5.583-4.708 1.79-13.036 1.705-12.39" fill="#9CCFEF"/><path d="M88.885 115.755c.117-.838 1.776-1.308 2.508-.883 1.835 1.066 4.06 8.17 4.04 9.288-.013.724-1.45-.27-2.164-.398-2.2-.39-4.673-5.932-4.385-8.007M68.273 119.365c-.53-.588-2.058-.084-2.4.627-.863 1.786 1.133 8.443 1.735 9.3.39.553 1-.948 1.467-1.44 1.113-1.177.508-7.033-.802-8.487" fill="#5DB8E7"/><path d="M75.108 116.985s-.955.545-.274 1.874c.943 1.836 2.517 6.91 2.517 6.91.454-.526.724-1.677.724-1.677s-1.927-5.855-2.966-7.108M80.172 116.063s2.79-.16 3.866 1.772c1.896 3.405 4.752 10.43 9.413 12.43l.048.035s-.527.292-.634.32c0 0-1.45-.64-3.38-2.582-1.28-1.29-1.515-1.707-2.706-3.41-1.314-1.875-2.194-4.668-3.41-6.224-.202-.258-1.33-1.58-3.196-2.34" fill="#9CCFEF"/><path d="M99.662 16.508c-.346-.525-.707-1.04-1.095-1.53-3.496-4.433-7.882-7.677-13.345-9.34 0 0-3.224-.578-3.66-1.162-.858-1.122-1.646-2.303-2.58-3.36-.376-.43-1.046-.824-1.596-.84C74.906.198 72.422.26 69.938.27c-1.386.006-2.57.355-3.265 1.714-.394.768-.855 1.508-1.36 2.207-.23.316-.603.583-.967.73-.717.286-1.486.444-2.213.706-5.135 1.856-9.282 5.08-12.704 9.27-1.075 1.315-3.312 4.71-3.312 4.71-.098.195-.2.39-.3.582C42.637 25.284 40.8 31.3 40.8 37.746c0 18.36 14.895 33.245 33.268 33.245 18.374 0 33.27-14.883 33.27-33.244 0-8.075-2.884-15.478-7.676-21.238" fill="#00A1DF"/><g transform="translate(64.527)"><mask id="c" fill="#fff"><use xlink:href="#b"/></mask><path d="M.344 5.14V22.81l17.182.29V5.142l-2.58-3.755S14.175.25 13.352.067c-.67-.15-8.122 0-8.122 0S3.278.064 2.51 1.413L.345 5.14z" fill="#FFF" mask="url(#c)"/></g><path fill="#D0E7F8" d="M68.22 20.29V.58l-.662.256-.256.21-.264.367-2.167 3.24v19.06"/><path fill="#0193D7" d="M78.623 20.368V.5l.44.378.41.507L80.6 3.022l1.454 2.173v18.81"/><g><g transform="translate(49.105 25.548)"><mask id="e" fill="#fff"><use xlink:href="#d"/></mask><path d="M56.94 18.46c0 11.14-8.98 21.23-21.647 24.473-3.05.78-6.21 1.31-9.588 1.31-13.503 0-25.302-7.503-29.787-16.984-.13-.275-.254-.552-.37-.83-1.06-2.505-1.633-5.184-1.633-7.97 0-13.823 14.755-25.397 32.16-25.397 3.234 0 6.332.4 9.233 1.14C48.018-2.558 56.94 7.205 56.94 18.458" fill="#FDCA88" mask="url(#e)"/></g><path d="M64.932 54.242c0 2.245-1.214 4.066-2.712 4.066-1.497 0-2.71-1.82-2.71-4.066 0-2.244 1.213-4.063 2.71-4.063 1.498 0 2.712 1.818 2.712 4.062" fill="#232222"/><g transform="translate(49.105 25.548)"><mask id="g" fill="#fff"><use xlink:href="#f"/></mask><path d="M49.244-4.514c-.73-.823-1.58-1.508-2.57-2-6.403-3.18-12.763-5.145-19.988-5.223-4.768-.052-9.53.705-14.053 2.21C8.55-8.17 3.476-6.328.925-2.702-1.652.957-3.9 5.06-4.178 9.527c-.177 2.83.595 5.804 2.302 8.09.918 1.233 2.095 1.82 3.212 2.79.918.8 1.626 2.27 3.05 2.27.283 0-.79-8.825 3.99-11.467 0 0 16.75 6.934 18.78 3.112-.567-.344-6.737-2.8-6.42-5.51.177-1.512 13.332-1.067 18.806 11.82.962.565 2.487-1.813 2.913-5.332.792-6.554 5.088 11.07 5.207 11.462.055.183 1.888-1.177 2.09-1.476.875-1.29 1.184-3.5 1.606-4.994 1.014-3.583 1.757-7.264 1.82-10.997.072-4.3-.83-10.308-3.934-13.81" fill="#232222" mask="url(#g)"/></g></g><g><path d="M48.29 16.457c-1.186.73-4.652 8.105-4.652 8.105s-.985 9.774 2.09 19.096c0 0 5.017-.278 5-1.578l-1.21-6.625s-.617-2.348-.716-3.15c-.052-.42-.038-1.694-.038-1.694l-.474-14.153z" fill="#9CCFEF"/><path fill="#FFF" d="M64.137 22.79l4.083-2.913h10.9l3.792 2.913 1.582 7.25h-3.55l-1.825-2.647h-10.9l-1.817 2.647h-3.55"/><path fill="#D0E7F8" d="M68.22 19.878L64.14 22.79l-1.286 7.25h3.55l1.82-2.646"/><path fill="#0193D7" d="M79.124 19.878l4.082 2.913 1.287 7.25H80.94l-1.816-2.646"/><path d="M98.76 15.227l2.127 3.167 2.914 4.922s.986 9.773-2.087 19.095c0 0-3.904.088-3.89-1.213 0 0 .516-4.447.938-10.03.47-6.22.346-14.403 0-15.94" fill="#9CCFEF"/><path fill="#FFF" d="M78.974 85.278l-13.218 17.17 6.273-15.872h-4.214l4.056-10.26h7.42l-5.046 8.964M96.76 15.787L82.91 19.672l9.64-5.95-2.24-1.67 6.232-3.847 3.944 2.944-6.244 2.763M50.553 15.787L64.4 19.672l-9.64-5.95 2.24-1.67-6.232-3.847-3.944 2.944 6.243 2.763M65.642 97.963c-2.67-1.887-4.266-4.963-4.266-8.228 0-4.174 2.513-7.855 6.404-9.378.202-.078.407-.15.616-.217l.106.334c-.2.064-.4.134-.594.21-3.755 1.47-6.18 5.022-6.18 9.05 0 3.153 1.54 6.12 4.117 7.942l-.203.287zM71.45 99.803c-.452 0-.905-.03-1.345-.09l.047-.347c.425.057.862.086 1.298.086 5.362 0 9.724-4.358 9.724-9.717 0-1.135-.195-2.25-.578-3.31l.33-.118c.398 1.098.6 2.25.6 3.428 0 5.552-4.52 10.068-10.076 10.068"/><path fill="#9CCFEF" d="M83.207 22.79l-1.154-.823V5.195l-1.454-2.173-1.126-1.637-.412-.507-.44-.378v19.868l.502.53v6.495l1.817 2.648h3.552"/><path fill="#9CCFEF" d="M62.852 30.04l5.37-4.128h10.9l5.372 4.13h-3.55l-1.826-2.65H68.22l-1.817 2.65"/><path d="M88.802 54.242c0 2.244-1.215 4.065-2.712 4.065s-2.71-1.82-2.71-4.065c0-2.244 1.213-4.064 2.71-4.064 1.497 0 2.712 1.82 2.712 4.064" fill="#232222"/></g></g></svg>