<?xml version="1.0" encoding="UTF-8" standalone="no"?>
<svg width="3857px" height="745px" viewBox="0 0 3857 745" version="1.1" xmlns="http://www.w3.org/2000/svg" xmlns:xlink="http://www.w3.org/1999/xlink" xmlns:sketch="http://www.bohemiancoding.com/sketch/ns">
    <!-- Generator: Sketch 3.3.3 (12081) - http://www.bohemiancoding.com/sketch -->
    <title>header bkgd</title>
    <desc>Created with Sketch.</desc>
    <defs>
        <path id="path-1" d="M0.2734375,0 L2829.24219,0 L3857,0 L0.2734375,744.390625 L0.2734375,0 Z"></path>
    </defs>
    <g id="Page-1" stroke="none" stroke-width="1" fill="none" fill-rule="evenodd" sketch:type="MSPage">
        <g id="desktop-wide" sketch:type="MSArtboardGroup" transform="translate(-277.000000, 0.000000)">
            <g id="header-bkgd" sketch:type="MSLayerGroup" transform="translate(277.000000, 0.000000)">
                <mask id="mask-2" sketch:name="bkgd" fill="white">
                    <use xlink:href="#path-1"></use>
                </mask>
                <use id="bkgd" fill="#0577DA" sketch:type="MSShapeGroup" xlink:href="#path-1"></use>
                <g id="background-shapes" transform="translate(35.000000, 245.000000)" fill="#FFFFFF" opacity="0.5" sketch:type="MSShapeGroup">
                    <path d="M590.753425,344 C590.753425,358.911679 578.720301,371 563.876712,371 C549.033123,371 537,358.911679 537,344 C537,329.088321 549.033123,317 563.876712,317 C578.720301,317 590.753425,329.088321 590.753425,344 L590.753425,344 Z M563.876712,317.54 C549.329753,317.54 537.537534,329.386312 537.537534,344 C537.537534,358.61344 549.329753,370.459752 563.876712,370.459752 C578.423425,370.459752 590.21589,358.61344 590.21589,344 C590.21589,329.386312 578.423425,317.54 563.876712,317.54 L563.876712,317.54 Z" id="circle"></path>
                    <path d="M1610.75342,124 C1610.75342,138.911679 1598.7203,151 1583.87671,151 C1569.03312,151 1557,138.911679 1557,124 C1557,109.088321 1569.03312,97 1583.87671,97 C1598.7203,97 1610.75342,109.088321 1610.75342,124 L1610.75342,124 Z M1583.87671,97.54 C1569.32975,97.54 1557.53753,109.386312 1557.53753,124 C1557.53753,138.61344 1569.32975,150.459752 1583.87671,150.459752 C1598.42342,150.459752 1610.21589,138.61344 1610.21589,124 C1610.21589,109.386312 1598.42342,97.54 1583.87671,97.54 L1583.87671,97.54 Z" id="circle-copy"></path>
                    <path d="M140.753425,324 C140.753425,338.911679 128.720301,351 113.876712,351 C99.0331233,351 87,338.911679 87,324 C87,309.088321 99.0331233,297 113.876712,297 C128.720301,297 140.753425,309.088321 140.753425,324 L140.753425,324 Z M113.876712,297.54 C99.3297534,297.54 87.5375342,309.386312 87.5375342,324 C87.5375342,338.61344 99.3297534,350.459752 113.876712,350.459752 C128.423425,350.459752 140.21589,338.61344 140.21589,324 C140.21589,309.386312 128.423425,297.54 113.876712,297.54 L113.876712,297.54 Z" id="circle-copy-2"></path>
                    <path d="M751.486462,281.750129 L728.444595,266.206453 C727.601898,265.676875 726.993323,266.281935 726.993323,266.281935 L707.331358,283.511288 C706.899815,283.848905 706.903653,284.424785 706.903653,284.424785 L706.903653,305.809729 C706.903653,305.880388 706.914208,306.117926 707.038226,306.368486 C707.156966,306.608436 707.4086,306.798949 707.4086,306.798949 L728.775388,322.230488 C729.068281,322.382175 729.202134,322.451869 729.562433,322.433541 C729.922492,322.415454 730.213706,322.173334 730.213706,322.173334 L748.087369,307.342272 C748.087369,307.342272 748.414805,307.119444 748.493245,306.587697 L751.98757,282.932756 C751.98757,282.932756 752.038185,282.633241 751.919205,282.303099 C751.810779,282.001654 751.600405,281.841045 751.486462,281.750129 L751.486462,281.750129 Z M751.3718,282.40149 L730.739282,299.16686 L707.585151,284.009274 C707.632407,283.910159 707.813756,283.744485 707.813756,283.744485 L727.074403,266.847444 C727.074403,266.847444 727.65779,266.153399 728.479137,266.772204 L750.940736,281.917973 C751.236028,282.117168 751.3718,282.40149 751.3718,282.40149 L751.3718,282.40149 Z M728.796018,321.59866 L707.880922,306.538742 C707.880922,306.538742 707.629049,306.342924 707.523022,306.192684 C707.358225,305.959004 707.383892,305.565438 707.383892,305.565438 L707.403562,284.609751 C707.403562,284.609751 707.40716,284.472533 707.416276,284.444801 L730.471816,299.568866 L729.300245,321.809671 C729.056047,321.773498 728.796018,321.59866 728.796018,321.59866 L728.796018,321.59866 Z M751.476867,283.075761 L748.068659,306.392119 C747.991417,306.89734 747.650549,307.134878 747.650549,307.134878 L730.232417,321.558387 C729.920813,321.783868 729.761053,321.791344 729.761053,321.791344 L730.951575,299.548609 L751.488621,282.918769 C751.492459,282.980504 751.476867,283.075761 751.476867,283.075761 L751.476867,283.075761 Z" id="square" transform="translate(729.572268, 294.324947) rotate(-55.000000) translate(-729.572268, -294.324947) "></path>
                    <path d="M1218.02026,193.762825 L1194.97839,178.219148 C1194.13569,177.689571 1193.52712,178.29463 1193.52712,178.29463 L1173.86516,195.523983 C1173.43361,195.861601 1173.43745,196.43748 1173.43745,196.43748 L1173.43745,217.822424 C1173.43745,217.893083 1173.448,218.130621 1173.57202,218.381182 C1173.69076,218.621131 1173.9424,218.811644 1173.9424,218.811644 L1195.30919,234.243183 C1195.60208,234.39487 1195.73593,234.464564 1196.09623,234.446236 C1196.45629,234.428149 1196.7475,234.186029 1196.7475,234.186029 L1214.62117,219.354967 C1214.62117,219.354967 1214.9486,219.13214 1215.02704,218.600392 L1218.52137,194.945451 C1218.52137,194.945451 1218.57198,194.645936 1218.453,194.315794 C1218.34458,194.01435 1218.1342,193.85374 1218.02026,193.762825 L1218.02026,193.762825 Z M1217.9056,194.414185 L1197.27308,211.179555 L1174.11895,196.021969 C1174.1662,195.922854 1174.34755,195.75718 1174.34755,195.75718 L1193.6082,178.860139 C1193.6082,178.860139 1194.19159,178.166094 1195.01293,178.784899 L1217.47453,193.930669 C1217.76982,194.129863 1217.9056,194.414185 1217.9056,194.414185 L1217.9056,194.414185 Z M1195.32981,233.611356 L1174.41472,218.551437 C1174.41472,218.551437 1174.16285,218.355619 1174.05682,218.205379 C1173.89202,217.9717 1173.91769,217.578134 1173.91769,217.578134 L1173.93736,196.622446 C1173.93736,196.622446 1173.94096,196.485229 1173.95007,196.457496 L1197.00561,211.581562 L1195.83404,233.822367 C1195.58984,233.786193 1195.32981,233.611356 1195.32981,233.611356 L1195.32981,233.611356 Z M1218.01066,195.088456 L1214.60246,218.404815 C1214.52521,218.910035 1214.18435,219.147574 1214.18435,219.147574 L1196.76621,233.571083 C1196.45461,233.796563 1196.29485,233.804039 1196.29485,233.804039 L1197.48537,211.561305 L1218.02242,194.931464 C1218.02626,194.9932 1218.01066,195.088456 1218.01066,195.088456 L1218.01066,195.088456 Z" id="square-copy" transform="translate(1196.106064, 206.337642) rotate(29.000000) translate(-1196.106064, -206.337642) "></path>
                    <path d="M1848.02026,23.7628245 L1824.97839,8.21914819 C1824.13569,7.68957076 1823.52712,8.29462985 1823.52712,8.29462985 L1803.86516,25.523983 C1803.43361,25.8616007 1803.43745,26.4374799 1803.43745,26.4374799 L1803.43745,47.8224243 C1803.43745,47.8930828 1803.448,48.130621 1803.57202,48.3811815 C1803.69076,48.6211312 1803.9424,48.8116441 1803.9424,48.8116441 L1825.30919,64.2431831 C1825.60208,64.3948699 1825.73593,64.4645638 1826.09623,64.446236 C1826.45629,64.4281494 1826.7475,64.1860293 1826.7475,64.1860293 L1844.62117,49.3549674 C1844.62117,49.3549674 1844.9486,49.1321397 1845.02704,48.6003919 L1848.52137,24.945451 C1848.52137,24.945451 1848.57198,24.6459359 1848.453,24.315794 C1848.34458,24.0143497 1848.1342,23.8537402 1848.02026,23.7628245 L1848.02026,23.7628245 Z M1847.9056,24.4141855 L1827.27308,41.1795555 L1804.11895,26.0219691 C1804.1662,25.9228542 1804.34755,25.7571803 1804.34755,25.7571803 L1823.6082,8.86013945 C1823.6082,8.86013945 1824.19159,8.16609398 1825.01293,8.78489894 L1847.47453,23.9306688 C1847.76982,24.1298632 1847.9056,24.4141855 1847.9056,24.4141855 L1847.9056,24.4141855 Z M1825.32981,63.6113558 L1804.41472,48.5514373 C1804.41472,48.5514373 1804.16285,48.3556191 1804.05682,48.2053792 C1803.89202,47.9716995 1803.91769,47.5781338 1803.91769,47.5781338 L1803.93736,26.6224462 C1803.93736,26.6224462 1803.94096,26.4852287 1803.95007,26.4574959 L1827.00561,41.5815617 L1825.83404,63.8223668 C1825.58984,63.7861935 1825.32981,63.6113558 1825.32981,63.6113558 L1825.32981,63.6113558 Z M1848.01066,25.0884562 L1844.60246,48.4048148 C1844.52521,48.9100355 1844.18435,49.1475736 1844.18435,49.1475736 L1826.76621,63.5710828 C1826.45461,63.7965632 1826.29485,63.804039 1826.29485,63.804039 L1827.48537,41.5613046 L1848.02242,24.931464 C1848.02626,24.9931998 1848.01066,25.0884562 1848.01066,25.0884562 L1848.01066,25.0884562 Z" id="square-copy-2" transform="translate(1826.106064, 36.337642) rotate(-45.000000) translate(-1826.106064, -36.337642) "></path>
                    <path d="M1090.68294,203.088272 C1090.60395,202.070153 1089.82408,198.997407 1085.22353,196.826023 C1080.62298,194.654055 1074.8538,194.353699 1069.55827,196.281061 C1064.26273,198.209007 1063.22614,201.589407 1063.07936,203.500131 C1062.94643,205.227547 1063.01275,239.86198 1063.04841,240.743201 C1063.08643,241.674337 1063.66618,242.572488 1063.66618,242.572488 C1063.66618,242.572488 1065.31936,245.756153 1069.46012,247.241883 C1074.06037,248.892531 1078.1018,249.108531 1083.28446,247.646737 C1088.46711,246.184942 1090.01477,242.640791 1090.01477,242.640791 L1090.02008,242.64225 C1090.73747,241.066034 1090.63667,240.168174 1090.68559,239.108315 C1090.74837,237.746639 1090.76222,204.105807 1090.68294,203.088272 L1090.68294,203.088272 Z M1068.71443,197.332747 C1071.97717,195.747191 1075.48159,195.51718 1078.39683,195.692899 C1081.025,195.851104 1085.25271,196.972845 1087.73999,199.132553 C1090.22728,201.291677 1091.07052,204.50745 1088.6802,207.198693 C1086.29048,209.889353 1082.40702,210.95038 1079.99313,211.272045 C1077.57923,211.593126 1073.60766,211.671645 1069.56593,210.073828 C1065.5245,208.476304 1063.80618,205.623353 1063.77111,203.565223 C1063.7269,200.958337 1065.4517,198.918304 1068.71443,197.332747 L1068.71443,197.332747 Z M1090.01477,239.856142 C1090.00387,241.443158 1089.36841,242.621526 1089.36841,242.621526 C1089.16239,242.98931 1088.9045,243.351547 1088.5906,243.705028 C1086.20058,246.39598 1082.31713,247.457007 1079.90323,247.77838 C1077.48934,248.099753 1073.51806,248.17798 1069.47633,246.580455 C1066.96075,245.585688 1065.3453,244.105212 1064.47523,242.632618 C1064.47523,242.632618 1063.71275,241.479645 1063.72424,240.811212 L1063.75608,206.066153 C1063.75608,206.066153 1065.40926,209.249818 1069.54972,210.735547 C1074.15027,212.386196 1078.1917,212.601904 1083.37435,211.140401 C1088.557,209.678607 1090.10467,206.134164 1090.10467,206.134164 C1090.10467,206.134164 1090.0242,238.498553 1090.01477,239.856142 L1090.01477,239.856142 Z" id="Imported-Layers" transform="translate(1077.000000, 222.000000) rotate(28.000000) translate(-1077.000000, -222.000000) "></path>
                    <path d="M420.682939,313.088272 C420.60395,312.070153 419.824076,308.997407 415.223529,306.826023 C410.622981,304.654055 404.853802,304.353699 399.558266,306.281061 C394.262729,308.209007 393.226139,311.589407 393.07936,313.500131 C392.946434,315.227547 393.01275,349.86198 393.048413,350.743201 C393.086434,351.674337 393.666181,352.572488 393.666181,352.572488 C393.666181,352.572488 395.31936,355.756153 399.460118,357.241883 C404.060371,358.892531 408.101802,359.108531 413.284455,357.646737 C418.467108,356.184942 420.014771,352.640791 420.014771,352.640791 L420.020076,352.64225 C420.737466,351.066034 420.636666,350.168174 420.685592,349.108315 C420.748371,347.746639 420.762223,314.105807 420.682939,313.088272 L420.682939,313.088272 Z M398.714434,307.332747 C401.977171,305.747191 405.481592,305.51718 408.396834,305.692899 C411.025002,305.851104 415.252708,306.972845 417.739992,309.132553 C420.227276,311.291677 421.070518,314.50745 418.680202,317.198693 C416.290476,319.889353 412.407023,320.95038 409.993129,321.272045 C407.579234,321.593126 403.607655,321.671645 399.565929,320.073828 C395.524497,318.476304 393.806181,315.623353 393.771108,313.565223 C393.726897,310.958337 395.451697,308.918304 398.714434,307.332747 L398.714434,307.332747 Z M420.014771,349.856142 C420.003866,351.443158 419.368413,352.621526 419.368413,352.621526 C419.162392,352.98931 418.904497,353.351547 418.590602,353.705028 C416.200581,356.39598 412.317129,357.457007 409.903234,357.77838 C407.489339,358.099753 403.518055,358.17798 399.476329,356.580455 C396.96075,355.585688 395.345297,354.105212 394.475234,352.632618 C394.475234,352.632618 393.71275,351.479645 393.724245,350.811212 L393.756076,316.066153 C393.756076,316.066153 395.409255,319.249818 399.549718,320.735547 C404.150266,322.386196 408.191697,322.601904 413.37435,321.140401 C418.557002,319.678607 420.104666,316.134164 420.104666,316.134164 C420.104666,316.134164 420.024202,348.498553 420.014771,349.856142 L420.014771,349.856142 Z" id="Imported-Layers-Copy-11" transform="translate(407.000000, 332.000000) rotate(28.000000) translate(-407.000000, -332.000000) "></path>
                    <path d="M1460.68294,133.088272 C1460.60395,132.070153 1459.82408,128.997407 1455.22353,126.826023 C1450.62298,124.654055 1444.8538,124.353699 1439.55827,126.281061 C1434.26273,128.209007 1433.22614,131.589407 1433.07936,133.500131 C1432.94643,135.227547 1433.01275,169.86198 1433.04841,170.743201 C1433.08643,171.674337 1433.66618,172.572488 1433.66618,172.572488 C1433.66618,172.572488 1435.31936,175.756153 1439.46012,177.241883 C1444.06037,178.892531 1448.1018,179.108531 1453.28446,177.646737 C1458.46711,176.184942 1460.01477,172.640791 1460.01477,172.640791 L1460.02008,172.64225 C1460.73747,171.066034 1460.63667,170.168174 1460.68559,169.108315 C1460.74837,167.746639 1460.76222,134.105807 1460.68294,133.088272 L1460.68294,133.088272 Z M1438.71443,127.332747 C1441.97717,125.747191 1445.48159,125.51718 1448.39683,125.692899 C1451.025,125.851104 1455.25271,126.972845 1457.73999,129.132553 C1460.22728,131.291677 1461.07052,134.50745 1458.6802,137.198693 C1456.29048,139.889353 1452.40702,140.95038 1449.99313,141.272045 C1447.57923,141.593126 1443.60766,141.671645 1439.56593,140.073828 C1435.5245,138.476304 1433.80618,135.623353 1433.77111,133.565223 C1433.7269,130.958337 1435.4517,128.918304 1438.71443,127.332747 L1438.71443,127.332747 Z M1460.01477,169.856142 C1460.00387,171.443158 1459.36841,172.621526 1459.36841,172.621526 C1459.16239,172.98931 1458.9045,173.351547 1458.5906,173.705028 C1456.20058,176.39598 1452.31713,177.457007 1449.90323,177.77838 C1447.48934,178.099753 1443.51806,178.17798 1439.47633,176.580455 C1436.96075,175.585688 1435.3453,174.105212 1434.47523,172.632618 C1434.47523,172.632618 1433.71275,171.479645 1433.72424,170.811212 L1433.75608,136.066153 C1433.75608,136.066153 1435.40926,139.249818 1439.54972,140.735547 C1444.15027,142.386196 1448.1917,142.601904 1453.37435,141.140401 C1458.557,139.678607 1460.10467,136.134164 1460.10467,136.134164 C1460.10467,136.134164 1460.0242,168.498553 1460.01477,169.856142 L1460.01477,169.856142 Z" id="Imported-Layers-Copy-7" transform="translate(1447.000000, 152.000000) rotate(58.000000) translate(-1447.000000, -152.000000) "></path>
                    <path d="M200.483952,401.323293 C201.079352,401.788004 201.680212,401.546064 201.680212,401.546064 L241.599312,388.611094 L251.714872,374.084606 C251.714872,374.084606 252.076792,373.631034 251.859432,372.969197 C251.641812,372.307359 251.030812,372.150124 251.030812,372.150124 L210.770072,359.063878 C210.770072,359.063878 210.446892,358.940058 210.029332,359.037197 C209.546772,359.149618 209.279492,359.548016 209.279492,359.548016 L200.951952,371.574028 C200.728352,371.879691 200.721332,372.267727 200.721332,372.267727 L200.002172,400.283263 C200.002172,400.283263 199.939772,400.898733 200.483952,401.323293 L200.483952,401.323293 Z M200.915032,400.785275 C200.486812,400.47754 200.586392,399.528173 200.586392,399.528173 L201.258232,372.503191 C201.258232,372.503191 201.268112,372.273944 201.333892,372.107124 L240.456092,388.427438 L202.284712,400.791492 C202.284712,400.791492 201.352612,401.099745 200.915032,400.785275 L200.915032,400.785275 Z M251.284312,373.197926 C251.374532,373.664709 250.861812,374.356594 250.861812,374.356594 L241.214252,388.20104 L201.629252,371.644227 L209.498932,360.161673 C209.498932,360.161673 209.768292,359.729341 210.150232,359.636088 C210.571432,359.53351 210.922692,359.684787 210.922692,359.684787 L250.214152,372.422371 C250.214152,372.422371 251.176152,372.636853 251.284312,373.197926 L251.284312,373.197926 Z" id="Imported-Layers"></path>
                    <path d="M1930.48395,71.3232932 C1931.07935,71.788004 1931.68021,71.5460643 1931.68021,71.5460643 L1971.59931,58.6110944 L1981.71487,44.0846064 C1981.71487,44.0846064 1982.07679,43.6310341 1981.85943,42.9691968 C1981.64181,42.3073594 1981.03081,42.1501245 1981.03081,42.1501245 L1940.77007,29.0638775 C1940.77007,29.0638775 1940.44689,28.9400582 1940.02933,29.0371968 C1939.54677,29.1496185 1939.27949,29.5480161 1939.27949,29.5480161 L1930.95195,41.5740281 C1930.72835,41.8796908 1930.72133,42.2677269 1930.72133,42.2677269 L1930.00217,70.283263 C1930.00217,70.283263 1929.93977,70.8987329 1930.48395,71.3232932 L1930.48395,71.3232932 Z M1930.91503,70.7852751 C1930.48681,70.4775402 1930.58639,69.5281727 1930.58639,69.5281727 L1931.25823,42.5031908 C1931.25823,42.5031908 1931.26811,42.2739438 1931.33389,42.1071245 L1970.45609,58.4274377 L1932.28471,70.791492 C1932.28471,70.791492 1931.35261,71.099745 1930.91503,70.7852751 L1930.91503,70.7852751 Z M1981.28431,43.1979257 C1981.37453,43.6647088 1980.86181,44.3565944 1980.86181,44.3565944 L1971.21425,58.2010402 L1931.62925,41.6442269 L1939.49893,30.1616727 C1939.49893,30.1616727 1939.76829,29.7293414 1940.15023,29.6360883 C1940.57143,29.53351 1940.92269,29.6847871 1940.92269,29.6847871 L1980.21415,42.4223715 C1980.21415,42.4223715 1981.17615,42.6368534 1981.28431,43.1979257 L1981.28431,43.1979257 Z" id="Imported-Layers-Copy-9"></path>
                    <path d="M1338.3705,140.690074 L1344.63611,116.327089 C1344.63611,116.327089 1344.71766,116.085948 1344.61823,115.785746 C1344.51782,115.483391 1344.2938,115.32048 1344.2938,115.32048 L1323.18369,99.2028083 C1323.18369,99.2028083 1322.95456,98.9998046 1322.58101,99.0000001 C1322.25028,99.0001957 1321.98441,99.1961588 1321.98441,99.1961588 L1300.38264,115.963912 C1300.24175,116.073432 1300.0647,116.292668 1300.01242,116.598151 C1299.95996,116.90383 1300.09063,117.138908 1300.09063,117.138908 L1310.65699,141.18976 C1310.76232,141.429336 1310.94998,141.572495 1310.94998,141.572495 L1322.87557,151.620199 C1322.87557,151.620199 1323.15736,151.85821 1323.49987,151.84452 C1323.89426,151.828679 1324.07111,151.656967 1324.07111,151.656967 L1338.01974,141.240218 C1338.01974,141.240218 1338.2976,141.053838 1338.3705,140.690074 L1338.3705,140.690074 Z M1344.17432,115.855565 L1320.81834,132.343845 L1300.51489,116.557472 C1300.51489,116.557472 1300.56834,116.265484 1300.86271,116.037642 L1321.99306,99.6933027 C1321.99306,99.6933027 1322.23614,99.460181 1322.61087,99.464288 C1322.90249,99.4674171 1323.1831,99.7075795 1323.1831,99.7075795 L1343.89863,115.518008 C1344.10063,115.687568 1344.17432,115.855565 1344.17432,115.855565 L1344.17432,115.855565 Z M1322.86299,151.112886 L1311.23472,141.289502 C1311.23472,141.289502 1311.08262,141.189956 1310.98456,140.966417 L1300.52511,117.089037 L1320.63638,132.71641 L1323.17937,151.294377 C1323.17937,151.294377 1323.00998,151.241963 1322.86299,151.112886 L1322.86299,151.112886 Z M1337.65031,141.01179 L1324.07308,151.168233 C1323.90487,151.311391 1323.58574,151.35031 1323.58574,151.35031 L1321.02939,132.691963 L1344.23485,116.287779 C1344.23426,116.335107 1344.20577,116.480026 1344.20577,116.480026 L1338.01286,140.459103 C1337.94015,140.802528 1337.65031,141.01179 1337.65031,141.01179 L1337.65031,141.01179 Z" id="Imported-Layers"></path>
                    <path d="M38.3705032,430.690074 L44.6361146,406.327089 C44.6361146,406.327089 44.7176648,406.085948 44.6182325,405.785746 C44.5178176,405.483391 44.2938001,405.32048 44.2938001,405.32048 L23.183691,389.202808 C23.183691,389.202808 22.9545643,388.999805 22.5810054,389 C22.2502849,389.000196 21.9844115,389.196159 21.9844115,389.196159 L0.382642938,405.963912 C0.241747741,406.073432 0.0646953397,406.292668 0.0124245973,406.598151 C-0.0400426516,406.90383 0.0906342043,407.138908 0.0906342043,407.138908 L10.6569879,431.18976 C10.7623154,431.429336 10.9499792,431.572495 10.9499792,431.572495 L22.8755687,441.620199 C22.8755687,441.620199 23.1573591,441.85821 23.49987,441.84452 C23.8942587,441.828679 24.0711146,441.656967 24.0711146,441.656967 L38.019739,431.240218 C38.019739,431.240218 38.2975993,431.053838 38.3705032,430.690074 L38.3705032,430.690074 Z M44.1743242,405.855565 L20.8183416,422.343845 L0.514891846,406.557472 C0.514891846,406.557472 0.568341628,406.265484 0.86270844,406.037642 L21.9930578,389.693303 C21.9930578,389.693303 22.2361364,389.460181 22.6108744,389.464288 C22.9024901,389.467417 23.1831015,389.707579 23.1831015,389.707579 L43.8986255,405.518008 C44.1006342,405.687568 44.1743242,405.855565 44.1743242,405.855565 L44.1743242,405.855565 Z M22.8629923,441.112886 L11.2347172,431.289502 C11.2347172,431.289502 11.0826211,431.189956 10.9845643,430.966417 L0.525110187,407.089037 L20.6363766,422.71641 L23.1793678,441.294377 C23.1793678,441.294377 23.0099792,441.241963 22.8629923,441.112886 L22.8629923,441.112886 Z M37.6503067,431.01179 L24.0730796,441.168233 C23.90487,441.311391 23.5857434,441.35031 23.5857434,441.35031 L21.0293897,422.691963 L44.2348482,406.287779 C44.2342587,406.335107 44.2057652,406.480026 44.2057652,406.480026 L38.0128613,430.459103 C37.9401539,430.802528 37.6503067,431.01179 37.6503067,431.01179 L37.6503067,431.01179 Z" id="Imported-Layers-Copy-10"></path>
                    <path d="M924.794604,196.157774 L873.655595,224.31033 C873.655595,224.31033 873.036109,224.633236 873.001539,225.365848 C872.965202,226.135154 873.584436,226.489946 873.584436,226.489946 L924.745651,257.54486 C924.745651,257.54486 925.319716,257.940395 925.996483,257.574721 C926.673501,257.209301 926.651043,256.493897 926.651043,256.493897 L926.680315,197.260615 C926.680315,197.260615 926.722959,196.613032 926.101455,196.195734 C925.47995,195.778689 924.794604,196.157774 924.794604,196.157774 L924.794604,196.157774 Z M925.361604,196.581399 L905.327604,226.119211 L873.572324,225.148468 C873.572324,225.148468 873.656352,224.802027 874.591511,224.31033 L924.312894,196.953905 C925.097408,196.541921 925.361604,196.581399 925.361604,196.581399 L925.361604,196.581399 Z M924.250567,256.619415 L874.498903,226.490452 C874.498903,226.490452 873.645754,226.019758 873.593268,225.687742 L905.327604,226.625334 L925.395922,257.135407 C925.132987,257.135407 924.250567,256.619415 924.250567,256.619415 L924.250567,256.619415 Z M926.168829,198.067121 L926.168829,255.563391 C926.205417,256.877285 925.899586,256.972942 925.899586,256.972942 L905.800735,226.379864 L925.885959,196.747407 C926.229137,196.862044 926.168829,198.067121 926.168829,198.067121 L926.168829,198.067121 Z" id="Imported-Layers"></path>
                    <path d="M1734.7946,96.1577744 L1683.65559,124.31033 C1683.65559,124.31033 1683.03611,124.633236 1683.00154,125.365848 C1682.9652,126.135154 1683.58444,126.489946 1683.58444,126.489946 L1734.74565,157.54486 C1734.74565,157.54486 1735.31972,157.940395 1735.99648,157.574721 C1736.6735,157.209301 1736.65104,156.493897 1736.65104,156.493897 L1736.68031,97.2606152 C1736.68031,97.2606152 1736.72296,96.6130316 1736.10145,96.1957336 C1735.47995,95.7786887 1734.7946,96.1577744 1734.7946,96.1577744 L1734.7946,96.1577744 Z M1735.3616,96.5813989 L1715.3276,126.119211 L1683.57232,125.148468 C1683.57232,125.148468 1683.65635,124.802027 1684.59151,124.31033 L1734.31289,96.953905 C1735.09741,96.5419214 1735.3616,96.5813989 1735.3616,96.5813989 L1735.3616,96.5813989 Z M1734.25057,156.619415 L1684.4989,126.490452 C1684.4989,126.490452 1683.64575,126.019758 1683.59327,125.687742 L1715.3276,126.625334 L1735.39592,157.135407 C1735.13299,157.135407 1734.25057,156.619415 1734.25057,156.619415 L1734.25057,156.619415 Z M1736.16883,98.0671214 L1736.16883,155.563391 C1736.20542,156.877285 1735.89959,156.972942 1735.89959,156.972942 L1715.80074,126.379864 L1735.88596,96.7474071 C1736.22914,96.8620438 1736.16883,98.0671214 1736.16883,98.0671214 L1736.16883,98.0671214 Z" id="Imported-Layers-Copy-8"></path>
                    <path d="M303.284692,281.122148 L263.509907,302.917674 C263.509907,302.917674 263.028085,303.167666 263.001197,303.73485 C262.972935,304.330442 263.454561,304.605119 263.454561,304.605119 L303.246617,328.647634 C303.246617,328.647634 303.693113,328.953854 304.219487,328.670752 C304.746057,328.387846 304.728589,327.833985 304.728589,327.833985 L304.751356,281.97596 C304.751356,281.97596 304.784524,281.474605 304.301131,281.151536 C303.817739,280.828662 303.284692,281.122148 303.284692,281.122148 L303.284692,281.122148 Z M303.725692,281.450115 L288.143692,304.318099 L263.445141,303.566556 C263.445141,303.566556 263.510496,303.298344 264.237842,302.917674 L302.910029,281.738507 C303.520206,281.419552 303.725692,281.450115 303.725692,281.450115 L303.725692,281.450115 Z M302.861552,327.93116 L264.165814,304.605511 C264.165814,304.605511 263.502253,304.241103 263.461431,303.984058 L288.143692,304.709936 L303.752384,328.330638 C303.547879,328.330638 302.861552,327.93116 302.861552,327.93116 L302.861552,327.93116 Z M304.353533,282.600352 L304.353533,327.113593 C304.381991,328.130801 304.144122,328.204858 304.144122,328.204858 L288.511683,304.519895 L304.133524,281.578638 C304.40044,281.667389 304.353533,282.600352 304.353533,282.600352 L304.353533,282.600352 Z" id="Imported-Layers-Copy-12" transform="translate(284.000000, 305.000000) rotate(-70.000000) translate(-284.000000, -305.000000) "></path>
                </g>
            </g>
        </g>
    </g>
</svg>