<svg width="3857" height="745" xmlns="http://www.w3.org/2000/svg" xmlns:xlink="http://www.w3.org/1999/xlink"><defs><path id="a" d="M.273 0H3857L.273 744.39V0z"/></defs><g fill="none" fill-rule="evenodd"><use fill="#0577DA" xlink:href="#a"/><g fill="#FFF" opacity=".5"><path d="M625.753 589c0 14.912-12.033 27-26.876 27C584.033 616 572 603.912 572 589s12.033-27 26.877-27c14.843 0 26.876 12.088 26.876 27zm-26.876-26.46c-14.547 0-26.34 11.846-26.34 26.46 0 14.613 11.793 26.46 26.34 26.46 14.546 0 26.34-11.847 26.34-26.46 0-14.614-11.794-26.46-26.34-26.46zM1645.753 369c0 14.912-12.033 27-26.876 27-14.844 0-26.877-12.088-26.877-27s12.033-27 26.877-27c14.843 0 26.876 12.088 26.876 27zm-26.876-26.46c-14.547 0-26.34 11.846-26.34 26.46 0 14.613 11.793 26.46 26.34 26.46 14.546 0 26.34-11.847 26.34-26.46 0-14.614-11.794-26.46-26.34-26.46zM175.753 569c0 14.912-12.033 27-26.876 27C134.033 596 122 583.912 122 569s12.033-27 26.877-27c14.843 0 26.876 12.088 26.876 27zm-26.876-26.46c-14.547 0-26.34 11.846-26.34 26.46 0 14.613 11.793 26.46 26.34 26.46 14.546 0 26.34-11.847 26.34-26.46 0-14.614-11.794-26.46-26.34-26.46zM766.84 514.16l-25.948 9.96c-.917.387-.77 1.233-.77 1.233l2.835 25.988c.03.548.503.875.503.875l17.518 12.266c.058.042.258.17.535.212.264.04.565-.057.565-.057l24.896-8.65c.292-.154.426-.224.618-.53.192-.305.16-.682.16-.682l-1.897-23.148s.006-.396-.385-.766l-17.373-16.43s-.216-.214-.555-.306c-.31-.084-.56-.004-.7.037zm.47.47l1.898 26.516-25.697 10.273c-.053-.097-.085-.34-.085-.34l-2.794-25.47s-.233-.875.745-1.193l25.29-9.712c.333-.128.644-.076.644-.076zm19.158 40.974l-24.332 8.495s-.305.093-.49.094c-.285 0-.593-.246-.593-.246L743.9 551.912s-.112-.082-.13-.105l25.614-10.21 17.546 13.715c-.17.18-.462.292-.462.292zM767.92 514.93l17.146 16.165c.37.353.37.77.37.77l1.823 22.54c.005.384-.08.52-.08.52l-17.538-13.734-1.842-26.36c.052.032.12.1.12.1zM1256.37 450.964l-12.618-24.766c-.48-.872-1.306-.638-1.306-.638l-25.55 5.537c-.54.086-.817.592-.817.592l-10.368 18.702c-.035.062-.14.275-.153.554-.014.268.114.556.114.556l11.206 23.856c.183.275.266.4.59.56.324.158.696.087.696.087l22.823-4.306s.393-.037.72-.464l14.524-18.995s.19-.236.245-.583c.05-.316-.055-.56-.11-.693zm-.417.514l-26.174 4.66-12.903-24.482c.09-.064.328-.12.328-.12l25.038-5.442s.846-.324 1.265.616l12.302 24.136c.162.317.143.632.143.632zm-38.748 23.337l-10.992-23.31s-.125-.294-.145-.477c-.03-.285.182-.616.182-.616l10.177-18.32s.07-.117.09-.137l12.834 24.405-11.807 18.884c-.196-.15-.338-.43-.338-.43zm38.513-22.697l-14.285 18.74c-.312.405-.726.448-.726.448l-22.227 4.17c-.38.047-.525-.024-.525-.024l11.825-18.877 26.024-4.588c-.026.056-.086.13-.086.13zM1867.71 256.95l-27.284 5.302c-.97.222-.973 1.08-.973 1.08l-1.72 26.086c-.066.544.343.948.343.948l15.122 15.122c.05.05.225.21.49.3.254.085.566.042.566.042l26.02-4.197c.315-.1.46-.145.7-.413.243-.267.277-.644.277-.644l2.153-23.126s.074-.39-.247-.82l-14.255-19.198s-.175-.247-.493-.397c-.29-.136-.552-.1-.697-.085zm.38.542l-2.735 26.444-27.09 5.655c-.037-.103-.026-.348-.026-.348l1.67-25.568s-.078-.903.94-1.046l26.593-5.173c.35-.068.647.037.647.037zm11.753 43.68l-25.44 4.14s-.315.04-.496.01c-.282-.05-.542-.347-.542-.347l-14.804-14.83s-.094-.1-.107-.127l26.997-5.608 14.898 16.555c-.198.147-.505.207-.505.207zm-11.202-43.278l14.078 18.897c.302.413.23.822.23.822l-2.118 22.516c-.06.38-.17.498-.17.498l-14.885-16.57 2.763-26.28c.046.04.103.118.103.118zM1132.96 456.726c.408-.936 1.162-4.016-1.88-8.093-3.043-4.077-7.996-7.05-13.576-7.835-5.58-.784-8.083 1.714-9.11 3.332-.928 1.463-17.13 32.075-17.512 32.87-.403.84-.313 1.905-.313 1.905s-.036 3.587 2.922 6.843c3.287 3.617 6.754 5.705 12.016 6.847 5.263 1.143 8.293-1.26 8.293-1.26l.005.004c1.374-1.056 1.706-1.896 2.247-2.81.694-1.172 16.5-30.87 16.908-31.804zm-16.695-15.396c3.625.132 6.827 1.574 9.32 3.098 2.245 1.374 5.45 4.35 6.633 7.423 1.183 3.075.418 6.31-2.956 7.565-3.373 1.254-7.3.367-9.583-.482-2.283-.85-5.826-2.645-8.645-5.953-2.818-3.308-2.996-6.634-2.06-8.468 1.184-2.322 3.665-3.314 7.29-3.182zm-1.157 47.546c-.754 1.396-1.87 2.138-1.87 2.138-.353.228-.75.427-1.194.592-3.374 1.254-7.3.367-9.583-.482-2.28-.85-5.824-2.645-8.643-5.953-1.754-2.058-2.485-4.124-2.562-5.833 0 0-.132-1.375.192-1.96l16.34-30.663s-.035 3.587 2.923 6.842c3.287 3.618 6.754 5.705 12.016 6.848 5.263 1.143 8.293-1.26 8.293-1.26s-15.266 28.538-15.912 29.732zM462.96 566.726c.408-.936 1.162-4.016-1.88-8.093-3.043-4.077-7.996-7.05-13.576-7.835-5.58-.784-8.083 1.714-9.11 3.332-.928 1.463-17.13 32.075-17.512 32.87-.403.84-.313 1.905-.313 1.905s-.036 3.587 2.922 6.842c3.287 3.618 6.754 5.706 12.016 6.848 5.263 1.143 8.293-1.26 8.293-1.26l.005.004c1.374-1.056 1.706-1.896 2.247-2.81.694-1.172 16.5-30.87 16.908-31.804zm-16.695-15.396c3.625.132 6.827 1.574 9.32 3.098 2.245 1.374 5.45 4.35 6.633 7.423 1.183 3.075.418 6.31-2.956 7.565-3.373 1.254-7.3.367-9.583-.482-2.283-.85-5.826-2.645-8.645-5.953-2.818-3.308-2.996-6.634-2.06-8.468 1.184-2.322 3.665-3.314 7.29-3.182zm-1.157 47.546c-.754 1.396-1.87 2.138-1.87 2.138-.353.228-.75.427-1.194.592-3.374 1.254-7.3.367-9.583-.482-2.28-.85-5.824-2.645-8.643-5.953-1.754-2.058-2.485-4.124-2.562-5.833 0 0-.132-1.375.192-1.96l16.34-30.663s-.035 3.587 2.923 6.842c3.287 3.618 6.754 5.705 12.016 6.848 5.263 1.143 8.293-1.26 8.293-1.26s-15.266 28.538-15.912 29.732zM1505.29 398.582c.82-.606 3.013-2.896 2.417-7.948-.596-5.053-3.4-10.104-7.84-13.574-4.44-3.47-7.857-2.557-9.555-1.67-1.535.804-30.872 19.214-31.6 19.71-.77.526-1.224 1.494-1.224 1.494s-1.824 3.09-.89 7.388c1.038 4.776 2.997 8.318 6.983 11.938 3.987 3.62 7.812 3.055 7.812 3.055l.002.005c1.717-.227 2.425-.788 3.35-1.308 1.188-.668 29.724-18.483 30.545-19.09zm-6.762-21.68c3.074 1.927 5.126 4.777 6.522 7.342 1.258 2.313 2.548 6.492 2.034 9.746-.513 3.254-2.793 5.673-6.342 5.072-3.548-.6-6.506-3.332-8.058-5.21-1.552-1.876-3.723-5.202-4.51-9.476-.786-4.274.723-7.243 2.45-8.364 2.187-1.42 4.83-1.037 7.904.89zm-24.774 40.597c-1.352.83-2.688.917-2.688.917-.42.02-.865-.007-1.33-.086-3.55-.6-6.507-3.33-8.06-5.207-1.55-1.877-3.72-5.204-4.508-9.478-.49-2.66-.09-4.815.697-6.333 0 0 .574-1.258 1.147-1.602l29.482-18.385s-1.823 3.09-.89 7.388c1.04 4.776 2.998 8.317 6.983 11.938 3.986 3.622 7.812 3.056 7.812 3.056s-27.49 17.082-28.646 17.793zM235.484 646.323c.595.465 1.196.223 1.196.223l39.92-12.935 10.115-14.525s.362-.454.144-1.116c-.218-.663-.83-.82-.83-.82l-40.26-13.086s-.323-.124-.74-.027c-.483.113-.75.51-.75.51l-8.328 12.027c-.224.306-.23.694-.23.694l-.72 28.015s-.062.616.482 1.04zm.43-.538c-.427-.307-.328-1.257-.328-1.257l.672-27.025s.01-.23.076-.396l39.122 16.32-38.17 12.364s-.933.31-1.37-.005zm50.37-27.587c.09.467-.422 1.16-.422 1.16l-9.648 13.843-39.585-16.556 7.87-11.482s.268-.433.65-.526c.42-.102.773.05.773.05l39.29 12.736s.963.215 1.07.776zM1965.484 316.323c.595.465 1.196.223 1.196.223l39.92-12.935 10.115-14.525s.362-.454.144-1.116c-.218-.663-.83-.82-.83-.82l-40.26-13.086s-.323-.124-.74-.027c-.483.113-.75.51-.75.51l-8.328 12.027c-.224.306-.23.694-.23.694l-.72 28.015s-.062.616.482 1.04zm.43-.538c-.427-.307-.328-1.257-.328-1.257l.672-27.025s.01-.23.076-.396l39.122 16.32-38.17 12.364s-.933.31-1.37-.005zm50.37-27.587c.09.467-.422 1.16-.422 1.16l-9.648 13.843-39.585-16.556 7.87-11.482s.268-.433.65-.526c.42-.102.773.05.773.05l39.29 12.736s.963.215 1.07.776zM1373.37 385.69l6.266-24.363s.082-.24-.018-.54c-.1-.304-.324-.467-.324-.467l-21.11-16.117s-.23-.203-.603-.203c-.33 0-.596.196-.596.196l-21.6 16.768c-.142.11-.32.33-.372.634-.052.306.08.54.08.54l10.565 24.052c.105.24.293.382.293.382l11.926 10.048s.28.238.624.225c.394-.016.57-.188.57-.188l13.95-10.417s.278-.186.35-.55zm5.804-24.834l-23.356 16.488-20.303-15.787s.053-.292.348-.52l21.13-16.344s.243-.233.618-.23c.292.004.573.245.573.245l20.716 15.81c.2.17.274.338.274.338zm-21.31 35.257l-11.63-9.823s-.15-.1-.25-.324l-10.46-23.877 20.112 15.626 2.543 18.578s-.17-.052-.317-.18zm14.786-10.1l-13.577 10.155c-.168.143-.487.182-.487.182l-2.557-18.658 23.205-16.404c0 .047-.03.192-.03.192l-6.192 23.98c-.073.343-.363.552-.363.552zM73.37 675.69l6.266-24.363s.082-.24-.018-.54c-.1-.304-.324-.467-.324-.467l-21.11-16.117s-.23-.203-.603-.203c-.33 0-.596.196-.596.196l-21.6 16.768c-.142.11-.32.33-.372.634-.052.306.08.54.08.54l10.565 24.052c.105.24.293.382.293.382l11.926 10.048s.28.238.624.225c.394-.016.57-.188.57-.188l13.95-10.417s.278-.186.35-.55zm5.804-24.834l-23.356 16.488-20.303-15.787s.053-.292.348-.52l21.13-16.344s.243-.233.618-.23c.292.004.573.245.573.245l20.716 15.81c.2.17.274.338.274.338zm-21.31 35.257l-11.63-9.823s-.15-.1-.25-.324l-10.46-23.877 20.112 15.626 2.543 18.578s-.17-.052-.317-.18zm14.786-10.1l-13.577 10.155c-.168.143-.487.182-.487.182l-2.557-18.658 23.205-16.404c0 .047-.03.192-.03.192l-6.192 23.98c-.073.343-.363.552-.363.552zM959.795 441.158l-51.14 28.152s-.62.323-.653 1.056c-.037.77.582 1.124.582 1.124l51.162 31.055s.574.395 1.25.03c.678-.366.655-1.08.655-1.08l.03-59.234s.043-.647-.58-1.064c-.62-.417-1.305-.038-1.305-.038zm.567.423l-20.034 29.54-31.756-.972s.084-.346 1.02-.838l49.72-27.356c.785-.412 1.05-.373 1.05-.373zm-1.11 60.04l-49.753-30.13s-.854-.47-.907-.802l31.735.937 20.068 30.51c-.263 0-1.145-.516-1.145-.516zm1.917-58.553v57.496c.035 1.314-.27 1.41-.27 1.41l-20.1-30.593 20.086-29.633c.343.115.283 1.32.283 1.32zM1769.795 341.158l-51.14 28.152s-.62.323-.653 1.056c-.037.77.582 1.124.582 1.124l51.162 31.055s.574.395 1.25.03c.678-.366.655-1.08.655-1.08l.03-59.234s.043-.647-.58-1.064c-.62-.417-1.305-.038-1.305-.038zm.567.423l-20.034 29.54-31.756-.972s.084-.346 1.02-.838l49.72-27.356c.785-.412 1.05-.373 1.05-.373zm-1.11 60.04l-49.753-30.13s-.854-.47-.907-.802l31.735.937 20.068 30.51c-.263 0-1.145-.516-1.145-.516zm1.917-58.553v57.496c.035 1.314-.27 1.41-.27 1.41l-20.1-30.593 20.086-29.633c.343.115.283 1.32.283 1.32zM303.158 523.712l6.877 44.83s.07.538.594.758c.55.23.972-.13.972-.13l36.202-29.168s.44-.315.355-.906c-.087-.592-.613-.765-.613-.765l-43.085-15.705s-.46-.202-.93.142c-.468.343-.374.945-.374.945zm.46-.303l16.158 22.463-9.153 22.952s-.23-.153-.34-.967l-6.674-43.584c-.092-.682.007-.865.007-.865zm43.38 16.71l-35.152 28.383s-.57.5-.825.45l9.125-22.946 27.534-6.59c-.07.194-.68.702-.68.702zm-42.085-16.907l41.828 15.224c.967.32.955.57.955.57l-27.603 6.59-16.215-22.527c.175-.22 1.036.143 1.036.143z"/></g></g></svg>