<svg width="30" height="30" xmlns="http://www.w3.org/2000/svg"><g fill="none" fill-rule="evenodd"><path d="M22.703 7.582c1.244-1.923 1.12-4.5-.412-6.097C21.476.632 20.37.162 19.18.162c-1.308 0-2.594.582-3.53 1.596-.18.196-.345.414-.5.64-.158-.226-.32-.444-.503-.64C13.712.744 12.425.162 11.117.162c-1.187 0-2.293.47-3.11 1.323C6.477 3.08 6.35 5.66 7.594 7.582h15.11zm-9.33 0c-.948 0-2.355-.384-3.183-1.283-.742-.806-.755-2.07-.105-2.75.325-.337.74-.415 1-.415.482 0 .802.23 1.177.637.853.926 1.03 3.442 1.03 3.442l.082.367zm6.607-1.308c-.83.9-2.48 1.295-3.5 1.308-.005-.087-.15-.07-.15-.29V7.28c0-.99.498-2.584 1.35-3.51.376-.407.943-.64 1.424-.64.263 0 .682.07 1.007.41.65.677.613 1.93-.13 2.734z" fill="#FFCBD0"/><path d="M3.145 7.582c-1.64 0-2.968 1.33-2.968 2.97v1.978c0 .546.443.99.99.99H28.87c.547 0 .99-.444.99-.99v-1.98c0-1.638-1.33-2.968-2.968-2.968H3.145" fill="#F38686"/><path d="M28.865 13.52c.55 0 .995-.444.995-.99v-1.98c0-1.638-1.337-2.968-2.986-2.968H16.49v6.17" fill="#F38686"/><path d="M14.078 13.638c.55 0 1.204-6.066-.445-6.066l-7.477.01v6.17" fill="#EE7E7E"/><path d="M27.88 26.976c0 1.584-1.283 2.87-2.868 2.87h-8.51V13.518h11.38v13.456" fill="#F38686"/><path d="M2.155 26.877c0 1.64 1.33 2.968 2.97 2.968h11.443V13.52H2.155v13.357z" fill="#F38686"/><path d="M7.333 13.52h6.503v16.325H7.333V13.52zm8.76.118c-.55 0-1.204-6.066.445-6.066l7.477.01v6.17" fill="#EE7E7E"/><path d="M16.333 13.52h6.503v16.325h-6.503V13.52z" fill="#EE7E7E"/><path d="M13.534 7.582h2.968V13.5h-2.968V7.582zm0 5.938h2.968v16.325h-2.968V13.52z" fill="#FFCBD0"/><path d="M2.155 13.5H27.88v.835H2.156V13.5z" fill="#C4433C"/></g></svg>