<svg width="99" height="82" xmlns="http://www.w3.org/2000/svg"><g fill="none" fill-rule="evenodd"><path d="M25.895 53.482S43.72 73.617 45.91 76.462c2.19 2.845 6.722 2.884 9.486.583 2.764-2.3 3.996-4.366 3.423-5.776 0 0 2.752.026 5.79-3.074 3.034-3.1 3.034-5.676 3.034-5.676s2.536.563 5.84-2.796c3.034-3.084 3.034-5.397 3.034-5.397s3.072.515 6.534-3.624c3.462-4.14-.536-11.138-2.67-12.533-2.134-1.394-24.824-24.16-25.506-24.81-.68-.647-3.195-3.15-5.35-1.843-2.156 1.306-10.372 5.946-17.222 5.986-6.85.04-15.306.048-15.306.048l.156 32.468s5.61.15 8.74 3.465z" fill="#FFCA73"/><path d="M85.986 12.06c-2.157 0-4.256-1.22-5.98-2.62l-7.98-6.88C70.303 1.16 68.204 0 66.046 0H46.53c-2.415 0-4.747 1.12-6.564 2.843L29.67 11.335c-.843.688-.888 2.084-.093 2.835l3.11 2.96c2.1 1.702 4.924 1.923 7.217.544l9.12-5.48c1.238-.743 2.774-.554 3.83.467 0 0 8.41 8.125 12.617 12.186L81.645 40.46c.704.684 1.194 1.66 1.194 2.684v7.385c0 1.984 1.313 4.136 3.15 4.136h9.97C97.79 54.666 99 53.2 99 51.214V15.056c0-1.987-1.21-2.997-3.044-2.997h-9.97z" fill="#EA9924"/><path d="M86.07 8.04h9.886C97.79 8.04 99 9.05 99 11.035v40.178c0 1.987-1.21 3.453-3.044 3.453h-9.97c-1.836 0-3.15-2.152-3.15-4.138V11.254S82.703 8.04 86.07 8.04" fill="#D67B03"/><path d="M41.006 7.632s-5.154 3.93-6.063 4.33c-.91.403-4.175.342-4.245-1.447l7.807-6.413 2.5 3.53z" fill="#F6B852"/><path d="M17.677 16.365c-.25-1.794-1.61-2.698-3.29-2.698H2.904c-1.836 0-2.903.7-2.903 2.686v33.325c0 1.987 1.068 3.38 2.904 3.38h13.063c.51 0 1.902-.552 1.87-2.762l-.16-33.93" fill="#F7B64B"/><g fill="#EA9924"><path d="M19.71 59.45c-.85-1-1.366-2.303-1.366-3.73 0-3.144 2.506-5.693 5.596-5.693 3.09 0 5.596 2.55 5.596 5.694 0 1.74-.766 3.295-1.972 4.34l-3.624 3.27-4.23-3.88m23.078 21.39c1.052.776 2.374 1.185 3.77 1.06 3.08-.273 5.357-3.034 5.088-6.167-.27-3.132-2.983-5.45-6.062-5.176-1.702.15-3.158 1.063-4.076 2.376l-2.887 3.96 4.17 3.947"/><path d="M27.126 59.05c1.014-1.242 2.542-2.032 4.252-2.032 3.05 0 5.525 2.517 5.525 5.622 0 1.694-.737 3.214-1.903 4.244l-3.435 3.496-8.333-7.698 3.894-3.633"/><path d="M34.544 65.885c1.014-1.24 2.542-2.03 4.252-2.03 3.05 0 5.525 2.516 5.525 5.62 0 1.695-.735 3.215-1.9 4.245l-3.436 3.496-8.333-7.698 3.895-3.633"/></g><path d="M.026 15.728C.026 13.71 1.08 13 2.94 13h11.627c1.698 0 3.024.918 3.433 2.74V33H0l.026-17.272" fill="#FFD186"/><path d="M83 50.74c0 2.045 1.3 4.26 3.117 4.26h9.87C97.802 55 99 53.49 99 51.446V31H83v19.74" fill="#C57000"/></g></svg>