<svg width="100" height="81" xmlns="http://www.w3.org/2000/svg"><g fill="none" fill-rule="evenodd"><path d="M12.034 65.97H45.63c1.725 0 2.918 1.736 2.918 0V10.66c0-3.474-2.92-6.485-6.044-6.485H12.502c-1.976 0-3.373 1.822-3.373 3.81V62.85c0 1.737 1.178 3.12 2.904 3.12" fill="#BAFFD7"/><path d="M46.208 65.97c1.76 0 4 1.736 4 0V6.483c0-3.474-2.98-6.484-6.17-6.484H21.286c-2.018 0-3.444 1.822-3.444 3.81v59.038c0 1.737 1.205 3.12 2.966 3.12h25.4z" fill="#97EDB9"/><path d="M53.374 65.97h33.542c1.977 0 3.955-1.604 3.955-3.593V7.514c0-1.737-1.76-3.34-3.486-3.34H56.5c-3.126 0-6.293 3.012-6.293 6.485V65.55c0 1.736 1.44.417 3.167.417" fill="#56B786"/><path d="M77.762 65.97c1.99 0 3.98-1.604 3.98-3.593V3.34c0-1.738-1.77-3.34-3.51-3.34H56.335C53.188 0 50 3.01 50 6.484v59.068c0 1.736 1.45.417 3.188.417h24.574z" fill="#B9FFD7"/><path d="M90.87 8.794v50.324c0 3.474-2.91 6.434-6.363 6.434H15.74c-3.452 0-6.61-2.96-6.61-6.434V8.794C4.563 8.794 0 13.04 0 18.23v47.18c0 5.188 4.332 9.327 9.49 9.327h29.756c1.693 0 3.078 1.487 3.078 3.19v.063c0 1.737 1.386 3.01 3.11 3.01h9.38c1.725 0 2.862-1.273 2.862-3.01v-.063c0-1.703 1.633-3.19 3.326-3.19H90.76c5.156 0 9.24-4.14 9.24-9.328V18.23c0-5.19-3.734-9.436-9.13-9.436" fill="#56B786"/><path d="M54.813 81c1.726 0 2.863-1.273 2.863-3.01 0-1.766 1.633-3.253 3.326-3.253H90.76c5.156 0 9.24-4.14 9.24-9.328V18.23c0-5.19-3.734-9.436-9.13-9.436v50.324c0 3.474-3.014 6.434-6.467 6.434h-34.61V81h5.02z" fill="#48916C"/><g fill="#56B786"><path d="M56 12h20v2H56zM56 18h20v2H56zM56 24h20v2H56zM56 30h20v2H56zM56 36h20v2H56zM56 42h20v2H56zM56 48h20v2H56zM56 54h20v2H56z"/></g><g fill="#56B786"><path d="M24 12h20v2H24zM24 18h20v2H24zM24 24h20v2H24zM24 30h20v2H24zM24 36h20v2H24zM24 42h20v2H24zM24 48h20v2H24zM24 54h20v2H24z"/></g></g></svg>