<?xml version="1.0" encoding="UTF-8" standalone="no"?>
<svg width="100px" height="81px" viewBox="0 0 100 81" version="1.1" xmlns="http://www.w3.org/2000/svg" xmlns:xlink="http://www.w3.org/1999/xlink" xmlns:sketch="http://www.bohemiancoding.com/sketch/ns">
    <!-- Generator: Sketch 3.3.3 (12081) - http://www.bohemiancoding.com/sketch -->
    <title>icon-design</title>
    <desc>Created with Sketch.</desc>
    <defs></defs>
    <g id="Page-2" stroke="none" stroke-width="1" fill="none" fill-rule="evenodd" sketch:type="MSPage">
        <g id="desktop-1280" sketch:type="MSArtboardGroup" transform="translate(-414.000000, -655.000000)">
            <g id="tiles" sketch:type="MSLayerGroup" transform="translate(344.000000, 609.000000)">
                <g id="design-guidelines" sketch:type="MSShapeGroup">
                    <g id="icon-design" transform="translate(70.000000, 46.000000)">
                        <path d="M12.0340249,65.9690722 L45.6294606,65.9690722 C47.3551867,65.9690722 48.5477178,67.7059794 48.5477178,65.9690722 L48.5477178,10.659433 C48.5477178,7.18561856 45.6294606,4.17525773 42.5037344,4.17525773 L12.5024896,4.17525773 C10.5257261,4.17525773 9.12863071,5.99692268 9.12863071,7.98559794 L9.12863071,62.848067 C9.12863071,64.5853918 10.3082988,65.9690722 12.0340249,65.9690722" id="Fill-1" fill="#BAFFD7"></path>
                        <path d="M46.2076774,65.9690722 C47.9693138,65.9690722 50.2074689,67.7059794 50.2074689,65.9690722 L50.2074689,6.48417526 C50.2074689,3.01036082 47.2284862,0 44.0377175,0 L21.2863885,0 C19.268491,0 17.8423237,1.82166495 17.8423237,3.81034021 L17.8423237,62.848067 C17.8423237,64.5853918 19.0465392,65.9690722 20.8081756,65.9690722 L46.2076774,65.9690722 Z" id="Fill-2" fill="#97EDB9"></path>
                        <path d="M53.3742739,65.9690722 L86.9161826,65.9690722 C88.8925311,65.9690722 90.8713693,64.3657732 90.8713693,62.3770979 L90.8713693,7.51421134 C90.8713693,5.77730412 89.1107884,4.17525773 87.3842324,4.17525773 L56.5,4.17525773 C53.3742739,4.17525773 50.2074689,7.18561856 50.2074689,10.659433 L50.2074689,65.5515464 C50.2074689,67.2884536 51.6481328,65.9690722 53.3742739,65.9690722" id="Fill-3" fill="#56B786"></path>
                        <path d="M77.7615309,65.9690722 C79.7508817,65.9690722 81.7427386,64.3657732 81.7427386,62.3770979 L81.7427386,3.33895361 C81.7427386,1.60204639 79.9705749,0 78.23266,0 L56.3339294,0 C53.1876392,0 50,3.01036082 50,6.48417526 L50,65.5515464 C50,67.2884536 51.450142,65.9690722 53.1876392,65.9690722 L77.7615309,65.9690722 Z" id="Fill-4" fill="#B9FFD7"></path>
                        <path d="M90.8713693,8.79434536 L90.8713693,59.1183093 C90.8713693,62.5921237 87.9593361,65.5515464 84.5070539,65.5515464 L15.7406639,65.5515464 C12.2883817,65.5515464 9.12863071,62.5921237 9.12863071,59.1183093 L9.12863071,8.79434536 C4.56431535,8.79434536 0,13.0405825 0,18.2300103 L0,65.4087526 C0,70.5981804 4.33236515,74.7371134 9.48962656,74.7371134 L39.246473,74.7371134 C40.9394191,74.7371134 42.3236515,76.2235052 42.3236515,77.9270103 L42.3236515,77.9896392 C42.3236515,79.7265464 43.7095436,81 45.4352697,81 L54.8128631,81 C56.5385892,81 57.6763485,79.7265464 57.6763485,77.9896392 L57.6763485,77.9270103 C57.6763485,76.2235052 59.3091286,74.7371134 61.0016598,74.7371134 L90.7589212,74.7371134 C95.9157676,74.7371134 100,70.5981804 100,65.4087526 L100,18.2300103 C100,13.0405825 96.2655602,8.79434536 90.8713693,8.79434536" id="Fill-5" fill="#56B786"></path>
                        <path d="M54.8128631,81 C56.5385892,81 57.6763485,79.7265464 57.6763485,77.9896392 C57.6763485,76.2235052 59.3091286,74.7371134 61.0016598,74.7371134 L90.7589212,74.7371134 C95.9157676,74.7371134 100,70.5981804 100,65.4087526 L100,18.2300103 C100,13.0405825 96.2655602,8.79434536 90.8713693,8.79434536 L90.8713693,59.1183093 C90.8713693,62.5921237 87.8556017,65.5515464 84.4033195,65.5515464 L49.7925311,65.5515464 L49.7925311,81 L54.8128631,81 Z" id="Fill-6" fill="#48916C"></path>
                        <g id="Group" transform="translate(56.000000, 12.000000)" fill="#56B786">
                            <rect id="Rectangle-65" x="0" y="0" width="20" height="2"></rect>
                            <rect id="Rectangle-65-Copy" x="0" y="6" width="20" height="2"></rect>
                            <rect id="Rectangle-65-Copy-2" x="0" y="12" width="20" height="2"></rect>
                            <rect id="Rectangle-65-Copy-5" x="0" y="18" width="20" height="2"></rect>
                            <rect id="Rectangle-65-Copy-3" x="0" y="24" width="20" height="2"></rect>
                            <rect id="Rectangle-65-Copy-4" x="0" y="30" width="20" height="2"></rect>
                            <rect id="Rectangle-65-Copy-8" x="0" y="36" width="20" height="2"></rect>
                            <rect id="Rectangle-65-Copy-6" x="0" y="42" width="20" height="2"></rect>
                        </g>
                        <g id="Group-Copy-2" transform="translate(24.000000, 12.000000)" fill="#56B786">
                            <rect id="Rectangle-65" x="0" y="0" width="20" height="2"></rect>
                            <rect id="Rectangle-65-Copy" x="0" y="6" width="20" height="2"></rect>
                            <rect id="Rectangle-65-Copy-2" x="0" y="12" width="20" height="2"></rect>
                            <rect id="Rectangle-65-Copy-5" x="0" y="18" width="20" height="2"></rect>
                            <rect id="Rectangle-65-Copy-3" x="0" y="24" width="20" height="2"></rect>
                            <rect id="Rectangle-65-Copy-4" x="0" y="30" width="20" height="2"></rect>
                            <rect id="Rectangle-65-Copy-8" x="0" y="36" width="20" height="2"></rect>
                            <rect id="Rectangle-65-Copy-6" x="0" y="42" width="20" height="2"></rect>
                        </g>
                    </g>
                </g>
            </g>
        </g>
    </g>
</svg>