<svg width="88" height="90" xmlns="http://www.w3.org/2000/svg"><g fill="none" fill-rule="evenodd"><path d="M0 45v37c0 2.1.8 4 2.1 5.4C3.5 89 5.6 90 7.9 90h72.2c4.4 0 7.9-3.6 7.9-8V45" fill="#198EE5"/><path d="M0 8c0-4.4 3.5-8 7.9-8h72.2c2.3 0 4.4 1 5.8 2.6C87.2 4 88 5.9 88 8v37H0V8" fill="#3FADFF"/><path d="M22.9 19H44v26H19V22.8c0-2.1 1.7-3.8 3.9-3.8z" fill="#D9F1FF"/><path d="M44 19h21.1c2.1 0 3.9 1.7 3.9 3.6V45H44V19z" fill="#73BEFF"/><path d="M65.1 71H44V45h25v22.2c0 2.1-1.7 3.8-3.9 3.8z" fill="#D9F1FF"/><path d="M44 71H22.9c-2.1 0-3.9-1.7-3.9-3.6V45h25v26z" fill="#73BEFF"/></g></svg>