<svg width="100" height="88" xmlns="http://www.w3.org/2000/svg"><g fill="none" fill-rule="evenodd"><path d="M57.13 84.73c-3.92 4.17-10.544 4.165-14.456-.012C30.652 71.875 7.81 47.505 7.704 47.468c-10.278-10.814-10.278-28.465.04-39.3C12.758 2.9 19.428 0 26.528 0s13.77 2.9 18.784 8.167l1.968 2.504c1.333 1.7 3.91 1.697 5.242 0l1.65-2.106c.085-.11.176-.217.273-.318C59.645 2.846 66.26 0 73.295 0c7.096 0 13.767 2.9 18.78 8.167 10.324 10.836 10.324 28.487 0 39.338 0 0-22.885 24.385-34.945 37.224" fill="#FFBFD1"/><path d="M49.9 11.943c.98 0 1.956-.426 2.622-1.275l1.65-2.105c.085-.11.176-.217.273-.318C59.645 2.845 66.26 0 73.295 0c7.096 0 13.767 2.9 18.78 8.167 10.324 10.836 10.324 28.487 0 39.338 0 0-22.885 24.385-34.945 37.224-1.957 2.08-4.59 3.123-7.22 3.123l-.01-75.91" fill="#BF4C76"/><path d="M65.77 1.136c4.25-1.312 10.48.134 13.884 6.197 6.18 11.006 3.168 29.32-3.306 40.172 0 0-14.35 24.385-21.914 37.224-1.227 2.08-2.877 3.123-4.528 3.123l-.005-75.91c.615-.002 1.58-.207 2.41-1.032.38-.38 4.012-6.86 13.46-9.775" fill="#E97293"/><path d="M47.438 10.855c.83.825 1.85 1.087 2.463 1.088l.01 75.91c-1.65 0-3.517-1.04-4.744-3.124C37.602 71.89 23.25 47.503 23.25 47.503c-6.473-10.85-9.484-29.166-3.305-40.172C23.35 1.27 29.58-.178 33.83 1.136c9.45 2.916 13.228 9.34 13.608 9.72" fill="#FA9FBB"/></g></svg>