<svg width="88" height="90" xmlns="http://www.w3.org/2000/svg"><g fill="none" fill-rule="evenodd"><path d="M2.034 65.908l39.252 23.054c1.793.845 3.906.845 5.7 0l39.252-23.054c2.35-1.106 2.35-4.264 0-5.37L46.985 37.484c-1.793-.845-3.906-.845-5.7 0L2.035 60.538c-2.35 1.106-2.35 4.264 0 5.37" fill="#696CB4"/><path d="M2.034 47.66l39.252 23.053c1.793.845 3.906.845 5.7 0l39.25-23.053c2.35-1.107 2.35-4.265 0-5.37l-39.25-23.056c-1.794-.845-3.907-.845-5.7 0L2.035 42.29c-2.35 1.105-2.35 4.263 0 5.37" fill="#8384E3"/><path d="M2.034 29.41l39.252 23.054c1.793.845 3.906.845 5.7 0l39.25-23.054c2.35-1.106 2.35-4.264 0-5.37L46.987.986c-1.794-.845-3.907-.845-5.7 0L2.035 24.04c-2.35 1.106-2.35 4.264 0 5.37" fill="#CCD0FF"/></g></svg>