<svg width="28" height="31" xmlns="http://www.w3.org/2000/svg" xmlns:xlink="http://www.w3.org/1999/xlink"><defs><path id="a" d="M16.086 7.522c-.403.658-1.188.992-2.333.992-6.045 0-6.484 4.502-6.484 6.666 0 .987-.79 1.838-1.758 1.838h-.154c-.818 0-1.523-.616-1.716-1.428-.214-.908-.793-1.4-1.352-1.83-.4-.307-.776-.595-.986-1.03C.758 11.6.2 10.215.2 8.505.205 4.624 2.838 1.19 6.463.34 7.13.182 7.802.103 8.46.103c3.343 0 6.337 2.03 7.63 5.173.047.1.585 1.282-.004 2.245"/></defs><g fill="none" fill-rule="evenodd"><path d="M27.303 17.86l-3.574-5.415.016-.428c0-6.624-5.294-12.013-11.8-12.013-.928 0-1.867.11-2.793.327C3.94 1.555.153 6.465.15 12.006c-.003 2.45.61 4.65 1.775 6.36 2.055 3.02 3.445 5.408 2.624 8.656-.188.743-.035 1.51.418 2.105.44.577 1.104.906 1.822.906h9.664c1.12 0 2.09-.802 2.31-1.91.04-.21.08-.383.113-.615.087-.585.588-.977 1.165-.977h.687c1.058 0 1.994-.65 2.284-1.725.314-1.167.7-2.78.76-4.782h2.574c.454 0 .86-.385 1.06-.8.2-.416.15-1.03-.105-1.36" fill="#F49755"/><g transform="translate(3.44 3.504)"><mask id="b" fill="#fff"><use xlink:href="#a"/></mask><path d="M16.048-8.353L-11.174 6.87s-.532.308-.51.924l17.562.527L17.01-8.352s-.41-.27-.962 0" fill="#FDBC8D" mask="url(#b)"/><path d="M17.01-8.353L5.88 8.32l11.1 17.174s.593-.264.608-.927V-7.44s.026-.565-.575-.913M16.98 25.494L5.877 8.32l-17.563-.526s-.035.458.382.84l27.353 16.85s.418.244.93.01" fill="#FCBC8D" mask="url(#b)"/><path d="M5.878 8.32L.873.134l-11.23 6.28c-.415.232-1.12 1.387.28 1.43 1.402.04 15.955.478 15.955.478" fill="#FFD3B3" mask="url(#b)"/><path d="M5.878 8.32L.655 16l14.28 8.798c.762.47 1.92.5 1.185-.634L5.878 8.32M5.878 8.32h11.708V-6.815c0-.624-.637-1.57-1.355-.368C15.72-6.33 5.88 8.32 5.88 8.32" fill="#FFD3B3" mask="url(#b)"/></g></g></svg>