<?xml version="1.0" encoding="UTF-8" standalone="no"?>
<svg width="100px" height="88px" viewBox="0 0 100 88" version="1.1" xmlns="http://www.w3.org/2000/svg" xmlns:xlink="http://www.w3.org/1999/xlink" xmlns:sketch="http://www.bohemiancoding.com/sketch/ns">
    <!-- Generator: Sketch 3.3.3 (12081) - http://www.bohemiancoding.com/sketch -->
    <title>icon-living</title>
    <desc>Created with Sketch.</desc>
    <defs></defs>
    <g id="Page-2" stroke="none" stroke-width="1" fill="none" fill-rule="evenodd" sketch:type="MSPage">
        <g id="desktop-1280" sketch:type="MSArtboardGroup" transform="translate(-1014.000000, -1057.000000)">
            <g id="tiles" sketch:type="MSLayerGroup" transform="translate(344.000000, 609.000000)">
                <g id="living" transform="translate(600.000000, 406.000000)" sketch:type="MSShapeGroup">
                    <g id="icon-living" transform="translate(70.000000, 42.000000)">
                        <path d="M57.1298701,84.728902 C53.2112554,88.9011373 46.5857143,88.8946667 42.6735931,84.7176863 C30.6515152,71.8748627 7.81038961,47.5053333 7.7047619,47.4665098 C-2.57445887,36.6537255 -2.57445887,19.0028235 7.74372294,8.1667451 C12.7575758,2.89968627 19.4281385,0 26.5277056,0 C33.6277056,0 40.2982684,2.89968627 45.3121212,8.1667451 L47.2796537,10.6708627 C48.6134199,12.3683137 51.1900433,12.3661569 52.5220779,10.6678431 L54.1714286,8.56317647 C54.2571429,8.45317647 54.3484848,8.34576471 54.4454545,8.2452549 C59.6445887,2.84619608 66.2597403,0 73.2952381,0 C80.391342,0 87.0619048,2.89968627 92.0757576,8.1667451 C102.398701,19.0028235 102.398701,36.6537255 92.0757576,47.5053333 C92.0757576,47.5053333 69.1896104,71.8895294 57.1298701,84.728902" id="Fill-1" fill="#FFBFD1"></path>
                        <path d="M49.9012987,11.9429804 C50.8787879,11.9421176 51.8558442,11.5167843 52.5220779,10.6678431 L54.1714286,8.56317647 C54.2571429,8.45317647 54.3484848,8.34576471 54.4454545,8.2452549 C59.6445887,2.84619608 66.2597403,0 73.2952381,0 C80.391342,0 87.0619048,2.89968627 92.0757576,8.1667451 C102.398701,19.0028235 102.398701,36.6537255 92.0757576,47.5053333 C92.0757576,47.5053333 69.1896104,71.8895294 57.1298701,84.728902 C55.1727273,86.8124314 52.5406926,87.8537647 49.9090909,87.8541961 L49.9012987,11.9429804" id="Fill-2" fill="#BF4C76"></path>
                        <path d="M65.7688312,1.13623529 C70.0194805,-0.175568627 76.2489177,1.26952941 79.6536797,7.33333333 C85.8333333,18.3385098 82.821645,36.6537255 76.3484848,47.5053333 C76.3484848,47.5053333 61.9969697,71.8895294 54.4341991,84.728902 C53.2069264,86.8124314 51.55671,87.8537647 49.9060606,87.8541961 L49.9012987,11.9429804 C50.5142857,11.9421176 51.4792208,11.7372157 52.3077922,10.912 C52.6883117,10.5332549 56.3207792,4.05231373 65.7688312,1.13623529" id="Fill-3" fill="#E97293"></path>
                        <path d="M47.4380952,10.8550588 C48.2666667,11.6798431 49.2883117,11.9421176 49.9012987,11.9429804 L49.9090909,87.8541961 C48.2584416,87.8537647 46.3922078,86.8124314 45.1649351,84.728902 C37.6021645,71.8895294 23.2506494,47.5053333 23.2506494,47.5053333 C16.7774892,36.6537255 13.7658009,18.3385098 19.9454545,7.33333333 C23.3506494,1.26952941 29.5796537,-0.175568627 33.830303,1.13623529 C43.2787879,4.05231373 47.0575758,10.4763137 47.4380952,10.8550588" id="Fill-4" fill="#FA9FBB"></path>
                    </g>
                </g>
            </g>
        </g>
    </g>
</svg>