<svg width="90" height="90" xmlns="http://www.w3.org/2000/svg"><g fill="none" fill-rule="evenodd"><path d="M59.787 9.123L10.575 57.87l21.353 21.487 49.003-49.03L59.788 9.124" fill="#2ECBBE"/><path d="M62.94 5.98L64.95 4C68.818.152 75.49-1.61 80.204 2.336c.1.086 6.182 6.22 6.182 6.22 4.626 4.65 4.51 12.014-.262 16.762L84.128 27.3l-21.19-21.32" fill="#2DA193"/><path d="M83.785 5.935c-1.666-1.678-3.526-3.55-3.58-3.598C75.49-1.608 68.817.153 64.95 4l-2.01 1.98L73.36 16.47 83.785 5.934" fill="#38BAAF"/><path d="M62.988 5.935L59.752 9.14l21.18 21.188 3.118-3.124-21.062-21.27" fill="#95F7E4"/><path d="M10.575 57.87l10.75 10.884 49.003-49.03-10.54-10.6-49.213 48.745z" fill="#80F1DB"/><path d="M6.22 65.17L.29 84.138c-.364 1.168-.32 2.464.285 3.525.79 1.387 2.214 2.15 3.68 2.15.418 0 .84-.06 1.252-.19 0 0 12.954-4.03 19.205-5.99 2.794-.874 5.367-2.43 7.44-4.5L10.8 57.642c-2.112 2.09-3.695 4.695-4.58 7.527z" fill="#39D8C5"/><path d="M21.593 68.44L10.8 57.643c-2.112 2.09-3.695 4.695-4.58 7.527L.29 84.138c-.364 1.168-.32 2.464.285 3.525 0 0 .603 1.022 1.268 1.336" fill="#95F8E4"/></g></svg>