<?xml version="1.0" encoding="UTF-8" standalone="no"?>
<svg width="90px" height="90px" viewBox="0 0 90 90" version="1.1" xmlns="http://www.w3.org/2000/svg" xmlns:xlink="http://www.w3.org/1999/xlink" xmlns:sketch="http://www.bohemiancoding.com/sketch/ns">
    <!-- Generator: Sketch 3.3.3 (12081) - http://www.bohemiancoding.com/sketch -->
    <title>icon-css</title>
    <desc>Created with Sketch.</desc>
    <defs></defs>
    <g id="Page-2" stroke="none" stroke-width="1" fill="none" fill-rule="evenodd" sketch:type="MSPage">
        <g id="desktop-1280" sketch:type="MSArtboardGroup" transform="translate(-719.000000, -1056.000000)">
            <g id="tiles" sketch:type="MSLayerGroup" transform="translate(344.000000, 609.000000)">
                <g id="css" transform="translate(300.000000, 406.000000)" sketch:type="MSShapeGroup">
                    <g id="icon-css" transform="translate(75.000000, 41.000000)">
                        <path d="M59.7865438,9.12317972 L10.5752074,57.8687558 L31.9280184,79.3571889 L80.9311521,30.3275115 L59.7865438,9.12317972" id="Fill-1" fill="#2ECBBE"></path>
                        <path d="M62.9386175,5.98147465 L64.9501382,3.99857143 C68.8176498,0.153456221 75.4909217,-1.6083871 80.2036866,2.33709677 C80.30447,2.42253456 86.3863134,8.55746544 86.3863134,8.55746544 C91.0119816,13.2084332 90.8962673,20.5714286 86.1241935,25.319447 L84.1276037,27.3019355 L62.9386175,5.98147465" id="Fill-2" fill="#2DA193"></path>
                        <path d="M83.7846083,5.93460829 C82.1189862,4.25654378 80.2588479,2.38396313 80.2036866,2.33709677 C75.4909217,-1.6083871 68.8176498,0.153456221 64.9501382,3.99857143 L62.9386175,5.98147465 L73.3616129,16.4687558 L83.7846083,5.93460829" id="Fill-3" fill="#38BAAF"></path>
                        <path d="M62.9879724,5.93502304 L59.7521198,9.14018433 L80.9311521,30.3275115 L84.0504608,27.2040553 L62.9879724,5.93502304" id="Fill-4" fill="#95F7E4"></path>
                        <path d="M10.5752074,57.8687558 L21.3252995,68.75447 L70.3284332,19.7247926 L59.7865438,9.12317972 L10.5752074,57.8687558 Z" id="Fill-5" fill="#80F1DB"></path>
                        <path d="M6.22036866,65.1699539 L0.290322581,84.1375576 C-0.0742396313,85.3058986 -0.0302764977,86.6019816 0.575253456,87.663318 C1.36534562,89.0502304 2.78917051,89.8133641 4.25488479,89.8133641 C4.67294931,89.8133641 5.09516129,89.7515668 5.50700461,89.6225806 C5.50700461,89.6225806 18.4607834,85.5941475 24.7122581,83.6336406 C27.5064055,82.7589401 30.0786636,81.2023963 32.1523963,79.1315668 L10.8,57.6431336 C8.6881106,59.7342857 7.10502304,62.3376498 6.22036866,65.1699539 Z" id="Fill-7" fill="#39D8C5"></path>
                        <path d="M21.5925294,68.4404292 L10.8,57.6431336 C8.6881106,59.7342857 7.10502304,62.3376498 6.22036866,65.1699539 L0.290322581,84.1375576 C-0.0742396313,85.3058986 -0.0302764977,86.6019816 0.575253456,87.663318 C0.575253456,87.663318 1.17785646,88.6853032 1.84277345,88.9989018" id="Fill-8" fill="#95F8E4"></path>
                    </g>
                </g>
            </g>
        </g>
    </g>
</svg>