<?xml version="1.0" encoding="UTF-8" standalone="no"?>
<svg width="30px" height="30px" viewBox="0 0 30 30" version="1.1" xmlns="http://www.w3.org/2000/svg" xmlns:xlink="http://www.w3.org/1999/xlink" xmlns:sketch="http://www.bohemiancoding.com/sketch/ns">
    <!-- Generator: Sketch 3.3.3 (12081) - http://www.bohemiancoding.com/sketch -->
    <title>icon-download</title>
    <desc>Created with Sketch.</desc>
    <defs></defs>
    <g id="Page-2" stroke="none" stroke-width="1" fill="none" fill-rule="evenodd" sketch:type="MSPage">
        <g id="desktop-1280" sketch:type="MSArtboardGroup" transform="translate(-657.000000, -1518.000000)">
            <g id="downloads" sketch:type="MSLayerGroup" transform="translate(344.000000, 1502.000000)">
                <g id="icon-download" transform="translate(313.000000, 16.000000)" sketch:type="MSShapeGroup">
                    <path d="M22.7033544,7.58240506 C23.9470253,5.65898734 23.821519,3.08107595 22.2907595,1.48481013 C21.4735443,0.631708861 20.3679114,0.161582278 19.1796835,0.161582278 C17.8722152,0.161582278 16.5856329,0.743544304 15.6499367,1.75803797 C15.4691772,1.95417722 15.3047468,2.17177215 15.1488608,2.39734177 C14.9922152,2.17158228 14.8285443,1.95417722 14.6474051,1.75765823 C13.7120886,0.743544304 12.4253165,0.161582278 11.118038,0.161582278 C9.92962025,0.161582278 8.82417722,0.631708861 8.00677215,1.48481013 C6.47601266,3.08107595 6.35050633,5.65898734 7.59398734,7.58240506 L22.7033544,7.58240506 Z M13.3741139,7.58240506 C12.4249367,7.58240506 11.0181646,7.19848101 10.1897468,6.29943038 C9.44810127,5.49493671 9.435,4.22981013 10.0851266,3.55177215 C10.41,3.21360759 10.8235443,3.13613924 11.0863291,3.13613924 C11.5674684,3.13613924 11.8866456,3.3664557 12.2616456,3.77297468 C13.1153165,4.69936709 13.2911392,7.21518987 13.2911392,7.21518987 L13.3741139,7.58240506 L13.3741139,7.58240506 Z M19.9801899,6.27379747 C19.1493038,7.17531646 17.4991139,7.5685443 16.4789241,7.58240506 C16.4749367,7.49525316 16.3291139,7.51177215 16.3291139,7.29151899 L16.3291139,7.27860759 C16.3291139,6.28917722 16.8275316,4.69594937 17.6808228,3.76993671 C18.0558228,3.36322785 18.6227848,3.12987342 19.1037342,3.12987342 C19.3670886,3.12987342 19.7859494,3.20088608 20.1106329,3.53905063 C20.7609494,4.21708861 20.7216456,5.46949367 19.9801899,6.27379747 L19.9801899,6.27379747 Z" id="Fill-2-Copy" fill="#FFCBD0"></path>
                    <path d="M3.14487342,7.58240506 C1.5056962,7.58240506 0.176582278,8.91151899 0.176582278,10.5506962 L0.176582278,12.5297468 C0.176582278,13.0760127 0.619556962,13.5191772 1.16601266,13.5191772 L28.8706329,13.5191772 C29.4170886,13.5191772 29.8600633,13.0760127 29.8600633,12.5297468 L29.8600633,10.5506962 C29.8600633,8.91151899 28.5309494,7.58240506 26.8917722,7.58240506 L3.14487342,7.58240506" id="Fill-1" fill="#F38686"></path>
                    <path d="M28.8647469,13.5191772 C29.4144534,13.5191772 29.8600633,13.0760127 29.8600633,12.5297468 L29.8600633,10.5506962 C29.8600633,8.91151899 28.5230427,7.58240506 26.8741143,7.58240506 L16.4895967,7.58240506 L16.4895967,13.7526679" id="Fill-1-Copy" fill="#F38686"></path>
                    <path d="M14.0775553,13.6376139 C14.6272618,13.6376139 15.2817409,7.57177734 13.6328125,7.57177734 L6.15626336,7.58240506 L6.15626336,13.7526679" id="Fill-1-Copy-2" fill="#EE7E7E"></path>
                    <path d="M27.8812025,26.9756962 C27.8812025,28.5603797 26.596519,29.8450633 25.0116456,29.8450633 L16.5024684,29.8450633 L16.5024684,13.5191772 L27.8812025,13.5191772 L27.8812025,26.9756962" id="Fill-3" fill="#F38686"></path>
                    <path d="M2.15544304,26.8765823 C2.15544304,28.5159494 3.48455696,29.8450633 5.12373418,29.8450633 L16.5680802,29.8450633 L16.5680802,13.5191772 L2.15544304,13.5191772 L2.15544304,17.4768987 L2.15544304,26.8765823 Z" id="Fill-4" fill="#F38686"></path>
                    <path d="M7.33333333,13.5191772 L13.8358017,13.5191772 L13.8358017,29.8450633 L7.33333333,29.8450633 L7.33333333,13.5191772 Z" id="Fill-5-Copy" fill="#EE7E7E"></path>
                    <path d="M23.4108887,13.6376139 C23.9605951,13.6376139 24.6150743,7.57177734 22.9661458,7.57177734 L15.4895967,7.58240506 L15.4895967,13.7526679" id="Fill-1-Copy-3" fill="#EE7E7E" transform="translate(19.752223, 10.662223) scale(-1, 1) translate(-19.752223, -10.662223) "></path>
                    <path d="M16.3333333,13.5191772 L22.8358017,13.5191772 L22.8358017,29.8450633 L16.3333333,29.8450633 L16.3333333,13.5191772 Z" id="Fill-5-Copy-2" fill="#EE7E7E"></path>
                    <path d="M13.5339873,7.58240506 L16.5024684,7.58240506 L16.5024684,13.5001899 L13.5339873,13.5001899 L13.5339873,7.58240506 Z" id="Fill-6" fill="#FFCBD0"></path>
                    <path d="M13.5339873,13.5191772 L16.5024684,13.5191772 L16.5024684,29.8450633 L13.5339873,29.8450633 L13.5339873,13.5191772 Z" id="Fill-5" fill="#FFCBD0"></path>
                    <path d="M2.15544304,13.5001899 L27.8812025,13.5001899 L27.8812025,14.335443 L2.15544304,14.335443 L2.15544304,13.5001899 Z" id="Fill-7" fill="#C4433C"></path>
                </g>
            </g>
        </g>
    </g>
</svg>