<svg width="431" height="177" xmlns="http://www.w3.org/2000/svg"><defs><linearGradient x1="-1.876%" y1="50%" x2="103.271%" y2="0%" id="a"><stop stop-color="#9CE8BC" offset="0%"/><stop stop-color="#48916C" offset="100%"/></linearGradient></defs><g fill="none" fill-rule="evenodd"><rect stroke="#CFD7E5" fill="#FFF" x="147" width="134.296" height="146.233" rx="4"/><rect stroke="#CFD7E5" fill="#FFF" x="72" y="15" width="134.296" height="146.233" rx="4"/><rect stroke="#CFD7E5" fill="#FFF" x="222" y="15" width="134.296" height="146.233" rx="4"/><g transform="translate(0 30)"><rect stroke="#CFD7E5" fill="#FFF" width="134.296" height="146.233" rx="4"/><rect fill="#0070D2" width="134.296" height="102.214" rx="4"/><path d="M26.043 121.703l-.775.88c-.238-.202-.51-.36-.818-.47-.307-.113-.628-.17-.964-.17-.81 0-1.407.247-1.792.74-.384.492-.576 1.154-.576 1.986 0 .815.192 1.47.576 1.963.385.492.97.738 1.76.738.37 0 .713-.067 1.028-.203.314-.136.59-.316.828-.54l.828.902c-.315.313-.708.57-1.18.763-.47.196-.986.294-1.545.294-.79 0-1.464-.166-2.023-.498-.558-.333-.98-.794-1.268-1.384-.286-.59-.43-1.27-.43-2.038 0-.784.146-1.468.436-2.055.29-.587.716-1.043 1.278-1.368.563-.325 1.238-.487 2.028-.487.517 0 1.006.084 1.467.252.463.167.844.398 1.144.69zm.64 2.976c0-.777.15-1.46.45-2.05.3-.59.735-1.048 1.305-1.373.57-.325 1.248-.488 2.038-.488.79 0 1.47.162 2.043.487.57.325 1.01.782 1.31 1.373.3.59.45 1.274.45 2.05 0 .775-.15 1.458-.45 2.048-.3.59-.74 1.048-1.31 1.373-.575.326-1.256.49-2.045.49-.79 0-1.47-.164-2.038-.488-.57-.324-1.005-.782-1.305-1.372-.3-.59-.45-1.273-.45-2.05zm6.193 0c0-.84-.2-1.504-.603-1.993-.402-.49-1-.733-1.797-.733-.79 0-1.385.244-1.787.733-.404.49-.604 1.153-.604 1.99 0 .84.2 1.503.602 1.992.4.49.996.733 1.786.733.796 0 1.395-.245 1.797-.734.403-.49.604-1.153.604-1.99zm4.065 2.566h3.21v1.142h-4.58v-7.42h1.372v6.277zm3.503-2.568c0-.776.15-1.46.45-2.05.3-.59.735-1.047 1.305-1.372.57-.325 1.25-.488 2.038-.488.79 0 1.47.163 2.043.488.572.325 1.01.782 1.31 1.373.3.59.45 1.273.45 2.05 0 .774-.15 1.457-.45 2.047-.3.59-.738 1.048-1.31 1.373-.573.325-1.255.488-2.044.488-.79 0-1.47-.163-2.038-.487-.57-.323-1.004-.78-1.305-1.37-.3-.59-.45-1.274-.45-2.05zm6.193 0c0-.84-.2-1.503-.603-1.992-.402-.49-1-.733-1.797-.733-.79 0-1.385.244-1.787.733-.4.49-.603 1.153-.603 1.99 0 .84.2 1.503.602 1.992.4.49.997.734 1.786.734.796 0 1.395-.245 1.797-.734.402-.49.603-1.152.603-1.99zm6.79 3.71l-1.467-2.516H50.7v2.515h-1.37v-7.42h2.6c.83 0 1.504.214 2.02.644.518.43.777 1.044.777 1.84 0 1.048-.5 1.764-1.5 2.148l1.772 2.79h-1.573zm-1.572-3.564c.426 0 .776-.114 1.048-.34.274-.228.41-.572.41-1.033 0-.467-.14-.814-.42-1.042-.28-.227-.632-.34-1.058-.34H50.69v2.756h1.163z" fill="#4F6A92"/></g><g transform="translate(147 30)"><rect stroke="#CFD7E5" fill="#FFF" y=".165" width="134.296" height="146.233" rx="4"/><path fill="#4F6A92" d="M19.232 101.972h96.742v3.493H19.232zm5.878 20.272h-2.23v6.266h-1.372v-6.266h-2.232v-1.153h5.837v1.155zm3.89 3.112v3.154h-1.372v-3.175l-2.61-4.244h1.572l1.77 3.156h.022l1.75-3.154h1.52L29 125.358zm8.782-1.78c0 .55-.13 1.02-.388 1.403s-.6.667-1.022.852c-.422.185-.885.278-1.388.278h-1.3v2.4H32.31v-7.42h2.672c.838 0 1.514.206 2.028.614.513.41.77 1.032.77 1.87zm-4.108-1.384V125h1.184c.433 0 .797-.117 1.09-.35.293-.235.44-.59.44-1.065 0-.496-.143-.852-.43-1.07-.286-.215-.65-.323-1.09-.323h-1.194zm4.79 2.61c0-.777.15-1.46.45-2.05.3-.59.735-1.048 1.304-1.373.57-.326 1.25-.49 2.038-.49.79 0 1.47.164 2.044.488.573.324 1.01.782 1.31 1.372.3.59.45 1.273.45 2.05 0 .774-.15 1.457-.45 2.047-.3.59-.737 1.047-1.31 1.372-.573.324-1.254.487-2.044.487s-1.468-.163-2.038-.488c-.57-.326-1.004-.783-1.304-1.374-.3-.59-.45-1.274-.45-2.05zm6.192 0c0-.84-.2-1.503-.602-1.992-.402-.49-1-.734-1.798-.734-.79 0-1.385.245-1.786.734-.402.49-.603 1.152-.603 1.99 0 .84.2 1.503.603 1.992.4.49.997.733 1.786.733.797 0 1.396-.244 1.798-.733.4-.49.602-1.153.602-1.99zm2.316-.012c0-.775.148-1.456.445-2.043.297-.587.73-1.043 1.295-1.368.565-.326 1.243-.49 2.032-.49.517 0 1.006.085 1.468.253.46.167.84.398 1.142.69l-.776.88c-.237-.2-.51-.36-.822-.475-.31-.117-.63-.174-.96-.174-.816 0-1.424.246-1.822.74-.4.49-.598 1.153-.598 1.984 0 1.852.8 2.777 2.4 2.777.517 0 1.013-.1 1.488-.304v-1.654h-1.52v-1.048h2.788v3.447c-.838.47-1.764.703-2.777.703-.817 0-1.51-.165-2.075-.493-.566-.328-.992-.786-1.278-1.373-.287-.587-.43-1.27-.43-2.054zm12.25 3.72l-1.467-2.515h-1.257v2.515h-1.373v-7.42h2.6c.83 0 1.504.216 2.02.646.518.43.777 1.042.777 1.84 0 1.047-.5 1.763-1.5 2.147l1.772 2.787H59.22zm-1.572-3.562c.426 0 .776-.114 1.048-.34.273-.228.41-.572.41-1.033 0-.468-.14-.816-.42-1.043-.28-.227-.633-.34-1.06-.34h-1.14v2.756h1.162zm8.5 1.96h-3.02l-.596 1.602h-1.436l2.85-7.42h1.415l2.84 7.42h-1.487l-.566-1.603zm-2.652-1.05h2.295l-1.142-3.363-1.15 3.364zm10.992-2.283c0 .552-.13 1.02-.388 1.404-.258.382-.6.667-1.02.852-.424.185-.887.278-1.39.278h-1.3v2.4H69.02v-7.42h2.672c.84 0 1.515.206 2.028.614.513.41.77 1.032.77 1.87zm-4.108-1.383V125h1.185c.433 0 .796-.117 1.09-.35.293-.235.44-.59.44-1.065 0-.496-.144-.852-.43-1.07-.287-.215-.65-.323-1.09-.323H70.38zm11.402 6.318H80.4v-3.26h-3.426v3.26H75.6v-7.42h1.372v3.06h3.426v-3.06h1.384v7.42zm4.62-3.154v3.154H85.03v-3.175l-2.61-4.244h1.573l1.77 3.156h.022l1.75-3.154h1.52l-2.652 4.266zM76.616 67.76c0-5.7 2.026-9.668 6.078-11.904 4.052-2.235 9.878-3.353 17.48-3.353 1.843 0 3.24.028 4.19.084v-2.18c0-4.695-2.99-7.042-8.97-7.042-4.303 0-8.522 1.118-12.658 3.353l-3.52-6.958c2.346-1.397 5-2.5 7.963-3.31 2.96-.812 5.894-1.217 8.8-1.217 6.65 0 11.46 1.495 14.42 4.485 2.962 2.99 4.443 7.56 4.443 13.707v16.6c0 2.123.25 5.448.754 9.975h-9.64c-.392-2.29-.643-3.94-.755-4.946h-.25c-1.566 2.068-3.44 3.605-5.618 4.61-2.18 1.007-5.058 1.51-8.635 1.51-4.025 0-7.378-1.16-10.06-3.48-2.684-2.32-4.025-5.63-4.025-9.934zm27.833-4.61v-3.52l-3.188-.085c-4.918 0-8.44.573-10.563 1.718-2.125 1.146-3.187 3.06-3.187 5.743 0 1.9.56 3.367 1.677 4.4 1.12 1.035 2.628 1.552 4.528 1.552 2.068 0 3.912-.46 5.533-1.383 1.623-.922 2.894-2.124 3.816-3.605.922-1.48 1.384-3.088 1.384-4.82zm-45.062 4.024H35.244L30.464 80H18.98l22.803-59.354H53.1L75.82 80H63.914l-4.527-12.826zm-21.21-8.384h18.36L47.4 31.88l-9.222 26.91z"/></g><g transform="translate(296 30)"><rect stroke="#CFD7E5" fill="#FFF" y=".044" width="134.296" height="146.233" rx="4"/><path fill="url(#a)" d="M18.652 103.706h96.99v.746h-96.99z"/><path d="M38.732 69.51h24.815c1.274 0 2.155 1.28 2.155 0V28.745c0-2.56-2.155-4.778-4.464-4.778h-22.16c-1.46 0-2.492 1.342-2.492 2.808V67.21c0 1.28.87 2.3 2.146 2.3" fill="#BAFFD7"/><path d="M63.974 69.51c1.3 0 2.954 1.28 2.954 0V25.67c0-2.56-2.2-4.78-4.557-4.78H45.568c-1.49 0-2.544 1.343-2.544 2.81v43.51c0 1.28.89 2.3 2.19 2.3h18.762z" fill="#97EDB9"/><path d="M69.267 69.51h24.775c1.46 0 2.92-1.183 2.92-2.648V26.428c0-1.28-1.3-2.46-2.574-2.46H71.576c-2.31 0-4.648 2.218-4.648 4.778V69.2c0 1.28 1.064.31 2.34.31" fill="#56B786"/><path d="M87.28 69.51c1.47 0 2.94-1.183 2.94-2.648v-43.51c0-1.28-1.308-2.462-2.592-2.462H71.453c-2.324 0-4.678 2.22-4.678 4.78V69.2c0 1.28 1.07.31 2.354.31h18.15z" fill="#B9FFD7"/><path d="M96.963 27.372V64.46c0 2.56-2.15 4.74-4.7 4.74H41.47c-2.55 0-4.884-2.18-4.884-4.74V27.372c-3.37 0-6.743 3.13-6.743 6.954v34.77c0 3.824 3.2 6.875 7.01 6.875h21.98c1.25 0 2.272 1.097 2.272 2.353v.046c0 1.28 1.023 2.217 2.298 2.217h6.927c1.274 0 2.115-.938 2.115-2.218v-.047c0-1.256 1.206-2.35 2.456-2.35h21.98c3.81 0 6.827-3.052 6.827-6.876v-34.77c0-3.825-2.758-6.954-6.743-6.954" fill="#56B786"/><path d="M70.33 80.586c1.274 0 2.115-.938 2.115-2.218 0-1.302 1.206-2.397 2.456-2.397h21.98c3.81 0 6.827-3.05 6.827-6.873v-34.77c0-3.825-2.758-6.954-6.743-6.954V64.46c0 2.56-2.227 4.74-4.777 4.74H66.622v11.386h3.708z" fill="#48916C"/><path d="M71.207 29.734H85.98v1.474H71.207zm0 4.422H85.98v1.474H71.207zm0 4.422H85.98v1.474H71.207zm0 4.422H85.98v1.474H71.207zm0 4.422H85.98v1.474H71.207zm0 4.422H85.98v1.474H71.207zm0 4.422H85.98v1.474H71.207zm0 4.422H85.98v1.474H71.207zM47.57 29.734h14.774v1.474H47.57zm0 4.422h14.774v1.474H47.57zm0 4.422h14.774v1.474H47.57zm0 4.422h14.774v1.474H47.57zm0 4.422h14.774v1.474H47.57zm0 4.422h14.774v1.474H47.57zm0 4.422h14.774v1.474H47.57zm0 4.422h14.774v1.474H47.57z" fill="#56B786"/><path d="M20.61 126.102h.868v1.034h-3.07v-1.034h.866v-5.36h-.867v-1.002h3.07v1.003h-.866v5.36zm8.16-5.63l-.774.877c-.237-.204-.508-.36-.815-.47-.304-.113-.624-.17-.96-.17-.806 0-1.402.246-1.785.737-.383.49-.574 1.15-.574 1.98 0 .814.19 1.467.575 1.958.383.49.968.736 1.755.736.368 0 .71-.066 1.023-.202.313-.137.588-.316.825-.54l.825.9c-.313.313-.705.567-1.175.762-.47.195-.984.292-1.54.292-.788 0-1.46-.165-2.017-.496-.555-.33-.976-.79-1.26-1.38-.287-.587-.43-1.264-.43-2.03 0-.78.145-1.463.434-2.048.29-.585.714-1.04 1.274-1.363.56-.324 1.234-.485 2.02-.485.517 0 1.004.083 1.464.25.46.167.84.397 1.14.69zm.75 2.966c0-.773.15-1.454.45-2.042.3-.588.733-1.045 1.3-1.368.568-.324 1.245-.486 2.032-.486.787 0 1.466.162 2.037.486.57.323 1.004.78 1.304 1.368.3.588.45 1.27.45 2.042 0 .773-.15 1.454-.45 2.042-.3.59-.735 1.045-1.306 1.368-.572.324-1.25.486-2.038.486-.787 0-1.464-.162-2.03-.486-.57-.323-1.002-.78-1.302-1.368-.3-.588-.45-1.27-.45-2.042zm6.174 0c0-.836-.2-1.497-.6-1.985-.4-.487-.998-.73-1.792-.73-.787 0-1.38.243-1.78.73-.4.488-.6 1.15-.6 1.985 0 .836.2 1.497.6 1.985.4.487.993.73 1.78.73.794 0 1.39-.243 1.792-.73.4-.488.6-1.15.6-1.985zm2.685-3.698h1.554l3.656 5.516h.022l-.032-5.516h1.264v7.396h-1.556l-3.656-5.526h-.02l.04 5.526H38.38v-7.396z" fill="#4F6A92"/></g></g></svg>