<?xml version="1.0" encoding="UTF-8" standalone="no"?>
<svg width="431px" height="177px" viewBox="0 0 431 177" version="1.1" xmlns="http://www.w3.org/2000/svg" xmlns:xlink="http://www.w3.org/1999/xlink" xmlns:sketch="http://www.bohemiancoding.com/sketch/ns">
    <!-- Generator: Sketch 3.3.3 (12081) - http://www.bohemiancoding.com/sketch -->
    <title>Group</title>
    <desc>Created with Sketch.</desc>
    <defs>
        <linearGradient x1="-1.8758138%" y1="50%" x2="103.270671%" y2="0%" id="linearGradient-1">
            <stop stop-color="#9CE8BC" offset="0%"></stop>
            <stop stop-color="#48916C" offset="100%"></stop>
        </linearGradient>
    </defs>
    <g id="Page-1" stroke="none" stroke-width="1" fill="none" fill-rule="evenodd" sketch:type="MSPage">
        <g id="desktop-wide" sketch:type="MSArtboardGroup" transform="translate(-701.000000, -1537.000000)">
            <g id="Group" sketch:type="MSLayerGroup" transform="translate(701.000000, 1537.000000)">
                <rect id="Rectangle-55-Copy-7" stroke="#CFD7E5" fill="#FFFFFF" sketch:type="MSShapeGroup" x="147" y="0" width="134.295656" height="146.233048" rx="4"></rect>
                <rect id="Rectangle-55-Copy-5" stroke="#CFD7E5" fill="#FFFFFF" sketch:type="MSShapeGroup" x="72" y="15" width="134.295656" height="146.233048" rx="4"></rect>
                <rect id="Rectangle-55-Copy-6" stroke="#CFD7E5" fill="#FFFFFF" sketch:type="MSShapeGroup" x="222" y="15" width="134.295656" height="146.233048" rx="4"></rect>
                <g id="color" transform="translate(0.000000, 30.000000)" sketch:type="MSShapeGroup">
                    <rect id="Rectangle-54" stroke="#CFD7E5" fill="#FFFFFF" x="0" y="0" width="134.295656" height="146.233048" rx="4"></rect>
                    <rect id="Rectangle-54-Copy-10" fill="#0070D2" x="0" y="0" width="134.295656" height="102.213916" rx="4"></rect>
                    <path d="M26.0431878,121.703125 L25.2677321,122.583372 C25.030204,122.380775 24.7577493,122.223589 24.4503599,122.111811 C24.1429705,122.000033 23.8216138,121.944145 23.4862799,121.944145 C22.6758897,121.944145 22.0785852,122.190402 21.6943485,122.682924 C21.3101118,123.175446 21.1179963,123.837371 21.1179963,124.668719 C21.1179963,125.486096 21.3101118,126.141035 21.6943485,126.633556 C22.0785852,127.126078 22.6654107,127.372335 23.4548425,127.372335 C23.825107,127.372335 24.1674218,127.304221 24.4817973,127.167992 C24.7961728,127.031763 25.0721205,126.851873 25.3096486,126.628317 L26.1375,127.529522 C25.8231245,127.843897 25.430161,128.098887 24.9585978,128.294499 C24.4870345,128.49011 23.9718157,128.587914 23.412926,128.587914 C22.6234942,128.587914 21.9493435,128.421996 21.3904537,128.090155 C20.831564,127.758315 20.4089099,127.297238 20.1224789,126.70691 C19.8360479,126.116583 19.6928346,125.437193 19.6928346,124.668719 C19.6928346,123.886274 19.8377944,123.201644 20.1277185,122.61481 C20.4176425,122.027975 20.8437896,121.572138 21.4061724,121.247283 C21.9685553,120.922428 22.6444524,120.760003 23.4338842,120.760003 C23.9508573,120.760003 24.4398785,120.843836 24.9009625,121.011503 C25.3620466,121.17917 25.7427845,121.409708 26.0431878,121.703125 L26.0431878,121.703125 Z M26.6824148,124.679198 C26.6824148,123.903739 26.8326141,123.220856 27.1330174,122.630528 C27.4334206,122.040201 27.8683002,121.582617 28.4376692,121.257762 C29.0070381,120.932908 29.6864283,120.770483 30.4758601,120.770483 C31.2652919,120.770483 31.9464286,120.932908 32.5192906,121.257762 C33.0921526,121.582617 33.5287787,122.040201 33.829182,122.630528 C34.1295852,123.220856 34.2797846,123.903739 34.2797846,124.679198 C34.2797846,125.454658 34.1295852,126.137541 33.829182,126.727868 C33.5287787,127.318196 33.0921526,127.77578 32.5192906,128.100635 C31.9464286,128.425489 31.2652919,128.587914 30.4758601,128.587914 C29.6864283,128.587914 29.0070381,128.425489 28.4376692,128.100635 C27.8683002,127.77578 27.4334206,127.318196 27.1330174,126.727868 C26.8326141,126.137541 26.6824148,125.454658 26.6824148,124.679198 L26.6824148,124.679198 Z M32.8755811,124.679198 C32.8755811,123.840864 32.6747331,123.177192 32.273031,122.688164 C31.871329,122.199135 31.272278,121.954624 30.4758601,121.954624 C29.6864283,121.954624 29.0908703,122.199135 28.6891683,122.688164 C28.2874663,123.177192 28.0866183,123.840864 28.0866183,124.679198 C28.0866183,125.517533 28.2874663,126.181205 28.6891683,126.670233 C29.0908703,127.159262 29.6864283,127.403772 30.4758601,127.403772 C31.272278,127.403772 31.871329,127.159262 32.273031,126.670233 C32.6747331,126.181205 32.8755811,125.517533 32.8755811,124.679198 L32.8755811,124.679198 Z M36.9414838,127.246585 L40.1480978,127.246585 L40.1480978,128.388811 L35.5687177,128.388811 L35.5687177,120.969586 L36.9414838,120.969586 L36.9414838,127.246585 Z M40.4415135,124.679198 C40.4415135,123.903739 40.5917128,123.220856 40.8921161,122.630528 C41.1925193,122.040201 41.6273989,121.582617 42.1967679,121.257762 C42.7661368,120.932908 43.445527,120.770483 44.2349588,120.770483 C45.0243906,120.770483 45.7055273,120.932908 46.2783893,121.257762 C46.8512513,121.582617 47.2878774,122.040201 47.5882807,122.630528 C47.8886839,123.220856 48.0388833,123.903739 48.0388833,124.679198 C48.0388833,125.454658 47.8886839,126.137541 47.5882807,126.727868 C47.2878774,127.318196 46.8512513,127.77578 46.2783893,128.100635 C45.7055273,128.425489 45.0243906,128.587914 44.2349588,128.587914 C43.445527,128.587914 42.7661368,128.425489 42.1967679,128.100635 C41.6273989,127.77578 41.1925193,127.318196 40.8921161,126.727868 C40.5917128,126.137541 40.4415135,125.454658 40.4415135,124.679198 L40.4415135,124.679198 Z M46.6346798,124.679198 C46.6346798,123.840864 46.4338318,123.177192 46.0321297,122.688164 C45.6304277,122.199135 45.0313767,121.954624 44.2349588,121.954624 C43.445527,121.954624 42.849969,122.199135 42.448267,122.688164 C42.046565,123.177192 41.845717,123.840864 41.845717,124.679198 C41.845717,125.517533 42.046565,126.181205 42.448267,126.670233 C42.849969,127.159262 43.445527,127.403772 44.2349588,127.403772 C45.0313767,127.403772 45.6304277,127.159262 46.0321297,126.670233 C46.4338318,126.181205 46.6346798,125.517533 46.6346798,124.679198 L46.6346798,124.679198 Z M53.4251565,128.388811 L51.9580782,125.873819 L50.7005825,125.873819 L50.7005825,128.388811 L49.3278164,128.388811 L49.3278164,120.969586 L51.9266408,120.969586 C52.7579893,120.969586 53.43214,121.184406 53.949113,121.614053 C54.4660861,122.043699 54.7245687,122.656722 54.7245687,123.45314 C54.7245687,124.501058 54.2250685,125.217125 53.226053,125.601362 L54.9970261,128.388811 L53.4251565,128.388811 Z M51.8532869,124.825906 C52.2794403,124.825906 52.6287412,124.712383 52.9011999,124.485334 C53.1736587,124.258286 53.309886,123.914224 53.309886,123.45314 C53.309886,122.98507 53.1701657,122.637516 52.8907208,122.410467 C52.6112759,122.183418 52.2584821,122.069895 51.8323286,122.069895 L50.6901034,122.069895 L50.6901034,124.825906 L51.8532869,124.825906 Z" id="COLOR" fill="#4F6A92"></path>
                </g>
                <g id="typography" transform="translate(147.000000, 30.000000)" sketch:type="MSShapeGroup">
                    <rect id="Rectangle-55-Copy-3" stroke="#CFD7E5" fill="#FFFFFF" x="0" y="0.165217491" width="134.295656" height="146.233048" rx="4"></rect>
                    <rect id="Rectangle-56-Copy-3" fill="#4F6A92" x="19.2317528" y="101.972177" width="96.7415444" height="3.49304359"></rect>
                    <path d="M25.1105452,122.243918 L22.8784903,122.243918 L22.8784903,128.510439 L21.5057242,128.510439 L21.5057242,122.243918 L19.2736693,122.243918 L19.2736693,121.091214 L25.1105452,121.091214 L25.1105452,122.243918 Z M28.9983027,125.35622 L28.9983027,128.510439 L27.6255365,128.510439 L27.6255365,125.335262 L25.016233,121.091214 L26.5881026,121.091214 L28.3590757,124.245432 L28.380034,124.245432 L30.1300488,121.091214 L31.6495228,121.091214 L28.9983027,125.35622 Z M37.7798143,123.574768 C37.7798143,124.126672 37.6505729,124.594735 37.3920864,124.978972 C37.1335999,125.363208 36.7930316,125.647888 36.3703712,125.833021 C35.9477108,126.018153 35.4848871,126.110718 34.9818863,126.110718 L33.6824741,126.110718 L33.6824741,128.510439 L32.309708,128.510439 L32.309708,121.091214 L34.9818863,121.091214 C35.820221,121.091214 36.4961182,121.295555 37.0095981,121.704243 C37.5230781,122.112931 37.7798143,122.736433 37.7798143,123.574768 L37.7798143,123.574768 Z M33.671995,122.191523 L33.671995,124.99993 L34.8561368,124.99993 C35.2892763,124.99993 35.6525492,124.882914 35.9459664,124.648879 C36.2393835,124.414844 36.3860899,124.060303 36.3860899,123.585247 C36.3860899,123.089232 36.2428765,122.732946 35.9564455,122.516376 C35.6700145,122.299806 35.3067416,122.191523 34.8666159,122.191523 L33.671995,122.191523 Z M38.4609578,124.800826 C38.4609578,124.025367 38.6111571,123.342484 38.9115604,122.752156 C39.2119636,122.161829 39.6468432,121.704245 40.2162122,121.37939 C40.7855811,121.054535 41.4649713,120.892111 42.2544031,120.892111 C43.0438349,120.892111 43.7249716,121.054535 44.2978336,121.37939 C44.8706956,121.704245 45.3073217,122.161829 45.6077249,122.752156 C45.9081282,123.342484 46.0583276,124.025367 46.0583276,124.800826 C46.0583276,125.576286 45.9081282,126.259169 45.6077249,126.849496 C45.3073217,127.439824 44.8706956,127.897408 44.2978336,128.222263 C43.7249716,128.547117 43.0438349,128.709542 42.2544031,128.709542 C41.4649713,128.709542 40.7855811,128.547117 40.2162122,128.222263 C39.6468432,127.897408 39.2119636,127.439824 38.9115604,126.849496 C38.6111571,126.259169 38.4609578,125.576286 38.4609578,124.800826 L38.4609578,124.800826 Z M44.654124,124.800826 C44.654124,123.962492 44.453276,123.29882 44.051574,122.809791 C43.649872,122.320763 43.050821,122.076252 42.2544031,122.076252 C41.4649713,122.076252 40.8694133,122.320763 40.4677113,122.809791 C40.0660093,123.29882 39.8651613,123.962492 39.8651613,124.800826 C39.8651613,125.639161 40.0660093,126.302833 40.4677113,126.791861 C40.8694133,127.28089 41.4649713,127.5254 42.2544031,127.5254 C43.050821,127.5254 43.649872,127.28089 44.051574,126.791861 C44.453276,126.302833 44.654124,125.639161 44.654124,124.800826 L44.654124,124.800826 Z M46.9700119,124.790347 C46.9700119,124.014888 47.1184648,123.333751 47.415375,122.746917 C47.7122852,122.160082 48.1436718,121.704245 48.7095476,121.37939 C49.2754235,121.054535 49.9530672,120.892111 50.742499,120.892111 C51.259472,120.892111 51.7484933,120.975943 52.2095773,121.14361 C52.6706614,121.311277 53.0513993,121.541815 53.3518026,121.835232 L52.5763469,122.715479 C52.3388187,122.512882 52.0646176,122.35395 51.7537351,122.238679 C51.4428527,122.123408 51.1232424,122.065773 50.7948947,122.065773 C49.9775184,122.065773 49.3697349,122.31203 48.9715259,122.804552 C48.573317,123.297074 48.3742155,123.958999 48.3742155,124.790347 C48.3742155,126.64167 49.1741144,127.567317 50.7739364,127.567317 C51.2909094,127.567317 51.7869167,127.46602 52.261973,127.263422 L52.261973,125.607719 L50.742499,125.607719 L50.742499,124.559806 L53.5299478,124.559806 L53.5299478,128.00744 C52.6916131,128.475511 51.7659658,128.709542 50.7529781,128.709542 C49.9356019,128.709542 49.2439861,128.545371 48.6781103,128.217023 C48.1122344,127.888675 47.6860873,127.431091 47.3996563,126.844257 C47.1132253,126.257423 46.9700119,125.572793 46.9700119,124.790347 L46.9700119,124.790347 Z M59.2201158,128.510439 L57.7530375,125.995447 L56.4955418,125.995447 L56.4955418,128.510439 L55.1227757,128.510439 L55.1227757,121.091214 L57.7216001,121.091214 C58.5529486,121.091214 59.2270993,121.306034 59.7440723,121.735681 C60.2610454,122.165327 60.519528,122.77835 60.519528,123.574768 C60.519528,124.622686 60.0200278,125.338753 59.0210123,125.72299 L60.7919854,128.510439 L59.2201158,128.510439 Z M57.6482462,124.947534 C58.0743996,124.947534 58.4237005,124.834011 58.6961593,124.606962 C58.968618,124.379913 59.1048454,124.035852 59.1048454,123.574768 C59.1048454,123.106698 58.965125,122.759143 58.6856801,122.532095 C58.4062352,122.305046 58.0534414,122.191523 57.6272879,122.191523 L56.4850627,122.191523 L56.4850627,124.947534 L57.6482462,124.947534 Z M66.1468212,126.907132 L63.1288316,126.907132 L62.5315211,128.510439 L61.0958802,128.510439 L63.9462038,121.091214 L65.3608864,121.091214 L68.2007309,128.510439 L66.7126943,128.510439 L66.1468212,126.907132 Z M63.4956012,125.859219 L65.7905308,125.859219 L64.6483055,122.495418 L63.4956012,125.859219 Z M74.4882093,123.574768 C74.4882093,124.126672 74.358968,124.594735 74.1004815,124.978972 C73.841995,125.363208 73.5014266,125.647888 73.0787662,125.833021 C72.6561059,126.018153 72.1932822,126.110718 71.6902814,126.110718 L70.3908692,126.110718 L70.3908692,128.510439 L69.0181031,128.510439 L69.0181031,121.091214 L71.6902814,121.091214 C72.5286161,121.091214 73.2045132,121.295555 73.7179932,121.704243 C74.2314732,122.112931 74.4882093,122.736433 74.4882093,123.574768 L74.4882093,123.574768 Z M70.3803901,122.191523 L70.3803901,124.99993 L71.5645318,124.99993 C71.9976714,124.99993 72.3609443,124.882914 72.6543614,124.648879 C72.9477786,124.414844 73.0944849,124.060303 73.0944849,123.585247 C73.0944849,123.089232 72.9512716,122.732946 72.6648406,122.516376 C72.3784096,122.299806 72.0151367,122.191523 71.575011,122.191523 L70.3803901,122.191523 Z M81.7816843,128.510439 L80.3984391,128.510439 L80.3984391,125.251429 L76.9717633,125.251429 L76.9717633,128.510439 L75.5989972,128.510439 L75.5989972,121.091214 L76.9717633,121.091214 L76.9717633,124.15112 L80.3984391,124.15112 L80.3984391,121.091214 L81.7816843,121.091214 L81.7816843,128.510439 Z M86.402981,125.35622 L86.402981,128.510439 L85.0302149,128.510439 L85.0302149,125.335262 L82.4209113,121.091214 L83.9927809,121.091214 L85.763754,124.245432 L85.7847123,124.245432 L87.5347271,121.091214 L89.0542011,121.091214 L86.402981,125.35622 Z" id="TYPOGRAPHY" fill="#4F6A92"></path>
                    <path d="M76.6159846,67.7603753 C76.6159846,62.0596996 78.6419296,58.0916418 82.6938805,55.8560827 C86.7458313,53.6205236 92.5721697,52.5027609 100.173071,52.5027609 C102.017407,52.5027609 103.41461,52.5307049 104.364723,52.5865939 L104.364723,50.4069347 C104.364723,45.7122607 101.374707,43.3649588 95.394587,43.3649588 C91.0911357,43.3649588 86.8715813,44.4827216 82.735797,46.7182807 L79.2148091,39.7601379 C81.5621461,38.3629134 84.2168327,37.2591227 87.1789484,36.4487325 C90.1410642,35.6383424 93.0751915,35.2331534 95.9814183,35.2331534 C102.632207,35.2331534 107.438586,36.7281611 110.400702,39.7182213 C113.362818,42.7082816 114.843854,47.2771369 114.843854,53.4249244 L114.843854,70.0238675 C114.843854,72.1476486 115.09535,75.4729929 115.598351,80 L105.957551,80 C105.566328,77.7085519 105.314831,76.0598519 105.203053,75.0538503 L104.951554,75.0538503 C103.386663,77.1217424 101.51441,78.6586662 99.3347401,79.6646678 C97.15507,80.6706694 94.2768309,81.1736626 90.6999364,81.1736626 C86.67593,81.1736626 83.3226417,80.0139838 80.6399708,77.6945912 C77.9572999,75.3751987 76.6159846,72.0638265 76.6159846,67.7603753 L76.6159846,67.7603753 Z M104.448556,63.1495577 L104.448556,59.6285698 L101.2629,59.5447367 C96.3446702,59.5447367 92.8237175,60.1175902 90.6999364,61.2633142 C88.5761553,62.4090382 87.5142806,64.323207 87.5142806,67.0058779 C87.5142806,68.9061031 88.073162,70.3731667 89.1909415,71.4071128 C90.3087211,72.4410588 91.8177008,72.9580241 93.717926,72.9580241 C95.7858182,72.9580241 97.6301267,72.496947 99.2509071,71.5747789 C100.871687,70.6526107 102.143143,69.4510158 103.065311,67.9699579 C103.987479,66.4889 104.448556,64.882116 104.448556,63.1495577 L104.448556,63.1495577 Z" id="a-copy-3" fill="#4F6A92"></path>
                    <path d="M59.3877819,67.1735439 L35.2438646,67.1735439 L30.465381,80 L18.9802537,80 L41.7828422,20.6462033 L53.1003034,20.6462033 L75.8190589,80 L63.9147664,80 L59.3877819,67.1735439 Z M38.1780212,58.7902393 L56.5374583,58.7902393 L47.3996563,31.8798315 L38.1780212,58.7902393 Z" id="A" fill="#4F6A92"></path>
                </g>
                <g id="icon" transform="translate(296.000000, 30.000000)" sketch:type="MSShapeGroup">
                    <rect id="Rectangle-55-Copy-4" stroke="#CFD7E5" fill="#FFFFFF" x="0" y="0.0435895666" width="134.295656" height="146.233048" rx="4"></rect>
                    <rect id="line" fill="url(#linearGradient-1)" x="18.6521745" y="103.70609" width="96.9913074" height="0.74608698"></rect>
                    <g id="Imported-Layers" transform="translate(29.843479, 20.890435)">
                        <path d="M8.888645,48.6184382 L33.703111,48.6184382 C34.9777774,48.6184382 35.858612,49.8985186 35.858612,48.6184382 L35.858612,7.85587802 C35.858612,5.29571722 33.703111,3.07711634 31.394368,3.07711634 L9.23466528,3.07711634 C7.77457616,3.07711634 6.74264499,4.4196622 6.74264499,5.88529271 L6.74264499,46.3182937 C6.74264499,47.5986818 7.61397861,48.6184382 8.888645,48.6184382" id="Fill-1" fill="#BAFFD7"></path>
                        <path d="M34.130197,48.6184382 C35.4313877,48.6184382 37.0845474,49.8985186 37.0845474,48.6184382 L37.0845474,4.77876168 C37.0845474,2.21860088 34.8841931,0 32.527408,0 L15.7226823,0 C14.2322105,0 13.1788061,1.34254586 13.1788061,2.80817637 L13.1788061,46.3182937 C13.1788061,47.5986818 14.0682711,48.6184382 15.3694618,48.6184382 L34.130197,48.6184382 Z" id="Fill-2" fill="#97EDB9"></path>
                        <path d="M39.4236323,48.6184382 L64.1985619,48.6184382 C65.6583445,48.6184382 67.119966,47.4368255 67.119966,45.971195 L67.119966,5.53788628 C67.119966,4.25780588 65.819555,3.07711634 64.5442757,3.07711634 L41.7323752,3.07711634 C39.4236323,3.07711634 37.0845474,5.29571722 37.0845474,7.85587802 L37.0845474,48.3107266 C37.0845474,49.590807 38.1486594,48.6184382 39.4236323,48.6184382" id="Fill-3" fill="#56B786"></path>
                        <path d="M57.4366971,48.6184382 C58.9060836,48.6184382 60.377321,47.4368255 60.377321,45.971195 L60.377321,2.46076994 C60.377321,1.18068954 59.0683547,0 57.7846853,0 L41.6097111,0 C39.2857791,0 36.9313055,2.21860088 36.9313055,4.77876168 L36.9313055,48.3107266 C36.9313055,49.590807 38.0024182,48.6184382 39.2857791,48.6184382 L57.4366971,48.6184382 Z" id="Fill-4" fill="#B9FFD7"></path>
                        <path d="M67.119966,6.48133015 L67.119966,43.5695057 C67.119966,46.1296665 64.9690623,48.3107266 62.4191165,48.3107266 L11.6264653,48.3107266 C9.07651961,48.3107266 6.74264499,46.1296665 6.74264499,43.5695057 L6.74264499,6.48133015 C3.3713225,6.48133015 0,9.61075747 0,13.4353054 L0,48.2054892 C0,52.0300371 3.19999802,55.0803825 7.00928595,55.0803825 L28.9884697,55.0803825 C30.2389239,55.0803825 31.261354,56.1758359 31.261354,57.4312994 L31.261354,57.4774561 C31.261354,58.7575365 32.2850101,59.696057 33.5596765,59.696057 L40.4862118,59.696057 C41.7608782,59.696057 42.601257,58.7575365 42.601257,57.4774561 L42.601257,57.4312994 C42.601257,56.1758359 43.807271,55.0803825 45.0574187,55.0803825 L67.0369089,55.0803825 C70.8458904,55.0803825 73.862611,52.0300371 73.862611,48.2054892 L73.862611,13.4353054 C73.862611,9.61075747 71.1042563,6.48133015 67.119966,6.48133015" id="Fill-5" fill="#56B786"></path>
                        <path d="M40.4862118,59.696057 C41.7608782,59.696057 42.601257,58.7575365 42.601257,57.4774561 C42.601257,56.1758359 43.807271,55.0803825 45.0574187,55.0803825 L67.0369089,55.0803825 C70.8458904,55.0803825 73.862611,52.0300371 73.862611,48.2054892 L73.862611,13.4353054 C73.862611,9.61075747 71.1042563,6.48133015 67.119966,6.48133015 L67.119966,43.5695057 C67.119966,46.1296665 64.8924413,48.3107266 62.3424956,48.3107266 L36.7780636,48.3107266 L36.7780636,59.696057 L40.4862118,59.696057 Z" id="Fill-6" fill="#48916C"></path>
                        <g id="Group" transform="translate(41.363062, 8.843860)" fill="#56B786">
                            <rect id="Rectangle-65" x="0" y="0" width="14.7725222" height="1.47397672"></rect>
                            <rect id="Rectangle-65-Copy" x="0" y="4.42193015" width="14.7725222" height="1.47397672"></rect>
                            <rect id="Rectangle-65-Copy-2" x="0" y="8.8438603" width="14.7725222" height="1.47397672"></rect>
                            <rect id="Rectangle-65-Copy-5" x="0" y="13.2657905" width="14.7725222" height="1.47397672"></rect>
                            <rect id="Rectangle-65-Copy-3" x="0" y="17.6877206" width="14.7725222" height="1.47397672"></rect>
                            <rect id="Rectangle-65-Copy-4" x="0" y="22.1096508" width="14.7725222" height="1.47397672"></rect>
                            <rect id="Rectangle-65-Copy-8" x="0" y="26.5315809" width="14.7725222" height="1.47397672"></rect>
                            <rect id="Rectangle-65-Copy-6" x="0" y="30.9535111" width="14.7725222" height="1.47397672"></rect>
                        </g>
                        <g id="Group-Copy-2" transform="translate(17.727027, 8.843860)" fill="#56B786">
                            <rect id="Rectangle-65" x="0" y="0" width="14.7725222" height="1.47397672"></rect>
                            <rect id="Rectangle-65-Copy" x="0" y="4.42193015" width="14.7725222" height="1.47397672"></rect>
                            <rect id="Rectangle-65-Copy-2" x="0" y="8.8438603" width="14.7725222" height="1.47397672"></rect>
                            <rect id="Rectangle-65-Copy-5" x="0" y="13.2657905" width="14.7725222" height="1.47397672"></rect>
                            <rect id="Rectangle-65-Copy-3" x="0" y="17.6877206" width="14.7725222" height="1.47397672"></rect>
                            <rect id="Rectangle-65-Copy-4" x="0" y="22.1096508" width="14.7725222" height="1.47397672"></rect>
                            <rect id="Rectangle-65-Copy-8" x="0" y="26.5315809" width="14.7725222" height="1.47397672"></rect>
                            <rect id="Rectangle-65-Copy-6" x="0" y="30.9535111" width="14.7725222" height="1.47397672"></rect>
                        </g>
                    </g>
                    <path d="M20.6113989,126.101579 L21.478352,126.101579 L21.478352,127.135656 L18.407458,127.135656 L18.407458,126.101579 L19.274411,126.101579 L19.274411,120.743183 L18.407458,120.743183 L18.407458,119.740442 L21.478352,119.740442 L21.478352,120.743183 L20.6113989,120.743183 L20.6113989,126.101579 Z M28.769114,120.471607 L27.9961678,121.349005 C27.7594084,121.147063 27.4878354,120.990387 27.1814409,120.87897 C26.8750463,120.767554 26.5547295,120.711847 26.2204808,120.711847 C25.4127133,120.711847 24.8173418,120.957307 24.4343486,121.448235 C24.0513554,121.939163 23.8598616,122.598945 23.8598616,123.427604 C23.8598616,124.242335 24.0513554,124.895154 24.4343486,125.386082 C24.8173418,125.87701 25.4022682,126.12247 26.1891452,126.12247 C26.5582114,126.12247 26.8994184,126.054577 27.2127765,125.918788 C27.5261346,125.782999 27.8011893,125.603692 28.0379487,125.380859 L28.8631209,126.279148 C28.5497628,126.592506 28.1580711,126.846671 27.6880339,127.041649 C27.2179968,127.236627 26.7044454,127.334115 26.1473643,127.334115 C25.3604873,127.334115 24.6885183,127.168734 24.1314373,126.837967 C23.5743562,126.5072 23.15307,126.047615 22.8675659,125.459198 C22.5820619,124.870782 22.439312,124.19359 22.439312,123.427604 C22.439312,122.64769 22.5838027,121.965276 22.8727885,121.380341 C23.1617743,120.795406 23.5865423,120.341043 24.1471051,120.01724 C24.7076679,119.693437 25.3813777,119.531537 26.1682547,119.531537 C26.6835547,119.531537 27.1709933,119.615098 27.6305852,119.782223 C28.0901771,119.949347 28.4696829,120.179139 28.769114,120.471607 L28.769114,120.471607 Z M29.5211696,123.438049 C29.5211696,122.665099 29.6708829,121.984426 29.970314,121.396009 C30.2697451,120.807592 30.7032173,120.351489 31.2707436,120.027685 C31.8382699,119.703882 32.5154614,119.541983 33.3023384,119.541983 C34.0892154,119.541983 34.7681478,119.703882 35.3391559,120.027685 C35.910164,120.351489 36.345377,120.807592 36.6448081,121.396009 C36.9442392,121.984426 37.0939525,122.665099 37.0939525,123.438049 C37.0939525,124.210999 36.9442392,124.891672 36.6448081,125.480089 C36.345377,126.068506 35.910164,126.524609 35.3391559,126.848412 C34.7681478,127.172216 34.0892154,127.334115 33.3023384,127.334115 C32.5154614,127.334115 31.8382699,127.172216 31.2707436,126.848412 C30.7032173,126.524609 30.2697451,126.068506 29.970314,125.480089 C29.6708829,124.891672 29.5211696,124.210999 29.5211696,123.438049 L29.5211696,123.438049 Z M35.6942933,123.438049 C35.6942933,122.602427 35.4940953,121.940903 35.0936933,121.453457 C34.6932913,120.966011 34.096179,120.722292 33.3023384,120.722292 C32.5154614,120.722292 31.9218308,120.966011 31.5214288,121.453457 C31.1210268,121.940903 30.9208288,122.602427 30.9208288,123.438049 C30.9208288,124.27367 31.1210268,124.935194 31.5214288,125.42264 C31.9218308,125.910086 32.5154614,126.153805 33.3023384,126.153805 C34.096179,126.153805 34.6932913,125.910086 35.0936933,125.42264 C35.4940953,124.935194 35.6942933,124.27367 35.6942933,123.438049 L35.6942933,123.438049 Z M38.3787143,119.740442 L39.9350517,119.740442 L43.5908779,125.255517 L43.6117683,125.255517 L43.5804327,119.740442 L44.844304,119.740442 L44.844304,127.135656 L43.2879666,127.135656 L39.6321404,121.610136 L39.6112499,121.610136 L39.6530308,127.135656 L38.3787143,127.135656 L38.3787143,119.740442 Z" id="ICON" fill="#4F6A92"></path>
                </g>
            </g>
        </g>
    </g>
</svg>