<svg width="380" height="167" xmlns="http://www.w3.org/2000/svg"><g fill="none" fill-rule="evenodd"><path d="M209.358 23.178l-71.083 70.41 30.843 31.04L239.9 53.805l-30.54-30.627" fill="#2ECBBE"/><path d="M213.91 18.64l2.907-2.864c5.586-5.554 15.225-8.1 22.033-2.4.145.123 8.93 8.985 8.93 8.985 6.682 6.72 6.515 17.355-.378 24.214l-2.884 2.863L213.91 18.64" fill="#2DA193"/><path d="M244.022 18.572c-2.406-2.424-5.093-5.128-5.172-5.196-6.808-5.7-16.447-3.154-22.033 2.4l-2.906 2.864 15.058 15.148 15.055-15.216" fill="#38BAAF"/><path d="M213.983 18.573l-4.674 4.63 30.59 30.603 4.505-4.51-30.423-30.723" fill="#95F7E4"/><path d="M138.275 93.588l15.528 15.724 70.783-70.82-15.228-15.314-71.083 70.41z" fill="#80F1DB"/><path d="M131.985 104.134l-8.566 27.398c-.528 1.688-.465 3.56.41 5.093 1.14 2.003 3.2 3.105 5.315 3.105.604 0 1.214-.09 1.81-.275 0 0 18.71-5.82 27.74-8.65 4.035-1.264 7.75-3.513 10.746-6.504L138.6 93.264c-3.05 3.02-5.337 6.78-6.615 10.872z" fill="#39D8C5"/><path d="M154.19 108.858L138.6 93.262c-3.05 3.02-5.337 6.78-6.615 10.872l-8.566 27.398c-.528 1.688-.465 3.56.41 5.093 0 0 .87 1.476 1.83 1.93" fill="#95F8E4"/><path d="M45.235 55.852L21.855 40.22c-.854-.534-1.472.074-1.472.074L.433 57.624c-.437.34-.433.918-.433.918v21.51c0 .07.01.31.137.56.12.243.375.434.375.434l21.68 15.52c.297.154.432.224.798.206.365-.02.66-.262.66-.262l18.136-14.917s.332-.224.412-.76l3.545-23.79s.05-.302-.07-.635c-.11-.303-.323-.464-.438-.556zm-.117.655L24.184 73.37.69 58.125c.05-.1.233-.267.233-.267l19.543-16.995s.592-.698 1.425-.075L44.68 56.02c.3.2.438.487.438.487zM22.212 95.932L.992 80.785s-.256-.197-.364-.348c-.167-.236-.14-.63-.14-.63l.02-21.08s.003-.137.012-.164l23.393 15.21-1.19 22.37c-.247-.035-.51-.21-.51-.21zm23.013-38.746l-3.458 23.45c-.08.51-.424.748-.424.748L23.67 95.89c-.316.228-.478.236-.478.236L24.4 73.754l20.837-16.726c.004.062-.012.158-.012.158z" fill="#56B786"/><path d="M126.08.137L81.57 24.57s-.54.28-.57.916c-.03.668.51.976.51.976l44.528 26.95s.5.345 1.09.027c.588-.32.568-.94.568-.94l.026-51.407s.037-.562-.504-.924c-.54-.363-1.138-.034-1.138-.034zm.494.368L109.137 26.14l-27.64-.843s.074-.3.888-.727L125.66.828c.684-.358.914-.323.914-.323zm-.967 52.105L82.305 26.462s-.743-.41-.79-.697l27.622.814 17.467 26.477c-.23 0-.997-.448-.997-.448zm1.67-50.816v49.9c.03 1.14-.235 1.223-.235 1.223l-17.493-26.55L127.03.647c.3.1.247 1.145.247 1.145z" fill="#D3547B"/><path d="M86.54 141.27c0 12.852-10.418 23.27-23.27 23.27S40 154.122 40 141.27 50.418 118 63.27 118s23.27 10.418 23.27 23.27zm-23.27-22.805c-12.595 0-22.805 10.21-22.805 22.805 0 12.595 10.21 22.804 22.805 22.804 12.595 0 22.805-10.21 22.805-22.804 0-12.595-10.21-22.805-22.805-22.805z" fill="#F7B64B"/><path d="M266.124 129.916c.417-.952 1.198-4.082-1.826-8.194-3.023-4.113-7.973-7.092-13.57-7.845-5.598-.752-8.13 1.8-9.173 3.45-.944 1.492-17.446 32.67-17.836 33.48-.414.854-.33 1.934-.33 1.934s-.064 3.64 2.882 6.92c3.272 3.645 6.737 5.737 12.012 6.855 5.275 1.12 8.337-1.342 8.337-1.342l.005.004c1.387-1.08 1.727-1.935 2.277-2.866.707-1.194 16.805-31.44 17.22-32.393zm-16.645-15.49c3.637.107 6.84 1.545 9.33 3.072 2.246 1.376 5.443 4.37 6.606 7.48 1.164 3.11.37 6.397-3.027 7.695-3.397 1.298-7.333.43-9.618-.415s-5.83-2.64-8.634-5.973c-2.806-3.334-2.96-6.707-2.006-8.574 1.208-2.363 3.706-3.39 7.345-3.282zm-1.528 48.242c-.768 1.422-1.893 2.184-1.893 2.184-.36.234-.76.438-1.206.61-3.397 1.297-7.333.428-9.618-.417-2.285-.844-5.83-2.638-8.634-5.972-1.745-2.076-2.463-4.165-2.528-5.898 0 0-.12-1.395.208-1.99l16.642-31.232s-.062 3.64 2.883 6.92c3.273 3.643 6.738 5.735 12.013 6.854 5.276 1.118 8.337-1.343 8.337-1.343s-15.546 29.068-16.204 30.284z" fill="#7A90B2"/><path d="M333.223 47.477l6.405-24.823s.083-.246-.018-.552c-.103-.308-.332-.474-.332-.474l-21.58-16.42S317.466 5 317.084 5c-.338 0-.61.2-.61.2L294.39 22.284c-.143.112-.324.335-.377.646-.054.312.08.55.08.55l10.8 24.506c.108.244.3.39.3.39l12.19 10.237s.29.243.64.23c.402-.018.583-.193.583-.193l14.26-10.613s.283-.19.357-.56zm5.933-25.303l-23.875 16.8-20.753-16.085s.055-.3.356-.53l21.6-16.655s.248-.237.63-.233c.3.003.586.248.586.248l21.175 16.11c.207.172.282.344.282.344zM317.37 58.096l-11.886-10.01s-.155-.1-.255-.328L294.535 23.43l20.558 15.923 2.6 18.928s-.174-.05-.324-.183zm15.117-10.292l-13.88 10.35c-.17.144-.497.184-.497.184l-2.613-19.01 23.72-16.714c0 .048-.03.196-.03.196l-6.33 24.43c-.074.35-.37.564-.37.564z" fill="#67BDFD"/><path d="M319.568 132.213c.698.54 1.403.26 1.403.26l46.83-15.04 11.867-16.893s.424-.527.17-1.297c-.256-.77-.973-.952-.973-.952l-47.23-15.215s-.378-.144-.868-.03c-.566.13-.88.593-.88.593l-9.768 13.984c-.263.356-.27.808-.27.808l-.844 32.576s-.074.715.565 1.21zm.505-.625c-.502-.358-.385-1.462-.385-1.462l.788-31.425s.012-.264.09-.46l45.892 18.98-44.778 14.376s-1.093.358-1.607-.007zm59.087-32.08c.106.544-.495 1.35-.495 1.35l-11.318 16.097-46.436-19.252 9.234-13.352s.316-.5.764-.61c.494-.12.906.057.906.057l46.092 14.81s1.13.25 1.255.903z" fill="#C97DD4"/></g></svg>