<svg width="120" height="158" viewBox="0 0 120 158" xmlns="http://www.w3.org/2000/svg"><g fill="#FEFEFE" fill-rule="evenodd"><path d="M25.4 130.946C9.496 119.532 0 100.93 0 81.18c0-25.256 14.964-47.525 38.123-56.73 1.203-.478 2.426-.92 3.667-1.32l.633 2.025c-1.198.385-2.378.81-3.54 1.273C16.534 35.312 2.092 56.803 2.092 81.18c0 19.06 9.165 37.017 24.516 48.033l-1.206 1.733zM59.977 142.078c-2.692 0-5.386-.18-8.01-.54l.28-2.1c2.53.344 5.13.518 7.73.518 31.918 0 57.888-26.367 57.888-58.776 0-6.873-1.16-13.61-3.444-20.02l1.964-.724c2.37 6.645 3.57 13.624 3.57 20.744 0 33.58-26.905 60.898-59.977 60.898" stroke="#FFF" stroke-width="1.2"/><path d="M62.49 0L38.342 62.062l25.08.005L26.08 158.08l78.686-103.867-28.146.016L106.66 0"/></g></svg>
