<svg width="105" height="105" xmlns="http://www.w3.org/2000/svg"><g fill="none" fill-rule="evenodd"><path d="M19.246 21.123s-1.227 2.62-1.31 3.156L.196 66.396s.05.416.366.95c.48.81 38.524 32.203 38.976 32.657.452.454 4.412-3.066 4.9-3.223.49-.155 44.58-5.315 45.15-5.467.656-.173 1.508-.8 1.642-2 .125-1.122 13.023-49.26 13.31-50.12.284-.857-.228-1.422-.347-1.525-.12-.105-36.85-36.945-37.158-37.255-.31-.31-1.07-.493-1.678-.27-.61.223-43.296 18.744-43.78 18.848-.48.105-2.002 1.853-2.334 2.13" fill="#E97293"/><path d="M31.843 34.737l16.28 19.413s1.274.99 2.313-.104C52.096 52.3 67.648 37.75 67.648 37.75s1.463-1.6.272-2.84c-1.966-2.052-17.27-19.026-17.27-19.026L31.842 34.737M66.67.187L90.723 90.56s.574-.674.756-1.447c.18-.772 13.196-49.82 13.32-50.227.125-.408.065-.982-.423-1.467C103.887 36.932 68.24 1.19 68.05 1c-.355-.355-1.095-.772-1.38-.814" fill="#D3547B"/><path d="M90.45 90.848L.36 66.946s.312.703.645 1.042c.33.34 36.204 36.294 36.467 36.558.263.264.578.538 1.422.33 1.062-.26 50.113-13.252 50.113-13.252s.727-.136 1.444-.776" fill="#BF4C76"/><path d="M64.884.125S16.668 12.523 15.36 12.862c-2.073.534-2.49 2.405-2.49 2.405S.434 63.932.23 64.86c-.216.995-.022 1.587-.022 1.587L66.378.11c.21.058-.547-.194-1.494.015" fill="#FFBED0"/><path d="M31.51 35.066l16.28 19.412s1.274.99 2.313-.103C51.76 52.63 67.315 38.08 67.315 38.08s1.462-1.6.27-2.843c-1.964-2.05-17.27-19.025-17.27-19.025L31.51 35.066" fill="#EFB47F"/><path d="M31.51 35.066L18.055 12.168l27.78-7.145 4.48 11.19L31.51 35.065" fill="#F8CDA1"/><path d="M61.646 37.555c.317.616.14 1.34-.398 1.617-.536.276-1.226 0-1.543-.615-.316-.616-.138-1.34.398-1.615.536-.277 1.227-.003 1.543.613m-4.21 3.962c.317.616.14 1.34-.397 1.616-.538.276-1.228 0-1.545-.614-.316-.618-.14-1.34.398-1.618.536-.277 1.227-.002 1.543.614m-4.653 4.064c.316.617.138 1.34-.398 1.617-.536.277-1.227.002-1.543-.614-.316-.616-.14-1.34.397-1.616.534-.277 1.225-.002 1.542.614m1.164-15.736c.316.616.14 1.34-.398 1.616-.536.277-1.226.002-1.543-.614-.316-.616-.138-1.34.398-1.616.535-.276 1.227-.002 1.543.614m-4.21 3.96c.317.617.14 1.34-.397 1.618-.537.276-1.23 0-1.545-.614-.316-.616-.14-1.34.398-1.617.536-.274 1.227 0 1.543.616m-4.653 4.064c.316.616.138 1.34-.398 1.616s-1.227 0-1.543-.614c-.317-.616-.14-1.34.398-1.616.536-.277 1.227-.002 1.543.614m11.307-2.83c.325.612.157 1.34-.375 1.622-.533.284-1.227.017-1.55-.594-.325-.612-.157-1.337.375-1.62.532-.285 1.227-.02 1.55.593m4.31-3.97c.323.61.155 1.337-.378 1.62-.532.283-1.226.017-1.55-.594-.325-.612-.156-1.337.376-1.62.533-.285 1.227-.02 1.55.593m-9.102 8.488c.324.612.155 1.337-.377 1.62-.534.284-1.228.02-1.553-.593-.324-.612-.155-1.337.377-1.62.532-.285 1.227-.02 1.55.593m-4.887 4.345c.324.612.155 1.338-.377 1.62-.533.285-1.227.02-1.55-.593-.325-.612-.157-1.337.376-1.62.532-.284 1.226-.02 1.55.593m1.644-16.396c.323.61.155 1.337-.378 1.62-.533.284-1.227.018-1.55-.593-.325-.612-.157-1.338.376-1.62.532-.285 1.226-.02 1.55.593m4.31-3.973c.323.612.154 1.338-.378 1.62-.532.285-1.227.02-1.55-.593-.325-.61-.157-1.335.376-1.62.532-.283 1.227-.017 1.55.595m-9.102 8.488c.324.612.155 1.338-.377 1.622-.532.283-1.227.017-1.55-.594-.325-.61-.157-1.336.375-1.62.533-.283 1.227-.017 1.552.594m-4.89 4.346c.324.61.156 1.336-.377 1.62-.532.283-1.226.017-1.55-.594-.325-.612-.156-1.338.376-1.62.533-.285 1.227-.02 1.55.593" fill="#BC7835"/><path d="M34.118 32.5c-.393-.15-.795-.5-1.226-1.008-1.243-1.47-11.98-20.06-11.98-20.06L43.17 5.71l4.918 12.735" fill="#FCE4D2"/><path d="M48.59 18.89s-.16-.2.426.362c.586.563.976 1.513.238 2.17-.738.658-11.184 10.17-12.25 10.977-1.067.804-2.415.54-2.415.54s-.254-.126-.505-.445" fill="#D79245"/><path d="M36.642 41.293l-1.226 4.436c-.07.247-.325.393-.574.324-.248-.07-.393-.326-.325-.575l1.42-5.136M56.704 23.27l4.628-5.53c.166-.2.46-.225.657-.06.196.167.22.462.056.66l-4.717 5.638" fill="#BF4C76"/><path d="M61.35 17.74c.17-.193.465-.212.658-.04l2.664 2.343c.193.17.21.466.04.66-.17.194-.465.212-.657.04L61.39 18.4c-.193-.17-.21-.466-.04-.66" fill="#BF4C76"/><path d="M22.435 19.62l-1.888 2.924c-.14.217-.428.28-.644.138-.217-.14-.28-.43-.14-.646l2.14-3.316m5.693 9.684l-3.8-.96c-.25-.06-.4-.316-.338-.566.063-.25.316-.403.566-.34l2.907.734" fill="#E97293"/><path d="M24.024 26.556c.248.07.394.326.326.575l-.927 3.43c-.068.25-.325.397-.574.33-.25-.07-.396-.327-.327-.575l.927-3.43c.07-.25.326-.396.574-.328m23.838-16.47l1.63-.65c.24-.094.51.023.604.264.096.24-.022.513-.26.61l-1.626.645" fill="#E97293"/><path d="M50.695 5.925c.25.066.397.32.332.57l-.893 3.44c-.066.25-.32.4-.57.333-.25-.066-.398-.322-.332-.57l.893-3.44c.066-.25.32-.4.57-.333" fill="#E97293"/><path d="M48.088 18.445l-14.002 14.05s1.35.265 2.415-.542c1.07-.806 11.514-10.318 12.25-10.975.74-.658.35-1.61-.235-2.17-.586-.564-.426-.363-.426-.363" fill="#F8CDA1"/><path d="M46.197 4.93l4.446 10.954-.327.328-4.48-11.19.36-.092" fill="#F286A7"/></g></svg>