<svg width="188" height="211" xmlns="http://www.w3.org/2000/svg"><g fill="none" fill-rule="evenodd"><path d="M76.682 88.574s93.965 62.49 94.71 63.033l2.41 1.8s-.25.472-.992 1.06l-1.035.822c-.585.43-73.086 53.805-73.967 54.41-2.35 1.607-4.838.86-5.963.06-.72-.51-89-59.7-89.49-60.057C.935 148.69.457 147.01.457 147.01l1.475-1.24 72.05-57.077 1.28-1.052 1.42.935" fill="#696CB4"/><path d="M98.927 103.364l-58.307 44.1s-2.827 1.905.807 4.51c3.863 2.77 35.312 22.634 35.312 22.634s2.852 1.76 5.62-.208c3.656-2.596 59.89-42.223 59.89-42.223l-43.324-28.813" fill="#4A4E84"/><path d="M75.643 86.267c.04-.168 20.177-84.13 20.313-84.396l.417-1.63S97.41.196 98.25.32c.915.137 1.865.735 1.865.735s84.12 56.597 85.355 57.474c2.26 1.604 2.35 4.045 2.26 4.56-.02.103-12.82 85.98-12.94 86.785 0 0-.1.923-.23 1.532-.263 1.23-.758 2-.758 2l-2.302-1.717c-.476-.36-93.887-62.494-94.95-63.18l-1.287-.867.38-1.373" fill="#8384E3"/><path d="M98.93 103.363l10.955-56.138s.61-3.358 4.448-1.066c4.08 2.435 34.847 23.345 34.847 23.345s2.752 1.914 2.062 5.244c-.91 4.393-8.986 57.426-8.986 57.426L98.93 103.363" fill="#696CB4"/><path d="M74.368 88.4c-.438.35-69.234 54.833-69.853 55.324l-4.03 3.36s-.55-1.407-.256-2.5c.222-.838.7-3.015.7-3.015.05-.48 17.27-72.627 17.44-73.385.204-.907.887-1.97 1.197-2.24.307-.266 71.587-62.447 71.992-62.8 0 0 1.14-1.033 1.99-1.71 1.25-1 2.824-1.198 2.824-1.198l-1.327 5.32-19.463 80.95-.322 1.133-.895.76" fill="#CCD0FF"/><path d="M99.953 104.062l-58.308 44.1s-2.827 1.905.807 4.51c3.863 2.77 35.313 22.635 35.313 22.635s2.853 1.758 5.623-.21c3.654-2.594 59.89-42.222 59.89-42.222l-43.325-28.813" fill="#D79245"/><path d="M103.352 108.47l-25.997 19.603s-2.827 1.905.807 4.51c3.863 2.77 25.943 16.996 25.943 16.996s2.853 1.757 5.623-.21c3.654-2.596 28.168-17.95 28.168-17.95l-34.544-22.95" fill="#BA7749"/><path d="M104.88 107.31l-25.997 19.6s-2.828 1.906.806 4.51c3.86 2.77 26.093 17.145 26.093 17.145s2.854 1.76 5.624-.208c3.653-2.596 28.167-17.95 28.167-17.95L104.88 107.31" fill="#D8A173"/><path d="M79.804 167.173c-1.002.93-2.47.972-3.28.095-.808-.876-.652-2.338.35-3.267 1.003-.927 2.47-.97 3.28-.094.81.877.652 2.34-.35 3.268m-9.75-5.936c-1 .93-2.47.972-3.28.095-.807-.875-.65-2.338.35-3.267 1.004-.928 2.47-.972 3.28-.096.81.877.654 2.34-.35 3.268m-10.18-6.728c-1 .927-2.47.97-3.28.094-.807-.876-.65-2.338.35-3.267 1.004-.93 2.47-.972 3.28-.096.81.878.654 2.34-.35 3.27m37.68-2.027c-1.003.93-2.47.972-3.28.095-.81-.875-.653-2.338.35-3.266 1.002-.93 2.47-.973 3.28-.096.81.876.65 2.338-.35 3.267m-9.75-5.935c-1.002.93-2.47.972-3.28.095-.808-.875-.65-2.338.35-3.266 1.003-.93 2.47-.973 3.28-.096.81.878.653 2.34-.35 3.27m-10.18-6.73c-1.002.928-2.47.97-3.28.094-.808-.876-.65-2.338.35-3.267 1.003-.93 2.47-.972 3.28-.096.81.878.653 2.34-.35 3.27m7.066 17.046c-1.003.928-2.47.97-3.28.095-.81-.873-.652-2.336.35-3.265 1.003-.928 2.47-.972 3.28-.095.81.874.652 2.337-.35 3.266m9.742 6.244c-1.002.928-2.47.972-3.28.095-.808-.876-.65-2.34.35-3.267 1.003-.928 2.47-.972 3.28-.095.81.875.652 2.338-.35 3.267m-20.768-13.146c-1.003.928-2.472.972-3.28.095-.81-.878-.652-2.34.35-3.27 1.003-.93 2.47-.97 3.28-.095.808.876.652 2.34-.35 3.268m-10.746-7.168c-1.003.928-2.472.972-3.28.095-.81-.875-.652-2.338.35-3.267 1.002-.928 2.47-.972 3.28-.096.808.877.652 2.34-.35 3.268" fill="#BC7835"/><path d="M99.953 104.062l10.954-56.138s.61-3.36 4.45-1.066c4.08 2.436 34.846 23.346 34.846 23.346s2.75 1.915 2.06 5.245c-.91 4.39-8.985 57.424-8.985 57.424L99.953 104.06" fill="#EFB47F"/><path d="M123.373 61.273c0 1.31-.854 2.374-1.91 2.374-1.053 0-1.908-1.063-1.908-2.374 0-1.31.855-2.374 1.91-2.374 1.054 0 1.908 1.06 1.908 2.372m10.697 6.31c0 1.31-.864 2.373-1.93 2.373-1.068 0-1.933-1.062-1.933-2.373 0-1.31.865-2.374 1.932-2.374 1.065 0 1.93 1.063 1.93 2.374m9.544 6.48c0 1.31-.9 2.374-2.014 2.374-1.112 0-2.014-1.062-2.014-2.373 0-1.31.902-2.374 2.014-2.374 1.113 0 2.014 1.06 2.014 2.372m-24.268 7.184c0 1.31-.855 2.374-1.91 2.374-1.053 0-1.908-1.063-1.908-2.374 0-1.31.855-2.374 1.91-2.374 1.053 0 1.908 1.063 1.908 2.374m10.697 6.308c0 1.312-.864 2.374-1.932 2.374-1.065 0-1.93-1.062-1.93-2.374 0-1.31.865-2.373 1.93-2.373 1.07 0 1.934 1.065 1.934 2.375m9.542 6.48c0 1.31-.9 2.375-2.014 2.375-1.112 0-2.013-1.063-2.013-2.374 0-1.312.9-2.374 2.01-2.374 1.114 0 2.015 1.062 2.015 2.374m-23.215-25.38c0 1.31-.856 2.373-1.91 2.373-1.054 0-1.91-1.064-1.91-2.375 0-1.31.856-2.374 1.91-2.374 1.054 0 1.91 1.064 1.91 2.375m9.773 5.408c0 1.31-.864 2.373-1.932 2.373-1.065 0-1.93-1.062-1.93-2.373 0-1.31.865-2.374 1.93-2.374 1.07 0 1.934 1.06 1.934 2.372m10.802 6.165c0 1.31-.9 2.374-2.014 2.374-1.112 0-2.014-1.06-2.014-2.372 0-1.31.902-2.373 2.014-2.373 1.113 0 2.014 1.063 2.014 2.373m9.938 6.075c0 1.31-.902 2.373-2.014 2.373-1.113 0-2.014-1.062-2.014-2.373 0-1.31.9-2.374 2.014-2.374 1.112 0 2.014 1.06 2.014 2.372" fill="#D69144"/><path d="M105.292 105.216l3.903-19.158s.61-3.36 4.45-1.066c4.08 2.436 27.377 18.595 27.377 18.595s2.752 1.915 2.062 5.245c-.91 4.394-3.17 19.464-3.17 19.464l-34.622-23.08" fill="#F9D9BB"/><path d="M104.864 107.328l3.902-19.158s.61-3.36 4.45-1.066c4.08 2.436 27.467 18.595 27.467 18.595s2.752 1.913 2.062 5.243c-.91 4.393-3.17 19.464-3.17 19.464l-34.71-23.08" fill="#F8CDA1"/><path d="M84.8 115.522H62.33c-.51 0-.922-.413-.922-.923s.413-.925.922-.925h24.91m-26.875 20.328l-2.657-7.823c-.165-.483.094-1.007.576-1.172.48-.164 1.005.094 1.17.577l2.46 7.245m54.48 18.99l-1.796 15.81c-.058.506-.514.87-1.02.812-.506-.057-.87-.514-.81-1.02l1.616-14.22m14.92-10.478l14.23.218c.51.008.915.427.906.937-.007.51-.426.915-.935.907l-16.767-.257" fill="#4A4E84"/><path d="M147.668 104.265l6.6-2.624c.474-.186 1.01.046 1.197.52.188.474-.043 1.01-.517 1.198l-7.607 3.024M104.2 82.298l-4.483-6.16c-.3-.41-.21-.988.202-1.29.41-.3.988-.21 1.288.203l3.476 4.778" fill="#696CB4"/><path d="M143.553 142.97c.51.022.904.45.883.96l-.264 7.01c-.02.51-.45.907-.96.886-.507-.02-.903-.45-.882-.96l.264-7.01c.02-.51.45-.907.96-.886m-84.13-17.366c.153.486-.117 1.004-.6 1.158l-6.673 2.14c-.483.153-1-.117-1.154-.603-.153-.487.115-1.007.6-1.16l6.67-2.14c.486-.153 1.005.117 1.158.603" fill="#4A4E84"/><path d="M156.648 94.704c.492.13.785.635.655 1.128l-1.764 6.79c-.13.493-.636.787-1.13.657-.49-.13-.784-.638-.654-1.13l1.764-6.79c.13-.493.635-.787 1.128-.657" fill="#696CB4"/></g></svg>