<svg width="144" height="165" xmlns="http://www.w3.org/2000/svg"><g fill="none" fill-rule="evenodd"><path d="M140.888.986L86.282 81.46l54.448 82.878s2.903-1.275 2.975-4.475l.005-154.47s.124-2.726-2.822-4.407" fill="#56B786"/><path d="M143.23 127.536c-2.098 2.797-3.53.548-3.53.548L97.96 64.242l22.816-33.706s17.724 29.658 22.455 37.3" fill="#48916C"/><path d="M136.162.986L2.642 74.456S.036 75.946.14 78.916l86.14 2.546L140.89.987s-2.02-1.307-4.726 0" fill="#9CE8BC"/><path d="M82.62 30.908c16.38-.028 38.138-.367 38.138-.367L97.95 64.256l-55.19-1.808s-2.61-.54-.75-3.503c.7-1.12 3.286-4.84 6.327-9.17L82.62 30.908" fill="#74D1A0"/><path d="M140.73 164.338L86.282 81.46.14 78.915s-.17 2.21 1.876 4.052l134.157 81.33s2.05 1.17 4.557.042" fill="#48916C"/><path d="M143.71 126.778c-2.098 2.798-3.53.55-3.53.55L98.44 63.484l22.816-33.707s17.725 29.66 22.455 37.302" fill="#D79245"/><path d="M83.098 30.186c16.38-.03 38.14-.367 38.14-.367l-22.81 33.71-55.19-1.808s-2.608-.54-.75-3.504c.703-1.12 3.288-4.842 6.328-9.17l34.282-18.864" fill="#F8CDA1"/><path d="M100.533 60.49L70.89 59.383s-1.672-.157-.712-2.142c1.02-2.11 17.455-23.05 17.455-23.05s.788-1.254 2.48-1.235h29.012L100.533 60.49" fill="#FFF3EC"/><path d="M100.533 60.49l-27.94-1.045s-1.67-.158-.71-2.143c1.018-2.11 17.513-23.11 17.513-23.11s.827-1.24 2.48-1.236h27.25L100.532 60.49" fill="#FCE4D2"/><path d="M100.485 60.5l20.343 32.11s.764 1.498 2.248-.13c1.578-1.73 15.855-23.675 15.855-23.675s.844-1.23.23-2.77L119.124 33l-18.64 27.5" fill="#BA7749"/><path d="M100.485 60.5l19.74 31.085s.763 1.498 2.247-.13c1.578-1.73 15.854-23.675 15.854-23.675s.843-1.23.228-2.77l-19.43-32.054-18.64 27.545" fill="#F8CDA1"/><path d="M52.88 49.252c1.02.06 1.81.774 1.763 1.6-.046.823-.91 1.445-1.932 1.387-1.02-.06-1.81-.776-1.762-1.6.046-.825.912-1.446 1.932-1.39m4.32 5.558c1.02.058 1.81.773 1.763 1.598-.046.825-.91 1.446-1.932 1.388-1.02-.058-1.81-.774-1.762-1.598.046-.824.912-1.446 1.932-1.388m6.068-9.626c1.02.058 1.81.773 1.764 1.598-.046.824-.912 1.446-1.933 1.388-1.023-.06-1.81-.774-1.766-1.598.046-.825.912-1.446 1.933-1.388m5.467-7.094c.274.28.43.636.408 1.015-.047.825-.912 1.446-1.933 1.388-.638-.034-1.185-.326-1.494-.74m1.426 11.423c1.02.058 1.81.774 1.764 1.598-.046.827-.91 1.448-1.932 1.39-1.02-.06-1.81-.774-1.764-1.6.046-.822.912-1.444 1.932-1.386m5.794-8.567c1.022.058 1.81.774 1.765 1.598-.045.824-.91 1.446-1.93 1.388-1.02-.058-1.81-.774-1.765-1.598.046-.825.912-1.446 1.932-1.388m4.99-7.525c1.02.058 1.81.773 1.764 1.598-.045.825-.91 1.446-1.93 1.388-1.02-.058-1.81-.774-1.765-1.598.046-.825.912-1.446 1.933-1.388" fill="#EDB583"/><path d="M142.604 108.925c.632.807.617 1.873-.03 2.384-.648.507-1.686.267-2.317-.54-.63-.806-.617-1.873.03-2.383.65-.51 1.686-.27 2.317.537m-10.76-15.12c.63.806.616 1.872-.03 2.383-.65.51-1.687.27-2.318-.537-.63-.807-.618-1.874.03-2.383.648-.51 1.686-.27 2.317.536m5.643-8.868c.63.806.617 1.873-.03 2.383-.648.51-1.685.27-2.317-.537-.633-.805-.62-1.872.03-2.38.647-.51 1.684-.27 2.315.536m5.76-7.53c.63.807.618 1.874-.03 2.384-.647.51-1.684.27-2.316-.537-.633-.807-.62-1.874.03-2.383.647-.51 1.684-.27 2.315.536m-2.28 18.124c.63.807.618 1.874-.03 2.385-.647.51-1.685.27-2.316-.538-.633-.806-.62-1.873.03-2.383.646-.51 1.684-.27 2.315.537m-7.485 8.83c.632.807.618 1.874-.03 2.384-.647.51-1.685.27-2.316-.537-.63-.806-.617-1.873.03-2.383.648-.51 1.685-.27 2.317.537" fill="#BC7835"/><path d="M110.782 29.778l6.583-6.313m-15.223 6.313l-3.7-3.156" stroke="#4A4E84"/><path d="M75.393 62.776L59.94 67.8c-.382.116-.784-.1-.898-.484-.114-.38.102-.784.483-.897l11.63-3.784m12.555.412l.563 4.985c.037.397-.256.748-.653.784-.395.036-.746-.257-.78-.653L82.255 63m18.477-32.926l-2.57-2.642c-.272-.29-.256-.75.035-1.02.292-.272.746-.256 1.017.035l3.51 3.607m8.918-.104l6.29-6.068c.292-.27.31-.726.042-1.02-.268-.294-.725-.313-1.018-.043l-7.417 7.156" fill="#56B786"/><path d="M59.667 66.433c.397-.035.746.257.783.654l.38 4.91c.037.397-.255.748-.652.784-.395.038-.746-.254-.78-.65l-.383-4.91c-.036-.4.256-.75.652-.786" fill="#56B786"/><path d="M110.702 82.24l-.142 11.185c-.014.398-.348.71-.746.695-.397-.013-.708-.348-.693-.746l.17-13.295m21.655-34.124l5.637-.07c.397.004.717.33.713.73-.005.4-.33.718-.727.714l-4.762.06" fill="#48916C"/></g></svg>