<?xml version="1.0" encoding="UTF-8" standalone="no"?>
<svg width="449px" height="96px" viewBox="0 0 449 96" version="1.1" xmlns="http://www.w3.org/2000/svg" xmlns:xlink="http://www.w3.org/1999/xlink">
    <!-- Generator: Sketch 3.7.1 (28215) - http://www.bohemiancoding.com/sketch -->
    <title>1.3.</title>
    <desc>Created with Sketch.</desc>
    <defs>
        <rect id="path-1" x="0" y="0" width="148" height="36"></rect>
        <filter x="-50%" y="-50%" width="200%" height="200%" filterUnits="objectBoundingBox" id="filter-2">
            <feOffset dx="0" dy="2" in="SourceAlpha" result="shadowOffsetOuter1"></feOffset>
            <feGaussianBlur stdDeviation="1" in="shadowOffsetOuter1" result="shadowBlurOuter1"></feGaussianBlur>
            <feColorMatrix values="0 0 0 0 0.0862745098   0 0 0 0 0.196078431   0 0 0 0 0.360784314  0 0 0 0.25 0" type="matrix" in="shadowBlurOuter1"></feColorMatrix>
        </filter>
        <rect id="path-3" x="0" y="0" width="16" height="16" rx="2"></rect>
        <mask id="mask-4" maskContentUnits="userSpaceOnUse" maskUnits="objectBoundingBox" x="0" y="0" width="16" height="16" fill="white">
            <use xlink:href="#path-3"></use>
        </mask>
        <rect id="path-5" x="0" y="0" width="116" height="36"></rect>
        <filter x="-50%" y="-50%" width="200%" height="200%" filterUnits="objectBoundingBox" id="filter-6">
            <feOffset dx="0" dy="2" in="SourceAlpha" result="shadowOffsetOuter1"></feOffset>
            <feGaussianBlur stdDeviation="1" in="shadowOffsetOuter1" result="shadowBlurOuter1"></feGaussianBlur>
            <feColorMatrix values="0 0 0 0 0.0862745098   0 0 0 0 0.196078431   0 0 0 0 0.360784314  0 0 0 0.25 0" type="matrix" in="shadowBlurOuter1"></feColorMatrix>
        </filter>
        <rect id="path-7" x="0" y="0" width="99" height="36"></rect>
        <filter x="-50%" y="-50%" width="200%" height="200%" filterUnits="objectBoundingBox" id="filter-8">
            <feOffset dx="0" dy="2" in="SourceAlpha" result="shadowOffsetOuter1"></feOffset>
            <feGaussianBlur stdDeviation="1" in="shadowOffsetOuter1" result="shadowBlurOuter1"></feGaussianBlur>
            <feColorMatrix values="0 0 0 0 0.0862745098   0 0 0 0 0.196078431   0 0 0 0 0.360784314  0 0 0 0.25 0" type="matrix" in="shadowBlurOuter1"></feColorMatrix>
        </filter>
    </defs>
    <g id="Page-1" stroke="none" stroke-width="1" fill="none" fill-rule="evenodd">
        <g id="1.3." transform="translate(2.000000, 0.000000)">
            <g id="Item" transform="translate(297.000000, 56.000000)">
                <g id="BG">
                    <use fill="black" fill-opacity="1" filter="url(#filter-2)" xlink:href="#path-1"></use>
                    <use fill="#662198" fill-rule="evenodd" xlink:href="#path-1"></use>
                </g>
                <rect id="Rectangle-10-Copy" fill-opacity="0.3" fill="#FFFFFF" x="36" y="13" width="80" height="10" rx="8"></rect>
                <g id="close" opacity="0.4" transform="translate(127.000000, 14.000000)" fill="#FFFFFF">
                    <path d="M5.05263158,3.87368421 L7.78947368,1.11578947 C7.91578947,0.989473684 7.91578947,0.8 7.78947368,0.673684211 L7.36842105,0.231578947 C7.24210526,0.105263158 7.05263158,0.105263158 6.92631579,0.231578947 L4.16842105,2.98947368 C4.08421053,3.07368421 3.95789474,3.07368421 3.87368421,2.98947368 L1.11578947,0.210526316 C0.989473684,0.0842105263 0.8,0.0842105263 0.673684211,0.210526316 L0.231578947,0.652631579 C0.105263158,0.778947368 0.105263158,0.968421053 0.231578947,1.09473684 L2.98947368,3.85263158 C3.07368421,3.93684211 3.07368421,4.06315789 2.98947368,4.14736842 L0.210526316,6.92631579 C0.0842105263,7.05263158 0.0842105263,7.24210526 0.210526316,7.36842105 L0.652631579,7.81052632 C0.778947368,7.93684211 0.968421053,7.93684211 1.09473684,7.81052632 L3.85263158,5.05263158 C3.93684211,4.96842105 4.06315789,4.96842105 4.14736842,5.05263158 L6.90526316,7.81052632 C7.03157895,7.93684211 7.22105263,7.93684211 7.34736842,7.81052632 L7.78947368,7.36842105 C7.91578947,7.24210526 7.91578947,7.05263158 7.78947368,6.92631579 L5.05263158,4.16842105 C4.96842105,4.08421053 4.96842105,3.95789474 5.05263158,3.87368421 L5.05263158,3.87368421 Z" id="Shape"></path>
                </g>
                <g id="Group-2" transform="translate(8.000000, 10.000000)" opacity="0.4">
                    <path d="M11.965932,6.2685987 C12.0029801,6.22228858 12.0122421,6.15745441 11.9844561,6.09262024 C11.95667,6.0370481 11.9010978,6 11.8362637,6 L4.16730756,6 C4.10247339,6 4.04690124,6.0370481 4.01911517,6.09262024 C3.9913291,6.15745441 4.00059112,6.22228858 4.03763922,6.2685987 L7.87211727,10.9366589 C7.89990334,10.9829691 7.95547549,11.0014931 8.00178561,11.0014931 C8.04809573,11.0014931 8.09440585,10.9829691 8.13145395,10.9366589 L11.965932,6.2685987 Z" id="dropdown-2-copy" fill="#FFFFFF"></path>
                    <use id="Rectangle-42" stroke="#FFFFFF" mask="url(#mask-4)" stroke-width="2" xlink:href="#path-3"></use>
                </g>
            </g>
            <g id="Item" transform="translate(139.000000, 56.000000)">
                <g id="BG">
                    <use fill="black" fill-opacity="1" filter="url(#filter-6)" xlink:href="#path-5"></use>
                    <use fill="#216CD0" fill-rule="evenodd" xlink:href="#path-5"></use>
                </g>
                <rect id="Rectangle-10-Copy" fill-opacity="0.3" fill="#FFFFFF" x="8" y="13" width="80" height="10" rx="8"></rect>
                <path d="M102.965932,16.2685987 C103.00298,16.2222886 103.012242,16.1574544 102.984456,16.0926202 C102.95667,16.0370481 102.901098,16 102.836264,16 L95.1673076,16 C95.1024734,16 95.0469012,16.0370481 95.0191152,16.0926202 C94.9913291,16.1574544 95.0005911,16.2222886 95.0376392,16.2685987 L98.8721173,20.9366589 C98.8999033,20.9829691 98.9554755,21.0014931 99.0017856,21.0014931 C99.0480957,21.0014931 99.0944059,20.9829691 99.131454,20.9366589 L102.965932,16.2685987 Z" id="dropdown-2-copy" fill="#000000" opacity="0.2"></path>
            </g>
            <g id="Item" transform="translate(0.000000, 56.000000)">
                <g id="BG">
                    <use fill="black" fill-opacity="1" filter="url(#filter-8)" xlink:href="#path-7"></use>
                    <use fill="#216CD0" fill-rule="evenodd" xlink:href="#path-7"></use>
                </g>
                <rect id="Rectangle-10-Copy" fill-opacity="0.3" fill="#FFFFFF" x="8" y="13" width="80" height="10" rx="8"></rect>
            </g>
            <g id="group" transform="translate(296.000000, 27.000000)" stroke="#D0011B" stroke-linecap="square">
                <path d="M148.5,1.5 L1.49000549,1.5" id="Line"></path>
                <path d="M148.5,2.5 L148.5,18.5" id="Line"></path>
                <path d="M121.5,2.5 L121.5,18.5" id="Line"></path>
                <path d="M31.5,2.5 L31.5,18.5" id="Line"></path>
                <path d="M1.5,2.5 L1.5,18.5" id="Line"></path>
            </g>
            <g id="group" transform="translate(136.000000, 27.000000)" stroke="#D0011B" stroke-linecap="square">
                <path d="M118.5,1.5 L1.48999786,1.5" id="Line"></path>
                <path d="M118.5,2.5 L118.5,18.5" id="Line"></path>
                <path d="M91.5,2.5 L91.5,18.5" id="Line"></path>
                <path d="M1.5,2.5 L1.5,18.5" id="Line"></path>
            </g>
            <g id="group" transform="translate(0.000000, 27.000000)" stroke="#D0011B" stroke-linecap="square">
                <path d="M97.5,1.5 L1.48999786,1.5" id="Line"></path>
                <path d="M97.5,2.5 L97.5,18.5" id="Line"></path>
                <path d="M1.5,2.5 L1.5,18.5" id="Line"></path>
            </g>
            <polygon id="1" fill="#000000" points="52.026 9.964 52.026 11 45.95 11 45.95 9.978 48.638 9.978 48.638 2.362 45.964 3.748 45.474 2.852 48.778 1.088 49.87 1.088 49.87 9.964"></polygon>
            <path d="M198.178,3.692 C198.178,4.35466998 198.038001,4.94966403 197.758,5.477 C197.477999,6.00433597 197.009003,6.58533016 196.351,7.22 C195.692997,7.85466984 194.650007,8.76932736 193.222,9.964 L198.5,9.964 L198.5,11 L191.584,11 L191.584,10.034 C193.198675,8.64332638 194.348997,7.62366991 195.035,6.975 C195.721003,6.32633009 196.206332,5.768669 196.491,5.302 C196.775668,4.835331 196.918,4.33600266 196.918,3.804 C196.918,3.23466382 196.722002,2.77266844 196.33,2.418 C195.937998,2.06333156 195.401337,1.886 194.72,1.886 C194.197331,1.886 193.737669,1.98399902 193.341,2.18 C192.944331,2.37600098 192.545335,2.66999804 192.144,3.062 L191.402,2.418 C191.896669,1.89533072 192.405331,1.50566795 192.928,1.249 C193.450669,0.99233205 194.080663,0.864 194.818,0.864 C195.518004,0.864 196.122331,0.99233205 196.631,1.249 C197.139669,1.50566795 197.524665,1.84866452 197.786,2.278 C198.047335,2.70733548 198.178,3.1786641 198.178,3.692 L198.178,3.692 Z" id="2" fill="#000000"></path>
            <path d="M377.232,3.468 C377.232,4.1680035 377.057002,4.69999818 376.707,5.064 C376.356998,5.42800182 375.920669,5.66599944 375.398,5.778 L375.398,5.806 C375.995336,5.87133366 376.501665,6.09766473 376.917,6.485 C377.332335,6.87233527 377.54,7.44399622 377.54,8.2 C377.54,8.79733632 377.395335,9.32466438 377.106,9.782 C376.816665,10.2393356 376.396669,10.5963321 375.846,10.853 C375.295331,11.109668 374.632671,11.238 373.858,11.238 C373.092663,11.238 372.439336,11.1260011 371.898,10.902 C371.356664,10.6779989 370.852669,10.332669 370.386,9.866 L371.044,9.138 C371.473335,9.52066858 371.900331,9.79366585 372.325,9.957 C372.749669,10.1203342 373.260664,10.202 373.858,10.202 C374.60467,10.202 375.194998,10.0223351 375.629,9.663 C376.063002,9.30366487 376.28,8.80200322 376.28,8.158 C376.28,7.53266354 376.095669,7.07300147 375.727,6.779 C375.358331,6.48499853 374.847337,6.338 374.194,6.338 L372.654,6.338 L372.654,5.33 L373.97,5.33 C374.586003,5.33 375.080665,5.18766809 375.454,4.903 C375.827335,4.61833191 376.014,4.18666956 376.014,3.608 C376.014,3.05733058 375.832002,2.63033485 375.468,2.327 C375.103998,2.02366515 374.586003,1.872 373.914,1.872 C373.409997,1.872 372.955002,1.94666592 372.549,2.096 C372.142998,2.24533408 371.734669,2.47866508 371.324,2.796 L370.68,2.096 C371.174669,1.66666452 371.687997,1.35166767 372.22,1.151 C372.752003,0.95033233 373.353997,0.85 374.026,0.85 C374.698003,0.85 375.274331,0.96199888 375.755,1.186 C376.235669,1.41000112 376.601999,1.72033135 376.854,2.117 C377.106001,2.51366865 377.232,2.96399748 377.232,3.468 L377.232,3.468 Z" id="3" fill="#000000"></path>
        </g>
    </g>
</svg>