<?xml version="1.0" encoding="UTF-8" standalone="no"?>
<svg width="1284px" height="98px" viewBox="0 0 1284 98" version="1.1" xmlns="http://www.w3.org/2000/svg" xmlns:xlink="http://www.w3.org/1999/xlink">
    <!-- Generator: Sketch 3.7.1 (28215) - http://www.bohemiancoding.com/sketch -->
    <title>1.1.</title>
    <desc>Created with Sketch.</desc>
    <defs>
        <rect id="path-1" x="1" y="58" width="1280" height="36"></rect>
        <filter x="-50%" y="-50%" width="200%" height="200%" filterUnits="objectBoundingBox" id="filter-2">
            <feOffset dx="0" dy="2" in="SourceAlpha" result="shadowOffsetOuter1"></feOffset>
            <feGaussianBlur stdDeviation="1" in="shadowOffsetOuter1" result="shadowBlurOuter1"></feGaussianBlur>
            <feColorMatrix values="0 0 0 0 0.0862745098   0 0 0 0 0.196078431   0 0 0 0 0.360784314  0 0 0 0.25 0" type="matrix" in="shadowBlurOuter1"></feColorMatrix>
        </filter>
    </defs>
    <g id="Page-1" stroke="none" stroke-width="1" fill="none" fill-rule="evenodd">
        <g id="1.1." transform="translate(1.000000, 0.000000)">
            <g id="BG">
                <use fill="black" fill-opacity="1" filter="url(#filter-2)" xlink:href="#path-1"></use>
                <use fill="#216CD0" fill-rule="evenodd" xlink:href="#path-1"></use>
            </g>
            <rect id="App-Name" fill-opacity="0.3" fill="#FFFFFF" x="69" y="67" width="95" height="18" rx="8"></rect>
            <path d="M329,58 L329,93" id="Line" stroke-opacity="0.2" stroke="#000000" stroke-linecap="square"></path>
            <path d="M184,58 L184,93" id="Line-Copy" stroke-opacity="0.2" stroke="#000000" stroke-linecap="square"></path>
            <g id="Secondary" transform="translate(329.000000, 58.000000)">
                <rect id="Rectangle-10-Copy" fill-opacity="0.3" fill="#FFFFFF" x="15" y="13" width="80" height="10" rx="8"></rect>
                <rect id="Rectangle-10-Copy" fill-opacity="0.3" fill="#FFFFFF" x="135" y="13" width="80" height="10" rx="8"></rect>
                <rect id="Rectangle-10-Copy" fill-opacity="0.3" fill="#FFFFFF" x="245" y="13" width="80" height="10" rx="8"></rect>
                <rect id="Rectangle-10-Copy" fill-opacity="0.3" fill="#FFFFFF" x="355" y="13" width="80" height="10" rx="8"></rect>
                <rect id="Rectangle-10-Copy" fill-opacity="0.3" fill="#FFFFFF" x="465" y="13" width="80" height="10" rx="8"></rect>
                <path d="M109.965932,16.2685987 C110.00298,16.2222886 110.012242,16.1574544 109.984456,16.0926202 C109.95667,16.0370481 109.901098,16 109.836264,16 L102.167308,16 C102.102473,16 102.046901,16.0370481 102.019115,16.0926202 C101.991329,16.1574544 102.000591,16.2222886 102.037639,16.2685987 L105.872117,20.9366589 C105.899903,20.9829691 105.955475,21.0014931 106.001786,21.0014931 C106.048096,21.0014931 106.094406,20.9829691 106.131454,20.9366589 L109.965932,16.2685987 Z" id="dropdown-2-copy" fill="#000000" opacity="0.2"></path>
                <path d="M227.965932,16.2685987 C228.00298,16.2222886 228.012242,16.1574544 227.984456,16.0926202 C227.95667,16.0370481 227.901098,16 227.836264,16 L220.167308,16 C220.102473,16 220.046901,16.0370481 220.019115,16.0926202 C219.991329,16.1574544 220.000591,16.2222886 220.037639,16.2685987 L223.872117,20.9366589 C223.899903,20.9829691 223.955475,21.0014931 224.001786,21.0014931 C224.048096,21.0014931 224.094406,20.9829691 224.131454,20.9366589 L227.965932,16.2685987 Z" id="dropdown-2-copy-2" fill="#000000" opacity="0.2"></path>
                <path d="M338.965932,16.2685987 C339.00298,16.2222886 339.012242,16.1574544 338.984456,16.0926202 C338.95667,16.0370481 338.901098,16 338.836264,16 L331.167308,16 C331.102473,16 331.046901,16.0370481 331.019115,16.0926202 C330.991329,16.1574544 331.000591,16.2222886 331.037639,16.2685987 L334.872117,20.9366589 C334.899903,20.9829691 334.955475,21.0014931 335.001786,21.0014931 C335.048096,21.0014931 335.094406,20.9829691 335.131454,20.9366589 L338.965932,16.2685987 Z" id="dropdown-2-copy-3" fill="#000000" opacity="0.2"></path>
                <path d="M447.965932,16.2685987 C448.00298,16.2222886 448.012242,16.1574544 447.984456,16.0926202 C447.95667,16.0370481 447.901098,16 447.836264,16 L440.167308,16 C440.102473,16 440.046901,16.0370481 440.019115,16.0926202 C439.991329,16.1574544 440.000591,16.2222886 440.037639,16.2685987 L443.872117,20.9366589 C443.899903,20.9829691 443.955475,21.0014931 444.001786,21.0014931 C444.048096,21.0014931 444.094406,20.9829691 444.131454,20.9366589 L447.965932,16.2685987 Z" id="dropdown-2-copy-4" fill="#000000" opacity="0.2"></path>
                <path d="M558.965932,16.2685987 C559.00298,16.2222886 559.012242,16.1574544 558.984456,16.0926202 C558.95667,16.0370481 558.901098,16 558.836264,16 L551.167308,16 C551.102473,16 551.046901,16.0370481 551.019115,16.0926202 C550.991329,16.1574544 551.000591,16.2222886 551.037639,16.2685987 L554.872117,20.9366589 C554.899903,20.9829691 554.955475,21.0014931 555.001786,21.0014931 C555.048096,21.0014931 555.094406,20.9829691 555.131454,20.9366589 L558.965932,16.2685987 Z" id="dropdown-2-copy-5" fill="#000000" opacity="0.2"></path>
            </g>
            <rect id="Rectangle-10-Copy" fill-opacity="0.3" fill="#FFFFFF" x="204" y="71" width="80" height="10" rx="8"></rect>
            <path d="M312.950924,72.4030163 C313.006512,72.3335307 313.020409,72.2362509 312.978718,72.1389711 C312.937027,72.0555885 312.853644,72 312.756364,72 L301.249554,72 C301.152274,72 301.068892,72.0555885 301.0272,72.1389711 C300.985509,72.2362509 300.999406,72.3335307 301.054995,72.4030163 L306.8084,79.4071615 C306.850091,79.4766471 306.933474,79.5044413 307.002959,79.5044413 C307.072445,79.5044413 307.14193,79.4766471 307.197519,79.4071615 L312.950924,72.4030163 Z" id="dropdown-2-copy" fill="#FFFFFF" opacity="0.400000006"></path>
            <rect id="Rectangle-10-Copy" fill="#FFFFFF" opacity="0.2" x="1174" y="71" width="80" height="10" rx="8"></rect>
            <path d="M25,66.4166667 L25,70.5833333 C25,70.8148148 25.1851852,71 25.4166667,71 L29.5833333,71 C29.8148148,71 30,70.8148148 30,70.5833333 L30,66.4166667 C30,66.1851852 29.8148148,66 29.5833333,66 L25.4166667,66 C25.1851852,66 25,66.1851852 25,66.4166667 L25,66.4166667 Z M32.5,66.4166667 L32.5,70.5833333 C32.5,70.8148148 32.6851852,71 32.9166667,71 L37.0833333,71 C37.3148148,71 37.5,70.8148148 37.5,70.5833333 L37.5,66.4166667 C37.5,66.1851852 37.3148148,66 37.0833333,66 L32.9166667,66 C32.6851852,66 32.5,66.1851852 32.5,66.4166667 L32.5,66.4166667 Z M40,66.4166667 L40,70.5833333 C40,70.8148148 40.1851852,71 40.4166667,71 L44.5833333,71 C44.8148148,71 45,70.8148148 45,70.5833333 L45,66.4166667 C45,66.1851852 44.8148148,66 44.5833333,66 L40.4166667,66 C40.1851852,66 40,66.1851852 40,66.4166667 L40,66.4166667 Z M25,73.9166667 L25,78.0833333 C25,78.3148148 25.1851852,78.5 25.4166667,78.5 L29.5833333,78.5 C29.8148148,78.5 30,78.3148148 30,78.0833333 L30,73.9166667 C30,73.6851852 29.8148148,73.5 29.5833333,73.5 L25.4166667,73.5 C25.1851852,73.5 25,73.6851852 25,73.9166667 L25,73.9166667 Z M32.5,73.9166667 L32.5,78.0833333 C32.5,78.3148148 32.6851852,78.5 32.9166667,78.5 L37.0833333,78.5 C37.3148148,78.5 37.5,78.3148148 37.5,78.0833333 L37.5,73.9166667 C37.5,73.6851852 37.3148148,73.5 37.0833333,73.5 L32.9166667,73.5 C32.6851852,73.5 32.5,73.6851852 32.5,73.9166667 L32.5,73.9166667 Z M40,73.9166667 L40,78.0833333 C40,78.3148148 40.1851852,78.5 40.4166667,78.5 L44.5833333,78.5 C44.8148148,78.5 45,78.3148148 45,78.0833333 L45,73.9166667 C45,73.6851852 44.8148148,73.5 44.5833333,73.5 L40.4166667,73.5 C40.1851852,73.5 40,73.6851852 40,73.9166667 L40,73.9166667 Z M25,81.4166667 L25,85.5833333 C25,85.8148148 25.1851852,86 25.4166667,86 L29.5833333,86 C29.8148148,86 30,85.8148148 30,85.5833333 L30,81.4166667 C30,81.1851852 29.8148148,81 29.5833333,81 L25.4166667,81 C25.1851852,81 25,81.1851852 25,81.4166667 L25,81.4166667 Z M32.5,81.4166667 L32.5,85.5833333 C32.5,85.8148148 32.6851852,86 32.9166667,86 L37.0833333,86 C37.3148148,86 37.5,85.8148148 37.5,85.5833333 L37.5,81.4166667 C37.5,81.1851852 37.3148148,81 37.0833333,81 L32.9166667,81 C32.6851852,81 32.5,81.1851852 32.5,81.4166667 L32.5,81.4166667 Z M40,81.4166667 L40,85.5833333 C40,85.8148148 40.1851852,86 40.4166667,86 L44.5833333,86 C44.8148148,86 45,85.8148148 45,85.5833333 L45,81.4166667 C45,81.1851852 44.8148148,81 44.5833333,81 L40.4166667,81 C40.1851852,81 40,81.1851852 40,81.4166667 L40,81.4166667 Z" id="grid" fill="#FFFFFF" opacity="0.4"></path>
            <g id="Primary" transform="translate(0.000000, 29.000000)" stroke="#D0011B" stroke-linecap="square">
                <path d="M321.5,1.5 L1.5,1.5" id="Line"></path>
                <path d="M321.5,2.5 L321.5,18.5" id="Line"></path>
                <path d="M1.5,2.5 L1.5,18.5" id="Line"></path>
            </g>
            <g id="Secondary" transform="translate(335.000000, 29.000000)" stroke="#D0011B" stroke-linecap="square">
                <path d="M796.502502,1.5 L1.49249268,1.5" id="Line"></path>
                <path d="M796.5,2.5 L796.5,18.5" id="Line"></path>
                <path d="M1.5,2.5 L1.5,18.5" id="Line"></path>
            </g>
            <g id="Tertiary" transform="translate(1142.000000, 29.000000)" stroke="#D0011B" stroke-linecap="square">
                <path d="M138.5,1.5 L1.48540223,1.5" id="Line"></path>
                <path d="M138.5,2.5 L138.5,18.5" id="Line"></path>
                <path d="M1.5,2.5 L1.5,18.5" id="Line"></path>
            </g>
            <path d="M144.749,4.308 C144.749,5.01733688 144.585668,5.61699755 144.259,6.107 C143.932332,6.59700245 143.500669,6.96333212 142.964,7.206 C142.427331,7.44866788 141.851003,7.57 141.235,7.57 L139.107,7.57 L139.107,11 L137.861,11 L137.861,1.088 L141.207,1.088 C142.243005,1.088 143.09233,1.34933072 143.755,1.872 C144.41767,2.39466928 144.749,3.20666116 144.749,4.308 L144.749,4.308 Z M139.093,2.082 L139.093,6.562 L141.123,6.562 C141.78567,6.562 142.343331,6.37066858 142.796,5.988 C143.248669,5.60533142 143.475,5.05000364 143.475,4.322 C143.475,3.53799608 143.248669,2.96866844 142.796,2.614 C142.343331,2.25933156 141.776337,2.082 141.095,2.082 L139.093,2.082 Z M146.079,5.47 C146.079,4.94733072 146.046334,4.41533604 145.981,3.874 L147.115,3.874 C147.161667,4.19133492 147.194333,4.56933114 147.213,5.008 L147.241,5.008 C147.651669,4.1213289 148.398328,3.678 149.481,3.678 C149.555667,3.678 149.690999,3.69199986 149.887,3.72 L149.817,4.742 C149.723666,4.72333324 149.579001,4.714 149.383,4.714 C148.701663,4.714 148.179002,4.94266438 147.815,5.4 C147.450998,5.85733562 147.269,6.44999636 147.269,7.178 L147.269,11 L146.079,11 L146.079,5.47 Z M152.379,11 L151.189,11 L151.189,3.874 L152.379,3.874 L152.379,11 Z M151.007,1.438 C151.007,0.93399748 151.268331,0.682 151.791,0.682 C152.304336,0.682 152.561,0.93399748 152.561,1.438 C152.561,1.65266774 152.500334,1.82766599 152.379,1.963 C152.257666,2.09833401 152.061668,2.166 151.791,2.166 C151.510999,2.166 151.310334,2.09833401 151.189,1.963 C151.067666,1.82766599 151.007,1.65266774 151.007,1.438 L151.007,1.438 Z M154.787,5.47 C154.787,4.94733072 154.754334,4.41533604 154.689,3.874 L155.823,3.874 C155.869667,4.12600126 155.902333,4.4619979 155.921,4.882 L155.949,4.882 C156.173001,4.52733156 156.487998,4.23800112 156.894,4.014 C157.300002,3.78999888 157.768997,3.678 158.301,3.678 C158.90767,3.678 159.402331,3.80633205 159.785,4.063 C160.167669,4.31966795 160.447666,4.67199776 160.625,5.12 L160.653,5.12 C160.895668,4.67199776 161.226998,4.31966795 161.647,4.063 C162.067002,3.80633205 162.570997,3.678 163.159,3.678 C163.747003,3.678 164.236998,3.80633205 164.629,4.063 C165.021002,4.31966795 165.310332,4.65566459 165.497,5.071 C165.683668,5.48633541 165.777,5.94133086 165.777,6.436 L165.777,11 L164.587,11 L164.587,6.604 C164.587,6.05333058 164.454001,5.5913352 164.188,5.218 C163.921999,4.8446648 163.495003,4.658 162.907,4.658 C162.477665,4.658 162.109002,4.76999888 161.801,4.994 C161.492998,5.21800112 161.259667,5.5166648 161.101,5.89 C160.942333,6.2633352 160.863,6.66466452 160.863,7.094 L160.863,11 L159.673,11 L159.673,6.576 C159.673,6.03466396 159.537668,5.57966851 159.267,5.211 C158.996332,4.84233149 158.57167,4.658 157.993,4.658 C157.376997,4.658 156.887002,4.87499783 156.523,5.309 C156.158998,5.74300217 155.977,6.27733016 155.977,6.912 L155.977,11 L154.787,11 L154.787,5.47 Z M167.331,9.054 C167.331,8.12999538 167.664663,7.48833513 168.332,7.129 C168.999337,6.76966487 170.004993,6.59 171.349,6.59 C171.675668,6.59 171.922999,6.59466662 172.091,6.604 L172.091,6.198 C172.091,5.66599734 171.946335,5.26933464 171.657,5.008 C171.367665,4.74666536 170.924336,4.616 170.327,4.616 C169.570996,4.616 168.857003,4.81666466 168.185,5.218 L167.765,4.42 C168.567671,3.92533086 169.444995,3.678 170.397,3.678 C171.395672,3.678 172.125998,3.911331 172.588,4.378 C173.050002,4.844669 173.281,5.55399524 173.281,6.506 L173.281,9.418 C173.281,9.9313359 173.313666,10.458664 173.379,11 L172.287,11 C172.221666,10.5893313 172.189,10.2673345 172.189,10.034 L172.147,10.034 C171.885665,10.4166686 171.556669,10.705999 171.16,10.902 C170.763331,11.098001 170.252336,11.196 169.627,11.196 C168.93633,11.196 168.381002,11.0116685 167.961,10.643 C167.540998,10.2743315 167.331,9.74467012 167.331,9.054 L167.331,9.054 Z M172.091,8.368 L172.091,7.444 L171.461,7.43 C170.760996,7.43 170.203335,7.4766662 169.788,7.57 C169.372665,7.6633338 169.064668,7.82199888 168.864,8.046 C168.663332,8.27000112 168.563,8.58266466 168.563,8.984 C168.563,9.39466872 168.684332,9.70966557 168.927,9.929 C169.169668,10.1483344 169.505665,10.258 169.935,10.258 C170.383002,10.258 170.770332,10.1623343 171.097,9.971 C171.423668,9.77966571 171.670999,9.53933478 171.839,9.25 C172.007001,8.96066522 172.091,8.66666816 172.091,8.368 L172.091,8.368 Z M175.591,5.47 C175.591,4.94733072 175.558334,4.41533604 175.493,3.874 L176.627,3.874 C176.673667,4.19133492 176.706333,4.56933114 176.725,5.008 L176.753,5.008 C177.163669,4.1213289 177.910328,3.678 178.993,3.678 C179.067667,3.678 179.202999,3.69199986 179.399,3.72 L179.329,4.742 C179.235666,4.72333324 179.091001,4.714 178.895,4.714 C178.213663,4.714 177.691002,4.94266438 177.327,5.4 C176.962998,5.85733562 176.781,6.44999636 176.781,7.178 L176.781,11 L175.591,11 L175.591,5.47 Z M183.193,12.736 C182.959666,13.3800032 182.670335,13.8513318 182.325,14.15 C181.979665,14.4486682 181.522336,14.598 180.953,14.598 C180.588998,14.598 180.257668,14.5420006 179.959,14.43 L180.197,13.548 C180.402334,13.6040003 180.602999,13.632 180.799,13.632 C181.144335,13.632 181.412666,13.534001 181.604,13.338 C181.795334,13.141999 181.960999,12.848002 182.101,12.456 L182.591,11.042 L179.819,3.874 L181.107,3.874 L183.179,9.74 L183.207,9.74 L185.111,3.874 L186.329,3.874 L183.193,12.736 Z" id="Primary" fill="#000000"></path>
            <path d="M1196.578,2.138 L1193.456,2.138 L1193.456,11 L1192.21,11 L1192.21,2.138 L1189.074,2.138 L1189.074,1.088 L1196.578,1.088 L1196.578,2.138 Z M1202.864,7.864 L1197.572,7.864 C1197.61867,8.59200364 1197.838,9.17066452 1198.23,9.6 C1198.622,10.0293355 1199.182,10.244 1199.91,10.244 C1200.33934,10.244 1200.72433,10.1856672 1201.065,10.069 C1201.40567,9.95233275 1201.74866,9.7773345 1202.094,9.544 L1202.626,10.314 C1202.22466,10.6033348 1201.79767,10.8226659 1201.345,10.972 C1200.89233,11.1213341 1200.39067,11.196 1199.84,11.196 C1198.74799,11.196 1197.89634,10.8506701 1197.285,10.16 C1196.67366,9.46932988 1196.368,8.55000574 1196.368,7.402 C1196.368,6.66466298 1196.49867,6.0160028 1196.76,5.456 C1197.02133,4.8959972 1197.40166,4.45966823 1197.901,4.147 C1198.40034,3.83433177 1199,3.678 1199.7,3.678 C1200.73601,3.678 1201.527,4.01399664 1202.073,4.686 C1202.619,5.35800336 1202.892,6.24932778 1202.892,7.36 C1202.892,7.58400112 1202.88267,7.75199944 1202.864,7.864 L1202.864,7.864 Z M1201.73,6.94 C1201.71133,6.23066312 1201.52934,5.66133548 1201.184,5.232 C1200.83866,4.80266452 1200.33934,4.588 1199.686,4.588 C1199.02333,4.588 1198.51,4.80966445 1198.146,5.253 C1197.782,5.69633555 1197.586,6.25866326 1197.558,6.94 L1201.73,6.94 Z M1204.782,5.47 C1204.782,4.94733072 1204.74933,4.41533604 1204.684,3.874 L1205.818,3.874 C1205.86467,4.19133492 1205.89733,4.56933114 1205.916,5.008 L1205.944,5.008 C1206.35467,4.1213289 1207.10133,3.678 1208.184,3.678 C1208.25867,3.678 1208.394,3.69199986 1208.59,3.72 L1208.52,4.742 C1208.42667,4.72333324 1208.282,4.714 1208.086,4.714 C1207.40466,4.714 1206.882,4.94266438 1206.518,5.4 C1206.154,5.85733562 1205.972,6.44999636 1205.972,7.178 L1205.972,11 L1204.782,11 L1204.782,5.47 Z M1211.376,3.874 L1213.266,3.874 L1213.266,4.784 L1211.376,4.784 L1211.376,9.082 C1211.376,9.84733716 1211.726,10.23 1212.426,10.23 C1212.678,10.23 1212.91133,10.1973337 1213.126,10.132 L1213.308,11.014 C1212.99067,11.1353339 1212.622,11.196 1212.202,11.196 C1211.57666,11.196 1211.08434,11.0210017 1210.725,10.671 C1210.36566,10.3209983 1210.186,9.82400322 1210.186,9.18 L1210.186,4.784 L1208.926,4.784 L1208.926,4.014 L1210.172,3.874 L1210.172,2.124 L1211.376,1.704 L1211.376,3.874 Z M1216.122,11 L1214.932,11 L1214.932,3.874 L1216.122,3.874 L1216.122,11 Z M1214.75,1.438 C1214.75,0.93399748 1215.01133,0.682 1215.534,0.682 C1216.04734,0.682 1216.304,0.93399748 1216.304,1.438 C1216.304,1.65266774 1216.24333,1.82766599 1216.122,1.963 C1216.00067,2.09833401 1215.80467,2.166 1215.534,2.166 C1215.254,2.166 1215.05333,2.09833401 1214.932,1.963 C1214.81067,1.82766599 1214.75,1.65266774 1214.75,1.438 L1214.75,1.438 Z M1217.914,9.054 C1217.914,8.12999538 1218.24766,7.48833513 1218.915,7.129 C1219.58234,6.76966487 1220.58799,6.59 1221.932,6.59 C1222.25867,6.59 1222.506,6.59466662 1222.674,6.604 L1222.674,6.198 C1222.674,5.66599734 1222.52933,5.26933464 1222.24,5.008 C1221.95067,4.74666536 1221.50734,4.616 1220.91,4.616 C1220.154,4.616 1219.44,4.81666466 1218.768,5.218 L1218.348,4.42 C1219.15067,3.92533086 1220.028,3.678 1220.98,3.678 C1221.97867,3.678 1222.709,3.911331 1223.171,4.378 C1223.633,4.844669 1223.864,5.55399524 1223.864,6.506 L1223.864,9.418 C1223.864,9.9313359 1223.89667,10.458664 1223.962,11 L1222.87,11 C1222.80467,10.5893313 1222.772,10.2673345 1222.772,10.034 L1222.73,10.034 C1222.46867,10.4166686 1222.13967,10.705999 1221.743,10.902 C1221.34633,11.098001 1220.83534,11.196 1220.21,11.196 C1219.51933,11.196 1218.964,11.0116685 1218.544,10.643 C1218.124,10.2743315 1217.914,9.74467012 1217.914,9.054 L1217.914,9.054 Z M1222.674,8.368 L1222.674,7.444 L1222.044,7.43 C1221.344,7.43 1220.78634,7.4766662 1220.371,7.57 C1219.95566,7.6633338 1219.64767,7.82199888 1219.447,8.046 C1219.24633,8.27000112 1219.146,8.58266466 1219.146,8.984 C1219.146,9.39466872 1219.26733,9.70966557 1219.51,9.929 C1219.75267,10.1483344 1220.08866,10.258 1220.518,10.258 C1220.966,10.258 1221.35333,10.1623343 1221.68,9.971 C1222.00667,9.77966571 1222.254,9.53933478 1222.422,9.25 C1222.59,8.96066522 1222.674,8.66666816 1222.674,8.368 L1222.674,8.368 Z M1226.174,5.47 C1226.174,4.94733072 1226.14133,4.41533604 1226.076,3.874 L1227.21,3.874 C1227.25667,4.19133492 1227.28933,4.56933114 1227.308,5.008 L1227.336,5.008 C1227.74667,4.1213289 1228.49333,3.678 1229.576,3.678 C1229.65067,3.678 1229.786,3.69199986 1229.982,3.72 L1229.912,4.742 C1229.81867,4.72333324 1229.674,4.714 1229.478,4.714 C1228.79666,4.714 1228.274,4.94266438 1227.91,5.4 C1227.546,5.85733562 1227.364,6.44999636 1227.364,7.178 L1227.364,11 L1226.174,11 L1226.174,5.47 Z M1233.776,12.736 C1233.54267,13.3800032 1233.25334,13.8513318 1232.908,14.15 C1232.56266,14.4486682 1232.10534,14.598 1231.536,14.598 C1231.172,14.598 1230.84067,14.5420006 1230.542,14.43 L1230.78,13.548 C1230.98533,13.6040003 1231.186,13.632 1231.382,13.632 C1231.72734,13.632 1231.99567,13.534001 1232.187,13.338 C1232.37833,13.141999 1232.544,12.848002 1232.684,12.456 L1233.174,11.042 L1230.402,3.874 L1231.69,3.874 L1233.762,9.74 L1233.79,9.74 L1235.694,3.874 L1236.912,3.874 L1233.776,12.736 Z" id="Tertiary" fill="#000000"></path>
            <path d="M700.393,10.076 L701.023,9.292 C701.424335,9.60933492 701.839665,9.8379993 702.269,9.978 C702.698335,10.1180007 703.183664,10.188 703.725,10.188 C704.397003,10.188 704.940665,10.0316682 705.356,9.719 C705.771335,9.40633177 705.979,8.95133632 705.979,8.354 C705.979,7.9339979 705.881001,7.59333464 705.685,7.332 C705.488999,7.07066536 705.218335,6.86066746 704.873,6.702 C704.527665,6.54333254 704.070336,6.38933408 703.501,6.24 C702.576995,5.99733212 701.886336,5.66833541 701.429,5.253 C700.971664,4.83766459 700.743,4.2566704 700.743,3.51 C700.743,2.67932918 701.05333,2.030669 701.674,1.564 C702.29467,1.097331 703.085662,0.864 704.047,0.864 C704.65367,0.864 705.201998,0.94333254 705.692,1.102 C706.182002,1.26066746 706.636998,1.49399846 707.057,1.802 L706.497,2.614 C706.104998,2.36199874 705.715335,2.17533394 705.328,2.054 C704.940665,1.93266606 704.513669,1.872 704.047,1.872 C703.421664,1.872 702.917669,2.00499867 702.535,2.271 C702.152331,2.53700133 701.961,2.92199748 701.961,3.426 C701.961,3.93000252 702.135998,4.31033205 702.486,4.567 C702.836002,4.82366795 703.407663,5.05466564 704.201,5.26 C705.199672,5.52133464 705.955664,5.87599776 706.469,6.324 C706.982336,6.77200224 707.239,7.43466228 707.239,8.312 C707.239,8.94666984 707.082668,9.48333114 706.77,9.922 C706.457332,10.3606689 706.035003,10.6896656 705.503,10.909 C704.970997,11.1283344 704.37367,11.238 703.711,11.238 C702.422994,11.238 701.317005,10.8506705 700.393,10.076 L700.393,10.076 Z M714.995,7.864 L709.703,7.864 C709.749667,8.59200364 709.968998,9.17066452 710.361,9.6 C710.753002,10.0293355 711.312996,10.244 712.041,10.244 C712.470335,10.244 712.855332,10.1856672 713.196,10.069 C713.536668,9.95233275 713.879665,9.7773345 714.225,9.544 L714.757,10.314 C714.355665,10.6033348 713.928669,10.8226659 713.476,10.972 C713.023331,11.1213341 712.521669,11.196 711.971,11.196 C710.878995,11.196 710.027336,10.8506701 709.416,10.16 C708.804664,9.46932988 708.499,8.55000574 708.499,7.402 C708.499,6.66466298 708.629665,6.0160028 708.891,5.456 C709.152335,4.8959972 709.532664,4.45966823 710.032,4.147 C710.531336,3.83433177 711.130997,3.678 711.831,3.678 C712.867005,3.678 713.657997,4.01399664 714.204,4.686 C714.750003,5.35800336 715.023,6.24932778 715.023,7.36 C715.023,7.58400112 715.013667,7.75199944 714.995,7.864 L714.995,7.864 Z M713.861,6.94 C713.842333,6.23066312 713.660335,5.66133548 713.315,5.232 C712.969665,4.80266452 712.470337,4.588 711.817,4.588 C711.15433,4.588 710.641002,4.80966445 710.277,5.253 C709.912998,5.69633555 709.717,6.25866326 709.689,6.94 L713.861,6.94 Z M719.937,3.678 C720.385002,3.678 720.811998,3.74566599 721.218,3.881 C721.624002,4.01633401 721.985665,4.20533212 722.303,4.448 L721.827,5.274 C721.285664,4.87266466 720.65567,4.672 719.937,4.672 C719.171663,4.672 718.593002,4.92166417 718.201,5.421 C717.808998,5.92033583 717.613,6.5899958 717.613,7.43 C717.613,8.25133744 717.808998,8.91633079 718.201,9.425 C718.593002,9.93366921 719.166996,10.188 719.923,10.188 C720.567003,10.188 721.20633,9.98733534 721.841,9.586 L722.275,10.426 C721.565663,10.9393359 720.753671,11.196 719.839,11.196 C719.036329,11.196 718.378336,11.0163351 717.865,10.657 C717.351664,10.2976649 716.980668,9.83333618 716.752,9.264 C716.523332,8.69466382 716.409,8.0833366 716.409,7.43 C716.409,6.29132764 716.721664,5.38133674 717.347,4.7 C717.972336,4.01866326 718.835661,3.678 719.937,3.678 L719.937,3.678 Z M730.381,7.416 C730.381,8.15333702 730.238668,8.80899713 729.954,9.383 C729.669332,9.95700287 729.258669,10.4026651 728.722,10.72 C728.185331,11.0373349 727.54367,11.196 726.797,11.196 C726.059663,11.196 725.420336,11.0350016 724.879,10.713 C724.337664,10.3909984 723.927001,9.94533618 723.647,9.376 C723.366999,8.80666382 723.227,8.15333702 723.227,7.416 C723.227,6.27732764 723.539664,5.36967005 724.165,4.693 C724.790336,4.01632995 725.667661,3.678 726.797,3.678 C727.553004,3.678 728.199331,3.83433177 728.736,4.147 C729.272669,4.45966823 729.680999,4.8959972 729.961,5.456 C730.241001,6.0160028 730.381,6.6693296 730.381,7.416 L730.381,7.416 Z M724.459,7.416 C724.459,8.26533758 724.652665,8.94899741 725.04,9.467 C725.427335,9.98500259 726.012996,10.244 726.797,10.244 C727.590337,10.244 728.182998,9.98500259 728.575,9.467 C728.967002,8.94899741 729.163,8.26533758 729.163,7.416 C729.163,6.56666242 728.967002,5.89000252 728.575,5.386 C728.182998,4.88199748 727.590337,4.63 726.797,4.63 C726.003663,4.63 725.415669,4.88199748 725.033,5.386 C724.650331,5.89000252 724.459,6.56666242 724.459,7.416 L724.459,7.416 Z M732.285,5.47 C732.285,4.94733072 732.252334,4.41533604 732.187,3.874 L733.321,3.874 C733.367667,4.12600126 733.400333,4.4619979 733.419,4.882 L733.447,4.882 C733.680334,4.51799818 734.006998,4.22633443 734.427,4.007 C734.847002,3.78766557 735.34633,3.678 735.925,3.678 C736.821004,3.678 737.485998,3.93699741 737.92,4.455 C738.354002,4.97300259 738.571,5.61932946 738.571,6.394 L738.571,11 L737.381,11 L737.381,6.632 C737.381,6.06266382 737.241001,5.59366851 736.961,5.225 C736.680999,4.85633149 736.228336,4.672 735.603,4.672 C734.958997,4.672 734.443335,4.88433121 734.056,5.309 C733.668665,5.73366879 733.475,6.26799678 733.475,6.912 L733.475,11 L732.285,11 L732.285,5.47 Z M747.279,11 L746.173,11 C746.107666,10.5893313 746.075,10.2346682 746.075,9.936 L746.047,9.936 C745.514997,10.7760042 744.665673,11.196 743.499,11.196 C742.490995,11.196 741.718669,10.8506701 741.182,10.16 C740.645331,9.46932988 740.377,8.56867222 740.377,7.458 C740.377,6.74866312 740.509999,6.10700287 740.776,5.533 C741.042001,4.95899713 741.422331,4.50633499 741.917,4.175 C742.411669,3.84366501 742.994997,3.678 743.667,3.678 C744.619005,3.678 745.393664,3.98599692 745.991,4.602 L745.991,1.088 L747.181,1.088 L747.181,9.418 C747.181,9.9313359 747.213666,10.458664 747.279,11 L747.279,11 Z M745.991,7.934 L745.991,5.694 C745.710999,5.33933156 745.396002,5.07566753 745.046,4.903 C744.695998,4.73033247 744.292336,4.644 743.835,4.644 C743.14433,4.644 742.600669,4.90533072 742.204,5.428 C741.807331,5.95066928 741.609,6.62732918 741.609,7.458 C741.609,8.31667096 741.800331,8.99566417 742.183,9.495 C742.565669,9.99433583 743.092997,10.244 743.765,10.244 C744.437003,10.244 744.975998,10.0270022 745.382,9.593 C745.788002,9.15899783 745.991,8.60600336 745.991,7.934 L745.991,7.934 Z M748.959,9.054 C748.959,8.12999538 749.292663,7.48833513 749.96,7.129 C750.627337,6.76966487 751.632993,6.59 752.977,6.59 C753.303668,6.59 753.550999,6.59466662 753.719,6.604 L753.719,6.198 C753.719,5.66599734 753.574335,5.26933464 753.285,5.008 C752.995665,4.74666536 752.552336,4.616 751.955,4.616 C751.198996,4.616 750.485003,4.81666466 749.813,5.218 L749.393,4.42 C750.195671,3.92533086 751.072995,3.678 752.025,3.678 C753.023672,3.678 753.753998,3.911331 754.216,4.378 C754.678002,4.844669 754.909,5.55399524 754.909,6.506 L754.909,9.418 C754.909,9.9313359 754.941666,10.458664 755.007,11 L753.915,11 C753.849666,10.5893313 753.817,10.2673345 753.817,10.034 L753.775,10.034 C753.513665,10.4166686 753.184669,10.705999 752.788,10.902 C752.391331,11.098001 751.880336,11.196 751.255,11.196 C750.56433,11.196 750.009002,11.0116685 749.589,10.643 C749.168998,10.2743315 748.959,9.74467012 748.959,9.054 L748.959,9.054 Z M753.719,8.368 L753.719,7.444 L753.089,7.43 C752.388997,7.43 751.831335,7.4766662 751.416,7.57 C751.000665,7.6633338 750.692668,7.82199888 750.492,8.046 C750.291332,8.27000112 750.191,8.58266466 750.191,8.984 C750.191,9.39466872 750.312332,9.70966557 750.555,9.929 C750.797668,10.1483344 751.133665,10.258 751.563,10.258 C752.011002,10.258 752.398332,10.1623343 752.725,9.971 C753.051668,9.77966571 753.298999,9.53933478 753.467,9.25 C753.635001,8.96066522 753.719,8.66666816 753.719,8.368 L753.719,8.368 Z M757.219,5.47 C757.219,4.94733072 757.186334,4.41533604 757.121,3.874 L758.255,3.874 C758.301667,4.19133492 758.334333,4.56933114 758.353,5.008 L758.381,5.008 C758.791669,4.1213289 759.538328,3.678 760.621,3.678 C760.695667,3.678 760.830999,3.69199986 761.027,3.72 L760.957,4.742 C760.863666,4.72333324 760.719001,4.714 760.523,4.714 C759.841663,4.714 759.319002,4.94266438 758.955,5.4 C758.590998,5.85733562 758.409,6.44999636 758.409,7.178 L758.409,11 L757.219,11 L757.219,5.47 Z M764.821,12.736 C764.587665,13.3800032 764.298335,13.8513318 763.953,14.15 C763.607665,14.4486682 763.150336,14.598 762.581,14.598 C762.216998,14.598 761.885668,14.5420006 761.587,14.43 L761.825,13.548 C762.030334,13.6040003 762.230999,13.632 762.427,13.632 C762.772335,13.632 763.040666,13.534001 763.232,13.338 C763.423334,13.141999 763.588999,12.848002 763.729,12.456 L764.219,11.042 L761.447,3.874 L762.735,3.874 L764.807,9.74 L764.835,9.74 L766.739,3.874 L767.957,3.874 L764.821,12.736 Z" id="Secondary" fill="#000000"></path>
        </g>
    </g>
</svg>