<?xml version="1.0" encoding="UTF-8" standalone="no"?>
<svg width="1284px" height="41px" viewBox="0 0 1284 41" version="1.1" xmlns="http://www.w3.org/2000/svg" xmlns:xlink="http://www.w3.org/1999/xlink">
    <!-- Generator: Sketch 3.7.1 (28215) - http://www.bohemiancoding.com/sketch -->
    <title>1.9.</title>
    <desc>Created with Sketch.</desc>
    <defs>
        <rect id="path-1" x="0" y="0" width="1280" height="36"></rect>
        <filter x="-50%" y="-50%" width="200%" height="200%" filterUnits="objectBoundingBox" id="filter-2">
            <feOffset dx="0" dy="2" in="SourceAlpha" result="shadowOffsetOuter1"></feOffset>
            <feGaussianBlur stdDeviation="1" in="shadowOffsetOuter1" result="shadowBlurOuter1"></feGaussianBlur>
            <feColorMatrix values="0 0 0 0 0.0862745098   0 0 0 0 0.196078431   0 0 0 0 0.360784314  0 0 0 0.25 0" type="matrix" in="shadowBlurOuter1"></feColorMatrix>
        </filter>
    </defs>
    <g id="Page-1" stroke="none" stroke-width="1" fill="none" fill-rule="evenodd">
        <g id="1.9." transform="translate(2.000000, 1.000000)">
            <g id="BG" opacity="0.6">
                <use fill="black" fill-opacity="1" filter="url(#filter-2)" xlink:href="#path-1"></use>
                <use fill="#216CD0" fill-rule="evenodd" xlink:href="#path-1"></use>
            </g>
            <rect id="BG" fill="#216CD0" x="324" y="0" width="8" height="36"></rect>
            <rect id="App-Name" fill="#FFFFFF" opacity="0.3" x="68" y="9" width="95" height="18" rx="8"></rect>
            <path d="M328,0 L328,35" id="Line" stroke-opacity="0.2" stroke="#000000" stroke-linecap="square"></path>
            <path d="M183,0 L183,35" id="Line-Copy" stroke-opacity="0.2" stroke="#000000" stroke-linecap="square"></path>
            <g id="Secondary" transform="translate(328.000000, 0.000000)">
                <rect id="Rectangle-10-Copy" fill-opacity="0.3" fill="#FFFFFF" x="15" y="13" width="80" height="10" rx="8"></rect>
                <rect id="Rectangle-10-Copy" fill-opacity="0.3" fill="#FFFFFF" x="127.5" y="13" width="80" height="10" rx="8"></rect>
                <rect id="Rectangle-10-Copy" fill-opacity="0.3" fill="#FFFFFF" x="240" y="13" width="80" height="10" rx="8"></rect>
                <rect id="Rectangle-10-Copy" fill-opacity="0.3" fill="#FFFFFF" x="352.5" y="13" width="80" height="10" rx="8"></rect>
                <rect id="Rectangle-10-Copy" fill-opacity="0.3" fill="#FFFFFF" x="465" y="13" width="80" height="10" rx="8"></rect>
                <path d="M109.965932,16.2685987 C110.00298,16.2222886 110.012242,16.1574544 109.984456,16.0926202 C109.95667,16.0370481 109.901098,16 109.836264,16 L102.167308,16 C102.102473,16 102.046901,16.0370481 102.019115,16.0926202 C101.991329,16.1574544 102.000591,16.2222886 102.037639,16.2685987 L105.872117,20.9366589 C105.899903,20.9829691 105.955475,21.0014931 106.001786,21.0014931 C106.048096,21.0014931 106.094406,20.9829691 106.131454,20.9366589 L109.965932,16.2685987 Z" id="dropdown-2-copy" fill="#000000" opacity="0.2"></path>
                <path d="M222.214759,16.2685987 C222.251807,16.2222886 222.261069,16.1574544 222.233283,16.0926202 C222.205496,16.0370481 222.149924,16 222.08509,16 L214.416134,16 C214.3513,16 214.295728,16.0370481 214.267942,16.0926202 C214.240156,16.1574544 214.249418,16.2222886 214.286466,16.2685987 L218.120944,20.9366589 C218.14873,20.9829691 218.204302,21.0014931 218.250612,21.0014931 C218.296922,21.0014931 218.343232,20.9829691 218.38028,20.9366589 L222.214759,16.2685987 Z" id="dropdown-2-copy-2" fill="#000000" opacity="0.2"></path>
                <path d="M334.465932,16.2685987 C334.50298,16.2222886 334.512242,16.1574544 334.484456,16.0926202 C334.45667,16.0370481 334.401098,16 334.336264,16 L326.667308,16 C326.602473,16 326.546901,16.0370481 326.519115,16.0926202 C326.491329,16.1574544 326.500591,16.2222886 326.537639,16.2685987 L330.372117,20.9366589 C330.399903,20.9829691 330.455475,21.0014931 330.501786,21.0014931 C330.548096,21.0014931 330.594406,20.9829691 330.631454,20.9366589 L334.465932,16.2685987 Z" id="dropdown-2-copy-3" fill="#000000" opacity="0.2"></path>
                <path d="M446.714759,16.2685987 C446.751807,16.2222886 446.761069,16.1574544 446.733283,16.0926202 C446.705496,16.0370481 446.649924,16 446.58509,16 L438.916134,16 C438.8513,16 438.795728,16.0370481 438.767942,16.0926202 C438.740156,16.1574544 438.749418,16.2222886 438.786466,16.2685987 L442.620944,20.9366589 C442.64873,20.9829691 442.704302,21.0014931 442.750612,21.0014931 C442.796922,21.0014931 442.843232,20.9829691 442.88028,20.9366589 L446.714759,16.2685987 Z" id="dropdown-2-copy-4" fill="#000000" opacity="0.2"></path>
                <path d="M558.965932,16.2685987 C559.00298,16.2222886 559.012242,16.1574544 558.984456,16.0926202 C558.95667,16.0370481 558.901098,16 558.836264,16 L551.167308,16 C551.102473,16 551.046901,16.0370481 551.019115,16.0926202 C550.991329,16.1574544 551.000591,16.2222886 551.037639,16.2685987 L554.872117,20.9366589 C554.899903,20.9829691 554.955475,21.0014931 555.001786,21.0014931 C555.048096,21.0014931 555.094406,20.9829691 555.131454,20.9366589 L558.965932,16.2685987 Z" id="dropdown-2-copy-5" fill="#000000" opacity="0.2"></path>
            </g>
            <rect id="Rectangle-10-Copy" fill="#FFFFFF" opacity="0.4" x="203" y="13" width="80" height="10" rx="8"></rect>
            <path d="M311.950924,14.4030163 C312.006512,14.3335307 312.020409,14.2362509 311.978718,14.1389711 C311.937027,14.0555885 311.853644,14 311.756364,14 L300.249554,14 C300.152274,14 300.068892,14.0555885 300.0272,14.1389711 C299.985509,14.2362509 299.999406,14.3335307 300.054995,14.4030163 L305.8084,21.4071615 C305.850091,21.4766471 305.933474,21.5044413 306.002959,21.5044413 C306.072445,21.5044413 306.14193,21.4766471 306.197519,21.4071615 L311.950924,14.4030163 Z" id="dropdown-2-copy" fill="#FFFFFF" opacity="0.4"></path>
            <rect id="Rectangle-10-Copy" fill="#FFFFFF" opacity="0.2" x="1173" y="13" width="80" height="10" rx="8"></rect>
            <path d="M24,8.41666667 L24,12.5833333 C24,12.8148148 24.1851852,13 24.4166667,13 L28.5833333,13 C28.8148148,13 29,12.8148148 29,12.5833333 L29,8.41666667 C29,8.18518519 28.8148148,8 28.5833333,8 L24.4166667,8 C24.1851852,8 24,8.18518519 24,8.41666667 L24,8.41666667 Z M31.5,8.41666667 L31.5,12.5833333 C31.5,12.8148148 31.6851852,13 31.9166667,13 L36.0833333,13 C36.3148148,13 36.5,12.8148148 36.5,12.5833333 L36.5,8.41666667 C36.5,8.18518519 36.3148148,8 36.0833333,8 L31.9166667,8 C31.6851852,8 31.5,8.18518519 31.5,8.41666667 L31.5,8.41666667 Z M39,8.41666667 L39,12.5833333 C39,12.8148148 39.1851852,13 39.4166667,13 L43.5833333,13 C43.8148148,13 44,12.8148148 44,12.5833333 L44,8.41666667 C44,8.18518519 43.8148148,8 43.5833333,8 L39.4166667,8 C39.1851852,8 39,8.18518519 39,8.41666667 L39,8.41666667 Z M24,15.9166667 L24,20.0833333 C24,20.3148148 24.1851852,20.5 24.4166667,20.5 L28.5833333,20.5 C28.8148148,20.5 29,20.3148148 29,20.0833333 L29,15.9166667 C29,15.6851852 28.8148148,15.5 28.5833333,15.5 L24.4166667,15.5 C24.1851852,15.5 24,15.6851852 24,15.9166667 L24,15.9166667 Z M31.5,15.9166667 L31.5,20.0833333 C31.5,20.3148148 31.6851852,20.5 31.9166667,20.5 L36.0833333,20.5 C36.3148148,20.5 36.5,20.3148148 36.5,20.0833333 L36.5,15.9166667 C36.5,15.6851852 36.3148148,15.5 36.0833333,15.5 L31.9166667,15.5 C31.6851852,15.5 31.5,15.6851852 31.5,15.9166667 L31.5,15.9166667 Z M39,15.9166667 L39,20.0833333 C39,20.3148148 39.1851852,20.5 39.4166667,20.5 L43.5833333,20.5 C43.8148148,20.5 44,20.3148148 44,20.0833333 L44,15.9166667 C44,15.6851852 43.8148148,15.5 43.5833333,15.5 L39.4166667,15.5 C39.1851852,15.5 39,15.6851852 39,15.9166667 L39,15.9166667 Z M24,23.4166667 L24,27.5833333 C24,27.8148148 24.1851852,28 24.4166667,28 L28.5833333,28 C28.8148148,28 29,27.8148148 29,27.5833333 L29,23.4166667 C29,23.1851852 28.8148148,23 28.5833333,23 L24.4166667,23 C24.1851852,23 24,23.1851852 24,23.4166667 L24,23.4166667 Z M31.5,23.4166667 L31.5,27.5833333 C31.5,27.8148148 31.6851852,28 31.9166667,28 L36.0833333,28 C36.3148148,28 36.5,27.8148148 36.5,27.5833333 L36.5,23.4166667 C36.5,23.1851852 36.3148148,23 36.0833333,23 L31.9166667,23 C31.6851852,23 31.5,23.1851852 31.5,23.4166667 L31.5,23.4166667 Z M39,23.4166667 L39,27.5833333 C39,27.8148148 39.1851852,28 39.4166667,28 L43.5833333,28 C43.8148148,28 44,27.8148148 44,27.5833333 L44,23.4166667 C44,23.1851852 43.8148148,23 43.5833333,23 L39.4166667,23 C39.1851852,23 39,23.1851852 39,23.4166667 L39,23.4166667 Z" id="grid" fill="#FFFFFF" opacity="0.4"></path>
        </g>
    </g>
</svg>