<?xml version="1.0" encoding="UTF-8" standalone="no"?>
<svg width="1284px" height="44px" viewBox="0 0 1284 44" version="1.1" xmlns="http://www.w3.org/2000/svg" xmlns:xlink="http://www.w3.org/1999/xlink">
    <!-- Generator: Sketch 3.7.1 (28215) - http://www.bohemiancoding.com/sketch -->
    <title>1.2.</title>
    <desc>Created with Sketch.</desc>
    <defs>
        <rect id="path-1" x="0" y="4" width="1280" height="36"></rect>
        <filter x="-50%" y="-50%" width="200%" height="200%" filterUnits="objectBoundingBox" id="filter-2">
            <feOffset dx="0" dy="2" in="SourceAlpha" result="shadowOffsetOuter1"></feOffset>
            <feGaussianBlur stdDeviation="1" in="shadowOffsetOuter1" result="shadowBlurOuter1"></feGaussianBlur>
            <feColorMatrix values="0 0 0 0 0.0862745098   0 0 0 0 0.196078431   0 0 0 0 0.360784314  0 0 0 0.25 0" type="matrix" in="shadowBlurOuter1"></feColorMatrix>
        </filter>
        <rect id="path-3" x="433" y="0" width="110" height="44"></rect>
        <mask id="mask-4" maskContentUnits="userSpaceOnUse" maskUnits="objectBoundingBox" x="0" y="0" width="110" height="44" fill="white">
            <use xlink:href="#path-3"></use>
        </mask>
        <rect id="path-5" x="546" y="0" width="110" height="44"></rect>
        <mask id="mask-6" maskContentUnits="userSpaceOnUse" maskUnits="objectBoundingBox" x="0" y="0" width="110" height="44" fill="white">
            <use xlink:href="#path-5"></use>
        </mask>
        <rect id="path-7" x="659" y="0" width="110" height="44"></rect>
        <mask id="mask-8" maskContentUnits="userSpaceOnUse" maskUnits="objectBoundingBox" x="0" y="0" width="110" height="44" fill="white">
            <use xlink:href="#path-7"></use>
        </mask>
        <rect id="path-9" x="772" y="0" width="110" height="44"></rect>
        <mask id="mask-10" maskContentUnits="userSpaceOnUse" maskUnits="objectBoundingBox" x="0" y="0" width="110" height="44" fill="white">
            <use xlink:href="#path-9"></use>
        </mask>
        <rect id="path-11" x="320" y="0" width="110" height="44"></rect>
        <mask id="mask-12" maskContentUnits="userSpaceOnUse" maskUnits="objectBoundingBox" x="0" y="0" width="110" height="44" fill="white">
            <use xlink:href="#path-11"></use>
        </mask>
        <rect id="path-13" x="175" y="0" width="136" height="44"></rect>
        <mask id="mask-14" maskContentUnits="userSpaceOnUse" maskUnits="objectBoundingBox" x="0" y="0" width="136" height="44" fill="white">
            <use xlink:href="#path-13"></use>
        </mask>
        <rect id="path-15" x="47" y="0" width="120" height="44"></rect>
        <mask id="mask-16" maskContentUnits="userSpaceOnUse" maskUnits="objectBoundingBox" x="0" y="0" width="120" height="44" fill="white">
            <use xlink:href="#path-15"></use>
        </mask>
        <rect id="path-17" x="1144" y="0" width="110" height="44"></rect>
        <mask id="mask-18" maskContentUnits="userSpaceOnUse" maskUnits="objectBoundingBox" x="0" y="0" width="110" height="44" fill="white">
            <use xlink:href="#path-17"></use>
        </mask>
        <rect id="path-19" x="0" y="0" width="44" height="44"></rect>
        <mask id="mask-20" maskContentUnits="userSpaceOnUse" maskUnits="objectBoundingBox" x="0" y="0" width="44" height="44" fill="white">
            <use xlink:href="#path-19"></use>
        </mask>
    </defs>
    <g id="Page-1" stroke="none" stroke-width="1" fill="none" fill-rule="evenodd">
        <g id="1.2." transform="translate(2.000000, 0.000000)">
            <g id="BG">
                <use fill="black" fill-opacity="1" filter="url(#filter-2)" xlink:href="#path-1"></use>
                <use fill="#216CD0" fill-rule="evenodd" xlink:href="#path-1"></use>
            </g>
            <rect id="App-Name" fill-opacity="0.3" fill="#FFFFFF" x="68" y="13" width="95" height="18" rx="8"></rect>
            <path d="M328,4 L328,39" id="Line" stroke-opacity="0.2" stroke="#000000" stroke-linecap="square"></path>
            <path d="M183,4 L183,39" id="Line-Copy" stroke-opacity="0.2" stroke="#000000" stroke-linecap="square"></path>
            <g id="Secondary" transform="translate(328.000000, 4.000000)">
                <rect id="Rectangle-10-Copy" fill-opacity="0.3" fill="#FFFFFF" x="15" y="13" width="80" height="10" rx="8"></rect>
                <rect id="Rectangle-10-Copy" fill-opacity="0.3" fill="#FFFFFF" x="127.5" y="13" width="80" height="10" rx="8"></rect>
                <rect id="Rectangle-10-Copy" fill-opacity="0.3" fill="#FFFFFF" x="240" y="13" width="80" height="10" rx="8"></rect>
                <rect id="Rectangle-10-Copy" fill-opacity="0.3" fill="#FFFFFF" x="352.5" y="13" width="80" height="10" rx="8"></rect>
                <rect id="Rectangle-10-Copy" fill-opacity="0.3" fill="#FFFFFF" x="465" y="13" width="80" height="10" rx="8"></rect>
                <path d="M109.965932,16.2685987 C110.00298,16.2222886 110.012242,16.1574544 109.984456,16.0926202 C109.95667,16.0370481 109.901098,16 109.836264,16 L102.167308,16 C102.102473,16 102.046901,16.0370481 102.019115,16.0926202 C101.991329,16.1574544 102.000591,16.2222886 102.037639,16.2685987 L105.872117,20.9366589 C105.899903,20.9829691 105.955475,21.0014931 106.001786,21.0014931 C106.048096,21.0014931 106.094406,20.9829691 106.131454,20.9366589 L109.965932,16.2685987 Z" id="dropdown-2-copy" fill="#000000" opacity="0.2"></path>
                <path d="M222.214759,16.2685987 C222.251807,16.2222886 222.261069,16.1574544 222.233283,16.0926202 C222.205496,16.0370481 222.149924,16 222.08509,16 L214.416134,16 C214.3513,16 214.295728,16.0370481 214.267942,16.0926202 C214.240156,16.1574544 214.249418,16.2222886 214.286466,16.2685987 L218.120944,20.9366589 C218.14873,20.9829691 218.204302,21.0014931 218.250612,21.0014931 C218.296922,21.0014931 218.343232,20.9829691 218.38028,20.9366589 L222.214759,16.2685987 Z" id="dropdown-2-copy-2" fill="#000000" opacity="0.2"></path>
                <path d="M334.465932,16.2685987 C334.50298,16.2222886 334.512242,16.1574544 334.484456,16.0926202 C334.45667,16.0370481 334.401098,16 334.336264,16 L326.667308,16 C326.602473,16 326.546901,16.0370481 326.519115,16.0926202 C326.491329,16.1574544 326.500591,16.2222886 326.537639,16.2685987 L330.372117,20.9366589 C330.399903,20.9829691 330.455475,21.0014931 330.501786,21.0014931 C330.548096,21.0014931 330.594406,20.9829691 330.631454,20.9366589 L334.465932,16.2685987 Z" id="dropdown-2-copy-3" fill="#000000" opacity="0.2"></path>
                <path d="M446.714759,16.2685987 C446.751807,16.2222886 446.761069,16.1574544 446.733283,16.0926202 C446.705496,16.0370481 446.649924,16 446.58509,16 L438.916134,16 C438.8513,16 438.795728,16.0370481 438.767942,16.0926202 C438.740156,16.1574544 438.749418,16.2222886 438.786466,16.2685987 L442.620944,20.9366589 C442.64873,20.9829691 442.704302,21.0014931 442.750612,21.0014931 C442.796922,21.0014931 442.843232,20.9829691 442.88028,20.9366589 L446.714759,16.2685987 Z" id="dropdown-2-copy-4" fill="#000000" opacity="0.2"></path>
                <path d="M558.965932,16.2685987 C559.00298,16.2222886 559.012242,16.1574544 558.984456,16.0926202 C558.95667,16.0370481 558.901098,16 558.836264,16 L551.167308,16 C551.102473,16 551.046901,16.0370481 551.019115,16.0926202 C550.991329,16.1574544 551.000591,16.2222886 551.037639,16.2685987 L554.872117,20.9366589 C554.899903,20.9829691 554.955475,21.0014931 555.001786,21.0014931 C555.048096,21.0014931 555.094406,20.9829691 555.131454,20.9366589 L558.965932,16.2685987 Z" id="dropdown-2-copy-5" fill="#000000" opacity="0.2"></path>
            </g>
            <rect id="Rectangle-10-Copy" fill-opacity="0.3" fill="#FFFFFF" x="203" y="17" width="80" height="10" rx="8"></rect>
            <path d="M311.950924,18.4030163 C312.006512,18.3335307 312.020409,18.2362509 311.978718,18.1389711 C311.937027,18.0555885 311.853644,18 311.756364,18 L300.249554,18 C300.152274,18 300.068892,18.0555885 300.0272,18.1389711 C299.985509,18.2362509 299.999406,18.3335307 300.054995,18.4030163 L305.8084,25.4071615 C305.850091,25.4766471 305.933474,25.5044413 306.002959,25.5044413 C306.072445,25.5044413 306.14193,25.4766471 306.197519,25.4071615 L311.950924,18.4030163 Z" id="dropdown-2-copy" fill="#FFFFFF" opacity="0.400000006"></path>
            <rect id="Rectangle-10-Copy" fill="#FFFFFF" opacity="0.2" x="1173" y="17" width="80" height="10" rx="8"></rect>
            <g id="Group" transform="translate(12.000000, 0.000000)" stroke="#D0011B" stroke-width="2">
                <use id="Rectangle-29" mask="url(#mask-4)" xlink:href="#path-3"></use>
                <use id="Rectangle-29" mask="url(#mask-6)" xlink:href="#path-5"></use>
                <use id="Rectangle-29" mask="url(#mask-8)" xlink:href="#path-7"></use>
                <use id="Rectangle-29" mask="url(#mask-10)" xlink:href="#path-9"></use>
                <use id="Rectangle-29" mask="url(#mask-12)" xlink:href="#path-11"></use>
                <use id="Rectangle-29" mask="url(#mask-14)" xlink:href="#path-13"></use>
                <use id="Rectangle-29" mask="url(#mask-16)" xlink:href="#path-15"></use>
                <use id="Rectangle-29" mask="url(#mask-18)" xlink:href="#path-17"></use>
                <use id="Rectangle-29" mask="url(#mask-20)" xlink:href="#path-19"></use>
            </g>
            <path d="M24,12.4166667 L24,16.5833333 C24,16.8148148 24.1851852,17 24.4166667,17 L28.5833333,17 C28.8148148,17 29,16.8148148 29,16.5833333 L29,12.4166667 C29,12.1851852 28.8148148,12 28.5833333,12 L24.4166667,12 C24.1851852,12 24,12.1851852 24,12.4166667 L24,12.4166667 Z M31.5,12.4166667 L31.5,16.5833333 C31.5,16.8148148 31.6851852,17 31.9166667,17 L36.0833333,17 C36.3148148,17 36.5,16.8148148 36.5,16.5833333 L36.5,12.4166667 C36.5,12.1851852 36.3148148,12 36.0833333,12 L31.9166667,12 C31.6851852,12 31.5,12.1851852 31.5,12.4166667 L31.5,12.4166667 Z M39,12.4166667 L39,16.5833333 C39,16.8148148 39.1851852,17 39.4166667,17 L43.5833333,17 C43.8148148,17 44,16.8148148 44,16.5833333 L44,12.4166667 C44,12.1851852 43.8148148,12 43.5833333,12 L39.4166667,12 C39.1851852,12 39,12.1851852 39,12.4166667 L39,12.4166667 Z M24,19.9166667 L24,24.0833333 C24,24.3148148 24.1851852,24.5 24.4166667,24.5 L28.5833333,24.5 C28.8148148,24.5 29,24.3148148 29,24.0833333 L29,19.9166667 C29,19.6851852 28.8148148,19.5 28.5833333,19.5 L24.4166667,19.5 C24.1851852,19.5 24,19.6851852 24,19.9166667 L24,19.9166667 Z M31.5,19.9166667 L31.5,24.0833333 C31.5,24.3148148 31.6851852,24.5 31.9166667,24.5 L36.0833333,24.5 C36.3148148,24.5 36.5,24.3148148 36.5,24.0833333 L36.5,19.9166667 C36.5,19.6851852 36.3148148,19.5 36.0833333,19.5 L31.9166667,19.5 C31.6851852,19.5 31.5,19.6851852 31.5,19.9166667 L31.5,19.9166667 Z M39,19.9166667 L39,24.0833333 C39,24.3148148 39.1851852,24.5 39.4166667,24.5 L43.5833333,24.5 C43.8148148,24.5 44,24.3148148 44,24.0833333 L44,19.9166667 C44,19.6851852 43.8148148,19.5 43.5833333,19.5 L39.4166667,19.5 C39.1851852,19.5 39,19.6851852 39,19.9166667 L39,19.9166667 Z M24,27.4166667 L24,31.5833333 C24,31.8148148 24.1851852,32 24.4166667,32 L28.5833333,32 C28.8148148,32 29,31.8148148 29,31.5833333 L29,27.4166667 C29,27.1851852 28.8148148,27 28.5833333,27 L24.4166667,27 C24.1851852,27 24,27.1851852 24,27.4166667 L24,27.4166667 Z M31.5,27.4166667 L31.5,31.5833333 C31.5,31.8148148 31.6851852,32 31.9166667,32 L36.0833333,32 C36.3148148,32 36.5,31.8148148 36.5,31.5833333 L36.5,27.4166667 C36.5,27.1851852 36.3148148,27 36.0833333,27 L31.9166667,27 C31.6851852,27 31.5,27.1851852 31.5,27.4166667 L31.5,27.4166667 Z M39,27.4166667 L39,31.5833333 C39,31.8148148 39.1851852,32 39.4166667,32 L43.5833333,32 C43.8148148,32 44,31.8148148 44,31.5833333 L44,27.4166667 C44,27.1851852 43.8148148,27 43.5833333,27 L39.4166667,27 C39.1851852,27 39,27.1851852 39,27.4166667 L39,27.4166667 Z" id="grid" fill="#FFFFFF" opacity="0.4"></path>
        </g>
    </g>
</svg>